P3
50 50
255
114 114 114
142 142 142
170 170 170
195 195 195
214 214 214
216 216 216
199 199 199
175 175 175
148 148 148
155 155 155
162 162 162
160 160 160
149 149 149
132 132 132
111 111 111
94 94 94
103 103 103
107 107 107
105 105 105
97 97 97
85 85 85
75 75 75
90 90 90
102 102 102
109 109 109
110 110 110
105 105 105
114 114 114
116 116 116
113 113 113
113 113 113
111 111 111
103 103 103
115 115 115
141 141 141
166 166 166
186 186 186
197 197 197
194 194 194
179 179 179
157 157 157
132 132 132
105 105 105
104 104 104
107 107 107
111 111 111
109 109 109
101 101 101
88 88 88
86 86 86
119 119 119
148 148 148
178 178 178
207 207 207
235 235 235
241 241 241
213 213 213
183 183 183
154 154 154
152 152 152
159 159 159
157 157 157
146 146 146
130 130 130
109 109 109
95 95 95
104 104 104
108 108 108
106 106 106
98 98 98
86 86 86
91 91 91
108 108 108
122 122 122
129 129 129
130 130 130
131 131 131
142 142 142
145 145 145
141 141 141
130 130 130
113 113 113
104 104 104
123 123 123
152 152 152
179 179 179
205 205 205
222 222 222
217 217 217
196 196 196
170 170 170
142 142 142
128 128 128
134 134 134
134 134 134
139 139 139
137 137 137
127 127 127
112 112 112
93 93 93
117 117 117
146 146 146
175 175 175
202 202 202
226 226 226
229 229 229
208 208 208
180 180 180
152 152 152
141 141 141
147 147 147
145 145 145
136 136 136
120 120 120
101 101 101
91 91 91
100 100 100
104 104 104
102 102 102
94 94 94
82 82 82
103 103 103
122 122 122
137 137 137
146 146 146
147 147 147
155 155 155
169 169 169
174 174 174
168 168 168
154 154 154
134 134 134
110 110 110
125 125 125
154 154 154
183 183 183
210 210 210
231 231 231
225 225 225
201 201 201
173 173 173
144 144 144
156 156 156
163 163 163
161 161 161
166 166 166
163 163 163
151 151 151
133 133 133
111 111 111
110 110 110
137 137 137
162 162 162
185 185 185
200 200 200
202 202 202
188 188 188
167 167 167
142 142 142
124 124 124
129 129 129
127 127 127
119 119 119
106 106 106
88 88 88
93 93 93
101 101 101
103 103 103
100 100 100
91 91 91
87 87 87
110 110 110
130 130 130
146 146 146
156 156 156
157 157 157
176 176 176
194 194 194
201 201 201
193 193 193
174 174 174
150 150 150
124 124 124
121 121 121
148 148 148
175 175 175
198 198 198
213 213 213
209 209 209
190 190 190
166 166 166
163 163 163
182 182 182
191 191 191
188 188 188
191 191 191
187 187 187
171 171 171
149 149 149
125 125 125
97 97 97
121 121 121
143 143 143
161 161 161
172 172 172
173 173 173
164 164 164
147 147 147
126 126 126
114 114 114
116 116 116
112 112 112
102 102 102
87 87 87
105 105 105
119 119 119
128 128 128
131 131 131
127 127 127
116 116 116
101 101 101
111 111 111
132 132 132
148 148 148
158 158 158
163 163 163
190 190 190
213 213 213
224 224 224
211 211 211
187 187 187
160 160 160
131 131 131
113 113 113
135 135 135
158 158 158
176 176 176
186 186 186
184 184 184
171 171 171
152 152 152
179 179 179
204 204 204
219 219 219
214 214 214
210 210 210
204 204 204
184 184 184
160 160 160
133 133 133
81 81 81
104 104 104
125 125 125
141 141 141
151 151 151
154 154 154
148 148 148
135 135 135
118 118 118
116 116 116
108 108 108
107 107 107
101 101 101
105 105 105
126 126 126
143 143 143
155 155 155
158 158 158
153 153 153
140 140 140
121 121 121
115 115 115
126 126 126
142 142 142
151 151 151
164 164 164
191 191 191
216 216 216
228 228 228
213 213 213
188 188 188
161 161 161
147 147 147
138 138 138
123 123 123
136 136 136
151 151 151
158 158 158
156 156 156
159 159 159
162 162 162
186 186 186
215 215 215
239 239 239
229 229 229
214 214 214
207 207 207
187 187 187
161 161 161
134 134 134
84 84 84
108 108 108
129 129 129
146 146 146
156 156 156
159 159 159
153 153 153
139 139 139
142 142 142
140 140 140
130 130 130
125 125 125
117 117 117
120 120 120
144 144 144
164 164 164
178 178 178
183 183 183
176 176 176
160 160 160
138 138 138
134 134 134
139 139 139
136 136 136
137 137 137
156 156 156
180 180 180
199 199 199
207 207 207
198 198 198
178 178 178
172 172 172
170 170 170
159 159 159
141 141 141
119 119 119
124 124 124
148 148 148
169 169 169
185 185 185
189 189 189
181 181 181
206 206 206
223 223 223
217 217 217
199 199 199
194 194 194
177 177 177
154 154 154
128 128 128
85 85 85
105 105 105
126 126 126
142 142 142
153 153 153
155 155 155
149 149 149
157 157 157
163 163 163
160 160 160
148 148 148
137 137 137
129 129 129
129 129 129
155 155 155
179 179 179
197 197 197
203 203 203
193 193 193
174 174 174
149 149 149
149 149 149
154 154 154
151 151 151
140 140 140
140 140 140
161 161 161
175 175 175
180 180 180
174 174 174
181 181 181
191 191 191
189 189 189
175 175 175
154 154 154
130 130 130
134 134 134
161 161 161
186 186 186
206 206 206
213 213 213
201 201 201
185 185 185
196 196 196
192 192 192
177 177 177
172 172 172
159 159 159
139 139 139
116 116 116
108 108 108
125 125 125
138 138 138
144 144 144
142 142 142
143 143 143
156 156 156
171 171 171
178 178 178
174 174 174
160 160 160
144 144 144
135 135 135
132 132 132
159 159 159
184 184 184
203 203 203
210 210 210
199 199 199
178 178 178
153 153 153
158 158 158
163 163 163
159 159 159
147 147 147
133 133 133
140 140 140
148 148 148
152 152 152
168 168 168
188 188 188
201 201 201
198 198 198
182 182 182
160 160 160
134 134 134
137 137 137
165 165 165
193 193 193
216 216 216
225 225 225
210 210 210
185 185 185
167 167 167
165 165 165
169 169 169
169 169 169
159 159 159
142 142 142
121 121 121
129 129 129
149 149 149
165 165 165
173 173 173
171 171 171
159 159 159
160 160 160
176 176 176
183 183 183
179 179 179
164 164 164
144 144 144
134 134 134
135 135 135
157 157 157
177 177 177
194 194 194
200 200 200
191 191 191
172 172 172
148 148 148
157 157 157
163 163 163
159 159 159
147 147 147
159 159 159
168 168 168
168 168 168
158 158 158
164 164 164
184 184 184
195 195 195
192 192 192
178 178 178
156 156 156
132 132 132
133 133 133
160 160 160
186 186 186
206 206 206
212 212 212
201 201 201
179 179 179
154 154 154
170 170 170
181 181 181
181 181 181
170 170 170
152 152 152
129 129 129
145 145 145
170 170 170
191 191 191
202 202 202
199 199 199
182 182 182
159 159 159
170 170 170
176 176 176
172 172 172
159 159 159
139 139 139
126 126 126
148 148 148
174 174 174
196 196 196
209 209 209
206 206 206
188 188 188
163 163 163
137 137 137
148 148 148
153 153 153
158 158 158
162 162 162
183 183 183
196 196 196
196 196 196
182 182 182
161 161 161
168 168 168
177 177 177
175 175 175
164 164 164
145 145 145
122 122 122
126 126 126
155 155 155
182 182 182
207 207 207
222 222 222
215 215 215
193 193 193
167 167 167
172 172 172
183 183 183
183 183 183
172 172 172
153 153 153
130 130 130
155 155 155
184 184 184
210 210 210
230 230 230
223 223 223
199 199 199
171 171 171
155 155 155
161 161 161
157 157 157
146 146 146
128 128 128
125 125 125
153 153 153
181 181 181
207 207 207
225 225 225
220 220 220
197 197 197
170 170 170
142 142 142
145 145 145
163 163 163
174 174 174
176 176 176
202 202 202
222 222 222
221 221 221
201 201 201
174 174 174
147 147 147
154 154 154
153 153 153
143 143 143
127 127 127
111 111 111
129 129 129
158 158 158
187 187 187
215 215 215
236 236 236
226 226 226
199 199 199
171 171 171
164 164 164
174 174 174
174 174 174
164 164 164
146 146 146
126 126 126
157 157 157
187 187 187
215 215 215
241 241 241
231 231 231
203 203 203
174 174 174
144 144 144
139 139 139
137 137 137
127 127 127
112 112 112
123 123 123
151 151 151
178 178 178
202 202 202
217 217 217
213 213 213
192 192 192
167 167 167
140 140 140
149 149 149
168 168 168
180 180 180
180 180 180
208 208 208
232 232 232
231 231 231
206 206 206
178 178 178
162 162 162
162 162 162
152 152 152
142 142 142
141 141 141
133 133 133
125 125 125
153 153 153
180 180 180
203 203 203
217 217 217
211 211 211
191 191 191
165 165 165
147 147 147
156 156 156
156 156 156
147 147 147
132 132 132
128 128 128
151 151 151
177 177 177
201 201 201
216 216 216
211 211 211
191 191 191
166 166 166
139 139 139
115 115 115
113 113 113
105 105 105
94 94 94
114 114 114
140 140 140
164 164 164
183 183 183
194 194 194
191 191 191
176 176 176
155 155 155
130 130 130
146 146 146
164 164 164
174 174 174
175 175 175
196 196 196
214 214 214
213 213 213
195 195 195
179 179 179
191 191 191
190 190 190
177 177 177
162 162 162
161 161 161
152 152 152
135 135 135
140 140 140
163 163 163
181 181 181
190 190 190
186 186 186
172 172 172
151 151 151
127 127 127
133 133 133
133 133 133
126 126 126
114 114 114
123 123 123
137 137 137
160 160 160
178 178 178
187 187 187
185 185 185
181 181 181
167 167 167
146 146 146
122 122 122
97 97 97
99 99 99
99 99 99
106 106 106
124 124 124
144 144 144
159 159 159
167 167 167
165 165 165
154 154 154
144 144 144
131 131 131
135 135 135
151 151 151
160 160 160
161 161 161
175 175 175
187 187 187
186 186 186
175 175 175
200 200 200
218 218 218
216 216 216
197 197 197
177 177 177
175 175 175
164 164 164
146 146 146
123 123 123
141 141 141
155 155 155
162 162 162
159 159 159
148 148 148
131 131 131
110 110 110
109 109 109
108 108 108
108 108 108
105 105 105
112 112 112
124 124 124
151 151 151
177 177 177
199 199 199
211 211 211
205 205 205
186 186 186
161 161 161
134 134 134
122 122 122
128 128 128
127 127 127
120 120 120
107 107 107
120 120 120
138 138 138
156 156 156
169 169 169
172 172 172
165 165 165
150 150 150
143 143 143
160 160 160
169 169 169
168 168 168
158 158 158
158 158 158
158 158 158
181 181 181
210 210 210
236 236 236
233 233 233
207 207 207
181 181 181
180 180 180
168 168 168
149 149 149
129 129 129
148 148 148
162 162 162
167 167 167
163 163 163
150 150 150
131 131 131
109 109 109
85 85 85
91 91 91
97 97 97
98 98 98
96 96 96
128 128 128
157 157 157
185 185 185
211 211 211
227 227 227
219 219 219
195 195 195
168 168 168
139 139 139
149 149 149
157 157 157
156 156 156
147 147 147
131 131 131
125 125 125
149 149 149
170 170 170
185 185 185
189 189 189
180 180 180
163 163 163
163 163 163
184 184 184
196 196 196
195 195 195
181 181 181
160 160 160
154 154 154
176 176 176
202 202 202
221 221 221
220 220 220
199 199 199
174 174 174
173 173 173
162 162 162
144 144 144
147 147 147
170 170 170
188 188 188
196 196 196
190 190 190
173 173 173
150 150 150
125 125 125
98 98 98
100 100 100
108 108 108
109 109 109
105 105 105
126 126 126
154 154 154
181 181 181
205 205 205
219 219 219
212 212 212
191 191 191
165 165 165
156 156 156
175 175 175
185 185 185
184 184 184
171 171 171
152 152 152
128 128 128
153 153 153
175 175 175
191 191 191
195 195 195
186 186 186
167 167 167
176 176 176
201 201 201
220 220 220
219 219 219
199 199 199
173 173 173
148 148 148
162 162 162
182 182 182
195 195 195
194 194 194
180 180 180
159 159 159
158 158 158
148 148 148
132 132 132
160 160 160
187 187 187
212 212 212
225 225 225
214 214 214
190 190 190
163 163 163
135 135 135
106 106 106
106 106 106
113 113 113
115 115 115
110 110 110
118 118 118
144 144 144
167 167 167
186 186 186
195 195 195
191 191 191
175 175 175
153 153 153
172 172 172
196 196 196
211 211 211
209 209 209
192 192 192
167 167 167
141 141 141
148 148 148
169 169 169
184 184 184
188 188 188
179 179 179
162 162 162
179 179 179
206 206 206
228 228 228
226 226 226
203 203 203
176 176 176
147 147 147
141 141 141
157 157 157
166 166 166
166 166 166
156 156 156
139 139 139
137 137 137
129 129 129
135 135 135
164 164 164
193 193 193
222 222 222
247 247 247
226 226 226
197 197 197
168 168 168
138 138 138
109 109 109
105 105 105
113 113 113
115 115 115
110 110 110
104 104 104
127 127 127
147 147 147
161 161 161
168 168 168
165 165 165
153 153 153
152 152 152
180 180 180
208 208 208
229 229 229
226 226 226
202 202 202
175 175 175
146 146 146
136 136 136
155 155 155
167 167 167
170 170 170
163 163 163
148 148 148
171 171 171
195 195 195
210 210 210
209 209 209
192 192 192
168 168 168
141 141 141
118 118 118
131 131 131
137 137 137
137 137 137
129 129 129
116 116 116
113 113 113
115 115 115
131 131 131
159 159 159
186 186 186
210 210 210
223 223 223
213 213 213
189 189 189
162 162 162
134 134 134
106 106 106
99 99 99
107 107 107
108 108 108
104 104 104
86 86 86
106 106 106
123 123 123
134 134 134
139 139 139
137 137 137
131 131 131
155 155 155
177 177 177
203 203 203
221 221 221
218 218 218
198 198 198
172 172 172
144 144 144
119 119 119
134 134 134
144 144 144
147 147 147
141 141 141
132 132 132
155 155 155
173 173 173
184 184 184
183 183 183
172 172 172
152 152 152
129 129 129
104 104 104
103 103 103
108 108 108
108 108 108
102 102 102
101 101 101
105 105 105
113 113 113
121 121 121
146 146 146
169 169 169
187 187 187
194 194 194
188 188 188
171 171 171
149 149 149
124 124 124
97 97 97
88 88 88
95 95 95
96 96 96
92 92 92
65 65 65
83 83 83
97 97 97
106 106 106
110 110 110
111 111 111
139 139 139
165 165 165
189 189 189
206 206 206
208 208 208
195 195 195
181 181 181
159 159 159
134 134 134
121 121 121
130 130 130
133 133 133
129 129 129
118 118 118
122 122 122
140 140 140
153 153 153
158 158 158
156 156 156
147 147 147
131 131 131
111 111 111
99 99 99
83 83 83
93 93 93
109 109 109
119 119 119
124 124 124
122 122 122
113 113 113
108 108 108
130 130 130
148 148 148
161 161 161
165 165 165
161 161 161
148 148 148
130 130 130
108 108 108
88 88 88
76 76 76
88 88 88
96 96 96
99 99 99
60 60 60
78 78 78
93 93 93
104 104 104
110 110 110
125 125 125
142 142 142
166 166 166
190 190 190
207 207 207
212 212 212
210 210 210
193 193 193
168 168 168
142 142 142
144 144 144
156 156 156
159 159 159
154 154 154
141 141 141
131 131 131
151 151 151
165 165 165
171 171 171
167 167 167
154 154 154
135 135 135
114 114 114
107 107 107
96 96 96
109 109 109
126 126 126
138 138 138
143 143 143
141 141 141
131 131 131
116 116 116
122 122 122
139 139 139
150 150 150
153 153 153
149 149 149
137 137 137
119 119 119
109 109 109
101 101 101
89 89 89
100 100 100
109 109 109
112 112 112
57 57 57
76 76 76
90 90 90
101 101 101
121 121 121
144 144 144
164 164 164
178 178 178
181 181 181
202 202 202
220 220 220
218 218 218
198 198 198
172 172 172
144 144 144
164 164 164
178 178 178
183 183 183
176 176 176
159 159 159
138 138 138
153 153 153
168 168 168
174 174 174
170 170 170
157 157 157
137 137 137
136 136 136
130 130 130
118 118 118
119 119 119
138 138 138
151 151 151
157 157 157
155 155 155
144 144 144
127 127 127
107 107 107
123 123 123
132 132 132
136 136 136
132 132 132
121 121 121
121 121 121
119 119 119
115 115 115
107 107 107
107 107 107
117 117 117
120 120 120
61 61 61
69 69 69
83 83 83
104 104 104
131 131 131
158 158 158
181 181 181
199 199 199
204 204 204
193 193 193
207 207 207
206 206 206
189 189 189
166 166 166
154 154 154
177 177 177
194 194 194
200 200 200
191 191 191
172 172 172
148 148 148
148 148 148
161 161 161
167 167 167
163 163 163
151 151 151
156 156 156
157 157 157
150 150 150
135 135 135
124 124 124
144 144 144
158 158 158
164 164 164
161 161 161
150 150 150
132 132 132
111 111 111
103 103 103
111 111 111
114 114 114
110 110 110
124 124 124
136 136 136
141 141 141
138 138 138
128 128 128
113 113 113
119 119 119
122 122 122
65 65 65
74 74 74
82 82 82
108 108 108
136 136 136
163 163 163
189 189 189
209 209 209
215 215 215
202 202 202
183 183 183
182 182 182
170 170 170
151 151 151
156 156 156
180 180 180
198 198 198
204 204 204
195 195 195
175 175 175
150 150 150
135 135 135
147 147 147
152 152 152
148 148 148
161 161 161
172 172 172
173 173 173
164 164 164
148 148 148
127 127 127
141 141 141
155 155 155
162 162 162
159 159 159
148 148 148
130 130 130
109 109 109
85 85 85
90 90 90
100 100 100
123 123 123
141 141 141
155 155 155
160 160 160
157 157 157
146 146 146
128 128 128
114 114 114
118 118 118
65 65 65
77 77 77
92 92 92
105 105 105
133 133 133
160 160 160
184 184 184
202 202 202
208 208 208
196 196 196
175 175 175
156 156 156
147 147 147
131 131 131
150 150 150
172 172 172
188 188 188
193 193 193
185 185 185
167 167 167
152 152 152
134 134 134
127 127 127
131 131 131
147 147 147
166 166 166
179 179 179
180 180 180
171 171 171
153 153 153
137 137 137
140 140 140
145 145 145
150 150 150
148 148 148
138 138 138
122 122 122
102 102 102
108 108 108
116 116 116
117 117 117
132 132 132
152 152 152
167 167 167
174 174 174
170 170 170
157 157 157
138 138 138
116 116 116
107 107 107
63 63 63
86 86 86
107 107 107
125 125 125
138 138 138
148 148 148
168 168 168
183 183 183
187 187 187
178 178 178
161 161 161
139 139 139
137 137 137
129 129 129
136 136 136
155 155 155
168 168 168
183 183 183
190 190 190
185 185 185
170 170 170
148 148 148
136 136 136
150 150 150
157 157 157
163 163 163
174 174 174
176 176 176
167 167 167
150 150 150
146 146 146
150 150 150
146 146 146
135 135 135
131 131 131
122 122 122
108 108 108
116 116 116
131 131 131
140 140 140
141 141 141
136 136 136
156 156 156
171 171 171
178 178 178
175 175 175
161 161 161
141 141 141
118 118 118
94 94 94
76 76 76
101 101 101
125 125 125
146 146 146
161 161 161
170 170 170
168 168 168
158 158 158
161 161 161
155 155 155
161 161 161
168 168 168
166 166 166
155 155 155
137 137 137
150 150 150
174 174 174
194 194 194
204 204 204
197 197 197
179 179 179
155 155 155
150 150 150
167 167 167
175 175 175
173 173 173
161 161 161
162 162 162
154 154 154
139 139 139
149 149 149
153 153 153
148 148 148
137 137 137
119 119 119
102 102 102
111 111 111
132 132 132
149 149 149
160 160 160
162 162 162
155 155 155
150 150 150
165 165 165
172 172 172
168 168 168
164 164 164
150 150 150
132 132 132
109 109 109
93 93 93
112 112 112
138 138 138
161 161 161
180 180 180
191 191 191
189 189 189
175 175 175
154 154 154
166 166 166
186 186 186
196 196 196
193 193 193
178 178 178
156 156 156
149 149 149
173 173 173
192 192 192
202 202 202
196 196 196
178 178 178
154 154 154
158 158 158
176 176 176
185 185 185
183 183 183
170 170 170
150 150 150
138 138 138
134 134 134
143 143 143
147 147 147
143 143 143
131 131 131
115 115 115
95 95 95
120 120 120
143 143 143
162 162 162
174 174 174
177 177 177
169 169 169
153 153 153
165 165 165
182 182 182
188 188 188
182 182 182
166 166 166
145 145 145
120 120 120
116 116 116
117 117 117
144 144 144
169 169 169
190 190 190
203 203 203
200 200 200
184 184 184
161 161 161
181 181 181
206 206 206
223 223 223
217 217 217
195 195 195
169 169 169
141 141 141
162 162 162
178 178 178
186 186 186
181 181 181
166 166 166
145 145 145
157 157 157
175 175 175
184 184 184
182 182 182
169 169 169
161 161 161
165 165 165
160 160 160
146 146 146
133 133 133
130 130 130
120 120 120
104 104 104
97 97 97
123 123 123
146 146 146
166 166 166
179 179 179
182 182 182
174 174 174
157 157 157
173 173 173
191 191 191
199 199 199
192 192 192
174 174 174
151 151 151
125 125 125
137 137 137
137 137 137
142 142 142
167 167 167
187 187 187
199 199 199
197 197 197
182 182 182
159 159 159
185 185 185
213 213 213
235 235 235
227 227 227
201 201 201
172 172 172
143 143 143
144 144 144
157 157 157
163 163 163
159 159 159
147 147 147
138 138 138
148 148 148
163 163 163
171 171 171
169 169 169
169 169 169
185 185 185
191 191 191
183 183 183
166 166 166
144 144 144
119 119 119
108 108 108
106 106 106
97 97 97
119 119 119
142 142 142
161 161 161
173 173 173
176 176 176
173 173 173
174 174 174
170 170 170
188 188 188
195 195 195
188 188 188
171 171 171
149 149 149
130 130 130
154 154 154
153 153 153
144 144 144
155 155 155
173 173 173
183 183 183
181 181 181
168 168 168
151 151 151
178 178 178
201 201 201
216 216 216
211 211 211
191 191 191
166 166 166
139 139 139
122 122 122
133 133 133
137 137 137
134 134 134
136 136 136
134 134 134
151 151 151
163 163 163
165 165 165
159 159 159
183 183 183
203 203 203
211 211 211
201 201 201
180 180 180
154 154 154
127 127 127
106 106 106
104 104 104
99 99 99
117 117 117
131 131 131
148 148 148
158 158 158
176 176 176
189 189 189
190 190 190
179 179 179
173 173 173
179 179 179
174 174 174
159 159 159
139 139 139
146 146 146
163 163 163
163 163 163
153 153 153
138 138 138
152 152 152
160 160 160
158 158 158
148 148 148
138 138 138
161 161 161
179 179 179
189 189 189
186 186 186
172 172 172
155 155 155
142 142 142
130 130 130
140 140 140
143 143 143
138 138 138
145 145 145
152 152 152
166 166 166
179 179 179
182 182 182
174 174 174
186 186 186
207 207 207
216 216 216
205 205 205
183 183 183
157 157 157
129 129 129
101 101 101
97 97 97
112 112 112
134 134 134
154 154 154
167 167 167
172 172 172
180 180 180
194 194 194
195 195 195
182 182 182
164 164 164
166 166 166
158 158 158
142 142 142
139 139 139
155 155 155
164 164 164
164 164 164
154 154 154
137 137 137
128 128 128
134 134 134
133 133 133
125 125 125
120 120 120
139 139 139
153 153 153
160 160 160
169 169 169
174 174 174
169 169 169
155 155 155
149 149 149
161 161 161
164 164 164
158 158 158
164 164 164
171 171 171
171 171 171
186 186 186
190 190 190
181 181 181
177 177 177
195 195 195
202 202 202
193 193 193
174 174 174
150 150 150
124 124 124
97 97 97
98 98 98
125 125 125
151 151 151
174 174 174
192 192 192
199 199 199
191 191 191
185 185 185
186 186 186
175 175 175
183 183 183
185 185 185
175 175 175
157 157 157
140 140 140
156 156 156
156 156 156
155 155 155
146 146 146
131 131 131
116 116 116
120 120 120
135 135 135
144 144 144
145 145 145
139 139 139
139 139 139
159 159 159
175 175 175
181 181 181
175 175 175
160 160 160
162 162 162
176 176 176
180 180 180
173 173 173
175 175 175
184 184 184
181 181 181
181 181 181
184 184 184
176 176 176
159 159 159
174 174 174
179 179 179
172 172 172
157 157 157
137 137 137
117 117 117
112 112 112
105 105 105
133 133 133
162 162 162
188 188 188
212 212 212
222 222 222
210 210 210
186 186 186
167 167 167
179 179 179
193 193 193
196 196 196
184 184 184
164 164 164
140 140 140
148 148 148
140 140 140
143 143 143
144 144 144
138 138 138
125 125 125
140 140 140
158 158 158
170 170 170
172 172 172
163 163 163
147 147 147
156 156 156
170 170 170
176 176 176
171 171 171
157 157 157
167 167 167
182 182 182
186 186 186
178 178 178
176 176 176
185 185 185
183 183 183
169 169 169
168 168 168
161 161 161
147 147 147
148 148 148
152 152 152
147 147 147
135 135 135
144 144 144
146 146 146
140 140 140
127 127 127
135 135 135
163 163 163
191 191 191
215 215 215
227 227 227
214 214 214
189 189 189
161 161 161
176 176 176
190 190 190
192 192 192
182 182 182
162 162 162
138 138 138
133 133 133
137 137 137
146 146 146
148 148 148
141 141 141
131 131 131
156 156 156
177 177 177
192 192 192
195 195 195
184 184 184
164 164 164
144 144 144
156 156 156
161 161 161
157 157 157
145 145 145
162 162 162
176 176 176
180 180 180
173 173 173
167 167 167
175 175 175
173 173 173
161 161 161
147 147 147
141 141 141
129 129 129
121 121 121
124 124 124
143 143 143
161 161 161
173 173 173
175 175 175
167 167 167
151 151 151
129 129 129
156 156 156
180 180 180
200 200 200
208 208 208
199 199 199
179 179 179
154 154 154
164 164 164
176 176 176
177 177 177
168 168 168
151 151 151
134 134 134
125 125 125
133 133 133
142 142 142
143 143 143
137 137 137
138 138 138
164 164 164
188 188 188
206 206 206
209 209 209
196 196 196
173 173 173
167 167 167
183 183 183
189 189 189
183 183 183
167 167 167
149 149 149
161 161 161
164 164 164
158 158 158
150 150 150
157 157 157
155 155 155
145 145 145
128 128 128
117 117 117
107 107 107
108 108 108
135 135 135
161 161 161
184 184 184
201 201 201
204 204 204
192 192 192
171 171 171
145 145 145
141 141 141
161 161 161
176 176 176
182 182 182
175 175 175
160 160 160
139 139 139
145 145 145
154 154 154
155 155 155
148 148 148
148 148 148
146 146 146
137 137 137
122 122 122
130 130 130
133 133 133
146 146 146
152 152 152
163 163 163
187 187 187
204 204 204
207 207 207
194 194 194
172 172 172
185 185 185
207 207 207
217 217 217
207 207 207
185 185 185
158 158 158
140 140 140
143 143 143
138 138 138
128 128 128
134 134 134
132 132 132
124 124 124
110 110 110
100 100 100
119 119 119
133 133 133
144 144 144
173 173 173
201 201 201
226 226 226
233 233 233
211 211 211
184 184 184
155 155 155
145 145 145
161 161 161
169 169 169
168 168 168
157 157 157
140 140 140
136 136 136
154 154 154
165 165 165
168 168 168
161 161 161
154 154 154
152 152 152
142 142 142
111 111 111
135 135 135
156 156 156
172 172 172
180 180 180
176 176 176
174 174 174
188 188 188
190 190 190
180 180 180
164 164 164
193 193 193
220 220 220
236 236 236
220 220 220
193 193 193
164 164 164
135 135 135
118 118 118
114 114 114
104 104 104
109 109 109
107 107 107
100 100 100
95 95 95
119 119 119
141 141 141
159 159 159
170 170 170
175 175 175
204 204 204
232 232 232
241 241 241
215 215 215
186 186 186
157 157 157
163 163 163
183 183 183
194 194 194
192 192 192
178 178 178
157 157 157
141 141 141
159 159 159
172 172 172
175 175 175
167 167 167
151 151 151
149 149 149
139 139 139
123 123 123
150 150 150
175 175 175
196 196 196
207 207 207
201 201 201
183 183 183
176 176 176
166 166 166
158 158 158
161 161 161
188 188 188
212 212 212
223 223 223
211 211 211
188 188 188
161 161 161
140 140 140
129 129 129
134 134 134
132 132 132
124 124 124
109 109 109
91 91 91
108 108 108
135 135 135
160 160 160
183 183 183
198 198 198
200 200 200
191 191 191
210 210 210
214 214 214
200 200 200
176 176 176
157 157 157
174 174 174
198 198 198
213 213 213
210 210 210
192 192 192
167 167 167
140 140 140
156 156 156
168 168 168
171 171 171
163 163 163
148 148 148
139 139 139
130 130 130
129 129 129
157 157 157
185 185 185
211 211 211
228 228 228
219 219 219
196 196 196
193 193 193
178 178 178
156 156 156
149 149 149
172 172 172
190 190 190
197 197 197
189 189 189
172 172 172
166 166 166
156 156 156
157 157 157
164 164 164
161 161 161
150 150 150
133 133 133
111 111 111
116 116 116
145 145 145
173 173 173
200 200 200
223 223 223
227 227 227
207 207 207
183 183 183
200 200 200
205 205 205
194 194 194
173 173 173
175 175 175
199 199 199
215 215 215
212 212 212
193 193 193
168 168 168
141 141 141
145 145 145
155 155 155
158 158 158
151 151 151
138 138 138
126 126 126
115 115 115
128 128 128
156 156 156
184 184 184
209 209 209
225 225 225
217 217 217
201 201 201
198 198 198
182 182 182
162 162 162
154 154 154
150 150 150
163 163 163
168 168 168
168 168 168
177 177 177
175 175 175
165 165 165
183 183 183
193 193 193
189 189 189
174 174 174
153 153 153
128 128 128
117 117 117
147 147 147
176 176 176
205 205 205
232 232 232
238 238 238
212 212 212
191 191 191
212 212 212
219 219 219
205 205 205
181 181 181
166 166 166
186 186 186
198 198 198
196 196 196
181 181 181
159 159 159
134 134 134
128 128 128
143 143 143
154 154 154
157 157 157
152 152 152
139 139 139
121 121 121
121 121 121
147 147 147
171 171 171
191 191 191
202 202 202
197 197 197
192 192 192
189 189 189
188 188 188
190 190 190
179 179 179
160 160 160
136 136 136
150 150 150
167 167 167
175 175 175
174 174 174
181 181 181
206 206 206
222 222 222
215 215 215
193 193 193
167 167 167
139 139 139
121 121 121
141 141 141
168 168 168
193 193 193
212 212 212
215 215 215
199 199 199
187 187 187
206 206 206
212 212 212
200 200 200
177 177 177
158 158 158
174 174 174
182 182 182
178 178 178
165 165 165
145 145 145
121 121 121
131 131 131
149 149 149
161 161 161
164 164 164
159 159 159
145 145 145
126 126 126
110 110 110
135 135 135
158 158 158
176 176 176
186 186 186
184 184 184
172 172 172
194 194 194
213 213 213
216 216 216
199 199 199
175 175 175
148 148 148
141 141 141
156 156 156
164 164 164
162 162 162
189 189 189
218 218 218
246 246 246
231 231 231
202 202 202
173 173 173
143 143 143
124 124 124
128 128 128
152 152 152
172 172 172
185 185 185
187 187 187
177 177 177
172 172 172
187 187 187
191 191 191
182 182 182
164 164 164
176 176 176
198 198 198
210 210 210
205 205 205
186 186 186
161 161 161
135 135 135
130 130 130
147 147 147
159 159 159
162 162 162
157 157 157
143 143 143
124 124 124
109 109 109
134 134 134
156 156 156
174 174 174
184 184 184
182 182 182
175 175 175
202 202 202
227 227 227
231 231 231
209 209 209
181 181 181
153 153 153
148 148 148
157 157 157
158 158 158
155 155 155
183 183 183
209 209 209
226 226 226
219 219 219
196 196 196
168 168 168
140 140 140
121 121 121
122 122 122
131 131 131
147 147 147
157 157 157
158 158 158
151 151 151
153 153 153
162 162 162
164 164 164
158 158 158
159 159 159
187 187 187
215 215 215
235 235 235
224 224 224
198 198 198
170 170 170
148 148 148
143 143 143
137 137 137
148 148 148
151 151 151
146 146 146
134 134 134
116 116 116
102 102 102
126 126 126
146 146 146
162 162 162
171 171 171
169 169 169
170 170 170
195 195 195
215 215 215
218 218 218
201 201 201
176 176 176
149 149 149
165 165 165
176 176 176
177 177 177
167 167 167
168 168 168
187 187 187
197 197 197
193 193 193
177 177 177
155 155 155
130 130 130
131 131 131
138 138 138
138 138 138
131 131 131
128 128 128
137 137 137
150 150 150
155 155 155
151 151 151
140 140 140
132 132 132
158 158 158
186 186 186
213 213 213
231 231 231
222 222 222
197 197 197
169 169 169
155 155 155
149 149 149
136 136 136
132 132 132
136 136 136
133 133 133
123 123 123
108 108 108
90 90 90
112 112 112
132 132 132
148 148 148
157 157 157
158 158 158
156 156 156
177 177 177
191 191 191
193 193 193
181 181 181
162 162 162
155 155 155
175 175 175
187 187 187
188 188 188
176 176 176
157 157 157
161 161 161
168 168 168
165 165 165
154 154 154
136 136 136
126 126 126
140 140 140
148 148 148
148 148 148
141 141 141
126 126 126
132 132 132
144 144 144
149 149 149
145 145 145
135 135 135
122 122 122
148 148 148
173 173 173
194 194 194
205 205 205
200 200 200
182 182 182
158 158 158
153 153 153
148 148 148
138 138 138
150 150 150
155 155 155
152 152 152
140 140 140
123 123 123
104 104 104
129 129 129
153 153 153
173 173 173
186 186 186
187 187 187
176 176 176
158 158 158
163 163 163
165 165 165
157 157 157
155 155 155
154 154 154
173 173 173
186 186 186
186 186 186
175 175 175
156 156 156
133 133 133
139 139 139
137 137 137
128 128 128
118 118 118
128 128 128
143 143 143
151 151 151
151 151 151
143 143 143
129 129 129
121 121 121
131 131 131
135 135 135
133 133 133
123 123 123
125 125 125
145 145 145
161 161 161
169 169 169
177 177 177
173 173 173
160 160 160
141 141 141
144 144 144
138 138 138
149 149 149
163 163 163
169 169 169
165 165 165
152 152 152
133 133 133
