P3
50 50
255
117 117 117
131 131 131
138 138 138
138 138 138
131 131 131
118 118 118
124 124 124
132 132 132
134 134 134
128 128 128
144 144 144
171 171 171
196 196 196
214 214 214
215 215 215
197 197 197
173 173 173
175 175 175
187 187 187
188 188 188
176 176 176
157 157 157
154 154 154
170 170 170
178 178 178
175 175 175
163 163 163
144 144 144
158 158 158
164 164 164
160 160 160
148 148 148
147 147 147
146 146 146
138 138 138
132 132 132
123 123 123
145 145 145
166 166 166
182 182 182
187 187 187
181 181 181
164 164 164
143 143 143
118 118 118
111 111 111
115 115 115
113 113 113
104 104 104
99 99 99
134 134 134
150 150 150
159 159 159
159 159 159
150 150 150
135 135 135
129 129 129
133 133 133
134 134 134
130 130 130
145 145 145
173 173 173
199 199 199
218 218 218
219 219 219
201 201 201
175 175 175
197 197 197
215 215 215
216 216 216
199 199 199
174 174 174
156 156 156
173 173 173
181 181 181
178 178 178
165 165 165
150 150 150
164 164 164
170 170 170
167 167 167
162 162 162
171 171 171
171 171 171
160 160 160
148 148 148
138 138 138
158 158 158
183 183 183
203 203 203
212 212 212
202 202 202
181 181 181
155 155 155
128 128 128
135 135 135
140 140 140
137 137 137
127 127 127
114 114 114
146 146 146
164 164 164
174 174 174
174 174 174
164 164 164
147 147 147
140 140 140
140 140 140
141 141 141
157 157 157
166 166 166
165 165 165
187 187 187
203 203 203
203 203 203
189 189 189
179 179 179
209 209 209
237 237 237
239 239 239
211 211 211
182 182 182
152 152 152
165 165 165
173 173 173
170 170 170
158 158 158
147 147 147
161 161 161
167 167 167
163 163 163
179 179 179
191 191 191
190 190 190
177 177 177
160 160 160
159 159 159
163 163 163
190 190 190
214 214 214
225 225 225
212 212 212
187 187 187
160 160 160
143 143 143
156 156 156
162 162 162
158 158 158
146 146 146
129 129 129
150 150 150
169 169 169
180 180 180
180 180 180
169 169 169
151 151 151
145 145 145
145 145 145
162 162 162
182 182 182
194 194 194
193 193 193
179 179 179
178 178 178
179 179 179
169 169 169
176 176 176
203 203 203
226 226 226
227 227 227
205 205 205
178 178 178
163 163 163
182 182 182
192 192 192
189 189 189
174 174 174
153 153 153
149 149 149
159 159 159
167 167 167
188 188 188
201 201 201
200 200 200
185 185 185
183 183 183
183 183 183
171 171 171
184 184 184
205 205 205
214 214 214
203 203 203
182 182 182
156 156 156
157 157 157
172 172 172
179 179 179
174 174 174
160 160 160
141 141 141
159 159 159
164 164 164
175 175 175
175 175 175
165 165 165
147 147 147
146 146 146
150 150 150
176 176 176
202 202 202
220 220 220
219 219 219
198 198 198
172 172 172
152 152 152
144 144 144
163 163 163
185 185 185
199 199 199
200 200 200
186 186 186
165 165 165
177 177 177
200 200 200
214 214 214
209 209 209
190 190 190
165 165 165
163 163 163
183 183 183
194 194 194
193 193 193
196 196 196
195 195 195
186 186 186
200 200 200
200 200 200
185 185 185
168 168 168
184 184 184
190 190 190
183 183 183
166 166 166
161 161 161
166 166 166
179 179 179
186 186 186
181 181 181
166 166 166
147 147 147
161 161 161
165 165 165
160 160 160
160 160 160
152 152 152
159 159 159
173 173 173
177 177 177
181 181 181
210 210 210
234 234 234
231 231 231
205 205 205
177 177 177
154 154 154
142 142 142
152 152 152
169 169 169
178 178 178
176 176 176
164 164 164
169 169 169
180 180 180
205 205 205
222 222 222
216 216 216
194 194 194
168 168 168
177 177 177
202 202 202
219 219 219
216 216 216
196 196 196
178 178 178
189 189 189
204 204 204
203 203 203
188 188 188
166 166 166
179 179 179
193 193 193
195 195 195
183 183 183
163 163 163
182 182 182
191 191 191
187 187 187
177 177 177
163 163 163
149 149 149
155 155 155
158 158 158
153 153 153
155 155 155
158 158 158
178 178 178
196 196 196
202 202 202
192 192 192
200 200 200
217 217 217
215 215 215
196 196 196
188 188 188
182 182 182
167 167 167
168 168 168
188 188 188
200 200 200
197 197 197
182 182 182
172 172 172
178 178 178
195 195 195
207 207 207
203 203 203
185 185 185
161 161 161
181 181 181
208 208 208
229 229 229
226 226 226
202 202 202
174 174 174
180 180 180
192 192 192
192 192 192
179 179 179
169 169 169
193 193 193
212 212 212
214 214 214
198 198 198
176 176 176
198 198 198
211 211 211
205 205 205
186 186 186
162 162 162
143 143 143
159 159 159
171 171 171
172 172 172
174 174 174
177 177 177
188 188 188
210 210 210
218 218 218
206 206 206
183 183 183
190 190 190
189 189 189
206 206 206
217 217 217
208 208 208
186 186 186
175 175 175
199 199 199
213 213 213
210 210 210
191 191 191
166 166 166
171 171 171
174 174 174
183 183 183
180 180 180
167 167 167
151 151 151
174 174 174
197 197 197
213 213 213
210 210 210
192 192 192
167 167 167
161 161 161
171 171 171
171 171 171
161 161 161
176 176 176
196 196 196
215 215 215
218 218 218
201 201 201
179 179 179
202 202 202
216 216 216
210 210 210
190 190 190
164 164 164
141 141 141
176 176 176
191 191 191
193 193 193
185 185 185
188 188 188
187 187 187
208 208 208
215 215 215
203 203 203
181 181 181
164 164 164
193 193 193
222 222 222
246 246 246
226 226 226
197 197 197
172 172 172
194 194 194
208 208 208
205 205 205
187 187 187
163 163 163
154 154 154
156 156 156
175 175 175
186 186 186
185 185 185
173 173 173
178 178 178
201 201 201
213 213 213
207 207 207
187 187 187
162 162 162
139 139 139
146 146 146
146 146 146
160 160 160
184 184 184
204 204 204
210 210 210
201 201 201
188 188 188
170 170 170
190 190 190
201 201 201
197 197 197
180 180 180
157 157 157
155 155 155
185 185 185
202 202 202
205 205 205
192 192 192
188 188 188
179 179 179
190 190 190
195 195 195
187 187 187
169 169 169
162 162 162
190 190 190
217 217 217
233 233 233
219 219 219
194 194 194
165 165 165
178 178 178
188 188 188
186 186 186
185 185 185
181 181 181
167 167 167
169 169 169
191 191 191
206 206 206
205 205 205
189 189 189
183 183 183
208 208 208
222 222 222
214 214 214
192 192 192
165 165 165
137 137 137
126 126 126
148 148 148
166 166 166
181 181 181
199 199 199
205 205 205
195 195 195
174 174 174
154 154 154
170 170 170
178 178 178
175 175 175
162 162 162
153 153 153
162 162 162
182 182 182
197 197 197
200 200 200
188 188 188
175 175 175
167 167 167
166 166 166
170 170 170
164 164 164
149 149 149
151 151 151
175 175 175
195 195 195
204 204 204
201 201 201
186 186 186
163 163 163
156 156 156
179 179 179
201 201 201
214 214 214
207 207 207
191 191 191
192 192 192
197 197 197
213 213 213
212 212 212
195 195 195
176 176 176
197 197 197
209 209 209
203 203 203
184 184 184
160 160 160
140 140 140
133 133 133
157 157 157
176 176 176
187 187 187
187 187 187
186 186 186
178 178 178
161 161 161
141 141 141
145 145 145
151 151 151
149 149 149
163 163 163
180 180 180
188 188 188
200 200 200
202 202 202
189 189 189
173 173 173
159 159 159
150 150 150
164 164 164
170 170 170
166 166 166
154 154 154
141 141 141
167 167 167
188 188 188
201 201 201
200 200 200
197 197 197
185 185 185
164 164 164
189 189 189
218 218 218
241 241 241
227 227 227
217 217 217
219 219 219
201 201 201
202 202 202
201 201 201
186 186 186
164 164 164
177 177 177
185 185 185
181 181 181
173 173 173
176 176 176
167 167 167
151 151 151
157 157 157
176 176 176
187 187 187
187 187 187
174 174 174
155 155 155
153 153 153
163 163 163
165 165 165
157 157 157
159 159 159
181 181 181
204 204 204
217 217 217
223 223 223
227 227 227
207 207 207
180 180 180
171 171 171
154 154 154
160 160 160
173 173 173
177 177 177
170 170 170
155 155 155
156 156 156
175 175 175
194 194 194
213 213 213
215 215 215
198 198 198
174 174 174
187 187 187
214 214 214
233 233 233
223 223 223
232 232 232
235 235 235
210 210 210
181 181 181
182 182 182
193 193 193
191 191 191
177 177 177
161 161 161
184 184 184
201 201 201
204 204 204
192 192 192
171 171 171
164 164 164
176 176 176
178 178 178
175 175 175
164 164 164
156 156 156
168 168 168
181 181 181
183 183 183
173 173 173
181 181 181
196 196 196
219 219 219
244 244 244
227 227 227
232 232 232
210 210 210
182 182 182
173 173 173
156 156 156
170 170 170
185 185 185
190 190 190
182 182 182
164 164 164
142 142 142
169 169 169
194 194 194
213 213 213
215 215 215
198 198 198
174 174 174
185 185 185
206 206 206
214 214 214
203 203 203
218 218 218
219 219 219
201 201 201
179 179 179
204 204 204
221 221 221
217 217 217
196 196 196
172 172 172
200 200 200
225 225 225
231 231 231
211 211 211
184 184 184
182 182 182
199 199 199
202 202 202
190 190 190
171 171 171
184 184 184
186 186 186
189 189 189
191 191 191
180 180 180
196 196 196
216 216 216
220 220 220
231 231 231
207 207 207
210 210 210
196 196 196
173 173 173
165 165 165
149 149 149
170 170 170
185 185 185
190 190 190
182 182 182
165 165 165
142 142 142
160 160 160
181 181 181
196 196 196
197 197 197
185 185 185
164 164 164
182 182 182
201 201 201
208 208 208
198 198 198
192 192 192
193 193 193
181 181 181
184 184 184
213 213 213
238 238 238
231 231 231
204 204 204
175 175 175
202 202 202
229 229 229
237 237 237
214 214 214
185 185 185
192 192 192
212 212 212
217 217 217
202 202 202
192 192 192
210 210 210
213 213 213
198 198 198
186 186 186
176 176 176
198 198 198
220 220 220
224 224 224
205 205 205
181 181 181
182 182 182
173 173 173
156 156 156
149 149 149
141 141 141
161 161 161
174 174 174
178 178 178
171 171 171
156 156 156
149 149 149
173 173 173
193 193 193
202 202 202
196 196 196
178 178 178
155 155 155
168 168 168
183 183 183
188 188 188
181 181 181
164 164 164
171 171 171
182 182 182
182 182 182
204 204 204
221 221 221
217 217 217
196 196 196
170 170 170
189 189 189
208 208 208
212 212 212
198 198 198
175 175 175
189 189 189
207 207 207
211 211 211
198 198 198
203 203 203
228 228 228
232 232 232
210 210 210
182 182 182
163 163 163
186 186 186
203 203 203
205 205 205
192 192 192
176 176 176
181 181 181
175 175 175
159 159 159
138 138 138
127 127 127
144 144 144
155 155 155
159 159 159
155 155 155
159 159 159
159 159 159
186 186 186
211 211 211
226 226 226
216 216 216
192 192 192
165 165 165
147 147 147
160 160 160
163 163 163
158 158 158
165 165 165
187 187 187
201 201 201
201 201 201
187 187 187
193 193 193
191 191 191
177 177 177
155 155 155
168 168 168
181 181 181
184 184 184
175 175 175
169 169 169
174 174 174
188 188 188
191 191 191
186 186 186
198 198 198
220 220 220
223 223 223
205 205 205
179 179 179
169 169 169
187 187 187
196 196 196
191 191 191
174 174 174
202 202 202
210 210 210
200 200 200
179 179 179
154 154 154
127 127 127
123 123 123
132 132 132
142 142 142
153 153 153
157 157 157
160 160 160
188 188 188
214 214 214
230 230 230
219 219 219
194 194 194
166 166 166
165 165 165
157 157 157
141 141 141
142 142 142
169 169 169
192 192 192
208 208 208
208 208 208
193 193 193
169 169 169
163 163 163
153 153 153
136 136 136
153 153 153
177 177 177
195 195 195
202 202 202
193 193 193
174 174 174
164 164 164
175 175 175
190 190 190
193 193 193
196 196 196
198 198 198
186 186 186
165 165 165
169 169 169
188 188 188
197 197 197
192 192 192
183 183 183
222 222 222
237 237 237
218 218 218
191 191 191
162 162 162
133 133 133
107 107 107
125 125 125
137 137 137
144 144 144
147 147 147
152 152 152
177 177 177
198 198 198
208 208 208
201 201 201
182 182 182
192 192 192
193 193 193
181 181 181
161 161 161
143 143 143
163 163 163
184 184 184
198 198 198
198 198 198
185 185 185
163 163 163
145 145 145
126 126 126
135 135 135
163 163 163
190 190 190
214 214 214
225 225 225
212 212 212
187 187 187
160 160 160
167 167 167
181 181 181
184 184 184
175 175 175
170 170 170
161 161 161
145 145 145
160 160 160
177 177 177
184 184 184
186 186 186
199 199 199
221 221 221
234 234 234
217 217 217
190 190 190
162 162 162
133 133 133
115 115 115
133 133 133
147 147 147
154 154 154
152 152 152
162 162 162
190 190 190
215 215 215
229 229 229
216 216 216
197 197 197
217 217 217
218 218 218
200 200 200
175 175 175
172 172 172
171 171 171
167 167 167
177 177 177
177 177 177
168 168 168
161 161 161
146 146 146
126 126 126
136 136 136
164 164 164
192 192 192
217 217 217
229 229 229
214 214 214
189 189 189
161 161 161
152 152 152
163 163 163
165 165 165
158 158 158
144 144 144
135 135 135
125 125 125
144 144 144
158 158 158
179 179 179
206 206 206
227 227 227
200 200 200
207 207 207
198 198 198
177 177 177
152 152 152
126 126 126
116 116 116
135 135 135
149 149 149
156 156 156
156 156 156
165 165 165
194 194 194
222 222 222
240 240 240
222 222 222
204 204 204
227 227 227
229 229 229
207 207 207
188 188 188
201 201 201
200 200 200
184 184 184
162 162 162
157 157 157
159 159 159
152 152 152
139 139 139
131 131 131
135 135 135
156 156 156
180 180 180
200 200 200
207 207 207
198 198 198
178 178 178
153 153 153
131 131 131
140 140 140
142 142 142
136 136 136
124 124 124
114 114 114
123 123 123
142 142 142
160 160 160
182 182 182
212 212 212
240 240 240
174 174 174
178 178 178
172 172 172
157 157 157
136 136 136
112 112 112
128 128 128
151 151 151
170 170 170
181 181 181
181 181 181
175 175 175
191 191 191
206 206 206
216 216 216
206 206 206
194 194 194
212 212 212
213 213 213
197 197 197
207 207 207
229 229 229
226 226 226
203 203 203
175 175 175
173 173 173
180 180 180
176 176 176
162 162 162
157 157 157
162 162 162
159 159 159
161 161 161
183 183 183
199 199 199
202 202 202
189 189 189
168 168 168
149 149 149
160 160 160
162 162 162
155 155 155
141 141 141
122 122 122
125 125 125
148 148 148
166 166 166
178 178 178
200 200 200
217 217 217
146 146 146
149 149 149
145 145 145
133 133 133
116 116 116
112 112 112
139 139 139
165 165 165
187 187 187
202 202 202
202 202 202
194 194 194
216 216 216
223 223 223
207 207 207
182 182 182
175 175 175
187 187 187
188 188 188
183 183 183
212 212 212
241 241 241
236 236 236
207 207 207
178 178 178
194 194 194
204 204 204
199 199 199
181 181 181
180 180 180
188 188 188
183 183 183
172 172 172
200 200 200
223 223 223
228 228 228
208 208 208
182 182 182
173 173 173
187 187 187
191 191 191
181 181 181
163 163 163
144 144 144
136 136 136
145 145 145
164 164 164
175 175 175
177 177 177
189 189 189
117 117 117
120 120 120
116 116 116
112 112 112
113 113 113
115 115 115
143 143 143
170 170 170
194 194 194
211 211 211
212 212 212
200 200 200
228 228 228
240 240 240
216 216 216
188 188 188
159 159 159
159 159 159
160 160 160
175 175 175
199 199 199
216 216 216
214 214 214
195 195 195
182 182 182
206 206 206
219 219 219
212 212 212
190 190 190
198 198 198
208 208 208
201 201 201
182 182 182
203 203 203
230 230 230
238 238 238
213 213 213
185 185 185
191 191 191
212 212 212
217 217 217
202 202 202
179 179 179
166 166 166
156 156 156
144 144 144
152 152 152
165 165 165
176 176 176
177 177 177
117 117 117
117 117 117
110 110 110
110 110 110
118 118 118
121 121 121
139 139 139
165 165 165
187 187 187
202 202 202
203 203 203
192 192 192
214 214 214
220 220 220
206 206 206
181 181 181
154 154 154
156 156 156
176 176 176
190 190 190
192 192 192
192 192 192
187 187 187
174 174 174
179 179 179
201 201 201
213 213 213
207 207 207
186 186 186
203 203 203
215 215 215
207 207 207
186 186 186
192 192 192
211 211 211
214 214 214
199 199 199
176 176 176
199 199 199
225 225 225
233 233 233
212 212 212
185 185 185
182 182 182
170 170 170
168 168 168
159 159 159
156 156 156
166 166 166
166 166 166
142 142 142
142 142 142
134 134 134
123 123 123
119 119 119
120 120 120
133 133 133
152 152 152
170 170 170
182 182 182
182 182 182
174 174 174
189 189 189
193 193 193
183 183 183
165 165 165
142 142 142
163 163 163
187 187 187
203 203 203
208 208 208
221 221 221
212 212 212
189 189 189
166 166 166
184 184 184
192 192 192
188 188 188
173 173 173
193 193 193
202 202 202
196 196 196
180 180 180
189 189 189
186 186 186
191 191 191
202 202 202
198 198 198
193 193 193
214 214 214
219 219 219
204 204 204
190 190 190
188 188 188
188 188 188
188 188 188
176 176 176
156 156 156
148 148 148
148 148 148
165 165 165
164 164 164
154 154 154
137 137 137
126 126 126
130 130 130
152 152 152
169 169 169
178 178 178
176 176 176
164 164 164
150 150 150
161 161 161
164 164 164
157 157 157
143 143 143
136 136 136
162 162 162
185 185 185
201 201 201
220 220 220
242 242 242
225 225 225
197 197 197
168 168 168
160 160 160
166 166 166
163 163 163
167 167 167
173 173 173
179 179 179
175 175 175
178 178 178
187 187 187
183 183 183
202 202 202
217 217 217
211 211 211
191 191 191
190 190 190
193 193 193
183 183 183
183 183 183
185 185 185
198 198 198
198 198 198
184 184 184
162 162 162
156 156 156
160 160 160
181 181 181
180 180 180
169 169 169
150 150 150
127 127 127
140 140 140
164 164 164
184 184 184
195 195 195
193 193 193
178 178 178
157 157 157
132 132 132
135 135 135
133 133 133
133 133 133
128 128 128
152 152 152
172 172 172
186 186 186
211 211 211
225 225 225
215 215 215
191 191 191
164 164 164
136 136 136
140 140 140
155 155 155
164 164 164
164 164 164
155 155 155
150 150 150
165 165 165
173 173 173
176 176 176
198 198 198
211 211 211
207 207 207
188 188 188
163 163 163
165 165 165
158 158 158
167 167 167
181 181 181
194 194 194
194 194 194
180 180 180
168 168 168
184 184 184
189 189 189
189 189 189
188 188 188
175 175 175
154 154 154
131 131 131
143 143 143
168 168 168
188 188 188
200 200 200
198 198 198
182 182 182
160 160 160
142 142 142
155 155 155
163 163 163
162 162 162
152 152 152
135 135 135
152 152 152
170 170 170
188 188 188
197 197 197
191 191 191
174 174 174
151 151 151
134 134 134
130 130 130
145 145 145
153 153 153
153 153 153
156 156 156
162 162 162
171 171 171
183 183 183
184 184 184
182 182 182
191 191 191
188 188 188
173 173 173
152 152 152
136 136 136
154 154 154
166 166 166
170 170 170
178 178 178
177 177 177
167 167 167
187 187 187
209 209 209
218 218 218
184 184 184
182 182 182
170 170 170
151 151 151
128 128 128
138 138 138
161 161 161
180 180 180
191 191 191
189 189 189
175 175 175
154 154 154
164 164 164
181 181 181
192 192 192
190 190 190
176 176 176
156 156 156
138 138 138
148 148 148
162 162 162
168 168 168
164 164 164
151 151 151
145 145 145
149 149 149
145 145 145
134 134 134
137 137 137
159 159 159
176 176 176
184 184 184
187 187 187
202 202 202
203 203 203
189 189 189
167 167 167
163 163 163
152 152 152
134 134 134
154 154 154
177 177 177
194 194 194
199 199 199
190 190 190
185 185 185
183 183 183
197 197 197
225 225 225
241 241 241
168 168 168
167 167 167
157 157 157
140 140 140
129 129 129
138 138 138
147 147 147
163 163 163
172 172 172
170 170 170
159 159 159
157 157 157
180 180 180
203 203 203
220 220 220
217 217 217
197 197 197
171 171 171
155 155 155
147 147 147
134 134 134
138 138 138
135 135 135
154 154 154
168 168 168
174 174 174
169 169 169
156 156 156
145 145 145
168 168 168
188 188 188
197 197 197
193 193 193
208 208 208
209 209 209
193 193 193
170 170 170
144 144 144
127 127 127
138 138 138
166 166 166
193 193 193
217 217 217
227 227 227
211 211 211
209 209 209
206 206 206
192 192 192
217 217 217
228 228 228
147 147 147
146 146 146
137 137 137
134 134 134
125 125 125
133 133 133
145 145 145
152 152 152
150 150 150
153 153 153
148 148 148
162 162 162
188 188 188
214 214 214
242 242 242
235 235 235
206 206 206
177 177 177
165 165 165
157 157 157
156 156 156
153 153 153
147 147 147
170 170 170
188 188 188
195 195 195
189 189 189
172 172 172
151 151 151
170 170 170
188 188 188
197 197 197
193 193 193
197 197 197
197 197 197
185 185 185
164 164 164
139 139 139
128 128 128
140 140 140
169 169 169
198 198 198
226 226 226
241 241 241
218 218 218
223 223 223
219 219 219
198 198 198
193 193 193
200 200 200
124 124 124
128 128 128
133 133 133
131 131 131
127 127 127
148 148 148
164 164 164
173 173 173
171 171 171
159 159 159
141 141 141
158 158 158
182 182 182
206 206 206
225 225 225
222 222 222
199 199 199
172 172 172
166 166 166
176 176 176
184 184 184
180 180 180
166 166 166
178 178 178
198 198 198
207 207 207
199 199 199
180 180 180
169 169 169
193 193 193
208 208 208
208 208 208
191 191 191
175 175 175
176 176 176
166 166 166
151 151 151
156 156 156
156 156 156
148 148 148
163 163 163
189 189 189
210 210 210
218 218 218
205 205 205
214 214 214
211 211 211
192 192 192
168 168 168
171 171 171
140 140 140
147 147 147
147 147 147
139 139 139
136 136 136
159 159 159
177 177 177
187 187 187
185 185 185
172 172 172
151 151 151
146 146 146
167 167 167
185 185 185
197 197 197
195 195 195
180 180 180
159 159 159
177 177 177
198 198 198
210 210 210
204 204 204
186 186 186
181 181 181
193 193 193
201 201 201
194 194 194
179 179 179
180 180 180
208 208 208
232 232 232
231 231 231
206 206 206
178 178 178
151 151 151
163 163 163
170 170 170
181 181 181
182 182 182
171 171 171
171 171 171
170 170 170
185 185 185
190 190 190
182 182 182
191 191 191
189 189 189
175 175 175
155 155 155
141 141 141
164 164 164
174 174 174
174 174 174
164 164 164
146 146 146
161 161 161
180 180 180
190 190 190
188 188 188
174 174 174
153 153 153
129 129 129
146 146 146
160 160 160
168 168 168
167 167 167
157 157 157
157 157 157
185 185 185
211 211 211
227 227 227
218 218 218
210 210 210
202 202 202
182 182 182
197 197 197
203 203 203
193 193 193
179 179 179
207 207 207
230 230 230
229 229 229
205 205 205
177 177 177
157 157 157
174 174 174
188 188 188
203 203 203
203 203 203
189 189 189
181 181 181
178 178 178
164 164 164
161 161 161
156 156 156
164 164 164
163 163 163
153 153 153
142 142 142
155 155 155
190 190 190
199 199 199
199 199 199
185 185 185
163 163 163
154 154 154
172 172 172
181 181 181
179 179 179
166 166 166
147 147 147
124 124 124
121 121 121
132 132 132
146 146 146
162 162 162
169 169 169
167 167 167
181 181 181
205 205 205
219 219 219
211 211 211
222 222 222
211 211 211
188 188 188
199 199 199
205 205 205
195 195 195
174 174 174
191 191 191
205 205 205
205 205 205
189 189 189
166 166 166
158 158 158
175 175 175
195 195 195
213 213 213
214 214 214
197 197 197
179 179 179
176 176 176
163 163 163
144 144 144
130 130 130
136 136 136
135 135 135
142 142 142
164 164 164
182 182 182
218 218 218
216 216 216
216 216 216
198 198 198
172 172 172
145 145 145
155 155 155
163 163 163
161 161 161
151 151 151
150 150 150
151 151 151
143 143 143
145 145 145
151 151 151
164 164 164
172 172 172
174 174 174
182 182 182
186 186 186
195 195 195
201 201 201
211 211 211
203 203 203
183 183 183
186 186 186
191 191 191
183 183 183
165 165 165
167 167 167
177 177 177
177 177 177
166 166 166
161 161 161
159 159 159
166 166 166
189 189 189
205 205 205
205 205 205
190 190 190
168 168 168
165 165 165
153 153 153
135 135 135
115 115 115
133 133 133
146 146 146
155 155 155
181 181 181
205 205 205
238 238 238
225 225 225
215 215 215
197 197 197
172 172 172
145 145 145
155 155 155
163 163 163
161 161 161
168 168 168
179 179 179
180 180 180
170 170 170
156 156 156
163 163 163
160 160 160
175 175 175
197 197 197
210 210 210
205 205 205
187 187 187
181 181 181
188 188 188
182 182 182
167 167 167
165 165 165
169 169 169
163 163 163
157 157 157
159 159 159
156 156 156
152 152 152
168 168 168
177 177 177
174 174 174
162 162 162
172 172 172
184 184 184
184 184 184
173 173 173
154 154 154
146 146 146
136 136 136
121 121 121
126 126 126
146 146 146
161 161 161
168 168 168
189 189 189
217 217 217
224 224 224
215 215 215
196 196 196
182 182 182
161 161 161
153 153 153
171 171 171
181 181 181
179 179 179
191 191 191
208 208 208
209 209 209
193 193 193
170 170 170
167 167 167
164 164 164
185 185 185
213 213 213
233 233 233
224 224 224
199 199 199
171 171 171
161 161 161
157 157 157
145 145 145
150 150 150
162 162 162
166 166 166
180 180 180
188 188 188
184 184 184
169 169 169
174 174 174
183 183 183
180 180 180
167 167 167
149 149 149
158 158 158
159 159 159
153 153 153
154 154 154
146 146 146
131 131 131
138 138 138
139 139 139
153 153 153
169 169 169
177 177 177
185 185 185
209 209 209
197 197 197
192 192 192
175 175 175
161 161 161
144 144 144
160 160 160
179 179 179
190 190 190
188 188 188
207 207 207
233 233 233
235 235 235
209 209 209
181 181 181
161 161 161
158 158 158
184 184 184
210 210 210
228 228 228
221 221 221
197 197 197
170 170 170
150 150 150
139 139 139
127 127 127
144 144 144
156 156 156
181 181 181
204 204 204
217 217 217
210 210 210
189 189 189
169 169 169
178 178 178
175 175 175
163 163 163
144 144 144
135 135 135
151 151 151
160 160 160
161 161 161
152 152 152
156 156 156
167 167 167
168 168 168
160 160 160
167 167 167
175 175 175
172 172 172
188 188 188
168 168 168
165 165 165
153 153 153
149 149 149
162 162 162
167 167 167
176 176 176
186 186 186
185 185 185
206 206 206
232 232 232
235 235 235
209 209 209
181 181 181
163 163 163
176 176 176
179 179 179
192 192 192
203 203 203
199 199 199
182 182 182
159 159 159
151 151 151
140 140 140
123 123 123
132 132 132
161 161 161
190 190 190
219 219 219
244 244 244
228 228 228
203 203 203
179 179 179
170 170 170
161 161 161
150 150 150
148 148 148
146 146 146
149 149 149
158 158 158
159 159 159
158 158 158
180 180 180
195 195 195
197 197 197
186 186 186
165 165 165
163 163 163
160 160 160
162 162 162
165 165 165
165 165 165
157 157 157
169 169 169
185 185 185
192 192 192
185 185 185
172 172 172
170 170 170
191 191 191
207 207 207
208 208 208
193 193 193
170 170 170
184 184 184
201 201 201
205 205 205
193 193 193
175 175 175
172 172 172
160 160 160
146 146 146
143 143 143
133 133 133
120 120 120
130 130 130
158 158 158
187 187 187
213 213 213
231 231 231
221 221 221
205 205 205
207 207 207
193 193 193
171 171 171
156 156 156
163 163 163
161 161 161
154 154 154
152 152 152
148 148 148
172 172 172
199 199 199
221 221 221
225 225 225
206 206 206
180 180 180
152 152 152
143 143 143
155 155 155
193 193 193
194 194 194
182 182 182
181 181 181
202 202 202
210 210 210
201 201 201
181 181 181
155 155 155
168 168 168
179 179 179
180 180 180
169 169 169
169 169 169
196 196 196
219 219 219
225 225 225
207 207 207
182 182 182
154 154 154
135 135 135
132 132 132
137 137 137
145 145 145
146 146 146
140 140 140
148 148 148
172 172 172
192 192 192
202 202 202
203 203 203
227 227 227
231 231 231
209 209 209
182 182 182
163 163 163
170 170 170
174 174 174
182 182 182
179 179 179
166 166 166
184 184 184
205 205 205
234 234 234
241 241 241
214 214 214
185 185 185
161 161 161
162 162 162
180 180 180
220 220 220
222 222 222
203 203 203
183 183 183
204 204 204
213 213 213
204 204 204
182 182 182
157 157 157
142 142 142
163 163 163
181 181 181
191 191 191
188 188 188
195 195 195
217 217 217
222 222 222
206 206 206
181 181 181
153 153 153
133 133 133
149 149 149
159 159 159
168 168 168
170 170 170
162 162 162
147 147 147
151 151 151
166 166 166
174 174 174
202 202 202
227 227 227
231 231 231
209 209 209
181 181 181
160 160 160
174 174 174
195 195 195
208 208 208
203 203 203
185 185 185
205 205 205
222 222 222
218 218 218
220 220 220
203 203 203
178 178 178
173 173 173
173 173 173
199 199 199
236 236 236
240 240 240
212 212 212
183 183 183
191 191 191
198 198 198
192 192 192
174 174 174
151 151 151
148 148 148
174 174 174
196 196 196
209 209 209
205 205 205
187 187 187
197 197 197
200 200 200
189 189 189
169 169 169
144 144 144
146 146 146
164 164 164
176 176 176
186 186 186
189 189 189
179 179 179
161 161 161
138 138 138
138 138 138
164 164 164
187 187 187
204 204 204
206 206 206
192 192 192
170 170 170
155 155 155
182 182 182
208 208 208
225 225 225
219 219 219
196 196 196
215 215 215
242 242 242
232 232 232
204 204 204
180 180 180
165 165 165
175 175 175
178 178 178
208 208 208
220 220 220
221 221 221
203 203 203
186 186 186
202 202 202
204 204 204
190 190 190
168 168 168
152 152 152
151 151 151
175 175 175
197 197 197
211 211 211
206 206 206
188 188 188
171 171 171
174 174 174
166 166 166
150 150 150
129 129 129
151 151 151
172 172 172
185 185 185
195 195 195
198 198 198
187 187 187
167 167 167
143 143 143
124 124 124
146 146 146
165 165 165
177 177 177
178 178 178
169 169 169
151 151 151
153 153 153
180 180 180
204 204 204
219 219 219
213 213 213
192 192 192
215 215 215
225 225 225
218 218 218
196 196 196
170 170 170
157 157 157
167 167 167
173 173 173
199 199 199
192 192 192
194 194 194
182 182 182
201 201 201
223 223 223
227 227 227
206 206 206
182 182 182
171 171 171
152 152 152
166 166 166
185 185 185
195 195 195
192 192 192
177 177 177
155 155 155
151 151 151
148 148 148
137 137 137
126 126 126
149 149 149
169 169 169
181 181 181
190 190 190
193 193 193
183 183 183
164 164 164
153 153 153
140 140 140
140 140 140
154 154 154
166 166 166
169 169 169
162 162 162
152 152 152
162 162 162
166 166 166
186 186 186
196 196 196
193 193 193
197 197 197
226 226 226
243 243 243
220 220 220
205 205 205
184 184 184
158 158 158
150 150 150
158 158 158
179 179 179
186 186 186
191 191 191
184 184 184
201 201 201
224 224 224
227 227 227
207 207 207
196 196 196
183 183 183
167 167 167
159 159 159
164 164 164
172 172 172
170 170 170
158 158 158
150 150 150
155 155 155
152 152 152
141 141 141
124 124 124
139 139 139
157 157 157
167 167 167
174 174 174
176 176 176
183 183 183
187 187 187
180 180 180
163 163 163
164 164 164
171 171 171
186 186 186
189 189 189
181 181 181
177 177 177
190 190 190
191 191 191
180 180 180
169 169 169
167 167 167
189 189 189
212 212 212
223 223 223
244 244 244
223 223 223
194 194 194
169 169 169
156 156 156
148 148 148
170 170 170
200 200 200
208 208 208
198 198 198
187 187 187
204 204 204
205 205 205
197 197 197
197 197 197
189 189 189
191 191 191
181 181 181
162 162 162
158 158 158
167 167 167
168 168 168
159 159 159
151 151 151
147 147 147
137 137 137
130 130 130
123 123 123
138 138 138
147 147 147
161 161 161
186 186 186
207 207 207
214 214 214
202 202 202
180 180 180
184 184 184
180 180 180
197 197 197
201 201 201
191 191 191
198 198 198
218 218 218
220 220 220
201 201 201
176 176 176
149 149 149
171 171 171
192 192 192
219 219 219
234 234 234
218 218 218
192 192 192
171 171 171
157 157 157
156 156 156
181 181 181
201 201 201
208 208 208
198 198 198
178 178 178
177 177 177
178 178 178
184 184 184
188 188 188
205 205 205
208 208 208
195 195 195
173 173 173
180 180 180
193 193 193
194 194 194
181 181 181
161 161 161
150 150 150
159 159 159
159 159 159
151 151 151
135 135 135
143 143 143
167 167 167
195 195 195
221 221 221
232 232 232
215 215 215
189 189 189
195 195 195
187 187 187
194 194 194
198 198 198
188 188 188
208 208 208
237 237 237
241 241 241
212 212 212
183 183 183
156 156 156
160 160 160
178 178 178
197 197 197
205 205 205
197 197 197
177 177 177
163 163 163
150 150 150
157 157 157
181 181 181
