P3
50 50
255
135 135 135
142 142 142
141 141 141
134 134 134
138 138 138
154 154 154
163 163 163
163 163 163
153 153 153
137 137 137
124 124 124
129 129 129
126 126 126
118 118 118
134 134 134
156 156 156
172 172 172
180 180 180
177 177 177
163 163 163
144 144 144
146 146 146
171 171 171
192 192 192
204 204 204
200 200 200
183 183 183
176 176 176
196 196 196
206 206 206
200 200 200
181 181 181
157 157 157
153 153 153
159 159 159
156 156 156
145 145 145
128 128 128
127 127 127
154 154 154
179 179 179
200 200 200
210 210 210
203 203 203
183 183 183
158 158 158
145 145 145
141 141 141
130 130 130
121 121 121
151 151 151
160 160 160
159 159 159
150 150 150
159 159 159
179 179 179
191 191 191
191 191 191
178 178 178
158 158 158
135 135 135
140 140 140
138 138 138
128 128 128
146 146 146
171 171 171
191 191 191
202 202 202
197 197 197
180 180 180
157 157 157
148 148 148
174 174 174
196 196 196
208 208 208
204 204 204
201 201 201
190 190 190
207 207 207
220 220 220
212 212 212
190 190 190
163 163 163
161 161 161
160 160 160
157 157 157
146 146 146
129 129 129
129 129 129
157 157 157
183 183 183
206 206 206
217 217 217
208 208 208
187 187 187
169 169 169
174 174 174
169 169 169
155 155 155
136 136 136
164 164 164
171 171 171
170 170 170
160 160 160
175 175 175
200 200 200
219 219 219
218 218 218
199 199 199
173 173 173
146 146 146
144 144 144
142 142 142
132 132 132
151 151 151
177 177 177
200 200 200
212 212 212
206 206 206
187 187 187
162 162 162
142 142 142
166 166 166
185 185 185
196 196 196
214 214 214
218 218 218
202 202 202
201 201 201
212 212 212
205 205 205
185 185 185
179 179 179
178 178 178
167 167 167
150 150 150
147 147 147
139 139 139
132 132 132
151 151 151
175 175 175
195 195 195
204 204 204
197 197 197
179 179 179
195 195 195
204 204 204
196 196 196
177 177 177
153 153 153
189 189 189
195 195 195
186 186 186
168 168 168
181 181 181
210 210 210
238 238 238
237 237 237
209 209 209
180 180 180
150 150 150
141 141 141
139 139 139
131 131 131
155 155 155
175 175 175
193 193 193
204 204 204
199 199 199
182 182 182
158 158 158
157 157 157
162 162 162
166 166 166
191 191 191
211 211 211
215 215 215
200 200 200
182 182 182
190 190 190
186 186 186
176 176 176
187 187 187
186 186 186
174 174 174
167 167 167
167 167 167
157 157 157
149 149 149
161 161 161
165 165 165
174 174 174
181 181 181
188 188 188
196 196 196
218 218 218
233 233 233
218 218 218
192 192 192
173 173 173
210 210 210
218 218 218
205 205 205
182 182 182
176 176 176
202 202 202
222 222 222
222 222 222
201 201 201
175 175 175
148 148 148
148 148 148
139 139 139
131 131 131
155 155 155
175 175 175
187 187 187
188 188 188
180 180 180
166 166 166
163 163 163
180 180 180
187 187 187
183 183 183
177 177 177
192 192 192
195 195 195
184 184 184
165 165 165
164 164 164
161 161 161
172 172 172
183 183 183
182 182 182
170 170 170
180 180 180
180 180 180
169 169 169
166 166 166
182 182 182
187 187 187
180 180 180
184 184 184
206 206 206
217 217 217
223 223 223
246 246 246
224 224 224
196 196 196
188 188 188
216 216 216
225 225 225
211 211 211
186 186 186
162 162 162
182 182 182
195 195 195
195 195 195
181 181 181
160 160 160
152 152 152
151 151 151
144 144 144
146 146 146
146 146 146
164 164 164
175 175 175
176 176 176
166 166 166
151 151 151
176 176 176
196 196 196
206 206 206
200 200 200
181 181 181
167 167 167
169 169 169
161 161 161
146 146 146
136 136 136
143 143 143
159 159 159
168 168 168
168 168 168
172 172 172
183 183 183
183 183 183
171 171 171
176 176 176
194 194 194
201 201 201
192 192 192
186 186 186
209 209 209
221 221 221
211 211 211
217 217 217
207 207 207
185 185 185
192 192 192
202 202 202
209 209 209
198 198 198
177 177 177
165 165 165
158 158 158
166 166 166
166 166 166
157 157 157
143 143 143
147 147 147
159 159 159
171 171 171
173 173 173
165 165 165
149 149 149
155 155 155
156 156 156
148 148 148
153 153 153
179 179 179
201 201 201
212 212 212
205 205 205
185 185 185
160 160 160
142 142 142
136 136 136
130 130 130
129 129 129
133 133 133
140 140 140
147 147 147
147 147 147
164 164 164
174 174 174
174 174 174
164 164 164
176 176 176
194 194 194
200 200 200
192 192 192
176 176 176
196 196 196
204 204 204
197 197 197
187 187 187
181 181 181
166 166 166
183 183 183
179 179 179
183 183 183
176 176 176
183 183 183
186 186 186
177 177 177
166 166 166
170 170 170
164 164 164
150 150 150
157 157 157
180 180 180
195 195 195
198 198 198
187 187 187
166 166 166
167 167 167
168 168 168
160 160 160
147 147 147
171 171 171
190 190 190
199 199 199
193 193 193
176 176 176
153 153 153
138 138 138
130 130 130
134 134 134
146 146 146
152 152 152
149 149 149
139 139 139
134 134 134
149 149 149
157 157 157
157 157 157
148 148 148
166 166 166
181 181 181
186 186 186
179 179 179
163 163 163
173 173 173
179 179 179
179 179 179
174 174 174
159 159 159
144 144 144
164 164 164
152 152 152
156 156 156
179 179 179
195 195 195
199 199 199
188 188 188
169 169 169
169 169 169
163 163 163
149 149 149
167 167 167
192 192 192
211 211 211
215 215 215
200 200 200
185 185 185
195 195 195
190 190 190
175 175 175
153 153 153
155 155 155
170 170 170
177 177 177
172 172 172
159 159 159
157 157 157
157 157 157
148 148 148
144 144 144
158 158 158
164 164 164
161 161 161
150 150 150
132 132 132
128 128 128
135 135 135
135 135 135
142 142 142
162 162 162
176 176 176
180 180 180
173 173 173
157 157 157
155 155 155
169 169 169
174 174 174
169 169 169
155 155 155
135 135 135
141 141 141
131 131 131
156 156 156
178 178 178
194 194 194
198 198 198
188 188 188
176 176 176
183 183 183
179 179 179
165 165 165
166 166 166
191 191 191
211 211 211
215 215 215
200 200 200
207 207 207
221 221 221
214 214 214
192 192 192
166 166 166
141 141 141
146 146 146
151 151 151
147 147 147
161 161 161
170 170 170
170 170 170
160 160 160
147 147 147
162 162 162
168 168 168
165 165 165
153 153 153
135 135 135
124 124 124
127 127 127
122 122 122
140 140 140
160 160 160
173 173 173
177 177 177
170 170 170
154 154 154
143 143 143
155 155 155
159 159 159
155 155 155
144 144 144
135 135 135
120 120 120
126 126 126
147 147 147
167 167 167
181 181 181
184 184 184
176 176 176
197 197 197
207 207 207
201 201 201
182 182 182
173 173 173
188 188 188
194 194 194
197 197 197
188 188 188
215 215 215
236 236 236
225 225 225
198 198 198
170 170 170
163 163 163
157 157 157
143 143 143
147 147 147
164 164 164
174 174 174
174 174 174
173 173 173
163 163 163
156 156 156
162 162 162
159 159 159
148 148 148
130 130 130
116 116 116
119 119 119
114 114 114
131 131 131
148 148 148
160 160 160
163 163 163
157 157 157
144 144 144
125 125 125
141 141 141
155 155 155
162 162 162
159 159 159
149 149 149
132 132 132
141 141 141
142 142 142
149 149 149
160 160 160
162 162 162
183 183 183
207 207 207
220 220 220
212 212 212
190 190 190
174 174 174
188 188 188
192 192 192
182 182 182
181 181 181
204 204 204
218 218 218
211 211 211
190 190 190
175 175 175
179 179 179
172 172 172
156 156 156
147 147 147
164 164 164
186 186 186
200 200 200
201 201 201
187 187 187
165 165 165
148 148 148
146 146 146
136 136 136
121 121 121
116 116 116
112 112 112
119 119 119
127 127 127
131 131 131
141 141 141
144 144 144
142 142 142
137 137 137
127 127 127
147 147 147
162 162 162
169 169 169
167 167 167
155 155 155
138 138 138
150 150 150
151 151 151
144 144 144
135 135 135
153 153 153
179 179 179
201 201 201
212 212 212
205 205 205
185 185 185
164 164 164
176 176 176
179 179 179
171 171 171
169 169 169
182 182 182
191 191 191
187 187 187
172 172 172
182 182 182
186 186 186
178 178 178
161 161 161
151 151 151
175 175 175
202 202 202
223 223 223
224 224 224
203 203 203
177 177 177
149 149 149
127 127 127
135 135 135
136 136 136
132 132 132
134 134 134
138 138 138
147 147 147
149 149 149
154 154 154
167 167 167
170 170 170
164 164 164
150 150 150
145 145 145
160 160 160
167 167 167
165 165 165
154 154 154
143 143 143
151 151 151
152 152 152
152 152 152
145 145 145
142 142 142
164 164 164
182 182 182
190 190 190
185 185 185
169 169 169
148 148 148
157 157 157
159 159 159
153 153 153
150 150 150
156 156 156
162 162 162
159 159 159
163 163 163
177 177 177
181 181 181
173 173 173
170 170 170
163 163 163
177 177 177
204 204 204
227 227 227
228 228 228
206 206 206
179 179 179
150 150 150
134 134 134
143 143 143
145 145 145
150 150 150
152 152 152
152 152 152
162 162 162
164 164 164
176 176 176
193 193 193
198 198 198
189 189 189
170 170 170
147 147 147
150 150 150
156 156 156
154 154 154
146 146 146
142 142 142
147 147 147
155 155 155
156 156 156
148 148 148
133 133 133
144 144 144
157 157 157
163 163 163
160 160 160
148 148 148
130 130 130
133 133 133
135 135 135
130 130 130
131 131 131
129 129 129
133 133 133
137 137 137
156 156 156
169 169 169
173 173 173
179 179 179
184 184 184
176 176 176
168 168 168
191 191 191
207 207 207
208 208 208
192 192 192
172 172 172
159 159 159
139 139 139
144 144 144
150 150 150
161 161 161
163 163 163
158 158 158
170 170 170
172 172 172
191 191 191
214 214 214
223 223 223
209 209 209
185 185 185
157 157 157
147 147 147
160 160 160
165 165 165
161 161 161
149 149 149
142 142 142
150 150 150
151 151 151
143 143 143
129 129 129
120 120 120
131 131 131
135 135 135
133 133 133
123 123 123
113 113 113
114 114 114
130 130 130
142 142 142
147 147 147
144 144 144
134 134 134
128 128 128
145 145 145
157 157 157
168 168 168
182 182 182
187 187 187
179 179 179
163 163 163
169 169 169
181 181 181
195 195 195
204 204 204
198 198 198
180 180 180
156 156 156
138 138 138
153 153 153
164 164 164
166 166 166
159 159 159
167 167 167
175 175 175
195 195 195
220 220 220
232 232 232
214 214 214
188 188 188
160 160 160
155 155 155
171 171 171
177 177 177
173 173 173
160 160 160
130 130 130
138 138 138
138 138 138
131 131 131
118 118 118
110 110 110
106 106 106
124 124 124
137 137 137
143 143 143
141 141 141
139 139 139
151 151 151
156 156 156
157 157 157
153 153 153
142 142 142
125 125 125
129 129 129
141 141 141
161 161 161
174 174 174
178 178 178
171 171 171
174 174 174
174 174 174
187 187 187
213 213 213
229 229 229
219 219 219
194 194 194
166 166 166
138 138 138
147 147 147
157 157 157
159 159 159
153 153 153
168 168 168
183 183 183
189 189 189
205 205 205
212 212 212
201 201 201
179 179 179
153 153 153
165 165 165
182 182 182
190 190 190
186 186 186
170 170 170
137 137 137
140 140 140
136 136 136
125 125 125
118 118 118
116 116 116
127 127 127
147 147 147
163 163 163
171 171 171
169 169 169
160 160 160
176 176 176
182 182 182
177 177 177
163 163 163
143 143 143
126 126 126
133 133 133
135 135 135
146 146 146
157 157 157
161 161 161
168 168 168
179 179 179
179 179 179
188 188 188
215 215 215
232 232 232
221 221 221
195 195 195
167 167 167
147 147 147
145 145 145
149 149 149
145 145 145
145 145 145
166 166 166
180 180 180
193 193 193
196 196 196
186 186 186
177 177 177
161 161 161
151 151 151
166 166 166
183 183 183
191 191 191
187 187 187
171 171 171
144 144 144
148 148 148
143 143 143
132 132 132
117 117 117
116 116 116
143 143 143
167 167 167
188 188 188
199 199 199
196 196 196
181 181 181
197 197 197
206 206 206
198 198 198
179 179 179
155 155 155
142 142 142
143 143 143
136 136 136
143 143 143
152 152 152
154 154 154
162 162 162
172 172 172
172 172 172
177 177 177
198 198 198
209 209 209
202 202 202
183 183 183
167 167 167
164 164 164
154 154 154
158 158 158
153 153 153
141 141 141
154 154 154
169 169 169
183 183 183
186 186 186
178 178 178
160 160 160
144 144 144
149 149 149
157 157 157
173 173 173
180 180 180
176 176 176
162 162 162
144 144 144
147 147 147
143 143 143
139 139 139
136 136 136
126 126 126
153 153 153
180 180 180
206 206 206
224 224 224
219 219 219
197 197 197
207 207 207
219 219 219
209 209 209
187 187 187
161 161 161
154 154 154
155 155 155
158 158 158
152 152 152
163 163 163
164 164 164
156 156 156
157 157 157
157 157 157
158 158 158
174 174 174
181 181 181
177 177 177
170 170 170
177 177 177
173 173 173
160 160 160
159 159 159
154 154 154
144 144 144
165 165 165
181 181 181
187 187 187
180 180 180
164 164 164
154 154 154
149 149 149
139 139 139
145 145 145
163 163 163
174 174 174
175 175 175
166 166 166
136 136 136
148 148 148
162 162 162
168 168 168
164 164 164
151 151 151
155 155 155
183 183 183
210 210 210
231 231 231
225 225 225
200 200 200
201 201 201
210 210 210
202 202 202
182 182 182
157 157 157
171 171 171
182 182 182
183 183 183
173 173 173
164 164 164
165 165 165
157 157 157
142 142 142
136 136 136
135 135 135
147 147 147
157 157 157
167 167 167
169 169 169
176 176 176
172 172 172
159 159 159
151 151 151
147 147 147
159 159 159
185 185 185
207 207 207
216 216 216
206 206 206
184 184 184
183 183 183
176 176 176
160 160 160
160 160 160
181 181 181
196 196 196
197 197 197
185 185 185
146 146 146
170 170 170
188 188 188
195 195 195
189 189 189
173 173 173
163 163 163
180 180 180
197 197 197
211 211 211
208 208 208
189 189 189
182 182 182
189 189 189
183 183 183
167 167 167
169 169 169
193 193 193
211 211 211
212 212 212
196 196 196
172 172 172
157 157 157
150 150 150
136 136 136
143 143 143
148 148 148
145 145 145
147 147 147
156 156 156
159 159 159
165 165 165
162 162 162
160 160 160
164 164 164
158 158 158
166 166 166
196 196 196
224 224 224
245 245 245
223 223 223
202 202 202
209 209 209
200 200 200
179 179 179
167 167 167
191 191 191
208 208 208
209 209 209
194 194 194
158 158 158
184 184 184
208 208 208
220 220 220
211 211 211
188 188 188
169 169 169
187 187 187
195 195 195
190 190 190
182 182 182
169 169 169
162 162 162
173 173 173
173 173 173
164 164 164
178 178 178
207 207 207
234 234 234
237 237 237
211 211 211
182 182 182
153 153 153
136 136 136
143 143 143
157 157 157
163 163 163
160 160 160
148 148 148
138 138 138
142 142 142
147 147 147
158 158 158
171 171 171
175 175 175
169 169 169
165 165 165
193 193 193
219 219 219
234 234 234
218 218 218
218 218 218
230 230 230
214 214 214
189 189 189
164 164 164
187 187 187
203 203 203
204 204 204
190 190 190
161 161 161
189 189 189
214 214 214
230 230 230
218 218 218
193 193 193
165 165 165
181 181 181
189 189 189
184 184 184
176 176 176
166 166 166
185 185 185
200 200 200
201 201 201
188 188 188
179 179 179
205 205 205
230 230 230
232 232 232
208 208 208
180 180 180
152 152 152
129 129 129
149 149 149
164 164 164
171 171 171
167 167 167
155 155 155
136 136 136
126 126 126
146 146 146
161 161 161
173 173 173
177 177 177
170 170 170
155 155 155
178 178 178
197 197 197
205 205 205
196 196 196
214 214 214
224 224 224
211 211 211
186 186 186
159 159 159
172 172 172
184 184 184
185 185 185
175 175 175
155 155 155
180 180 180
202 202 202
212 212 212
204 204 204
184 184 184
159 159 159
166 166 166
172 172 172
170 170 170
171 171 171
185 185 185
202 202 202
224 224 224
226 226 226
208 208 208
207 207 207
190 190 190
204 204 204
205 205 205
191 191 191
171 171 171
159 159 159
146 146 146
153 153 153
162 162 162
168 168 168
165 165 165
152 152 152
141 141 141
139 139 139
161 161 161
179 179 179
188 188 188
185 185 185
171 171 171
150 150 150
156 156 156
170 170 170
175 175 175
176 176 176
193 193 193
200 200 200
191 191 191
177 177 177
157 157 157
151 151 151
160 160 160
161 161 161
153 153 153
158 158 158
182 182 182
200 200 200
206 206 206
195 195 195
175 175 175
150 150 150
144 144 144
149 149 149
156 156 156
175 175 175
200 200 200
217 217 217
230 230 230
232 232 232
234 234 234
231 231 231
206 206 206
177 177 177
183 183 183
194 194 194
190 190 190
176 176 176
173 173 173
182 182 182
179 179 179
166 166 166
156 156 156
154 154 154
144 144 144
145 145 145
169 169 169
189 189 189
200 200 200
196 196 196
179 179 179
165 165 165
162 162 162
151 151 151
146 146 146
165 165 165
186 186 186
199 199 199
198 198 198
183 183 183
161 161 161
136 136 136
143 143 143
151 151 151
150 150 150
169 169 169
197 197 197
223 223 223
235 235 235
215 215 215
188 188 188
159 159 159
161 161 161
169 169 169
171 171 171
182 182 182
202 202 202
220 220 220
218 218 218
210 210 210
234 234 234
232 232 232
206 206 206
177 177 177
192 192 192
204 204 204
200 200 200
183 183 183
198 198 198
211 211 211
207 207 207
188 188 188
164 164 164
148 148 148
139 139 139
144 144 144
167 167 167
187 187 187
197 197 197
193 193 193
177 177 177
172 172 172
170 170 170
158 158 158
139 139 139
161 161 161
180 180 180
192 192 192
191 191 191
177 177 177
157 157 157
150 150 150
155 155 155
162 162 162
161 161 161
170 170 170
199 199 199
227 227 227
242 242 242
218 218 218
190 190 190
161 161 161
175 175 175
184 184 184
194 194 194
210 210 210
210 210 210
202 202 202
201 201 201
193 193 193
208 208 208
207 207 207
190 190 190
168 168 168
188 188 188
199 199 199
195 195 195
186 186 186
215 215 215
239 239 239
229 229 229
202 202 202
173 173 173
166 166 166
162 162 162
149 149 149
156 156 156
173 173 173
181 181 181
178 178 178
165 165 165
170 170 170
167 167 167
156 156 156
138 138 138
148 148 148
165 165 165
174 174 174
173 173 173
162 162 162
160 160 160
175 175 175
181 181 181
175 175 175
164 164 164
162 162 162
187 187 187
207 207 207
213 213 213
201 201 201
179 179 179
160 160 160
179 179 179
189 189 189
208 208 208
235 235 235
235 235 235
209 209 209
180 180 180
170 170 170
180 180 180
179 179 179
168 168 168
155 155 155
172 172 172
181 181 181
178 178 178
186 186 186
214 214 214
236 236 236
227 227 227
201 201 201
188 188 188
195 195 195
188 188 188
171 171 171
172 172 172
170 170 170
160 160 160
156 156 156
151 151 151
158 158 158
156 156 156
145 145 145
129 129 129
129 129 129
143 143 143
151 151 151
150 150 150
153 153 153
177 177 177
196 196 196
204 204 204
196 196 196
177 177 177
162 162 162
181 181 181
190 190 190
187 187 187
176 176 176
160 160 160
154 154 154
172 172 172
181 181 181
207 207 207
232 232 232
232 232 232
207 207 207
179 179 179
150 150 150
151 151 151
150 150 150
142 142 142
137 137 137
151 151 151
157 157 157
155 155 155
173 173 173
195 195 195
208 208 208
204 204 204
194 194 194
211 211 211
223 223 223
212 212 212
188 188 188
183 183 183
182 182 182
169 169 169
150 150 150
134 134 134
139 139 139
138 138 138
129 129 129
114 114 114
107 107 107
119 119 119
138 138 138
158 158 158
173 173 173
185 185 185
206 206 206
216 216 216
206 206 206
184 184 184
180 180 180
204 204 204
219 219 219
214 214 214
193 193 193
167 167 167
141 141 141
156 156 156
167 167 167
190 190 190
206 206 206
206 206 206
190 190 190
168 168 168
142 142 142
136 136 136
129 129 129
146 146 146
156 156 156
159 159 159
152 152 152
146 146 146
154 154 154
170 170 170
179 179 179
182 182 182
194 194 194
221 221 221
240 240 240
222 222 222
194 194 194
190 190 190
186 186 186
171 171 171
150 150 150
127 127 127
117 117 117
116 116 116
108 108 108
113 113 113
118 118 118
121 121 121
146 146 146
169 169 169
186 186 186
193 193 193
200 200 200
209 209 209
200 200 200
180 180 180
188 188 188
217 217 217
245 245 245
232 232 232
203 203 203
174 174 174
149 149 149
156 156 156
155 155 155
166 166 166
177 177 177
177 177 177
167 167 167
149 149 149
141 141 141
140 140 140
150 150 150
170 170 170
185 185 185
188 188 188
179 179 179
171 171 171
161 161 161
155 155 155
170 170 170
176 176 176
186 186 186
209 209 209
221 221 221
210 210 210
187 187 187
190 190 190
186 186 186
171 171 171
150 150 150
134 134 134
139 139 139
137 137 137
128 128 128
140 140 140
145 145 145
143 143 143
147 147 147
170 170 170
188 188 188
195 195 195
188 188 188
188 188 188
182 182 182
165 165 165
183 183 183
210 210 210
229 229 229
222 222 222
198 198 198
170 170 170
170 170 170
179 179 179
177 177 177
165 165 165
149 149 149
157 157 157
157 157 157
149 149 149
138 138 138
138 138 138
165 165 165
191 191 191
211 211 211
217 217 217
203 203 203
193 193 193
180 180 180
162 162 162
178 178 178
184 184 184
179 179 179
186 186 186
193 193 193
186 186 186
170 170 170
178 178 178
174 174 174
161 161 161
144 144 144
158 158 158
165 165 165
162 162 162
151 151 151
164 164 164
171 171 171
168 168 168
156 156 156
162 162 162
177 177 177
183 183 183
177 177 177
162 162 162
157 157 157
155 155 155
169 169 169
189 189 189
200 200 200
196 196 196
180 180 180
164 164 164
184 184 184
195 195 195
192 192 192
178 178 178
166 166 166
176 176 176
176 176 176
166 166 166
152 152 152
157 157 157
173 173 173
202 202 202
231 231 231
244 244 244
217 217 217
207 207 207
190 190 190
167 167 167
174 174 174
180 180 180
175 175 175
161 161 161
164 164 164
159 159 159
152 152 152
158 158 158
155 155 155
152 152 152
162 162 162
179 179 179
188 188 188
184 184 184
170 170 170
184 184 184
194 194 194
190 190 190
175 175 175
153 153 153
158 158 158
163 163 163
162 162 162
171 171 171
169 169 169
158 158 158
148 148 148
163 163 163
171 171 171
168 168 168
157 157 157
166 166 166
187 187 187
198 198 198
196 196 196
180 180 180
176 176 176
188 188 188
188 188 188
181 181 181
172 172 172
180 180 180
190 190 190
198 198 198
223 223 223
231 231 231
212 212 212
204 204 204
188 188 188
165 165 165
165 165 165
180 180 180
186 186 186
179 179 179
163 163 163
142 142 142
133 133 133
151 151 151
164 164 164
168 168 168
172 172 172
193 193 193
204 204 204
199 199 199
181 181 181
196 196 196
208 208 208
203 203 203
185 185 185
161 161 161
135 135 135
149 149 149
166 166 166
175 175 175
177 177 177
176 176 176
135 135 135
136 136 136
141 141 141
139 139 139
136 136 136
159 159 159
178 178 178
188 188 188
185 185 185
175 175 175
175 175 175
187 187 187
194 194 194
196 196 196
185 185 185
197 197 197
210 210 210
207 207 207
198 198 198
202 202 202
191 191 191
187 187 187
175 175 175
165 165 165
182 182 182
202 202 202
210 210 210
200 200 200
180 180 180
154 154 154
145 145 145
159 159 159
172 172 172
177 177 177
173 173 173
194 194 194
205 205 205
200 200 200
190 190 190
194 194 194
205 205 205
201 201 201
183 183 183
159 159 159
136 136 136
144 144 144
169 169 169
191 191 191
205 205 205
204 204 204
147 147 147
144 144 144
134 134 134
123 123 123
124 124 124
144 144 144
160 160 160
176 176 176
195 195 195
203 203 203
195 195 195
180 180 180
195 195 195
197 197 197
186 186 186
202 202 202
217 217 217
212 212 212
192 192 192
173 173 173
166 166 166
164 164 164
165 165 165
162 162 162
189 189 189
213 213 213
224 224 224
211 211 211
187 187 187
160 160 160
167 167 167
186 186 186
195 195 195
190 190 190
175 175 175
182 182 182
191 191 191
194 194 194
187 187 187
179 179 179
188 188 188
185 185 185
174 174 174
173 173 173
162 162 162
152 152 152
180 180 180
208 208 208
230 230 230
228 228 228
152 152 152
149 149 149
139 139 139
122 122 122
112 112 112
133 133 133
162 162 162
189 189 189
214 214 214
228 228 228
215 215 215
190 190 190
183 183 183
185 185 185
175 175 175
191 191 191
203 203 203
200 200 200
183 183 183
160 160 160
138 138 138
147 147 147
151 151 151
158 158 158
184 184 184
205 205 205
214 214 214
203 203 203
182 182 182
156 156 156
184 184 184
208 208 208
224 224 224
216 216 216
193 193 193
166 166 166
173 173 173
179 179 179
174 174 174
181 181 181
182 182 182
189 189 189
203 203 203
201 201 201
186 186 186
163 163 163
181 181 181
209 209 209
232 232 232
230 230 230
149 149 149
146 146 146
136 136 136
120 120 120
105 105 105
134 134 134
163 163 163
191 191 191
217 217 217
232 232 232
218 218 218
192 192 192
164 164 164
164 164 164
157 157 157
171 171 171
180 180 180
178 178 178
178 178 178
167 167 167
149 149 149
129 129 129
146 146 146
159 159 159
168 168 168
185 185 185
190 190 190
183 183 183
167 167 167
161 161 161
190 190 190
219 219 219
248 248 248
230 230 230
201 201 201
171 171 171
152 152 152
167 167 167
190 190 190
206 206 206
207 207 207
207 207 207
230 230 230
227 227 227
203 203 203
176 176 176
170 170 170
193 193 193
208 208 208
207 207 207
138 138 138
136 136 136
126 126 126
111 111 111
119 119 119
128 128 128
155 155 155
180 180 180
200 200 200
209 209 209
201 201 201
181 181 181
175 175 175
178 178 178
170 170 170
169 169 169
192 192 192
207 207 207
206 206 206
190 190 190
167 167 167
148 148 148
158 158 158
174 174 174
181 181 181
180 180 180
181 181 181
172 172 172
154 154 154
156 156 156
184 184 184
209 209 209
225 225 225
216 216 216
193 193 193
166 166 166
154 154 154
175 175 175
202 202 202
224 224 224
225 225 225
211 211 211
238 238 238
235 235 235
207 207 207
178 178 178
155 155 155
170 170 170
180 180 180
180 180 180
122 122 122
119 119 119
114 114 114
130 130 130
141 141 141
145 145 145
141 141 141
160 160 160
176 176 176
182 182 182
176 176 176
167 167 167
181 181 181
184 184 184
176 176 176
180 180 180
209 209 209
233 233 233
232 232 232
207 207 207
178 178 178
175 175 175
179 179 179
179 179 179
187 187 187
187 187 187
188 188 188
177 177 177
158 158 158
163 163 163
167 167 167
186 186 186
196 196 196
191 191 191
175 175 175
173 173 173
181 181 181
178 178 178
198 198 198
218 218 218
219 219 219
200 200 200
214 214 214
212 212 212
194 194 194
169 169 169
179 179 179
192 192 192
193 193 193
181 181 181
101 101 101
108 108 108
130 130 130
150 150 150
164 164 164
169 169 169
165 165 165
152 152 152
149 149 149
153 153 153
149 149 149
162 162 162
175 175 175
179 179 179
171 171 171
181 181 181
209 209 209
235 235 235
234 234 234
207 207 207
183 183 183
201 201 201
207 207 207
196 196 196
180 180 180
181 181 181
182 182 182
172 172 172
154 154 154
162 162 162
164 164 164
160 160 160
166 166 166
173 173 173
172 172 172
194 194 194
205 205 205
201 201 201
183 183 183
196 196 196
196 196 196
183 183 183
189 189 189
192 192 192
182 182 182
175 175 175
199 199 199
219 219 219
220 220 220
201 201 201
116 116 116
123 123 123
148 148 148
172 172 172
190 190 190
198 198 198
192 192 192
174 174 174
157 157 157
170 170 170
174 174 174
167 167 167
161 161 161
163 163 163
157 157 157
170 170 170
194 194 194
209 209 209
209 209 209
200 200 200
196 196 196
221 221 221
231 231 231
213 213 213
187 187 187
165 165 165
166 166 166
158 158 158
143 143 143
153 153 153
154 154 154
149 149 149
160 160 160
169 169 169
180 180 180
204 204 204
220 220 220
214 214 214
192 192 192
169 169 169
169 169 169
160 160 160
171 171 171
174 174 174
168 168 168
183 183 183
207 207 207
235 235 235
237 237 237
210 210 210
126 126 126
132 132 132
160 160 160
188 188 188
213 213 213
227 227 227
215 215 215
191 191 191
176 176 176
193 193 193
199 199 199
189 189 189
170 170 170
162 162 162
151 151 151
159 159 159
185 185 185
208 208 208
220 220 220
209 209 209
196 196 196
221 221 221
230 230 230
213 213 213
186 186 186
158 158 158
144 144 144
138 138 138
128 128 128
136 136 136
140 140 140
148 148 148
158 158 158
170 170 170
177 177 177
199 199 199
213 213 213
207 207 207
188 188 188
163 163 163
141 141 141
138 138 138
148 148 148
150 150 150
166 166 166
180 180 180
199 199 199
219 219 219
220 220 220
201 201 201
129 129 129
135 135 135
164 164 164
193 193 193
222 222 222
244 244 244
225 225 225
196 196 196
188 188 188
209 209 209
217 217 217
210 210 210
188 188 188
173 173 173
161 161 161
154 154 154
179 179 179
200 200 200
209 209 209
201 201 201
182 182 182
201 201 201
206 206 206
195 195 195
181 181 181
161 161 161
138 138 138
114 114 114
109 109 109
118 118 118
132 132 132
153 153 153
175 175 175
191 191 191
196 196 196
187 187 187
191 191 191
188 188 188
173 173 173
152 152 152
127 127 127
131 131 131
133 133 133
136 136 136
154 154 154
167 167 167
179 179 179
192 192 192
193 193 193
181 181 181
125 125 125
130 130 130
158 158 158
185 185 185
208 208 208
220 220 220
210 210 210
195 195 195
200 200 200
216 216 216
235 235 235
222 222 222
196 196 196
174 174 174
162 162 162
143 143 143
164 164 164
180 180 180
186 186 186
180 180 180
165 165 165
184 184 184
200 200 200
202 202 202
190 190 190
168 168 168
143 143 143
117 117 117
111 111 111
114 114 114
133 133 133
159 159 159
184 184 184
203 203 203
209 209 209
197 197 197
176 176 176
162 162 162
151 151 151
134 134 134
131 131 131
141 141 141
144 144 144
139 139 139
136 136 136
147 147 147
154 154 154
164 164 164
164 164 164
156 156 156
116 116 116
120 120 120
145 145 145
167 167 167
184 184 184
191 191 191
189 189 189
209 209 209
216 216 216
207 207 207
221 221 221
212 212 212
190 190 190
166 166 166
161 161 161
170 170 170
170 170 170
159 159 159
160 160 160
155 155 155
158 158 158
180 180 180
195 195 195
198 198 198
186 186 186
166 166 166
141 141 141
127 127 127
137 137 137
140 140 140
136 136 136
157 157 157
181 181 181
199 199 199
204 204 204
194 194 194
174 174 174
149 149 149
126 126 126
117 117 117
134 134 134
144 144 144
147 147 147
143 143 143
131 131 131
123 123 123
136 136 136
144 144 144
144 144 144
145 145 145
101 101 101
118 118 118
136 136 136
148 148 148
157 157 157
175 175 175
187 187 187
207 207 207
212 212 212
200 200 200
194 194 194
189 189 189
173 173 173
165 165 165
186 186 186
199 199 199
197 197 197
183 183 183
161 161 161
164 164 164
178 178 178
183 183 183
179 179 179
181 181 181
171 171 171
154 154 154
132 132 132
148 148 148
160 160 160
164 164 164
159 159 159
147 147 147
168 168 168
182 182 182
186 186 186
178 178 178
161 161 161
139 139 139
116 116 116
114 114 114
129 129 129
140 140 140
143 143 143
138 138 138
128 128 128
132 132 132
147 147 147
155 155 155
168 168 168
173 173 173
105 105 105
127 127 127
146 146 146
160 160 160
166 166 166
176 176 176
188 188 188
189 189 189
193 193 193
184 184 184
166 166 166
162 162 162
150 150 150
178 178 178
204 204 204
224 224 224
222 222 222
200 200 200
174 174 174
179 179 179
197 197 197
203 203 203
194 194 194
174 174 174
162 162 162
160 160 160
149 149 149
164 164 164
179 179 179
184 184 184
177 177 177
161 161 161
172 172 172
189 189 189
195 195 195
188 188 188
170 170 170
147 147 147
122 122 122
126 126 126
145 145 145
158 158 158
164 164 164
160 160 160
147 147 147
134 134 134
152 152 152
176 176 176
194 194 194
202 202 202
114 114 114
129 129 129
149 149 149
163 163 163
169 169 169
166 166 166
177 177 177
177 177 177
168 168 168
161 161 161
147 147 147
134 134 134
152 152 152
181 181 181
209 209 209
234 234 234
230 230 230
205 205 205
177 177 177
185 185 185
205 205 205
212 212 212
201 201 201
179 179 179
186 186 186
183 183 183
169 169 169
172 172 172
189 189 189
195 195 195
187 187 187
169 169 169
181 181 181
201 201 201
209 209 209
200 200 200
179 179 179
154 154 154
127 127 127
143 143 143
165 165 165
182 182 182
189 189 189
184 184 184
168 168 168
147 147 147
162 162 162
190 190 190
215 215 215
228 228 228
