P3
50 50
255
130 130 130
145 145 145
154 154 154
154 154 154
146 146 146
134 134 134
150 150 150
161 161 161
163 163 163
155 155 155
148 148 148
177 177 177
205 205 205
228 228 228
230 230 230
207 207 207
179 179 179
171 171 171
183 183 183
183 183 183
172 172 172
154 154 154
131 131 131
144 144 144
150 150 150
148 148 148
138 138 138
132 132 132
135 135 135
136 136 136
133 133 133
124 124 124
136 136 136
149 149 149
154 154 154
151 151 151
141 141 141
149 149 149
171 171 171
188 188 188
194 194 194
187 187 187
169 169 169
147 147 147
121 121 121
123 123 123
127 127 127
124 124 124
115 115 115
111 111 111
150 150 150
168 168 168
179 179 179
179 179 179
169 169 169
150 150 150
151 151 151
162 162 162
163 163 163
156 156 156
150 150 150
179 179 179
208 208 208
236 236 236
238 238 238
211 211 211
182 182 182
191 191 191
208 208 208
208 208 208
193 193 193
170 170 170
143 143 143
146 146 146
152 152 152
150 150 150
142 142 142
153 153 153
156 156 156
150 150 150
138 138 138
143 143 143
153 153 153
168 168 168
175 175 175
172 172 172
159 159 159
162 162 162
189 189 189
213 213 213
224 224 224
211 211 211
187 187 187
160 160 160
137 137 137
149 149 149
155 155 155
151 151 151
140 140 140
127 127 127
163 163 163
185 185 185
199 199 199
199 199 199
186 186 186
164 164 164
144 144 144
153 153 153
155 155 155
148 148 148
156 156 156
171 171 171
195 195 195
213 213 213
214 214 214
197 197 197
175 175 175
202 202 202
224 224 224
225 225 225
204 204 204
177 177 177
149 149 149
163 163 163
171 171 171
169 169 169
157 157 157
168 168 168
171 171 171
165 165 165
150 150 150
157 157 157
166 166 166
181 181 181
190 190 190
185 185 185
170 170 170
167 167 167
197 197 197
226 226 226
253 253 253
224 224 224
194 194 194
165 165 165
158 158 158
174 174 174
181 181 181
176 176 176
162 162 162
142 142 142
168 168 168
192 192 192
208 208 208
209 209 209
193 193 193
169 169 169
143 143 143
138 138 138
153 153 153
171 171 171
181 181 181
180 180 180
173 173 173
185 185 185
186 186 186
174 174 174
172 172 172
197 197 197
216 216 216
217 217 217
199 199 199
174 174 174
169 169 169
189 189 189
200 200 200
197 197 197
180 180 180
175 175 175
179 179 179
172 172 172
169 169 169
168 168 168
172 172 172
183 183 183
192 192 192
188 188 188
172 172 172
163 163 163
190 190 190
215 215 215
226 226 226
213 213 213
188 188 188
161 161 161
174 174 174
194 194 194
203 203 203
197 197 197
179 179 179
155 155 155
164 164 164
186 186 186
200 200 200
201 201 201
187 187 187
165 165 165
140 140 140
141 141 141
166 166 166
187 187 187
200 200 200
199 199 199
184 184 184
162 162 162
157 157 157
148 148 148
159 159 159
180 180 180
194 194 194
194 194 194
182 182 182
161 161 161
183 183 183
210 210 210
229 229 229
222 222 222
198 198 198
171 171 171
175 175 175
186 186 186
198 198 198
196 196 196
182 182 182
174 174 174
182 182 182
178 178 178
173 173 173
162 162 162
173 173 173
190 190 190
197 197 197
189 189 189
171 171 171
157 157 157
181 181 181
204 204 204
216 216 216
208 208 208
187 187 187
161 161 161
151 151 151
169 169 169
181 181 181
181 181 181
170 170 170
152 152 152
157 157 157
160 160 160
170 170 170
193 193 193
207 207 207
206 206 206
190 190 190
166 166 166
151 151 151
139 139 139
159 159 159
178 178 178
188 188 188
185 185 185
172 172 172
158 158 158
187 187 187
217 217 217
245 245 245
232 232 232
203 203 203
174 174 174
180 180 180
206 206 206
226 226 226
223 223 223
200 200 200
173 173 173
165 165 165
175 175 175
175 175 175
165 165 165
150 150 150
163 163 163
173 173 173
174 174 174
165 165 165
180 180 180
185 185 185
198 198 198
208 208 208
201 201 201
182 182 182
158 158 158
146 146 146
156 156 156
157 157 157
156 156 156
148 148 148
161 161 161
175 175 175
180 180 180
181 181 181
185 185 185
198 198 198
197 197 197
182 182 182
182 182 182
177 177 177
162 162 162
177 177 177
201 201 201
216 216 216
212 212 212
193 193 193
167 167 167
179 179 179
204 204 204
219 219 219
214 214 214
193 193 193
167 167 167
184 184 184
213 213 213
240 240 240
234 234 234
206 206 206
177 177 177
158 158 158
167 167 167
167 167 167
158 158 158
153 153 153
174 174 174
186 186 186
188 188 188
179 179 179
197 197 197
203 203 203
194 194 194
196 196 196
192 192 192
177 177 177
155 155 155
170 170 170
183 183 183
186 186 186
176 176 176
158 158 158
169 169 169
185 185 185
196 196 196
198 198 198
185 185 185
178 178 178
178 178 178
199 199 199
208 208 208
201 201 201
181 181 181
185 185 185
214 214 214
239 239 239
231 231 231
204 204 204
175 175 175
162 162 162
180 180 180
190 190 190
187 187 187
173 173 173
152 152 152
176 176 176
201 201 201
218 218 218
215 215 215
196 196 196
170 170 170
143 143 143
151 151 151
151 151 151
143 143 143
157 157 157
175 175 175
188 188 188
190 190 190
182 182 182
202 202 202
209 209 209
198 198 198
202 202 202
198 198 198
181 181 181
158 158 158
190 190 190
209 209 209
213 213 213
198 198 198
175 175 175
168 168 168
185 185 185
200 200 200
202 202 202
188 188 188
167 167 167
187 187 187
212 212 212
226 226 226
215 215 215
191 191 191
182 182 182
208 208 208
228 228 228
222 222 222
199 199 199
172 172 172
152 152 152
160 160 160
177 177 177
185 185 185
181 181 181
167 167 167
162 162 162
180 180 180
190 190 190
188 188 188
175 175 175
155 155 155
130 130 130
130 130 130
146 146 146
163 163 163
172 172 172
177 177 177
181 181 181
179 179 179
174 174 174
191 191 191
197 197 197
188 188 188
192 192 192
189 189 189
174 174 174
166 166 166
201 201 201
226 226 226
232 232 232
211 211 211
183 183 183
157 157 157
176 176 176
190 190 190
191 191 191
179 179 179
160 160 160
185 185 185
208 208 208
220 220 220
210 210 210
188 188 188
168 168 168
188 188 188
200 200 200
197 197 197
182 182 182
178 178 178
164 164 164
171 171 171
192 192 192
202 202 202
197 197 197
180 180 180
166 166 166
184 184 184
193 193 193
189 189 189
173 173 173
151 151 151
126 126 126
138 138 138
163 163 163
184 184 184
197 197 197
196 196 196
182 182 182
171 171 171
158 158 158
171 171 171
175 175 175
169 169 169
173 173 173
170 170 170
158 158 158
173 173 173
197 197 197
219 219 219
223 223 223
206 206 206
180 180 180
152 152 152
159 159 159
170 170 170
170 170 170
161 161 161
147 147 147
171 171 171
189 189 189
197 197 197
191 191 191
180 180 180
170 170 170
163 163 163
176 176 176
197 197 197
209 209 209
203 203 203
184 184 184
179 179 179
194 194 194
205 205 205
200 200 200
182 182 182
160 160 160
177 177 177
185 185 185
181 181 181
167 167 167
146 146 146
134 134 134
146 146 146
173 173 173
198 198 198
215 215 215
214 214 214
195 195 195
171 171 171
145 145 145
154 154 154
156 156 156
149 149 149
149 149 149
156 156 156
172 172 172
179 179 179
185 185 185
195 195 195
198 198 198
188 188 188
178 178 178
160 160 160
156 156 156
169 169 169
173 173 173
166 166 166
151 151 151
150 150 150
166 166 166
190 190 190
207 207 207
208 208 208
194 194 194
171 171 171
186 186 186
212 212 212
229 229 229
220 220 220
198 198 198
199 199 199
186 186 186
193 193 193
189 189 189
173 173 173
163 163 163
161 161 161
167 167 167
164 164 164
165 165 165
167 167 167
159 159 159
146 146 146
173 173 173
197 197 197
214 214 214
213 213 213
195 195 195
170 170 170
168 168 168
180 180 180
182 182 182
173 173 173
163 163 163
174 174 174
193 193 193
203 203 203
201 201 201
203 203 203
203 203 203
206 206 206
194 194 194
172 172 172
176 176 176
193 193 193
198 198 198
189 189 189
170 170 170
148 148 148
177 177 177
205 205 205
231 231 231
235 235 235
210 210 210
182 182 182
184 184 184
209 209 209
225 225 225
216 216 216
207 207 207
208 208 208
193 193 193
171 171 171
182 182 182
193 193 193
190 190 190
176 176 176
163 163 163
174 174 174
189 189 189
191 191 191
181 181 181
162 162 162
163 163 163
184 184 184
197 197 197
196 196 196
182 182 182
163 163 163
186 186 186
203 203 203
206 206 206
193 193 193
186 186 186
202 202 202
205 205 205
217 217 217
204 204 204
206 206 206
207 207 207
211 211 211
197 197 197
174 174 174
188 188 188
210 210 210
217 217 217
205 205 205
182 182 182
155 155 155
177 177 177
205 205 205
231 231 231
235 235 235
210 210 210
182 182 182
171 171 171
191 191 191
201 201 201
196 196 196
199 199 199
200 200 200
186 186 186
178 178 178
203 203 203
220 220 220
216 216 216
195 195 195
169 169 169
188 188 188
206 206 206
210 210 210
196 196 196
174 174 174
164 164 164
176 176 176
179 179 179
171 171 171
161 161 161
171 171 171
195 195 195
216 216 216
219 219 219
203 203 203
202 202 202
228 228 228
233 233 233
212 212 212
191 191 191
193 193 193
195 195 195
198 198 198
186 186 186
166 166 166
189 189 189
210 210 210
218 218 218
206 206 206
182 182 182
156 156 156
166 166 166
190 190 190
207 207 207
209 209 209
194 194 194
175 175 175
162 162 162
177 177 177
181 181 181
175 175 175
179 179 179
180 180 180
172 172 172
184 184 184
212 212 212
236 236 236
229 229 229
203 203 203
174 174 174
190 190 190
208 208 208
213 213 213
199 199 199
175 175 175
171 171 171
185 185 185
188 188 188
178 178 178
178 178 178
192 192 192
194 194 194
208 208 208
212 212 212
197 197 197
205 205 205
233 233 233
240 240 240
213 213 213
173 173 173
172 172 172
173 173 173
175 175 175
167 167 167
154 154 154
177 177 177
194 194 194
200 200 200
191 191 191
178 178 178
171 171 171
161 161 161
177 177 177
185 185 185
180 180 180
179 179 179
169 169 169
151 151 151
163 163 163
167 167 167
162 162 162
159 159 159
176 176 176
183 183 183
179 179 179
203 203 203
220 220 220
216 216 216
195 195 195
169 169 169
179 179 179
194 194 194
198 198 198
187 187 187
167 167 167
169 169 169
182 182 182
185 185 185
176 176 176
186 186 186
203 203 203
205 205 205
192 192 192
190 190 190
179 179 179
192 192 192
210 210 210
213 213 213
198 198 198
173 173 173
171 171 171
166 166 166
151 151 151
143 143 143
138 138 138
158 158 158
171 171 171
175 175 175
183 183 183
188 188 188
180 180 180
172 172 172
191 191 191
200 200 200
194 194 194
177 177 177
154 154 154
143 143 143
144 144 144
147 147 147
142 142 142
159 159 159
176 176 176
183 183 183
179 179 179
182 182 182
193 193 193
190 190 190
176 176 176
155 155 155
160 160 160
172 172 172
174 174 174
166 166 166
156 156 156
157 157 157
169 169 169
171 171 171
173 173 173
183 183 183
198 198 198
201 201 201
188 188 188
167 167 167
156 156 156
170 170 170
183 183 183
184 184 184
174 174 174
189 189 189
195 195 195
187 187 187
169 169 169
146 146 146
121 121 121
134 134 134
145 145 145
166 166 166
181 181 181
185 185 185
178 178 178
173 173 173
193 193 193
202 202 202
196 196 196
178 178 178
169 169 169
159 159 159
146 146 146
132 132 132
131 131 131
151 151 151
169 169 169
180 180 180
180 180 180
182 182 182
174 174 174
163 163 163
152 152 152
155 155 155
171 171 171
180 180 180
179 179 179
184 184 184
177 177 177
161 161 161
151 151 151
167 167 167
176 176 176
174 174 174
181 181 181
183 183 183
173 173 173
155 155 155
148 148 148
162 162 162
168 168 168
164 164 164
172 172 172
203 203 203
211 211 211
201 201 201
180 180 180
154 154 154
127 127 127
113 113 113
136 136 136
155 155 155
168 168 168
172 172 172
166 166 166
174 174 174
193 193 193
200 200 200
193 193 193
180 180 180
179 179 179
177 177 177
167 167 167
150 150 150
139 139 139
146 146 146
163 163 163
177 177 177
192 192 192
196 196 196
186 186 186
166 166 166
143 143 143
158 158 158
175 175 175
184 184 184
193 193 193
199 199 199
191 191 191
172 172 172
149 149 149
160 160 160
168 168 168
166 166 166
158 158 158
159 159 159
152 152 152
141 141 141
144 144 144
154 154 154
161 161 161
181 181 181
194 194 194
202 202 202
210 210 210
200 200 200
179 179 179
154 154 154
127 127 127
100 100 100
121 121 121
137 137 137
148 148 148
152 152 152
162 162 162
189 189 189
214 214 214
227 227 227
214 214 214
189 189 189
195 195 195
195 195 195
183 183 183
162 162 162
167 167 167
166 166 166
156 156 156
178 178 178
193 193 193
197 197 197
186 186 186
167 167 167
143 143 143
152 152 152
168 168 168
176 176 176
194 194 194
201 201 201
192 192 192
174 174 174
150 150 150
146 146 146
152 152 152
151 151 151
141 141 141
133 133 133
139 139 139
150 150 150
153 153 153
148 148 148
174 174 174
199 199 199
217 217 217
187 187 187
193 193 193
185 185 185
168 168 168
145 145 145
120 120 120
111 111 111
119 119 119
133 133 133
140 140 140
141 141 141
164 164 164
193 193 193
220 220 220
236 236 236
220 220 220
193 193 193
201 201 201
202 202 202
188 188 188
181 181 181
193 193 193
192 192 192
178 178 178
167 167 167
181 181 181
184 184 184
175 175 175
158 158 158
137 137 137
141 141 141
153 153 153
167 167 167
182 182 182
188 188 188
181 181 181
164 164 164
142 142 142
126 126 126
133 133 133
135 135 135
129 129 129
124 124 124
141 141 141
151 151 151
155 155 155
150 150 150
178 178 178
205 205 205
225 225 225
165 165 165
169 169 169
163 163 163
149 149 149
130 130 130
121 121 121
128 128 128
136 136 136
152 152 152
162 162 162
162 162 162
175 175 175
190 190 190
205 205 205
214 214 214
205 205 205
183 183 183
192 192 192
193 193 193
180 180 180
198 198 198
215 215 215
213 213 213
194 194 194
170 170 170
161 161 161
163 163 163
159 159 159
150 150 150
165 165 165
171 171 171
167 167 167
154 154 154
173 173 173
186 186 186
189 189 189
178 178 178
160 160 160
151 151 151
162 162 162
164 164 164
157 157 157
142 142 142
134 134 134
145 145 145
148 148 148
156 156 156
177 177 177
194 194 194
209 209 209
139 139 139
142 142 142
138 138 138
127 127 127
126 126 126
131 131 131
138 138 138
148 148 148
166 166 166
177 177 177
177 177 177
193 193 193
215 215 215
221 221 221
206 206 206
182 182 182
164 164 164
173 173 173
173 173 173
177 177 177
203 203 203
221 221 221
219 219 219
199 199 199
172 172 172
174 174 174
181 181 181
177 177 177
172 172 172
191 191 191
200 200 200
194 194 194
176 176 176
187 187 187
204 204 204
207 207 207
194 194 194
172 172 172
175 175 175
190 190 190
193 193 193
183 183 183
164 164 164
141 141 141
131 131 131
139 139 139
165 165 165
188 188 188
204 204 204
205 205 205
112 112 112
114 114 114
115 115 115
130 130 130
140 140 140
142 142 142
142 142 142
152 152 152
171 171 171
183 183 183
183 183 183
199 199 199
226 226 226
237 237 237
215 215 215
187 187 187
158 158 158
149 149 149
168 168 168
180 180 180
195 195 195
206 206 206
204 204 204
188 188 188
165 165 165
183 183 183
196 196 196
196 196 196
187 187 187
213 213 213
228 228 228
217 217 217
193 193 193
190 190 190
208 208 208
212 212 212
197 197 197
174 174 174
194 194 194
215 215 215
221 221 221
205 205 205
181 181 181
153 153 153
156 156 156
156 156 156
165 165 165
188 188 188
204 204 204
205 205 205
129 129 129
128 128 128
121 121 121
137 137 137
147 147 147
150 150 150
144 144 144
148 148 148
167 167 167
177 177 177
178 178 178
191 191 191
213 213 213
219 219 219
205 205 205
181 181 181
154 154 154
166 166 166
190 190 190
207 207 207
209 209 209
203 203 203
190 190 190
170 170 170
168 168 168
191 191 191
206 206 206
205 205 205
192 192 192
220 220 220
243 243 243
226 226 226
197 197 197
180 180 180
196 196 196
198 198 198
187 187 187
173 173 173
202 202 202
231 231 231
242 242 242
216 216 216
187 187 187
172 172 172
183 183 183
183 183 183
172 172 172
176 176 176
189 189 189
189 189 189
156 156 156
155 155 155
146 146 146
136 136 136
147 147 147
149 149 149
144 144 144
137 137 137
153 153 153
162 162 162
162 162 162
173 173 173
188 188 188
192 192 192
183 183 183
164 164 164
146 146 146
175 175 175
202 202 202
227 227 227
231 231 231
218 218 218
209 209 209
188 188 188
164 164 164
186 186 186
199 199 199
199 199 199
186 186 186
206 206 206
218 218 218
210 210 210
188 188 188
162 162 162
174 174 174
175 175 175
179 179 179
176 176 176
195 195 195
218 218 218
224 224 224
207 207 207
182 182 182
193 193 193
209 209 209
208 208 208
192 192 192
169 169 169
166 166 166
167 167 167
183 183 183
182 182 182
170 170 170
150 150 150
138 138 138
141 141 141
136 136 136
148 148 148
155 155 155
154 154 154
144 144 144
149 149 149
161 161 161
163 163 163
157 157 157
142 142 142
145 145 145
173 173 173
200 200 200
223 223 223
227 227 227
236 236 236
222 222 222
196 196 196
167 167 167
170 170 170
181 181 181
183 183 183
196 196 196
196 196 196
190 190 190
185 185 185
169 169 169
158 158 158
161 161 161
179 179 179
188 188 188
185 185 185
177 177 177
192 192 192
196 196 196
185 185 185
177 177 177
204 204 204
225 225 225
225 225 225
203 203 203
176 176 176
155 155 155
172 172 172
206 206 206
204 204 204
188 188 188
165 165 165
139 139 139
133 133 133
144 144 144
160 160 160
168 168 168
166 166 166
155 155 155
138 138 138
135 135 135
137 137 137
133 133 133
129 129 129
136 136 136
162 162 162
184 184 184
200 200 200
209 209 209
222 222 222
213 213 213
190 190 190
163 163 163
148 148 148
159 159 159
179 179 179
192 192 192
192 192 192
179 179 179
159 159 159
158 158 158
168 168 168
169 169 169
176 176 176
185 185 185
182 182 182
168 168 168
164 164 164
167 167 167
160 160 160
174 174 174
199 199 199
218 218 218
217 217 217
198 198 198
173 173 173
183 183 183
191 191 191
217 217 217
215 215 215
196 196 196
170 170 170
143 143 143
151 151 151
153 153 153
163 163 163
171 171 171
170 170 170
159 159 159
141 141 141
148 148 148
160 160 160
163 163 163
157 157 157
146 146 146
144 144 144
162 162 162
173 173 173
187 187 187
195 195 195
190 190 190
173 173 173
151 151 151
126 126 126
148 148 148
166 166 166
176 176 176
176 176 176
166 166 166
161 161 161
182 182 182
196 196 196
197 197 197
184 184 184
171 171 171
168 168 168
156 156 156
151 151 151
153 153 153
153 153 153
165 165 165
182 182 182
195 195 195
194 194 194
181 181 181
186 186 186
207 207 207
215 215 215
209 209 209
207 207 207
190 190 190
166 166 166
153 153 153
163 163 163
165 165 165
158 158 158
170 170 170
174 174 174
167 167 167
152 152 152
172 172 172
187 187 187
192 192 192
183 183 183
169 169 169
157 157 157
158 158 158
150 150 150
161 161 161
167 167 167
163 163 163
150 150 150
132 132 132
133 133 133
131 131 131
146 146 146
154 154 154
154 154 154
153 153 153
174 174 174
200 200 200
222 222 222
223 223 223
204 204 204
177 177 177
149 149 149
139 139 139
149 149 149
153 153 153
176 176 176
192 192 192
197 197 197
188 188 188
191 191 191
189 189 189
195 195 195
222 222 222
236 236 236
187 187 187
186 186 186
173 173 173
153 153 153
156 156 156
167 167 167
169 169 169
165 165 165
179 179 179
184 184 184
176 176 176
165 165 165
191 191 191
213 213 213
220 220 220
206 206 206
187 187 187
178 178 178
179 179 179
169 169 169
152 152 152
138 138 138
135 135 135
137 137 137
149 149 149
154 154 154
150 150 150
139 139 139
129 129 129
147 147 147
162 162 162
178 178 178
206 206 206
232 232 232
235 235 235
210 210 210
181 181 181
152 152 152
133 133 133
139 139 139
165 165 165
192 192 192
215 215 215
224 224 224
209 209 209
220 220 220
217 217 217
196 196 196
214 214 214
225 225 225
161 161 161
160 160 160
151 151 151
134 134 134
150 150 150
161 161 161
162 162 162
164 164 164
178 178 178
182 182 182
175 175 175
170 170 170
200 200 200
228 228 228
243 243 243
219 219 219
195 195 195
192 192 192
193 193 193
181 181 181
163 163 163
162 162 162
152 152 152
151 151 151
164 164 164
170 170 170
165 165 165
152 152 152
151 151 151
169 169 169
179 179 179
179 179 179
195 195 195
214 214 214
215 215 215
198 198 198
174 174 174
147 147 147
140 140 140
140 140 140
169 169 169
197 197 197
224 224 224
236 236 236
216 216 216
243 243 243
235 235 235
206 206 206
192 192 192
198 198 198
153 153 153
151 151 151
141 141 141
125 125 125
137 137 137
146 146 146
148 148 148
153 153 153
166 166 166
170 170 170
163 163 163
166 166 166
193 193 193
217 217 217
226 226 226
210 210 210
190 190 190
193 193 193
195 195 195
183 183 183
189 189 189
188 188 188
175 175 175
157 157 157
171 171 171
177 177 177
175 175 175
169 169 169
168 168 168
191 191 191
206 206 206
206 206 206
190 190 190
187 187 187
188 188 188
177 177 177
157 157 157
163 163 163
163 163 163
154 154 154
162 162 162
188 188 188
209 209 209
216 216 216
207 207 207
226 226 226
223 223 223
200 200 200
173 173 173
170 170 170
146 146 146
152 152 152
152 152 152
144 144 144
129 129 129
137 137 137
152 152 152
159 159 159
158 158 158
150 150 150
145 145 145
153 153 153
176 176 176
192 192 192
197 197 197
188 188 188
173 173 173
182 182 182
183 183 183
196 196 196
212 212 212
210 210 210
192 192 192
168 168 168
179 179 179
197 197 197
203 203 203
194 194 194
179 179 179
206 206 206
228 228 228
227 227 227
204 204 204
177 177 177
159 159 159
158 158 158
179 179 179
192 192 192
192 192 192
180 180 180
159 159 159
169 169 169
184 184 184
188 188 188
186 186 186
198 198 198
196 196 196
181 181 181
159 159 159
141 141 141
170 170 170
181 181 181
181 181 181
170 170 170
151 151 151
139 139 139
154 154 154
161 161 161
160 160 160
150 150 150
133 133 133
135 135 135
153 153 153
165 165 165
168 168 168
162 162 162
152 152 152
162 162 162
177 177 177
203 203 203
222 222 222
219 219 219
198 198 198
180 180 180
194 194 194
218 218 218
228 228 228
212 212 212
187 187 187
205 205 205
227 227 227
226 226 226
203 203 203
176 176 176
148 148 148
173 173 173
199 199 199
219 219 219
219 219 219
200 200 200
175 175 175
149 149 149
157 157 157
160 160 160
161 161 161
169 169 169
168 168 168
157 157 157
140 140 140
152 152 152
194 194 194
210 210 210
209 209 209
193 193 193
169 169 169
143 143 143
148 148 148
155 155 155
153 153 153
143 143 143
128 128 128
118 118 118
133 133 133
145 145 145
151 151 151
149 149 149
141 141 141
148 148 148
171 171 171
194 194 194
209 209 209
207 207 207
192 192 192
186 186 186
195 195 195
221 221 221
232 232 232
215 215 215
188 188 188
189 189 189
204 204 204
203 203 203
188 188 188
165 165 165
153 153 153
180 180 180
209 209 209
237 237 237
238 238 238
210 210 210
181 181 181
152 152 152
138 138 138
131 131 131
133 133 133
140 140 140
140 140 140
146 146 146
155 155 155
170 170 170
209 209 209
235 235 235
234 234 234
208 208 208
179 179 179
150 150 150
146 146 146
153 153 153
152 152 152
143 143 143
146 146 146
146 146 146
151 151 151
166 166 166
174 174 174
171 171 171
158 158 158
175 175 175
183 183 183
180 180 180
185 185 185
184 184 184
186 186 186
181 181 181
183 183 183
203 203 203
209 209 209
198 198 198
177 177 177
166 166 166
176 176 176
176 176 176
172 172 172
181 181 181
178 178 178
175 175 175
201 201 201
221 221 221
222 222 222
202 202 202
176 176 176
152 152 152
149 149 149
139 139 139
128 128 128
149 149 149
164 164 164
172 172 172
170 170 170
189 189 189
209 209 209
232 232 232
232 232 232
207 207 207
178 178 178
153 153 153
170 170 170
180 180 180
178 178 178
166 166 166
174 174 174
174 174 174
164 164 164
182 182 182
190 190 190
187 187 187
176 176 176
199 199 199
212 212 212
207 207 207
188 188 188
164 164 164
170 170 170
165 165 165
163 163 163
177 177 177
186 186 186
191 191 191
183 183 183
166 166 166
153 153 153
170 170 170
190 190 190
202 202 202
199 199 199
182 182 182
181 181 181
194 194 194
195 195 195
182 182 182
161 161 161
155 155 155
152 152 152
142 142 142
141 141 141
165 165 165
184 184 184
193 193 193
190 190 190
198 198 198
202 202 202
206 206 206
206 206 206
190 190 190
167 167 167
169 169 169
190 190 190
204 204 204
202 202 202
185 185 185
199 199 199
200 200 200
186 186 186
186 186 186
196 196 196
192 192 192
186 186 186
214 214 214
236 236 236
227 227 227
200 200 200
172 172 172
167 167 167
154 154 154
151 151 151
173 173 173
190 190 190
195 195 195
187 187 187
184 184 184
180 180 180
175 175 175
198 198 198
212 212 212
208 208 208
189 189 189
164 164 164
166 166 166
166 166 166
157 157 157
144 144 144
149 149 149
147 147 147
137 137 137
148 148 148
173 173 173
194 194 194
206 206 206
201 201 201
193 193 193
183 183 183
179 179 179
177 177 177
167 167 167
149 149 149
177 177 177
201 201 201
218 218 218
215 215 215
198 198 198
217 217 217
219 219 219
200 200 200
179 179 179
188 188 188
184 184 184
185 185 185
212 212 212
231 231 231
223 223 223
198 198 198
182 182 182
178 178 178
164 164 164
145 145 145
166 166 166
181 181 181
186 186 186
199 199 199
211 211 211
205 205 205
185 185 185
192 192 192
203 203 203
200 200 200
183 183 183
160 160 160
137 137 137
137 137 137
131 131 131
132 132 132
137 137 137
150 150 150
160 160 160
161 161 161
171 171 171
191 191 191
202 202 202
198 198 198
181 181 181
159 159 159
155 155 155
148 148 148
140 140 140
147 147 147
174 174 174
197 197 197
212 212 212
210 210 210
198 198 198
217 217 217
219 219 219
200 200 200
175 175 175
170 170 170
180 180 180
183 183 183
193 193 193
205 205 205
200 200 200
183 183 183
183 183 183
179 179 179
164 164 164
144 144 144
151 151 151
163 163 163
186 186 186
212 212 212
229 229 229
220 220 220
195 195 195
174 174 174
183 183 183
180 180 180
167 167 167
147 147 147
124 124 124
129 129 129
130 130 130
130 130 130
152 152 152
172 172 172
185 185 185
187 187 187
177 177 177
177 177 177
185 185 185
182 182 182
168 168 168
162 162 162
163 163 163
154 154 154
154 154 154
168 168 168
174 174 174
180 180 180
191 191 191
190 190 190
184 184 184
199 199 199
199 199 199
186 186 186
165 165 165
189 189 189
208 208 208
212 212 212
199 199 199
176 176 176
173 173 173
166 166 166
172 172 172
169 169 169
156 156 156
137 137 137
130 130 130
156 156 156
183 183 183
207 207 207
222 222 222
214 214 214
192 192 192
192 192 192
181 181 181
161 161 161
145 145 145
138 138 138
152 152 152
158 158 158
156 156 156
145 145 145
164 164 164
188 188 188
205 205 205
208 208 208
194 194 194
172 172 172
162 162 162
161 161 161
153 153 153
189 189 189
190 190 190
179 179 179
173 173 173
193 193 193
201 201 201
195 195 195
177 177 177
164 164 164
163 163 163
173 173 173
174 174 174
164 164 164
173 173 173
202 202 202
230 230 230
240 240 240
215 215 215
186 186 186
157 157 157
149 149 149
154 154 154
154 154 154
156 156 156
158 158 158
151 151 151
145 145 145
169 169 169
188 188 188
197 197 197
192 192 192
205 205 205
207 207 207
193 193 193
171 171 171
145 145 145
160 160 160
178 178 178
187 187 187
184 184 184
170 170 170
181 181 181
194 194 194
213 213 213
216 216 216
200 200 200
176 176 176
184 184 184
184 184 184
176 176 176
214 214 214
216 216 216
199 199 199
186 186 186
210 210 210
223 223 223
213 213 213
190 190 190
163 163 163
138 138 138
146 146 146
161 161 161
169 169 169
172 172 172
201 201 201
227 227 227
235 235 235
213 213 213
185 185 185
157 157 157
133 133 133
149 149 149
170 170 170
183 183 183
186 186 186
176 176 176
159 159 159
148 148 148
163 163 163
170 170 170
188 188 188
204 204 204
207 207 207
193 193 193
170 170 170
152 152 152
178 178 178
202 202 202
216 216 216
211 211 211
191 191 191
202 202 202
217 217 217
213 213 213
204 204 204
191 191 191
186 186 186
200 200 200
201 201 201
195 195 195
226 226 226
229 229 229
207 207 207
187 187 187
211 211 211
225 225 225
215 215 215
191 191 191
164 164 164
136 136 136
155 155 155
172 172 172
181 181 181
178 178 178
185 185 185
203 203 203
207 207 207
194 194 194
173 173 173
147 147 147
137 137 137
164 164 164
189 189 189
207 207 207
211 211 211
197 197 197
175 175 175
149 149 149
136 136 136
155 155 155
176 176 176
189 189 189
191 191 191
180 180 180
167 167 167
158 158 158
188 188 188
217 217 217
244 244 244
231 231 231
202 202 202
211 211 211
231 231 231
225 225 225
200 200 200
172 172 172
188 188 188
203 203 203
204 204 204
203 203 203
213 213 213
215 215 215
198 198 198
176 176 176
196 196 196
205 205 205
198 198 198
179 179 179
155 155 155
134 134 134
156 156 156
173 173 173
182 182 182
180 180 180
167 167 167
175 175 175
178 178 178
169 169 169
153 153 153
132 132 132
142 142 142
170 170 170
198 198 198
221 221 221
227 227 227
208 208 208
182 182 182
154 154 154
125 125 125
139 139 139
157 157 157
175 175 175
185 185 185
182 182 182
170 170 170
156 156 156
185 185 185
212 212 212
232 232 232
224 224 224
199 199 199
202 202 202
217 217 217
213 213 213
193 193 193
167 167 167
178 178 178
191 191 191
191 191 191
195 195 195
189 189 189
190 190 190
178 178 178
184 184 184
200 200 200
201 201 201
188 188 188
167 167 167
149 149 149
148 148 148
149 149 149
164 164 164
172 172 172
170 170 170
158 158 158
172 172 172
179 179 179
174 174 174
160 160 160
140 140 140
139 139 139
167 167 167
192 192 192
213 213 213
217 217 217
202 202 202
178 178 178
155 155 155
142 142 142
145 145 145
165 165 165
179 179 179
183 183 183
175 175 175
162 162 162
156 156 156
171 171 171
191 191 191
203 203 203
199 199 199
185 185 185
206 206 206
214 214 214
208 208 208
200 200 200
184 184 184
180 180 180
170 170 170
170 170 170
176 176 176
200 200 200
207 207 207
198 198 198
185 185 185
200 200 200
202 202 202
189 189 189
168 168 168
175 175 175
177 177 177
168 168 168
160 160 160
167 167 167
165 165 165
161 161 161
178 178 178
185 185 185
180 180 180
165 165 165
144 144 144
130 130 130
154 154 154
176 176 176
190 190 190
193 193 193
185 185 185
190 190 190
182 182 182
165 165 165
161 161 161
185 185 185
204 204 204
209 209 209
198 198 198
176 176 176
183 183 183
183 183 183
173 173 173
174 174 174
171 171 171
178 178 178
197 197 197
215 215 215
228 228 228
215 215 215
201 201 201
195 195 195
178 178 178
156 156 156
181 181 181
220 220 220
233 233 233
216 216 216
190 190 190
186 186 186
188 188 188
177 177 177
185 185 185
202 202 202
205 205 205
192 192 192
171 171 171
163 163 163
173 173 173
174 174 174
172 172 172
179 179 179
174 174 174
160 160 160
140 140 140
121 121 121
136 136 136
153 153 153
164 164 164
189 189 189
211 211 211
219 219 219
206 206 206
182 182 182
168 168 168
196 196 196
221 221 221
229 229 229
212 212 212
189 189 189
206 206 206
207 207 207
192 192 192
169 169 169
143 143 143
162 162 162
188 188 188
211 211 211
223 223 223
211 211 211
204 204 204
198 198 198
180 180 180
166 166 166
194 194 194
220 220 220
234 234 234
217 217 217
190 190 190
165 165 165
166 166 166
173 173 173
201 201 201
225 225 225
231 231 231
210 210 210
183 183 183
187 187 187
202 202 202
202 202 202
188 188 188
166 166 166
159 159 159
155 155 155
156 156 156
148 148 148
133 133 133
140 140 140
170 170 170
199 199 199
227 227 227
244 244 244
220 220 220
191 191 191
167 167 167
193 193 193
216 216 216
224 224 224
208 208 208
198 198 198
218 218 218
219 219 219
201 201 201
176 176 176
161 161 161
165 165 165
174 174 174
192 192 192
199 199 199
192 192 192
191 191 191
186 186 186
171 171 171
166 166 166
194 194 194
