P3
50 50
255
152 152 152
160 160 160
160 160 160
151 151 151
142 142 142
147 147 147
155 155 155
155 155 155
147 147 147
135 135 135
148 148 148
154 154 154
151 151 151
140 140 140
124 124 124
140 140 140
154 154 154
160 160 160
158 158 158
147 147 147
130 130 130
131 131 131
152 152 152
169 169 169
177 177 177
182 182 182
184 184 184
175 175 175
175 175 175
183 183 183
178 178 178
164 164 164
163 163 163
180 180 180
188 188 188
184 184 184
169 169 169
148 148 148
141 141 141
161 161 161
188 188 188
214 214 214
229 229 229
217 217 217
192 192 192
165 165 165
140 140 140
137 137 137
126 126 126
137 137 137
172 172 172
183 183 183
182 182 182
171 171 171
165 165 165
171 171 171
181 181 181
181 181 181
170 170 170
151 151 151
162 162 162
168 168 168
165 165 165
153 153 153
145 145 145
163 163 163
173 173 173
176 176 176
173 173 173
160 160 160
141 141 141
133 133 133
154 154 154
171 171 171
190 190 190
209 209 209
213 213 213
199 199 199
183 183 183
191 191 191
186 186 186
171 171 171
164 164 164
181 181 181
189 189 189
185 185 185
170 170 170
149 149 149
153 153 153
165 165 165
193 193 193
222 222 222
245 245 245
226 226 226
197 197 197
168 168 168
168 168 168
163 163 163
150 150 150
154 154 154
185 185 185
198 198 198
198 198 198
184 184 184
184 184 184
191 191 191
203 203 203
203 203 203
188 188 188
165 165 165
167 167 167
174 174 174
170 170 170
157 157 157
161 161 161
183 183 183
198 198 198
199 199 199
186 186 186
166 166 166
146 146 146
128 128 128
148 148 148
174 174 174
203 203 203
231 231 231
240 240 240
215 215 215
186 186 186
186 186 186
182 182 182
167 167 167
155 155 155
171 171 171
178 178 178
175 175 175
161 161 161
142 142 142
158 158 158
170 170 170
184 184 184
207 207 207
219 219 219
210 210 210
188 188 188
187 187 187
194 194 194
188 188 188
171 171 171
164 164 164
187 187 187
201 201 201
200 200 200
185 185 185
193 193 193
201 201 201
214 214 214
213 213 213
195 195 195
171 171 171
163 163 163
169 169 169
166 166 166
154 154 154
171 171 171
196 196 196
215 215 215
216 216 216
199 199 199
174 174 174
147 147 147
141 141 141
146 146 146
173 173 173
201 201 201
226 226 226
233 233 233
212 212 212
184 184 184
171 171 171
167 167 167
155 155 155
158 158 158
157 157 157
159 159 159
156 156 156
145 145 145
140 140 140
160 160 160
174 174 174
178 178 178
183 183 183
190 190 190
184 184 184
183 183 183
205 205 205
216 216 216
206 206 206
184 184 184
165 165 165
187 187 187
192 192 192
188 188 188
175 175 175
189 189 189
197 197 197
205 205 205
205 205 205
189 189 189
166 166 166
150 150 150
156 156 156
153 153 153
143 143 143
170 170 170
195 195 195
214 214 214
215 215 215
198 198 198
174 174 174
147 147 147
160 160 160
166 166 166
162 162 162
185 185 185
202 202 202
205 205 205
193 193 193
171 171 171
150 150 150
147 147 147
147 147 147
155 155 155
154 154 154
146 146 146
152 152 152
152 152 152
156 156 156
180 180 180
199 199 199
206 206 206
196 196 196
176 176 176
183 183 183
190 190 190
209 209 209
221 221 221
210 210 210
187 187 187
171 171 171
191 191 191
196 196 196
188 188 188
169 169 169
174 174 174
180 180 180
184 184 184
184 184 184
172 172 172
153 153 153
132 132 132
136 136 136
134 134 134
135 135 135
160 160 160
181 181 181
195 195 195
196 196 196
184 184 184
163 163 163
157 157 157
173 173 173
179 179 179
175 175 175
162 162 162
174 174 174
176 176 176
168 168 168
159 159 159
144 144 144
123 123 123
137 137 137
144 144 144
143 143 143
146 146 146
154 154 154
154 154 154
164 164 164
192 192 192
217 217 217
228 228 228
213 213 213
188 188 188
185 185 185
193 193 193
196 196 196
205 205 205
197 197 197
178 178 178
174 174 174
182 182 182
186 186 186
179 179 179
162 162 162
152 152 152
157 157 157
159 159 159
159 159 159
150 150 150
134 134 134
139 139 139
152 152 152
156 156 156
157 157 157
150 150 150
165 165 165
176 176 176
177 177 177
167 167 167
150 150 150
159 159 159
175 175 175
183 183 183
178 178 178
164 164 164
153 153 153
164 164 164
165 165 165
157 157 157
142 142 142
122 122 122
121 121 121
127 127 127
127 127 127
140 140 140
148 148 148
147 147 147
164 164 164
192 192 192
216 216 216
227 227 227
213 213 213
188 188 188
176 176 176
192 192 192
200 200 200
192 192 192
175 175 175
160 160 160
167 167 167
164 164 164
167 167 167
161 161 161
159 159 159
161 161 161
154 154 154
143 143 143
142 142 142
136 136 136
134 134 134
154 154 154
168 168 168
174 174 174
176 176 176
168 168 168
180 180 180
194 194 194
195 195 195
183 183 183
163 163 163
153 153 153
168 168 168
174 174 174
170 170 170
157 157 157
143 143 143
152 152 152
154 154 154
146 146 146
133 133 133
126 126 126
124 124 124
122 122 122
138 138 138
148 148 148
151 151 151
145 145 145
155 155 155
179 179 179
197 197 197
204 204 204
195 195 195
175 175 175
180 180 180
200 200 200
209 209 209
200 200 200
180 180 180
155 155 155
151 151 151
141 141 141
144 144 144
156 156 156
168 168 168
170 170 170
163 163 163
152 152 152
150 150 150
141 141 141
140 140 140
161 161 161
177 177 177
185 185 185
188 188 188
178 178 178
187 187 187
200 200 200
202 202 202
188 188 188
167 167 167
142 142 142
152 152 152
157 157 157
154 154 154
143 143 143
132 132 132
135 135 135
136 136 136
130 130 130
131 131 131
136 136 136
134 134 134
127 127 127
144 144 144
155 155 155
158 158 158
152 152 152
139 139 139
158 158 158
172 172 172
177 177 177
171 171 171
156 156 156
175 175 175
193 193 193
200 200 200
193 193 193
174 174 174
151 151 151
131 131 131
115 115 115
137 137 137
155 155 155
167 167 167
170 170 170
162 162 162
160 160 160
166 166 166
162 162 162
157 157 157
180 180 180
196 196 196
200 200 200
189 189 189
183 183 183
208 208 208
224 224 224
216 216 216
193 193 193
167 167 167
156 156 156
150 150 150
137 137 137
133 133 133
135 135 135
142 142 142
146 146 146
146 146 146
138 138 138
134 134 134
139 139 139
136 136 136
127 127 127
142 142 142
153 153 153
156 156 156
150 150 150
137 137 137
135 135 135
145 145 145
148 148 148
144 144 144
139 139 139
160 160 160
175 175 175
180 180 180
175 175 175
165 165 165
154 154 154
136 136 136
113 113 113
130 130 130
147 147 147
157 157 157
160 160 160
160 160 160
176 176 176
183 183 183
179 179 179
166 166 166
192 192 192
213 213 213
219 219 219
204 204 204
189 189 189
217 217 217
241 241 241
228 228 228
200 200 200
178 178 178
182 182 182
175 175 175
158 158 158
137 137 137
148 148 148
164 164 164
175 175 175
175 175 175
165 165 165
148 148 148
134 134 134
132 132 132
123 123 123
133 133 133
143 143 143
145 145 145
140 140 140
128 128 128
126 126 126
136 136 136
138 138 138
133 133 133
131 131 131
139 139 139
160 160 160
178 178 178
187 187 187
184 184 184
170 170 170
150 150 150
136 136 136
144 144 144
144 144 144
140 140 140
143 143 143
166 166 166
183 183 183
191 191 191
186 186 186
171 171 171
192 192 192
214 214 214
219 219 219
204 204 204
182 182 182
206 206 206
221 221 221
213 213 213
192 192 192
199 199 199
204 204 204
194 194 194
174 174 174
149 149 149
165 165 165
188 188 188
203 203 203
203 203 203
189 189 189
167 167 167
141 141 141
121 121 121
113 113 113
119 119 119
127 127 127
129 129 129
124 124 124
118 118 118
126 126 126
128 128 128
135 135 135
141 141 141
139 139 139
144 144 144
168 168 168
188 188 188
199 199 199
195 195 195
179 179 179
156 156 156
155 155 155
165 165 165
165 165 165
156 156 156
140 140 140
162 162 162
179 179 179
186 186 186
182 182 182
167 167 167
180 180 180
196 196 196
200 200 200
189 189 189
169 169 169
183 183 183
192 192 192
188 188 188
188 188 188
208 208 208
215 215 215
203 203 203
180 180 180
159 159 159
177 177 177
205 205 205
228 228 228
229 229 229
206 206 206
179 179 179
150 150 150
121 121 121
126 126 126
142 142 142
152 152 152
153 153 153
147 147 147
139 139 139
148 148 148
150 150 150
155 155 155
159 159 159
153 153 153
142 142 142
166 166 166
185 185 185
195 195 195
192 192 192
177 177 177
155 155 155
168 168 168
179 179 179
180 180 180
170 170 170
152 152 152
150 150 150
164 164 164
170 170 170
167 167 167
154 154 154
160 160 160
172 172 172
174 174 174
167 167 167
151 151 151
157 157 157
163 163 163
160 160 160
182 182 182
201 201 201
207 207 207
196 196 196
190 190 190
182 182 182
179 179 179
207 207 207
233 233 233
234 234 234
209 209 209
180 180 180
151 151 151
122 122 122
142 142 142
161 161 161
173 173 173
176 176 176
167 167 167
155 155 155
166 166 166
168 168 168
178 178 178
182 182 182
175 175 175
159 159 159
155 155 155
171 171 171
180 180 180
177 177 177
165 165 165
152 152 152
172 172 172
184 184 184
185 185 185
174 174 174
155 155 155
132 132 132
144 144 144
149 149 149
146 146 146
135 135 135
135 135 135
145 145 145
147 147 147
141 141 141
128 128 128
129 129 129
134 134 134
146 146 146
167 167 167
181 181 181
185 185 185
204 204 204
211 211 211
200 200 200
178 178 178
193 193 193
210 210 210
211 211 211
195 195 195
173 173 173
160 160 160
140 140 140
153 153 153
174 174 174
188 188 188
191 191 191
181 181 181
164 164 164
176 176 176
179 179 179
193 193 193
199 199 199
190 190 190
171 171 171
147 147 147
166 166 166
183 183 183
191 191 191
185 185 185
169 169 169
166 166 166
177 177 177
178 178 178
168 168 168
150 150 150
128 128 128
128 128 128
134 134 134
134 134 134
126 126 126
112 112 112
119 119 119
129 129 129
133 133 133
130 130 130
120 120 120
119 119 119
134 134 134
145 145 145
162 162 162
187 187 187
209 209 209
216 216 216
204 204 204
181 181 181
171 171 171
183 183 183
196 196 196
206 206 206
200 200 200
181 181 181
157 157 157
155 155 155
177 177 177
192 192 192
195 195 195
185 185 185
179 179 179
197 197 197
202 202 202
197 197 197
203 203 203
193 193 193
173 173 173
155 155 155
175 175 175
194 194 194
203 203 203
196 196 196
177 177 177
152 152 152
161 161 161
161 161 161
153 153 153
139 139 139
137 137 137
128 128 128
132 132 132
131 131 131
134 134 134
133 133 133
144 144 144
157 157 157
162 162 162
158 158 158
146 146 146
130 130 130
146 146 146
156 156 156
158 158 158
179 179 179
196 196 196
202 202 202
193 193 193
173 173 173
160 160 160
189 189 189
216 216 216
234 234 234
222 222 222
196 196 196
167 167 167
149 149 149
169 169 169
183 183 183
186 186 186
177 177 177
188 188 188
209 209 209
216 216 216
203 203 203
192 192 192
184 184 184
166 166 166
172 172 172
173 173 173
191 191 191
200 200 200
193 193 193
175 175 175
132 132 132
139 139 139
140 140 140
141 141 141
147 147 147
145 145 145
135 135 135
138 138 138
153 153 153
160 160 160
158 158 158
167 167 167
184 184 184
192 192 192
186 186 186
170 170 170
147 147 147
152 152 152
162 162 162
164 164 164
161 161 161
175 175 175
179 179 179
172 172 172
156 156 156
161 161 161
190 190 190
217 217 217
237 237 237
224 224 224
197 197 197
169 169 169
165 165 165
153 153 153
164 164 164
167 167 167
160 160 160
185 185 185
204 204 204
211 211 211
199 199 199
177 177 177
165 165 165
174 174 174
180 180 180
176 176 176
177 177 177
183 183 183
178 178 178
163 163 163
116 116 116
119 119 119
129 129 129
141 141 141
147 147 147
144 144 144
135 135 135
156 156 156
174 174 174
183 183 183
181 181 181
185 185 185
209 209 209
221 221 221
211 211 211
188 188 188
162 162 162
149 149 149
159 159 159
161 161 161
164 164 164
176 176 176
178 178 178
169 169 169
152 152 152
153 153 153
178 178 178
200 200 200
211 211 211
204 204 204
187 187 187
191 191 191
186 186 186
171 171 171
149 149 149
143 143 143
149 149 149
171 171 171
186 186 186
190 190 190
182 182 182
164 164 164
156 156 156
171 171 171
178 178 178
173 173 173
160 160 160
160 160 160
156 156 156
144 144 144
116 116 116
126 126 126
137 137 137
142 142 142
139 139 139
137 137 137
143 143 143
168 168 168
188 188 188
200 200 200
197 197 197
193 193 193
223 223 223
247 247 247
226 226 226
197 197 197
168 168 168
160 160 160
174 174 174
177 177 177
176 176 176
190 190 190
192 192 192
182 182 182
162 162 162
139 139 139
159 159 159
175 175 175
183 183 183
197 197 197
198 198 198
206 206 206
200 200 200
181 181 181
157 157 157
133 133 133
140 140 140
160 160 160
175 175 175
180 180 180
175 175 175
159 159 159
157 157 157
159 159 159
165 165 165
168 168 168
168 168 168
158 158 158
156 156 156
148 148 148
131 131 131
151 151 151
165 165 165
171 171 171
167 167 167
154 154 154
163 163 163
180 180 180
191 191 191
204 204 204
201 201 201
188 188 188
214 214 214
228 228 228
216 216 216
191 191 191
164 164 164
177 177 177
194 194 194
199 199 199
190 190 190
192 192 192
194 194 194
183 183 183
163 163 163
140 140 140
135 135 135
160 160 160
181 181 181
194 194 194
195 195 195
205 205 205
199 199 199
181 181 181
164 164 164
158 158 158
154 154 154
179 179 179
198 198 198
206 206 206
197 197 197
181 181 181
186 186 186
179 179 179
170 170 170
181 181 181
180 180 180
172 172 172
173 173 173
163 163 163
149 149 149
173 173 173
192 192 192
200 200 200
194 194 194
176 176 176
179 179 179
200 200 200
212 212 212
205 205 205
189 189 189
175 175 175
191 191 191
199 199 199
192 192 192
175 175 175
164 164 164
186 186 186
204 204 204
211 211 211
199 199 199
181 181 181
183 183 183
173 173 173
156 156 156
133 133 133
127 127 127
149 149 149
168 168 168
179 179 179
181 181 181
189 189 189
184 184 184
182 182 182
187 187 187
179 179 179
162 162 162
189 189 189
212 212 212
224 224 224
211 211 211
207 207 207
215 215 215
204 204 204
182 182 182
183 183 183
182 182 182
180 180 180
181 181 181
171 171 171
161 161 161
189 189 189
214 214 214
229 229 229
218 218 218
193 193 193
185 185 185
210 210 210
225 225 225
215 215 215
192 192 192
165 165 165
164 164 164
173 173 173
174 174 174
164 164 164
173 173 173
199 199 199
219 219 219
221 221 221
202 202 202
176 176 176
163 163 163
155 155 155
143 143 143
131 131 131
139 139 139
145 145 145
148 148 148
157 157 157
159 159 159
166 166 166
179 179 179
197 197 197
203 203 203
194 194 194
174 174 174
186 186 186
209 209 209
219 219 219
208 208 208
225 225 225
243 243 243
221 221 221
192 192 192
173 173 173
172 172 172
176 176 176
177 177 177
168 168 168
164 164 164
193 193 193
222 222 222
247 247 247
226 226 226
197 197 197
180 180 180
202 202 202
214 214 214
206 206 206
186 186 186
167 167 167
186 186 186
201 201 201
202 202 202
188 188 188
175 175 175
197 197 197
216 216 216
218 218 218
200 200 200
175 175 175
148 148 148
141 141 141
130 130 130
144 144 144
159 159 159
166 166 166
163 163 163
152 152 152
135 135 135
157 157 157
181 181 181
200 200 200
206 206 206
196 196 196
175 175 175
172 172 172
190 190 190
197 197 197
194 194 194
220 220 220
233 233 233
216 216 216
190 190 190
162 162 162
155 155 155
163 163 163
164 164 164
156 156 156
157 157 157
184 184 184
207 207 207
220 220 220
210 210 210
188 188 188
165 165 165
182 182 182
190 190 190
185 185 185
169 169 169
192 192 192
206 206 206
225 225 225
227 227 227
206 206 206
202 202 202
186 186 186
196 196 196
197 197 197
187 187 187
184 184 184
170 170 170
150 150 150
149 149 149
155 155 155
172 172 172
180 180 180
178 178 178
165 165 165
145 145 145
150 150 150
171 171 171
187 187 187
192 192 192
184 184 184
166 166 166
152 152 152
165 165 165
170 170 170
179 179 179
198 198 198
204 204 204
195 195 195
176 176 176
151 151 151
135 135 135
145 145 145
153 153 153
152 152 152
155 155 155
178 178 178
195 195 195
200 200 200
191 191 191
171 171 171
147 147 147
157 157 157
163 163 163
159 159 159
181 181 181
209 209 209
233 233 233
231 231 231
233 233 233
224 224 224
222 222 222
201 201 201
176 176 176
200 200 200
214 214 214
209 209 209
190 190 190
168 168 168
176 176 176
174 174 174
176 176 176
185 185 185
182 182 182
169 169 169
148 148 148
148 148 148
164 164 164
171 171 171
170 170 170
164 164 164
149 149 149
136 136 136
138 138 138
142 142 142
157 157 157
171 171 171
175 175 175
169 169 169
159 159 159
142 142 142
148 148 148
165 165 165
174 174 174
174 174 174
165 165 165
192 192 192
215 215 215
223 223 223
208 208 208
184 184 184
156 156 156
139 139 139
148 148 148
166 166 166
183 183 183
212 212 212
238 238 238
234 234 234
211 211 211
224 224 224
223 223 223
201 201 201
184 184 184
212 212 212
232 232 232
225 225 225
200 200 200
191 191 191
202 202 202
199 199 199
182 182 182
178 178 178
175 175 175
162 162 162
143 143 143
147 147 147
162 162 162
169 169 169
166 166 166
155 155 155
143 143 143
141 141 141
132 132 132
127 127 127
141 141 141
157 157 157
165 165 165
164 164 164
155 155 155
138 138 138
159 159 159
178 178 178
190 190 190
189 189 189
167 167 167
194 194 194
218 218 218
227 227 227
211 211 211
185 185 185
157 157 157
149 149 149
165 165 165
188 188 188
202 202 202
203 203 203
212 212 212
210 210 210
192 192 192
203 203 203
202 202 202
187 187 187
181 181 181
206 206 206
222 222 222
217 217 217
195 195 195
205 205 205
221 221 221
216 216 216
194 194 194
181 181 181
166 166 166
161 161 161
161 161 161
170 170 170
168 168 168
158 158 158
155 155 155
145 145 145
141 141 141
139 139 139
130 130 130
123 123 123
130 130 130
144 144 144
152 152 152
151 151 151
142 142 142
145 145 145
162 162 162
182 182 182
194 194 194
193 193 193
158 158 158
183 183 183
201 201 201
207 207 207
196 196 196
175 175 175
150 150 150
152 152 152
175 175 175
201 201 201
221 221 221
221 221 221
201 201 201
182 182 182
170 170 170
177 177 177
176 176 176
165 165 165
166 166 166
186 186 186
197 197 197
193 193 193
180 180 180
204 204 204
220 220 220
215 215 215
212 212 212
202 202 202
195 195 195
188 188 188
183 183 183
194 194 194
192 192 192
178 178 178
157 157 157
132 132 132
132 132 132
130 130 130
122 122 122
113 113 113
114 114 114
126 126 126
133 133 133
132 132 132
139 139 139
159 159 159
174 174 174
179 179 179
184 184 184
183 183 183
158 158 158
175 175 175
184 184 184
181 181 181
173 173 173
157 157 157
135 135 135
147 147 147
174 174 174
200 200 200
219 219 219
219 219 219
200 200 200
174 174 174
147 147 147
148 148 148
148 148 148
139 139 139
146 146 146
161 161 161
169 169 169
166 166 166
168 168 168
189 189 189
200 200 200
212 212 212
224 224 224
212 212 212
222 222 222
211 211 211
196 196 196
211 211 211
209 209 209
191 191 191
166 166 166
140 140 140
117 117 117
115 115 115
108 108 108
107 107 107
112 112 112
127 127 127
140 140 140
147 147 147
150 150 150
165 165 165
181 181 181
187 187 187
181 181 181
165 165 165
174 174 174
196 196 196
209 209 209
205 205 205
187 187 187
162 162 162
136 136 136
138 138 138
163 163 163
185 185 185
198 198 198
199 199 199
185 185 185
163 163 163
138 138 138
134 134 134
141 141 141
141 141 141
152 152 152
154 154 154
154 154 154
153 153 153
150 150 150
166 166 166
182 182 182
203 203 203
212 212 212
221 221 221
239 239 239
222 222 222
197 197 197
212 212 212
209 209 209
191 191 191
167 167 167
140 140 140
112 112 112
98 98 98
100 100 100
101 101 101
120 120 120
140 140 140
155 155 155
163 163 163
161 161 161
164 164 164
177 177 177
182 182 182
177 177 177
161 161 161
182 182 182
207 207 207
225 225 225
218 218 218
196 196 196
169 169 169
141 141 141
148 148 148
148 148 148
162 162 162
172 172 172
172 172 172
162 162 162
145 145 145
129 129 129
143 143 143
151 151 151
165 165 165
178 178 178
181 181 181
183 183 183
182 182 182
170 170 170
151 151 151
166 166 166
182 182 182
188 188 188
209 209 209
220 220 220
209 209 209
187 187 187
195 195 195
193 193 193
179 179 179
158 158 158
133 133 133
124 124 124
124 124 124
121 121 121
125 125 125
130 130 130
147 147 147
163 163 163
171 171 171
170 170 170
165 165 165
163 163 163
168 168 168
163 163 163
154 154 154
178 178 178
202 202 202
216 216 216
211 211 211
191 191 191
166 166 166
161 161 161
172 172 172
172 172 172
163 163 163
164 164 164
174 174 174
174 174 174
164 164 164
146 146 146
145 145 145
160 160 160
184 184 184
202 202 202
206 206 206
211 211 211
209 209 209
192 192 192
168 168 168
150 150 150
157 157 157
169 169 169
186 186 186
192 192 192
186 186 186
169 169 169
171 171 171
170 170 170
163 163 163
153 153 153
141 141 141
148 148 148
152 152 152
148 148 148
146 146 146
152 152 152
150 150 150
161 161 161
169 169 169
168 168 168
157 157 157
170 170 170
179 179 179
178 178 178
166 166 166
164 164 164
183 183 183
193 193 193
190 190 190
175 175 175
158 158 158
178 178 178
191 191 191
192 192 192
180 180 180
184 184 184
198 198 198
198 198 198
184 184 184
165 165 165
148 148 148
167 167 167
194 194 194
216 216 216
222 222 222
233 233 233
230 230 230
205 205 205
177 177 177
148 148 148
152 152 152
150 150 150
159 159 159
164 164 164
159 159 159
151 151 151
169 169 169
179 179 179
178 178 178
167 167 167
159 159 159
174 174 174
180 180 180
175 175 175
162 162 162
169 169 169
167 167 167
155 155 155
158 158 158
157 157 157
165 165 165
186 186 186
198 198 198
195 195 195
181 181 181
144 144 144
159 159 159
166 166 166
164 164 164
153 153 153
163 163 163
185 185 185
200 200 200
201 201 201
187 187 187
197 197 197
215 215 215
215 215 215
200 200 200
188 188 188
167 167 167
170 170 170
190 190 190
211 211 211
216 216 216
228 228 228
226 226 226
202 202 202
175 175 175
166 166 166
174 174 174
172 172 172
163 163 163
150 150 150
133 133 133
156 156 156
174 174 174
187 187 187
194 194 194
186 186 186
177 177 177
197 197 197
206 206 206
198 198 198
179 179 179
179 179 179
176 176 176
163 163 163
143 143 143
144 144 144
169 169 169
191 191 191
204 204 204
202 202 202
185 185 185
120 120 120
137 137 137
150 150 150
155 155 155
152 152 152
160 160 160
181 181 181
194 194 194
195 195 195
183 183 183
196 196 196
213 213 213
218 218 218
222 222 222
204 204 204
179 179 179
184 184 184
182 182 182
190 190 190
194 194 194
203 203 203
201 201 201
186 186 186
163 163 163
179 179 179
190 190 190
187 187 187
180 180 180
164 164 164
142 142 142
155 155 155
179 179 179
198 198 198
206 206 206
197 197 197
187 187 187
212 212 212
225 225 225
213 213 213
190 190 190
177 177 177
174 174 174
162 162 162
142 142 142
139 139 139
163 163 163
183 183 183
194 194 194
192 192 192
190 190 190
119 119 119
134 134 134
146 146 146
152 152 152
149 149 149
148 148 148
166 166 166
177 177 177
180 180 180
186 186 186
182 182 182
198 198 198
220 220 220
225 225 225
206 206 206
180 180 180
188 188 188
185 185 185
172 172 172
168 168 168
174 174 174
174 174 174
163 163 163
164 164 164
183 183 183
194 194 194
194 194 194
187 187 187
169 169 169
147 147 147
161 161 161
178 178 178
195 195 195
202 202 202
193 193 193
185 185 185
209 209 209
220 220 220
210 210 210
187 187 187
166 166 166
163 163 163
171 171 171
170 170 170
159 159 159
149 149 149
170 170 170
193 193 193
208 208 208
206 206 206
123 123 123
124 124 124
135 135 135
140 140 140
138 138 138
130 130 130
152 152 152
175 175 175
194 194 194
202 202 202
195 195 195
186 186 186
202 202 202
205 205 205
192 192 192
171 171 171
179 179 179
177 177 177
164 164 164
145 145 145
146 146 146
145 145 145
140 140 140
158 158 158
175 175 175
185 185 185
189 189 189
182 182 182
165 165 165
150 150 150
176 176 176
198 198 198
209 209 209
203 203 203
185 185 185
172 172 172
190 190 190
198 198 198
191 191 191
174 174 174
167 167 167
185 185 185
198 198 198
196 196 196
182 182 182
160 160 160
171 171 171
194 194 194
209 209 209
207 207 207
120 120 120
118 118 118
119 119 119
123 123 123
121 121 121
136 136 136
161 161 161
182 182 182
196 196 196
204 204 204
196 196 196
177 177 177
179 179 179
182 182 182
174 174 174
157 157 157
163 163 163
172 172 172
172 172 172
162 162 162
144 144 144
139 139 139
161 161 161
177 177 177
185 185 185
183 183 183
184 184 184
174 174 174
156 156 156
155 155 155
182 182 182
206 206 206
220 220 220
213 213 213
191 191 191
165 165 165
166 166 166
171 171 171
174 174 174
186 186 186
187 187 187
202 202 202
220 220 220
219 219 219
198 198 198
172 172 172
161 161 161
181 181 181
193 193 193
192 192 192
112 112 112
110 110 110
102 102 102
102 102 102
109 109 109
135 135 135
160 160 160
182 182 182
196 196 196
197 197 197
184 184 184
181 181 181
199 199 199
203 203 203
193 193 193
172 172 172
185 185 185
198 198 198
197 197 197
183 183 183
162 162 162
151 151 151
176 176 176
196 196 196
207 207 207
204 204 204
206 206 206
192 192 192
170 170 170
151 151 151
176 176 176
198 198 198
210 210 210
204 204 204
185 185 185
161 161 161
143 143 143
162 162 162
183 183 183
197 197 197
197 197 197
205 205 205
226 226 226
224 224 224
202 202 202
178 178 178
154 154 154
163 163 163
170 170 170
169 169 169
107 107 107
105 105 105
104 104 104
119 119 119
130 130 130
134 134 134
151 151 151
170 170 170
182 182 182
183 183 183
172 172 172
188 188 188
208 208 208
213 213 213
201 201 201
178 178 178
199 199 199
217 217 217
216 216 216
197 197 197
172 172 172
177 177 177
181 181 181
204 204 204
216 216 216
214 214 214
217 217 217
200 200 200
175 175 175
148 148 148
161 161 161
178 178 178
187 187 187
192 192 192
191 191 191
177 177 177
164 164 164
162 162 162
180 180 180
194 194 194
194 194 194
198 198 198
222 222 222
229 229 229
210 210 210
183 183 183
179 179 179
191 191 191
192 192 192
180 180 180
110 110 110
109 109 109
125 125 125
143 143 143
156 156 156
161 161 161
157 157 157
151 151 151
161 161 161
161 161 161
158 158 158
182 182 182
200 200 200
205 205 205
193 193 193
174 174 174
200 200 200
218 218 218
217 217 217
198 198 198
184 184 184
203 203 203
209 209 209
198 198 198
206 206 206
205 205 205
207 207 207
193 193 193
170 170 170
145 145 145
142 142 142
167 167 167
189 189 189
202 202 202
200 200 200
185 185 185
182 182 182
179 179 179
167 167 167
178 178 178
179 179 179
190 190 190
210 210 210
215 215 215
200 200 200
197 197 197
203 203 203
217 217 217
218 218 218
200 200 200
108 108 108
117 117 117
142 142 142
164 164 164
180 180 180
186 186 186
181 181 181
166 166 166
164 164 164
178 178 178
182 182 182
174 174 174
180 180 180
183 183 183
175 175 175
165 165 165
188 188 188
212 212 212
224 224 224
213 213 213
198 198 198
224 224 224
236 236 236
215 215 215
188 188 188
184 184 184
185 185 185
175 175 175
156 156 156
133 133 133
139 139 139
164 164 164
184 184 184
196 196 196
194 194 194
181 181 181
191 191 191
187 187 187
173 173 173
156 156 156
156 156 156
172 172 172
186 186 186
189 189 189
188 188 188
209 209 209
217 217 217
230 230 230
232 232 232
208 208 208
99 99 99
126 126 126
153 153 153
178 178 178
198 198 198
207 207 207
200 200 200
180 180 180
185 185 185
204 204 204
211 211 211
200 200 200
178 178 178
158 158 158
152 152 152
165 165 165
195 195 195
224 224 224
249 249 249
225 225 225
197 197 197
224 224 224
235 235 235
215 215 215
188 188 188
159 159 159
159 159 159
151 151 151
136 136 136
117 117 117
130 130 130
151 151 151
169 169 169
182 182 182
186 186 186
178 178 178
187 187 187
183 183 183
169 169 169
149 149 149
132 132 132
149 149 149
159 159 159
161 161 161
185 185 185
205 205 205
212 212 212
216 216 216
218 218 218
200 200 200
101 101 101
129 129 129
156 156 156
182 182 182
204 204 204
215 215 215
206 206 206
185 185 185
198 198 198
225 225 225
239 239 239
218 218 218
190 190 190
173 173 173
159 159 159
161 161 161
188 188 188
212 212 212
225 225 225
213 213 213
189 189 189
202 202 202
208 208 208
197 197 197
176 176 176
150 150 150
131 131 131
125 125 125
122 122 122
113 113 113
134 134 134
162 162 162
187 187 187
207 207 207
214 214 214
202 202 202
179 179 179
169 169 169
157 157 157
139 139 139
116 116 116
123 123 123
131 131 131
149 149 149
171 171 171
186 186 186
191 191 191
191 191 191
191 191 191
180 180 180
97 97 97
125 125 125
151 151 151
175 175 175
195 195 195
203 203 203
196 196 196
208 208 208
214 214 214
224 224 224
237 237 237
217 217 217
196 196 196
189 189 189
171 171 171
149 149 149
171 171 171
188 188 188
196 196 196
189 189 189
178 178 178
176 176 176
179 179 179
173 173 173
165 165 165
148 148 148
127 127 127
131 131 131
128 128 128
119 119 119
140 140 140
169 169 169
198 198 198
224 224 224
236 236 236
216 216 216
189 189 189
160 160 160
138 138 138
122 122 122
104 104 104
113 113 113
115 115 115
132 132 132
150 150 150
162 162 162
166 166 166
163 163 163
163 163 163
155 155 155
98 98 98
119 119 119
138 138 138
159 159 159
175 175 175
181 181 181
200 200 200
228 228 228
241 241 241
217 217 217
209 209 209
198 198 198
200 200 200
193 193 193
175 175 175
171 171 171
170 170 170
161 161 161
166 166 166
162 162 162
163 163 163
166 166 166
169 169 169
170 170 170
162 162 162
146 146 146
127 127 127
131 131 131
129 129 129
122 122 122
138 138 138
167 167 167
194 194 194
218 218 218
227 227 227
211 211 211
186 186 186
158 158 158
143 143 143
128 128 128
108 108 108
115 115 115
118 118 118
114 114 114
126 126 126
142 142 142
158 158 158
168 168 168
168 168 168
159 159 159
111 111 111
135 135 135
155 155 155
170 170 170
177 177 177
172 172 172
197 197 197
223 223 223
233 233 233
214 214 214
187 187 187
184 184 184
190 190 190
184 184 184
186 186 186
199 199 199
198 198 198
183 183 183
161 161 161
173 173 173
190 190 190
195 195 195
187 187 187
169 169 169
151 151 151
136 136 136
121 121 121
129 129 129
139 139 139
142 142 142
138 138 138
155 155 155
178 178 178
196 196 196
201 201 201
191 191 191
171 171 171
152 152 152
143 143 143
128 128 128
126 126 126
137 137 137
142 142 142
138 138 138
130 130 130
153 153 153
171 171 171
183 183 183
183 183 183
174 174 174
119 119 119
145 145 145
168 168 168
185 185 185
193 193 193
188 188 188
182 182 182
200 200 200
205 205 205
194 194 194
173 173 173
165 165 165
170 170 170
178 178 178
205 205 205
225 225 225
223 223 223
201 201 201
174 174 174
191 191 191
214 214 214
223 223 223
209 209 209
185 185 185
158 158 158
143 143 143
133 133 133
142 142 142
154 154 154
158 158 158
153 153 153
140 140 140
156 156 156
169 169 169
172 172 172
166 166 166
151 151 151
144 144 144
136 136 136
131 131 131
151 151 151
165 165 165
171 171 171
167 167 167
154 154 154
156 156 156
175 175 175
187 187 187
196 196 196
203 203 203
128 128 128
147 147 147
171 171 171
190 190 190
198 198 198
192 192 192
175 175 175
173 173 173
176 176 176
169 169 169
153 153 153
142 142 142
153 153 153
182 182 182
210 210 210
235 235 235
231 231 231
205 205 205
177 177 177
197 197 197
225 225 225
241 241 241
219 219 219
191 191 191
164 164 164
161 161 161
155 155 155
149 149 149
161 161 161
165 165 165
161 161 161
149 149 149
160 160 160
175 175 175
180 180 180
174 174 174
159 159 159
139 139 139
124 124 124
149 149 149
173 173 173
192 192 192
200 200 200
194 194 194
176 176 176
153 153 153
169 169 169
191 191 191
217 217 217
231 231 231
