P3
50 50
255
137 137 137
154 154 154
163 163 163
163 163 163
154 154 154
153 153 153
174 174 174
189 189 189
191 191 191
181 181 181
162 162 162
172 172 172
198 198 198
216 216 216
217 217 217
199 199 199
174 174 174
158 158 158
168 168 168
168 168 168
159 159 159
143 143 143
122 122 122
122 122 122
126 126 126
123 123 123
137 137 137
148 148 148
151 151 151
146 146 146
133 133 133
128 128 128
148 148 148
163 163 163
169 169 169
166 166 166
154 154 154
145 145 145
166 166 166
182 182 182
188 188 188
181 181 181
167 167 167
154 154 154
134 134 134
128 128 128
133 133 133
130 130 130
120 120 120
117 117 117
158 158 158
178 178 178
191 191 191
191 191 191
179 179 179
159 159 159
175 175 175
190 190 190
192 192 192
182 182 182
163 163 163
174 174 174
201 201 201
222 222 222
223 223 223
203 203 203
177 177 177
175 175 175
187 187 187
187 187 187
176 176 176
157 157 157
133 133 133
137 137 137
141 141 141
140 140 140
159 159 159
172 172 172
176 176 176
169 169 169
154 154 154
144 144 144
168 168 168
186 186 186
195 195 195
191 191 191
175 175 175
158 158 158
183 183 183
204 204 204
212 212 212
202 202 202
181 181 181
165 165 165
143 143 143
156 156 156
162 162 162
158 158 158
146 146 146
134 134 134
173 173 173
199 199 199
218 218 218
218 218 218
199 199 199
174 174 174
166 166 166
178 178 178
181 181 181
172 172 172
154 154 154
166 166 166
189 189 189
205 205 205
206 206 206
191 191 191
168 168 168
183 183 183
197 197 197
197 197 197
184 184 184
163 163 163
144 144 144
159 159 159
167 167 167
164 164 164
175 175 175
192 192 192
197 197 197
188 188 188
169 169 169
154 154 154
180 180 180
203 203 203
216 216 216
209 209 209
189 189 189
163 163 163
190 190 190
214 214 214
225 225 225
212 212 212
188 188 188
167 167 167
166 166 166
183 183 183
191 191 191
186 186 186
170 170 170
148 148 148
179 179 179
208 208 208
234 234 234
234 234 234
209 209 209
180 180 180
151 151 151
159 159 159
161 161 161
154 154 154
160 160 160
159 159 159
169 169 169
180 180 180
180 180 180
170 170 170
159 159 159
179 179 179
193 193 193
193 193 193
181 181 181
160 160 160
164 164 164
184 184 184
194 194 194
190 190 190
183 183 183
202 202 202
208 208 208
197 197 197
176 176 176
161 161 161
183 183 183
207 207 207
221 221 221
213 213 213
191 191 191
165 165 165
184 184 184
205 205 205
214 214 214
204 204 204
182 182 182
160 160 160
184 184 184
207 207 207
220 220 220
211 211 211
189 189 189
163 163 163
174 174 174
200 200 200
219 219 219
220 220 220
201 201 201
175 175 175
147 147 147
144 144 144
148 148 148
165 165 165
174 174 174
173 173 173
162 162 162
152 152 152
153 153 153
145 145 145
148 148 148
166 166 166
177 177 177
177 177 177
167 167 167
152 152 152
178 178 178
202 202 202
217 217 217
212 212 212
192 192 192
196 196 196
202 202 202
192 192 192
188 188 188
186 186 186
173 173 173
194 194 194
204 204 204
199 199 199
181 181 181
157 157 157
168 168 168
184 184 184
190 190 190
183 183 183
166 166 166
167 167 167
192 192 192
220 220 220
244 244 244
226 226 226
198 198 198
169 169 169
159 159 159
180 180 180
193 193 193
193 193 193
181 181 181
160 160 160
158 158 158
169 169 169
170 170 170
169 169 169
179 179 179
178 178 178
166 166 166
148 148 148
139 139 139
135 135 135
158 158 158
176 176 176
186 186 186
184 184 184
170 170 170
157 157 157
182 182 182
208 208 208
226 226 226
219 219 219
196 196 196
179 179 179
183 183 183
194 194 194
209 209 209
206 206 206
189 189 189
172 172 172
179 179 179
175 175 175
162 162 162
142 142 142
146 146 146
158 158 158
163 163 163
158 158 158
176 176 176
193 193 193
199 199 199
212 212 212
227 227 227
217 217 217
192 192 192
165 165 165
147 147 147
157 157 157
165 165 165
165 165 165
159 159 159
160 160 160
181 181 181
196 196 196
197 197 197
185 185 185
172 172 172
172 172 172
161 161 161
167 167 167
163 163 163
150 150 150
175 175 175
198 198 198
213 213 213
209 209 209
190 190 190
177 177 177
174 174 174
197 197 197
210 210 210
205 205 205
187 187 187
163 163 163
175 175 175
200 200 200
216 216 216
213 213 213
194 194 194
169 169 169
152 152 152
149 149 149
140 140 140
133 133 133
133 133 133
149 149 149
159 159 159
165 165 165
192 192 192
216 216 216
226 226 226
211 211 211
219 219 219
213 213 213
192 192 192
166 166 166
172 172 172
185 185 185
187 187 187
178 178 178
161 161 161
172 172 172
198 198 198
219 219 219
221 221 221
203 203 203
177 177 177
163 163 163
180 180 180
186 186 186
181 181 181
166 166 166
183 183 183
211 211 211
232 232 232
226 226 226
201 201 201
189 189 189
177 177 177
176 176 176
184 184 184
182 182 182
170 170 170
157 157 157
168 168 168
190 190 190
203 203 203
201 201 201
185 185 185
163 163 163
137 137 137
132 132 132
137 137 137
143 143 143
151 151 151
150 150 150
160 160 160
167 167 167
196 196 196
223 223 223
237 237 237
218 218 218
230 230 230
223 223 223
198 198 198
170 170 170
192 192 192
212 212 212
216 216 216
201 201 201
177 177 177
175 175 175
203 203 203
226 226 226
229 229 229
207 207 207
180 180 180
171 171 171
189 189 189
197 197 197
191 191 191
174 174 174
180 180 180
205 205 205
223 223 223
218 218 218
197 197 197
189 189 189
177 177 177
171 171 171
191 191 191
201 201 201
196 196 196
179 179 179
156 156 156
171 171 171
181 181 181
179 179 179
167 167 167
148 148 148
135 135 135
149 149 149
154 154 154
169 169 169
180 180 180
179 179 179
168 168 168
161 161 161
186 186 186
207 207 207
215 215 215
204 204 204
214 214 214
209 209 209
189 189 189
167 167 167
203 203 203
231 231 231
239 239 239
214 214 214
185 185 185
167 167 167
191 191 191
209 209 209
211 211 211
195 195 195
172 172 172
169 169 169
186 186 186
194 194 194
188 188 188
171 171 171
166 166 166
186 186 186
198 198 198
195 195 195
180 180 180
177 177 177
167 167 167
184 184 184
210 210 210
226 226 226
218 218 218
195 195 195
168 168 168
157 157 157
164 164 164
161 161 161
149 149 149
131 131 131
144 144 144
159 159 159
170 170 170
193 193 193
208 208 208
207 207 207
191 191 191
167 167 167
167 167 167
183 183 183
188 188 188
180 180 180
188 188 188
185 185 185
171 171 171
174 174 174
199 199 199
222 222 222
228 228 228
208 208 208
182 182 182
154 154 154
171 171 171
183 183 183
184 184 184
174 174 174
155 155 155
157 157 157
172 172 172
178 178 178
175 175 175
176 176 176
166 166 166
162 162 162
170 170 170
181 181 181
189 189 189
185 185 185
170 170 170
187 187 187
214 214 214
233 233 233
223 223 223
198 198 198
169 169 169
152 152 152
158 158 158
155 155 155
154 154 154
147 147 147
146 146 146
160 160 160
181 181 181
209 209 209
234 234 234
232 232 232
206 206 206
178 178 178
150 150 150
160 160 160
161 161 161
154 154 154
160 160 160
158 158 158
156 156 156
172 172 172
182 182 182
198 198 198
200 200 200
201 201 201
189 189 189
169 169 169
162 162 162
175 175 175
180 180 180
173 173 173
157 157 157
139 139 139
163 163 163
186 186 186
201 201 201
203 203 203
189 189 189
167 167 167
172 172 172
191 191 191
201 201 201
196 196 196
179 179 179
177 177 177
199 199 199
211 211 211
206 206 206
186 186 186
162 162 162
147 147 147
166 166 166
178 178 178
179 179 179
170 170 170
153 153 153
153 153 153
181 181 181
209 209 209
234 234 234
232 232 232
206 206 206
178 178 178
174 174 174
188 188 188
191 191 191
180 180 180
161 161 161
168 168 168
172 172 172
179 179 179
174 174 174
199 199 199
222 222 222
228 228 228
209 209 209
182 182 182
183 183 183
202 202 202
209 209 209
198 198 198
177 177 177
152 152 152
173 173 173
200 200 200
221 221 221
224 224 224
204 204 204
178 178 178
170 170 170
189 189 189
199 199 199
194 194 194
179 179 179
179 179 179
176 176 176
184 184 184
180 180 180
180 180 180
178 178 178
165 165 165
183 183 183
199 199 199
201 201 201
188 188 188
167 167 167
146 146 146
170 170 170
193 193 193
208 208 208
207 207 207
191 191 191
169 169 169
195 195 195
215 215 215
219 219 219
203 203 203
179 179 179
194 194 194
196 196 196
188 188 188
176 176 176
203 203 203
229 229 229
237 237 237
213 213 213
185 185 185
197 197 197
224 224 224
238 238 238
217 217 217
190 190 190
161 161 161
173 173 173
200 200 200
221 221 221
224 224 224
206 206 206
192 192 192
169 169 169
176 176 176
183 183 183
179 179 179
173 173 173
174 174 174
170 170 170
167 167 167
188 188 188
200 200 200
197 197 197
181 181 181
191 191 191
208 208 208
211 211 211
196 196 196
173 173 173
156 156 156
151 151 151
169 169 169
179 179 179
179 179 179
168 168 168
176 176 176
205 205 205
234 234 234
243 243 243
215 215 215
194 194 194
213 213 213
216 216 216
200 200 200
188 188 188
191 191 191
210 210 210
214 214 214
199 199 199
176 176 176
198 198 198
225 225 225
240 240 240
218 218 218
190 190 190
170 170 170
163 163 163
186 186 186
201 201 201
213 213 213
214 214 214
197 197 197
173 173 173
155 155 155
161 161 161
158 158 158
168 168 168
186 186 186
194 194 194
189 189 189
195 195 195
208 208 208
205 205 205
188 188 188
185 185 185
201 201 201
203 203 203
190 190 190
175 175 175
157 157 157
147 147 147
157 157 157
159 159 159
159 159 159
158 158 158
172 172 172
199 199 199
222 222 222
227 227 227
208 208 208
196 196 196
216 216 216
219 219 219
202 202 202
202 202 202
199 199 199
184 184 184
186 186 186
176 176 176
160 160 160
185 185 185
204 204 204
211 211 211
200 200 200
201 201 201
192 192 192
173 173 173
164 164 164
187 187 187
202 202 202
203 203 203
189 189 189
167 167 167
142 142 142
147 147 147
153 153 153
178 178 178
200 200 200
211 211 211
204 204 204
188 188 188
200 200 200
197 197 197
181 181 181
169 169 169
182 182 182
183 183 183
174 174 174
166 166 166
150 150 150
145 145 145
156 156 156
174 174 174
183 183 183
181 181 181
175 175 175
181 181 181
196 196 196
199 199 199
187 187 187
184 184 184
200 200 200
202 202 202
190 190 190
201 201 201
199 199 199
183 183 183
160 160 160
150 150 150
143 143 143
163 163 163
178 178 178
187 187 187
208 208 208
217 217 217
205 205 205
182 182 182
166 166 166
172 172 172
180 180 180
181 181 181
171 171 171
160 160 160
142 142 142
148 148 148
153 153 153
178 178 178
200 200 200
211 211 211
204 204 204
185 185 185
180 180 180
178 178 178
165 165 165
160 160 160
177 177 177
186 186 186
183 183 183
169 169 169
149 149 149
143 143 143
168 168 168
189 189 189
200 200 200
197 197 197
181 181 181
173 173 173
168 168 168
170 170 170
162 162 162
164 164 164
176 176 176
177 177 177
189 189 189
186 186 186
184 184 184
171 171 171
152 152 152
132 132 132
122 122 122
139 139 139
160 160 160
185 185 185
205 205 205
213 213 213
202 202 202
180 180 180
167 167 167
173 173 173
182 182 182
194 194 194
192 192 192
179 179 179
158 158 158
141 141 141
145 145 145
168 168 168
186 186 186
195 195 195
197 197 197
201 201 201
190 190 190
170 170 170
147 147 147
173 173 173
194 194 194
206 206 206
202 202 202
184 184 184
161 161 161
145 145 145
171 171 171
192 192 192
205 205 205
202 202 202
185 185 185
161 161 161
153 153 153
146 146 146
149 149 149
144 144 144
149 149 149
158 158 158
176 176 176
177 177 177
182 182 182
176 176 176
160 160 160
139 139 139
115 115 115
124 124 124
149 149 149
171 171 171
188 188 188
193 193 193
185 185 185
167 167 167
179 179 179
185 185 185
193 193 193
208 208 208
206 206 206
190 190 190
166 166 166
140 140 140
130 130 130
150 150 150
168 168 168
195 195 195
217 217 217
223 223 223
206 206 206
181 181 181
154 154 154
176 176 176
199 199 199
213 213 213
208 208 208
189 189 189
165 165 165
151 151 151
163 163 163
183 183 183
193 193 193
191 191 191
176 176 176
155 155 155
153 153 153
165 165 165
169 169 169
163 163 163
149 149 149
167 167 167
176 176 176
177 177 177
182 182 182
175 175 175
160 160 160
138 138 138
114 114 114
110 110 110
133 133 133
151 151 151
164 164 164
168 168 168
162 162 162
176 176 176
195 195 195
203 203 203
196 196 196
206 206 206
204 204 204
188 188 188
165 165 165
145 145 145
153 153 153
152 152 152
168 168 168
195 195 195
218 218 218
224 224 224
207 207 207
182 182 182
154 154 154
169 169 169
190 190 190
201 201 201
197 197 197
181 181 181
166 166 166
152 152 152
148 148 148
164 164 164
172 172 172
170 170 170
159 159 159
143 143 143
163 163 163
178 178 178
182 182 182
175 175 175
161 161 161
181 181 181
193 193 193
166 166 166
170 170 170
164 164 164
150 150 150
131 131 131
126 126 126
133 133 133
133 133 133
127 127 127
137 137 137
140 140 140
155 155 155
179 179 179
199 199 199
208 208 208
199 199 199
189 189 189
188 188 188
175 175 175
163 163 163
165 165 165
174 174 174
173 173 173
162 162 162
183 183 183
200 200 200
204 204 204
192 192 192
171 171 171
146 146 146
154 154 154
170 170 170
179 179 179
176 176 176
163 163 163
158 158 158
145 145 145
128 128 128
141 141 141
147 147 147
146 146 146
137 137 137
144 144 144
165 165 165
179 179 179
184 184 184
177 177 177
167 167 167
184 184 184
197 197 197
148 148 148
151 151 151
147 147 147
135 135 135
129 129 129
144 144 144
152 152 152
153 153 153
145 145 145
138 138 138
144 144 144
164 164 164
177 177 177
189 189 189
196 196 196
189 189 189
171 171 171
166 166 166
167 167 167
159 159 159
178 178 178
189 189 189
188 188 188
175 175 175
162 162 162
175 175 175
177 177 177
169 169 169
153 153 153
163 163 163
169 169 169
165 165 165
153 153 153
155 155 155
166 166 166
167 167 167
159 159 159
144 144 144
144 144 144
154 154 154
156 156 156
153 153 153
152 152 152
157 157 157
170 170 170
174 174 174
168 168 168
189 189 189
205 205 205
206 206 206
125 125 125
128 128 128
124 124 124
138 138 138
148 148 148
156 156 156
166 166 166
167 167 167
158 158 158
150 150 150
156 156 156
179 179 179
196 196 196
200 200 200
190 190 190
175 175 175
175 175 175
165 165 165
157 157 157
179 179 179
194 194 194
196 196 196
192 192 192
178 178 178
158 158 158
177 177 177
189 189 189
188 188 188
176 176 176
189 189 189
197 197 197
191 191 191
174 174 174
166 166 166
178 178 178
180 180 180
171 171 171
154 154 154
166 166 166
179 179 179
182 182 182
175 175 175
173 173 173
162 162 162
153 153 153
156 156 156
176 176 176
204 204 204
227 227 227
230 230 230
104 104 104
113 113 113
135 135 135
153 153 153
165 165 165
169 169 169
171 171 171
172 172 172
162 162 162
154 154 154
161 161 161
185 185 185
203 203 203
208 208 208
196 196 196
179 179 179
179 179 179
169 169 169
170 170 170
196 196 196
217 217 217
221 221 221
204 204 204
179 179 179
173 173 173
198 198 198
215 215 215
214 214 214
196 196 196
210 210 210
223 223 223
214 214 214
190 190 190
168 168 168
181 181 181
183 183 183
174 174 174
160 160 160
183 183 183
200 200 200
204 204 204
192 192 192
189 189 189
175 175 175
159 159 159
159 159 159
176 176 176
203 203 203
227 227 227
229 229 229
133 133 133
133 133 133
142 142 142
162 162 162
175 175 175
179 179 179
172 172 172
167 167 167
158 158 158
150 150 150
156 156 156
178 178 178
195 195 195
199 199 199
189 189 189
172 172 172
172 172 172
167 167 167
191 191 191
209 209 209
225 225 225
231 231 231
210 210 210
182 182 182
180 180 180
208 208 208
232 232 232
231 231 231
206 206 206
216 216 216
234 234 234
221 221 221
195 195 195
167 167 167
172 172 172
174 174 174
166 166 166
165 165 165
190 190 190
210 210 210
215 215 215
201 201 201
193 193 193
178 178 178
188 188 188
187 187 187
175 175 175
188 188 188
204 204 204
205 205 205
163 163 163
162 162 162
152 152 152
161 161 161
175 175 175
178 178 178
171 171 171
155 155 155
145 145 145
138 138 138
143 143 143
162 162 162
175 175 175
179 179 179
171 171 171
156 156 156
156 156 156
176 176 176
204 204 204
230 230 230
235 235 235
213 213 213
198 198 198
175 175 175
175 175 175
201 201 201
220 220 220
219 219 219
207 207 207
207 207 207
215 215 215
207 207 207
186 186 186
160 160 160
155 155 155
157 157 157
152 152 152
161 161 161
184 184 184
202 202 202
206 206 206
194 194 194
184 184 184
198 198 198
216 216 216
215 215 215
197 197 197
172 172 172
177 177 177
178 178 178
192 192 192
190 190 190
177 177 177
156 156 156
164 164 164
167 167 167
161 161 161
146 146 146
129 129 129
128 128 128
125 125 125
141 141 141
151 151 151
154 154 154
148 148 148
135 135 135
145 145 145
174 174 174
202 202 202
226 226 226
230 230 230
208 208 208
200 200 200
181 181 181
161 161 161
182 182 182
195 195 195
203 203 203
223 223 223
223 223 223
202 202 202
183 183 183
167 167 167
146 146 146
140 140 140
152 152 152
159 159 159
156 156 156
168 168 168
182 182 182
185 185 185
176 176 176
181 181 181
210 210 210
238 238 238
237 237 237
209 209 209
180 180 180
161 161 161
180 180 180
220 220 220
218 218 218
197 197 197
172 172 172
146 146 146
152 152 152
153 153 153
147 147 147
145 145 145
148 148 148
143 143 143
149 149 149
159 159 159
161 161 161
154 154 154
139 139 139
137 137 137
163 163 163
186 186 186
202 202 202
204 204 204
200 200 200
194 194 194
176 176 176
153 153 153
158 158 158
173 173 173
198 198 198
216 216 216
216 216 216
198 198 198
173 173 173
158 158 158
168 168 168
169 169 169
160 160 160
156 156 156
154 154 154
158 158 158
170 170 170
173 173 173
165 165 165
178 178 178
205 205 205
227 227 227
226 226 226
204 204 204
177 177 177
177 177 177
202 202 202
241 241 241
236 236 236
207 207 207
178 178 178
162 162 162
174 174 174
176 176 176
167 167 167
170 170 170
174 174 174
168 168 168
162 162 162
174 174 174
176 176 176
167 167 167
155 155 155
142 142 142
144 144 144
162 162 162
174 174 174
175 175 175
181 181 181
176 176 176
162 162 162
142 142 142
136 136 136
161 161 161
181 181 181
194 194 194
194 194 194
181 181 181
161 161 161
182 182 182
196 196 196
197 197 197
184 184 184
163 163 163
146 146 146
166 166 166
179 179 179
182 182 182
174 174 174
164 164 164
186 186 186
200 200 200
199 199 199
185 185 185
173 173 173
190 190 190
213 213 213
225 225 225
222 222 222
200 200 200
173 173 173
176 176 176
190 190 190
193 193 193
182 182 182
192 192 192
198 198 198
189 189 189
170 170 170
178 178 178
185 185 185
190 190 190
181 181 181
164 164 164
171 171 171
172 172 172
163 163 163
151 151 151
156 156 156
153 153 153
142 142 142
124 124 124
121 121 121
142 142 142
158 158 158
167 167 167
167 167 167
158 158 158
174 174 174
200 200 200
221 221 221
223 223 223
203 203 203
177 177 177
149 149 149
164 164 164
177 177 177
180 180 180
171 171 171
179 179 179
183 183 183
175 175 175
185 185 185
183 183 183
181 181 181
200 200 200
207 207 207
197 197 197
195 195 195
181 181 181
159 159 159
180 180 180
195 195 195
198 198 198
186 186 186
206 206 206
213 213 213
201 201 201
179 179 179
189 189 189
210 210 210
217 217 217
204 204 204
182 182 182
196 196 196
198 198 198
186 186 186
165 165 165
140 140 140
130 130 130
118 118 118
126 126 126
130 130 130
127 127 127
132 132 132
139 139 139
139 139 139
148 148 148
177 177 177
206 206 206
231 231 231
234 234 234
209 209 209
181 181 181
162 162 162
158 158 158
164 164 164
167 167 167
178 178 178
196 196 196
201 201 201
195 195 195
209 209 209
206 206 206
189 189 189
195 195 195
202 202 202
181 181 181
178 178 178
165 165 165
152 152 152
172 172 172
186 186 186
189 189 189
184 184 184
203 203 203
210 210 210
199 199 199
177 177 177
197 197 197
223 223 223
234 234 234
215 215 215
197 197 197
217 217 217
219 219 219
201 201 201
176 176 176
167 167 167
157 157 157
140 140 140
138 138 138
145 145 145
148 148 148
143 143 143
142 142 142
158 158 158
167 167 167
170 170 170
195 195 195
213 213 213
215 215 215
198 198 198
173 173 173
173 173 173
168 168 168
154 154 154
158 158 158
182 182 182
201 201 201
207 207 207
205 205 205
223 223 223
219 219 219
198 198 198
178 178 178
183 183 183
182 182 182
179 179 179
166 166 166
147 147 147
157 157 157
168 168 168
170 170 170
171 171 171
187 187 187
191 191 191
183 183 183
166 166 166
191 191 191
213 213 213
221 221 221
207 207 207
198 198 198
219 219 219
222 222 222
203 203 203
197 197 197
196 196 196
181 181 181
160 160 160
159 159 159
173 173 173
177 177 177
170 170 170
158 158 158
178 178 178
189 189 189
189 189 189
176 176 176
187 187 187
188 188 188
176 176 176
169 169 169
174 174 174
169 169 169
157 157 157
152 152 152
175 175 175
191 191 191
196 196 196
198 198 198
214 214 214
211 211 211
192 192 192
168 168 168
174 174 174
172 172 172
170 170 170
158 158 158
141 141 141
135 135 135
144 144 144
146 146 146
151 151 151
163 163 163
167 167 167
161 161 161
152 152 152
174 174 174
190 190 190
195 195 195
186 186 186
186 186 186
202 202 202
204 204 204
205 205 205
225 225 225
223 223 223
201 201 201
174 174 174
181 181 181
200 200 200
206 206 206
196 196 196
175 175 175
189 189 189
204 204 204
203 203 203
188 188 188
165 165 165
159 159 159
157 157 157
176 176 176
189 189 189
189 189 189
177 177 177
158 158 158
158 158 158
172 172 172
175 175 175
180 180 180
191 191 191
189 189 189
176 176 176
155 155 155
165 165 165
167 167 167
177 177 177
177 177 177
166 166 166
148 148 148
126 126 126
126 126 126
132 132 132
137 137 137
140 140 140
135 135 135
133 133 133
151 151 151
163 163 163
167 167 167
160 160 160
165 165 165
177 177 177
184 184 184
213 213 213
242 242 242
237 237 237
208 208 208
178 178 178
196 196 196
222 222 222
233 233 233
215 215 215
188 188 188
188 188 188
203 203 203
202 202 202
187 187 187
165 165 165
144 144 144
171 171 171
196 196 196
214 214 214
215 215 215
197 197 197
173 173 173
146 146 146
147 147 147
150 150 150
156 156 156
164 164 164
163 163 163
153 153 153
136 136 136
149 149 149
188 188 188
203 203 203
203 203 203
188 188 188
165 165 165
140 140 140
123 123 123
129 129 129
128 128 128
121 121 121
109 109 109
124 124 124
143 143 143
158 158 158
164 164 164
161 161 161
150 150 150
150 150 150
177 177 177
202 202 202
220 220 220
218 218 218
198 198 198
172 172 172
197 197 197
224 224 224
238 238 238
218 218 218
190 190 190
176 176 176
187 187 187
187 187 187
175 175 175
164 164 164
162 162 162
177 177 177
205 205 205
229 229 229
230 230 230
206 206 206
179 179 179
165 165 165
162 162 162
151 151 151
141 141 141
150 150 150
151 151 151
155 155 155
153 153 153
166 166 166
202 202 202
222 222 222
222 222 222
201 201 201
175 175 175
147 147 147
151 151 151
159 159 159
157 157 157
148 148 148
135 135 135
141 141 141
164 164 164
182 182 182
191 191 191
187 187 187
172 172 172
165 165 165
173 173 173
180 180 180
192 192 192
190 190 190
177 177 177
160 160 160
185 185 185
205 205 205
212 212 212
201 201 201
186 186 186
168 168 168
165 165 165
164 164 164
182 182 182
193 193 193
190 190 190
175 175 175
198 198 198
217 217 217
217 217 217
199 199 199
174 174 174
180 180 180
176 176 176
163 163 163
144 144 144
158 158 158
176 176 176
184 184 184
181 181 181
176 176 176
201 201 201
220 220 220
220 220 220
200 200 200
174 174 174
159 159 159
177 177 177
188 188 188
186 186 186
173 173 173
159 159 159
159 159 159
179 179 179
202 202 202
215 215 215
209 209 209
189 189 189
186 186 186
196 196 196
192 192 192
177 177 177
169 169 169
165 165 165
152 152 152
164 164 164
187 187 187
209 209 209
217 217 217
204 204 204
182 182 182
155 155 155
180 180 180
204 204 204
220 220 220
215 215 215
194 194 194
179 179 179
192 192 192
192 192 192
180 180 180
176 176 176
184 184 184
181 181 181
167 167 167
150 150 150
176 176 176
199 199 199
212 212 212
207 207 207
188 188 188
186 186 186
200 200 200
199 199 199
185 185 185
163 163 163
176 176 176
200 200 200
216 216 216
214 214 214
194 194 194
179 179 179
179 179 179
183 183 183
209 209 209
225 225 225
218 218 218
194 194 194
198 198 198
211 211 211
206 206 206
187 187 187
193 193 193
188 188 188
172 172 172
164 164 164
191 191 191
215 215 215
224 224 224
210 210 210
185 185 185
166 166 166
186 186 186
215 215 215
240 240 240
230 230 230
202 202 202
174 174 174
164 164 164
164 164 164
155 155 155
169 169 169
177 177 177
174 174 174
161 161 161
157 157 157
186 186 186
213 213 213
233 233 233
224 224 224
199 199 199
163 163 163
173 173 173
173 173 173
163 163 163
155 155 155
184 184 184
213 213 213
241 241 241
234 234 234
206 206 206
191 191 191
192 192 192
180 180 180
199 199 199
211 211 211
205 205 205
186 186 186
196 196 196
208 208 208
204 204 204
199 199 199
210 210 210
203 203 203
184 184 184
159 159 159
182 182 182
202 202 202
208 208 208
198 198 198
190 190 190
186 186 186
181 181 181
206 206 206
223 223 223
217 217 217
195 195 195
169 169 169
141 141 141
136 136 136
140 140 140
154 154 154
160 160 160
158 158 158
147 147 147
155 155 155
183 183 183
209 209 209
226 226 226
219 219 219
196 196 196
142 142 142
145 145 145
145 145 145
143 143 143
154 154 154
181 181 181
208 208 208
229 229 229
225 225 225
201 201 201
191 191 191
195 195 195
187 187 187
178 178 178
186 186 186
183 183 183
176 176 176
181 181 181
191 191 191
187 187 187
200 200 200
212 212 212
205 205 205
185 185 185
160 160 160
164 164 164
179 179 179
183 183 183
191 191 191
201 201 201
196 196 196
179 179 179
185 185 185
195 195 195
192 192 192
177 177 177
155 155 155
130 130 130
125 125 125
123 123 123
133 133 133
139 139 139
155 155 155
166 166 166
167 167 167
170 170 170
190 190 190
201 201 201
197 197 197
180 180 180
151 151 151
151 151 151
144 144 144
157 157 157
172 172 172
179 179 179
188 188 188
201 201 201
199 199 199
184 184 184
190 190 190
195 195 195
186 186 186
168 168 168
181 181 181
197 197 197
201 201 201
190 190 190
169 169 169
169 169 169
187 187 187
196 196 196
190 190 190
175 175 175
157 157 157
141 141 141
152 152 152
169 169 169
187 187 187
197 197 197
192 192 192
176 176 176
168 168 168
166 166 166
164 164 164
153 153 153
136 136 136
147 147 147
153 153 153
151 151 151
141 141 141
149 149 149
168 168 168
181 181 181
182 182 182
173 173 173
165 165 165
173 173 173
172 172 172
163 163 163
174 174 174
175 175 175
166 166 166
178 178 178
198 198 198
208 208 208
201 201 201
181 181 181
171 171 171
163 163 163
177 177 177
181 181 181
174 174 174
167 167 167
193 193 193
213 213 213
219 219 219
203 203 203
179 179 179
152 152 152
167 167 167
180 180 180
182 182 182
173 173 173
161 161 161
154 154 154
140 140 140
157 157 157
173 173 173
180 180 180
176 176 176
178 178 178
179 179 179
170 170 170
152 152 152
135 135 135
155 155 155
172 172 172
180 180 180
178 178 178
165 165 165
168 168 168
176 176 176
185 185 185
187 187 187
177 177 177
185 185 185
200 200 200
200 200 200
186 186 186
192 192 192
193 193 193
181 181 181
191 191 191
218 218 218
237 237 237
223 223 223
196 196 196
167 167 167
145 145 145
157 157 157
160 160 160
155 155 155
166 166 166
191 191 191
212 212 212
216 216 216
202 202 202
178 178 178
151 151 151
156 156 156
167 167 167
174 174 174
188 188 188
191 191 191
181 181 181
162 162 162
139 139 139
152 152 152
157 157 157
166 166 166
179 179 179
189 189 189
187 187 187
173 173 173
153 153 153
172 172 172
193 193 193
205 205 205
201 201 201
184 184 184
184 184 184
195 195 195
192 192 192
180 180 180
175 175 175
202 202 202
223 223 223
224 224 224
203 203 203
200 200 200
201 201 201
188 188 188
192 192 192
220 220 220
241 241 241
225 225 225
197 197 197
168 168 168
138 138 138
146 146 146
161 161 161
168 168 168
166 166 166
178 178 178
193 193 193
197 197 197
186 186 186
166 166 166
142 142 142
140 140 140
168 168 168
194 194 194
215 215 215
220 220 220
204 204 204
179 179 179
152 152 152
127 127 127
147 147 147
173 173 173
195 195 195
209 209 209
205 205 205
188 188 188
164 164 164
181 181 181
205 205 205
221 221 221
215 215 215
194 194 194
191 191 191
203 203 203
200 200 200
183 183 183
177 177 177
205 205 205
229 229 229
229 229 229
206 206 206
192 192 192
193 193 193
181 181 181
180 180 180
202 202 202
212 212 212
204 204 204
184 184 184
159 159 159
142 142 142
161 161 161
179 179 179
188 188 188
185 185 185
171 171 171
176 176 176
183 183 183
179 179 179
164 164 164
143 143 143
145 145 145
174 174 174
204 204 204
233 233 233
244 244 244
216 216 216
187 187 187
158 158 158
128 128 128
149 149 149
175 175 175
198 198 198
213 213 213
210 210 210
191 191 191
166 166 166
178 178 178
201 201 201
216 216 216
210 210 210
190 190 190
184 184 184
195 195 195
192 192 192
178 178 178
173 173 173
192 192 192
209 209 209
209 209 209
193 193 193
174 174 174
179 179 179
172 172 172
161 161 161
176 176 176
183 183 183
178 178 178
163 163 163
158 158 158
152 152 152
168 168 168
188 188 188
199 199 199
195 195 195
179 179 179
195 195 195
205 205 205
198 198 198
180 180 180
156 156 156
151 151 151
171 171 171
198 198 198
222 222 222
228 228 228
209 209 209
182 182 182
154 154 154
136 136 136
147 147 147
168 168 168
188 188 188
199 199 199
197 197 197
181 181 181
159 159 159
165 165 165
184 184 184
194 194 194
191 191 191
175 175 175
180 180 180
185 185 185
188 188 188
191 191 191
201 201 201
195 195 195
182 182 182
182 182 182
171 171 171
200 200 200
207 207 207
198 198 198
177 177 177
172 172 172
173 173 173
164 164 164
162 162 162
174 174 174
176 176 176
167 167 167
185 185 185
195 195 195
191 191 191
181 181 181
203 203 203
214 214 214
206 206 206
185 185 185
160 160 160
152 152 152
158 158 158
180 180 180
196 196 196
199 199 199
188 188 188
180 180 180
173 173 173
157 157 157
163 163 163
188 188 188
209 209 209
215 215 215
202 202 202
179 179 179
165 165 165
166 166 166
160 160 160
168 168 168
165 165 165
160 160 160
174 174 174
192 192 192
199 199 199
211 211 211
226 226 226
216 216 216
192 192 192
165 165 165
181 181 181
220 220 220
233 233 233
216 216 216
190 190 190
163 163 163
164 164 164
161 161 161
184 184 184
201 201 201
204 204 204
191 191 191
171 171 171
179 179 179
176 176 176
175 175 175
195 195 195
204 204 204
198 198 198
179 179 179
155 155 155
146 146 146
138 138 138
156 156 156
168 168 168
180 180 180
198 198 198
203 203 203
194 194 194
174 174 174
171 171 171
200 200 200
228 228 228
242 242 242
217 217 217
189 189 189
182 182 182
183 183 183
173 173 173
155 155 155
167 167 167
171 171 171
172 172 172
190 190 190
197 197 197
214 214 214
232 232 232
220 220 220
195 195 195
167 167 167
194 194 194
221 221 221
234 234 234
217 217 217
190 190 190
162 162 162
146 146 146
172 172 172
199 199 199
223 223 223
228 228 228
209 209 209
182 182 182
181 181 181
195 195 195
196 196 196
183 183 183
183 183 183
178 178 178
164 164 164
144 144 144
137 137 137
124 124 124
134 134 134
162 162 162
188 188 188
209 209 209
216 216 216
204 204 204
181 181 181
169 169 169
197 197 197
223 223 223
232 232 232
213 213 213
186 186 186
190 190 190
191 191 191
179 179 179
164 164 164
178 178 178
183 183 183
176 176 176
175 175 175
181 181 181
199 199 199
210 210 210
204 204 204
184 184 184
166 166 166
194 194 194
