P3
50 50
255
108 108 108
110 110 110
107 107 107
109 109 109
128 128 128
143 143 143
150 150 150
150 150 150
142 142 142
127 127 127
115 115 115
135 135 135
151 151 151
161 161 161
161 161 161
164 164 164
182 182 182
191 191 191
187 187 187
172 172 172
155 155 155
155 155 155
183 183 183
209 209 209
228 228 228
221 221 221
197 197 197
179 179 179
201 201 201
212 212 212
205 205 205
185 185 185
160 160 160
159 159 159
150 150 150
134 134 134
114 114 114
117 117 117
133 133 133
144 144 144
147 147 147
151 151 151
156 156 156
152 152 152
141 141 141
128 128 128
131 131 131
128 128 128
118 118 118
103 103 103
136 136 136
139 139 139
134 134 134
125 125 125
147 147 147
165 165 165
175 175 175
174 174 174
164 164 164
146 146 146
130 130 130
137 137 137
153 153 153
162 162 162
163 163 163
180 180 180
204 204 204
218 218 218
212 212 212
191 191 191
171 171 171
157 157 157
186 186 186
214 214 214
237 237 237
228 228 228
201 201 201
187 187 187
213 213 213
229 229 229
218 218 218
194 194 194
189 189 189
188 188 188
175 175 175
155 155 155
143 143 143
135 135 135
144 144 144
157 157 157
161 161 161
156 156 156
159 159 159
155 155 155
143 143 143
152 152 152
157 157 157
153 153 153
141 141 141
126 126 126
163 163 163
167 167 167
161 161 161
147 147 147
161 161 161
181 181 181
194 194 194
194 194 194
180 180 180
160 160 160
157 157 157
157 157 157
147 147 147
155 155 155
159 159 159
187 187 187
215 215 215
236 236 236
225 225 225
199 199 199
178 178 178
159 159 159
177 177 177
200 200 200
214 214 214
209 209 209
190 190 190
183 183 183
206 206 206
219 219 219
211 211 211
199 199 199
217 217 217
215 215 215
196 196 196
172 172 172
172 172 172
162 162 162
149 149 149
162 162 162
166 166 166
161 161 161
153 153 153
166 166 166
171 171 171
173 173 173
179 179 179
174 174 174
159 159 159
151 151 151
188 188 188
194 194 194
185 185 185
167 167 167
166 166 166
188 188 188
203 203 203
202 202 202
187 187 187
172 172 172
182 182 182
181 181 181
169 169 169
150 150 150
155 155 155
182 182 182
207 207 207
222 222 222
215 215 215
193 193 193
175 175 175
165 165 165
171 171 171
177 177 177
186 186 186
183 183 183
169 169 169
168 168 168
186 186 186
195 195 195
189 189 189
211 211 211
239 239 239
236 236 236
208 208 208
200 200 200
200 200 200
186 186 186
164 164 164
157 157 157
162 162 162
157 157 157
172 172 172
190 190 190
198 198 198
191 191 191
195 195 195
188 188 188
171 171 171
172 172 172
208 208 208
216 216 216
204 204 204
181 181 181
162 162 162
183 183 183
196 196 196
195 195 195
182 182 182
188 188 188
202 202 202
201 201 201
186 186 186
163 163 163
143 143 143
167 167 167
186 186 186
195 195 195
191 191 191
175 175 175
171 171 171
190 190 190
199 199 199
194 194 194
176 176 176
158 158 158
150 150 150
147 147 147
161 161 161
167 167 167
178 178 178
205 205 205
226 226 226
224 224 224
205 205 205
227 227 227
226 226 226
204 204 204
176 176 176
160 160 160
171 171 171
172 172 172
186 186 186
209 209 209
221 221 221
210 210 210
198 198 198
191 191 191
173 173 173
187 187 187
214 214 214
223 223 223
209 209 209
185 185 185
157 157 157
167 167 167
177 177 177
181 181 181
174 174 174
194 194 194
210 210 210
208 208 208
191 191 191
167 167 167
143 143 143
145 145 145
160 160 160
167 167 167
164 164 164
158 158 158
186 186 186
211 211 211
226 226 226
216 216 216
192 192 192
165 165 165
151 151 151
133 133 133
144 144 144
160 160 160
169 169 169
186 186 186
199 199 199
198 198 198
209 209 209
235 235 235
234 234 234
208 208 208
179 179 179
182 182 182
197 197 197
199 199 199
188 188 188
213 213 213
226 226 226
214 214 214
195 195 195
181 181 181
166 166 166
191 191 191
201 201 201
207 207 207
197 197 197
179 179 179
182 182 182
182 182 182
201 201 201
207 207 207
197 197 197
187 187 187
200 200 200
199 199 199
184 184 184
177 177 177
169 169 169
152 152 152
132 132 132
143 143 143
149 149 149
161 161 161
190 190 190
217 217 217
236 236 236
223 223 223
196 196 196
168 168 168
145 145 145
130 130 130
147 147 147
164 164 164
173 173 173
171 171 171
170 170 170
172 172 172
196 196 196
213 213 213
213 213 213
195 195 195
171 171 171
197 197 197
218 218 218
221 221 221
203 203 203
198 198 198
207 207 207
224 224 224
216 216 216
194 194 194
167 167 167
182 182 182
178 178 178
182 182 182
187 187 187
206 206 206
211 211 211
198 198 198
217 217 217
227 227 227
212 212 212
187 187 187
179 179 179
184 184 184
201 201 201
204 204 204
192 192 192
171 171 171
145 145 145
148 148 148
155 155 155
154 154 154
181 181 181
203 203 203
215 215 215
207 207 207
186 186 186
167 167 167
166 166 166
156 156 156
165 165 165
184 184 184
192 192 192
188 188 188
172 172 172
155 155 155
174 174 174
185 185 185
185 185 185
173 173 173
188 188 188
208 208 208
222 222 222
225 225 225
205 205 205
185 185 185
212 212 212
231 231 231
222 222 222
197 197 197
170 170 170
164 164 164
152 152 152
172 172 172
201 201 201
228 228 228
239 239 239
215 215 215
214 214 214
223 223 223
209 209 209
185 185 185
171 171 171
198 198 198
220 220 220
226 226 226
207 207 207
181 181 181
159 159 159
156 156 156
153 153 153
151 151 151
163 163 163
179 179 179
187 187 187
182 182 182
182 182 182
194 194 194
194 194 194
180 180 180
180 180 180
203 203 203
216 216 216
210 210 210
189 189 189
163 163 163
148 148 148
157 157 157
157 157 157
169 169 169
198 198 198
225 225 225
237 237 237
217 217 217
192 192 192
176 176 176
199 199 199
211 211 211
206 206 206
187 187 187
162 162 162
141 141 141
143 143 143
171 171 171
200 200 200
226 226 226
236 236 236
214 214 214
195 195 195
200 200 200
191 191 191
172 172 172
170 170 170
197 197 197
220 220 220
225 225 225
209 209 209
191 191 191
173 173 173
170 170 170
157 157 157
153 153 153
159 159 159
156 156 156
158 158 158
175 175 175
201 201 201
219 219 219
218 218 218
198 198 198
185 185 185
210 210 210
227 227 227
218 218 218
194 194 194
167 167 167
139 139 139
128 128 128
138 138 138
166 166 166
193 193 193
217 217 217
226 226 226
211 211 211
185 185 185
159 159 159
176 176 176
184 184 184
181 181 181
167 167 167
147 147 147
146 146 146
164 164 164
165 165 165
185 185 185
203 203 203
208 208 208
196 196 196
201 201 201
213 213 213
206 206 206
185 185 185
160 160 160
183 183 183
210 210 210
235 235 235
231 231 231
205 205 205
178 178 178
174 174 174
161 161 161
170 170 170
177 177 177
174 174 174
179 179 179
180 180 180
207 207 207
230 230 230
228 228 228
205 205 205
178 178 178
200 200 200
212 212 212
206 206 206
186 186 186
161 161 161
134 134 134
119 119 119
128 128 128
154 154 154
177 177 177
194 194 194
199 199 199
190 190 190
171 171 171
147 147 147
150 150 150
156 156 156
153 153 153
149 149 149
164 164 164
170 170 170
188 188 188
189 189 189
179 179 179
176 176 176
179 179 179
187 187 187
213 213 213
229 229 229
218 218 218
194 194 194
166 166 166
181 181 181
208 208 208
231 231 231
228 228 228
203 203 203
175 175 175
168 168 168
166 166 166
181 181 181
188 188 188
184 184 184
199 199 199
200 200 200
197 197 197
213 213 213
212 212 212
195 195 195
170 170 170
178 178 178
187 187 187
183 183 183
168 168 168
162 162 162
155 155 155
141 141 141
144 144 144
154 154 154
156 156 156
167 167 167
171 171 171
164 164 164
150 150 150
130 130 130
122 122 122
127 127 127
142 142 142
165 165 165
182 182 182
191 191 191
205 205 205
207 207 207
193 193 193
171 171 171
156 156 156
182 182 182
205 205 205
218 218 218
210 210 210
189 189 189
162 162 162
169 169 169
191 191 191
205 205 205
203 203 203
187 187 187
164 164 164
160 160 160
185 185 185
206 206 206
214 214 214
203 203 203
208 208 208
209 209 209
194 194 194
187 187 187
187 187 187
174 174 174
163 163 163
153 153 153
159 159 159
169 169 169
183 183 183
185 185 185
176 176 176
158 158 158
168 168 168
181 181 181
184 184 184
175 175 175
162 162 162
165 165 165
159 159 159
145 145 145
130 130 130
129 129 129
148 148 148
172 172 172
192 192 192
202 202 202
207 207 207
210 210 210
195 195 195
173 173 173
146 146 146
167 167 167
185 185 185
194 194 194
188 188 188
172 172 172
150 150 150
149 149 149
167 167 167
176 176 176
175 175 175
164 164 164
151 151 151
167 167 167
195 195 195
221 221 221
234 234 234
217 217 217
199 199 199
200 200 200
187 187 187
166 166 166
174 174 174
176 176 176
174 174 174
162 162 162
159 159 159
182 182 182
198 198 198
202 202 202
190 190 190
169 169 169
188 188 188
206 206 206
210 210 210
197 197 197
186 186 186
191 191 191
182 182 182
168 168 168
151 151 151
137 137 137
154 154 154
169 169 169
188 188 188
198 198 198
194 194 194
196 196 196
184 184 184
164 164 164
140 140 140
146 146 146
160 160 160
166 166 166
162 162 162
150 150 150
132 132 132
129 129 129
149 149 149
163 163 163
169 169 169
165 165 165
152 152 152
164 164 164
191 191 191
215 215 215
225 225 225
211 211 211
186 186 186
180 180 180
170 170 170
166 166 166
172 172 172
181 181 181
179 179 179
167 167 167
161 161 161
184 184 184
201 201 201
204 204 204
192 192 192
171 171 171
199 199 199
223 223 223
229 229 229
210 210 210
204 204 204
211 211 211
200 200 200
187 187 187
166 166 166
156 156 156
172 172 172
179 179 179
175 175 175
181 181 181
171 171 171
173 173 173
164 164 164
148 148 148
127 127 127
122 122 122
133 133 133
137 137 137
135 135 135
125 125 125
119 119 119
145 145 145
168 168 168
186 186 186
194 194 194
189 189 189
172 172 172
152 152 152
175 175 175
193 193 193
199 199 199
190 190 190
171 171 171
181 181 181
195 195 195
195 195 195
182 182 182
176 176 176
174 174 174
162 162 162
153 153 153
174 174 174
188 188 188
191 191 191
181 181 181
168 168 168
195 195 195
216 216 216
222 222 222
205 205 205
209 209 209
216 216 216
212 212 212
197 197 197
174 174 174
177 177 177
198 198 198
208 208 208
202 202 202
183 183 183
164 164 164
168 168 168
163 163 163
149 149 149
130 130 130
107 107 107
105 105 105
120 120 120
132 132 132
138 138 138
136 136 136
154 154 154
180 180 180
202 202 202
213 213 213
205 205 205
185 185 185
160 160 160
153 153 153
166 166 166
170 170 170
164 164 164
175 175 175
201 201 201
220 220 220
221 221 221
201 201 201
175 175 175
175 175 175
171 171 171
158 158 158
156 156 156
167 167 167
169 169 169
170 170 170
164 164 164
179 179 179
194 194 194
198 198 198
222 222 222
230 230 230
211 211 211
207 207 207
193 193 193
171 171 171
190 190 190
217 217 217
237 237 237
224 224 224
197 197 197
185 185 185
191 191 191
184 184 184
166 166 166
144 144 144
119 119 119
122 122 122
142 142 142
157 157 157
165 165 165
163 163 163
155 155 155
181 181 181
204 204 204
215 215 215
208 208 208
187 187 187
161 161 161
160 160 160
152 152 152
142 142 142
150 150 150
179 179 179
207 207 207
233 233 233
233 233 233
208 208 208
180 180 180
176 176 176
172 172 172
159 159 159
149 149 149
172 172 172
189 189 189
195 195 195
187 187 187
170 170 170
173 173 173
202 202 202
231 231 231
245 245 245
217 217 217
188 188 188
177 177 177
161 161 161
190 190 190
219 219 219
241 241 241
226 226 226
198 198 198
199 199 199
206 206 206
196 196 196
176 176 176
152 152 152
125 125 125
138 138 138
161 161 161
180 180 180
190 190 190
187 187 187
173 173 173
171 171 171
190 190 190
199 199 199
193 193 193
176 176 176
185 185 185
186 186 186
175 175 175
156 156 156
145 145 145
172 172 172
197 197 197
216 216 216
216 216 216
198 198 198
173 173 173
167 167 167
163 163 163
151 151 151
159 159 159
185 185 185
206 206 206
214 214 214
204 204 204
182 182 182
166 166 166
192 192 192
212 212 212
218 218 218
203 203 203
179 179 179
155 155 155
153 153 153
179 179 179
201 201 201
212 212 212
205 205 205
185 185 185
198 198 198
205 205 205
196 196 196
176 176 176
151 151 151
125 125 125
147 147 147
173 173 173
195 195 195
209 209 209
205 205 205
188 188 188
164 164 164
174 174 174
179 179 179
174 174 174
190 190 190
206 206 206
207 207 207
192 192 192
169 169 169
154 154 154
157 157 157
177 177 177
189 189 189
189 189 189
177 177 177
157 157 157
150 150 150
147 147 147
136 136 136
160 160 160
186 186 186
208 208 208
217 217 217
206 206 206
183 183 183
157 157 157
171 171 171
186 186 186
189 189 189
180 180 180
162 162 162
139 139 139
138 138 138
159 159 159
176 176 176
185 185 185
186 186 186
187 187 187
184 184 184
189 189 189
182 182 182
165 165 165
143 143 143
124 124 124
149 149 149
176 176 176
199 199 199
213 213 213
210 210 210
191 191 191
166 166 166
177 177 177
182 182 182
177 177 177
196 196 196
214 214 214
215 215 215
198 198 198
173 173 173
175 175 175
174 174 174
163 163 163
161 161 161
161 161 161
156 156 156
153 153 153
142 142 142
125 125 125
126 126 126
152 152 152
176 176 176
193 193 193
200 200 200
192 192 192
173 173 173
163 163 163
179 179 179
184 184 184
178 178 178
162 162 162
148 148 148
143 143 143
142 142 142
169 169 169
194 194 194
212 212 212
214 214 214
197 197 197
162 162 162
166 166 166
160 160 160
155 155 155
152 152 152
140 140 140
143 143 143
167 167 167
188 188 188
199 199 199
197 197 197
181 181 181
159 159 159
169 169 169
174 174 174
169 169 169
187 187 187
203 203 203
204 204 204
189 189 189
179 179 179
191 191 191
190 190 190
177 177 177
160 160 160
176 176 176
184 184 184
180 180 180
166 166 166
145 145 145
126 126 126
137 137 137
157 157 157
171 171 171
182 182 182
184 184 184
175 175 175
171 171 171
188 188 188
195 195 195
188 188 188
170 170 170
164 164 164
159 159 159
148 148 148
176 176 176
205 205 205
230 230 230
234 234 234
210 210 210
137 137 137
149 149 149
162 162 162
168 168 168
164 164 164
151 151 151
145 145 145
172 172 172
197 197 197
216 216 216
217 217 217
199 199 199
174 174 174
177 177 177
169 169 169
153 153 153
169 169 169
181 181 181
192 192 192
193 193 193
183 183 183
195 195 195
194 194 194
180 180 180
177 177 177
199 199 199
210 210 210
204 204 204
185 185 185
160 160 160
142 142 142
139 139 139
160 160 160
183 183 183
199 199 199
201 201 201
189 189 189
169 169 169
186 186 186
192 192 192
185 185 185
168 168 168
172 172 172
166 166 166
154 154 154
173 173 173
200 200 200
222 222 222
224 224 224
204 204 204
131 131 131
151 151 151
165 165 165
171 171 171
167 167 167
154 154 154
149 149 149
178 178 178
206 206 206
230 230 230
231 231 231
207 207 207
179 179 179
182 182 182
174 174 174
157 157 157
157 157 157
177 177 177
191 191 191
191 191 191
180 180 180
185 185 185
184 184 184
172 172 172
186 186 186
212 212 212
228 228 228
219 219 219
194 194 194
167 167 167
153 153 153
160 160 160
177 177 177
186 186 186
202 202 202
205 205 205
192 192 192
171 171 171
172 172 172
177 177 177
172 172 172
182 182 182
194 194 194
193 193 193
179 179 179
161 161 161
183 183 183
197 197 197
198 198 198
186 186 186
127 127 127
146 146 146
159 159 159
164 164 164
160 160 160
148 148 148
145 145 145
173 173 173
198 198 198
217 217 217
217 217 217
199 199 199
174 174 174
176 176 176
176 176 176
174 174 174
174 174 174
166 166 166
177 177 177
178 178 178
168 168 168
166 166 166
165 165 165
156 156 156
183 183 183
207 207 207
221 221 221
213 213 213
191 191 191
164 164 164
156 156 156
178 178 178
201 201 201
215 215 215
209 209 209
193 193 193
184 184 184
181 181 181
168 168 168
173 173 173
177 177 177
203 203 203
222 222 222
220 220 220
199 199 199
173 173 173
159 159 159
169 169 169
170 170 170
161 161 161
139 139 139
158 158 158
171 171 171
175 175 175
168 168 168
153 153 153
146 146 146
161 161 161
178 178 178
191 191 191
192 192 192
179 179 179
166 166 166
177 177 177
178 178 178
186 186 186
185 185 185
173 173 173
156 156 156
157 157 157
171 171 171
177 177 177
173 173 173
159 159 159
169 169 169
188 188 188
197 197 197
192 192 192
175 175 175
153 153 153
159 159 159
188 188 188
217 217 217
242 242 242
230 230 230
201 201 201
211 211 211
206 206 206
187 187 187
168 168 168
183 183 183
213 213 213
241 241 241
237 237 237
208 208 208
178 178 178
149 149 149
141 141 141
141 141 141
135 135 135
148 148 148
169 169 169
184 184 184
188 188 188
180 180 180
163 163 163
166 166 166
187 187 187
198 198 198
196 196 196
181 181 181
160 160 160
164 164 164
168 168 168
175 175 175
186 186 186
186 186 186
173 173 173
154 154 154
161 161 161
177 177 177
184 184 184
179 179 179
173 173 173
181 181 181
179 179 179
170 170 170
166 166 166
154 154 154
135 135 135
157 157 157
185 185 185
213 213 213
232 232 232
224 224 224
211 211 211
230 230 230
222 222 222
198 198 198
170 170 170
178 178 178
203 203 203
223 223 223
220 220 220
199 199 199
173 173 173
155 155 155
160 160 160
155 155 155
143 143 143
149 149 149
170 170 170
186 186 186
190 190 190
182 182 182
164 164 164
181 181 181
207 207 207
227 227 227
222 222 222
199 199 199
179 179 179
169 169 169
155 155 155
165 165 165
175 175 175
174 174 174
163 163 163
145 145 145
157 157 157
172 172 172
179 179 179
174 174 174
183 183 183
194 194 194
190 190 190
175 175 175
154 154 154
141 141 141
137 137 137
147 147 147
172 172 172
193 193 193
204 204 204
200 200 200
206 206 206
222 222 222
216 216 216
194 194 194
168 168 168
162 162 162
182 182 182
194 194 194
193 193 193
179 179 179
166 166 166
182 182 182
188 188 188
182 182 182
166 166 166
142 142 142
162 162 162
175 175 175
179 179 179
172 172 172
156 156 156
185 185 185
214 214 214
242 242 242
234 234 234
205 205 205
191 191 191
178 178 178
158 158 158
148 148 148
155 155 155
155 155 155
146 146 146
131 131 131
145 145 145
158 158 158
164 164 164
164 164 164
183 183 183
193 193 193
190 190 190
175 175 175
157 157 157
161 161 161
157 157 157
172 172 172
180 180 180
177 177 177
175 175 175
172 172 172
187 187 187
198 198 198
194 194 194
178 178 178
156 156 156
141 141 141
157 157 157
165 165 165
165 165 165
171 171 171
184 184 184
205 205 205
215 215 215
205 205 205
183 183 183
145 145 145
159 159 159
167 167 167
164 164 164
154 154 154
150 150 150
178 178 178
202 202 202
219 219 219
215 215 215
195 195 195
190 190 190
177 177 177
163 163 163
172 172 172
171 171 171
160 160 160
142 142 142
120 120 120
127 127 127
139 139 139
143 143 143
154 154 154
171 171 171
179 179 179
177 177 177
164 164 164
171 171 171
176 176 176
176 176 176
198 198 198
209 209 209
204 204 204
185 185 185
161 161 161
163 163 163
170 170 170
168 168 168
156 156 156
138 138 138
132 132 132
150 150 150
162 162 162
178 178 178
198 198 198
206 206 206
218 218 218
233 233 233
218 218 218
192 192 192
159 159 159
176 176 176
185 185 185
182 182 182
169 169 169
148 148 148
161 161 161
180 180 180
190 190 190
188 188 188
176 176 176
176 176 176
166 166 166
180 180 180
191 191 191
189 189 189
176 176 176
155 155 155
141 141 141
143 143 143
137 137 137
125 125 125
143 143 143
165 165 165
182 182 182
189 189 189
183 183 183
176 176 176
181 181 181
188 188 188
216 216 216
238 238 238
226 226 226
199 199 199
170 170 170
143 143 143
142 142 142
140 140 140
131 131 131
120 120 120
142 142 142
162 162 162
175 175 175
192 192 192
219 219 219
236 236 236
220 220 220
222 222 222
210 210 210
187 187 187
165 165 165
184 184 184
194 194 194
191 191 191
176 176 176
154 154 154
165 165 165
173 173 173
171 171 171
160 160 160
156 156 156
156 156 156
166 166 166
187 187 187
199 199 199
197 197 197
182 182 182
160 160 160
164 164 164
166 166 166
159 159 159
152 152 152
158 158 158
184 184 184
206 206 206
217 217 217
208 208 208
186 186 186
175 175 175
188 188 188
216 216 216
239 239 239
227 227 227
199 199 199
171 171 171
143 143 143
149 149 149
146 146 146
136 136 136
148 148 148
154 154 154
165 165 165
179 179 179
194 194 194
223 223 223
244 244 244
224 224 224
196 196 196
189 189 189
171 171 171
162 162 162
180 180 180
189 189 189
186 186 186
172 172 172
169 169 169
190 190 190
202 202 202
199 199 199
183 183 183
160 160 160
138 138 138
162 162 162
182 182 182
193 193 193
192 192 192
178 178 178
169 169 169
183 183 183
186 186 186
182 182 182
178 178 178
164 164 164
193 193 193
221 221 221
242 242 242
224 224 224
195 195 195
167 167 167
176 176 176
198 198 198
210 210 210
205 205 205
186 186 186
161 161 161
170 170 170
178 178 178
175 175 175
162 162 162
175 175 175
183 183 183
180 180 180
172 172 172
183 183 183
204 204 204
214 214 214
205 205 205
184 184 184
163 163 163
150 150 150
150 150 150
166 166 166
173 173 173
171 171 171
159 159 159
182 182 182
210 210 210
230 230 230
225 225 225
200 200 200
173 173 173
144 144 144
150 150 150
167 167 167
176 176 176
174 174 174
169 169 169
177 177 177
192 192 192
196 196 196
206 206 206
201 201 201
189 189 189
189 189 189
214 214 214
228 228 228
216 216 216
191 191 191
164 164 164
171 171 171
181 181 181
181 181 181
177 177 177
164 164 164
174 174 174
195 195 195
207 207 207
201 201 201
183 183 183
199 199 199
211 211 211
206 206 206
187 187 187
163 163 163
179 179 179
185 185 185
179 179 179
164 164 164
142 142 142
139 139 139
153 153 153
150 150 150
151 151 151
149 149 149
156 156 156
185 185 185
215 215 215
242 242 242
233 233 233
204 204 204
175 175 175
146 146 146
131 131 131
145 145 145
166 166 166
186 186 186
196 196 196
193 193 193
189 189 189
207 207 207
222 222 222
214 214 214
214 214 214
206 206 206
192 192 192
200 200 200
193 193 193
180 180 180
164 164 164
170 170 170
181 181 181
180 180 180
169 169 169
158 158 158
187 187 187
214 214 214
233 233 233
224 224 224
198 198 198
214 214 214
236 236 236
226 226 226
199 199 199
171 171 171
151 151 151
155 155 155
151 151 151
157 157 157
165 165 165
165 165 165
178 178 178
174 174 174
161 161 161
144 144 144
150 150 150
177 177 177
201 201 201
216 216 216
212 212 212
193 193 193
167 167 167
150 150 150
138 138 138
152 152 152
180 180 180
204 204 204
221 221 221
216 216 216
195 195 195
202 202 202
215 215 215
214 214 214
228 228 228
216 216 216
191 191 191
203 203 203
212 212 212
202 202 202
181 181 181
160 160 160
169 169 169
169 169 169
159 159 159
159 159 159
187 187 187
215 215 215
236 236 236
225 225 225
199 199 199
212 212 212
231 231 231
222 222 222
197 197 197
170 170 170
141 141 141
134 134 134
158 158 158
177 177 177
188 188 188
187 187 187
200 200 200
194 194 194
177 177 177
154 154 154
136 136 136
159 159 159
177 177 177
187 187 187
186 186 186
193 193 193
187 187 187
170 170 170
147 147 147
155 155 155
183 183 183
210 210 210
230 230 230
223 223 223
199 199 199
184 184 184
193 193 193
205 205 205
216 216 216
207 207 207
190 190 190
215 215 215
226 226 226
213 213 213
188 188 188
161 161 161
152 152 152
167 167 167
174 174 174
171 171 171
176 176 176
198 198 198
210 210 210
205 205 205
186 186 186
193 193 193
204 204 204
200 200 200
182 182 182
159 159 159
142 142 142
142 142 142
168 168 168
190 190 190
204 204 204
203 203 203
211 211 211
204 204 204
185 185 185
160 160 160
135 135 135
137 137 137
156 156 156
181 181 181
202 202 202
211 211 211
203 203 203
182 182 182
157 157 157
149 149 149
175 175 175
198 198 198
212 212 212
208 208 208
189 189 189
166 166 166
167 167 167
184 184 184
191 191 191
185 185 185
185 185 185
206 206 206
216 216 216
205 205 205
183 183 183
157 157 157
165 165 165
183 183 183
192 192 192
188 188 188
173 173 173
174 174 174
182 182 182
178 178 178
167 167 167
178 178 178
178 178 178
173 173 173
172 172 172
171 171 171
161 161 161
143 143 143
168 168 168
191 191 191
205 205 205
204 204 204
204 204 204
198 198 198
180 180 180
157 157 157
130 130 130
129 129 129
157 157 157
182 182 182
204 204 204
214 214 214
205 205 205
184 184 184
170 170 170
152 152 152
158 158 158
176 176 176
185 185 185
183 183 183
177 177 177
175 175 175
162 162 162
158 158 158
163 163 163
159 159 159
169 169 169
186 186 186
192 192 192
185 185 185
167 167 167
175 175 175
176 176 176
190 190 190
200 200 200
195 195 195
178 178 178
155 155 155
153 153 153
164 164 164
187 187 187
202 202 202
202 202 202
188 188 188
186 186 186
185 185 185
173 173 173
153 153 153
159 159 159
179 179 179
191 191 191
194 194 194
184 184 184
180 180 180
166 166 166
145 145 145
142 142 142
146 146 146
149 149 149
173 173 173
191 191 191
198 198 198
192 192 192
193 193 193
181 181 181
161 161 161
136 136 136
152 152 152
170 170 170
180 180 180
180 180 180
173 173 173
161 161 161
142 142 142
135 135 135
131 131 131
147 147 147
160 160 160
164 164 164
161 161 161
184 184 184
200 200 200
202 202 202
189 189 189
192 192 192
188 188 188
173 173 173
151 151 151
157 157 157
172 172 172
198 198 198
216 216 216
217 217 217
199 199 199
188 188 188
187 187 187
175 175 175
155 155 155
143 143 143
159 159 159
168 168 168
177 177 177
159 159 159
156 156 156
145 145 145
155 155 155
169 169 169
175 175 175
169 169 169
155 155 155
169 169 169
179 179 179
192 192 192
193 193 193
181 181 181
161 161 161
136 136 136
161 161 161
181 181 181
194 194 194
193 193 193
180 180 180
159 159 159
146 146 146
148 148 148
143 143 143
131 131 131
133 133 133
143 143 143
170 170 170
196 196 196
217 217 217
220 220 220
203 203 203
178 178 178
171 171 171
159 159 159
176 176 176
185 185 185
182 182 182
194 194 194
212 212 212
212 212 212
196 196 196
179 179 179
178 178 178
178 178 178
169 169 169
152 152 152
161 161 161
162 162 162
154 154 154
144 144 144
144 144 144
152 152 152
176 176 176
195 195 195
203 203 203
195 195 195
176 176 176
152 152 152
168 168 168
179 179 179
180 180 180
170 170 170
152 152 152
147 147 147
161 161 161
182 182 182
194 194 194
194 194 194
180 180 180
159 159 159
163 163 163
166 166 166
160 160 160
145 145 145
126 126 126
142 142 142
170 170 170
195 195 195
215 215 215
219 219 219
202 202 202
191 191 191
180 180 180
176 176 176
198 198 198
211 211 211
206 206 206
187 187 187
192 192 192
192 192 192
180 180 180
179 179 179
194 194 194
196 196 196
184 184 184
166 166 166
176 176 176
177 177 177
167 167 167
165 165 165
166 166 166
163 163 163
190 190 190
215 215 215
228 228 228
215 215 215
190 190 190
162 162 162
150 150 150
159 159 159
167 167 167
176 176 176
173 173 173
161 161 161
166 166 166
171 171 171
182 182 182
181 181 181
170 170 170
160 160 160
173 173 173
176 176 176
169 169 169
154 154 154
137 137 137
134 134 134
159 159 159
181 181 181
196 196 196
199 199 199
204 204 204
207 207 207
193 193 193
184 184 184
210 210 210
228 228 228
220 220 220
197 197 197
169 169 169
167 167 167
161 161 161
184 184 184
200 200 200
202 202 202
189 189 189
170 170 170
182 182 182
183 183 183
172 172 172
181 181 181
182 182 182
171 171 171
192 192 192
218 218 218
233 233 233
218 218 218
191 191 191
163 163 163
175 175 175
182 182 182
192 192 192
204 204 204
200 200 200
183 183 183
165 165 165
167 167 167
161 161 161
161 161 161
156 156 156
159 159 159
173 173 173
186 186 186
188 188 188
178 178 178
159 159 159
136 136 136
142 142 142
160 160 160
171 171 171
187 187 187
204 204 204
206 206 206
192 192 192
180 180 180
204 204 204
219 219 219
213 213 213
192 192 192
166 166 166
155 155 155
172 172 172
181 181 181
191 191 191
193 193 193
182 182 182
165 165 165
176 176 176
177 177 177
169 169 169
187 187 187
188 188 188
177 177 177
181 181 181
201 201 201
210 210 210
201 201 201
181 181 181
174 174 174
194 194 194
204 204 204
209 209 209
228 228 228
222 222 222
198 198 198
171 171 171
157 157 157
152 152 152
156 156 156
152 152 152
168 168 168
194 194 194
213 213 213
216 216 216
201 201 201
176 176 176
149 149 149
121 121 121
135 135 135
155 155 155
175 175 175
189 189 189
190 190 190
180 180 180
166 166 166
185 185 185
195 195 195
191 191 191
176 176 176
165 165 165
162 162 162
177 177 177
187 187 187
184 184 184
173 173 173
165 165 165
152 152 152
161 161 161
162 162 162
174 174 174
181 181 181
181 181 181
171 171 171
179 179 179
193 193 193
195 195 195
189 189 189
177 177 177
180 180 180
203 203 203
215 215 215
211 211 211
232 232 232
225 225 225
200 200 200
172 172 172
143 143 143
140 140 140
144 144 144
146 146 146
176 176 176
205 205 205
233 233 233
240 240 240
214 214 214
185 185 185
155 155 155
126 126 126
124 124 124
139 139 139
156 156 156
166 166 166
167 167 167
159 159 159
150 150 150
161 161 161
168 168 168
165 165 165
165 165 165
163 163 163
176 176 176
193 193 193
199 199 199
191 191 191
172 172 172
148 148 148
133 133 133
140 140 140
150 150 150
169 169 169
164 164 164
165 165 165
167 167 167
191 191 191
209 209 209
211 211 211
206 206 206
206 206 206
191 191 191
196 196 196
206 206 206
200 200 200
209 209 209
205 205 205
187 187 187
163 163 163
143 143 143
135 135 135
126 126 126
144 144 144
173 173 173
200 200 200
223 223 223
228 228 228
208 208 208
181 181 181
153 153 153
141 141 141
153 153 153
156 156 156
151 151 151
140 140 140
141 141 141
151 151 151
155 155 155
151 151 151
147 147 147
148 148 148
154 154 154
156 156 156
180 180 180
199 199 199
206 206 206
196 196 196
176 176 176
159 159 159
139 139 139
117 117 117
138 138 138
155 155 155
143 143 143
143 143 143
167 167 167
192 192 192
210 210 210
212 212 212
232 232 232
232 232 232
207 207 207
179 179 179
185 185 185
181 181 181
181 181 181
179 179 179
166 166 166
163 163 163
162 162 162
152 152 152
136 136 136
134 134 134
160 160 160
182 182 182
198 198 198
200 200 200
188 188 188
167 167 167
152 152 152
166 166 166
181 181 181
186 186 186
179 179 179
162 162 162
163 163 163
179 179 179
184 184 184
178 178 178
170 170 170
161 161 161
145 145 145
151 151 151
174 174 174
191 191 191
197 197 197
190 190 190
184 184 184
167 167 167
145 145 145
130 130 130
141 141 141
145 145 145
147 147 147
150 150 150
158 158 158
180 180 180
194 194 194
208 208 208
234 234 234
235 235 235
209 209 209
180 180 180
159 159 159
156 156 156
153 153 153
151 151 151
166 166 166
176 176 176
175 175 175
164 164 164
146 146 146
135 135 135
146 146 146
159 159 159
170 170 170
172 172 172
172 172 172
170 170 170
167 167 167
186 186 186
207 207 207
215 215 215
204 204 204
182 182 182
183 183 183
204 204 204
212 212 212
203 203 203
189 189 189
178 178 178
158 158 158
139 139 139
158 158 158
172 172 172
182 182 182
188 188 188
182 182 182
165 165 165
144 144 144
146 146 146
159 159 159
163 163 163
147 147 147
150 150 150
146 146 146
159 159 159
170 170 170
193 193 193
209 209 209
210 210 210
193 193 193
170 170 170
145 145 145
132 132 132
142 142 142
151 151 151
169 169 169
179 179 179
178 178 178
166 166 166
159 159 159
148 148 148
150 150 150
153 153 153
169 169 169
190 190 190
201 201 201
197 197 197
181 181 181
197 197 197
226 226 226
244 244 244
221 221 221
192 192 192
194 194 194
221 221 221
237 237 237
219 219 219
197 197 197
185 185 185
164 164 164
139 139 139
137 137 137
155 155 155
169 169 169
174 174 174
169 169 169
155 155 155
136 136 136
156 156 156
170 170 170
176 176 176
