P3
50 50
255
130 130 130
145 145 145
153 153 153
153 153 153
145 145 145
173 173 173
202 202 202
228 228 228
235 235 235
212 212 212
184 184 184
155 155 155
155 155 155
172 172 172
191 191 191
201 201 201
195 195 195
178 178 178
155 155 155
129 129 129
116 116 116
128 128 128
147 147 147
160 160 160
165 165 165
161 161 161
148 148 148
158 158 158
161 161 161
155 155 155
154 154 154
148 148 148
149 149 149
164 164 164
171 171 171
167 167 167
155 155 155
136 136 136
151 151 151
176 176 176
195 195 195
203 203 203
196 196 196
177 177 177
153 153 153
127 127 127
123 123 123
121 121 121
112 112 112
111 111 111
149 149 149
167 167 167
178 178 178
178 178 178
168 168 168
174 174 174
203 203 203
231 231 231
239 239 239
214 214 214
185 185 185
156 156 156
157 157 157
167 167 167
186 186 186
194 194 194
189 189 189
173 173 173
151 151 151
134 134 134
127 127 127
144 144 144
166 166 166
182 182 182
189 189 189
184 184 184
170 170 170
185 185 185
190 190 190
182 182 182
175 175 175
168 168 168
169 169 169
188 188 188
198 198 198
193 193 193
176 176 176
154 154 154
162 162 162
190 190 190
217 217 217
232 232 232
218 218 218
193 193 193
165 165 165
145 145 145
150 150 150
147 147 147
136 136 136
127 127 127
163 163 163
184 184 184
198 198 198
198 198 198
185 185 185
165 165 165
190 190 190
208 208 208
212 212 212
198 198 198
175 175 175
148 148 148
150 150 150
159 159 159
169 169 169
176 176 176
172 172 172
159 159 159
140 140 140
139 139 139
132 132 132
153 153 153
178 178 178
198 198 198
207 207 207
199 199 199
189 189 189
211 211 211
218 218 218
205 205 205
189 189 189
181 181 181
182 182 182
206 206 206
221 221 221
213 213 213
191 191 191
165 165 165
164 164 164
194 194 194
222 222 222
244 244 244
224 224 224
196 196 196
167 167 167
168 168 168
174 174 174
170 170 170
157 157 157
138 138 138
168 168 168
191 191 191
207 207 207
208 208 208
192 192 192
169 169 169
173 173 173
183 183 183
183 183 183
174 174 174
156 156 156
138 138 138
146 146 146
148 148 148
147 147 147
153 153 153
150 150 150
139 139 139
137 137 137
137 137 137
130 130 130
154 154 154
179 179 179
200 200 200
209 209 209
201 201 201
198 198 198
226 226 226
241 241 241
218 218 218
192 192 192
183 183 183
185 185 185
210 210 210
226 226 226
217 217 217
194 194 194
166 166 166
157 157 157
183 183 183
206 206 206
216 216 216
207 207 207
185 185 185
168 168 168
186 186 186
195 195 195
189 189 189
173 173 173
150 150 150
163 163 163
185 185 185
199 199 199
200 200 200
186 186 186
185 185 185
195 195 195
191 191 191
175 175 175
155 155 155
138 138 138
128 128 128
137 137 137
138 138 138
132 132 132
127 127 127
124 124 124
138 138 138
145 145 145
144 144 144
151 151 151
151 151 151
170 170 170
188 188 188
195 195 195
189 189 189
193 193 193
217 217 217
226 226 226
211 211 211
185 185 185
174 174 174
175 175 175
196 196 196
207 207 207
201 201 201
183 183 183
159 159 159
143 143 143
164 164 164
181 181 181
187 187 187
181 181 181
166 166 166
175 175 175
195 195 195
205 205 205
198 198 198
180 180 180
156 156 156
150 150 150
169 169 169
180 180 180
184 184 184
192 192 192
199 199 199
211 211 211
206 206 206
187 187 187
162 162 162
140 140 140
120 120 120
122 122 122
130 130 130
130 130 130
124 124 124
133 133 133
148 148 148
155 155 155
168 168 168
179 179 179
180 180 180
169 169 169
167 167 167
172 172 172
168 168 168
176 176 176
193 193 193
198 198 198
189 189 189
170 170 170
156 156 156
157 157 157
174 174 174
181 181 181
177 177 177
164 164 164
143 143 143
123 123 123
141 141 141
153 153 153
158 158 158
166 166 166
181 181 181
186 186 186
190 190 190
198 198 198
193 193 193
176 176 176
153 153 153
132 132 132
153 153 153
179 179 179
202 202 202
214 214 214
207 207 207
211 211 211
205 205 205
189 189 189
178 178 178
159 159 159
135 135 135
147 147 147
157 157 157
158 158 158
150 150 150
145 145 145
160 160 160
168 168 168
191 191 191
208 208 208
209 209 209
193 193 193
170 170 170
161 161 161
159 159 159
156 156 156
167 167 167
169 169 169
163 163 163
158 158 158
157 157 157
148 148 148
148 148 148
153 153 153
150 150 150
143 143 143
140 140 140
131 131 131
116 116 116
130 130 130
156 156 156
180 180 180
199 199 199
206 206 206
197 197 197
209 209 209
205 205 205
186 186 186
162 162 162
147 147 147
157 157 157
182 182 182
206 206 206
220 220 220
212 212 212
194 194 194
207 207 207
209 209 209
194 194 194
171 171 171
150 150 150
169 169 169
181 181 181
183 183 183
173 173 173
154 154 154
167 167 167
178 178 178
207 207 207
233 233 233
234 234 234
209 209 209
181 181 181
159 159 159
165 165 165
162 162 162
161 161 161
162 162 162
155 155 155
152 152 152
151 151 151
142 142 142
128 128 128
149 149 149
164 164 164
171 171 171
168 168 168
155 155 155
137 137 137
132 132 132
159 159 159
184 184 184
204 204 204
211 211 211
203 203 203
218 218 218
212 212 212
191 191 191
166 166 166
162 162 162
174 174 174
176 176 176
194 194 194
205 205 205
199 199 199
194 194 194
213 213 213
214 214 214
198 198 198
174 174 174
163 163 163
186 186 186
201 201 201
203 203 203
190 190 190
168 168 168
164 164 164
178 178 178
207 207 207
232 232 232
234 234 234
209 209 209
180 180 180
181 181 181
190 190 190
186 186 186
171 171 171
150 150 150
142 142 142
139 139 139
138 138 138
130 130 130
144 144 144
168 168 168
188 188 188
197 197 197
193 193 193
177 177 177
162 162 162
153 153 153
153 153 153
176 176 176
193 193 193
199 199 199
194 194 194
205 205 205
201 201 201
184 184 184
160 160 160
169 169 169
182 182 182
184 184 184
175 175 175
180 180 180
176 176 176
184 184 184
199 199 199
201 201 201
188 188 188
166 166 166
167 167 167
192 192 192
209 209 209
211 211 211
196 196 196
173 173 173
153 153 153
167 167 167
191 191 191
207 207 207
208 208 208
192 192 192
176 176 176
197 197 197
209 209 209
203 203 203
185 185 185
160 160 160
134 134 134
124 124 124
132 132 132
133 133 133
154 154 154
181 181 181
205 205 205
220 220 220
213 213 213
191 191 191
183 183 183
172 172 172
152 152 152
159 159 159
172 172 172
177 177 177
174 174 174
182 182 182
179 179 179
166 166 166
176 176 176
166 166 166
179 179 179
181 181 181
181 181 181
177 177 177
164 164 164
165 165 165
177 177 177
178 178 178
168 168 168
151 151 151
172 172 172
193 193 193
205 205 205
201 201 201
188 188 188
167 167 167
142 142 142
149 149 149
168 168 168
179 179 179
179 179 179
169 169 169
181 181 181
200 200 200
213 213 213
207 207 207
187 187 187
162 162 162
135 135 135
151 151 151
160 160 160
162 162 162
156 156 156
183 183 183
208 208 208
224 224 224
217 217 217
197 197 197
197 197 197
183 183 183
161 161 161
137 137 137
147 147 147
151 151 151
149 149 149
156 156 156
154 154 154
167 167 167
183 183 183
154 154 154
169 169 169
186 186 186
195 195 195
190 190 190
174 174 174
152 152 152
158 158 158
162 162 162
156 156 156
151 151 151
178 178 178
201 201 201
215 215 215
210 210 210
190 190 190
165 165 165
157 157 157
141 141 141
142 142 142
150 150 150
150 150 150
166 166 166
188 188 188
203 203 203
203 203 203
194 194 194
177 177 177
155 155 155
154 154 154
175 175 175
188 188 188
190 190 190
179 179 179
174 174 174
195 195 195
206 206 206
201 201 201
197 197 197
197 197 197
183 183 183
161 161 161
157 157 157
169 169 169
170 170 170
162 162 162
146 146 146
142 142 142
163 163 163
178 178 178
160 160 160
183 183 183
199 199 199
203 203 203
190 190 190
174 174 174
164 164 164
179 179 179
183 183 183
176 176 176
159 159 159
173 173 173
194 194 194
207 207 207
202 202 202
192 192 192
193 193 193
181 181 181
161 161 161
137 137 137
142 142 142
140 140 140
162 162 162
183 183 183
196 196 196
196 196 196
183 183 183
162 162 162
142 142 142
169 169 169
195 195 195
214 214 214
217 217 217
200 200 200
176 176 176
173 173 173
180 180 180
177 177 177
184 184 184
183 183 183
171 171 171
153 153 153
173 173 173
187 187 187
189 189 189
179 179 179
160 160 160
150 150 150
151 151 151
164 164 164
181 181 181
186 186 186
203 203 203
207 207 207
194 194 194
172 172 172
175 175 175
192 192 192
197 197 197
188 188 188
169 169 169
159 159 159
176 176 176
185 185 185
198 198 198
217 217 217
218 218 218
200 200 200
175 175 175
155 155 155
163 163 163
161 161 161
156 156 156
171 171 171
178 178 178
178 178 178
167 167 167
149 149 149
146 146 146
175 175 175
204 204 204
229 229 229
234 234 234
211 211 211
183 183 183
154 154 154
153 153 153
154 154 154
162 162 162
162 162 162
153 153 153
159 159 159
181 181 181
196 196 196
198 198 198
187 187 187
166 166 166
160 160 160
161 161 161
172 172 172
210 210 210
207 207 207
192 192 192
194 194 194
184 184 184
164 164 164
175 175 175
192 192 192
198 198 198
189 189 189
183 183 183
176 176 176
160 160 160
176 176 176
204 204 204
228 228 228
230 230 230
207 207 207
180 180 180
177 177 177
186 186 186
184 184 184
175 175 175
196 196 196
206 206 206
200 200 200
182 182 182
157 157 157
148 148 148
171 171 171
197 197 197
218 218 218
221 221 221
203 203 203
178 178 178
150 150 150
127 127 127
148 148 148
164 164 164
172 172 172
170 170 170
158 158 158
177 177 177
191 191 191
193 193 193
182 182 182
163 163 163
161 161 161
173 173 173
196 196 196
236 236 236
230 230 230
203 203 203
175 175 175
165 165 165
149 149 149
166 166 166
180 180 180
184 184 184
202 202 202
210 210 210
199 199 199
178 178 178
170 170 170
195 195 195
213 213 213
214 214 214
197 197 197
173 173 173
191 191 191
203 203 203
200 200 200
187 187 187
214 214 214
230 230 230
220 220 220
195 195 195
167 167 167
144 144 144
157 157 157
178 178 178
193 193 193
194 194 194
183 183 183
163 163 163
139 139 139
143 143 143
168 168 168
189 189 189
201 201 201
198 198 198
182 182 182
163 163 163
175 175 175
176 176 176
168 168 168
151 151 151
155 155 155
184 184 184
212 212 212
233 233 233
228 228 228
202 202 202
174 174 174
145 145 145
140 140 140
148 148 148
166 166 166
194 194 194
219 219 219
230 230 230
214 214 214
188 188 188
160 160 160
175 175 175
187 187 187
188 188 188
181 181 181
171 171 171
193 193 193
206 206 206
202 202 202
187 187 187
214 214 214
231 231 231
220 220 220
195 195 195
167 167 167
149 149 149
143 143 143
167 167 167
186 186 186
197 197 197
193 193 193
178 178 178
156 156 156
154 154 154
182 182 182
209 209 209
228 228 228
222 222 222
199 199 199
172 172 172
152 152 152
154 154 154
147 147 147
141 141 141
154 154 154
183 183 183
211 211 211
207 207 207
204 204 204
187 187 187
164 164 164
141 141 141
147 147 147
144 144 144
164 164 164
191 191 191
215 215 215
224 224 224
210 210 210
186 186 186
158 158 158
171 171 171
194 194 194
209 209 209
208 208 208
191 191 191
182 182 182
193 193 193
190 190 190
176 176 176
196 196 196
207 207 207
201 201 201
198 198 198
187 187 187
168 168 168
154 154 154
181 181 181
206 206 206
223 223 223
217 217 217
195 195 195
168 168 168
156 156 156
185 185 185
214 214 214
239 239 239
231 231 231
203 203 203
174 174 174
158 158 158
171 171 171
175 175 175
169 169 169
154 154 154
171 171 171
193 193 193
178 178 178
176 176 176
165 165 165
146 146 146
140 140 140
146 146 146
143 143 143
153 153 153
177 177 177
194 194 194
200 200 200
191 191 191
172 172 172
152 152 152
181 181 181
209 209 209
232 232 232
229 229 229
204 204 204
176 176 176
171 171 171
169 169 169
157 157 157
172 172 172
191 191 191
212 212 212
217 217 217
203 203 203
179 179 179
157 157 157
185 185 185
213 213 213
234 234 234
226 226 226
200 200 200
172 172 172
150 150 150
177 177 177
201 201 201
216 216 216
212 212 212
192 192 192
167 167 167
180 180 180
198 198 198
204 204 204
194 194 194
174 174 174
152 152 152
169 169 169
149 149 149
148 148 148
139 139 139
124 124 124
132 132 132
137 137 137
135 135 135
136 136 136
155 155 155
168 168 168
172 172 172
166 166 166
152 152 152
151 151 151
180 180 180
207 207 207
228 228 228
225 225 225
202 202 202
175 175 175
146 146 146
144 144 144
139 139 139
166 166 166
192 192 192
213 213 213
219 219 219
203 203 203
179 179 179
152 152 152
178 178 178
201 201 201
215 215 215
210 210 210
190 190 190
165 165 165
139 139 139
159 159 159
178 178 178
187 187 187
185 185 185
171 171 171
167 167 167
195 195 195
220 220 220
232 232 232
215 215 215
188 188 188
160 160 160
148 148 148
120 120 120
119 119 119
113 113 113
116 116 116
136 136 136
152 152 152
161 161 161
162 162 162
153 153 153
141 141 141
151 151 151
156 156 156
152 152 152
145 145 145
168 168 168
189 189 189
203 203 203
202 202 202
186 186 186
163 163 163
138 138 138
135 135 135
132 132 132
157 157 157
180 180 180
196 196 196
200 200 200
189 189 189
171 171 171
153 153 153
161 161 161
179 179 179
188 188 188
185 185 185
171 171 171
150 150 150
140 140 140
137 137 137
151 151 151
158 158 158
157 157 157
147 147 147
169 169 169
197 197 197
225 225 225
239 239 239
218 218 218
190 190 190
168 168 168
169 169 169
102 102 102
105 105 105
122 122 122
139 139 139
156 156 156
176 176 176
189 189 189
190 190 190
178 178 178
158 158 158
156 156 156
161 161 161
157 157 157
161 161 161
182 182 182
199 199 199
203 203 203
193 193 193
172 172 172
151 151 151
161 161 161
163 163 163
155 155 155
141 141 141
160 160 160
172 172 172
176 176 176
178 178 178
168 168 168
151 151 151
140 140 140
153 153 153
159 159 159
157 157 157
149 149 149
143 143 143
134 134 134
124 124 124
127 127 127
147 147 147
163 163 163
171 171 171
170 170 170
186 186 186
206 206 206
213 213 213
202 202 202
180 180 180
191 191 191
192 192 192
100 100 100
120 120 120
143 143 143
163 163 163
177 177 177
196 196 196
214 214 214
215 215 215
197 197 197
173 173 173
152 152 152
157 157 157
153 153 153
175 175 175
201 201 201
222 222 222
222 222 222
202 202 202
179 179 179
173 173 173
186 186 186
188 188 188
178 178 178
159 159 159
150 150 150
168 168 168
178 178 178
178 178 178
167 167 167
154 154 154
159 159 159
156 156 156
144 144 144
146 146 146
149 149 149
143 143 143
130 130 130
117 117 117
143 143 143
168 168 168
189 189 189
201 201 201
198 198 198
182 182 182
180 180 180
185 185 185
177 177 177
190 190 190
206 206 206
208 208 208
106 106 106
133 133 133
160 160 160
184 184 184
203 203 203
209 209 209
227 227 227
228 228 228
206 206 206
179 179 179
150 150 150
145 145 145
150 150 150
179 179 179
208 208 208
233 233 233
233 233 233
208 208 208
180 180 180
188 188 188
205 205 205
208 208 208
195 195 195
172 172 172
165 165 165
186 186 186
200 200 200
199 199 199
185 185 185
166 166 166
172 172 172
168 168 168
155 155 155
138 138 138
140 140 140
135 135 135
123 123 123
125 125 125
154 154 154
182 182 182
209 209 209
229 229 229
223 223 223
200 200 200
172 172 172
156 156 156
166 166 166
190 190 190
206 206 206
207 207 207
122 122 122
140 140 140
169 169 169
197 197 197
223 223 223
234 234 234
215 215 215
215 215 215
198 198 198
173 173 173
146 146 146
140 140 140
145 145 145
172 172 172
197 197 197
215 215 215
215 215 215
197 197 197
172 172 172
192 192 192
211 211 211
215 215 215
199 199 199
176 176 176
171 171 171
194 194 194
210 210 210
210 210 210
193 193 193
180 180 180
176 176 176
172 172 172
158 158 158
139 139 139
125 125 125
121 121 121
114 114 114
128 128 128
157 157 157
186 186 186
215 215 215
243 243 243
234 234 234
205 205 205
175 175 175
162 162 162
157 157 157
177 177 177
190 190 190
191 191 191
148 148 148
148 148 148
168 168 168
196 196 196
221 221 221
231 231 231
213 213 213
190 190 190
179 179 179
159 159 159
148 148 148
150 150 150
143 143 143
156 156 156
176 176 176
188 188 188
188 188 188
176 176 176
168 168 168
183 183 183
199 199 199
202 202 202
190 190 190
168 168 168
167 167 167
189 189 189
203 203 203
203 203 203
204 204 204
204 204 204
189 189 189
166 166 166
152 152 152
134 134 134
111 111 111
109 109 109
107 107 107
128 128 128
151 151 151
178 178 178
202 202 202
218 218 218
214 214 214
194 194 194
180 180 180
180 180 180
169 169 169
157 157 157
167 167 167
168 168 168
172 172 172
171 171 171
161 161 161
182 182 182
200 200 200
206 206 206
195 195 195
174 174 174
154 154 154
142 142 142
151 151 151
154 154 154
164 164 164
166 166 166
158 158 158
160 160 160
160 160 160
151 151 151
167 167 167
179 179 179
180 180 180
179 179 179
170 170 170
153 153 153
154 154 154
173 173 173
184 184 184
200 200 200
219 219 219
219 219 219
199 199 199
174 174 174
146 146 146
122 122 122
119 119 119
113 113 113
124 124 124
148 148 148
169 169 169
182 182 182
185 185 185
189 189 189
187 187 187
177 177 177
189 189 189
189 189 189
176 176 176
157 157 157
147 147 147
163 163 163
191 191 191
190 190 190
177 177 177
164 164 164
174 174 174
177 177 177
170 170 170
162 162 162
151 151 151
154 154 154
156 156 156
178 178 178
192 192 192
195 195 195
184 184 184
164 164 164
145 145 145
140 140 140
156 156 156
167 167 167
168 168 168
160 160 160
146 146 146
132 132 132
135 135 135
150 150 150
172 172 172
196 196 196
213 213 213
213 213 213
195 195 195
171 171 171
144 144 144
142 142 142
142 142 142
135 135 135
137 137 137
164 164 164
189 189 189
209 209 209
214 214 214
200 200 200
177 177 177
174 174 174
185 185 185
185 185 185
173 173 173
154 154 154
160 160 160
180 180 180
200 200 200
198 198 198
184 184 184
178 178 178
183 183 183
196 196 196
199 199 199
188 188 188
178 178 178
183 183 183
175 175 175
196 196 196
217 217 217
222 222 222
205 205 205
179 179 179
152 152 152
142 142 142
143 143 143
148 148 148
149 149 149
142 142 142
131 131 131
122 122 122
119 119 119
135 135 135
159 159 159
179 179 179
192 192 192
192 192 192
179 179 179
159 159 159
152 152 152
161 161 161
162 162 162
153 153 153
143 143 143
172 172 172
201 201 201
228 228 228
237 237 237
215 215 215
187 187 187
161 161 161
171 171 171
170 170 170
161 161 161
146 146 146
166 166 166
187 187 187
194 194 194
192 192 192
179 179 179
182 182 182
199 199 199
222 222 222
228 228 228
208 208 208
204 204 204
210 210 210
199 199 199
203 203 203
230 230 230
237 237 237
213 213 213
185 185 185
159 159 159
170 170 170
171 171 171
162 162 162
145 145 145
124 124 124
115 115 115
107 107 107
103 103 103
120 120 120
140 140 140
157 157 157
173 173 173
183 183 183
181 181 181
169 169 169
164 164 164
175 175 175
175 175 175
166 166 166
170 170 170
176 176 176
197 197 197
222 222 222
229 229 229
210 210 210
184 184 184
156 156 156
150 150 150
149 149 149
153 153 153
159 159 159
162 162 162
182 182 182
205 205 205
201 201 201
184 184 184
175 175 175
205 205 205
234 234 234
244 244 244
215 215 215
221 221 221
233 233 233
215 215 215
194 194 194
215 215 215
219 219 219
203 203 203
178 178 178
181 181 181
195 195 195
197 197 197
184 184 184
164 164 164
139 139 139
117 117 117
105 105 105
92 92 92
112 112 112
137 137 137
161 161 161
181 181 181
192 192 192
191 191 191
177 177 177
167 167 167
178 178 178
179 179 179
177 177 177
196 196 196
204 204 204
196 196 196
198 198 198
202 202 202
191 191 191
170 170 170
146 146 146
152 152 152
160 160 160
158 158 158
164 164 164
172 172 172
193 193 193
231 231 231
224 224 224
199 199 199
171 171 171
194 194 194
215 215 215
219 219 219
203 203 203
218 218 218
228 228 228
212 212 212
186 186 186
189 189 189
191 191 191
181 181 181
170 170 170
195 195 195
215 215 215
217 217 217
200 200 200
175 175 175
150 150 150
141 141 141
126 126 126
116 116 116
125 125 125
136 136 136
159 159 159
178 178 178
189 189 189
188 188 188
175 175 175
161 161 161
171 171 171
172 172 172
190 190 190
215 215 215
228 228 228
215 215 215
190 190 190
173 173 173
166 166 166
150 150 150
148 148 148
157 157 157
165 165 165
164 164 164
163 163 163
184 184 184
211 211 211
236 236 236
227 227 227
201 201 201
172 172 172
174 174 174
188 188 188
190 190 190
180 180 180
197 197 197
203 203 203
193 193 193
173 173 173
161 161 161
168 168 168
172 172 172
171 171 171
197 197 197
217 217 217
220 220 220
202 202 202
177 177 177
172 172 172
161 161 161
144 144 144
137 137 137
148 148 148
151 151 151
149 149 149
165 165 165
174 174 174
173 173 173
162 162 162
146 146 146
155 155 155
163 163 163
191 191 191
217 217 217
231 231 231
217 217 217
207 207 207
186 186 186
161 161 161
141 141 141
143 143 143
154 154 154
162 162 162
164 164 164
173 173 173
186 186 186
214 214 214
211 211 211
207 207 207
188 188 188
163 163 163
149 149 149
160 160 160
161 161 161
157 157 157
171 171 171
174 174 174
168 168 168
153 153 153
144 144 144
155 155 155
158 158 158
162 162 162
185 185 185
201 201 201
202 202 202
189 189 189
190 190 190
189 189 189
175 175 175
155 155 155
154 154 154
167 167 167
170 170 170
164 164 164
150 150 150
153 153 153
152 152 152
146 146 146
138 138 138
134 134 134
155 155 155
179 179 179
199 199 199
209 209 209
223 223 223
214 214 214
191 191 191
164 164 164
138 138 138
146 146 146
165 165 165
176 176 176
176 176 176
174 174 174
175 175 175
198 198 198
200 200 200
207 207 207
197 197 197
176 176 176
151 151 151
131 131 131
132 132 132
133 133 133
143 143 143
146 146 146
141 141 141
129 129 129
137 137 137
152 152 152
160 160 160
159 159 159
165 165 165
176 176 176
177 177 177
183 183 183
195 195 195
194 194 194
180 180 180
159 159 159
164 164 164
178 178 178
183 183 183
175 175 175
159 159 159
139 139 139
146 146 146
146 146 146
138 138 138
126 126 126
139 139 139
160 160 160
177 177 177
198 198 198
209 209 209
202 202 202
183 183 183
169 169 169
166 166 166
161 161 161
182 182 182
196 196 196
197 197 197
185 185 185
164 164 164
181 181 181
207 207 207
215 215 215
203 203 203
181 181 181
155 155 155
127 127 127
114 114 114
118 118 118
117 117 117
116 116 116
113 113 113
124 124 124
143 143 143
157 157 157
164 164 164
162 162 162
152 152 152
149 149 149
158 158 158
176 176 176
187 187 187
186 186 186
173 173 173
154 154 154
165 165 165
180 180 180
184 184 184
177 177 177
161 161 161
147 147 147
138 138 138
138 138 138
147 147 147
153 153 153
151 151 151
146 146 146
163 163 163
177 177 177
185 185 185
180 180 180
188 188 188
198 198 198
194 194 194
178 178 178
190 190 190
207 207 207
208 208 208
193 193 193
170 170 170
187 187 187
198 198 198
204 204 204
194 194 194
174 174 174
150 150 150
127 127 127
138 138 138
144 144 144
143 143 143
135 135 135
120 120 120
141 141 141
164 164 164
182 182 182
191 191 191
187 187 187
172 172 172
151 151 151
144 144 144
160 160 160
169 169 169
168 168 168
158 158 158
141 141 141
157 157 157
172 172 172
189 189 189
194 194 194
186 186 186
168 168 168
145 145 145
153 153 153
170 170 170
178 178 178
176 176 176
163 163 163
159 159 159
169 169 169
169 169 169
183 183 183
209 209 209
226 226 226
218 218 218
195 195 195
186 186 186
201 201 201
202 202 202
189 189 189
172 172 172
179 179 179
177 177 177
182 182 182
175 175 175
159 159 159
141 141 141
144 144 144
160 160 160
168 168 168
167 167 167
157 157 157
149 149 149
152 152 152
178 178 178
201 201 201
214 214 214
208 208 208
188 188 188
163 163 163
146 146 146
155 155 155
170 170 170
177 177 177
173 173 173
159 159 159
162 162 162
187 187 187
209 209 209
217 217 217
204 204 204
182 182 182
155 155 155
167 167 167
187 187 187
198 198 198
195 195 195
179 179 179
157 157 157
155 155 155
159 159 159
188 188 188
217 217 217
241 241 241
229 229 229
201 201 201
172 172 172
182 182 182
188 188 188
198 198 198
194 194 194
178 178 178
152 152 152
157 157 157
157 157 157
148 148 148
155 155 155
159 159 159
178 178 178
188 188 188
187 187 187
173 173 173
177 177 177
182 182 182
183 183 183
208 208 208
223 223 223
216 216 216
194 194 194
167 167 167
153 153 153
175 175 175
195 195 195
205 205 205
199 199 199
180 180 180
164 164 164
191 191 191
215 215 215
224 224 224
210 210 210
185 185 185
158 158 158
173 173 173
195 195 195
207 207 207
203 203 203
186 186 186
162 162 162
136 136 136
153 153 153
180 180 180
204 204 204
219 219 219
213 213 213
192 192 192
178 178 178
176 176 176
199 199 199
212 212 212
207 207 207
188 188 188
133 133 133
140 140 140
146 146 146
166 166 166
181 181 181
185 185 185
186 186 186
199 199 199
197 197 197
184 184 184
204 204 204
211 211 211
200 200 200
198 198 198
210 210 210
204 204 204
186 186 186
161 161 161
159 159 159
187 187 187
213 213 213
230 230 230
219 219 219
194 194 194
166 166 166
182 182 182
202 202 202
208 208 208
198 198 198
177 177 177
152 152 152
168 168 168
188 188 188
199 199 199
196 196 196
180 180 180
158 158 158
143 143 143
140 140 140
163 163 163
181 181 181
191 191 191
187 187 187
195 195 195
195 195 195
182 182 182
196 196 196
208 208 208
203 203 203
185 185 185
113 113 113
133 133 133
159 159 159
184 184 184
202 202 202
208 208 208
197 197 197
195 195 195
193 193 193
198 198 198
225 225 225
240 240 240
219 219 219
190 190 190
185 185 185
182 182 182
168 168 168
147 147 147
160 160 160
188 188 188
215 215 215
232 232 232
221 221 221
199 199 199
176 176 176
164 164 164
179 179 179
183 183 183
176 176 176
160 160 160
140 140 140
154 154 154
171 171 171
180 180 180
177 177 177
165 165 165
151 151 151
151 151 151
143 143 143
141 141 141
155 155 155
164 164 164
186 186 186
200 200 200
200 200 200
186 186 186
180 180 180
189 189 189
186 186 186
172 172 172
112 112 112
137 137 137
165 165 165
191 191 191
213 213 213
220 220 220
206 206 206
182 182 182
177 177 177
197 197 197
224 224 224
238 238 238
218 218 218
190 190 190
161 161 161
156 156 156
153 153 153
147 147 147
152 152 152
177 177 177
202 202 202
230 230 230
238 238 238
214 214 214
186 186 186
157 157 157
152 152 152
156 156 156
150 150 150
140 140 140
138 138 138
136 136 136
149 149 149
155 155 155
154 154 154
144 144 144
151 151 151
151 151 151
143 143 143
129 129 129
134 134 134
158 158 158
178 178 178
190 190 190
190 190 190
178 178 178
158 158 158
165 165 165
165 165 165
156 156 156
128 128 128
134 134 134
160 160 160
185 185 185
205 205 205
211 211 211
199 199 199
177 177 177
159 159 159
183 183 183
202 202 202
209 209 209
198 198 198
177 177 177
152 152 152
159 159 159
162 162 162
155 155 155
143 143 143
172 172 172
199 199 199
224 224 224
230 230 230
210 210 210
183 183 183
155 155 155
137 137 137
127 127 127
126 126 126
131 131 131
147 147 147
163 163 163
171 171 171
169 169 169
158 158 158
140 140 140
143 143 143
143 143 143
142 142 142
140 140 140
131 131 131
144 144 144
161 161 161
171 171 171
171 171 171
161 161 161
176 176 176
189 189 189
189 189 189
177 177 177
138 138 138
139 139 139
148 148 148
169 169 169
184 184 184
190 190 190
185 185 185
169 169 169
147 147 147
162 162 162
176 176 176
180 180 180
173 173 173
157 157 157
148 148 148
159 159 159
161 161 161
154 154 154
140 140 140
160 160 160
183 183 183
200 200 200
203 203 203
191 191 191
170 170 170
158 158 158
143 143 143
123 123 123
116 116 116
142 142 142
167 167 167
187 187 187
199 199 199
197 197 197
181 181 181
159 159 159
136 136 136
150 150 150
156 156 156
154 154 154
144 144 144
152 152 152
169 169 169
178 178 178
177 177 177
168 168 168
191 191 191
207 207 207
207 207 207
192 192 192
142 142 142
143 143 143
144 144 144
166 166 166
183 183 183
191 191 191
185 185 185
169 169 169
166 166 166
160 160 160
161 161 161
179 179 179
188 188 188
185 185 185
170 170 170
159 159 159
165 165 165
161 161 161
156 156 156
164 164 164
163 163 163
172 172 172
174 174 174
181 181 181
183 183 183
174 174 174
157 157 157
135 135 135
124 124 124
152 152 152
180 180 180
206 206 206
224 224 224
219 219 219
197 197 197
171 171 171
144 144 144
157 157 157
163 163 163
161 161 161
150 150 150
156 156 156
174 174 174
183 183 183
181 181 181
169 169 169
193 193 193
210 210 210
211 211 211
194 194 194
138 138 138
139 139 139
137 137 137
157 157 157
173 173 173
179 179 179
175 175 175
186 186 186
192 192 192
184 184 184
179 179 179
203 203 203
217 217 217
211 211 211
191 191 191
185 185 185
193 193 193
188 188 188
178 178 178
189 189 189
187 187 187
174 174 174
174 174 174
189 189 189
192 192 192
181 181 181
163 163 163
139 139 139
125 125 125
154 154 154
183 183 183
210 210 210
231 231 231
226 226 226
201 201 201
173 173 173
151 151 151
154 154 154
161 161 161
159 159 159
148 148 148
154 154 154
168 168 168
177 177 177
175 175 175
167 167 167
183 183 183
196 196 196
197 197 197
183 183 183
146 146 146
150 150 150
145 145 145
142 142 142
154 154 154
160 160 160
184 184 184
205 205 205
213 213 213
202 202 202
188 188 188
217 217 217
244 244 244
231 231 231
202 202 202
207 207 207
220 220 220
211 211 211
193 193 193
207 207 207
205 205 205
188 188 188
171 171 171
184 184 184
187 187 187
177 177 177
159 159 159
137 137 137
120 120 120
148 148 148
174 174 174
197 197 197
211 211 211
208 208 208
190 190 190
165 165 165
151 151 151
144 144 144
150 150 150
148 148 148
150 150 150
162 162 162
167 167 167
166 166 166
184 184 184
192 192 192
187 187 187
174 174 174
174 174 174
164 164 164
164 164 164
168 168 168
163 163 163
149 149 149
134 134 134
162 162 162
188 188 188
210 210 210
218 218 218
206 206 206
185 185 185
212 212 212
231 231 231
223 223 223
198 198 198
217 217 217
236 236 236
222 222 222
196 196 196
211 211 211
208 208 208
191 191 191
166 166 166
169 169 169
171 171 171
163 163 163
148 148 148
134 134 134
123 123 123
142 142 142
162 162 162
175 175 175
184 184 184
182 182 182
169 169 169
149 149 149
142 142 142
141 141 141
161 161 161
175 175 175
179 179 179
172 172 172
166 166 166
178 178 178
200 200 200
211 211 211
204 204 204
184 184 184
160 160 160
151 151 151
175 175 175
179 179 179
173 173 173
158 158 158
137 137 137
155 155 155
179 179 179
197 197 197
203 203 203
194 194 194
175 175 175
191 191 191
202 202 202
198 198 198
183 183 183
207 207 207
219 219 219
211 211 211
188 188 188
197 197 197
195 195 195
180 180 180
159 159 159
148 148 148
150 150 150
149 149 149
152 152 152
147 147 147
134 134 134
149 149 149
170 170 170
184 184 184
188 188 188
179 179 179
162 162 162
139 139 139
131 131 131
158 158 158
182 182 182
201 201 201
208 208 208
198 198 198
177 177 177
180 180 180
203 203 203
215 215 215
207 207 207
187 187 187
161 161 161
160 160 160
175 175 175
180 180 180
173 173 173
158 158 158
137 137 137
163 163 163
186 186 186
204 204 204
207 207 207
194 194 194
172 172 172
165 165 165
173 173 173
170 170 170
184 184 184
192 192 192
192 192 192
187 187 187
171 171 171
174 174 174
173 173 173
162 162 162
144 144 144
135 135 135
143 143 143
154 154 154
158 158 158
152 152 152
139 139 139
147 147 147
168 168 168
182 182 182
185 185 185
177 177 177
160 160 160
140 140 140
138 138 138
167 167 167
196 196 196
222 222 222
235 235 235
217 217 217
189 189 189
171 171 171
191 191 191
200 200 200
194 194 194
177 177 177
154 154 154
161 161 161
