P3
50 50
255
113 113 113
119 119 119
119 119 119
117 117 117
137 137 137
152 152 152
161 161 161
161 161 161
152 152 152
136 136 136
115 115 115
112 112 112
125 125 125
132 132 132
141 141 141
164 164 164
183 183 183
192 192 192
188 188 188
173 173 173
151 151 151
155 155 155
183 183 183
209 209 209
227 227 227
220 220 220
197 197 197
183 183 183
207 207 207
220 220 220
212 212 212
190 190 190
163 163 163
153 153 153
144 144 144
129 129 129
119 119 119
105 105 105
115 115 115
140 140 140
161 161 161
177 177 177
184 184 184
179 179 179
164 164 164
143 143 143
142 142 142
138 138 138
128 128 128
112 112 112
140 140 140
143 143 143
138 138 138
134 134 134
157 157 157
177 177 177
189 189 189
189 189 189
176 176 176
156 156 156
132 132 132
117 117 117
126 126 126
133 133 133
154 154 154
181 181 181
205 205 205
220 220 220
213 213 213
192 192 192
165 165 165
157 157 157
186 186 186
214 214 214
236 236 236
227 227 227
200 200 200
191 191 191
221 221 221
247 247 247
228 228 228
199 199 199
179 179 179
179 179 179
167 167 167
149 149 149
136 136 136
129 129 129
120 120 120
142 142 142
164 164 164
181 181 181
188 188 188
183 183 183
167 167 167
165 165 165
170 170 170
165 165 165
152 152 152
133 133 133
168 168 168
172 172 172
166 166 166
151 151 151
173 173 173
197 197 197
215 215 215
214 214 214
196 196 196
171 171 171
144 144 144
141 141 141
133 133 133
130 130 130
159 159 159
188 188 188
217 217 217
240 240 240
228 228 228
200 200 200
171 171 171
150 150 150
177 177 177
200 200 200
214 214 214
209 209 209
190 190 190
187 187 187
213 213 213
229 229 229
219 219 219
194 194 194
202 202 202
201 201 201
186 186 186
164 164 164
163 163 163
154 154 154
138 138 138
137 137 137
158 158 158
173 173 173
180 180 180
175 175 175
176 176 176
190 190 190
197 197 197
190 190 190
173 173 173
156 156 156
196 196 196
202 202 202
192 192 192
173 173 173
179 179 179
206 206 206
230 230 230
229 229 229
205 205 205
177 177 177
162 162 162
161 161 161
151 151 151
135 135 135
156 156 156
183 183 183
208 208 208
224 224 224
217 217 217
194 194 194
167 167 167
165 165 165
172 172 172
177 177 177
186 186 186
185 185 185
188 188 188
178 178 178
191 191 191
200 200 200
194 194 194
198 198 198
215 215 215
214 214 214
195 195 195
188 188 188
188 188 188
175 175 175
156 156 156
142 142 142
145 145 145
157 157 157
177 177 177
196 196 196
205 205 205
209 209 209
221 221 221
210 210 210
187 187 187
178 178 178
220 220 220
231 231 231
214 214 214
188 188 188
174 174 174
199 199 199
217 217 217
217 217 217
198 198 198
173 173 173
176 176 176
175 175 175
164 164 164
146 146 146
144 144 144
167 167 167
187 187 187
196 196 196
192 192 192
176 176 176
172 172 172
191 191 191
201 201 201
195 195 195
177 177 177
172 172 172
174 174 174
166 166 166
164 164 164
171 171 171
170 170 170
193 193 193
208 208 208
207 207 207
191 191 191
207 207 207
206 206 206
190 190 190
167 167 167
158 158 158
162 162 162
163 163 163
191 191 191
218 218 218
234 234 234
220 220 220
227 227 227
215 215 215
190 190 190
194 194 194
228 228 228
247 247 247
221 221 221
192 192 192
162 162 162
180 180 180
192 192 192
192 192 192
179 179 179
171 171 171
181 181 181
180 180 180
168 168 168
152 152 152
145 145 145
146 146 146
161 161 161
167 167 167
164 164 164
159 159 159
187 187 187
212 212 212
228 228 228
218 218 218
193 193 193
166 166 166
154 154 154
147 147 147
137 137 137
141 141 141
158 158 158
177 177 177
188 188 188
187 187 187
195 195 195
211 211 211
211 211 211
194 194 194
170 170 170
168 168 168
179 179 179
180 180 180
194 194 194
222 222 222
245 245 245
224 224 224
209 209 209
200 200 200
180 180 180
199 199 199
210 210 210
219 219 219
206 206 206
183 183 183
178 178 178
170 170 170
182 182 182
187 187 187
180 180 180
165 165 165
175 175 175
174 174 174
179 179 179
181 181 181
172 172 172
155 155 155
134 134 134
138 138 138
136 136 136
162 162 162
190 190 190
219 219 219
240 240 240
225 225 225
197 197 197
168 168 168
139 139 139
124 124 124
134 134 134
147 147 147
152 152 152
154 154 154
163 163 163
163 163 163
184 184 184
198 198 198
198 198 198
184 184 184
162 162 162
180 180 180
194 194 194
195 195 195
183 183 183
205 205 205
215 215 215
206 206 206
195 195 195
178 178 178
162 162 162
189 189 189
184 184 184
189 189 189
183 183 183
201 201 201
205 205 205
193 193 193
194 194 194
199 199 199
190 190 190
171 171 171
164 164 164
188 188 188
206 206 206
210 210 210
196 196 196
174 174 174
156 156 156
153 153 153
143 143 143
155 155 155
181 181 181
204 204 204
216 216 216
208 208 208
187 187 187
161 161 161
155 155 155
146 146 146
152 152 152
168 168 168
175 175 175
171 171 171
159 159 159
148 148 148
165 165 165
175 175 175
175 175 175
165 165 165
176 176 176
192 192 192
197 197 197
197 197 197
185 185 185
180 180 180
192 192 192
203 203 203
198 198 198
181 181 181
158 158 158
169 169 169
156 156 156
169 169 169
196 196 196
219 219 219
226 226 226
209 209 209
192 192 192
197 197 197
189 189 189
170 170 170
174 174 174
202 202 202
229 229 229
237 237 237
213 213 213
185 185 185
180 180 180
177 177 177
163 163 163
144 144 144
163 163 163
180 180 180
188 188 188
183 183 183
169 169 169
179 179 179
179 179 179
167 167 167
165 165 165
183 183 183
192 192 192
187 187 187
172 172 172
150 150 150
142 142 142
149 149 149
149 149 149
159 159 159
184 184 184
203 203 203
209 209 209
198 198 198
177 177 177
164 164 164
182 182 182
191 191 191
187 187 187
173 173 173
151 151 151
145 145 145
140 140 140
168 168 168
195 195 195
218 218 218
225 225 225
208 208 208
184 184 184
192 192 192
187 187 187
171 171 171
173 173 173
202 202 202
228 228 228
236 236 236
213 213 213
190 190 190
200 200 200
195 195 195
178 178 178
155 155 155
140 140 140
153 153 153
159 159 159
163 163 163
184 184 184
197 197 197
196 196 196
182 182 182
169 169 169
188 188 188
198 198 198
193 193 193
176 176 176
154 154 154
128 128 128
122 122 122
130 130 130
157 157 157
180 180 180
198 198 198
204 204 204
194 194 194
174 174 174
149 149 149
163 163 163
170 170 170
168 168 168
156 156 156
137 137 137
129 129 129
147 147 147
158 158 158
181 181 181
198 198 198
202 202 202
191 191 191
208 208 208
221 221 221
212 212 212
190 190 190
164 164 164
187 187 187
205 205 205
212 212 212
210 210 210
196 196 196
207 207 207
202 202 202
183 183 183
159 159 159
151 151 151
150 150 150
159 159 159
167 167 167
189 189 189
203 203 203
202 202 202
187 187 187
164 164 164
181 181 181
189 189 189
185 185 185
170 170 170
149 149 149
124 124 124
106 106 106
122 122 122
146 146 146
166 166 166
181 181 181
185 185 185
177 177 177
161 161 161
139 139 139
140 140 140
146 146 146
143 143 143
134 134 134
144 144 144
149 149 149
166 166 166
167 167 167
160 160 160
172 172 172
175 175 175
192 192 192
221 221 221
248 248 248
228 228 228
199 199 199
170 170 170
171 171 171
195 195 195
210 210 210
208 208 208
191 191 191
198 198 198
193 193 193
177 177 177
169 169 169
173 173 173
167 167 167
174 174 174
174 174 174
181 181 181
193 193 193
193 193 193
184 184 184
173 173 173
164 164 164
170 170 170
167 167 167
155 155 155
144 144 144
138 138 138
125 125 125
134 134 134
143 143 143
146 146 146
158 158 158
161 161 161
155 155 155
141 141 141
127 127 127
123 123 123
135 135 135
140 140 140
145 145 145
159 159 159
165 165 165
178 178 178
180 180 180
170 170 170
153 153 153
159 159 159
187 187 187
212 212 212
228 228 228
218 218 218
193 193 193
166 166 166
161 161 161
180 180 180
192 192 192
190 190 190
177 177 177
177 177 177
174 174 174
172 172 172
189 189 189
194 194 194
186 186 186
179 179 179
180 180 180
170 170 170
185 185 185
200 200 200
200 200 200
187 187 187
165 165 165
147 147 147
150 150 150
160 160 160
162 162 162
155 155 155
141 141 141
156 156 156
167 167 167
170 170 170
162 162 162
169 169 169
173 173 173
166 166 166
152 152 152
131 131 131
133 133 133
139 139 139
151 151 151
166 166 166
172 172 172
180 180 180
181 181 181
172 172 172
154 154 154
147 147 147
171 171 171
190 190 190
199 199 199
193 193 193
176 176 176
153 153 153
143 143 143
159 159 159
167 167 167
166 166 166
156 156 156
152 152 152
156 156 156
180 180 180
199 199 199
206 206 206
196 196 196
176 176 176
175 175 175
165 165 165
187 187 187
202 202 202
203 203 203
188 188 188
166 166 166
141 141 141
160 160 160
171 171 171
174 174 174
166 166 166
152 152 152
173 173 173
187 187 187
190 190 190
180 180 180
196 196 196
202 202 202
192 192 192
173 173 173
149 149 149
128 128 128
140 140 140
149 149 149
163 163 163
170 170 170
171 171 171
172 172 172
163 163 163
147 147 147
129 129 129
149 149 149
163 163 163
170 170 170
166 166 166
153 153 153
135 135 135
121 121 121
135 135 135
147 147 147
153 153 153
149 149 149
138 138 138
154 154 154
177 177 177
195 195 195
201 201 201
192 192 192
173 173 173
160 160 160
157 157 157
177 177 177
189 189 189
190 190 190
178 178 178
161 161 161
149 149 149
161 161 161
173 173 173
175 175 175
167 167 167
159 159 159
181 181 181
198 198 198
201 201 201
195 195 195
220 220 220
231 231 231
214 214 214
187 187 187
159 159 159
151 151 151
166 166 166
172 172 172
168 168 168
160 160 160
153 153 153
154 154 154
147 147 147
133 133 133
114 114 114
124 124 124
135 135 135
140 140 140
137 137 137
128 128 128
114 114 114
132 132 132
152 152 152
166 166 166
172 172 172
168 168 168
155 155 155
143 143 143
164 164 164
178 178 178
183 183 183
176 176 176
160 160 160
170 170 170
181 181 181
181 181 181
170 170 170
180 180 180
188 188 188
183 183 183
168 168 168
153 153 153
164 164 164
166 166 166
159 159 159
156 156 156
179 179 179
194 194 194
197 197 197
198 198 198
227 227 227
243 243 243
220 220 220
191 191 191
162 162 162
170 170 170
189 189 189
198 198 198
193 193 193
176 176 176
146 146 146
149 149 149
145 145 145
133 133 133
116 116 116
98 98 98
107 107 107
125 125 125
138 138 138
144 144 144
143 143 143
140 140 140
161 161 161
178 178 178
185 185 185
181 181 181
166 166 166
145 145 145
144 144 144
156 156 156
159 159 159
154 154 154
164 164 164
186 186 186
200 200 200
201 201 201
186 186 186
194 194 194
204 204 204
198 198 198
180 180 180
156 156 156
148 148 148
150 150 150
154 154 154
149 149 149
166 166 166
178 178 178
191 191 191
212 212 212
218 218 218
217 217 217
204 204 204
181 181 181
155 155 155
182 182 182
205 205 205
218 218 218
210 210 210
189 189 189
163 163 163
167 167 167
161 161 161
148 148 148
129 129 129
106 106 106
128 128 128
149 149 149
165 165 165
173 173 173
171 171 171
160 160 160
163 163 163
179 179 179
187 187 187
182 182 182
167 167 167
146 146 146
145 145 145
138 138 138
133 133 133
142 142 142
168 168 168
191 191 191
207 207 207
207 207 207
192 192 192
195 195 195
205 205 205
199 199 199
181 181 181
157 157 157
156 156 156
169 169 169
174 174 174
168 168 168
154 154 154
168 168 168
195 195 195
218 218 218
225 225 225
208 208 208
182 182 182
163 163 163
156 156 156
183 183 183
206 206 206
220 220 220
211 211 211
189 189 189
172 172 172
177 177 177
171 171 171
156 156 156
135 135 135
117 117 117
144 144 144
169 169 169
190 190 190
202 202 202
199 199 199
183 183 183
175 175 175
181 181 181
176 176 176
172 172 172
159 159 159
166 166 166
166 166 166
158 158 158
141 141 141
137 137 137
162 162 162
184 184 184
197 197 197
198 198 198
184 184 184
183 183 183
191 191 191
186 186 186
171 171 171
149 149 149
166 166 166
181 181 181
187 187 187
180 180 180
164 164 164
162 162 162
186 186 186
204 204 204
208 208 208
196 196 196
174 174 174
149 149 149
148 148 148
172 172 172
192 192 192
201 201 201
196 196 196
178 178 178
172 172 172
176 176 176
170 170 170
155 155 155
135 135 135
125 125 125
154 154 154
182 182 182
209 209 209
229 229 229
224 224 224
200 200 200
182 182 182
189 189 189
184 184 184
168 168 168
169 169 169
181 181 181
182 182 182
171 171 171
153 153 153
134 134 134
148 148 148
166 166 166
177 177 177
177 177 177
167 167 167
163 163 163
169 169 169
165 165 165
153 153 153
148 148 148
167 167 167
183 183 183
188 188 188
181 181 181
165 165 165
160 160 160
175 175 175
180 180 180
183 183 183
175 175 175
157 157 157
139 139 139
133 133 133
154 154 154
173 173 173
186 186 186
187 187 187
176 176 176
161 161 161
165 165 165
160 160 160
155 155 155
152 152 152
140 140 140
156 156 156
185 185 185
214 214 214
239 239 239
231 231 231
203 203 203
178 178 178
184 184 184
179 179 179
164 164 164
174 174 174
186 186 186
187 187 187
177 177 177
167 167 167
152 152 152
151 151 151
144 144 144
152 152 152
152 152 152
145 145 145
142 142 142
143 143 143
140 140 140
142 142 142
147 147 147
158 158 158
173 173 173
177 177 177
171 171 171
156 156 156
179 179 179
198 198 198
206 206 206
197 197 197
178 178 178
169 169 169
163 163 163
149 149 149
169 169 169
194 194 194
212 212 212
214 214 214
198 198 198
144 144 144
157 157 157
172 172 172
178 178 178
174 174 174
160 160 160
150 150 150
176 176 176
200 200 200
215 215 215
211 211 211
191 191 191
166 166 166
169 169 169
165 165 165
152 152 152
168 168 168
186 186 186
202 202 202
203 203 203
189 189 189
167 167 167
162 162 162
153 153 153
148 148 148
163 163 163
169 169 169
166 166 166
153 153 153
135 135 135
134 134 134
139 139 139
143 143 143
154 154 154
160 160 160
162 162 162
162 162 162
189 189 189
212 212 212
224 224 224
211 211 211
187 187 187
189 189 189
182 182 182
165 165 165
177 177 177
205 205 205
231 231 231
235 235 235
210 210 210
146 146 146
170 170 170
188 188 188
195 195 195
190 190 190
173 173 173
150 150 150
161 161 161
182 182 182
196 196 196
196 196 196
183 183 183
162 162 162
162 162 162
163 163 163
155 155 155
173 173 173
199 199 199
219 219 219
220 220 220
202 202 202
176 176 176
165 165 165
155 155 155
163 163 163
181 181 181
189 189 189
185 185 185
170 170 170
148 148 148
124 124 124
134 134 134
148 148 148
161 161 161
172 172 172
174 174 174
166 166 166
186 186 186
209 209 209
219 219 219
208 208 208
195 195 195
201 201 201
193 193 193
174 174 174
174 174 174
201 201 201
223 223 223
225 225 225
205 205 205
149 149 149
173 173 173
192 192 192
201 201 201
194 194 194
176 176 176
153 153 153
166 166 166
189 189 189
204 204 204
205 205 205
190 190 190
173 173 173
186 186 186
187 187 187
176 176 176
171 171 171
197 197 197
216 216 216
217 217 217
200 200 200
175 175 175
158 158 158
149 149 149
171 171 171
190 190 190
200 200 200
195 195 195
177 177 177
155 155 155
135 135 135
157 157 157
174 174 174
182 182 182
179 179 179
176 176 176
168 168 168
172 172 172
190 190 190
197 197 197
189 189 189
192 192 192
198 198 198
190 190 190
175 175 175
161 161 161
183 183 183
198 198 198
199 199 199
186 186 186
144 144 144
166 166 166
183 183 183
191 191 191
185 185 185
169 169 169
147 147 147
161 161 161
183 183 183
196 196 196
197 197 197
184 184 184
187 187 187
202 202 202
204 204 204
196 196 196
195 195 195
182 182 182
196 196 196
197 197 197
184 184 184
163 163 163
144 144 144
145 145 145
168 168 168
187 187 187
196 196 196
191 191 191
175 175 175
152 152 152
149 149 149
175 175 175
196 196 196
209 209 209
204 204 204
185 185 185
170 170 170
167 167 167
165 165 165
170 170 170
174 174 174
198 198 198
214 214 214
212 212 212
194 194 194
169 169 169
159 159 159
170 170 170
171 171 171
162 162 162
152 152 152
175 175 175
191 191 191
196 196 196
187 187 187
168 168 168
144 144 144
155 155 155
167 167 167
177 177 177
178 178 178
180 180 180
191 191 191
205 205 205
206 206 206
214 214 214
212 212 212
194 194 194
170 170 170
171 171 171
168 168 168
166 166 166
154 154 154
168 168 168
176 176 176
174 174 174
179 179 179
176 176 176
162 162 162
142 142 142
156 156 156
184 184 184
210 210 210
228 228 228
220 220 220
197 197 197
190 190 190
187 187 187
173 173 173
151 151 151
179 179 179
206 206 206
227 227 227
224 224 224
202 202 202
174 174 174
146 146 146
141 141 141
142 142 142
135 135 135
163 163 163
188 188 188
209 209 209
216 216 216
203 203 203
180 180 180
160 160 160
178 178 178
189 189 189
186 186 186
175 175 175
181 181 181
192 192 192
192 192 192
197 197 197
214 214 214
212 212 212
194 194 194
170 170 170
167 167 167
175 175 175
173 173 173
170 170 170
191 191 191
202 202 202
198 198 198
182 182 182
159 159 159
143 143 143
127 127 127
154 154 154
182 182 182
207 207 207
222 222 222
216 216 216
194 194 194
202 202 202
198 198 198
181 181 181
158 158 158
174 174 174
198 198 198
214 214 214
213 213 213
194 194 194
169 169 169
157 157 157
162 162 162
157 157 157
144 144 144
164 164 164
190 190 190
211 211 211
218 218 218
205 205 205
181 181 181
173 173 173
196 196 196
210 210 210
207 207 207
200 200 200
200 200 200
186 186 186
180 180 180
184 184 184
196 196 196
195 195 195
181 181 181
160 160 160
164 164 164
172 172 172
169 169 169
180 180 180
205 205 205
221 221 221
216 216 216
194 194 194
168 168 168
157 157 157
153 153 153
144 144 144
169 169 169
188 188 188
199 199 199
195 195 195
187 187 187
198 198 198
194 194 194
178 178 178
156 156 156
159 159 159
179 179 179
190 190 190
189 189 189
176 176 176
168 168 168
185 185 185
191 191 191
184 184 184
168 168 168
156 156 156
179 179 179
196 196 196
201 201 201
192 192 192
172 172 172
177 177 177
201 201 201
218 218 218
214 214 214
218 218 218
218 218 218
199 199 199
174 174 174
163 163 163
172 172 172
171 171 171
161 161 161
143 143 143
152 152 152
159 159 159
157 157 157
180 180 180
204 204 204
220 220 220
214 214 214
193 193 193
176 176 176
182 182 182
177 177 177
166 166 166
173 173 173
170 170 170
172 172 172
169 169 169
173 173 173
181 181 181
178 178 178
165 165 165
145 145 145
139 139 139
154 154 154
162 162 162
161 161 161
166 166 166
186 186 186
209 209 209
220 220 220
209 209 209
186 186 186
157 157 157
175 175 175
183 183 183
181 181 181
170 170 170
154 154 154
170 170 170
192 192 192
205 205 205
202 202 202
216 216 216
216 216 216
198 198 198
173 173 173
150 150 150
149 149 149
144 144 144
136 136 136
124 124 124
134 134 134
140 140 140
144 144 144
168 168 168
188 188 188
199 199 199
196 196 196
180 180 180
195 195 195
203 203 203
195 195 195
189 189 189
199 199 199
194 194 194
178 178 178
155 155 155
152 152 152
158 158 158
156 156 156
145 145 145
129 129 129
115 115 115
128 128 128
149 149 149
173 173 173
191 191 191
198 198 198
224 224 224
245 245 245
223 223 223
195 195 195
174 174 174
195 195 195
208 208 208
204 204 204
186 186 186
162 162 162
155 155 155
172 172 172
182 182 182
183 183 183
196 196 196
196 196 196
183 183 183
162 162 162
165 165 165
163 163 163
153 153 153
142 142 142
152 152 152
155 155 155
148 148 148
135 135 135
150 150 150
165 165 165
173 173 173
178 178 178
181 181 181
202 202 202
211 211 211
202 202 202
204 204 204
217 217 217
211 211 211
190 190 190
164 164 164
137 137 137
132 132 132
130 130 130
122 122 122
120 120 120
125 125 125
138 138 138
159 159 159
186 186 186
209 209 209
220 220 220
215 215 215
228 228 228
215 215 215
190 190 190
181 181 181
206 206 206
223 223 223
217 217 217
195 195 195
168 168 168
161 161 161
169 169 169
168 168 168
161 161 161
171 171 171
171 171 171
161 161 161
162 162 162
170 170 170
169 169 169
158 158 158
166 166 166
179 179 179
182 182 182
174 174 174
157 157 157
150 150 150
174 174 174
192 192 192
201 201 201
194 194 194
193 193 193
201 201 201
194 194 194
204 204 204
218 218 218
211 211 211
190 190 190
164 164 164
142 142 142
148 148 148
145 145 145
135 135 135
148 148 148
154 154 154
151 151 151
160 160 160
187 187 187
211 211 211
223 223 223
212 212 212
199 199 199
192 192 192
173 173 173
177 177 177
200 200 200
215 215 215
210 210 210
190 190 190
165 165 165
185 185 185
196 196 196
194 194 194
179 179 179
157 157 157
143 143 143
142 142 142
158 158 158
166 166 166
165 165 165
161 161 161
185 185 185
203 203 203
208 208 208
196 196 196
174 174 174
160 160 160
182 182 182
203 203 203
213 213 213
205 205 205
184 184 184
180 180 180
175 175 175
189 189 189
199 199 199
195 195 195
178 178 178
155 155 155
169 169 169
177 177 177
173 173 173
160 160 160
174 174 174
183 183 183
179 179 179
166 166 166
177 177 177
196 196 196
205 205 205
197 197 197
178 178 178
165 165 165
151 151 151
163 163 163
182 182 182
192 192 192
189 189 189
174 174 174
178 178 178
203 203 203
220 220 220
216 216 216
195 195 195
169 169 169
151 151 151
151 151 151
146 146 146
153 153 153
164 164 164
172 172 172
195 195 195
218 218 218
225 225 225
208 208 208
182 182 182
173 173 173
178 178 178
198 198 198
207 207 207
200 200 200
180 180 180
156 156 156
151 151 151
167 167 167
174 174 174
171 171 171
158 158 158
173 173 173
194 194 194
205 205 205
200 200 200
182 182 182
198 198 198
211 211 211
206 206 206
187 187 187
162 162 162
173 173 173
179 179 179
173 173 173
159 159 159
148 148 148
147 147 147
143 143 143
158 158 158
165 165 165
163 163 163
153 153 153
181 181 181
207 207 207
226 226 226
221 221 221
199 199 199
171 171 171
159 159 159
159 159 159
157 157 157
168 168 168
189 189 189
201 201 201
197 197 197
212 212 212
218 218 218
203 203 203
188 188 188
191 191 191
185 185 185
181 181 181
188 188 188
193 193 193
186 186 186
168 168 168
146 146 146
152 152 152
152 152 152
144 144 144
157 157 157
185 185 185
211 211 211
229 229 229
220 220 220
196 196 196
214 214 214
234 234 234
225 225 225
199 199 199
171 171 171
147 147 147
151 151 151
149 149 149
167 167 167
176 176 176
176 176 176
158 158 158
155 155 155
144 144 144
136 136 136
147 147 147
173 173 173
195 195 195
209 209 209
205 205 205
188 188 188
172 172 172
158 158 158
166 166 166
168 168 168
183 183 183
209 209 209
229 229 229
222 222 222
199 199 199
195 195 195
189 189 189
191 191 191
199 199 199
192 192 192
189 189 189
212 212 212
222 222 222
210 210 210
186 186 186
159 159 159
144 144 144
156 156 156
162 162 162
159 159 159
186 186 186
213 213 213
232 232 232
222 222 222
197 197 197
211 211 211
229 229 229
221 221 221
197 197 197
169 169 169
141 141 141
142 142 142
168 168 168
190 190 190
204 204 204
203 203 203
174 174 174
171 171 171
158 158 158
139 139 139
133 133 133
156 156 156
173 173 173
183 183 183
197 197 197
206 206 206
198 198 198
179 179 179
167 167 167
169 169 169
186 186 186
215 215 215
242 242 242
232 232 232
203 203 203
174 174 174
173 173 173
185 185 185
192 192 192
186 186 186
197 197 197
226 226 226
251 251 251
224 224 224
194 194 194
165 165 165
164 164 164
181 181 181
190 190 190
186 186 186
175 175 175
197 197 197
208 208 208
203 203 203
184 184 184
193 193 193
204 204 204
199 199 199
182 182 182
166 166 166
156 156 156
151 151 151
179 179 179
206 206 206
228 228 228
226 226 226
182 182 182
177 177 177
163 163 163
143 143 143
120 120 120
134 134 134
163 163 163
191 191 191
218 218 218
234 234 234
219 219 219
193 193 193
164 164 164
160 160 160
178 178 178
202 202 202
217 217 217
213 213 213
193 193 193
167 167 167
154 154 154
168 168 168
174 174 174
169 169 169
191 191 191
216 216 216
228 228 228
214 214 214
189 189 189
161 161 161
179 179 179
202 202 202
215 215 215
209 209 209
188 188 188
173 173 173
180 180 180
177 177 177
173 173 173
185 185 185
186 186 186
180 180 180
192 192 192
191 191 191
178 178 178
157 157 157
180 180 180
207 207 207
230 230 230
227 227 227
177 177 177
173 173 173
160 160 160
140 140 140
117 117 117
135 135 135
164 164 164
193 193 193
221 221 221
240 240 240
222 222 222
194 194 194
166 166 166
144 144 144
161 161 161
179 179 179
189 189 189
186 186 186
173 173 173
163 163 163
145 145 145
146 146 146
151 151 151
151 151 151
174 174 174
192 192 192
198 198 198
190 190 190
172 172 172
160 160 160
186 186 186
212 212 212
229 229 229
220 220 220
195 195 195
168 168 168
152 152 152
171 171 171
196 196 196
213 213 213
214 214 214
197 197 197
212 212 212
211 211 211
193 193 193
169 169 169
170 170 170
193 193 193
207 207 207
206 206 206
163 163 163
160 160 160
148 148 148
130 130 130
133 133 133
137 137 137
156 156 156
182 182 182
203 203 203
213 213 213
204 204 204
183 183 183
157 157 157
150 150 150
145 145 145
165 165 165
186 186 186
200 200 200
199 199 199
185 185 185
163 163 163
139 139 139
141 141 141
148 148 148
153 153 153
164 164 164
169 169 169
163 163 163
167 167 167
179 179 179
181 181 181
203 203 203
216 216 216
209 209 209
189 189 189
163 163 163
160 160 160
179 179 179
208 208 208
236 236 236
238 238 238
210 210 210
216 216 216
215 215 215
196 196 196
171 171 171
152 152 152
170 170 170
180 180 180
179 179 179
143 143 143
140 140 140
130 130 130
146 146 146
158 158 158
163 163 163
158 158 158
162 162 162
178 178 178
184 184 184
178 178 178
164 164 164
156 156 156
155 155 155
149 149 149
175 175 175
201 201 201
220 220 220
219 219 219
199 199 199
173 173 173
164 164 164
167 167 167
161 161 161
157 157 157
158 158 158
159 159 159
156 156 156
177 177 177
191 191 191
193 193 193
182 182 182
191 191 191
186 186 186
171 171 171
180 180 180
190 190 190
186 186 186
204 204 204
228 228 228
229 229 229
206 206 206
201 201 201
200 200 200
185 185 185
163 163 163
170 170 170
181 181 181
182 182 182
171 171 171
124 124 124
124 124 124
143 143 143
164 164 164
180 180 180
186 186 186
180 180 180
164 164 164
150 150 150
154 154 154
155 155 155
155 155 155
148 148 148
151 151 151
148 148 148
176 176 176
201 201 201
221 221 221
220 220 220
200 200 200
174 174 174
186 186 186
190 190 190
181 181 181
164 164 164
154 154 154
155 155 155
155 155 155
176 176 176
190 190 190
192 192 192
181 181 181
168 168 168
160 160 160
180 180 180
204 204 204
219 219 219
213 213 213
192 192 192
201 201 201
202 202 202
188 188 188
177 177 177
176 176 176
169 169 169
164 164 164
186 186 186
201 201 201
202 202 202
188 188 188
142 142 142
142 142 142
152 152 152
176 176 176
195 195 195
203 203 203
195 195 195
176 176 176
152 152 152
158 158 158
164 164 164
160 160 160
164 164 164
162 162 162
151 151 151
166 166 166
188 188 188
201 201 201
201 201 201
186 186 186
181 181 181
199 199 199
205 205 205
194 194 194
174 174 174
149 149 149
143 143 143
146 146 146
165 165 165
177 177 177
179 179 179
177 177 177
179 179 179
169 169 169
188 188 188
217 217 217
244 244 244
231 231 231
202 202 202
173 173 173
173 173 173
163 163 163
160 160 160
171 171 171
173 173 173
169 169 169
193 193 193
210 210 210
211 211 211
195 195 195
154 154 154
154 154 154
159 159 159
186 186 186
209 209 209
222 222 222
212 212 212
189 189 189
167 167 167
184 184 184
193 193 193
188 188 188
188 188 188
185 185 185
171 171 171
150 150 150
167 167 167
183 183 183
190 190 190
184 184 184
181 181 181
199 199 199
204 204 204
194 194 194
175 175 175
157 157 157
134 134 134
131 131 131
147 147 147
157 157 157
165 165 165
177 177 177
178 178 178
169 169 169
184 184 184
211 211 211
229 229 229
222 222 222
197 197 197
170 170 170
144 144 144
147 147 147
155 155 155
165 165 165
167 167 167
164 164 164
186 186 186
201 201 201
202 202 202
188 188 188
158 158 158
159 159 159
162 162 162
191 191 191
218 218 218
235 235 235
220 220 220
194 194 194
184 184 184
208 208 208
221 221 221
213 213 213
204 204 204
200 200 200
183 183 183
160 160 160
162 162 162
178 178 178
184 184 184
178 178 178
170 170 170
190 190 190
208 208 208
211 211 211
197 197 197
174 174 174
148 148 148
120 120 120
125 125 125
139 139 139
156 156 156
166 166 166
167 167 167
168 168 168
171 171 171
190 190 190
200 200 200
197 197 197
180 180 180
157 157 157
143 143 143
155 155 155
159 159 159
156 156 156
152 152 152
151 151 151
169 169 169
181 181 181
181 181 181
171 171 171
153 153 153
154 154 154
157 157 157
183 183 183
205 205 205
216 216 216
207 207 207
186 186 186
191 191 191
220 220 220
243 243 243
227 227 227
206 206 206
202 202 202
184 184 184
161 161 161
149 149 149
162 162 162
167 167 167
163 163 163
173 173 173
201 201 201
225 225 225
230 230 230
209 209 209
182 182 182
153 153 153
125 125 125
121 121 121
124 124 124
139 139 139
148 148 148
162 162 162
176 176 176
180 180 180
172 172 172
171 171 171
169 169 169
157 157 157
138 138 138
155 155 155
168 168 168
172 172 172
166 166 166
152 152 152
132 132 132
147 147 147
156 156 156
156 156 156
148 148 148
141 141 141
142 142 142
151 151 151
170 170 170
182 182 182
189 189 189
195 195 195
195 195 195
187 187 187
210 210 210
225 225 225
216 216 216
192 192 192
189 189 189
174 174 174
160 160 160
160 160 160
150 150 150
145 145 145
142 142 142
170 170 170
196 196 196
217 217 217
221 221 221
204 204 204
179 179 179
151 151 151
137 137 137
149 149 149
152 152 152
147 147 147
140 140 140
160 160 160
173 173 173
177 177 177
170 170 170
154 154 154
140 140 140
131 131 131
139 139 139
159 159 159
172 172 172
177 177 177
170 170 170
155 155 155
138 138 138
122 122 122
129 129 129
133 133 133
136 136 136
123 123 123
128 128 128
151 151 151
170 170 170
183 183 183
196 196 196
214 214 214
214 214 214
197 197 197
188 188 188
196 196 196
191 191 191
175 175 175
167 167 167
174 174 174
184 184 184
183 183 183
171 171 171
152 152 152
147 147 147
159 159 159
180 180 180
195 195 195
197 197 197
185 185 185
165 165 165
141 141 141
161 161 161
175 175 175
180 180 180
173 173 173
158 158 158
163 163 163
179 179 179
184 184 184
178 178 178
162 162 162
141 141 141
127 127 127
135 135 135
154 154 154
166 166 166
170 170 170
165 165 165
157 157 157
144 144 144
127 127 127
145 145 145
158 158 158
163 163 163
118 118 118
121 121 121
143 143 143
161 161 161
172 172 172
197 197 197
215 215 215
215 215 215
198 198 198
173 173 173
167 167 167
164 164 164
152 152 152
167 167 167
189 189 189
203 203 203
201 201 201
186 186 186
163 163 163
159 159 159
173 173 173
177 177 177
170 170 170
169 169 169
172 172 172
169 169 169
158 158 158
180 180 180
198 198 198
205 205 205
196 196 196
176 176 176
183 183 183
204 204 204
212 212 212
202 202 202
181 181 181
156 156 156
139 139 139
124 124 124
141 141 141
152 152 152
155 155 155
159 159 159
155 155 155
143 143 143
143 143 143
164 164 164
180 180 180
186 186 186
118 118 118
121 121 121
129 129 129
144 144 144
163 163 163
184 184 184
198 198 198
198 198 198
185 185 185
163 163 163
138 138 138
135 135 135
144 144 144
170 170 170
193 193 193
207 207 207
206 206 206
189 189 189
166 166 166
164 164 164
178 178 178
182 182 182
175 175 175
189 189 189
200 200 200
197 197 197
180 180 180
190 190 190
213 213 213
223 223 223
210 210 210
186 186 186
194 194 194
221 221 221
236 236 236
219 219 219
192 192 192
163 163 163
143 143 143
130 130 130
150 150 150
164 164 164
169 169 169
165 165 165
152 152 152
134 134 134
153 153 153
177 177 177
196 196 196
203 203 203
