P3
50 50
255
100 100 100
111 111 111
118 118 118
118 118 118
114 114 114
127 127 127
134 134 134
133 133 133
126 126 126
113 113 113
132 132 132
156 156 156
176 176 176
188 188 188
189 189 189
177 177 177
170 170 170
177 177 177
180 180 180
180 180 180
170 170 170
152 152 152
172 172 172
193 193 193
205 205 205
201 201 201
184 184 184
165 165 165
182 182 182
190 190 190
185 185 185
170 170 170
158 158 158
157 157 157
148 148 148
132 132 132
113 113 113
133 133 133
152 152 152
166 166 166
170 170 170
165 165 165
151 151 151
131 131 131
115 115 115
112 112 112
116 116 116
113 113 113
104 104 104
92 92 92
125 125 125
128 128 128
135 135 135
135 135 135
131 131 131
145 145 145
154 154 154
153 153 153
145 145 145
131 131 131
137 137 137
158 158 158
178 178 178
191 191 191
192 192 192
180 180 180
188 188 188
198 198 198
203 203 203
204 204 204
190 190 190
167 167 167
175 175 175
197 197 197
210 210 210
205 205 205
187 187 187
171 171 171
190 190 190
200 200 200
194 194 194
177 177 177
185 185 185
185 185 185
173 173 173
153 153 153
142 142 142
145 145 145
166 166 166
182 182 182
188 188 188
181 181 181
165 165 165
143 143 143
132 132 132
134 134 134
137 137 137
134 134 134
124 124 124
116 116 116
150 150 150
153 153 153
148 148 148
147 147 147
142 142 142
159 159 159
168 168 168
168 168 168
158 158 158
158 158 158
166 166 166
165 165 165
170 170 170
181 181 181
181 181 181
175 175 175
196 196 196
208 208 208
217 217 217
218 218 218
200 200 200
175 175 175
167 167 167
187 187 187
197 197 197
193 193 193
178 178 178
168 168 168
186 186 186
194 194 194
189 189 189
195 195 195
211 211 211
210 210 210
193 193 193
171 171 171
170 170 170
160 160 160
172 172 172
189 189 189
195 195 195
188 188 188
170 170 170
153 153 153
157 157 157
153 153 153
155 155 155
151 151 151
139 139 139
139 139 139
171 171 171
175 175 175
168 168 168
153 153 153
147 147 147
164 164 164
174 174 174
174 174 174
163 163 163
183 183 183
195 195 195
194 194 194
180 180 180
162 162 162
163 163 163
170 170 170
190 190 190
200 200 200
211 211 211
212 212 212
195 195 195
171 171 171
161 161 161
167 167 167
175 175 175
172 172 172
160 160 160
155 155 155
171 171 171
178 178 178
179 179 179
206 206 206
228 228 228
227 227 227
203 203 203
198 198 198
198 198 198
184 184 184
167 167 167
183 183 183
189 189 189
182 182 182
166 166 166
173 173 173
179 179 179
174 174 174
167 167 167
162 162 162
149 149 149
157 157 157
185 185 185
190 190 190
182 182 182
165 165 165
143 143 143
160 160 160
169 169 169
169 169 169
177 177 177
203 203 203
221 221 221
219 219 219
199 199 199
173 173 173
145 145 145
157 157 157
173 173 173
181 181 181
190 190 190
191 191 191
179 179 179
177 177 177
185 185 185
180 180 180
188 188 188
185 185 185
171 171 171
151 151 151
152 152 152
169 169 169
179 179 179
201 201 201
219 219 219
218 218 218
202 202 202
223 223 223
222 222 222
201 201 201
175 175 175
167 167 167
174 174 174
176 176 176
170 170 170
187 187 187
194 194 194
188 188 188
171 171 171
164 164 164
151 151 151
170 170 170
189 189 189
194 194 194
186 186 186
168 168 168
147 147 147
165 165 165
180 180 180
185 185 185
182 182 182
210 210 210
236 236 236
233 233 233
206 206 206
177 177 177
149 149 149
138 138 138
150 150 150
157 157 157
164 164 164
165 165 165
174 174 174
193 193 193
203 203 203
197 197 197
193 193 193
190 190 190
175 175 175
153 153 153
164 164 164
184 184 184
196 196 196
194 194 194
195 195 195
194 194 194
207 207 207
230 230 230
229 229 229
205 205 205
178 178 178
187 187 187
203 203 203
205 205 205
191 191 191
189 189 189
197 197 197
202 202 202
198 198 198
181 181 181
158 158 158
173 173 173
180 180 180
185 185 185
177 177 177
171 171 171
174 174 174
186 186 186
206 206 206
214 214 214
202 202 202
200 200 200
218 218 218
216 216 216
197 197 197
180 180 180
176 176 176
161 161 161
151 151 151
167 167 167
176 176 176
174 174 174
177 177 177
197 197 197
208 208 208
201 201 201
184 184 184
181 181 181
168 168 168
148 148 148
167 167 167
189 189 189
202 202 202
200 200 200
184 184 184
170 170 170
194 194 194
211 211 211
210 210 210
193 193 193
175 175 175
203 203 203
228 228 228
232 232 232
209 209 209
185 185 185
212 212 212
231 231 231
222 222 222
197 197 197
169 169 169
165 165 165
162 162 162
166 166 166
179 179 179
195 195 195
199 199 199
198 198 198
226 226 226
242 242 242
220 220 220
191 191 191
191 191 191
190 190 190
196 196 196
205 205 205
198 198 198
179 179 179
157 157 157
175 175 175
185 185 185
182 182 182
169 169 169
187 187 187
196 196 196
190 190 190
174 174 174
168 168 168
168 168 168
158 158 158
170 170 170
189 189 189
198 198 198
194 194 194
177 177 177
156 156 156
173 173 173
184 184 184
184 184 184
172 172 172
188 188 188
209 209 209
233 233 233
238 238 238
212 212 212
188 188 188
217 217 217
241 241 241
229 229 229
201 201 201
172 172 172
150 150 150
155 155 155
166 166 166
191 191 191
211 211 211
217 217 217
202 202 202
222 222 222
235 235 235
216 216 216
189 189 189
162 162 162
186 186 186
209 209 209
222 222 222
212 212 212
189 189 189
162 162 162
172 172 172
181 181 181
179 179 179
167 167 167
168 168 168
174 174 174
170 170 170
184 184 184
197 197 197
196 196 196
182 182 182
185 185 185
211 211 211
228 228 228
219 219 219
195 195 195
167 167 167
147 147 147
156 156 156
155 155 155
169 169 169
198 198 198
225 225 225
238 238 238
217 217 217
197 197 197
179 179 179
202 202 202
216 216 216
210 210 210
190 190 190
164 164 164
138 138 138
162 162 162
174 174 174
190 190 190
210 210 210
215 215 215
201 201 201
200 200 200
206 206 206
196 196 196
176 176 176
158 158 158
183 183 183
205 205 205
216 216 216
207 207 207
189 189 189
166 166 166
159 159 159
167 167 167
169 169 169
176 176 176
173 173 173
163 163 163
177 177 177
204 204 204
224 224 224
223 223 223
201 201 201
190 190 190
220 220 220
248 248 248
230 230 230
201 201 201
171 171 171
142 142 142
127 127 127
138 138 138
166 166 166
194 194 194
217 217 217
227 227 227
211 211 211
186 186 186
161 161 161
178 178 178
187 187 187
183 183 183
169 169 169
151 151 151
156 156 156
173 173 173
175 175 175
177 177 177
193 193 193
197 197 197
186 186 186
183 183 183
191 191 191
186 186 186
170 170 170
152 152 152
180 180 180
207 207 207
229 229 229
226 226 226
202 202 202
175 175 175
147 147 147
171 171 171
190 190 190
200 200 200
195 195 195
191 191 191
192 192 192
211 211 211
238 238 238
236 236 236
208 208 208
183 183 183
207 207 207
221 221 221
214 214 214
192 192 192
165 165 165
139 139 139
126 126 126
135 135 135
154 154 154
177 177 177
194 194 194
200 200 200
190 190 190
171 171 171
147 147 147
151 151 151
158 158 158
155 155 155
160 160 160
177 177 177
185 185 185
201 201 201
203 203 203
190 190 190
169 169 169
171 171 171
171 171 171
190 190 190
200 200 200
194 194 194
177 177 177
154 154 154
179 179 179
205 205 205
225 225 225
223 223 223
201 201 201
174 174 174
154 154 154
180 180 180
203 203 203
216 216 216
209 209 209
218 218 218
219 219 219
201 201 201
218 218 218
216 216 216
197 197 197
172 172 172
183 183 183
192 192 192
188 188 188
172 172 172
174 174 174
166 166 166
150 150 150
146 146 146
156 156 156
159 159 159
167 167 167
171 171 171
164 164 164
150 150 150
141 141 141
142 142 142
136 136 136
152 152 152
178 178 178
200 200 200
211 211 211
225 225 225
229 229 229
208 208 208
181 181 181
153 153 153
167 167 167
186 186 186
194 194 194
189 189 189
173 173 173
150 150 150
167 167 167
189 189 189
202 202 202
200 200 200
188 188 188
177 177 177
161 161 161
187 187 187
209 209 209
217 217 217
207 207 207
233 233 233
235 235 235
210 210 210
190 190 190
189 189 189
181 181 181
179 179 179
167 167 167
163 163 163
182 182 182
198 198 198
202 202 202
190 190 190
169 169 169
171 171 171
184 184 184
187 187 187
178 178 178
160 160 160
157 157 157
158 158 158
154 154 154
156 156 156
149 149 149
166 166 166
187 187 187
213 213 213
230 230 230
230 230 230
235 235 235
211 211 211
183 183 183
154 154 154
155 155 155
170 170 170
177 177 177
173 173 173
159 159 159
142 142 142
148 148 148
165 165 165
174 174 174
186 186 186
188 188 188
177 177 177
168 168 168
197 197 197
225 225 225
242 242 242
220 220 220
218 218 218
219 219 219
201 201 201
176 176 176
189 189 189
201 201 201
199 199 199
183 183 183
170 170 170
197 197 197
220 220 220
226 226 226
208 208 208
182 182 182
192 192 192
211 211 211
216 216 216
201 201 201
177 177 177
186 186 186
187 187 187
177 177 177
162 162 162
156 156 156
178 178 178
192 192 192
208 208 208
222 222 222
209 209 209
211 211 211
197 197 197
173 173 173
147 147 147
136 136 136
148 148 148
158 158 158
161 161 161
156 156 156
142 142 142
135 135 135
155 155 155
170 170 170
177 177 177
176 176 176
166 166 166
165 165 165
193 193 193
218 218 218
229 229 229
214 214 214
192 192 192
193 193 193
181 181 181
173 173 173
196 196 196
210 210 210
207 207 207
189 189 189
172 172 172
200 200 200
224 224 224
231 231 231
211 211 211
184 184 184
203 203 203
231 231 231
241 241 241
215 215 215
193 193 193
212 212 212
215 215 215
199 199 199
175 175 175
158 158 158
179 179 179
194 194 194
196 196 196
198 198 198
182 182 182
183 183 183
174 174 174
156 156 156
133 133 133
122 122 122
139 139 139
150 150 150
153 153 153
147 147 147
135 135 135
151 151 151
176 176 176
196 196 196
206 206 206
200 200 200
181 181 181
157 157 157
177 177 177
195 195 195
201 201 201
192 192 192
173 173 173
182 182 182
195 195 195
195 195 195
189 189 189
201 201 201
199 199 199
183 183 183
163 163 163
187 187 187
206 206 206
209 209 209
196 196 196
174 174 174
199 199 199
223 223 223
230 230 230
210 210 210
205 205 205
232 232 232
238 238 238
212 212 212
184 184 184
172 172 172
192 192 192
201 201 201
195 195 195
178 178 178
175 175 175
180 180 180
174 174 174
158 158 158
137 137 137
113 113 113
125 125 125
135 135 135
137 137 137
133 133 133
132 132 132
161 161 161
189 189 189
216 216 216
234 234 234
222 222 222
195 195 195
167 167 167
155 155 155
168 168 168
172 172 172
166 166 166
175 175 175
201 201 201
221 221 221
221 221 221
201 201 201
181 181 181
179 179 179
167 167 167
147 147 147
167 167 167
180 180 180
182 182 182
177 177 177
171 171 171
182 182 182
199 199 199
202 202 202
210 210 210
215 215 215
223 223 223
227 227 227
207 207 207
180 180 180
184 184 184
209 209 209
223 223 223
214 214 214
191 191 191
201 201 201
208 208 208
199 199 199
178 178 178
153 153 153
126 126 126
111 111 111
129 129 129
142 142 142
149 149 149
147 147 147
162 162 162
191 191 191
219 219 219
240 240 240
225 225 225
197 197 197
168 168 168
168 168 168
159 159 159
143 143 143
150 150 150
179 179 179
208 208 208
234 234 234
234 234 234
208 208 208
180 180 180
154 154 154
145 145 145
134 134 134
156 156 156
180 180 180
199 199 199
207 207 207
198 198 198
177 177 177
171 171 171
194 194 194
216 216 216
222 222 222
206 206 206
200 200 200
187 187 187
167 167 167
185 185 185
210 210 210
225 225 225
215 215 215
192 192 192
219 219 219
232 232 232
216 216 216
190 190 190
161 161 161
133 133 133
125 125 125
145 145 145
161 161 161
169 169 169
167 167 167
156 156 156
180 180 180
202 202 202
213 213 213
205 205 205
185 185 185
196 196 196
196 196 196
184 184 184
163 163 163
145 145 145
173 173 173
198 198 198
216 216 216
216 216 216
198 198 198
173 173 173
146 146 146
137 137 137
137 137 137
166 166 166
194 194 194
221 221 221
235 235 235
218 218 218
191 191 191
162 162 162
184 184 184
202 202 202
207 207 207
195 195 195
173 173 173
163 163 163
150 150 150
174 174 174
195 195 195
205 205 205
198 198 198
194 194 194
218 218 218
231 231 231
215 215 215
189 189 189
161 161 161
132 132 132
133 133 133
155 155 155
173 173 173
182 182 182
180 180 180
167 167 167
179 179 179
198 198 198
207 207 207
198 198 198
201 201 201
222 222 222
224 224 224
204 204 204
177 177 177
167 167 167
166 166 166
177 177 177
189 189 189
190 190 190
177 177 177
158 158 158
134 134 134
124 124 124
138 138 138
167 167 167
196 196 196
224 224 224
241 241 241
221 221 221
192 192 192
163 163 163
166 166 166
179 179 179
182 182 182
173 173 173
157 157 157
136 136 136
135 135 135
156 156 156
171 171 171
178 178 178
196 196 196
212 212 212
199 199 199
206 206 206
196 196 196
176 176 176
152 152 152
125 125 125
135 135 135
157 157 157
175 175 175
185 185 185
182 182 182
169 169 169
182 182 182
202 202 202
212 212 212
203 203 203
208 208 208
236 236 236
239 239 239
211 211 211
182 182 182
194 194 194
192 192 192
179 179 179
161 161 161
161 161 161
159 159 159
156 156 156
145 145 145
127 127 127
131 131 131
158 158 158
184 184 184
205 205 205
213 213 213
203 203 203
181 181 181
155 155 155
154 154 154
158 158 158
155 155 155
148 148 148
135 135 135
120 120 120
134 134 134
159 159 159
180 180 180
194 194 194
201 201 201
219 219 219
173 173 173
177 177 177
171 171 171
156 156 156
136 136 136
117 117 117
134 134 134
159 159 159
179 179 179
192 192 192
193 193 193
180 180 180
179 179 179
191 191 191
199 199 199
191 191 191
198 198 198
218 218 218
219 219 219
200 200 200
199 199 199
216 216 216
214 214 214
195 195 195
170 170 170
180 180 180
188 188 188
184 184 184
169 169 169
148 148 148
146 146 146
143 143 143
164 164 164
182 182 182
197 197 197
200 200 200
188 188 188
167 167 167
161 161 161
166 166 166
161 161 161
148 148 148
137 137 137
133 133 133
139 139 139
166 166 166
189 189 189
206 206 206
207 207 207
205 205 205
145 145 145
149 149 149
144 144 144
139 139 139
136 136 136
126 126 126
146 146 146
174 174 174
199 199 199
219 219 219
220 220 220
201 201 201
199 199 199
203 203 203
192 192 192
172 172 172
177 177 177
190 190 190
191 191 191
179 179 179
203 203 203
223 223 223
220 220 220
199 199 199
181 181 181
204 204 204
217 217 217
210 210 210
189 189 189
163 163 163
167 167 167
163 163 163
171 171 171
198 198 198
220 220 220
225 225 225
206 206 206
180 180 180
161 161 161
174 174 174
176 176 176
168 168 168
159 159 159
158 158 158
149 149 149
163 163 163
186 186 186
201 201 201
202 202 202
189 189 189
117 117 117
126 126 126
137 137 137
142 142 142
139 139 139
128 128 128
150 150 150
179 179 179
208 208 208
236 236 236
237 237 237
210 210 210
206 206 206
211 211 211
199 199 199
177 177 177
152 152 152
162 162 162
163 163 163
170 170 170
192 192 192
207 207 207
205 205 205
189 189 189
190 190 190
219 219 219
245 245 245
228 228 228
199 199 199
175 175 175
181 181 181
177 177 177
173 173 173
201 201 201
227 227 227
232 232 232
211 211 211
183 183 183
177 177 177
192 192 192
196 196 196
186 186 186
185 185 185
184 184 184
172 172 172
152 152 152
171 171 171
183 183 183
184 184 184
174 174 174
108 108 108
122 122 122
133 133 133
137 137 137
134 134 134
124 124 124
146 146 146
174 174 174
200 200 200
220 220 220
220 220 220
201 201 201
197 197 197
202 202 202
191 191 191
171 171 171
149 149 149
144 144 144
156 156 156
166 166 166
174 174 174
182 182 182
181 181 181
169 169 169
187 187 187
214 214 214
231 231 231
221 221 221
196 196 196
178 178 178
185 185 185
180 180 180
191 191 191
202 202 202
208 208 208
212 212 212
197 197 197
184 184 184
183 183 183
201 201 201
205 205 205
193 193 193
207 207 207
206 206 206
189 189 189
166 166 166
150 150 150
159 159 159
160 160 160
152 152 152
123 123 123
137 137 137
147 147 147
150 150 150
145 145 145
132 132 132
143 143 143
159 159 159
180 180 180
193 193 193
193 193 193
181 181 181
177 177 177
181 181 181
173 173 173
158 158 158
157 157 157
148 148 148
164 164 164
175 175 175
193 193 193
203 203 203
196 196 196
178 178 178
172 172 172
192 192 192
202 202 202
197 197 197
179 179 179
171 171 171
177 177 177
179 179 179
203 203 203
218 218 218
212 212 212
202 202 202
216 216 216
211 211 211
191 191 191
194 194 194
197 197 197
201 201 201
218 218 218
216 216 216
197 197 197
171 171 171
153 153 153
137 137 137
134 134 134
127 127 127
142 142 142
146 146 146
157 157 157
160 160 160
154 154 154
140 140 140
163 163 163
183 183 183
194 194 194
192 192 192
177 177 177
156 156 156
153 153 153
155 155 155
150 150 150
158 158 158
157 157 157
148 148 148
162 162 162
180 180 180
202 202 202
213 213 213
206 206 206
185 185 185
160 160 160
166 166 166
173 173 173
169 169 169
157 157 157
155 155 155
160 160 160
177 177 177
200 200 200
213 213 213
208 208 208
216 216 216
242 242 242
230 230 230
202 202 202
176 176 176
178 178 178
193 193 193
208 208 208
206 206 206
190 190 190
169 169 169
159 159 159
149 149 149
149 149 149
152 152 152
154 154 154
154 154 154
158 158 158
161 161 161
155 155 155
150 150 150
177 177 177
202 202 202
218 218 218
215 215 215
195 195 195
169 169 169
146 146 146
131 131 131
142 142 142
149 149 149
149 149 149
140 140 140
152 152 152
175 175 175
196 196 196
205 205 205
199 199 199
180 180 180
165 165 165
163 163 163
152 152 152
141 141 141
136 136 136
136 136 136
142 142 142
165 165 165
184 184 184
193 193 193
190 190 190
211 211 211
230 230 230
222 222 222
198 198 198
170 170 170
156 156 156
175 175 175
186 186 186
184 184 184
172 172 172
166 166 166
169 169 169
174 174 174
174 174 174
178 178 178
160 160 160
159 159 159
150 150 150
153 153 153
148 148 148
153 153 153
182 182 182
208 208 208
229 229 229
224 224 224
200 200 200
173 173 173
153 153 153
152 152 152
160 160 160
159 159 159
149 149 149
133 133 133
140 140 140
161 161 161
177 177 177
185 185 185
180 180 180
165 165 165
164 164 164
162 162 162
151 151 151
134 134 134
137 137 137
153 153 153
169 169 169
176 176 176
173 173 173
168 168 168
170 170 170
191 191 191
202 202 202
198 198 198
181 181 181
158 158 158
136 136 136
151 151 151
159 159 159
161 161 161
166 166 166
172 172 172
187 187 187
194 194 194
194 194 194
200 200 200
156 156 156
155 155 155
146 146 146
143 143 143
133 133 133
148 148 148
174 174 174
198 198 198
212 212 212
209 209 209
191 191 191
166 166 166
158 158 158
177 177 177
187 187 187
186 186 186
173 173 173
153 153 153
129 129 129
141 141 141
154 154 154
159 159 159
156 156 156
148 148 148
155 155 155
159 159 159
154 154 154
144 144 144
148 148 148
172 172 172
192 192 192
203 203 203
198 198 198
181 181 181
176 176 176
167 167 167
173 173 173
170 170 170
158 158 158
140 140 140
146 146 146
167 167 167
182 182 182
186 186 186
191 191 191
198 198 198
196 196 196
204 204 204
205 205 205
213 213 213
144 144 144
152 152 152
158 158 158
156 156 156
146 146 146
135 135 135
158 158 158
177 177 177
187 187 187
184 184 184
171 171 171
152 152 152
174 174 174
197 197 197
213 213 213
210 210 210
192 192 192
167 167 167
140 140 140
126 126 126
131 131 131
132 132 132
142 142 142
164 164 164
181 181 181
187 187 187
182 182 182
166 166 166
156 156 156
183 183 183
208 208 208
224 224 224
217 217 217
194 194 194
180 180 180
170 170 170
152 152 152
142 142 142
132 132 132
131 131 131
158 158 158
182 182 182
200 200 200
206 206 206
209 209 209
220 220 220
209 209 209
198 198 198
200 200 200
207 207 207
143 143 143
158 158 158
165 165 165
162 162 162
151 151 151
143 143 143
159 159 159
167 167 167
165 165 165
157 157 157
147 147 147
152 152 152
180 180 180
207 207 207
228 228 228
224 224 224
201 201 201
173 173 173
145 145 145
154 154 154
160 160 160
157 157 157
156 156 156
182 182 182
204 204 204
215 215 215
206 206 206
185 185 185
159 159 159
184 184 184
209 209 209
225 225 225
217 217 217
194 194 194
173 173 173
163 163 163
146 146 146
139 139 139
130 130 130
140 140 140
161 161 161
186 186 186
206 206 206
213 213 213
211 211 211
223 223 223
212 212 212
188 188 188
182 182 182
187 187 187
140 140 140
155 155 155
161 161 161
159 159 159
149 149 149
163 163 163
182 182 182
192 192 192
190 190 190
176 176 176
155 155 155
149 149 149
176 176 176
200 200 200
217 217 217
214 214 214
194 194 194
169 169 169
163 163 163
181 181 181
189 189 189
185 185 185
170 170 170
191 191 191
218 218 218
235 235 235
221 221 221
194 194 194
165 165 165
181 181 181
194 194 194
204 204 204
199 199 199
181 181 181
158 158 158
162 162 162
168 168 168
165 165 165
154 154 154
165 165 165
172 172 172
178 178 178
195 195 195
201 201 201
196 196 196
205 205 205
197 197 197
178 178 178
158 158 158
162 162 162
132 132 132
144 144 144
150 150 150
148 148 148
149 149 149
175 175 175
199 199 199
213 213 213
210 210 210
191 191 191
166 166 166
139 139 139
162 162 162
181 181 181
192 192 192
190 190 190
177 177 177
156 156 156
181 181 181
205 205 205
219 219 219
211 211 211
195 195 195
188 188 188
212 212 212
225 225 225
214 214 214
190 190 190
170 170 170
193 193 193
209 209 209
209 209 209
192 192 192
168 168 168
165 165 165
183 183 183
193 193 193
189 189 189
173 173 173
185 185 185
195 195 195
191 191 191
176 176 176
179 179 179
173 173 173
179 179 179
173 173 173
160 160 160
142 142 142
135 135 135
161 161 161
158 158 158
158 158 158
150 150 150
151 151 151
178 178 178
203 203 203
219 219 219
215 215 215
194 194 194
169 169 169
141 141 141
141 141 141
157 157 157
165 165 165
171 171 171
180 180 180
178 178 178
190 190 190
220 220 220
246 246 246
229 229 229
224 224 224
213 213 213
191 191 191
198 198 198
192 192 192
174 174 174
170 170 170
193 193 193
208 208 208
208 208 208
191 191 191
168 168 168
176 176 176
198 198 198
210 210 210
205 205 205
186 186 186
197 197 197
209 209 209
204 204 204
186 186 186
161 161 161
147 147 147
151 151 151
150 150 150
141 141 141
147 147 147
155 155 155
190 190 190
186 186 186
178 178 178
167 167 167
149 149 149
170 170 170
191 191 191
204 204 204
201 201 201
184 184 184
161 161 161
136 136 136
119 119 119
142 142 142
166 166 166
186 186 186
197 197 197
194 194 194
187 187 187
213 213 213
230 230 230
223 223 223
251 251 251
226 226 226
197 197 197
183 183 183
189 189 189
182 182 182
165 165 165
179 179 179
192 192 192
191 191 191
178 178 178
158 158 158
177 177 177
199 199 199
211 211 211
206 206 206
186 186 186
195 195 195
207 207 207
202 202 202
184 184 184
160 160 160
134 134 134
126 126 126
141 141 141
157 157 157
165 165 165
182 182 182
218 218 218
211 211 211
189 189 189
177 177 177
157 157 157
153 153 153
170 170 170
180 180 180
178 178 178
171 171 171
166 166 166
153 153 153
139 139 139
144 144 144
169 169 169
190 190 190
201 201 201
198 198 198
182 182 182
191 191 191
201 201 201
212 212 212
226 226 226
214 214 214
190 190 190
190 190 190
197 197 197
189 189 189
171 171 171
159 159 159
168 168 168
167 167 167
158 158 158
149 149 149
167 167 167
186 186 186
196 196 196
191 191 191
180 180 180
181 181 181
190 190 190
186 186 186
172 172 172
150 150 150
126 126 126
127 127 127
149 149 149
166 166 166
182 182 182
205 205 205
239 239 239
226 226 226
198 198 198
176 176 176
156 156 156
133 133 133
146 146 146
162 162 162
178 178 178
184 184 184
178 178 178
174 174 174
165 165 165
148 148 148
162 162 162
181 181 181
191 191 191
188 188 188
192 192 192
189 189 189
174 174 174
189 189 189
196 196 196
190 190 190
173 173 173
185 185 185
191 191 191
184 184 184
167 167 167
153 153 153
153 153 153
159 159 159
165 165 165
162 162 162
151 151 151
165 165 165
172 172 172
169 169 169
165 165 165
161 161 161
166 166 166
163 163 163
152 152 152
147 147 147
139 139 139
128 128 128
150 150 150
167 167 167
190 190 190
218 218 218
225 225 225
216 216 216
193 193 193
166 166 166
147 147 147
133 133 133
147 147 147
163 163 163
179 179 179
185 185 185
199 199 199
200 200 200
187 187 187
165 165 165
147 147 147
163 163 163
173 173 173
194 194 194
206 206 206
202 202 202
184 184 184
162 162 162
167 167 167
163 163 163
155 155 155
169 169 169
174 174 174
168 168 168
172 172 172
180 180 180
182 182 182
172 172 172
170 170 170
167 167 167
155 155 155
142 142 142
145 145 145
150 150 150
168 168 168
179 179 179
180 180 180
169 169 169
158 158 158
157 157 157
148 148 148
132 132 132
142 142 142
158 158 158
185 185 185
210 210 210
198 198 198
192 192 192
176 176 176
153 153 153
143 143 143
147 147 147
153 153 153
161 161 161
173 173 173
199 199 199
218 218 218
220 220 220
201 201 201
175 175 175
148 148 148
147 147 147
172 172 172
193 193 193
204 204 204
200 200 200
183 183 183
159 159 159
138 138 138
134 134 134
136 136 136
147 147 147
151 151 151
173 173 173
193 193 193
208 208 208
211 211 211
196 196 196
173 173 173
162 162 162
151 151 151
140 140 140
146 146 146
156 156 156
176 176 176
189 189 189
189 189 189
178 178 178
159 159 159
164 164 164
166 166 166
158 158 158
142 142 142
146 146 146
169 169 169
188 188 188
169 169 169
165 165 165
153 153 153
157 157 157
171 171 171
176 176 176
171 171 171
158 158 158
173 173 173
198 198 198
218 218 218
219 219 219
201 201 201
175 175 175
151 151 151
162 162 162
164 164 164
178 178 178
187 187 187
184 184 184
170 170 170
149 149 149
125 125 125
121 121 121
113 113 113
127 127 127
155 155 155
181 181 181
205 205 205
232 232 232
238 238 238
212 212 212
184 184 184
170 170 170
152 152 152
162 162 162
170 170 170
167 167 167
174 174 174
186 186 186
187 187 187
175 175 175
177 177 177
192 192 192
194 194 194
182 182 182
163 163 163
139 139 139
148 148 148
162 162 162
158 158 158
159 159 159
154 154 154
178 178 178
197 197 197
205 205 205
197 197 197
177 177 177
163 163 163
185 185 185
199 199 199
200 200 200
187 187 187
165 165 165
169 169 169
182 182 182
185 185 185
176 176 176
165 165 165
162 162 162
151 151 151
137 137 137
139 139 139
135 135 135
123 123 123
125 125 125
152 152 152
178 178 178
203 203 203
229 229 229
235 235 235
211 211 211
207 207 207
193 193 193
171 171 171
180 180 180
189 189 189
186 186 186
172 172 172
172 172 172
172 172 172
169 169 169
195 195 195
215 215 215
219 219 219
202 202 202
177 177 177
150 150 150
149 149 149
149 149 149
184 184 184
185 185 185
174 174 174
192 192 192
218 218 218
233 233 233
218 218 218
191 191 191
163 163 163
163 163 163
174 174 174
174 174 174
177 177 177
174 174 174
178 178 178
194 194 194
197 197 197
187 187 187
167 167 167
148 148 148
135 135 135
145 145 145
151 151 151
152 152 152
145 145 145
131 131 131
142 142 142
165 165 165
188 188 188
205 205 205
207 207 207
227 227 227
231 231 231
209 209 209
182 182 182
189 189 189
199 199 199
195 195 195
179 179 179
164 164 164
157 157 157
175 175 175
201 201 201
225 225 225
230 230 230
209 209 209
182 182 182
153 153 153
154 154 154
172 172 172
205 205 205
206 206 206
192 192 192
194 194 194
222 222 222
240 240 240
221 221 221
193 193 193
165 165 165
157 157 157
172 172 172
193 193 193
205 205 205
201 201 201
184 184 184
193 193 193
196 196 196
185 185 185
166 166 166
142 142 142
146 146 146
165 165 165
177 177 177
179 179 179
170 170 170
152 152 152
131 131 131
146 146 146
165 165 165
177 177 177
202 202 202
226 226 226
230 230 230
209 209 209
181 181 181
185 185 185
195 195 195
191 191 191
186 186 186
183 183 183
171 171 171
193 193 193
206 206 206
211 211 211
214 214 214
199 199 199
175 175 175
149 149 149
166 166 166
189 189 189
215 215 215
216 216 216
199 199 199
183 183 183
204 204 204
213 213 213
203 203 203
182 182 182
157 157 157
172 172 172
184 184 184
211 211 211
232 232 232
224 224 224
199 199 199
179 179 179
181 181 181
173 173 173
156 156 156
135 135 135
161 161 161
183 183 183
199 199 199
202 202 202
189 189 189
168 168 168
143 143 143
124 124 124
139 139 139
164 164 164
187 187 187
204 204 204
206 206 206
192 192 192
170 170 170
170 170 170
178 178 178
186 186 186
197 197 197
193 193 193
177 177 177
201 201 201
216 216 216
212 212 212
192 192 192
178 178 178
159 159 159
146 146 146
171 171 171
196 196 196
205 205 205
206 206 206
192 192 192
189 189 189
205 205 205
207 207 207
193 193 193
174 174 174
164 164 164
178 178 178
185 185 185
213 213 213
236 236 236
227 227 227
201 201 201
173 173 173
160 160 160
153 153 153
139 139 139
140 140 140
168 168 168
193 193 193
212 212 212
215 215 215
200 200 200
176 176 176
149 149 149
126 126 126
124 124 124
146 146 146
165 165 165
177 177 177
178 178 178
169 169 169
151 151 151
149 149 149
165 165 165
183 183 183
193 193 193
190 190 190
189 189 189
212 212 212
222 222 222
209 209 209
185 185 185
162 162 162
138 138 138
140 140 140
165 165 165
189 189 189
183 183 183
184 184 184
176 176 176
204 204 204
229 229 229
233 233 233
210 210 210
200 200 200
186 186 186
173 173 173
180 180 180
197 197 197
211 211 211
207 207 207
188 188 188
164 164 164
137 137 137
129 129 129
118 118 118
138 138 138
165 165 165
189 189 189
207 207 207
209 209 209
195 195 195
173 173 173
148 148 148
143 143 143
149 149 149
152 152 152
147 147 147
148 148 148
149 149 149
143 143 143
149 149 149
158 158 158
159 159 159
170 170 170
178 178 178
175 175 175
195 195 195
222 222 222
235 235 235
217 217 217
195 195 195
176 176 176
152 152 152
128 128 128
152 152 152
171 171 171
164 164 164
168 168 168
176 176 176
204 204 204
230 230 230
234 234 234
221 221 221
221 221 221
201 201 201
175 175 175
165 165 165
174 174 174
182 182 182
180 180 180
167 167 167
147 147 147
137 137 137
129 129 129
116 116 116
129 129 129
153 153 153
174 174 174
187 187 187
189 189 189
179 179 179
169 169 169
173 173 173
167 167 167
175 175 175
180 180 180
173 173 173
161 161 161
164 164 164
168 168 168
173 173 173
185 185 185
186 186 186
175 175 175
156 156 156
161 161 161
187 187 187
209 209 209
217 217 217
219 219 219
208 208 208
186 186 186
159 159 159
131 131 131
133 133 133
151 151 151
174 174 174
179 179 179
173 173 173
190 190 190
207 207 207
209 209 209
223 223 223
223 223 223
202 202 202
176 176 176
161 161 161
147 147 147
153 153 153
153 153 153
153 153 153
147 147 147
147 147 147
138 138 138
125 125 125
126 126 126
135 135 135
152 152 152
162 162 162
164 164 164
172 172 172
188 188 188
193 193 193
185 185 185
199 199 199
205 205 205
196 196 196
176 176 176
172 172 172
189 189 189
196 196 196
210 210 210
211 211 211
195 195 195
172 172 172
148 148 148
169 169 169
185 185 185
205 205 205
215 215 215
205 205 205
183 183 183
158 158 158
132 132 132
140 140 140
160 160 160
175 175 175
179 179 179
173 173 173
167 167 167
179 179 179
188 188 188
203 203 203
203 203 203
189 189 189
181 181 181
172 172 172
154 154 154
164 164 164
174 174 174
174 174 174
165 165 165
149 149 149
152 152 152
153 153 153
153 153 153
146 146 146
137 137 137
160 160 160
178 178 178
187 187 187
198 198 198
204 204 204
194 194 194
213 213 213
224 224 224
210 210 210
186 186 186
181 181 181
201 201 201
210 210 210
223 223 223
225 225 225
205 205 205
178 178 178
150 150 150
148 148 148
171 171 171
188 188 188
194 194 194
188 188 188
170 170 170
148 148 148
132 132 132
143 143 143
160 160 160
