P3
50 50
255
137 137 137
153 153 153
163 163 163
163 163 163
154 154 154
168 168 168
193 193 193
214 214 214
218 218 218
202 202 202
178 178 178
158 158 158
179 179 179
192 192 192
192 192 192
180 180 180
168 168 168
155 155 155
147 147 147
147 147 147
139 139 139
125 125 125
132 132 132
143 143 143
148 148 148
144 144 144
146 146 146
157 157 157
160 160 160
154 154 154
141 141 141
132 132 132
153 153 153
168 168 168
175 175 175
172 172 172
159 159 159
140 140 140
153 153 153
168 168 168
185 185 185
192 192 192
186 186 186
170 170 170
147 147 147
127 127 127
131 131 131
128 128 128
119 119 119
117 117 117
158 158 158
178 178 178
191 191 191
191 191 191
179 179 179
169 169 169
195 195 195
216 216 216
220 220 220
204 204 204
179 179 179
160 160 160
181 181 181
195 195 195
195 195 195
183 183 183
163 163 163
152 152 152
161 161 161
162 162 162
153 153 153
137 137 137
148 148 148
161 161 161
167 167 167
162 162 162
169 169 169
184 184 184
189 189 189
181 181 181
164 164 164
149 149 149
174 174 174
194 194 194
205 205 205
199 199 199
181 181 181
157 157 157
167 167 167
182 182 182
203 203 203
213 213 213
204 204 204
183 183 183
158 158 158
155 155 155
160 160 160
157 157 157
145 145 145
134 134 134
173 173 173
198 198 198
217 217 217
218 218 218
199 199 199
174 174 174
183 183 183
199 199 199
202 202 202
190 190 190
169 169 169
153 153 153
172 172 172
184 184 184
185 185 185
174 174 174
155 155 155
158 158 158
168 168 168
169 169 169
159 159 159
143 143 143
158 158 158
173 173 173
179 179 179
174 174 174
188 188 188
209 209 209
217 217 217
204 204 204
181 181 181
159 159 159
187 187 187
215 215 215
234 234 234
223 223 223
197 197 197
169 169 169
172 172 172
189 189 189
207 207 207
218 218 218
208 208 208
186 186 186
164 164 164
181 181 181
189 189 189
184 184 184
168 168 168
147 147 147
179 179 179
207 207 207
233 233 233
234 234 234
208 208 208
180 180 180
162 162 162
174 174 174
176 176 176
168 168 168
151 151 151
139 139 139
155 155 155
165 165 165
165 165 165
156 156 156
140 140 140
156 156 156
165 165 165
166 166 166
157 157 157
141 141 141
159 159 159
174 174 174
180 180 180
175 175 175
197 197 197
224 224 224
237 237 237
217 217 217
189 189 189
161 161 161
190 190 190
219 219 219
244 244 244
228 228 228
200 200 200
171 171 171
168 168 168
184 184 184
194 194 194
203 203 203
195 195 195
177 177 177
181 181 181
204 204 204
215 215 215
208 208 208
187 187 187
161 161 161
174 174 174
199 199 199
219 219 219
219 219 219
200 200 200
175 175 175
172 172 172
169 169 169
157 157 157
142 142 142
146 146 146
145 145 145
137 137 137
141 141 141
141 141 141
134 134 134
130 130 130
145 145 145
153 153 153
154 154 154
146 146 146
146 146 146
164 164 164
182 182 182
192 192 192
189 189 189
192 192 192
215 215 215
224 224 224
209 209 209
184 184 184
167 167 167
180 180 180
203 203 203
215 215 215
209 209 209
188 188 188
163 163 163
154 154 154
168 168 168
173 173 173
178 178 178
173 173 173
167 167 167
189 189 189
216 216 216
234 234 234
221 221 221
195 195 195
167 167 167
159 159 159
180 180 180
193 193 193
193 193 193
180 180 180
175 175 175
183 183 183
180 180 180
172 172 172
163 163 163
150 150 150
149 149 149
140 140 140
126 126 126
122 122 122
127 127 127
148 148 148
164 164 164
172 172 172
171 171 171
173 173 173
173 173 173
167 167 167
186 186 186
197 197 197
194 194 194
178 178 178
192 192 192
197 197 197
188 188 188
183 183 183
181 181 181
169 169 169
178 178 178
186 186 186
182 182 182
168 168 168
147 147 147
135 135 135
146 146 146
149 149 149
153 153 153
176 176 176
194 194 194
200 200 200
208 208 208
222 222 222
213 213 213
190 190 190
163 163 163
140 140 140
155 155 155
165 165 165
179 179 179
187 187 187
183 183 183
184 184 184
199 199 199
201 201 201
187 187 187
166 166 166
144 144 144
141 141 141
145 145 145
142 142 142
139 139 139
163 163 163
183 183 183
193 193 193
191 191 191
197 197 197
198 198 198
185 185 185
178 178 178
188 188 188
185 185 185
171 171 171
165 165 165
169 169 169
177 177 177
187 187 187
186 186 186
173 173 173
153 153 153
157 157 157
154 154 154
143 143 143
130 130 130
121 121 121
122 122 122
137 137 137
165 165 165
192 192 192
217 217 217
227 227 227
212 212 212
226 226 226
219 219 219
196 196 196
169 169 169
163 163 163
175 175 175
177 177 177
182 182 182
191 191 191
186 186 186
202 202 202
225 225 225
228 228 228
207 207 207
180 180 180
151 151 151
155 155 155
161 161 161
162 162 162
154 154 154
170 170 170
192 192 192
204 204 204
201 201 201
215 215 215
216 216 216
198 198 198
174 174 174
169 169 169
174 174 174
171 171 171
159 159 159
152 152 152
170 170 170
179 179 179
178 178 178
166 166 166
147 147 147
137 137 137
151 151 151
157 157 157
154 154 154
148 148 148
148 148 148
139 139 139
168 168 168
197 197 197
224 224 224
239 239 239
219 219 219
244 244 244
231 231 231
202 202 202
173 173 173
181 181 181
197 197 197
200 200 200
188 188 188
181 181 181
178 178 178
207 207 207
234 234 234
238 238 238
212 212 212
183 183 183
153 153 153
165 165 165
176 176 176
177 177 177
168 168 168
167 167 167
188 188 188
200 200 200
197 197 197
215 215 215
216 216 216
198 198 198
173 173 173
192 192 192
203 203 203
198 198 198
181 181 181
158 158 158
154 154 154
162 162 162
161 161 161
151 151 151
135 135 135
155 155 155
171 171 171
179 179 179
175 175 175
176 176 176
176 176 176
165 165 165
161 161 161
187 187 187
208 208 208
216 216 216
205 205 205
220 220 220
214 214 214
193 193 193
167 167 167
190 190 190
209 209 209
213 213 213
198 198 198
175 175 175
170 170 170
195 195 195
213 213 213
215 215 215
199 199 199
174 174 174
150 150 150
169 169 169
181 181 181
182 182 182
172 172 172
156 156 156
173 173 173
182 182 182
183 183 183
197 197 197
197 197 197
184 184 184
186 186 186
212 212 212
231 231 231
221 221 221
197 197 197
169 169 169
140 140 140
140 140 140
139 139 139
133 133 133
142 142 142
166 166 166
184 184 184
193 193 193
189 189 189
203 203 203
202 202 202
187 187 187
164 164 164
168 168 168
183 183 183
188 188 188
182 182 182
192 192 192
188 188 188
173 173 173
166 166 166
187 187 187
204 204 204
208 208 208
194 194 194
172 172 172
153 153 153
173 173 173
186 186 186
187 187 187
176 176 176
157 157 157
155 155 155
171 171 171
180 180 180
177 177 177
167 167 167
154 154 154
152 152 152
159 159 159
162 162 162
172 172 172
172 172 172
163 163 163
188 188 188
216 216 216
239 239 239
227 227 227
200 200 200
171 171 171
142 142 142
151 151 151
161 161 161
162 162 162
154 154 154
167 167 167
186 186 186
196 196 196
203 203 203
223 223 223
222 222 222
201 201 201
174 174 174
147 147 147
156 156 156
159 159 159
156 156 156
162 162 162
160 160 160
149 149 149
163 163 163
172 172 172
186 186 186
197 197 197
200 200 200
188 188 188
168 168 168
158 158 158
171 171 171
175 175 175
169 169 169
154 154 154
160 160 160
177 177 177
186 186 186
183 183 183
184 184 184
173 173 173
159 159 159
151 151 151
166 166 166
172 172 172
169 169 169
157 157 157
178 178 178
201 201 201
214 214 214
208 208 208
188 188 188
163 163 163
155 155 155
176 176 176
189 189 189
191 191 191
180 180 180
161 161 161
177 177 177
185 185 185
203 203 203
223 223 223
222 222 222
201 201 201
174 174 174
171 171 171
184 184 184
186 186 186
176 176 176
158 158 158
154 154 154
155 155 155
153 153 153
171 171 171
198 198 198
220 220 220
226 226 226
207 207 207
181 181 181
179 179 179
197 197 197
202 202 202
193 193 193
173 173 173
156 156 156
172 172 172
182 182 182
196 196 196
198 198 198
196 196 196
184 184 184
163 163 163
164 164 164
171 171 171
168 168 168
155 155 155
160 160 160
177 177 177
185 185 185
182 182 182
168 168 168
157 157 157
170 170 170
196 196 196
216 216 216
219 219 219
202 202 202
177 177 177
158 158 158
166 166 166
188 188 188
202 202 202
201 201 201
186 186 186
165 165 165
190 190 190
208 208 208
211 211 211
197 197 197
174 174 174
174 174 174
176 176 176
167 167 167
179 179 179
201 201 201
227 227 227
234 234 234
212 212 212
184 184 184
192 192 192
215 215 215
224 224 224
210 210 210
185 185 185
157 157 157
160 160 160
182 182 182
201 201 201
222 222 222
224 224 224
204 204 204
177 177 177
154 154 154
160 160 160
157 157 157
157 157 157
173 173 173
180 180 180
176 176 176
165 165 165
174 174 174
172 172 172
176 176 176
205 205 205
232 232 232
238 238 238
212 212 212
183 183 183
154 154 154
148 148 148
166 166 166
176 176 176
175 175 175
164 164 164
172 172 172
199 199 199
222 222 222
227 227 227
208 208 208
181 181 181
188 188 188
190 190 190
179 179 179
206 206 206
203 203 203
209 209 209
213 213 213
198 198 198
175 175 175
192 192 192
216 216 216
225 225 225
210 210 210
186 186 186
179 179 179
162 162 162
179 179 179
208 208 208
236 236 236
239 239 239
211 211 211
182 182 182
156 156 156
163 163 163
162 162 162
177 177 177
198 198 198
209 209 209
202 202 202
183 183 183
179 179 179
177 177 177
171 171 171
198 198 198
219 219 219
223 223 223
204 204 204
179 179 179
151 151 151
126 126 126
147 147 147
162 162 162
170 170 170
168 168 168
168 168 168
194 194 194
214 214 214
217 217 217
201 201 201
177 177 177
190 190 190
192 192 192
193 193 193
228 228 228
223 223 223
200 200 200
185 185 185
176 176 176
158 158 158
180 180 180
198 198 198
204 204 204
207 207 207
215 215 215
203 203 203
181 181 181
172 172 172
198 198 198
217 217 217
219 219 219
200 200 200
175 175 175
167 167 167
175 175 175
173 173 173
189 189 189
216 216 216
235 235 235
223 223 223
197 197 197
174 174 174
172 172 172
160 160 160
179 179 179
194 194 194
195 195 195
184 184 184
164 164 164
140 140 140
142 142 142
167 167 167
187 187 187
198 198 198
195 195 195
180 180 180
177 177 177
191 191 191
193 193 193
183 183 183
167 167 167
179 179 179
181 181 181
208 208 208
226 226 226
222 222 222
199 199 199
172 172 172
150 150 150
140 140 140
160 160 160
173 173 173
197 197 197
226 226 226
242 242 242
220 220 220
192 192 192
162 162 162
177 177 177
190 190 190
191 191 191
181 181 181
169 169 169
168 168 168
177 177 177
175 175 175
189 189 189
216 216 216
236 236 236
223 223 223
197 197 197
171 171 171
157 157 157
147 147 147
168 168 168
188 188 188
199 199 199
195 195 195
179 179 179
157 157 157
153 153 153
180 180 180
206 206 206
224 224 224
219 219 219
197 197 197
170 170 170
164 164 164
166 166 166
158 158 158
150 150 150
160 160 160
181 181 181
207 207 207
203 203 203
201 201 201
185 185 185
162 162 162
136 136 136
120 120 120
138 138 138
167 167 167
195 195 195
221 221 221
233 233 233
216 216 216
189 189 189
161 161 161
171 171 171
195 195 195
210 210 210
208 208 208
191 191 191
167 167 167
168 168 168
166 166 166
177 177 177
198 198 198
209 209 209
204 204 204
208 208 208
196 196 196
174 174 174
155 155 155
183 183 183
209 209 209
226 226 226
220 220 220
196 196 196
169 169 169
155 155 155
183 183 183
211 211 211
232 232 232
226 226 226
201 201 201
173 173 173
150 150 150
163 163 163
166 166 166
160 160 160
146 146 146
169 169 169
191 191 191
176 176 176
174 174 174
163 163 163
144 144 144
122 122 122
117 117 117
129 129 129
156 156 156
180 180 180
198 198 198
204 204 204
195 195 195
175 175 175
158 158 158
181 181 181
209 209 209
233 233 233
229 229 229
204 204 204
176 176 176
151 151 151
150 150 150
157 157 157
173 173 173
200 200 200
227 227 227
236 236 236
214 214 214
186 186 186
158 158 158
187 187 187
216 216 216
240 240 240
229 229 229
202 202 202
173 173 173
149 149 149
175 175 175
198 198 198
213 213 213
209 209 209
190 190 190
165 165 165
170 170 170
186 186 186
191 191 191
183 183 183
165 165 165
150 150 150
167 167 167
149 149 149
153 153 153
148 148 148
136 136 136
118 118 118
117 117 117
124 124 124
138 138 138
158 158 158
171 171 171
175 175 175
169 169 169
156 156 156
170 170 170
180 180 180
207 207 207
228 228 228
226 226 226
202 202 202
175 175 175
146 146 146
133 133 133
143 143 143
172 172 172
201 201 201
229 229 229
239 239 239
215 215 215
187 187 187
158 158 158
179 179 179
203 203 203
218 218 218
212 212 212
192 192 192
166 166 166
139 139 139
158 158 158
176 176 176
185 185 185
183 183 183
170 170 170
159 159 159
183 183 183
203 203 203
210 210 210
199 199 199
178 178 178
157 157 157
165 165 165
141 141 141
144 144 144
140 140 140
129 129 129
127 127 127
142 142 142
150 150 150
151 151 151
143 143 143
143 143 143
146 146 146
141 141 141
158 158 158
173 173 173
179 179 179
190 190 190
203 203 203
202 202 202
186 186 186
163 163 163
143 143 143
150 150 150
150 150 150
163 163 163
188 188 188
206 206 206
211 211 211
198 198 198
176 176 176
150 150 150
162 162 162
180 180 180
189 189 189
186 186 186
172 172 172
151 151 151
127 127 127
136 136 136
150 150 150
157 157 157
155 155 155
145 145 145
160 160 160
185 185 185
206 206 206
213 213 213
201 201 201
179 179 179
178 178 178
179 179 179
126 126 126
129 129 129
125 125 125
131 131 131
146 146 146
163 163 163
174 174 174
174 174 174
165 165 165
147 147 147
129 129 129
146 146 146
157 157 157
166 166 166
171 171 171
183 183 183
183 183 183
174 174 174
163 163 163
158 158 158
169 169 169
170 170 170
162 162 162
151 151 151
166 166 166
179 179 179
182 182 182
173 173 173
156 156 156
153 153 153
158 158 158
154 154 154
160 160 160
158 158 158
148 148 148
142 142 142
136 136 136
123 123 123
130 130 130
144 144 144
159 159 159
167 167 167
165 165 165
176 176 176
193 193 193
198 198 198
189 189 189
190 190 190
206 206 206
207 207 207
107 107 107
113 113 113
136 136 136
154 154 154
166 166 166
179 179 179
192 192 192
193 193 193
181 181 181
160 160 160
140 140 140
159 159 159
171 171 171
174 174 174
187 187 187
201 201 201
202 202 202
187 187 187
165 165 165
182 182 182
197 197 197
199 199 199
187 187 187
167 167 167
158 158 158
178 178 178
190 190 190
189 189 189
177 177 177
175 175 175
182 182 182
177 177 177
163 163 163
142 142 142
151 151 151
152 152 152
145 145 145
133 133 133
150 150 150
163 163 163
183 183 183
194 194 194
191 191 191
177 177 177
171 171 171
175 175 175
177 177 177
205 205 205
229 229 229
231 231 231
102 102 102
126 126 126
151 151 151
172 172 172
188 188 188
193 193 193
200 200 200
201 201 201
187 187 187
165 165 165
143 143 143
163 163 163
176 176 176
179 179 179
192 192 192
208 208 208
208 208 208
192 192 192
172 172 172
199 199 199
222 222 222
227 227 227
207 207 207
181 181 181
174 174 174
199 199 199
217 217 217
216 216 216
197 197 197
191 191 191
200 200 200
194 194 194
176 176 176
153 153 153
153 153 153
154 154 154
147 147 147
144 144 144
164 164 164
177 177 177
201 201 201
216 216 216
212 212 212
193 193 193
167 167 167
153 153 153
176 176 176
204 204 204
228 228 228
230 230 230
131 131 131
132 132 132
159 159 159
183 183 183
202 202 202
208 208 208
197 197 197
193 193 193
181 181 181
161 161 161
139 139 139
158 158 158
170 170 170
173 173 173
183 183 183
197 197 197
197 197 197
184 184 184
180 180 180
205 205 205
233 233 233
240 240 240
214 214 214
185 185 185
181 181 181
209 209 209
236 236 236
234 234 234
208 208 208
196 196 196
205 205 205
199 199 199
180 180 180
156 156 156
146 146 146
148 148 148
141 141 141
149 149 149
169 169 169
183 183 183
206 206 206
224 224 224
219 219 219
197 197 197
180 180 180
179 179 179
168 168 168
189 189 189
205 205 205
206 206 206
160 160 160
159 159 159
158 158 158
182 182 182
201 201 201
206 206 206
196 196 196
175 175 175
165 165 165
148 148 148
128 128 128
145 145 145
155 155 155
158 158 158
166 166 166
176 176 176
176 176 176
166 166 166
190 190 190
208 208 208
214 214 214
217 217 217
201 201 201
177 177 177
176 176 176
202 202 202
222 222 222
221 221 221
215 215 215
215 215 215
197 197 197
189 189 189
173 173 173
150 150 150
133 133 133
134 134 134
128 128 128
145 145 145
164 164 164
177 177 177
195 195 195
208 208 208
205 205 205
189 189 189
203 203 203
203 203 203
188 188 188
166 166 166
177 177 177
178 178 178
188 188 188
186 186 186
174 174 174
171 171 171
186 186 186
190 190 190
182 182 182
164 164 164
144 144 144
129 129 129
129 129 129
146 146 146
155 155 155
157 157 157
150 150 150
151 151 151
151 151 151
165 165 165
188 188 188
205 205 205
208 208 208
194 194 194
179 179 179
160 160 160
162 162 162
183 183 183
196 196 196
210 210 210
238 238 238
238 238 238
209 209 209
180 180 180
156 156 156
137 137 137
132 132 132
126 126 126
129 129 129
141 141 141
160 160 160
172 172 172
175 175 175
183 183 183
181 181 181
199 199 199
217 217 217
216 216 216
198 198 198
173 173 173
158 158 158
177 177 177
213 213 213
211 211 211
193 193 193
168 168 168
163 163 163
167 167 167
166 166 166
158 158 158
152 152 152
155 155 155
150 150 150
167 167 167
180 180 180
182 182 182
173 173 173
155 155 155
133 133 133
154 154 154
175 175 175
188 188 188
190 190 190
179 179 179
169 169 169
156 156 156
142 142 142
158 158 158
178 178 178
205 205 205
228 228 228
227 227 227
204 204 204
177 177 177
149 149 149
158 158 158
159 159 159
151 151 151
136 136 136
156 156 156
178 178 178
194 194 194
197 197 197
187 187 187
171 171 171
194 194 194
211 211 211
210 210 210
194 194 194
170 170 170
173 173 173
197 197 197
228 228 228
225 225 225
202 202 202
174 174 174
176 176 176
191 191 191
193 193 193
183 183 183
180 180 180
184 184 184
177 177 177
183 183 183
199 199 199
202 202 202
190 190 190
169 169 169
144 144 144
146 146 146
154 154 154
165 165 165
166 166 166
159 159 159
156 156 156
144 144 144
127 127 127
139 139 139
165 165 165
186 186 186
200 200 200
200 200 200
186 186 186
164 164 164
171 171 171
183 183 183
183 183 183
173 173 173
154 154 154
163 163 163
187 187 187
206 206 206
211 211 211
198 198 198
176 176 176
178 178 178
190 190 190
190 190 190
177 177 177
157 157 157
180 180 180
207 207 207
217 217 217
215 215 215
195 195 195
170 170 170
193 193 193
213 213 213
217 217 217
201 201 201
206 206 206
213 213 213
201 201 201
188 188 188
206 206 206
210 210 210
196 196 196
173 173 173
164 164 164
175 175 175
176 176 176
167 167 167
150 150 150
139 139 139
136 136 136
126 126 126
111 111 111
123 123 123
145 145 145
162 162 162
172 172 172
172 172 172
162 162 162
163 163 163
186 186 186
201 201 201
202 202 202
188 188 188
166 166 166
163 163 163
185 185 185
202 202 202
207 207 207
195 195 195
173 173 173
161 161 161
164 164 164
168 168 168
167 167 167
159 159 159
175 175 175
200 200 200
192 192 192
191 191 191
177 177 177
171 171 171
198 198 198
221 221 221
226 226 226
207 207 207
225 225 225
239 239 239
218 218 218
190 190 190
197 197 197
200 200 200
196 196 196
187 187 187
187 187 187
204 204 204
205 205 205
191 191 191
169 169 169
144 144 144
127 127 127
114 114 114
103 103 103
111 111 111
122 122 122
140 140 140
155 155 155
164 164 164
163 163 163
167 167 167
190 190 190
207 207 207
208 208 208
193 193 193
180 180 180
186 186 186
180 180 180
185 185 185
188 188 188
179 179 179
170 170 170
174 174 174
176 176 176
186 186 186
184 184 184
172 172 172
170 170 170
181 181 181
209 209 209
204 204 204
186 186 186
164 164 164
189 189 189
207 207 207
211 211 211
197 197 197
221 221 221
232 232 232
215 215 215
188 188 188
182 182 182
200 200 200
205 205 205
195 195 195
204 204 204
229 229 229
233 233 233
209 209 209
182 182 182
163 163 163
153 153 153
136 136 136
128 128 128
138 138 138
141 141 141
138 138 138
153 153 153
161 161 161
160 160 160
160 160 160
182 182 182
196 196 196
197 197 197
184 184 184
194 194 194
202 202 202
194 194 194
175 175 175
164 164 164
160 160 160
174 174 174
178 178 178
183 183 183
195 195 195
193 193 193
178 178 178
174 174 174
196 196 196
211 211 211
206 206 206
188 188 188
163 163 163
170 170 170
183 183 183
185 185 185
181 181 181
199 199 199
205 205 205
195 195 195
174 174 174
177 177 177
194 194 194
199 199 199
189 189 189
206 206 206
233 233 233
238 238 238
212 212 212
190 190 190
189 189 189
176 176 176
156 156 156
152 152 152
164 164 164
168 168 168
162 162 162
148 148 148
157 157 157
166 166 166
165 165 165
164 164 164
175 175 175
176 176 176
176 176 176
195 195 195
203 203 203
195 195 195
184 184 184
169 169 169
155 155 155
167 167 167
171 171 171
179 179 179
189 189 189
188 188 188
174 174 174
175 175 175
198 198 198
196 196 196
192 192 192
177 177 177
155 155 155
146 146 146
156 156 156
158 158 158
159 159 159
172 172 172
176 176 176
169 169 169
154 154 154
163 163 163
176 176 176
180 180 180
173 173 173
192 192 192
210 210 210
212 212 212
198 198 198
214 214 214
212 212 212
194 194 194
169 169 169
172 172 172
187 187 187
192 192 192
184 184 184
166 166 166
165 165 165
175 175 175
175 175 175
164 164 164
150 150 150
150 150 150
167 167 167
183 183 183
189 189 189
194 194 194
189 189 189
172 172 172
150 150 150
152 152 152
155 155 155
164 164 164
173 173 173
172 172 172
161 161 161
166 166 166
185 185 185
176 176 176
181 181 181
174 174 174
158 158 158
137 137 137
128 128 128
129 129 129
134 134 134
144 144 144
147 147 147
142 142 142
130 130 130
142 142 142
153 153 153
156 156 156
151 151 151
170 170 170
182 182 182
183 183 183
204 204 204
224 224 224
221 221 221
200 200 200
173 173 173
184 184 184
204 204 204
210 210 210
199 199 199
178 178 178
165 165 165
175 175 175
175 175 175
164 164 164
146 146 146
135 135 135
160 160 160
181 181 181
194 194 194
194 194 194
181 181 181
166 166 166
160 160 160
158 158 158
147 147 147
161 161 161
172 172 172
172 172 172
163 163 163
149 149 149
165 165 165
181 181 181
186 186 186
183 183 183
172 172 172
153 153 153
130 130 130
121 121 121
127 127 127
126 126 126
119 119 119
113 113 113
127 127 127
147 147 147
162 162 162
169 169 169
166 166 166
154 154 154
153 153 153
172 172 172
195 195 195
210 210 210
208 208 208
191 191 191
167 167 167
185 185 185
206 206 206
213 213 213
201 201 201
179 179 179
155 155 155
164 164 164
164 164 164
156 156 156
163 163 163
161 161 161
165 165 165
187 187 187
202 202 202
203 203 203
188 188 188
177 177 177
186 186 186
182 182 182
168 168 168
167 167 167
179 179 179
180 180 180
170 170 170
154 154 154
166 166 166
183 183 183
196 196 196
196 196 196
182 182 182
161 161 161
136 136 136
148 148 148
156 156 156
154 154 154
145 145 145
129 129 129
145 145 145
169 169 169
188 188 188
198 198 198
194 194 194
178 178 178
155 155 155
156 156 156
175 175 175
186 186 186
185 185 185
172 172 172
152 152 152
175 175 175
192 192 192
197 197 197
201 201 201
192 192 192
173 173 173
149 149 149
163 163 163
181 181 181
191 191 191
188 188 188
174 174 174
182 182 182
195 195 195
196 196 196
183 183 183
194 194 194
206 206 206
201 201 201
183 183 183
164 164 164
175 175 175
177 177 177
185 185 185
182 182 182
168 168 168
182 182 182
195 195 195
195 195 195
181 181 181
160 160 160
155 155 155
173 173 173
183 183 183
182 182 182
169 169 169
150 150 150
156 156 156
184 184 184
210 210 210
227 227 227
219 219 219
195 195 195
168 168 168
172 172 172
170 170 170
171 171 171
178 178 178
174 174 174
160 160 160
166 166 166
194 194 194
219 219 219
231 231 231
214 214 214
188 188 188
160 160 160
179 179 179
203 203 203
218 218 218
213 213 213
193 193 193
167 167 167
177 177 177
177 177 177
177 177 177
200 200 200
213 213 213
208 208 208
188 188 188
163 163 163
177 177 177
200 200 200
214 214 214
209 209 209
189 189 189
170 170 170
181 181 181
181 181 181
170 170 170
151 151 151
172 172 172
195 195 195
209 209 209
207 207 207
189 189 189
173 173 173
177 177 177
189 189 189
219 219 219
248 248 248
231 231 231
202 202 202
174 174 174
182 182 182
179 179 179
197 197 197
207 207 207
200 200 200
182 182 182
169 169 169
199 199 199
228 228 228
248 248 248
221 221 221
192 192 192
163 163 163
185 185 185
213 213 213
235 235 235
227 227 227
201 201 201
173 173 173
153 153 153
153 153 153
171 171 171
191 191 191
202 202 202
197 197 197
180 180 180
158 158 158
187 187 187
215 215 215
238 238 238
228 228 228
201 201 201
151 151 151
160 160 160
160 160 160
151 151 151
163 163 163
180 180 180
207 207 207
226 226 226
223 223 223
200 200 200
197 197 197
203 203 203
193 193 193
206 206 206
222 222 222
215 215 215
193 193 193
172 172 172
181 181 181
189 189 189
216 216 216
234 234 234
222 222 222
196 196 196
167 167 167
189 189 189
211 211 211
219 219 219
206 206 206
183 183 183
161 161 161
180 180 180
204 204 204
220 220 220
215 215 215
194 194 194
168 168 168
140 140 140
134 134 134
155 155 155
172 172 172
180 180 180
176 176 176
168 168 168
168 168 168
185 185 185
211 211 211
230 230 230
222 222 222
197 197 197
128 128 128
135 135 135
145 145 145
166 166 166
180 180 180
184 184 184
202 202 202
219 219 219
216 216 216
196 196 196
214 214 214
223 223 223
209 209 209
185 185 185
192 192 192
188 188 188
173 173 173
161 161 161
168 168 168
190 190 190
217 217 217
237 237 237
224 224 224
197 197 197
168 168 168
169 169 169
185 185 185
190 190 190
182 182 182
172 172 172
168 168 168
164 164 164
184 184 184
194 194 194
191 191 191
176 176 176
154 154 154
130 130 130
116 116 116
134 134 134
148 148 148
154 154 154
162 162 162
172 172 172
171 171 171
171 171 171
192 192 192
203 203 203
198 198 198
181 181 181
133 133 133
134 134 134
150 150 150
171 171 171
187 187 187
191 191 191
184 184 184
196 196 196
194 194 194
191 191 191
213 213 213
222 222 222
208 208 208
184 184 184
164 164 164
177 177 177
179 179 179
171 171 171
154 154 154
178 178 178
200 200 200
211 211 211
213 213 213
199 199 199
176 176 176
149 149 149
157 157 157
160 160 160
162 162 162
169 169 169
166 166 166
153 153 153
158 158 158
165 165 165
163 163 163
152 152 152
135 135 135
135 135 135
140 140 140
139 139 139
130 130 130
140 140 140
156 156 156
165 165 165
165 165 165
155 155 155
166 166 166
174 174 174
174 174 174
164 164 164
153 153 153
153 153 153
147 147 147
171 171 171
189 189 189
198 198 198
192 192 192
174 174 174
167 167 167
178 178 178
195 195 195
201 201 201
192 192 192
172 172 172
173 173 173
187 187 187
190 190 190
181 181 181
162 162 162
163 163 163
187 187 187
205 205 205
209 209 209
196 196 196
174 174 174
149 149 149
135 135 135
138 138 138
151 151 151
157 157 157
154 154 154
165 165 165
173 173 173
171 171 171
160 160 160
142 142 142
142 142 142
157 157 157
164 164 164
161 161 161
150 150 150
148 148 148
154 154 154
157 157 157
158 158 158
165 165 165
187 187 187
202 202 202
202 202 202
188 188 188
166 166 166
167 167 167
158 158 158
183 183 183
206 206 206
217 217 217
209 209 209
187 187 187
161 161 161
158 158 158
171 171 171
175 175 175
168 168 168
153 153 153
172 172 172
186 186 186
189 189 189
180 180 180
161 161 161
153 153 153
173 173 173
188 188 188
190 190 190
180 180 180
183 183 183
174 174 174
157 157 157
134 134 134
134 134 134
144 144 144
169 169 169
190 190 190
202 202 202
199 199 199
183 183 183
160 160 160
157 157 157
174 174 174
183 183 183
180 180 180
166 166 166
161 161 161
169 169 169
167 167 167
155 155 155
177 177 177
204 204 204
227 227 227
228 228 228
205 205 205
171 171 171
172 172 172
163 163 163
184 184 184
207 207 207
219 219 219
210 210 210
188 188 188
162 162 162
146 146 146
158 158 158
175 175 175
183 183 183
180 180 180
167 167 167
174 174 174
176 176 176
168 168 168
152 152 152
148 148 148
153 153 153
164 164 164
186 186 186
203 203 203
207 207 207
194 194 194
172 172 172
147 147 147
125 125 125
154 154 154
182 182 182
209 209 209
229 229 229
224 224 224
200 200 200
172 172 172
164 164 164
183 183 183
193 193 193
189 189 189
174 174 174
166 166 166
174 174 174
172 172 172
160 160 160
179 179 179
207 207 207
233 233 233
234 234 234
209 209 209
166 166 166
167 167 167
158 158 158
173 173 173
192 192 192
201 201 201
195 195 195
177 177 177
172 172 172
166 166 166
175 175 175
197 197 197
209 209 209
205 205 205
186 186 186
187 187 187
195 195 195
189 189 189
173 173 173
167 167 167
166 166 166
168 168 168
194 194 194
215 215 215
220 220 220
204 204 204
179 179 179
152 152 152
126 126 126
156 156 156
185 185 185
213 213 213
238 238 238
231 231 231
204 204 204
175 175 175
162 162 162
180 180 180
189 189 189
186 186 186
172 172 172
161 161 161
169 169 169
167 167 167
168 168 168
175 175 175
194 194 194
211 211 211
212 212 212
195 195 195
164 164 164
168 168 168
162 162 162
155 155 155
170 170 170
176 176 176
171 171 171
181 181 181
186 186 186
179 179 179
183 183 183
209 209 209
227 227 227
220 220 220
196 196 196
210 210 210
223 223 223
214 214 214
190 190 190
180 180 180
179 179 179
167 167 167
189 189 189
208 208 208
212 212 212
198 198 198
175 175 175
149 149 149
124 124 124
149 149 149
176 176 176
199 199 199
215 215 215
211 211 211
192 192 192
167 167 167
151 151 151
167 167 167
175 175 175
172 172 172
160 160 160
152 152 152
158 158 158
174 174 174
194 194 194
204 204 204
198 198 198
183 183 183
184 184 184
173 173 173
186 186 186
192 192 192
184 184 184
167 167 167
144 144 144
148 148 148
168 168 168
184 184 184
189 189 189
182 182 182
180 180 180
205 205 205
220 220 220
214 214 214
193 193 193
220 220 220
243 243 243
226 226 226
197 197 197
183 183 183
181 181 181
169 169 169
173 173 173
187 187 187
190 190 190
180 180 180
162 162 162
156 156 156
143 143 143
156 156 156
179 179 179
196 196 196
201 201 201
191 191 191
171 171 171
151 151 151
143 143 143
147 147 147
153 153 153
166 166 166
170 170 170
163 163 163
165 165 165
188 188 188
215 215 215
232 232 232
221 221 221
195 195 195
167 167 167
170 170 170
200 200 200
208 208 208
198 198 198
178 178 178
153 153 153
141 141 141
161 161 161
175 175 175
185 185 185
188 188 188
178 178 178
186 186 186
197 197 197
193 193 193
185 185 185
209 209 209
223 223 223
213 213 213
190 190 190
173 173 173
172 172 172
161 161 161
151 151 151
162 162 162
164 164 164
175 175 175
179 179 179
172 172 172
156 156 156
164 164 164
190 190 190
210 210 210
217 217 217
203 203 203
180 180 180
156 156 156
156 156 156
150 150 150
172 172 172
189 189 189
194 194 194
186 186 186
168 168 168
190 190 190
219 219 219
241 241 241
226 226 226
198 198 198
169 169 169
181 181 181
201 201 201
208 208 208
198 198 198
178 178 178
153 153 153
158 158 158
180 180 180
195 195 195
201 201 201
204 204 204
191 191 191
170 170 170
169 169 169
177 177 177
177 177 177
186 186 186
194 194 194
189 189 189
172 172 172
156 156 156
155 155 155
145 145 145
130 130 130
147 147 147
168 168 168
182 182 182
187 187 187
179 179 179
162 162 162
162 162 162
187 187 187
207 207 207
213 213 213
200 200 200
178 178 178
161 161 161
162 162 162
159 159 159
184 184 184
204 204 204
211 211 211
200 200 200
179 179 179
180 180 180
203 203 203
215 215 215
207 207 207
187 187 187
161 161 161
181 181 181
