P3
50 50
255
111 111 111
139 139 139
165 165 165
188 188 188
205 205 205
207 207 207
192 192 192
170 170 170
163 163 163
182 182 182
192 192 192
188 188 188
174 174 174
153 153 153
128 128 128
120 120 120
131 131 131
136 136 136
133 133 133
124 124 124
109 109 109
95 95 95
109 109 109
119 119 119
126 126 126
127 127 127
121 121 121
116 116 116
126 126 126
137 137 137
142 142 142
139 139 139
129 129 129
116 116 116
143 143 143
168 168 168
188 188 188
200 200 200
197 197 197
181 181 181
159 159 159
134 134 134
107 107 107
104 104 104
112 112 112
116 116 116
114 114 114
106 106 106
110 110 110
115 115 115
116 116 116
145 145 145
173 173 173
199 199 199
220 220 220
223 223 223
204 204 204
178 178 178
159 159 159
177 177 177
186 186 186
183 183 183
170 170 170
149 149 149
125 125 125
122 122 122
133 133 133
138 138 138
135 135 135
126 126 126
111 111 111
106 106 106
125 125 125
141 141 141
150 150 150
151 151 151
144 144 144
144 144 144
148 148 148
144 144 144
143 143 143
141 141 141
131 131 131
125 125 125
153 153 153
182 182 182
208 208 208
228 228 228
222 222 222
199 199 199
172 172 172
143 143 143
128 128 128
133 133 133
141 141 141
146 146 146
143 143 143
133 133 133
117 117 117
114 114 114
114 114 114
143 143 143
170 170 170
195 195 195
214 214 214
217 217 217
200 200 200
175 175 175
148 148 148
163 163 163
170 170 170
168 168 168
157 157 157
138 138 138
116 116 116
117 117 117
128 128 128
132 132 132
130 130 130
121 121 121
106 106 106
119 119 119
141 141 141
159 159 159
170 170 170
171 171 171
163 163 163
172 172 172
177 177 177
171 171 171
156 156 156
136 136 136
125 125 125
127 127 127
156 156 156
185 185 185
214 214 214
240 240 240
232 232 232
204 204 204
175 175 175
146 146 146
155 155 155
162 162 162
168 168 168
175 175 175
171 171 171
158 158 158
139 139 139
116 116 116
107 107 107
133 133 133
158 158 158
179 179 179
193 193 193
194 194 194
183 183 183
163 163 163
140 140 140
151 151 151
154 154 154
148 148 148
137 137 137
122 122 122
102 102 102
106 106 106
116 116 116
120 120 120
118 118 118
110 110 110
102 102 102
127 127 127
151 151 151
171 171 171
184 184 184
185 185 185
180 180 180
199 199 199
207 207 207
198 198 198
177 177 177
153 153 153
126 126 126
122 122 122
150 150 150
177 177 177
201 201 201
217 217 217
213 213 213
193 193 193
168 168 168
163 163 163
181 181 181
191 191 191
194 194 194
204 204 204
198 198 198
180 180 180
156 156 156
130 130 130
94 94 94
118 118 118
139 139 139
157 157 157
167 167 167
168 168 168
159 159 159
143 143 143
130 130 130
139 139 139
142 142 142
137 137 137
125 125 125
108 108 108
111 111 111
126 126 126
136 136 136
138 138 138
134 134 134
123 123 123
106 106 106
129 129 129
153 153 153
173 173 173
186 186 186
188 188 188
194 194 194
221 221 221
236 236 236
218 218 218
191 191 191
163 163 163
134 134 134
122 122 122
137 137 137
160 160 160
178 178 178
188 188 188
186 186 186
173 173 173
167 167 167
179 179 179
203 203 203
218 218 218
214 214 214
232 232 232
221 221 221
195 195 195
167 167 167
139 139 139
96 96 96
121 121 121
145 145 145
164 164 164
178 178 178
181 181 181
173 173 173
156 156 156
135 135 135
129 129 129
128 128 128
127 127 127
120 120 120
111 111 111
133 133 133
151 151 151
164 164 164
167 167 167
162 162 162
147 147 147
128 128 128
132 132 132
146 146 146
165 165 165
177 177 177
178 178 178
196 196 196
224 224 224
242 242 242
221 221 221
193 193 193
164 164 164
158 158 158
148 148 148
132 132 132
138 138 138
152 152 152
159 159 159
158 158 158
163 163 163
167 167 167
186 186 186
214 214 214
237 237 237
228 228 228
240 240 240
226 226 226
198 198 198
169 169 169
140 140 140
99 99 99
125 125 125
149 149 149
170 170 170
185 185 185
188 188 188
179 179 179
162 162 162
158 158 158
155 155 155
149 149 149
148 148 148
140 140 140
126 126 126
152 152 152
174 174 174
191 191 191
196 196 196
188 188 188
169 169 169
146 146 146
155 155 155
160 160 160
156 156 156
159 159 159
160 160 160
184 184 184
205 205 205
213 213 213
203 203 203
181 181 181
187 187 187
185 185 185
172 172 172
152 152 152
128 128 128
127 127 127
152 152 152
175 175 175
191 191 191
196 196 196
187 187 187
205 205 205
222 222 222
216 216 216
214 214 214
207 207 207
187 187 187
161 161 161
134 134 134
97 97 97
122 122 122
146 146 146
166 166 166
180 180 180
183 183 183
175 175 175
176 176 176
184 184 184
179 179 179
165 165 165
164 164 164
154 154 154
137 137 137
164 164 164
191 191 191
214 214 214
224 224 224
210 210 210
185 185 185
158 158 158
173 173 173
180 180 180
175 175 175
161 161 161
143 143 143
164 164 164
179 179 179
184 184 184
185 185 185
198 198 198
213 213 213
210 210 210
191 191 191
166 166 166
139 139 139
137 137 137
166 166 166
193 193 193
216 216 216
225 225 225
210 210 210
185 185 185
195 195 195
192 192 192
185 185 185
181 181 181
166 166 166
146 146 146
122 122 122
106 106 106
124 124 124
136 136 136
153 153 153
165 165 165
167 167 167
174 174 174
194 194 194
204 204 204
198 198 198
180 180 180
172 172 172
161 161 161
144 144 144
168 168 168
197 197 197
225 225 225
239 239 239
218 218 218
190 190 190
167 167 167
184 184 184
192 192 192
187 187 187
170 170 170
148 148 148
140 140 140
154 154 154
172 172 172
182 182 182
208 208 208
229 229 229
224 224 224
200 200 200
173 173 173
144 144 144
141 141 141
170 170 170
200 200 200
229 229 229
250 250 250
221 221 221
191 191 191
166 166 166
178 178 178
190 190 190
190 190 190
178 178 178
158 158 158
134 134 134
127 127 127
147 147 147
163 163 163
170 170 170
168 168 168
157 157 157
179 179 179
201 201 201
212 212 212
205 205 205
185 185 185
170 170 170
160 160 160
142 142 142
163 163 163
189 189 189
211 211 211
219 219 219
206 206 206
183 183 183
166 166 166
184 184 184
191 191 191
186 186 186
170 170 170
160 160 160
169 169 169
169 169 169
160 160 160
177 177 177
202 202 202
218 218 218
214 214 214
194 194 194
169 169 169
141 141 141
137 137 137
165 165 165
192 192 192
215 215 215
224 224 224
209 209 209
185 185 185
169 169 169
192 192 192
208 208 208
208 208 208
192 192 192
169 169 169
142 142 142
143 143 143
167 167 167
187 187 187
198 198 198
195 195 195
179 179 179
173 173 173
192 192 192
202 202 202
196 196 196
178 178 178
159 159 159
149 149 149
151 151 151
178 178 178
203 203 203
219 219 219
214 214 214
193 193 193
168 168 168
157 157 157
172 172 172
178 178 178
178 178 178
179 179 179
184 184 184
198 198 198
197 197 197
183 183 183
163 163 163
183 183 183
194 194 194
191 191 191
177 177 177
156 156 156
131 131 131
127 127 127
155 155 155
183 183 183
208 208 208
224 224 224
217 217 217
194 194 194
170 170 170
194 194 194
211 211 211
211 211 211
194 194 194
170 170 170
144 144 144
153 153 153
181 181 181
206 206 206
222 222 222
217 217 217
195 195 195
169 169 169
174 174 174
181 181 181
176 176 176
162 162 162
142 142 142
133 133 133
157 157 157
187 187 187
216 216 216
244 244 244
233 233 233
204 204 204
175 175 175
145 145 145
162 162 162
184 184 184
199 199 199
200 200 200
203 203 203
224 224 224
223 223 223
202 202 202
175 175 175
158 158 158
166 166 166
164 164 164
154 154 154
137 137 137
123 123 123
130 130 130
159 159 159
188 188 188
216 216 216
240 240 240
228 228 228
201 201 201
172 172 172
183 183 183
197 197 197
197 197 197
183 183 183
162 162 162
137 137 137
155 155 155
183 183 183
210 210 210
230 230 230
223 223 223
199 199 199
171 171 171
150 150 150
155 155 155
152 152 152
141 141 141
124 124 124
126 126 126
154 154 154
183 183 183
209 209 209
229 229 229
223 223 223
199 199 199
171 171 171
143 143 143
167 167 167
191 191 191
208 208 208
209 209 209
209 209 209
235 235 235
234 234 234
208 208 208
179 179 179
162 162 162
161 161 161
152 152 152
158 158 158
157 157 157
148 148 148
132 132 132
154 154 154
181 181 181
205 205 205
219 219 219
213 213 213
192 192 192
166 166 166
164 164 164
174 174 174
174 174 174
164 164 164
146 146 146
135 135 135
149 149 149
175 175 175
197 197 197
210 210 210
206 206 206
188 188 188
163 163 163
142 142 142
139 139 139
129 129 129
116 116 116
120 120 120
131 131 131
144 144 144
168 168 168
189 189 189
200 200 200
197 197 197
181 181 181
159 159 159
137 137 137
163 163 163
185 185 185
200 200 200
201 201 201
198 198 198
215 215 215
215 215 215
196 196 196
179 179 179
190 190 190
189 189 189
177 177 177
183 183 183
182 182 182
170 170 170
150 150 150
147 147 147
164 164 164
182 182 182
191 191 191
188 188 188
173 173 173
151 151 151
140 140 140
147 147 147
147 147 147
146 146 146
142 142 142
131 131 131
135 135 135
157 157 157
175 175 175
184 184 184
190 190 190
186 186 186
171 171 171
149 149 149
128 128 128
119 119 119
107 107 107
124 124 124
135 135 135
139 139 139
147 147 147
163 163 163
171 171 171
169 169 169
163 163 163
156 156 156
142 142 142
150 150 150
169 169 169
180 180 180
181 181 181
176 176 176
188 188 188
187 187 187
175 175 175
199 199 199
217 217 217
216 216 216
197 197 197
203 203 203
201 201 201
186 186 186
163 163 163
148 148 148
155 155 155
156 156 156
162 162 162
160 160 160
149 149 149
131 131 131
114 114 114
121 121 121
131 131 131
135 135 135
131 131 131
121 121 121
126 126 126
154 154 154
181 181 181
205 205 205
219 219 219
212 212 212
190 190 190
164 164 164
137 137 137
124 124 124
130 130 130
129 129 129
131 131 131
135 135 135
132 132 132
149 149 149
171 171 171
186 186 186
190 190 190
181 181 181
163 163 163
145 145 145
162 162 162
171 171 171
171 171 171
161 161 161
175 175 175
180 180 180
181 181 181
209 209 209
234 234 234
232 232 232
206 206 206
210 210 210
208 208 208
191 191 191
167 167 167
141 141 141
147 147 147
159 159 159
164 164 164
160 160 160
148 148 148
130 130 130
108 108 108
105 105 105
114 114 114
122 122 122
123 123 123
119 119 119
131 131 131
160 160 160
190 190 190
219 219 219
246 246 246
230 230 230
201 201 201
171 171 171
142 142 142
151 151 151
159 159 159
158 158 158
149 149 149
133 133 133
135 135 135
162 162 162
187 187 187
207 207 207
213 213 213
201 201 201
178 178 178
165 165 165
187 187 187
200 200 200
199 199 199
185 185 185
178 178 178
183 183 183
176 176 176
202 202 202
220 220 220
219 219 219
199 199 199
199 199 199
198 198 198
183 183 183
161 161 161
145 145 145
168 168 168
185 185 185
193 193 193
187 187 187
170 170 170
148 148 148
123 123 123
112 112 112
126 126 126
135 135 135
137 137 137
132 132 132
129 129 129
158 158 158
186 186 186
212 212 212
230 230 230
221 221 221
196 196 196
168 168 168
158 158 158
177 177 177
188 188 188
187 187 187
174 174 174
154 154 154
138 138 138
167 167 167
193 193 193
216 216 216
224 224 224
209 209 209
184 184 184
179 179 179
206 206 206
227 227 227
225 225 225
203 203 203
175 175 175
175 175 175
169 169 169
182 182 182
194 194 194
193 193 193
180 180 180
178 178 178
177 177 177
166 166 166
147 147 147
157 157 157
184 184 184
207 207 207
218 218 218
209 209 209
187 187 187
161 161 161
133 133 133
118 118 118
133 133 133
142 142 142
144 144 144
139 139 139
120 120 120
147 147 147
171 171 171
191 191 191
201 201 201
196 196 196
179 179 179
156 156 156
175 175 175
199 199 199
216 216 216
214 214 214
195 195 195
170 170 170
142 142 142
161 161 161
186 186 186
205 205 205
211 211 211
199 199 199
177 177 177
182 182 182
211 211 211
238 238 238
235 235 235
208 208 208
179 179 179
158 158 158
153 153 153
157 157 157
166 166 166
165 165 165
156 156 156
153 153 153
152 152 152
143 143 143
143 143 143
162 162 162
190 190 190
216 216 216
232 232 232
219 219 219
193 193 193
165 165 165
136 136 136
117 117 117
132 132 132
142 142 142
144 144 144
138 138 138
106 106 106
129 129 129
150 150 150
165 165 165
172 172 172
168 168 168
156 156 156
154 154 154
183 183 183
212 212 212
239 239 239
234 234 234
206 206 206
177 177 177
148 148 148
148 148 148
169 169 169
183 183 183
187 187 187
179 179 179
161 161 161
174 174 174
198 198 198
216 216 216
214 214 214
196 196 196
171 171 171
143 143 143
132 132 132
130 130 130
137 137 137
137 137 137
129 129 129
126 126 126
134 134 134
144 144 144
148 148 148
157 157 157
183 183 183
206 206 206
217 217 217
208 208 208
186 186 186
160 160 160
132 132 132
111 111 111
125 125 125
134 134 134
136 136 136
130 130 130
88 88 88
108 108 108
125 125 125
137 137 137
142 142 142
140 140 140
137 137 137
164 164 164
187 187 187
206 206 206
227 227 227
224 224 224
201 201 201
174 174 174
146 146 146
129 129 129
146 146 146
157 157 157
160 160 160
154 154 154
140 140 140
157 157 157
176 176 176
187 187 187
187 187 187
174 174 174
154 154 154
131 131 131
113 113 113
103 103 103
108 108 108
108 108 108
112 112 112
116 116 116
131 131 131
141 141 141
144 144 144
151 151 151
174 174 174
191 191 191
197 197 197
189 189 189
171 171 171
148 148 148
122 122 122
99 99 99
112 112 112
120 120 120
122 122 122
117 117 117
78 78 78
99 99 99
116 116 116
129 129 129
136 136 136
135 135 135
146 146 146
174 174 174
202 202 202
227 227 227
231 231 231
209 209 209
183 183 183
161 161 161
136 136 136
129 129 129
139 139 139
142 142 142
137 137 137
127 127 127
138 138 138
159 159 159
174 174 174
181 181 181
176 176 176
162 162 162
145 145 145
137 137 137
123 123 123
104 104 104
108 108 108
125 125 125
136 136 136
142 142 142
139 139 139
131 131 131
134 134 134
148 148 148
171 171 171
187 187 187
193 193 193
186 186 186
168 168 168
145 145 145
120 120 120
110 110 110
96 96 96
110 110 110
119 119 119
123 123 123
81 81 81
101 101 101
119 119 119
132 132 132
139 139 139
138 138 138
148 148 148
175 175 175
203 203 203
229 229 229
234 234 234
224 224 224
201 201 201
174 174 174
146 146 146
154 154 154
167 167 167
171 171 171
164 164 164
150 150 150
148 148 148
171 171 171
190 190 190
199 199 199
193 193 193
175 175 175
152 152 152
141 141 141
127 127 127
108 108 108
125 125 125
144 144 144
159 159 159
165 165 165
162 162 162
151 151 151
133 133 133
139 139 139
158 158 158
172 172 172
177 177 177
171 171 171
156 156 156
138 138 138
135 135 135
125 125 125
110 110 110
124 124 124
135 135 135
139 139 139
78 78 78
98 98 98
116 116 116
128 128 128
135 135 135
151 151 151
172 172 172
187 187 187
191 191 191
212 212 212
241 241 241
237 237 237
208 208 208
179 179 179
153 153 153
176 176 176
193 193 193
199 199 199
190 190 190
171 171 171
150 150 150
175 175 175
194 194 194
203 203 203
197 197 197
179 179 179
155 155 155
152 152 152
145 145 145
131 131 131
137 137 137
159 159 159
176 176 176
184 184 184
180 180 180
166 166 166
146 146 146
123 123 123
140 140 140
151 151 151
155 155 155
150 150 150
144 144 144
150 150 150
147 147 147
136 136 136
120 120 120
133 133 133
145 145 145
149 149 149
87 87 87
97 97 97
106 106 106
118 118 118
137 137 137
165 165 165
191 191 191
213 213 213
220 220 220
206 206 206
219 219 219
217 217 217
197 197 197
172 172 172
165 165 165
192 192 192
215 215 215
224 224 224
210 210 210
185 185 185
158 158 158
167 167 167
185 185 185
193 193 193
187 187 187
171 171 171
176 176 176
177 177 177
168 168 168
151 151 151
142 142 142
166 166 166
184 184 184
193 193 193
189 189 189
174 174 174
152 152 152
127 127 127
117 117 117
127 127 127
130 130 130
136 136 136
149 149 149
154 154 154
158 158 158
154 154 154
143 143 143
135 135 135
147 147 147
152 152 152
92 92 92
103 103 103
108 108 108
116 116 116
142 142 142
171 171 171
200 200 200
229 229 229
243 243 243
218 218 218
191 191 191
190 190 190
177 177 177
156 156 156
167 167 167
195 195 195
221 221 221
233 233 233
215 215 215
189 189 189
160 160 160
152 152 152
166 166 166
172 172 172
168 168 168
181 181 181
196 196 196
198 198 198
186 186 186
166 166 166
142 142 142
163 163 163
181 181 181
190 190 190
186 186 186
171 171 171
150 150 150
125 125 125
113 113 113
113 113 113
115 115 115
137 137 137
158 158 158
175 175 175
182 182 182
178 178 178
164 164 164
144 144 144
141 141 141
146 146 146
92 92 92
103 103 103
116 116 116
130 130 130
139 139 139
167 167 167
194 194 194
218 218 218
226 226 226
210 210 210
184 184 184
161 161 161
151 151 151
148 148 148
160 160 160
185 185 185
206 206 206
213 213 213
201 201 201
179 179 179
163 163 163
142 142 142
143 143 143
148 148 148
165 165 165
189 189 189
206 206 206
209 209 209
195 195 195
172 172 172
161 161 161
165 165 165
167 167 167
174 174 174
171 171 171
159 159 159
140 140 140
117 117 117
120 120 120
129 129 129
130 130 130
148 148 148
172 172 172
191 191 191
201 201 201
196 196 196
178 178 178
155 155 155
129 129 129
133 133 133
87 87 87
104 104 104
123 123 123
137 137 137
148 148 148
155 155 155
177 177 177
193 193 193
198 198 198
188 188 188
169 169 169
145 145 145
138 138 138
151 151 151
157 157 157
166 166 166
181 181 181
199 199 199
209 209 209
202 202 202
183 183 183
158 158 158
150 150 150
166 166 166
174 174 174
184 184 184
200 200 200
202 202 202
190 190 190
168 168 168
173 173 173
179 179 179
173 173 173
158 158 158
150 150 150
140 140 140
124 124 124
128 128 128
145 145 145
155 155 155
157 157 157
151 151 151
176 176 176
197 197 197
208 208 208
202 202 202
183 183 183
158 158 158
132 132 132
115 115 115
83 83 83
108 108 108
133 133 133
156 156 156
173 173 173
183 183 183
181 181 181
169 169 169
169 169 169
162 162 162
161 161 161
169 169 169
167 167 167
155 155 155
151 151 151
160 160 160
188 188 188
215 215 215
231 231 231
220 220 220
194 194 194
166 166 166
167 167 167
187 187 187
198 198 198
195 195 195
181 181 181
183 183 183
173 173 173
161 161 161
176 176 176
182 182 182
176 176 176
161 161 161
140 140 140
117 117 117
123 123 123
147 147 147
166 166 166
180 180 180
183 183 183
174 174 174
170 170 170
188 188 188
198 198 198
192 192 192
178 178 178
163 163 163
142 142 142
118 118 118
107 107 107
119 119 119
147 147 147
173 173 173
196 196 196
210 210 210
207 207 207
189 189 189
165 165 165
167 167 167
187 187 187
198 198 198
194 194 194
179 179 179
157 157 157
159 159 159
187 187 187
212 212 212
227 227 227
217 217 217
193 193 193
165 165 165
176 176 176
199 199 199
214 214 214
210 210 210
191 191 191
166 166 166
151 151 151
155 155 155
169 169 169
174 174 174
168 168 168
154 154 154
134 134 134
111 111 111
133 133 133
159 159 159
182 182 182
199 199 199
203 203 203
192 192 192
171 171 171
180 180 180
200 200 200
210 210 210
201 201 201
181 181 181
156 156 156
129 129 129
133 133 133
132 132 132
153 153 153
182 182 182
209 209 209
230 230 230
225 225 225
201 201 201
173 173 173
182 182 182
207 207 207
225 225 225
219 219 219
196 196 196
169 169 169
149 149 149
174 174 174
193 193 193
203 203 203
197 197 197
179 179 179
165 165 165
175 175 175
197 197 197
211 211 211
208 208 208
189 189 189
168 168 168
173 173 173
167 167 167
153 153 153
157 157 157
152 152 152
140 140 140
129 129 129
120 120 120
136 136 136
163 163 163
188 188 188
207 207 207
211 211 211
198 198 198
176 176 176
189 189 189
214 214 214
228 228 228
215 215 215
190 190 190
163 163 163
134 134 134
157 157 157
157 157 157
152 152 152
179 179 179
205 205 205
223 223 223
219 219 219
198 198 198
171 171 171
186 186 186
215 215 215
239 239 239
230 230 230
202 202 202
173 173 173
144 144 144
154 154 154
168 168 168
175 175 175
171 171 171
172 172 172
165 165 165
163 163 163
182 182 182
193 193 193
190 190 190
177 177 177
195 195 195
202 202 202
194 194 194
174 174 174
150 150 150
133 133 133
138 138 138
134 134 134
124 124 124
132 132 132
158 158 158
181 181 181
198 198 198
201 201 201
191 191 191
192 192 192
186 186 186
209 209 209
220 220 220
210 210 210
187 187 187
160 160 160
149 149 149
178 178 178
177 177 177
166 166 166
167 167 167
187 187 187
199 199 199
197 197 197
182 182 182
159 159 159
179 179 179
203 203 203
218 218 218
213 213 213
193 193 193
167 167 167
139 139 139
130 130 130
141 141 141
149 149 149
160 160 160
163 163 163
156 156 156
167 167 167
180 180 180
184 184 184
175 175 175
193 193 193
218 218 218
231 231 231
215 215 215
189 189 189
161 161 161
133 133 133
135 135 135
132 132 132
122 122 122
133 133 133
148 148 148
165 165 165
178 178 178
195 195 195
213 213 213
215 215 215
198 198 198
189 189 189
197 197 197
190 190 190
173 173 173
151 151 151
168 168 168
192 192 192
191 191 191
178 178 178
157 157 157
163 163 163
171 171 171
170 170 170
159 159 159
141 141 141
162 162 162
180 180 180
190 190 190
187 187 187
179 179 179
174 174 174
159 159 159
144 144 144
155 155 155
158 158 158
152 152 152
161 161 161
168 168 168
184 184 184
202 202 202
207 207 207
195 195 195
196 196 196
225 225 225
244 244 244
221 221 221
193 193 193
164 164 164
134 134 134
126 126 126
123 123 123
128 128 128
150 150 150
168 168 168
178 178 178
177 177 177
200 200 200
221 221 221
223 223 223
203 203 203
179 179 179
181 181 181
172 172 172
154 154 154
160 160 160
180 180 180
193 193 193
192 192 192
179 179 179
158 158 158
136 136 136
143 143 143
142 142 142
133 133 133
124 124 124
140 140 140
154 154 154
174 174 174
192 192 192
200 200 200
193 193 193
175 175 175
165 165 165
180 180 180
184 184 184
176 176 176
183 183 183
193 193 193
191 191 191
213 213 213
219 219 219
204 204 204
186 186 186
208 208 208
217 217 217
206 206 206
183 183 183
157 157 157
129 129 129
112 112 112
110 110 110
136 136 136
160 160 160
180 180 180
197 197 197
205 205 205
196 196 196
207 207 207
208 208 208
193 193 193
204 204 204
207 207 207
193 193 193
171 171 171
161 161 161
181 181 181
181 181 181
180 180 180
169 169 169
151 151 151
137 137 137
127 127 127
142 142 142
152 152 152
153 153 153
146 146 146
155 155 155
180 180 180
201 201 201
210 210 210
202 202 202
181 181 181
181 181 181
200 200 200
206 206 206
195 195 195
198 198 198
211 211 211
207 207 207
205 205 205
210 210 210
197 197 197
175 175 175
182 182 182
188 188 188
181 181 181
164 164 164
142 142 142
118 118 118
109 109 109
111 111 111
137 137 137
165 165 165
193 193 193
220 220 220
234 234 234
218 218 218
191 191 191
183 183 183
198 198 198
220 220 220
224 224 224
205 205 205
179 179 179
153 153 153
171 171 171
161 161 161
171 171 171
172 172 172
164 164 164
148 148 148
148 148 148
167 167 167
180 180 180
182 182 182
173 173 173
155 155 155
175 175 175
194 194 194
202 202 202
195 195 195
176 176 176
188 188 188
208 208 208
215 215 215
203 203 203
200 200 200
214 214 214
209 209 209
190 190 190
188 188 188
179 179 179
161 161 161
155 155 155
159 159 159
154 154 154
141 141 141
141 141 141
143 143 143
136 136 136
124 124 124
137 137 137
167 167 167
196 196 196
224 224 224
244 244 244
222 222 222
194 194 194
169 169 169
195 195 195
214 214 214
218 218 218
201 201 201
177 177 177
150 150 150
153 153 153
163 163 163
175 175 175
177 177 177
168 168 168
151 151 151
165 165 165
189 189 189
207 207 207
210 210 210
196 196 196
174 174 174
161 161 161
176 176 176
182 182 182
177 177 177
162 162 162
181 181 181
200 200 200
206 206 206
195 195 195
187 187 187
198 198 198
195 195 195
179 179 179
161 161 161
155 155 155
141 141 141
126 126 126
129 129 129
139 139 139
157 157 157
169 169 169
171 171 171
163 163 163
147 147 147
132 132 132
159 159 159
185 185 185
206 206 206
215 215 215
205 205 205
183 183 183
157 157 157
179 179 179
193 193 193
196 196 196
184 184 184
164 164 164
157 157 157
147 147 147
158 158 158
169 169 169
171 171 171
162 162 162
147 147 147
174 174 174
202 202 202
228 228 228
235 235 235
212 212 212
184 184 184
168 168 168
184 184 184
191 191 191
184 184 184
168 168 168
165 165 165
180 180 180
184 184 184
176 176 176
166 166 166
174 174 174
172 172 172
160 160 160
141 141 141
129 129 129
117 117 117
124 124 124
134 134 134
157 157 157
179 179 179
194 194 194
197 197 197
186 186 186
166 166 166
142 142 142
144 144 144
165 165 165
180 180 180
186 186 186
179 179 179
163 163 163
142 142 142
159 159 159
171 171 171
174 174 174
167 167 167
175 175 175
173 173 173
161 161 161
145 145 145
154 154 154
156 156 156
149 149 149
154 154 154
173 173 173
200 200 200
225 225 225
230 230 230
210 210 210
183 183 183
186 186 186
209 209 209
219 219 219
209 209 209
186 186 186
159 159 159
155 155 155
158 158 158
152 152 152
141 141 141
147 147 147
146 146 146
136 136 136
121 121 121
101 101 101
118 118 118
133 133 133
143 143 143
168 168 168
194 194 194
215 215 215
219 219 219
203 203 203
178 178 178
151 151 151
151 151 151
168 168 168
177 177 177
176 176 176
164 164 164
145 145 145
153 153 153
175 175 175
190 190 190
194 194 194
184 184 184
183 183 183
180 180 180
167 167 167
129 129 129
137 137 137
159 159 159
176 176 176
184 184 184
180 180 180
185 185 185
201 201 201
204 204 204
192 192 192
170 170 170
194 194 194
223 223 223
242 242 242
223 223 223
194 194 194
165 165 165
136 136 136
130 130 130
126 126 126
115 115 115
120 120 120
118 118 118
111 111 111
98 98 98
119 119 119
140 140 140
158 158 158
169 169 169
170 170 170
197 197 197
219 219 219
224 224 224
206 206 206
180 180 180
153 153 153
170 170 170
192 192 192
206 206 206
204 204 204
187 187 187
164 164 164
159 159 159
182 182 182
199 199 199
204 204 204
192 192 192
179 179 179
176 176 176
164 164 164
133 133 133
152 152 152
178 178 178
200 200 200
213 213 213
206 206 206
194 194 194
191 191 191
177 177 177
167 167 167
162 162 162
189 189 189
214 214 214
226 226 226
214 214 214
189 189 189
169 169 169
158 158 158
140 140 140
132 132 132
130 130 130
121 121 121
114 114 114
107 107 107
107 107 107
134 134 134
159 159 159
181 181 181
196 196 196
198 198 198
186 186 186
202 202 202
206 206 206
193 193 193
181 181 181
163 163 163
182 182 182
210 210 210
233 233 233
228 228 228
203 203 203
175 175 175
156 156 156
178 178 178
194 194 194
198 198 198
188 188 188
168 168 168
163 163 163
152 152 152
131 131 131
160 160 160
189 189 189
217 217 217
240 240 240
227 227 227
219 219 219
214 214 214
194 194 194
168 168 168
150 150 150
173 173 173
191 191 191
198 198 198
191 191 191
192 192 192
190 190 190
176 176 176
155 155 155
161 161 161
158 158 158
147 147 147
137 137 137
129 129 129
116 116 116
144 144 144
172 172 172
198 198 198
220 220 220
223 223 223
205 205 205
191 191 191
212 212 212
219 219 219
205 205 205
181 181 181
183 183 183
212 212 212
237 237 237
231 231 231
204 204 204
176 176 176
147 147 147
164 164 164
177 177 177
180 180 180
172 172 172
159 159 159
145 145 145
134 134 134
130 130 130
159 159 159
188 188 188
215 215 215
235 235 235
224 224 224
230 230 230
223 223 223
199 199 199
171 171 171
155 155 155
151 151 151
164 164 164
170 170 170
192 192 192
206 206 206
203 203 203
186 186 186
179 179 179
188 188 188
185 185 185
171 171 171
157 157 157
148 148 148
132 132 132
146 146 146
174 174 174
203 203 203
227 227 227
232 232 232
210 210 210
201 201 201
230 230 230
245 245 245
218 218 218
189 189 189
173 173 173
196 196 196
211 211 211
209 209 209
191 191 191
166 166 166
140 140 140
144 144 144
164 164 164
179 179 179
184 184 184
176 176 176
160 160 160
139 139 139
122 122 122
149 149 149
175 175 175
195 195 195
207 207 207
201 201 201
213 213 213
209 209 209
191 191 191
192 192 192
181 181 181
162 162 162
144 144 144
169 169 169
190 190 190
203 203 203
201 201 201
184 184 184
201 201 201
214 214 214
209 209 209
189 189 189
171 171 171
161 161 161
143 143 143
140 140 140
167 167 167
192 192 192
210 210 210
212 212 212
197 197 197
196 196 196
220 220 220
229 229 229
211 211 211
185 185 185
157 157 157
174 174 174
182 182 182
181 181 181
169 169 169
149 149 149
135 135 135
150 150 150
172 172 172
188 188 188
194 194 194
185 185 185
167 167 167
144 144 144
121 121 121
149 149 149
175 175 175
199 199 199
214 214 214
211 211 211
192 192 192
197 197 197
217 217 217
220 220 220
203 203 203
177 177 177
150 150 150
158 158 158
176 176 176
187 187 187
185 185 185
184 184 184
211 211 211
229 229 229
221 221 221
197 197 197
176 176 176
165 165 165
147 147 147
128 128 128
151 151 151
171 171 171
184 184 184
185 185 185
175 175 175
179 179 179
196 196 196
200 200 200
190 190 190
170 170 170
176 176 176
198 198 198
210 210 210
205 205 205
186 186 186
161 161 161
157 157 157
151 151 151
170 170 170
186 186 186
191 191 191
183 183 183
165 165 165
143 143 143
120 120 120
147 147 147
173 173 173
196 196 196
211 211 211
208 208 208
190 190 190
206 206 206
234 234 234
240 240 240
213 213 213
184 184 184
155 155 155
163 163 163
174 174 174
175 175 175
165 165 165
179 179 179
203 203 203
217 217 217
212 212 212
191 191 191
170 170 170
160 160 160
143 143 143
143 143 143
143 143 143
146 146 146
156 156 156
159 159 159
174 174 174
181 181 181
176 176 176
171 171 171
164 164 164
158 158 158
187 187 187
214 214 214
234 234 234
224 224 224
198 198 198
172 172 172
175 175 175
168 168 168
158 158 158
171 171 171
176 176 176
169 169 169
154 154 154
134 134 134
112 112 112
138 138 138
162 162 162
181 181 181
192 192 192
190 190 190
176 176 176
199 199 199
220 220 220
223 223 223
204 204 204
179 179 179
162 162 162
184 184 184
198 198 198
199 199 199
186 186 186
164 164 164
183 183 183
192 192 192
189 189 189
174 174 174
156 156 156
147 147 147
154 154 154
163 163 163
163 163 163
154 154 154
140 140 140
161 161 161
177 177 177
184 184 184
179 179 179
165 165 165
144 144 144
158 158 158
186 186 186
212 212 212
231 231 231
221 221 221
197 197 197
181 181 181
184 184 184
176 176 176
159 159 159
151 151 151
154 154 154
150 150 150
139 139 139
122 122 122
100 100 100
123 123 123
144 144 144
159 159 159
167 167 167
166 166 166
158 158 158
179 179 179
194 194 194
195 195 195
184 184 184
164 164 164
171 171 171
196 196 196
214 214 214
215 215 215
198 198 198
173 173 173
158 158 158
165 165 165
162 162 162
151 151 151
136 136 136
148 148 148
166 166 166
176 176 176
176 176 176
166 166 166
149 149 149
155 155 155
170 170 170
176 176 176
171 171 171
158 158 158
138 138 138
148 148 148
173 173 173
194 194 194
205 205 205
200 200 200
182 182 182
179 179 179
182 182 182
174 174 174
157 157 157
171 171 171
177 177 177
173 173 173
159 159 159
139 139 139
101 101 101
126 126 126
149 149 149
168 168 168
180 180 180
181 181 181
171 171 171
155 155 155
165 165 165
175 175 175
184 184 184
181 181 181
170 170 170
194 194 194
212 212 212
213 213 213
196 196 196
172 172 172
146 146 146
136 136 136
146 146 146
150 150 150
146 146 146
150 150 150
169 169 169
180 180 180
180 180 180
169 169 169
151 151 151
141 141 141
153 153 153
159 159 159
155 155 155
143 143 143
126 126 126
147 147 147
163 163 163
171 171 171
176 176 176
173 173 173
160 160 160
166 166 166
169 169 169
162 162 162
170 170 170
188 188 188
196 196 196
190 190 190
173 173 173
150 150 150
