P3
50 50
255
118 118 118
138 138 138
154 154 154
163 163 163
162 162 162
153 153 153
137 137 137
139 139 139
134 134 134
122 122 122
105 105 105
107 107 107
120 120 120
128 128 128
148 148 148
165 165 165
174 174 174
173 173 173
162 162 162
144 144 144
136 136 136
164 164 164
190 190 190
212 212 212
220 220 220
206 206 206
182 182 182
155 155 155
144 144 144
132 132 132
116 116 116
131 131 131
144 144 144
151 151 151
149 149 149
139 139 139
127 127 127
154 154 154
183 183 183
211 211 211
236 236 236
230 230 230
204 204 204
176 176 176
146 146 146
122 122 122
138 138 138
148 148 148
150 150 150
156 156 156
134 134 134
157 157 157
176 176 176
187 187 187
187 187 187
174 174 174
162 162 162
165 165 165
158 158 158
144 144 144
124 124 124
125 125 125
141 141 141
151 151 151
161 161 161
181 181 181
192 192 192
191 191 191
177 177 177
156 156 156
133 133 133
159 159 159
184 184 184
203 203 203
209 209 209
198 198 198
177 177 177
160 160 160
155 155 155
143 143 143
125 125 125
143 143 143
158 158 158
165 165 165
163 163 163
152 152 152
135 135 135
154 154 154
183 183 183
211 211 211
235 235 235
230 230 230
204 204 204
175 175 175
146 146 146
131 131 131
148 148 148
159 159 159
170 170 170
182 182 182
143 143 143
169 169 169
192 192 192
207 207 207
206 206 206
190 190 190
185 185 185
189 189 189
180 180 180
162 162 162
139 139 139
140 140 140
158 158 158
169 169 169
172 172 172
187 187 187
200 200 200
198 198 198
183 183 183
161 161 161
141 141 141
147 147 147
168 168 168
182 182 182
187 187 187
179 179 179
169 169 169
175 175 175
171 171 171
157 157 157
138 138 138
148 148 148
164 164 164
171 171 171
169 169 169
157 157 157
148 148 148
167 167 167
179 179 179
194 194 194
208 208 208
206 206 206
189 189 189
165 165 165
139 139 139
133 133 133
150 150 150
166 166 166
189 189 189
204 204 204
159 159 159
172 172 172
196 196 196
212 212 212
211 211 211
193 193 193
200 200 200
205 205 205
194 194 194
173 173 173
148 148 148
147 147 147
167 167 167
180 180 180
183 183 183
181 181 181
192 192 192
191 191 191
177 177 177
156 156 156
163 163 163
164 164 164
156 156 156
157 157 157
160 160 160
175 175 175
195 195 195
204 204 204
197 197 197
179 179 179
155 155 155
145 145 145
160 160 160
167 167 167
165 165 165
154 154 154
158 158 158
179 179 179
194 194 194
196 196 196
184 184 184
178 178 178
166 166 166
147 147 147
124 124 124
128 128 128
144 144 144
172 172 172
197 197 197
215 215 215
176 176 176
180 180 180
186 186 186
199 199 199
198 198 198
184 184 184
202 202 202
207 207 207
195 195 195
174 174 174
164 164 164
150 150 150
167 167 167
180 180 180
183 183 183
174 174 174
174 174 174
173 173 173
162 162 162
167 167 167
179 179 179
181 181 181
171 171 171
154 154 154
161 161 161
189 189 189
215 215 215
232 232 232
219 219 219
194 194 194
166 166 166
137 137 137
154 154 154
166 166 166
169 169 169
162 162 162
160 160 160
182 182 182
196 196 196
198 198 198
186 186 186
166 166 166
141 141 141
125 125 125
118 118 118
116 116 116
141 141 141
167 167 167
191 191 191
207 207 207
184 184 184
188 188 188
183 183 183
181 181 181
176 176 176
174 174 174
189 189 189
193 193 193
191 191 191
198 198 198
190 190 190
172 172 172
158 158 158
170 170 170
172 172 172
164 164 164
151 151 151
150 150 150
152 152 152
172 172 172
186 186 186
187 187 187
177 177 177
159 159 159
162 162 162
191 191 191
219 219 219
239 239 239
224 224 224
196 196 196
167 167 167
150 150 150
171 171 171
185 185 185
188 188 188
179 179 179
161 161 161
172 172 172
185 185 185
187 187 187
176 176 176
158 158 158
140 140 140
142 142 142
137 137 137
125 125 125
137 137 137
156 156 156
174 174 174
186 186 186
181 181 181
185 185 185
188 188 188
186 186 186
172 172 172
155 155 155
167 167 167
190 190 190
214 214 214
226 226 226
213 213 213
189 189 189
161 161 161
151 151 151
153 153 153
147 147 147
147 147 147
146 146 146
148 148 148
168 168 168
180 180 180
182 182 182
172 172 172
155 155 155
155 155 155
181 181 181
203 203 203
213 213 213
205 205 205
185 185 185
159 159 159
156 156 156
178 178 178
194 194 194
198 198 198
188 188 188
168 168 168
172 172 172
182 182 182
180 180 180
168 168 168
149 149 149
154 154 154
157 157 157
151 151 151
141 141 141
153 153 153
174 174 174
190 190 190
193 193 193
167 167 167
171 171 171
180 180 180
178 178 178
166 166 166
158 158 158
166 166 166
195 195 195
223 223 223
242 242 242
222 222 222
194 194 194
165 165 165
149 149 149
144 144 144
155 155 155
164 164 164
163 163 163
153 153 153
154 154 154
165 165 165
166 166 166
158 158 158
143 143 143
157 157 157
172 172 172
178 178 178
185 185 185
180 180 180
165 165 165
150 150 150
153 153 153
175 175 175
190 190 190
194 194 194
184 184 184
165 165 165
174 174 174
184 184 184
182 182 182
170 170 170
150 150 150
161 161 161
163 163 163
171 171 171
168 168 168
161 161 161
185 185 185
204 204 204
208 208 208
147 147 147
165 165 165
182 182 182
189 189 189
184 184 184
174 174 174
178 178 178
187 187 187
209 209 209
220 220 220
209 209 209
198 198 198
179 179 179
179 179 179
172 172 172
164 164 164
173 173 173
172 172 172
161 161 161
151 151 151
148 148 148
149 149 149
147 147 147
138 138 138
154 154 154
168 168 168
174 174 174
169 169 169
155 155 155
149 149 149
157 157 157
156 156 156
162 162 162
175 175 175
178 178 178
170 170 170
154 154 154
166 166 166
175 175 175
173 173 173
162 162 162
147 147 147
167 167 167
187 187 187
197 197 197
194 194 194
178 178 178
185 185 185
203 203 203
207 207 207
157 157 157
183 183 183
206 206 206
218 218 218
209 209 209
187 187 187
185 185 185
178 178 178
185 185 185
207 207 207
218 218 218
207 207 207
202 202 202
208 208 208
198 198 198
177 177 177
172 172 172
171 171 171
166 166 166
172 172 172
168 168 168
162 162 162
160 160 160
149 149 149
145 145 145
156 156 156
161 161 161
156 156 156
144 144 144
155 155 155
158 158 158
154 154 154
145 145 145
153 153 153
155 155 155
149 149 149
136 136 136
150 150 150
157 157 157
156 156 156
150 150 150
160 160 160
180 180 180
204 204 204
220 220 220
214 214 214
193 193 193
172 172 172
187 187 187
191 191 191
163 163 163
192 192 192
220 220 220
241 241 241
224 224 224
196 196 196
181 181 181
174 174 174
179 179 179
200 200 200
208 208 208
200 200 200
224 224 224
237 237 237
217 217 217
190 190 190
161 161 161
162 162 162
179 179 179
186 186 186
182 182 182
167 167 167
164 164 164
173 173 173
174 174 174
165 165 165
149 149 149
140 140 140
161 161 161
175 175 175
180 180 180
174 174 174
159 159 159
141 141 141
147 147 147
159 159 159
164 164 164
159 159 159
146 146 146
142 142 142
146 146 146
173 173 173
197 197 197
215 215 215
224 224 224
218 218 218
195 195 195
168 168 168
164 164 164
167 167 167
160 160 160
187 187 187
213 213 213
227 227 227
216 216 216
198 198 198
191 191 191
173 173 173
164 164 164
180 180 180
186 186 186
198 198 198
225 225 225
241 241 241
219 219 219
191 191 191
162 162 162
164 164 164
182 182 182
190 190 190
185 185 185
170 170 170
185 185 185
201 201 201
203 203 203
190 190 190
168 168 168
149 149 149
172 172 172
189 189 189
195 195 195
187 187 187
175 175 175
168 168 168
169 169 169
186 186 186
192 192 192
185 185 185
168 168 168
145 145 145
148 148 148
176 176 176
202 202 202
221 221 221
220 220 220
202 202 202
184 184 184
160 160 160
152 152 152
141 141 141
150 150 150
172 172 172
191 191 191
199 199 199
199 199 199
208 208 208
200 200 200
180 180 180
155 155 155
156 156 156
160 160 160
185 185 185
205 205 205
212 212 212
201 201 201
179 179 179
153 153 153
157 157 157
173 173 173
180 180 180
176 176 176
174 174 174
202 202 202
227 227 227
231 231 231
209 209 209
182 182 182
153 153 153
173 173 173
191 191 191
197 197 197
199 199 199
204 204 204
194 194 194
186 186 186
209 209 209
219 219 219
207 207 207
185 185 185
158 158 158
142 142 142
168 168 168
191 191 191
206 206 206
205 205 205
190 190 190
167 167 167
152 152 152
145 145 145
148 148 148
178 178 178
185 185 185
180 180 180
175 175 175
193 193 193
201 201 201
193 193 193
175 175 175
165 165 165
158 158 158
143 143 143
164 164 164
178 178 178
183 183 183
176 176 176
162 162 162
160 160 160
150 150 150
156 156 156
162 162 162
159 159 159
177 177 177
206 206 206
234 234 234
240 240 240
213 213 213
184 184 184
155 155 155
165 165 165
180 180 180
196 196 196
221 221 221
231 231 231
213 213 213
193 193 193
220 220 220
234 234 234
218 218 218
191 191 191
163 163 163
134 134 134
153 153 153
171 171 171
182 182 182
181 181 181
170 170 170
167 167 167
162 162 162
156 156 156
162 162 162
203 203 203
214 214 214
207 207 207
186 186 186
176 176 176
182 182 182
176 176 176
178 178 178
180 180 180
172 172 172
155 155 155
139 139 139
150 150 150
153 153 153
165 165 165
173 173 173
171 171 171
159 159 159
140 140 140
139 139 139
147 147 147
169 169 169
193 193 193
212 212 212
215 215 215
199 199 199
175 175 175
158 158 158
163 163 163
181 181 181
198 198 198
225 225 225
237 237 237
216 216 216
189 189 189
209 209 209
219 219 219
208 208 208
185 185 185
159 159 159
151 151 151
139 139 139
146 146 146
154 154 154
164 164 164
180 180 180
188 188 188
182 182 182
167 167 167
181 181 181
220 220 220
243 243 243
226 226 226
198 198 198
169 169 169
177 177 177
176 176 176
182 182 182
185 185 185
176 176 176
159 159 159
136 136 136
129 129 129
150 150 150
166 166 166
174 174 174
171 171 171
160 160 160
158 158 158
165 165 165
164 164 164
179 179 179
199 199 199
206 206 206
197 197 197
177 177 177
157 157 157
167 167 167
172 172 172
197 197 197
221 221 221
228 228 228
213 213 213
200 200 200
178 178 178
186 186 186
192 192 192
185 185 185
177 177 177
178 178 178
168 168 168
168 168 168
169 169 169
161 161 161
173 173 173
191 191 191
200 200 200
194 194 194
176 176 176
192 192 192
217 217 217
235 235 235
222 222 222
196 196 196
172 172 172
183 183 183
181 181 181
176 176 176
178 178 178
170 170 170
154 154 154
132 132 132
147 147 147
164 164 164
174 174 174
173 173 173
163 163 163
161 161 161
179 179 179
189 189 189
187 187 187
178 178 178
197 197 197
205 205 205
196 196 196
176 176 176
152 152 152
166 166 166
172 172 172
200 200 200
226 226 226
235 235 235
213 213 213
186 186 186
160 160 160
160 160 160
164 164 164
174 174 174
187 187 187
188 188 188
181 181 181
196 196 196
198 198 198
186 186 186
171 171 171
190 190 190
198 198 198
192 192 192
175 175 175
190 190 190
196 196 196
206 206 206
199 199 199
181 181 181
167 167 167
177 177 177
176 176 176
165 165 165
162 162 162
155 155 155
141 141 141
137 137 137
159 159 159
179 179 179
191 191 191
190 190 190
178 178 178
172 172 172
194 194 194
207 207 207
204 204 204
186 186 186
183 183 183
189 189 189
182 182 182
165 165 165
163 163 163
162 162 162
163 163 163
188 188 188
207 207 207
212 212 212
199 199 199
176 176 176
150 150 150
132 132 132
153 153 153
172 172 172
185 185 185
186 186 186
199 199 199
222 222 222
226 226 226
206 206 206
180 180 180
176 176 176
183 183 183
178 178 178
163 163 163
176 176 176
170 170 170
177 177 177
172 172 172
159 159 159
158 158 158
165 165 165
163 163 163
151 151 151
141 141 141
135 135 135
139 139 139
151 151 151
163 163 163
184 184 184
197 197 197
196 196 196
183 183 183
173 173 173
196 196 196
210 210 210
206 206 206
188 188 188
164 164 164
165 165 165
160 160 160
180 180 180
191 191 191
190 190 190
177 177 177
168 168 168
181 181 181
184 184 184
175 175 175
158 158 158
136 136 136
121 121 121
143 143 143
161 161 161
171 171 171
176 176 176
205 205 205
233 233 233
239 239 239
213 213 213
184 184 184
163 163 163
165 165 165
159 159 159
145 145 145
155 155 155
142 142 142
147 147 147
145 145 145
153 153 153
169 169 169
177 177 177
174 174 174
161 161 161
143 143 143
130 130 130
144 144 144
157 157 157
161 161 161
177 177 177
189 189 189
188 188 188
176 176 176
165 165 165
184 184 184
195 195 195
192 192 192
178 178 178
156 156 156
149 149 149
176 176 176
201 201 201
218 218 218
216 216 216
196 196 196
171 171 171
153 153 153
155 155 155
149 149 149
135 135 135
125 125 125
112 112 112
133 133 133
150 150 150
161 161 161
169 169 169
195 195 195
214 214 214
218 218 218
201 201 201
177 177 177
190 190 190
194 194 194
184 184 184
166 166 166
142 142 142
144 144 144
162 162 162
174 174 174
175 175 175
170 170 170
178 178 178
175 175 175
168 168 168
161 161 161
146 146 146
142 142 142
154 154 154
159 159 159
161 161 161
180 180 180
193 193 193
193 193 193
181 181 181
164 164 164
172 172 172
170 170 170
166 166 166
168 168 168
160 160 160
182 182 182
211 211 211
236 236 236
232 232 232
205 205 205
177 177 177
147 147 147
160 160 160
166 166 166
162 162 162
150 150 150
131 131 131
152 152 152
173 173 173
188 188 188
191 191 191
181 181 181
188 188 188
190 190 190
192 192 192
192 192 192
213 213 213
220 220 220
205 205 205
181 181 181
154 154 154
162 162 162
186 186 186
202 202 202
205 205 205
191 191 191
170 170 170
177 177 177
180 180 180
172 172 172
155 155 155
163 163 163
171 171 171
169 169 169
171 171 171
195 195 195
213 213 213
213 213 213
196 196 196
172 172 172
157 157 157
179 179 179
194 194 194
197 197 197
186 186 186
177 177 177
203 203 203
221 221 221
218 218 218
198 198 198
172 172 172
167 167 167
184 184 184
192 192 192
186 186 186
170 170 170
148 148 148
165 165 165
191 191 191
210 210 210
215 215 215
201 201 201
178 178 178
200 200 200
211 211 211
204 204 204
224 224 224
234 234 234
214 214 214
187 187 187
158 158 158
174 174 174
202 202 202
227 227 227
232 232 232
210 210 210
183 183 183
178 178 178
181 181 181
173 173 173
163 163 163
181 181 181
191 191 191
189 189 189
174 174 174
198 198 198
217 217 217
217 217 217
199 199 199
174 174 174
170 170 170
197 197 197
219 219 219
225 225 225
207 207 207
181 181 181
182 182 182
194 194 194
193 193 193
179 179 179
158 158 158
180 180 180
202 202 202
212 212 212
205 205 205
184 184 184
159 159 159
170 170 170
197 197 197
221 221 221
227 227 227
209 209 209
183 183 183
202 202 202
213 213 213
206 206 206
211 211 211
217 217 217
203 203 203
180 180 180
153 153 153
176 176 176
205 205 205
233 233 233
240 240 240
213 213 213
185 185 185
169 169 169
171 171 171
168 168 168
169 169 169
190 190 190
202 202 202
199 199 199
182 182 182
186 186 186
201 201 201
201 201 201
187 187 187
165 165 165
174 174 174
203 203 203
231 231 231
240 240 240
215 215 215
186 186 186
157 157 157
166 166 166
165 165 165
155 155 155
156 156 156
183 183 183
206 206 206
218 218 218
209 209 209
187 187 187
161 161 161
165 165 165
190 190 190
209 209 209
213 213 213
200 200 200
176 176 176
189 189 189
198 198 198
192 192 192
187 187 187
191 191 191
182 182 182
164 164 164
147 147 147
167 167 167
192 192 192
211 211 211
214 214 214
198 198 198
175 175 175
158 158 158
174 174 174
180 180 180
175 175 175
186 186 186
197 197 197
194 194 194
179 179 179
173 173 173
177 177 177
177 177 177
167 167 167
165 165 165
181 181 181
194 194 194
215 215 215
219 219 219
203 203 203
179 179 179
151 151 151
154 154 154
155 155 155
147 147 147
150 150 150
174 174 174
194 194 194
203 203 203
196 196 196
178 178 178
154 154 154
151 151 151
172 172 172
186 186 186
189 189 189
179 179 179
167 167 167
168 168 168
174 174 174
170 170 170
160 160 160
162 162 162
156 156 156
142 142 142
140 140 140
153 153 153
170 170 170
183 183 183
185 185 185
175 175 175
163 163 163
159 159 159
175 175 175
182 182 182
177 177 177
172 172 172
180 180 180
178 178 178
170 170 170
180 180 180
179 179 179
167 167 167
182 182 182
186 186 186
182 182 182
188 188 188
189 189 189
191 191 191
181 181 181
162 162 162
168 168 168
180 180 180
181 181 181
171 171 171
153 153 153
161 161 161
173 173 173
179 179 179
174 174 174
160 160 160
140 140 140
138 138 138
148 148 148
159 159 159
174 174 174
187 187 187
188 188 188
177 177 177
157 157 157
145 145 145
134 134 134
133 133 133
128 128 128
124 124 124
132 132 132
160 160 160
177 177 177
186 186 186
182 182 182
187 187 187
181 181 181
164 164 164
166 166 166
172 172 172
168 168 168
154 154 154
157 157 157
155 155 155
166 166 166
176 176 176
175 175 175
186 186 186
206 206 206
213 213 213
201 201 201
179 179 179
172 172 172
162 162 162
155 155 155
164 164 164
187 187 187
202 202 202
204 204 204
190 190 190
168 168 168
182 182 182
194 194 194
192 192 192
178 178 178
157 157 157
159 159 159
159 159 159
150 150 150
162 162 162
184 184 184
198 198 198
200 200 200
186 186 186
165 165 165
140 140 140
114 114 114
123 123 123
140 140 140
150 150 150
153 153 153
159 159 159
176 176 176
184 184 184
189 189 189
196 196 196
189 189 189
181 181 181
184 184 184
175 175 175
157 157 157
146 146 146
153 153 153
151 151 151
154 154 154
162 162 162
167 167 167
195 195 195
219 219 219
230 230 230
213 213 213
187 187 187
159 159 159
149 149 149
165 165 165
173 173 173
195 195 195
214 214 214
216 216 216
199 199 199
175 175 175
196 196 196
211 211 211
208 208 208
191 191 191
173 173 173
184 184 184
184 184 184
172 172 172
160 160 160
182 182 182
196 196 196
197 197 197
184 184 184
163 163 163
139 139 139
118 118 118
141 141 141
161 161 161
174 174 174
177 177 177
149 149 149
164 164 164
171 171 171
185 185 185
191 191 191
189 189 189
207 207 207
211 211 211
197 197 197
175 175 175
172 172 172
181 181 181
179 179 179
167 167 167
169 169 169
167 167 167
190 190 190
212 212 212
220 220 220
207 207 207
183 183 183
156 156 156
167 167 167
187 187 187
199 199 199
196 196 196
207 207 207
209 209 209
194 194 194
173 173 173
196 196 196
211 211 211
209 209 209
191 191 191
189 189 189
204 204 204
204 204 204
189 189 189
166 166 166
169 169 169
180 180 180
181 181 181
171 171 171
153 153 153
135 135 135
137 137 137
154 154 154
176 176 176
192 192 192
197 197 197
133 133 133
146 146 146
156 156 156
170 170 170
175 175 175
201 201 201
226 226 226
233 233 233
211 211 211
184 184 184
196 196 196
209 209 209
206 206 206
188 188 188
182 182 182
179 179 179
174 174 174
190 190 190
195 195 195
187 187 187
169 169 169
173 173 173
178 178 178
203 203 203
219 219 219
215 215 215
194 194 194
188 188 188
177 177 177
163 163 163
183 183 183
195 195 195
193 193 193
199 199 199
205 205 205
211 211 211
211 211 211
194 194 194
170 170 170
149 149 149
158 158 158
159 159 159
151 151 151
146 146 146
159 159 159
165 165 165
161 161 161
182 182 182
200 200 200
205 205 205
112 112 112
123 123 123
137 137 137
152 152 152
171 171 171
198 198 198
221 221 221
226 226 226
208 208 208
184 184 184
211 211 211
233 233 233
227 227 227
201 201 201
184 184 184
181 181 181
168 168 168
164 164 164
168 168 168
173 173 173
189 189 189
193 193 193
184 184 184
203 203 203
220 220 220
216 216 216
195 195 195
169 169 169
154 154 154
146 146 146
162 162 162
171 171 171
191 191 191
213 213 213
221 221 221
207 207 207
200 200 200
186 186 186
164 164 164
148 148 148
146 146 146
136 136 136
145 145 145
166 166 166
184 184 184
191 191 191
186 186 186
177 177 177
193 193 193
198 198 198
107 107 107
131 131 131
151 151 151
170 170 170
187 187 187
194 194 194
198 198 198
201 201 201
189 189 189
182 182 182
209 209 209
230 230 230
224 224 224
200 200 200
174 174 174
173 173 173
170 170 170
158 158 158
157 157 157
180 180 180
198 198 198
203 203 203
193 193 193
189 189 189
201 201 201
198 198 198
182 182 182
160 160 160
134 134 134
135 135 135
138 138 138
163 163 163
188 188 188
209 209 209
216 216 216
203 203 203
180 180 180
168 168 168
169 169 169
176 176 176
173 173 173
160 160 160
158 158 158
183 183 183
203 203 203
214 214 214
206 206 206
185 185 185
175 175 175
179 179 179
119 119 119
145 145 145
169 169 169
189 189 189
199 199 199
208 208 208
199 199 199
180 180 180
165 165 165
170 170 170
192 192 192
204 204 204
201 201 201
185 185 185
184 184 184
194 194 194
191 191 191
176 176 176
154 154 154
176 176 176
193 193 193
198 198 198
188 188 188
169 169 169
175 175 175
173 173 173
162 162 162
143 143 143
151 151 151
160 160 160
161 161 161
154 154 154
174 174 174
190 190 190
194 194 194
185 185 185
167 167 167
172 172 172
192 192 192
202 202 202
197 197 197
180 180 180
164 164 164
190 190 190
212 212 212
223 223 223
213 213 213
190 190 190
163 163 163
154 154 154
132 132 132
153 153 153
180 180 180
203 203 203
216 216 216
210 210 210
197 197 197
178 178 178
154 154 154
151 151 151
168 168 168
176 176 176
174 174 174
173 173 173
194 194 194
207 207 207
202 202 202
185 185 185
172 172 172
163 163 163
176 176 176
180 180 180
172 172 172
156 156 156
148 148 148
146 146 146
137 137 137
152 152 152
171 171 171
183 183 183
184 184 184
182 182 182
186 186 186
178 178 178
168 168 168
162 162 162
156 156 156
183 183 183
207 207 207
222 222 222
214 214 214
192 192 192
184 184 184
193 193 193
205 205 205
211 211 211
201 201 201
182 182 182
157 157 157
130 130 130
155 155 155
169 169 169
179 179 179
202 202 202
215 215 215
209 209 209
189 189 189
166 166 166
144 144 144
128 128 128
141 141 141
147 147 147
153 153 153
170 170 170
191 191 191
202 202 202
199 199 199
207 207 207
199 199 199
179 179 179
155 155 155
156 156 156
151 151 151
138 138 138
119 119 119
128 128 128
137 137 137
162 162 162
184 184 184
199 199 199
199 199 199
208 208 208
215 215 215
202 202 202
179 179 179
153 153 153
155 155 155
182 182 182
206 206 206
221 221 221
213 213 213
191 191 191
207 207 207
221 221 221
214 214 214
192 192 192
181 181 181
164 164 164
144 144 144
135 135 135
173 173 173
191 191 191
198 198 198
191 191 191
197 197 197
192 192 192
179 179 179
177 177 177
165 165 165
146 146 146
136 136 136
154 154 154
167 167 167
170 170 170
176 176 176
192 192 192
219 219 219
235 235 235
220 220 220
193 193 193
165 165 165
153 153 153
148 148 148
136 136 136
125 125 125
138 138 138
145 145 145
164 164 164
186 186 186
201 201 201
202 202 202
227 227 227
241 241 241
217 217 217
189 189 189
160 160 160
151 151 151
171 171 171
190 190 190
200 200 200
195 195 195
189 189 189
217 217 217
240 240 240
227 227 227
199 199 199
170 170 170
143 143 143
125 125 125
150 150 150
183 183 183
204 204 204
214 214 214
204 204 204
183 183 183
192 192 192
204 204 204
202 202 202
185 185 185
162 162 162
139 139 139
159 159 159
172 172 172
176 176 176
169 169 169
193 193 193
221 221 221
241 241 241
223 223 223
195 195 195
166 166 166
164 164 164
158 158 158
145 145 145
128 128 128
142 142 142
149 149 149
156 156 156
176 176 176
189 189 189
197 197 197
222 222 222
232 232 232
213 213 213
187 187 187
158 158 158
162 162 162
173 173 173
182 182 182
198 198 198
201 201 201
189 189 189
207 207 207
222 222 222
215 215 215
192 192 192
166 166 166
138 138 138
145 145 145
157 157 157
182 182 182
203 203 203
212 212 212
203 203 203
182 182 182
205 205 205
223 223 223
218 218 218
197 197 197
170 170 170
142 142 142
154 154 154
167 167 167
171 171 171
164 164 164
182 182 182
203 203 203
213 213 213
204 204 204
183 183 183
162 162 162
166 166 166
160 160 160
147 147 147
154 154 154
164 164 164
164 164 164
158 158 158
158 158 158
168 168 168
181 181 181
199 199 199
204 204 204
193 193 193
173 173 173
149 149 149
168 168 168
179 179 179
179 179 179
190 190 190
193 193 193
182 182 182
185 185 185
195 195 195
190 190 190
174 174 174
152 152 152
156 156 156
173 173 173
180 180 180
170 170 170
187 187 187
194 194 194
187 187 187
178 178 178
202 202 202
219 219 219
215 215 215
195 195 195
169 169 169
141 141 141
142 142 142
153 153 153
156 156 156
151 151 151
162 162 162
178 178 178
184 184 184
178 178 178
163 163 163
155 155 155
158 158 158
153 153 153
157 157 157
178 178 178
190 190 190
191 191 191
179 179 179
163 163 163
152 152 152
158 158 158
171 171 171
175 175 175
168 168 168
152 152 152
146 146 146
163 163 163
174 174 174
174 174 174
172 172 172
174 174 174
166 166 166
159 159 159
166 166 166
169 169 169
179 179 179
178 178 178
176 176 176
198 198 198
209 209 209
151 151 151
164 164 164
169 169 169
164 164 164
166 166 166
186 186 186
197 197 197
195 195 195
180 180 180
158 158 158
133 133 133
124 124 124
134 134 134
137 137 137
137 137 137
141 141 141
158 158 158
174 174 174
182 182 182
178 178 178
164 164 164
144 144 144
144 144 144
171 171 171
195 195 195
213 213 213
214 214 214
197 197 197
173 173 173
150 150 150
138 138 138
143 143 143
154 154 154
165 165 165
167 167 167
160 160 160
154 154 154
164 164 164
165 165 165
156 156 156
151 151 151
144 144 144
145 145 145
171 171 171
193 193 193
208 208 208
206 206 206
189 189 189
216 216 216
237 237 237
128 128 128
138 138 138
142 142 142
140 140 140
149 149 149
163 163 163
171 171 171
169 169 169
158 158 158
140 140 140
120 120 120
127 127 127
128 128 128
132 132 132
129 129 129
148 148 148
172 172 172
192 192 192
202 202 202
197 197 197
179 179 179
156 156 156
147 147 147
175 175 175
201 201 201
222 222 222
223 223 223
203 203 203
177 177 177
166 166 166
167 167 167
158 158 158
172 172 172
187 187 187
190 190 190
181 181 181
178 178 178
191 191 191
192 192 192
180 180 180
161 161 161
137 137 137
153 153 153
182 182 182
211 211 211
234 234 234
230 230 230
204 204 204
216 216 216
237 237 237
102 102 102
124 124 124
147 147 147
166 166 166
178 178 178
184 184 184
188 188 188
180 180 180
162 162 162
139 139 139
147 147 147
156 156 156
156 156 156
147 147 147
143 143 143
151 151 151
177 177 177
198 198 198
210 210 210
204 204 204
184 184 184
180 180 180
168 168 168
168 168 168
192 192 192
209 209 209
209 209 209
194 194 194
180 180 180
194 194 194
195 195 195
183 183 183
184 184 184
201 201 201
205 205 205
194 194 194
196 196 196
215 215 215
217 217 217
200 200 200
175 175 175
148 148 148
156 156 156
183 183 183
211 211 211
236 236 236
231 231 231
205 205 205
197 197 197
209 209 209
111 111 111
138 138 138
165 165 165
189 189 189
206 206 206
211 211 211
217 217 217
204 204 204
180 180 180
154 154 154
172 172 172
184 184 184
184 184 184
172 172 172
153 153 153
147 147 147
171 171 171
190 190 190
200 200 200
197 197 197
212 212 212
208 208 208
190 190 190
165 165 165
173 173 173
185 185 185
185 185 185
174 174 174
199 199 199
220 220 220
222 222 222
203 203 203
183 183 183
201 201 201
205 205 205
193 193 193
203 203 203
226 226 226
228 228 228
207 207 207
179 179 179
151 151 151
158 158 158
181 181 181
199 199 199
210 210 210
207 207 207
190 190 190
172 172 172
180 180 180
117 117 117
146 146 146
175 175 175
204 204 204
230 230 230
236 236 236
245 245 245
218 218 218
189 189 189
170 170 170
194 194 194
210 210 210
210 210 210
193 193 193
170 170 170
144 144 144
156 156 156
172 172 172
185 185 185
214 214 214
239 239 239
231 231 231
203 203 203
175 175 175
149 149 149
157 157 157
158 158 158
177 177 177
206 206 206
233 233 233
236 236 236
211 211 211
182 182 182
186 186 186
190 190 190
180 180 180
194 194 194
212 212 212
213 213 213
197 197 197
173 173 173
156 156 156
151 151 151
172 172 172
187 187 187
191 191 191
182 182 182
168 168 168
149 149 149
151 151 151
117 117 117
146 146 146
175 175 175
204 204 204
230 230 230
236 236 236
231 231 231
213 213 213
186 186 186
178 178 178
205 205 205
228 228 228
228 228 228
205 205 205
178 178 178
156 156 156
143 143 143
155 155 155
184 184 184
212 212 212
235 235 235
228 228 228
202 202 202
174 174 174
145 145 145
132 132 132
144 144 144
171 171 171
197 197 197
216 216 216
218 218 218
200 200 200
175 175 175
164 164 164
167 167 167
160 160 160
174 174 174
187 187 187
188 188 188
177 177 177
176 176 176
165 165 165
148 148 148
155 155 155
167 167 167
170 170 170
163 163 163
148 148 148
160 160 160
170 170 170
133 133 133
151 151 151
165 165 165
189 189 189
206 206 206
209 209 209
202 202 202
192 192 192
172 172 172
175 175 175
201 201 201
221 221 221
221 221 221
201 201 201
175 175 175
161 161 161
146 146 146
146 146 146
172 172 172
194 194 194
207 207 207
204 204 204
187 187 187
166 166 166
167 167 167
158 158 158
142 142 142
156 156 156
176 176 176
190 190 190
191 191 191
185 185 185
175 175 175
157 157 157
141 141 141
135 135 135
150 150 150
160 160 160
167 167 167
176 176 176
176 176 176
166 166 166
148 148 148
133 133 133
143 143 143
145 145 145
140 140 140
162 162 162
183 183 183
196 196 196
152 152 152
174 174 174
190 190 190
196 196 196
187 187 187
180 180 180
173 173 173
166 166 166
151 151 151
162 162 162
184 184 184
197 197 197
197 197 197
184 184 184
164 164 164
161 161 161
161 161 161
152 152 152
152 152 152
169 169 169
178 178 178
176 176 176
181 181 181
194 194 194
196 196 196
183 183 183
163 163 163
138 138 138
161 161 161
184 184 184
201 201 201
203 203 203
191 191 191
169 169 169
144 144 144
127 127 127
148 148 148
165 165 165
175 175 175
174 174 174
166 166 166
157 157 157
141 141 141
135 135 135
124 124 124
121 121 121
146 146 146
174 174 174
199 199 199
218 218 218
164 164 164
191 191 191
213 213 213
222 222 222
208 208 208
184 184 184
158 158 158
155 155 155
144 144 144
143 143 143
160 160 160
170 170 170
170 170 170
160 160 160
168 168 168
179 179 179
179 179 179
168 168 168
150 150 150
142 142 142
149 149 149
173 173 173
199 199 199
220 220 220
222 222 222
203 203 203
177 177 177
165 165 165
172 172 172
188 188 188
205 205 205
208 208 208
194 194 194
172 172 172
146 146 146
125 125 125
147 147 147
163 163 163
173 173 173
172 172 172
161 161 161
153 153 153
158 158 158
154 154 154
142 142 142
145 145 145
150 150 150
175 175 175
202 202 202
223 223 223
168 168 168
196 196 196
222 222 222
234 234 234
216 216 216
189 189 189
160 160 160
159 159 159
150 150 150
134 134 134
134 134 134
141 141 141
141 141 141
156 156 156
176 176 176
188 188 188
188 188 188
176 176 176
156 156 156
137 137 137
158 158 158
177 177 177
206 206 206
232 232 232
236 236 236
210 210 210
182 182 182
191 191 191
200 200 200
195 195 195
193 193 193
195 195 195
184 184 184
164 164 164
140 140 140
126 126 126
137 137 137
152 152 152
161 161 161
171 171 171
180 180 180
179 179 179
172 172 172
167 167 167
153 153 153
165 165 165
171 171 171
168 168 168
190 190 190
205 205 205
162 162 162
188 188 188
209 209 209
216 216 216
204 204 204
181 181 181
169 169 169
168 168 168
158 158 158
141 141 141
120 120 120
113 113 113
131 131 131
154 154 154
173 173 173
184 184 184
184 184 184
173 173 173
154 154 154
144 144 144
166 166 166
183 183 183
196 196 196
215 215 215
217 217 217
200 200 200
187 187 187
212 212 212
228 228 228
217 217 217
193 193 193
174 174 174
165 165 165
149 149 149
129 129 129
130 130 130
127 127 127
146 146 146
172 172 172
195 195 195
209 209 209
207 207 207
189 189 189
171 171 171
162 162 162
179 179 179
186 186 186
182 182 182
169 169 169
180 180 180
