P3
50 50
255
125 125 125
144 144 144
158 158 158
165 165 165
162 162 162
163 163 163
184 184 184
197 197 197
195 195 195
183 183 183
164 164 164
161 161 161
173 173 173
191 191 191
221 221 221
248 248 248
228 228 228
199 199 199
170 170 170
141 141 141
111 111 111
135 135 135
155 155 155
169 169 169
175 175 175
170 170 170
157 157 157
139 139 139
158 158 158
171 171 171
175 175 175
168 168 168
153 153 153
133 133 133
138 138 138
135 135 135
136 136 136
144 144 144
144 144 144
160 160 160
175 175 175
181 181 181
176 176 176
161 161 161
141 141 141
117 117 117
99 99 99
103 103 103
101 101 101
102 102 102
143 143 143
167 167 167
185 185 185
194 194 194
189 189 189
178 178 178
205 205 205
224 224 224
222 222 222
201 201 201
174 174 174
179 179 179
194 194 194
196 196 196
211 211 211
226 226 226
217 217 217
193 193 193
166 166 166
137 137 137
125 125 125
151 151 151
176 176 176
195 195 195
204 204 204
197 197 197
178 178 178
157 157 157
181 181 181
199 199 199
205 205 205
194 194 194
174 174 174
150 150 150
155 155 155
152 152 152
145 145 145
154 154 154
154 154 154
172 172 172
190 190 190
198 198 198
191 191 191
174 174 174
151 151 151
125 125 125
123 123 123
128 128 128
126 126 126
118 118 118
156 156 156
183 183 183
208 208 208
222 222 222
214 214 214
192 192 192
212 212 212
241 241 241
237 237 237
208 208 208
178 178 178
188 188 188
205 205 205
208 208 208
194 194 194
197 197 197
192 192 192
175 175 175
153 153 153
137 137 137
133 133 133
162 162 162
190 190 190
215 215 215
230 230 230
218 218 218
192 192 192
172 172 172
196 196 196
222 222 222
234 234 234
215 215 215
188 188 188
160 160 160
166 166 166
163 163 163
151 151 151
155 155 155
156 156 156
174 174 174
193 193 193
201 201 201
194 194 194
176 176 176
152 152 152
132 132 132
145 145 145
151 151 151
148 148 148
138 138 138
161 161 161
190 190 190
219 219 219
244 244 244
228 228 228
200 200 200
202 202 202
220 220 220
218 218 218
198 198 198
172 172 172
184 184 184
201 201 201
203 203 203
190 190 190
169 169 169
164 164 164
156 156 156
165 165 165
164 164 164
154 154 154
163 163 163
191 191 191
219 219 219
236 236 236
221 221 221
194 194 194
179 179 179
199 199 199
228 228 228
244 244 244
219 219 219
191 191 191
162 162 162
168 168 168
165 165 165
153 153 153
149 149 149
149 149 149
166 166 166
183 183 183
190 190 190
184 184 184
168 168 168
146 146 146
148 148 148
163 163 163
169 169 169
166 166 166
155 155 155
156 156 156
184 184 184
209 209 209
224 224 224
216 216 216
195 195 195
207 207 207
202 202 202
191 191 191
177 177 177
157 157 157
170 170 170
183 183 183
185 185 185
175 175 175
157 157 157
159 159 159
179 179 179
190 190 190
189 189 189
176 176 176
155 155 155
181 181 181
202 202 202
212 212 212
203 203 203
183 183 183
190 190 190
192 192 192
208 208 208
215 215 215
203 203 203
180 180 180
154 154 154
160 160 160
157 157 157
146 146 146
135 135 135
139 139 139
155 155 155
165 165 165
169 169 169
165 165 165
152 152 152
141 141 141
162 162 162
176 176 176
182 182 182
177 177 177
164 164 164
144 144 144
168 168 168
186 186 186
196 196 196
197 197 197
212 212 212
231 231 231
222 222 222
197 197 197
169 169 169
141 141 141
149 149 149
159 159 159
161 161 161
153 153 153
145 145 145
171 171 171
195 195 195
210 210 210
208 208 208
191 191 191
167 167 167
161 161 161
177 177 177
183 183 183
178 178 178
193 193 193
213 213 213
216 216 216
201 201 201
186 186 186
178 178 178
162 162 162
158 158 158
164 164 164
161 161 161
149 149 149
131 131 131
130 130 130
145 145 145
153 153 153
154 154 154
146 146 146
137 137 137
157 157 157
182 182 182
202 202 202
210 210 210
200 200 200
179 179 179
128 128 128
156 156 156
183 183 183
207 207 207
221 221 221
213 213 213
230 230 230
221 221 221
197 197 197
169 169 169
141 141 141
137 137 137
154 154 154
164 164 164
165 165 165
157 157 157
174 174 174
198 198 198
215 215 215
213 213 213
194 194 194
183 183 183
172 172 172
160 160 160
154 154 154
171 171 171
198 198 198
221 221 221
226 226 226
207 207 207
181 181 181
153 153 153
139 139 139
153 153 153
158 158 158
155 155 155
144 144 144
139 139 139
130 130 130
128 128 128
136 136 136
136 136 136
136 136 136
147 147 147
165 165 165
193 193 193
220 220 220
234 234 234
217 217 217
191 191 191
129 129 129
158 158 158
186 186 186
212 212 212
228 228 228
218 218 218
205 205 205
201 201 201
183 183 183
159 159 159
133 133 133
157 157 157
178 178 178
192 192 192
193 193 193
182 182 182
166 166 166
188 188 188
201 201 201
200 200 200
195 195 195
196 196 196
183 183 183
162 162 162
147 147 147
165 165 165
189 189 189
208 208 208
211 211 211
197 197 197
174 174 174
148 148 148
129 129 129
140 140 140
148 148 148
163 163 163
170 170 170
167 167 167
155 155 155
141 141 141
141 141 141
133 133 133
138 138 138
149 149 149
164 164 164
192 192 192
217 217 217
230 230 230
215 215 215
189 189 189
124 124 124
152 152 152
177 177 177
199 199 199
210 210 210
204 204 204
184 184 184
174 174 174
162 162 162
149 149 149
143 143 143
171 171 171
197 197 197
217 217 217
220 220 220
202 202 202
177 177 177
168 168 168
178 178 178
181 181 181
195 195 195
196 196 196
183 183 183
162 162 162
162 162 162
162 162 162
171 171 171
184 184 184
186 186 186
176 176 176
158 158 158
143 143 143
134 134 134
144 144 144
167 167 167
186 186 186
196 196 196
192 192 192
176 176 176
154 154 154
149 149 149
141 141 141
134 134 134
143 143 143
154 154 154
178 178 178
197 197 197
205 205 205
196 196 196
186 186 186
135 135 135
156 156 156
172 172 172
180 180 180
184 184 184
180 180 180
165 165 165
150 150 150
151 151 151
143 143 143
147 147 147
176 176 176
204 204 204
230 230 230
234 234 234
210 210 210
182 182 182
153 153 153
151 151 151
170 170 170
182 182 182
182 182 182
172 172 172
178 178 178
191 191 191
191 191 191
178 178 178
158 158 158
158 158 158
151 151 151
143 143 143
142 142 142
133 133 133
153 153 153
180 180 180
203 203 203
217 217 217
211 211 211
190 190 190
164 164 164
149 149 149
141 141 141
126 126 126
131 131 131
138 138 138
157 157 157
171 171 171
176 176 176
188 188 188
211 211 211
151 151 151
176 176 176
198 198 198
209 209 209
203 203 203
184 184 184
160 160 160
137 137 137
141 141 141
138 138 138
152 152 152
178 178 178
202 202 202
216 216 216
217 217 217
200 200 200
176 176 176
148 148 148
136 136 136
152 152 152
161 161 161
161 161 161
174 174 174
199 199 199
218 218 218
218 218 218
199 199 199
174 174 174
146 146 146
128 128 128
134 134 134
143 143 143
145 145 145
155 155 155
182 182 182
207 207 207
222 222 222
214 214 214
192 192 192
166 166 166
141 141 141
133 133 133
119 119 119
118 118 118
125 125 125
133 133 133
144 144 144
167 167 167
196 196 196
225 225 225
160 160 160
189 189 189
217 217 217
238 238 238
225 225 225
198 198 198
170 170 170
140 140 140
138 138 138
135 135 135
157 157 157
185 185 185
212 212 212
233 233 233
224 224 224
199 199 199
171 171 171
142 142 142
117 117 117
129 129 129
136 136 136
151 151 151
180 180 180
209 209 209
237 237 237
237 237 237
209 209 209
180 180 180
151 151 151
139 139 139
158 158 158
170 170 170
173 173 173
166 166 166
173 173 173
193 193 193
204 204 204
199 199 199
182 182 182
158 158 158
132 132 132
120 120 120
119 119 119
133 133 133
141 141 141
142 142 142
135 135 135
163 163 163
191 191 191
215 215 215
160 160 160
189 189 189
218 218 218
240 240 240
226 226 226
199 199 199
170 170 170
141 141 141
132 132 132
127 127 127
153 153 153
180 180 180
204 204 204
219 219 219
214 214 214
193 193 193
167 167 167
148 148 148
133 133 133
139 139 139
146 146 146
147 147 147
175 175 175
202 202 202
222 222 222
222 222 222
202 202 202
176 176 176
148 148 148
156 156 156
178 178 178
195 195 195
200 200 200
189 189 189
170 170 170
172 172 172
179 179 179
176 176 176
163 163 163
143 143 143
125 125 125
112 112 112
128 128 128
144 144 144
152 152 152
153 153 153
146 146 146
151 151 151
174 174 174
192 192 192
155 155 155
178 178 178
199 199 199
211 211 211
205 205 205
185 185 185
160 160 160
137 137 137
139 139 139
135 135 135
141 141 141
165 165 165
183 183 183
193 193 193
190 190 190
175 175 175
169 169 169
160 160 160
150 150 150
166 166 166
175 175 175
173 173 173
161 161 161
182 182 182
195 195 195
195 195 195
182 182 182
161 161 161
143 143 143
165 165 165
192 192 192
213 213 213
220 220 220
206 206 206
181 181 181
154 154 154
152 152 152
149 149 149
139 139 139
124 124 124
122 122 122
116 116 116
131 131 131
147 147 147
156 156 156
156 156 156
149 149 149
134 134 134
152 152 152
165 165 165
174 174 174
172 172 172
174 174 174
182 182 182
178 178 178
164 164 164
144 144 144
137 137 137
140 140 140
145 145 145
148 148 148
144 144 144
158 158 158
165 165 165
163 163 163
173 173 173
174 174 174
164 164 164
170 170 170
191 191 191
203 203 203
200 200 200
184 184 184
161 161 161
167 167 167
167 167 167
158 158 158
149 149 149
148 148 148
166 166 166
193 193 193
215 215 215
222 222 222
207 207 207
182 182 182
155 155 155
135 135 135
139 139 139
141 141 141
147 147 147
146 146 146
137 137 137
128 128 128
142 142 142
150 150 150
151 151 151
143 143 143
129 129 129
149 149 149
165 165 165
185 185 185
183 183 183
170 170 170
152 152 152
163 163 163
170 170 170
167 167 167
155 155 155
148 148 148
161 161 161
164 164 164
159 159 159
145 145 145
140 140 140
157 157 157
167 167 167
167 167 167
159 159 159
183 183 183
210 210 210
230 230 230
224 224 224
200 200 200
172 172 172
176 176 176
172 172 172
159 159 159
152 152 152
163 163 163
166 166 166
181 181 181
198 198 198
203 203 203
192 192 192
172 172 172
147 147 147
130 130 130
144 144 144
160 160 160
167 167 167
165 165 165
155 155 155
137 137 137
130 130 130
137 137 137
144 144 144
148 148 148
145 145 145
157 157 157
175 175 175
184 184 184
182 182 182
169 169 169
165 165 165
183 183 183
192 192 192
188 188 188
173 173 173
155 155 155
169 169 169
173 173 173
167 167 167
152 152 152
132 132 132
144 144 144
152 152 152
153 153 153
156 156 156
185 185 185
213 213 213
237 237 237
229 229 229
202 202 202
174 174 174
176 176 176
172 172 172
159 159 159
158 158 158
171 171 171
174 174 174
167 167 167
174 174 174
177 177 177
169 169 169
154 154 154
135 135 135
133 133 133
155 155 155
172 172 172
181 181 181
179 179 179
166 166 166
147 147 147
144 144 144
148 148 148
161 161 161
167 167 167
162 162 162
156 156 156
174 174 174
172 172 172
170 170 170
159 159 159
173 173 173
194 194 194
205 205 205
200 200 200
182 182 182
158 158 158
167 167 167
171 171 171
165 165 165
150 150 150
131 131 131
144 144 144
160 160 160
169 169 169
168 168 168
175 175 175
198 198 198
212 212 212
208 208 208
190 190 190
165 165 165
166 166 166
162 162 162
156 156 156
157 157 157
169 169 169
172 172 172
164 164 164
166 166 166
173 173 173
171 171 171
160 160 160
160 160 160
156 156 156
157 157 157
175 175 175
184 184 184
182 182 182
169 169 169
169 169 169
171 171 171
162 162 162
171 171 171
177 177 177
173 173 173
159 159 159
164 164 164
153 153 153
151 151 151
152 152 152
172 172 172
192 192 192
202 202 202
198 198 198
180 180 180
157 157 157
156 156 156
159 159 159
158 158 158
154 154 154
142 142 142
151 151 151
169 169 169
179 179 179
178 178 178
166 166 166
175 175 175
184 184 184
182 182 182
169 169 169
149 149 149
152 152 152
172 172 172
184 184 184
186 186 186
175 175 175
160 160 160
153 153 153
169 169 169
177 177 177
177 177 177
177 177 177
183 183 183
178 178 178
163 163 163
167 167 167
176 176 176
174 174 174
179 179 179
193 193 193
196 196 196
184 184 184
186 186 186
178 178 178
183 183 183
179 179 179
165 165 165
129 129 129
146 146 146
160 160 160
167 167 167
178 178 178
186 186 186
182 182 182
168 168 168
147 147 147
162 162 162
178 178 178
184 184 184
179 179 179
164 164 164
150 150 150
168 168 168
177 177 177
176 176 176
165 165 165
148 148 148
155 155 155
153 153 153
144 144 144
141 141 141
168 168 168
193 193 193
211 211 211
213 213 213
198 198 198
174 174 174
147 147 147
162 162 162
173 173 173
176 176 176
191 191 191
199 199 199
192 192 192
175 175 175
151 151 151
159 159 159
167 167 167
192 192 192
211 211 211
214 214 214
199 199 199
203 203 203
198 198 198
209 209 209
204 204 204
185 185 185
125 125 125
145 145 145
159 159 159
166 166 166
164 164 164
163 163 163
160 160 160
158 158 158
153 153 153
178 178 178
198 198 198
208 208 208
200 200 200
181 181 181
171 171 171
186 186 186
190 190 190
181 181 181
163 163 163
140 140 140
126 126 126
125 125 125
118 118 118
147 147 147
176 176 176
204 204 204
230 230 230
235 235 235
211 211 211
182 182 182
153 153 153
152 152 152
173 173 173
188 188 188
194 194 194
202 202 202
195 195 195
177 177 177
153 153 153
140 140 140
167 167 167
192 192 192
211 211 211
215 215 215
199 199 199
205 205 205
211 211 211
227 227 227
219 219 219
195 195 195
135 135 135
143 143 143
150 150 150
156 156 156
154 154 154
171 171 171
183 183 183
184 184 184
173 173 173
185 185 185
208 208 208
220 220 220
210 210 210
188 188 188
189 189 189
210 210 210
216 216 216
203 203 203
180 180 180
153 153 153
125 125 125
127 127 127
121 121 121
145 145 145
173 173 173
200 200 200
223 223 223
226 226 226
206 206 206
180 180 180
151 151 151
160 160 160
184 184 184
202 202 202
207 207 207
195 195 195
184 184 184
168 168 168
146 146 146
152 152 152
158 158 158
180 180 180
195 195 195
198 198 198
187 187 187
192 192 192
206 206 206
221 221 221
213 213 213
191 191 191
150 150 150
161 161 161
162 162 162
155 155 155
167 167 167
189 189 189
205 205 205
206 206 206
191 191 191
180 180 180
200 200 200
210 210 210
203 203 203
182 182 182
198 198 198
224 224 224
234 234 234
214 214 214
187 187 187
158 158 158
142 142 142
143 143 143
143 143 143
139 139 139
161 161 161
183 183 183
198 198 198
200 200 200
187 187 187
166 166 166
141 141 141
159 159 159
183 183 183
201 201 201
206 206 206
194 194 194
173 173 173
151 151 151
151 151 151
163 163 163
167 167 167
174 174 174
172 172 172
173 173 173
167 167 167
171 171 171
187 187 187
197 197 197
192 192 192
176 176 176
159 159 159
171 171 171
172 172 172
173 173 173
189 189 189
196 196 196
215 215 215
216 216 216
198 198 198
174 174 174
181 181 181
188 188 188
183 183 183
168 168 168
192 192 192
214 214 214
221 221 221
206 206 206
182 182 182
155 155 155
153 153 153
159 159 159
164 164 164
160 160 160
147 147 147
160 160 160
171 171 171
172 172 172
163 163 163
147 147 147
126 126 126
150 150 150
171 171 171
186 186 186
189 189 189
180 180 180
162 162 162
140 140 140
152 152 152
165 165 165
179 179 179
189 189 189
187 187 187
173 173 173
153 153 153
148 148 148
163 163 163
170 170 170
167 167 167
154 154 154
159 159 159
171 171 171
173 173 173
184 184 184
203 203 203
209 209 209
205 205 205
206 206 206
191 191 191
171 171 171
184 184 184
186 186 186
176 176 176
162 162 162
183 183 183
199 199 199
204 204 204
193 193 193
172 172 172
147 147 147
158 158 158
173 173 173
179 179 179
174 174 174
160 160 160
173 173 173
188 188 188
192 192 192
183 183 183
165 165 165
143 143 143
149 149 149
152 152 152
163 163 163
166 166 166
159 159 159
145 145 145
137 137 137
151 151 151
163 163 163
183 183 183
194 194 194
191 191 191
177 177 177
160 160 160
155 155 155
141 141 141
141 141 141
142 142 142
143 143 143
151 151 151
161 161 161
163 163 163
183 183 183
202 202 202
208 208 208
197 197 197
184 184 184
173 173 173
186 186 186
202 202 202
205 205 205
192 192 192
170 170 170
191 191 191
211 211 211
218 218 218
203 203 203
180 180 180
153 153 153
162 162 162
178 178 178
185 185 185
180 180 180
164 164 164
189 189 189
210 210 210
216 216 216
202 202 202
179 179 179
156 156 156
164 164 164
163 163 163
152 152 152
140 140 140
135 135 135
125 125 125
144 144 144
158 158 158
165 165 165
175 175 175
184 184 184
182 182 182
173 173 173
177 177 177
170 170 170
155 155 155
134 134 134
127 127 127
134 134 134
135 135 135
144 144 144
152 152 152
171 171 171
187 187 187
191 191 191
183 183 183
165 165 165
167 167 167
189 189 189
207 207 207
210 210 210
196 196 196
173 173 173
186 186 186
206 206 206
211 211 211
198 198 198
176 176 176
150 150 150
157 157 157
172 172 172
179 179 179
174 174 174
167 167 167
194 194 194
217 217 217
225 225 225
209 209 209
184 184 184
162 162 162
171 171 171
169 169 169
158 158 158
140 140 140
119 119 119
124 124 124
143 143 143
158 158 158
170 170 170
172 172 172
166 166 166
166 166 166
180 180 180
184 184 184
177 177 177
160 160 160
138 138 138
130 130 130
121 121 121
137 137 137
151 151 151
174 174 174
192 192 192
199 199 199
192 192 192
173 173 173
161 161 161
181 181 181
193 193 193
195 195 195
198 198 198
186 186 186
182 182 182
172 172 172
186 186 186
190 190 190
181 181 181
163 163 163
140 140 140
144 144 144
158 158 158
163 163 163
159 159 159
161 161 161
186 186 186
205 205 205
211 211 211
198 198 198
176 176 176
159 159 159
167 167 167
166 166 166
155 155 155
138 138 138
116 116 116
129 129 129
154 154 154
176 176 176
191 191 191
194 194 194
184 184 184
165 165 165
176 176 176
180 180 180
173 173 173
157 157 157
161 161 161
158 158 158
146 146 146
142 142 142
163 163 163
191 191 191
216 216 216
228 228 228
214 214 214
189 189 189
170 170 170
184 184 184
196 196 196
195 195 195
182 182 182
198 198 198
201 201 201
189 189 189
168 168 168
164 164 164
157 157 157
143 143 143
130 130 130
139 139 139
141 141 141
141 141 141
138 138 138
147 147 147
168 168 168
182 182 182
186 186 186
177 177 177
187 187 187
185 185 185
173 173 173
154 154 154
144 144 144
128 128 128
128 128 128
138 138 138
161 161 161
185 185 185
203 203 203
207 207 207
195 195 195
173 173 173
162 162 162
166 166 166
162 162 162
179 179 179
188 188 188
183 183 183
169 169 169
164 164 164
167 167 167
196 196 196
224 224 224
246 246 246
223 223 223
202 202 202
192 192 192
175 175 175
186 186 186
185 185 185
188 188 188
206 206 206
209 209 209
195 195 195
173 173 173
147 147 147
135 135 135
136 136 136
142 142 142
152 152 152
154 154 154
148 148 148
137 137 137
143 143 143
145 145 145
155 155 155
175 175 175
199 199 199
216 216 216
213 213 213
194 194 194
169 169 169
142 142 142
132 132 132
151 151 151
164 164 164
169 169 169
182 182 182
199 199 199
203 203 203
192 192 192
171 171 171
146 146 146
152 152 152
177 177 177
199 199 199
211 211 211
205 205 205
185 185 185
187 187 187
184 184 184
187 187 187
210 210 210
220 220 220
212 212 212
219 219 219
206 206 206
182 182 182
176 176 176
169 169 169
181 181 181
197 197 197
199 199 199
188 188 188
167 167 167
143 143 143
151 151 151
152 152 152
147 147 147
158 158 158
160 160 160
153 153 153
139 139 139
138 138 138
136 136 136
154 154 154
184 184 184
213 213 213
240 240 240
235 235 235
206 206 206
177 177 177
148 148 148
147 147 147
170 170 170
187 187 187
194 194 194
187 187 187
183 183 183
186 186 186
177 177 177
159 159 159
137 137 137
156 156 156
183 183 183
208 208 208
222 222 222
214 214 214
192 192 192
204 204 204
200 200 200
183 183 183
185 185 185
191 191 191
210 210 210
217 217 217
204 204 204
181 181 181
175 175 175
168 168 168
165 165 165
177 177 177
179 179 179
170 170 170
153 153 153
152 152 152
161 161 161
162 162 162
154 154 154
155 155 155
157 157 157
150 150 150
137 137 137
125 125 125
124 124 124
152 152 152
181 181 181
208 208 208
230 230 230
226 226 226
202 202 202
175 175 175
146 146 146
157 157 157
182 182 182
203 203 203
212 212 212
203 203 203
187 187 187
171 171 171
155 155 155
141 141 141
134 134 134
152 152 152
177 177 177
199 199 199
211 211 211
204 204 204
192 192 192
206 206 206
202 202 202
184 184 184
161 161 161
175 175 175
192 192 192
197 197 197
188 188 188
169 169 169
163 163 163
157 157 157
144 144 144
152 152 152
157 157 157
165 165 165
164 164 164
154 154 154
162 162 162
163 163 163
155 155 155
144 144 144
146 146 146
140 140 140
127 127 127
120 120 120
115 115 115
142 142 142
167 167 167
189 189 189
202 202 202
200 200 200
185 185 185
162 162 162
137 137 137
157 157 157
183 183 183
205 205 205
214 214 214
216 216 216
209 209 209
187 187 187
162 162 162
134 134 134
134 134 134
152 152 152
180 180 180
206 206 206
226 226 226
223 223 223
201 201 201
192 192 192
195 195 195
186 186 186
170 170 170
161 161 161
168 168 168
171 171 171
165 165 165
150 150 150
145 145 145
140 140 140
137 137 137
161 161 161
180 180 180
191 191 191
190 190 190
176 176 176
155 155 155
155 155 155
151 151 151
151 151 151
143 143 143
141 141 141
147 147 147
145 145 145
135 135 135
126 126 126
147 147 147
164 164 164
173 173 173
172 172 172
161 161 161
143 143 143
143 143 143
153 153 153
173 173 173
191 191 191
211 211 211
226 226 226
216 216 216
192 192 192
165 165 165
137 137 137
155 155 155
175 175 175
187 187 187
207 207 207
228 228 228
224 224 224
201 201 201
212 212 212
221 221 221
208 208 208
192 192 192
180 180 180
161 161 161
145 145 145
147 147 147
140 140 140
127 127 127
119 119 119
147 147 147
174 174 174
197 197 197
213 213 213
211 211 211
192 192 192
168 168 168
158 158 158
168 168 168
168 168 168
158 158 158
163 163 163
170 170 170
167 167 167
155 155 155
138 138 138
137 137 137
137 137 137
144 144 144
143 143 143
135 135 135
134 134 134
152 152 152
165 165 165
169 169 169
179 179 179
200 200 200
211 211 211
204 204 204
184 184 184
159 159 159
155 155 155
170 170 170
195 195 195
214 214 214
215 215 215
206 206 206
204 204 204
190 190 190
222 222 222
234 234 234
216 216 216
205 205 205
191 191 191
169 169 169
165 165 165
167 167 167
159 159 159
144 144 144
124 124 124
150 150 150
177 177 177
202 202 202
220 220 220
217 217 217
197 197 197
171 171 171
166 166 166
176 176 176
176 176 176
166 166 166
178 178 178
187 187 187
183 183 183
169 169 169
149 149 149
148 148 148
139 139 139
124 124 124
114 114 114
119 119 119
143 143 143
164 164 164
179 179 179
185 185 185
178 178 178
178 178 178
186 186 186
181 181 181
173 173 173
181 181 181
178 178 178
177 177 177
206 206 206
232 232 232
235 235 235
210 210 210
181 181 181
196 196 196
209 209 209
217 217 217
205 205 205
204 204 204
190 190 190
168 168 168
178 178 178
180 180 180
171 171 171
154 154 154
132 132 132
144 144 144
170 170 170
192 192 192
206 206 206
204 204 204
187 187 187
164 164 164
164 164 164
174 174 174
174 174 174
166 166 166
184 184 184
194 194 194
190 190 190
174 174 174
153 153 153
152 152 152
146 146 146
134 134 134
117 117 117
121 121 121
146 146 146
168 168 168
184 184 184
189 189 189
183 183 183
166 166 166
158 158 158
170 170 170
189 189 189
200 200 200
196 196 196
179 179 179
200 200 200
221 221 221
223 223 223
203 203 203
177 177 177
188 188 188
185 185 185
190 190 190
186 186 186
187 187 187
176 176 176
168 168 168
181 181 181
183 183 183
174 174 174
156 156 156
134 134 134
136 136 136
154 154 154
172 172 172
182 182 182
180 180 180
168 168 168
149 149 149
153 153 153
162 162 162
163 163 163
161 161 161
178 178 178
187 187 187
183 183 183
169 169 169
159 159 159
163 163 163
157 157 157
144 144 144
125 125 125
126 126 126
141 141 141
162 162 162
176 176 176
182 182 182
175 175 175
160 160 160
148 148 148
173 173 173
195 195 195
206 206 206
201 201 201
184 184 184
182 182 182
196 196 196
197 197 197
184 184 184
163 163 163
170 170 170
158 158 158
162 162 162
163 163 163
164 164 164
158 158 158
161 161 161
172 172 172
174 174 174
166 166 166
150 150 150
157 157 157
160 160 160
154 154 154
158 158 158
165 165 165
162 162 162
151 151 151
133 133 133
136 136 136
145 145 145
159 159 159
165 165 165
163 163 163
170 170 170
167 167 167
155 155 155
162 162 162
166 166 166
160 160 160
146 146 146
127 127 127
129 129 129
143 143 143
150 150 150
160 160 160
164 164 164
168 168 168
168 168 168
159 159 159
167 167 167
186 186 186
196 196 196
192 192 192
198 198 198
198 198 198
184 184 184
168 168 168
159 159 159
152 152 152
146 146 146
130 130 130
133 133 133
148 148 148
169 169 169
184 184 184
188 188 188
180 180 180
163 163 163
150 150 150
162 162 162
176 176 176
180 180 180
173 173 173
157 157 157
159 159 159
157 157 157
146 146 146
129 129 129
133 133 133
154 154 154
169 169 169
176 176 176
172 172 172
163 163 163
147 147 147
148 148 148
156 156 156
159 159 159
154 154 154
141 141 141
127 127 127
149 149 149
165 165 165
174 174 174
172 172 172
179 179 179
191 191 191
192 192 192
179 179 179
159 159 159
168 168 168
177 177 177
204 204 204
225 225 225
225 225 225
203 203 203
176 176 176
152 152 152
150 150 150
140 140 140
107 107 107
135 135 135
162 162 162
187 187 187
207 207 207
214 214 214
202 202 202
179 179 179
153 153 153
172 172 172
187 187 187
192 192 192
184 184 184
166 166 166
146 146 146
143 143 143
134 134 134
135 135 135
151 151 151
159 159 159
175 175 175
189 189 189
192 192 192
182 182 182
170 170 170
172 172 172
165 165 165
149 149 149
140 140 140
128 128 128
138 138 138
162 162 162
182 182 182
192 192 192
190 190 190
191 191 191
207 207 207
207 207 207
192 192 192
169 169 169
151 151 151
181 181 181
210 210 210
238 238 238
237 237 237
209 209 209
180 180 180
151 151 151
141 141 141
131 131 131
110 110 110
139 139 139
167 167 167
195 195 195
219 219 219
229 229 229
212 212 212
186 186 186
158 158 158
171 171 171
187 187 187
192 192 192
184 184 184
166 166 166
143 143 143
126 126 126
126 126 126
148 148 148
166 166 166
176 176 176
184 184 184
201 201 201
204 204 204
192 192 192
189 189 189
192 192 192
182 182 182
163 163 163
140 140 140
132 132 132
143 143 143
167 167 167
188 188 188
201 201 201
198 198 198
191 191 191
207 207 207
207 207 207
192 192 192
169 169 169
146 146 146
173 173 173
198 198 198
216 216 216
216 216 216
198 198 198
173 173 173
155 155 155
145 145 145
129 129 129
108 108 108
136 136 136
163 163 163
189 189 189
210 210 210
217 217 217
204 204 204
181 181 181
154 154 154
161 161 161
175 175 175
179 179 179
172 172 172
157 157 157
143 143 143
133 133 133
131 131 131
154 154 154
173 173 173
184 184 184
184 184 184
198 198 198
201 201 201
190 190 190
197 197 197
201 201 201
190 190 190
169 169 169
145 145 145
140 140 140
140 140 140
163 163 163
183 183 183
194 194 194
192 192 192
178 178 178
191 191 191
191 191 191
179 179 179
159 159 159
140 140 140
165 165 165
184 184 184
196 196 196
193 193 193
179 179 179
157 157 157
150 150 150
143 143 143
135 135 135
99 99 99
126 126 126
151 151 151
172 172 172
188 188 188
192 192 192
183 183 183
171 171 171
165 165 165
151 151 151
155 155 155
158 158 158
153 153 153
146 146 146
143 143 143
132 132 132
129 129 129
152 152 152
170 170 170
181 181 181
180 180 180
182 182 182
184 184 184
176 176 176
192 192 192
195 195 195
185 185 185
165 165 165
151 151 151
160 160 160
162 162 162
154 154 154
167 167 167
176 176 176
174 174 174
172 172 172
169 169 169
168 168 168
159 159 159
142 142 142
152 152 152
180 180 180
205 205 205
223 223 223
219 219 219
197 197 197
171 171 171
152 152 152
152 152 152
144 144 144
86 86 86
110 110 110
132 132 132
150 150 150
161 161 161
164 164 164
176 176 176
181 181 181
174 174 174
164 164 164
150 150 150
156 156 156
163 163 163
160 160 160
149 149 149
133 133 133
137 137 137
147 147 147
164 164 164
172 172 172
171 171 171
160 160 160
161 161 161
162 162 162
175 175 175
177 177 177
169 169 169
153 153 153
164 164 164
176 176 176
177 177 177
168 168 168
173 173 173
171 171 171
186 186 186
196 196 196
192 192 192
176 176 176
153 153 153
138 138 138
159 159 159
185 185 185
213 213 213
239 239 239
232 232 232
204 204 204
175 175 175
154 154 154
154 154 154
146 146 146
84 84 84
91 91 91
110 110 110
124 124 124
141 141 141
161 161 161
176 176 176
192 192 192
198 198 198
189 189 189
171 171 171
173 173 173
181 181 181
178 178 178
165 165 165
152 152 152
157 157 157
167 167 167
188 188 188
200 200 200
198 198 198
183 183 183
161 161 161
142 142 142
152 152 152
154 154 154
148 148 148
150 150 150
169 169 169
182 182 182
183 183 183
173 173 173
175 175 175
177 177 177
199 199 199
212 212 212
206 206 206
186 186 186
162 162 162
153 153 153
178 178 178
197 197 197
205 205 205
220 220 220
216 216 216
195 195 195
169 169 169
147 147 147
147 147 147
139 139 139
100 100 100
103 103 103
107 107 107
115 115 115
135 135 135
163 163 163
190 190 190
213 213 213
222 222 222
209 209 209
185 185 185
181 181 181
191 191 191
187 187 187
173 173 173
166 166 166
172 172 172
180 180 180
206 206 206
225 225 225
222 222 222
199 199 199
172 172 172
153 153 153
131 131 131
128 128 128
123 123 123
146 146 146
165 165 165
176 176 176
187 187 187
192 192 192
185 185 185
176 176 176
198 198 198
210 210 210
204 204 204
185 185 185
161 161 161
161 161 161
188 188 188
212 212 212
224 224 224
212 212 212
189 189 189
175 175 175
154 154 154
133 133 133
133 133 133
126 126 126
112 112 112
115 115 115
122 122 122
131 131 131
137 137 137
165 165 165
193 193 193
218 218 218
230 230 230
214 214 214
188 188 188
178 178 178
187 187 187
184 184 184
170 170 170
171 171 171
177 177 177
182 182 182
210 210 210
232 232 232
227 227 227
202 202 202
175 175 175
156 156 156
134 134 134
116 116 116
114 114 114
135 135 135
157 157 157
182 182 182
202 202 202
209 209 209
199 199 199
179 179 179
183 183 183
192 192 192
188 188 188
173 173 173
151 151 151
162 162 162
187 187 187
210 210 210
221 221 221
210 210 210
187 187 187
160 160 160
152 152 152
141 141 141
138 138 138
137 137 137
118 118 118
121 121 121
131 131 131
141 141 141
145 145 145
158 158 158
183 183 183
203 203 203
211 211 211
200 200 200
179 179 179
165 165 165
173 173 173
170 170 170
185 185 185
193 193 193
188 188 188
173 173 173
196 196 196
211 211 211
208 208 208
190 190 190
168 168 168
151 151 151
129 129 129
114 114 114
106 106 106
131 131 131
157 157 157
182 182 182
202 202 202
210 210 210
200 200 200
179 179 179
161 161 161
168 168 168
165 165 165
153 153 153
168 168 168
183 183 183
188 188 188
192 192 192
199 199 199
192 192 192
174 174 174
157 157 157
153 153 153
144 144 144
151 151 151
150 150 150
119 119 119
121 121 121
134 134 134
144 144 144
148 148 148
146 146 146
165 165 165
179 179 179
184 184 184
177 177 177
161 161 161
145 145 145
157 157 157
184 184 184
208 208 208
222 222 222
214 214 214
191 191 191
174 174 174
184 184 184
182 182 182
169 169 169
154 154 154
142 142 142
146 146 146
143 143 143
132 132 132
124 124 124
149 149 149
172 172 172
188 188 188
194 194 194
186 186 186
169 169 169
146 146 146
141 141 141
139 139 139
156 156 156
179 179 179
197 197 197
204 204 204
194 194 194
174 174 174
167 167 167
153 153 153
150 150 150
147 147 147
150 150 150
157 157 157
156 156 156
