P3
50 50
255
103 103 103
121 121 121
134 134 134
141 141 141
141 141 141
133 133 133
145 145 145
152 152 152
152 152 152
143 143 143
144 144 144
162 162 162
174 174 174
175 175 175
166 166 166
161 161 161
157 157 157
146 146 146
128 128 128
107 107 107
114 114 114
136 136 136
155 155 155
167 167 167
171 171 171
164 164 164
150 150 150
130 130 130
126 126 126
136 136 136
138 138 138
157 157 157
174 174 174
183 183 183
180 180 180
167 167 167
186 186 186
201 201 201
202 202 202
188 188 188
166 166 166
158 158 158
149 149 149
134 134 134
114 114 114
105 105 105
115 115 115
120 120 120
118 118 118
110 110 110
118 118 118
137 137 137
152 152 152
160 160 160
160 160 160
150 150 150
157 157 157
165 165 165
164 164 164
154 154 154
158 158 158
180 180 180
195 195 195
197 197 197
186 186 186
165 165 165
154 154 154
142 142 142
125 125 125
116 116 116
123 123 123
133 133 133
151 151 151
163 163 163
166 166 166
160 160 160
146 146 146
126 126 126
142 142 142
153 153 153
156 156 156
172 172 172
194 194 194
206 206 206
202 202 202
185 185 185
204 204 204
227 227 227
228 228 228
206 206 206
186 186 186
187 187 187
175 175 175
156 156 156
133 133 133
131 131 131
143 143 143
149 149 149
147 147 147
137 137 137
128 128 128
148 148 148
163 163 163
173 173 173
172 172 172
162 162 162
165 165 165
169 169 169
168 168 168
158 158 158
165 165 165
189 189 189
207 207 207
209 209 209
195 195 195
179 179 179
161 161 161
138 138 138
132 132 132
140 140 140
149 149 149
150 150 150
144 144 144
150 150 150
153 153 153
147 147 147
135 135 135
133 133 133
151 151 151
164 164 164
167 167 167
179 179 179
203 203 203
218 218 218
213 213 213
193 193 193
208 208 208
234 234 234
236 236 236
209 209 209
214 214 214
215 215 215
197 197 197
173 173 173
146 146 146
154 154 154
170 170 170
178 178 178
175 175 175
162 162 162
134 134 134
153 153 153
168 168 168
175 175 175
175 175 175
164 164 164
177 177 177
180 180 180
172 172 172
156 156 156
162 162 162
185 185 185
202 202 202
204 204 204
203 203 203
191 191 191
171 171 171
150 150 150
158 158 158
161 161 161
173 173 173
174 174 174
173 173 173
175 175 175
167 167 167
151 151 151
139 139 139
148 148 148
153 153 153
165 165 165
169 169 169
175 175 175
197 197 197
210 210 210
206 206 206
193 193 193
195 195 195
212 212 212
213 213 213
209 209 209
237 237 237
238 238 238
210 210 210
181 181 181
152 152 152
174 174 174
195 195 195
206 206 206
201 201 201
183 183 183
152 152 152
169 169 169
178 178 178
176 176 176
167 167 167
165 165 165
178 178 178
181 181 181
173 173 173
157 157 157
151 151 151
171 171 171
184 184 184
200 200 200
203 203 203
192 192 192
171 171 171
171 171 171
181 181 181
180 180 180
191 191 191
194 194 194
200 200 200
204 204 204
193 193 193
172 172 172
158 158 158
169 169 169
171 171 171
163 163 163
161 161 161
161 161 161
185 185 185
211 211 211
227 227 227
218 218 218
194 194 194
185 185 185
188 188 188
204 204 204
228 228 228
228 228 228
206 206 206
178 178 178
157 157 157
186 186 186
212 212 212
231 231 231
222 222 222
197 197 197
164 164 164
184 184 184
196 196 196
193 193 193
179 179 179
157 157 157
168 168 168
171 171 171
164 164 164
149 149 149
133 133 133
151 151 151
172 172 172
186 186 186
189 189 189
179 179 179
164 164 164
185 185 185
197 197 197
196 196 196
200 200 200
202 202 202
225 225 225
233 233 233
212 212 212
185 185 185
179 179 179
185 185 185
187 187 187
177 177 177
159 159 159
161 161 161
191 191 191
220 220 220
249 249 249
230 230 230
200 200 200
174 174 174
184 184 184
186 186 186
201 201 201
201 201 201
187 187 187
183 183 183
175 175 175
186 186 186
213 213 213
232 232 232
223 223 223
197 197 197
168 168 168
189 189 189
202 202 202
199 199 199
183 183 183
161 161 161
151 151 151
153 153 153
147 147 147
145 145 145
141 141 141
135 135 135
153 153 153
164 164 164
166 166 166
164 164 164
173 173 173
188 188 188
201 201 201
200 200 200
193 193 193
202 202 202
230 230 230
241 241 241
216 216 216
193 193 193
201 201 201
194 194 194
192 192 192
181 181 181
182 182 182
180 180 180
183 183 183
208 208 208
222 222 222
214 214 214
192 192 192
188 188 188
200 200 200
198 198 198
183 183 183
184 184 184
203 203 203
208 208 208
197 197 197
175 175 175
196 196 196
208 208 208
203 203 203
184 184 184
162 162 162
181 181 181
192 192 192
190 190 190
176 176 176
155 155 155
143 143 143
156 156 156
161 161 161
157 157 157
153 153 153
149 149 149
138 138 138
140 140 140
164 164 164
185 185 185
197 197 197
195 195 195
190 190 190
189 189 189
176 176 176
190 190 190
209 209 209
214 214 214
200 200 200
204 204 204
214 214 214
204 204 204
184 184 184
195 195 195
209 209 209
206 206 206
189 189 189
184 184 184
193 193 193
188 188 188
173 173 173
191 191 191
204 204 204
206 206 206
205 205 205
194 194 194
218 218 218
226 226 226
210 210 210
184 184 184
176 176 176
181 181 181
176 176 176
163 163 163
148 148 148
164 164 164
173 173 173
171 171 171
160 160 160
144 144 144
166 166 166
182 182 182
189 189 189
183 183 183
168 168 168
163 163 163
150 150 150
147 147 147
174 174 174
197 197 197
213 213 213
211 211 211
192 192 192
169 169 169
159 159 159
169 169 169
182 182 182
185 185 185
179 179 179
199 199 199
207 207 207
199 199 199
181 181 181
208 208 208
229 229 229
225 225 225
201 201 201
173 173 173
173 173 173
165 165 165
161 161 161
181 181 181
207 207 207
230 230 230
228 228 228
205 205 205
212 212 212
219 219 219
205 205 205
181 181 181
164 164 164
169 169 169
164 164 164
150 150 150
128 128 128
142 142 142
149 149 149
147 147 147
138 138 138
157 157 157
183 183 183
204 204 204
214 214 214
205 205 205
184 184 184
169 169 169
155 155 155
147 147 147
173 173 173
196 196 196
211 211 211
209 209 209
191 191 191
180 180 180
176 176 176
162 162 162
154 154 154
156 156 156
165 165 165
181 181 181
187 187 187
181 181 181
179 179 179
205 205 205
224 224 224
220 220 220
198 198 198
172 172 172
151 151 151
145 145 145
150 150 150
179 179 179
207 207 207
229 229 229
228 228 228
204 204 204
192 192 192
196 196 196
187 187 187
168 168 168
146 146 146
150 150 150
149 149 149
162 162 162
118 118 118
136 136 136
148 148 148
154 154 154
156 156 156
162 162 162
190 190 190
215 215 215
230 230 230
217 217 217
191 191 191
164 164 164
151 151 151
143 143 143
162 162 162
182 182 182
193 193 193
192 192 192
188 188 188
197 197 197
191 191 191
175 175 175
152 152 152
158 158 158
178 178 178
189 189 189
188 188 188
175 175 175
167 167 167
188 188 188
200 200 200
198 198 198
183 183 183
160 160 160
135 135 135
130 130 130
142 142 142
168 168 168
191 191 191
206 206 206
205 205 205
189 189 189
166 166 166
169 169 169
168 168 168
169 169 169
160 160 160
144 144 144
155 155 155
168 168 168
124 124 124
143 143 143
157 157 157
163 163 163
171 171 171
176 176 176
184 184 184
207 207 207
217 217 217
208 208 208
186 186 186
160 160 160
140 140 140
145 145 145
154 154 154
161 161 161
169 169 169
172 172 172
191 191 191
200 200 200
195 195 195
177 177 177
154 154 154
175 175 175
199 199 199
217 217 217
215 215 215
196 196 196
171 171 171
185 185 185
190 190 190
183 183 183
166 166 166
152 152 152
139 139 139
150 150 150
164 164 164
169 169 169
168 168 168
178 178 178
177 177 177
166 166 166
160 160 160
182 182 182
196 196 196
198 198 198
185 185 185
164 164 164
153 153 153
164 164 164
124 124 124
144 144 144
158 158 158
164 164 164
177 177 177
183 183 183
177 177 177
185 185 185
192 192 192
186 186 186
170 170 170
147 147 147
139 139 139
162 162 162
181 181 181
190 190 190
187 187 187
173 173 173
182 182 182
189 189 189
185 185 185
169 169 169
153 153 153
182 182 182
211 211 211
237 237 237
234 234 234
207 207 207
178 178 178
186 186 186
192 192 192
185 185 185
179 179 179
172 172 172
155 155 155
170 170 170
188 188 188
196 196 196
190 190 190
173 173 173
150 150 150
146 146 146
174 174 174
201 201 201
223 223 223
225 225 225
205 205 205
178 178 178
178 178 178
186 186 186
118 118 118
136 136 136
149 149 149
158 158 158
173 173 173
178 178 178
173 173 173
160 160 160
165 165 165
160 160 160
148 148 148
129 129 129
152 152 152
179 179 179
204 204 204
219 219 219
214 214 214
193 193 193
167 167 167
169 169 169
166 166 166
153 153 153
150 150 150
178 178 178
204 204 204
225 225 225
223 223 223
201 201 201
174 174 174
176 176 176
181 181 181
189 189 189
193 193 193
184 184 184
165 165 165
184 184 184
208 208 208
220 220 220
210 210 210
188 188 188
161 161 161
149 149 149
178 178 178
207 207 207
235 235 235
239 239 239
212 212 212
183 183 183
198 198 198
210 210 210
126 126 126
130 130 130
134 134 134
146 146 146
159 159 159
164 164 164
159 159 159
146 146 146
136 136 136
133 133 133
123 123 123
129 129 129
158 158 158
187 187 187
217 217 217
243 243 243
231 231 231
203 203 203
192 192 192
184 184 184
167 167 167
145 145 145
139 139 139
164 164 164
185 185 185
198 198 198
197 197 197
191 191 191
199 199 199
192 192 192
178 178 178
190 190 190
194 194 194
185 185 185
166 166 166
188 188 188
213 213 213
227 227 227
215 215 215
191 191 191
164 164 164
144 144 144
171 171 171
197 197 197
216 216 216
218 218 218
200 200 200
184 184 184
208 208 208
223 223 223
131 131 131
136 136 136
133 133 133
152 152 152
167 167 167
174 174 174
171 171 171
158 158 158
139 139 139
117 117 117
115 115 115
126 126 126
155 155 155
183 183 183
209 209 209
228 228 228
221 221 221
210 210 210
220 220 220
208 208 208
185 185 185
158 158 158
141 141 141
144 144 144
160 160 160
169 169 169
182 182 182
205 205 205
216 216 216
215 215 215
202 202 202
179 179 179
182 182 182
174 174 174
157 157 157
179 179 179
199 199 199
209 209 209
201 201 201
187 187 187
177 177 177
158 158 158
155 155 155
176 176 176
189 189 189
190 190 190
189 189 189
184 184 184
201 201 201
213 213 213
130 130 130
135 135 135
148 148 148
169 169 169
188 188 188
198 198 198
193 193 193
177 177 177
154 154 154
129 129 129
140 140 140
152 152 152
157 157 157
168 168 168
188 188 188
199 199 199
196 196 196
223 223 223
241 241 241
221 221 221
193 193 193
164 164 164
142 142 142
126 126 126
133 133 133
155 155 155
181 181 181
203 203 203
228 228 228
241 241 241
217 217 217
188 188 188
179 179 179
182 182 182
173 173 173
161 161 161
177 177 177
183 183 183
198 198 198
199 199 199
186 186 186
165 165 165
140 140 140
153 153 153
178 178 178
198 198 198
208 208 208
200 200 200
182 182 182
190 190 190
136 136 136
158 158 158
175 175 175
184 184 184
200 200 200
213 213 213
207 207 207
187 187 187
162 162 162
142 142 142
163 163 163
179 179 179
185 185 185
179 179 179
163 163 163
170 170 170
190 190 190
213 213 213
225 225 225
212 212 212
187 187 187
160 160 160
136 136 136
121 121 121
121 121 121
146 146 146
170 170 170
197 197 197
222 222 222
231 231 231
212 212 212
187 187 187
205 205 205
210 210 210
198 198 198
175 175 175
163 163 163
181 181 181
195 195 195
197 197 197
184 184 184
164 164 164
161 161 161
163 163 163
191 191 191
217 217 217
234 234 234
220 220 220
194 194 194
165 165 165
151 151 151
177 177 177
200 200 200
213 213 213
208 208 208
210 210 210
204 204 204
185 185 185
161 161 161
156 156 156
181 181 181
202 202 202
211 211 211
202 202 202
181 181 181
156 156 156
173 173 173
190 190 190
197 197 197
189 189 189
171 171 171
148 148 148
123 123 123
109 109 109
129 129 129
144 144 144
158 158 158
181 181 181
198 198 198
203 203 203
192 192 192
200 200 200
226 226 226
236 236 236
214 214 214
193 193 193
187 187 187
170 170 170
180 180 180
181 181 181
171 171 171
170 170 170
183 183 183
184 184 184
191 191 191
218 218 218
236 236 236
221 221 221
194 194 194
166 166 166
159 159 159
188 188 188
216 216 216
241 241 241
229 229 229
208 208 208
203 203 203
185 185 185
161 161 161
163 163 163
190 190 190
216 216 216
229 229 229
215 215 215
190 190 190
162 162 162
150 150 150
163 163 163
168 168 168
162 162 162
149 149 149
130 130 130
107 107 107
120 120 120
141 141 141
159 159 159
170 170 170
171 171 171
171 171 171
174 174 174
171 171 171
199 199 199
224 224 224
232 232 232
212 212 212
213 213 213
204 204 204
183 183 183
158 158 158
159 159 159
159 159 159
181 181 181
196 196 196
199 199 199
187 187 187
200 200 200
209 209 209
202 202 202
182 182 182
164 164 164
158 158 158
186 186 186
214 214 214
235 235 235
226 226 226
210 210 210
205 205 205
186 186 186
162 162 162
167 167 167
187 187 187
210 210 210
221 221 221
210 210 210
186 186 186
160 160 160
156 156 156
147 147 147
139 139 139
135 135 135
124 124 124
108 108 108
107 107 107
125 125 125
147 147 147
166 166 166
178 178 178
179 179 179
169 169 169
152 152 152
160 160 160
184 184 184
201 201 201
206 206 206
206 206 206
216 216 216
207 207 207
185 185 185
160 160 160
171 171 171
175 175 175
187 187 187
197 197 197
200 200 200
188 188 188
174 174 174
182 182 182
191 191 191
187 187 187
172 172 172
165 165 165
177 177 177
195 195 195
207 207 207
202 202 202
195 195 195
191 191 191
186 186 186
181 181 181
173 173 173
192 192 192
201 201 201
197 197 197
189 189 189
172 172 172
166 166 166
166 166 166
157 157 157
141 141 141
120 120 120
121 121 121
132 132 132
136 136 136
133 133 133
145 145 145
164 164 164
175 175 175
176 176 176
167 167 167
150 150 150
143 143 143
162 162 162
186 186 186
204 204 204
209 209 209
201 201 201
194 194 194
176 176 176
179 179 179
198 198 198
205 205 205
208 208 208
221 221 221
212 212 212
189 189 189
163 163 163
179 179 179
188 188 188
184 184 184
169 169 169
187 187 187
205 205 205
208 208 208
195 195 195
175 175 175
178 178 178
200 200 200
212 212 212
205 205 205
185 185 185
187 187 187
194 194 194
188 188 188
171 171 171
158 158 158
168 168 168
168 168 168
159 159 159
142 142 142
127 127 127
146 146 146
160 160 160
165 165 165
161 161 161
148 148 148
152 152 152
162 162 162
163 163 163
155 155 155
140 140 140
150 150 150
164 164 164
185 185 185
203 203 203
208 208 208
196 196 196
175 175 175
166 166 166
194 194 194
220 220 220
234 234 234
217 217 217
232 232 232
220 220 220
194 194 194
166 166 166
166 166 166
173 173 173
170 170 170
164 164 164
202 202 202
228 228 228
235 235 235
212 212 212
184 184 184
186 186 186
212 212 212
228 228 228
218 218 218
194 194 194
170 170 170
176 176 176
172 172 172
167 167 167
177 177 177
176 176 176
171 171 171
164 164 164
149 149 149
146 146 146
168 168 168
186 186 186
193 193 193
188 188 188
171 171 171
149 149 149
148 148 148
151 151 151
145 145 145
138 138 138
153 153 153
166 166 166
173 173 173
188 188 188
191 191 191
182 182 182
164 164 164
168 168 168
197 197 197
226 226 226
244 244 244
221 221 221
214 214 214
206 206 206
186 186 186
160 160 160
146 146 146
152 152 152
149 149 149
174 174 174
203 203 203
229 229 229
236 236 236
212 212 212
184 184 184
182 182 182
206 206 206
219 219 219
211 211 211
198 198 198
182 182 182
184 184 184
175 175 175
185 185 185
198 198 198
197 197 197
191 191 191
182 182 182
164 164 164
158 158 158
185 185 185
208 208 208
220 220 220
211 211 211
188 188 188
162 162 162
170 170 170
173 173 173
166 166 166
160 160 160
179 179 179
190 190 190
188 188 188
174 174 174
168 168 168
161 161 161
152 152 152
179 179 179
201 201 201
214 214 214
216 216 216
204 204 204
188 188 188
184 184 184
189 189 189
181 181 181
163 163 163
141 141 141
145 145 145
174 174 174
188 188 188
206 206 206
209 209 209
195 195 195
173 173 173
168 168 168
186 186 186
198 198 198
208 208 208
200 200 200
200 200 200
203 203 203
190 190 190
193 193 193
208 208 208
207 207 207
201 201 201
191 191 191
171 171 171
162 162 162
191 191 191
218 218 218
236 236 236
221 221 221
195 195 195
170 170 170
185 185 185
189 189 189
180 180 180
177 177 177
202 202 202
218 218 218
215 215 215
195 195 195
169 169 169
142 142 142
160 160 160
189 189 189
218 218 218
242 242 242
228 228 228
200 200 200
188 188 188
209 209 209
216 216 216
203 203 203
181 181 181
154 154 154
138 138 138
164 164 164
166 166 166
178 178 178
180 180 180
180 180 180
186 186 186
180 180 180
168 168 168
186 186 186
194 194 194
192 192 192
205 205 205
207 207 207
194 194 194
189 189 189
202 202 202
201 201 201
197 197 197
187 187 187
167 167 167
158 158 158
184 184 184
207 207 207
219 219 219
210 210 210
187 187 187
174 174 174
190 190 190
194 194 194
185 185 185
185 185 185
214 214 214
242 242 242
234 234 234
205 205 205
176 176 176
147 147 147
159 159 159
188 188 188
215 215 215
235 235 235
224 224 224
198 198 198
197 197 197
223 223 223
235 235 235
216 216 216
189 189 189
160 160 160
139 139 139
147 147 147
140 140 140
150 150 150
171 171 171
188 188 188
195 195 195
188 188 188
170 170 170
173 173 173
197 197 197
213 213 213
212 212 212
196 196 196
184 184 184
173 173 173
183 183 183
182 182 182
179 179 179
172 172 172
155 155 155
148 148 148
167 167 167
185 185 185
192 192 192
186 186 186
197 197 197
193 193 193
182 182 182
186 186 186
177 177 177
181 181 181
207 207 207
227 227 227
223 223 223
200 200 200
172 172 172
158 158 158
158 158 158
174 174 174
195 195 195
206 206 206
201 201 201
183 183 183
191 191 191
214 214 214
223 223 223
208 208 208
184 184 184
157 157 157
160 160 160
163 163 163
121 121 121
146 146 146
168 168 168
184 184 184
190 190 190
183 183 183
166 166 166
176 176 176
201 201 201
219 219 219
218 218 218
198 198 198
172 172 172
151 151 151
159 159 159
158 158 158
156 156 156
150 150 150
152 152 152
173 173 173
187 187 187
190 190 190
181 181 181
205 205 205
221 221 221
216 216 216
194 194 194
168 168 168
161 161 161
167 167 167
187 187 187
199 199 199
197 197 197
182 182 182
162 162 162
172 172 172
172 172 172
162 162 162
170 170 170
177 177 177
174 174 174
160 160 160
175 175 175
191 191 191
197 197 197
188 188 188
169 169 169
173 173 173
175 175 175
179 179 179
113 113 113
136 136 136
155 155 155
169 169 169
174 174 174
181 181 181
185 185 185
178 178 178
190 190 190
204 204 204
203 203 203
187 187 187
165 165 165
139 139 139
132 132 132
131 131 131
130 130 130
139 139 139
167 167 167
193 193 193
213 213 213
219 219 219
204 204 204
210 210 210
230 230 230
223 223 223
199 199 199
171 171 171
152 152 152
159 159 159
162 162 162
170 170 170
169 169 169
158 158 158
166 166 166
176 176 176
176 176 176
166 166 166
148 148 148
148 148 148
145 145 145
143 143 143
168 168 168
190 190 190
203 203 203
201 201 201
185 185 185
191 191 191
186 186 186
185 185 185
111 111 111
131 131 131
150 150 150
163 163 163
176 176 176
192 192 192
198 198 198
188 188 188
170 170 170
180 180 180
179 179 179
168 168 168
149 149 149
140 140 140
129 129 129
135 135 135
134 134 134
152 152 152
173 173 173
203 203 203
231 231 231
244 244 244
217 217 217
198 198 198
211 211 211
207 207 207
188 188 188
164 164 164
158 158 158
167 167 167
166 166 166
155 155 155
140 140 140
143 143 143
160 160 160
170 170 170
170 170 170
160 160 160
143 143 143
122 122 122
123 123 123
151 151 151
179 179 179
205 205 205
224 224 224
221 221 221
199 199 199
198 198 198
193 193 193
180 180 180
118 118 118
120 120 120
137 137 137
152 152 152
175 175 175
191 191 191
196 196 196
187 187 187
168 168 168
153 153 153
152 152 152
150 150 150
148 148 148
139 139 139
150 150 150
157 157 157
155 155 155
174 174 174
191 191 191
197 197 197
221 221 221
228 228 228
210 210 210
183 183 183
185 185 185
182 182 182
169 169 169
149 149 149
156 156 156
164 164 164
163 163 163
153 153 153
137 137 137
137 137 137
147 147 147
155 155 155
155 155 155
146 146 146
135 135 135
140 140 140
138 138 138
151 151 151
179 179 179
205 205 205
224 224 224
220 220 220
199 199 199
191 191 191
186 186 186
171 171 171
122 122 122
136 136 136
145 145 145
146 146 146
163 163 163
177 177 177
181 181 181
174 174 174
158 158 158
137 137 137
135 135 135
141 141 141
140 140 140
150 150 150
166 166 166
174 174 174
171 171 171
190 190 190
212 212 212
221 221 221
207 207 207
200 200 200
189 189 189
169 169 169
157 157 157
155 155 155
145 145 145
136 136 136
146 146 146
153 153 153
152 152 152
143 143 143
144 144 144
163 163 163
176 176 176
178 178 178
170 170 170
153 153 153
150 150 150
156 156 156
153 153 153
143 143 143
168 168 168
190 190 190
203 203 203
201 201 201
185 185 185
183 183 183
182 182 182
170 170 170
142 142 142
160 160 160
171 171 171
172 172 172
163 163 163
157 157 157
160 160 160
154 154 154
141 141 141
124 124 124
126 126 126
143 143 143
154 154 154
167 167 167
176 176 176
183 183 183
180 180 180
195 195 195
220 220 220
231 231 231
214 214 214
187 187 187
163 163 163
161 161 161
159 159 159
158 158 158
166 166 166
165 165 165
159 159 159
169 169 169
170 170 170
161 161 161
162 162 162
186 186 186
203 203 203
207 207 207
195 195 195
173 173 173
159 159 159
165 165 165
162 162 162
150 150 150
150 150 150
167 167 167
176 176 176
174 174 174
174 174 174
184 184 184
183 183 183
170 170 170
158 158 158
179 179 179
193 193 193
195 195 195
183 183 183
163 163 163
169 169 169
171 171 171
163 163 163
147 147 147
144 144 144
165 165 165
179 179 179
183 183 183
192 192 192
191 191 191
177 177 177
186 186 186
206 206 206
213 213 213
211 211 211
195 195 195
180 180 180
189 189 189
185 185 185
183 183 183
195 195 195
193 193 193
178 178 178
182 182 182
183 183 183
172 172 172
172 172 172
201 201 201
227 227 227
236 236 236
213 213 213
187 187 187
184 184 184
170 170 170
167 167 167
159 159 159
144 144 144
141 141 141
148 148 148
148 148 148
164 164 164
173 173 173
172 172 172
161 161 161
166 166 166
190 190 190
207 207 207
209 209 209
194 194 194
181 181 181
197 197 197
199 199 199
188 188 188
167 167 167
157 157 157
181 181 181
199 199 199
205 205 205
197 197 197
195 195 195
187 187 187
179 179 179
207 207 207
233 233 233
233 233 233
208 208 208
200 200 200
213 213 213
208 208 208
204 204 204
222 222 222
218 218 218
197 197 197
184 184 184
184 184 184
174 174 174
173 173 173
202 202 202
230 230 230
240 240 240
215 215 215
212 212 212
207 207 207
188 188 188
183 183 183
174 174 174
156 156 156
134 134 134
141 141 141
150 150 150
151 151 151
154 154 154
153 153 153
144 144 144
165 165 165
189 189 189
205 205 205
207 207 207
193 193 193
198 198 198
220 220 220
225 225 225
206 206 206
181 181 181
162 162 162
187 187 187
208 208 208
215 215 215
209 209 209
219 219 219
209 209 209
186 186 186
204 204 204
227 227 227
227 227 227
218 218 218
209 209 209
226 226 226
218 218 218
212 212 212
238 238 238
232 232 232
205 205 205
176 176 176
175 175 175
165 165 165
164 164 164
192 192 192
218 218 218
231 231 231
215 215 215
227 227 227
219 219 219
196 196 196
189 189 189
179 179 179
161 161 161
138 138 138
139 139 139
147 147 147
148 148 148
140 140 140
131 131 131
139 139 139
155 155 155
176 176 176
189 189 189
190 190 190
179 179 179
201 201 201
227 227 227
233 233 233
211 211 211
183 183 183
157 157 157
181 181 181
199 199 199
205 205 205
218 218 218
232 232 232
217 217 217
191 191 191
187 187 187
201 201 201
213 213 213
224 224 224
210 210 210
214 214 214
208 208 208
202 202 202
220 220 220
216 216 216
196 196 196
170 170 170
157 157 157
149 149 149
159 159 159
184 184 184
205 205 205
214 214 214
203 203 203
216 216 216
210 210 210
190 190 190
183 183 183
174 174 174
156 156 156
134 134 134
129 129 129
137 137 137
137 137 137
135 135 135
127 127 127
131 131 131
138 138 138
155 155 155
165 165 165
166 166 166
166 166 166
190 190 190
209 209 209
212 212 212
198 198 198
175 175 175
148 148 148
165 165 165
180 180 180
184 184 184
206 206 206
215 215 215
205 205 205
184 184 184
163 163 163
180 180 180
199 199 199
206 206 206
197 197 197
189 189 189
186 186 186
181 181 181
192 192 192
190 190 190
176 176 176
155 155 155
134 134 134
136 136 136
150 150 150
166 166 166
182 182 182
187 187 187
182 182 182
192 192 192
188 188 188
173 173 173
166 166 166
159 159 159
144 144 144
144 144 144
144 144 144
158 158 158
166 166 166
164 164 164
153 153 153
136 136 136
117 117 117
131 131 131
139 139 139
140 140 140
150 150 150
170 170 170
183 183 183
185 185 185
175 175 175
158 158 158
135 135 135
144 144 144
155 155 155
167 167 167
183 183 183
189 189 189
183 183 183
166 166 166
161 161 161
161 161 161
176 176 176
181 181 181
174 174 174
162 162 162
159 159 159
160 160 160
163 163 163
162 162 162
155 155 155
156 156 156
149 149 149
156 156 156
174 174 174
184 184 184
182 182 182
177 177 177
189 189 189
190 190 190
178 178 178
158 158 158
144 144 144
138 138 138
147 147 147
155 155 155
165 165 165
184 184 184
195 195 195
192 192 192
177 177 177
155 155 155
93 93 93
105 105 105
111 111 111
125 125 125
134 134 134
145 145 145
155 155 155
157 157 157
150 150 150
135 135 135
138 138 138
159 159 159
174 174 174
181 181 181
176 176 176
161 161 161
156 156 156
169 169 169
176 176 176
185 185 185
185 185 185
173 173 173
154 154 154
167 167 167
180 180 180
182 182 182
174 174 174
169 169 169
182 182 182
183 183 183
174 174 174
171 171 171
193 193 193
206 206 206
204 204 204
189 189 189
204 204 204
205 205 205
190 190 190
167 167 167
142 142 142
134 134 134
150 150 150
158 158 158
180 180 180
206 206 206
223 223 223
218 218 218
196 196 196
169 169 169
73 73 73
95 95 95
114 114 114
129 129 129
139 139 139
141 141 141
149 149 149
152 152 152
147 147 147
135 135 135
153 153 153
178 178 178
199 199 199
209 209 209
201 201 201
181 181 181
157 157 157
174 174 174
195 195 195
212 212 212
211 211 211
194 194 194
170 170 170
184 184 184
202 202 202
206 206 206
194 194 194
188 188 188
205 205 205
208 208 208
194 194 194
177 177 177
201 201 201
217 217 217
214 214 214
194 194 194
204 204 204
204 204 204
190 190 190
167 167 167
142 142 142
130 130 130
144 144 144
157 157 157
186 186 186
215 215 215
242 242 242
232 232 232
204 204 204
174 174 174
71 71 71
92 92 92
111 111 111
126 126 126
142 142 142
162 162 162
177 177 177
181 181 181
175 175 175
159 159 159
161 161 161
190 190 190
216 216 216
232 232 232
219 219 219
193 193 193
165 165 165
179 179 179
206 206 206
229 229 229
229 229 229
205 205 205
178 178 178
192 192 192
213 213 213
218 218 218
203 203 203
198 198 198
220 220 220
224 224 224
205 205 205
180 180 180
194 194 194
208 208 208
205 205 205
188 188 188
189 189 189
189 189 189
177 177 177
158 158 158
135 135 135
137 137 137
151 151 151
158 158 158
180 180 180
205 205 205
222 222 222
217 217 217
195 195 195
169 169 169
70 70 70
91 91 91
109 109 109
131 131 131
158 158 158
183 183 183
202 202 202
210 210 210
199 199 199
178 178 178
161 161 161
189 189 189
214 214 214
229 229 229
217 217 217
192 192 192
165 165 165
175 175 175
201 201 201
221 221 221
220 220 220
200 200 200
174 174 174
187 187 187
205 205 205
210 210 210
197 197 197
193 193 193
213 213 213
216 216 216
200 200 200
180 180 180
176 176 176
186 186 186
184 184 184
171 171 171
166 166 166
167 167 167
157 157 157
149 149 149
140 140 140
148 148 148
164 164 164
172 172 172
171 171 171
183 183 183
194 194 194
191 191 191
176 176 176
155 155 155
82 82 82
94 94 94
109 109 109
138 138 138
167 167 167
195 195 195
221 221 221
234 234 234
216 216 216
190 190 190
181 181 181
186 186 186
196 196 196
206 206 206
210 210 210
197 197 197
174 174 174
162 162 162
183 183 183
196 196 196
196 196 196
182 182 182
161 161 161
171 171 171
185 185 185
188 188 188
179 179 179
177 177 177
195 195 195
215 215 215
218 218 218
201 201 201
176 176 176
164 164 164
182 182 182
191 191 191
187 187 187
172 172 172
175 175 175
175 175 175
164 164 164
158 158 158
168 168 168
177 177 177
175 175 175
163 163 163
165 165 165
163 163 163
152 152 152
135 135 135
100 100 100
113 113 113
125 125 125
137 137 137
166 166 166
194 194 194
219 219 219
231 231 231
215 215 215
189 189 189
207 207 207
215 215 215
204 204 204
216 216 216
221 221 221
205 205 205
180 180 180
153 153 153
159 159 159
179 179 179
193 193 193
194 194 194
183 183 183
163 163 163
160 160 160
162 162 162
155 155 155
175 175 175
204 204 204
229 229 229
234 234 234
210 210 210
182 182 182
173 173 173
194 194 194
205 205 205
200 200 200
186 186 186
198 198 198
197 197 197
183 183 183
176 176 176
182 182 182
176 176 176
169 169 169
158 158 158
140 140 140
134 134 134
131 131 131
130 130 130
114 114 114
132 132 132
151 151 151
163 163 163
167 167 167
180 180 180
199 199 199
205 205 205
196 196 196
196 196 196
225 225 225
243 243 243
221 221 221
206 206 206
210 210 210
197 197 197
175 175 175
159 159 159
171 171 171
197 197 197
217 217 217
220 220 220
202 202 202
177 177 177
149 149 149
134 134 134
143 143 143
170 170 170
196 196 196
216 216 216
219 219 219
202 202 202
183 183 183
172 172 172
193 193 193
203 203 203
199 199 199
196 196 196
212 212 212
211 211 211
193 193 193
186 186 186
193 193 193
187 187 187
170 170 170
147 147 147
138 138 138
153 153 153
160 160 160
159 159 159
125 125 125
150 150 150
173 173 173
190 190 190
196 196 196
188 188 188
173 173 173
177 177 177
171 171 171
194 194 194
219 219 219
233 233 233
216 216 216
190 190 190
187 187 187
189 189 189
189 189 189
177 177 177
175 175 175
203 203 203
227 227 227
231 231 231
209 209 209
181 181 181
153 153 153
140 140 140
132 132 132
156 156 156
177 177 177
191 191 191
199 199 199
206 206 206
197 197 197
176 176 176
179 179 179
188 188 188
184 184 184
193 193 193
208 208 208
207 207 207
190 190 190
185 185 185
191 191 191
185 185 185
168 168 168
146 146 146
160 160 160
179 179 179
189 189 189
187 187 187
135 135 135
163 163 163
189 189 189
212 212 212
222 222 222
210 210 210
197 197 197
196 196 196
182 182 182
178 178 178
197 197 197
204 204 204
195 195 195
176 176 176
185 185 185
199 199 199
199 199 199
185 185 185
169 169 169
193 193 193
212 212 212
214 214 214
198 198 198
174 174 174
152 152 152
147 147 147
134 134 134
136 136 136
156 156 156
180 180 180
199 199 199
207 207 207
197 197 197
177 177 177
158 158 158
165 165 165
162 162 162
178 178 178
189 189 189
188 188 188
178 178 178
198 198 198
207 207 207
199 199 199
179 179 179
155 155 155
177 177 177
201 201 201
218 218 218
214 214 214
137 137 137
166 166 166
195 195 195
222 222 222
236 236 236
218 218 218
215 215 215
213 213 213
195 195 195
170 170 170
170 170 170
175 175 175
169 169 169
161 161 161
182 182 182
195 195 195
195 195 195
182 182 182
161 161 161
174 174 174
187 187 187
188 188 188
177 177 177
162 162 162
166 166 166
160 160 160
146 146 146
126 126 126
148 148 148
170 170 170
186 186 186
192 192 192
184 184 184
167 167 167
154 154 154
145 145 145
163 163 163
173 173 173
173 173 173
164 164 164
183 183 183
205 205 205
215 215 215
206 206 206
184 184 184
158 158 158
184 184 184
213 213 213
240 240 240
233 233 233
