P3
50 50
255
120 120 120
138 138 138
151 151 151
157 157 157
154 154 154
169 169 169
195 195 195
216 216 216
220 220 220
204 204 204
179 179 179
152 152 152
159 159 159
187 187 187
213 213 213
230 230 230
219 219 219
195 195 195
167 167 167
138 138 138
111 111 111
135 135 135
155 155 155
170 170 170
175 175 175
171 171 171
157 157 157
150 150 150
153 153 153
165 165 165
169 169 169
163 163 163
148 148 148
151 151 151
157 157 157
154 154 154
143 143 143
127 127 127
149 149 149
173 173 173
191 191 191
199 199 199
192 192 192
174 174 174
151 151 151
125 125 125
109 109 109
107 107 107
99 99 99
99 99 99
137 137 137
159 159 159
175 175 175
183 183 183
179 179 179
171 171 171
196 196 196
218 218 218
223 223 223
205 205 205
180 180 180
159 159 159
170 170 170
182 182 182
205 205 205
218 218 218
210 210 210
189 189 189
163 163 163
135 135 135
125 125 125
152 152 152
176 176 176
195 195 195
204 204 204
197 197 197
178 178 178
175 175 175
178 178 178
190 190 190
195 195 195
186 186 186
168 168 168
172 172 172
179 179 179
176 176 176
162 162 162
142 142 142
160 160 160
187 187 187
211 211 211
223 223 223
212 212 212
189 189 189
162 162 162
134 134 134
133 133 133
130 130 130
121 121 121
114 114 114
149 149 149
174 174 174
194 194 194
205 205 205
200 200 200
182 182 182
201 201 201
219 219 219
217 217 217
197 197 197
171 171 171
165 165 165
177 177 177
179 179 179
184 184 184
193 193 193
188 188 188
172 172 172
150 150 150
125 125 125
133 133 133
162 162 162
190 190 190
216 216 216
231 231 231
218 218 218
192 192 192
195 195 195
200 200 200
209 209 209
216 216 216
203 203 203
181 181 181
185 185 185
194 194 194
190 190 190
174 174 174
152 152 152
162 162 162
190 190 190
215 215 215
230 230 230
217 217 217
192 192 192
164 164 164
148 148 148
153 153 153
150 150 150
139 139 139
123 123 123
153 153 153
180 180 180
203 203 203
215 215 215
209 209 209
188 188 188
192 192 192
207 207 207
205 205 205
189 189 189
166 166 166
163 163 163
174 174 174
176 176 176
167 167 167
165 165 165
161 161 161
149 149 149
149 149 149
148 148 148
140 140 140
163 163 163
192 192 192
219 219 219
237 237 237
221 221 221
194 194 194
205 205 205
212 212 212
212 212 212
220 220 220
207 207 207
183 183 183
188 188 188
197 197 197
192 192 192
176 176 176
153 153 153
155 155 155
180 180 180
201 201 201
210 210 210
202 202 202
182 182 182
157 157 157
163 163 163
169 169 169
165 165 165
152 152 152
134 134 134
149 149 149
174 174 174
195 195 195
206 206 206
201 201 201
197 197 197
209 209 209
204 204 204
186 186 186
171 171 171
151 151 151
151 151 151
162 162 162
163 163 163
155 155 155
140 140 140
144 144 144
161 161 161
169 169 169
169 169 169
158 158 158
155 155 155
181 181 181
202 202 202
212 212 212
204 204 204
183 183 183
199 199 199
205 205 205
198 198 198
204 204 204
194 194 194
174 174 174
178 178 178
186 186 186
182 182 182
167 167 167
147 147 147
140 140 140
162 162 162
177 177 177
184 184 184
178 178 178
163 163 163
154 154 154
169 169 169
175 175 175
171 171 171
164 164 164
151 151 151
138 138 138
160 160 160
177 177 177
192 192 192
202 202 202
214 214 214
236 236 236
225 225 225
199 199 199
171 171 171
142 142 142
134 134 134
142 142 142
144 144 144
137 137 137
132 132 132
155 155 155
173 173 173
183 183 183
182 182 182
175 175 175
176 176 176
166 166 166
177 177 177
184 184 184
178 178 178
176 176 176
190 190 190
192 192 192
182 182 182
179 179 179
172 172 172
156 156 156
160 160 160
166 166 166
163 163 163
151 151 151
133 133 133
121 121 121
139 139 139
151 151 151
155 155 155
151 151 151
161 161 161
165 165 165
170 170 170
186 186 186
192 192 192
185 185 185
168 168 168
130 130 130
159 159 159
187 187 187
214 214 214
231 231 231
221 221 221
234 234 234
225 225 225
199 199 199
170 170 170
144 144 144
138 138 138
155 155 155
165 165 165
166 166 166
158 158 158
157 157 157
176 176 176
187 187 187
186 186 186
201 201 201
202 202 202
188 188 188
166 166 166
155 155 155
158 158 158
180 180 180
195 195 195
198 198 198
186 186 186
166 166 166
146 146 146
134 134 134
137 137 137
142 142 142
141 141 141
146 146 146
144 144 144
134 134 134
118 118 118
123 123 123
140 140 140
160 160 160
174 174 174
178 178 178
180 180 180
199 199 199
207 207 207
198 198 198
178 178 178
132 132 132
161 161 161
191 191 191
220 220 220
245 245 245
228 228 228
208 208 208
203 203 203
184 184 184
173 173 173
154 154 154
158 158 158
179 179 179
193 193 193
195 195 195
183 183 183
163 163 163
168 168 168
178 178 178
200 200 200
221 221 221
222 222 222
202 202 202
176 176 176
148 148 148
152 152 152
173 173 173
186 186 186
189 189 189
179 179 179
160 160 160
137 137 137
116 116 116
132 132 132
152 152 152
168 168 168
175 175 175
172 172 172
159 159 159
140 140 140
119 119 119
142 142 142
163 163 163
177 177 177
182 182 182
179 179 179
198 198 198
205 205 205
196 196 196
176 176 176
138 138 138
155 155 155
181 181 181
204 204 204
217 217 217
210 210 210
189 189 189
185 185 185
186 186 186
175 175 175
157 157 157
172 172 172
198 198 198
219 219 219
222 222 222
203 203 203
178 178 178
152 152 152
174 174 174
200 200 200
221 221 221
222 222 222
202 202 202
176 176 176
162 162 162
168 168 168
166 166 166
168 168 168
170 170 170
162 162 162
146 146 146
125 125 125
121 121 121
148 148 148
173 173 173
194 194 194
205 205 205
200 200 200
182 182 182
158 158 158
135 135 135
137 137 137
156 156 156
170 170 170
174 174 174
173 173 173
183 183 183
189 189 189
182 182 182
177 177 177
144 144 144
153 153 153
168 168 168
180 180 180
188 188 188
184 184 184
169 169 169
176 176 176
177 177 177
168 168 168
150 150 150
177 177 177
206 206 206
233 233 233
238 238 238
212 212 212
183 183 183
154 154 154
164 164 164
186 186 186
201 201 201
201 201 201
187 187 187
176 176 176
188 188 188
188 188 188
178 178 178
164 164 164
146 146 146
140 140 140
127 127 127
125 125 125
129 129 129
158 158 158
187 187 187
214 214 214
234 234 234
224 224 224
198 198 198
170 170 170
150 150 150
134 134 134
142 142 142
154 154 154
157 157 157
157 157 157
164 164 164
165 165 165
179 179 179
198 198 198
147 147 147
171 171 171
191 191 191
201 201 201
196 196 196
179 179 179
155 155 155
159 159 159
160 160 160
152 152 152
153 153 153
181 181 181
205 205 205
221 221 221
219 219 219
202 202 202
176 176 176
149 149 149
146 146 146
164 164 164
175 175 175
175 175 175
172 172 172
196 196 196
214 214 214
214 214 214
196 196 196
172 172 172
146 146 146
127 127 127
142 142 142
151 151 151
152 152 152
160 160 160
189 189 189
218 218 218
243 243 243
229 229 229
201 201 201
172 172 172
159 159 159
142 142 142
123 123 123
133 133 133
136 136 136
136 136 136
142 142 142
160 160 160
186 186 186
208 208 208
156 156 156
183 183 183
207 207 207
222 222 222
214 214 214
192 192 192
165 165 165
139 139 139
142 142 142
137 137 137
158 158 158
188 188 188
217 217 217
243 243 243
231 231 231
202 202 202
173 173 173
146 146 146
132 132 132
139 139 139
147 147 147
149 149 149
178 178 178
206 206 206
229 229 229
230 230 230
206 206 206
178 178 178
150 150 150
146 146 146
164 164 164
176 176 176
177 177 177
168 168 168
179 179 179
202 202 202
215 215 215
209 209 209
189 189 189
169 169 169
159 159 159
142 142 142
138 138 138
147 147 147
149 149 149
142 142 142
130 130 130
157 157 157
182 182 182
202 202 202
156 156 156
184 184 184
208 208 208
223 223 223
215 215 215
192 192 192
165 165 165
155 155 155
159 159 159
153 153 153
154 154 154
182 182 182
207 207 207
224 224 224
218 218 218
195 195 195
178 178 178
168 168 168
150 150 150
139 139 139
145 145 145
146 146 146
173 173 173
199 199 199
218 218 218
218 218 218
199 199 199
174 174 174
146 146 146
159 159 159
181 181 181
195 195 195
197 197 197
185 185 185
165 165 165
178 178 178
186 186 186
182 182 182
168 168 168
159 159 159
150 150 150
134 134 134
151 151 151
161 161 161
163 163 163
156 156 156
141 141 141
145 145 145
167 167 167
182 182 182
172 172 172
173 173 173
193 193 193
203 203 203
197 197 197
180 180 180
156 156 156
165 165 165
168 168 168
162 162 162
148 148 148
166 166 166
186 186 186
196 196 196
193 193 193
195 195 195
196 196 196
183 183 183
163 163 163
166 166 166
174 174 174
172 172 172
160 160 160
180 180 180
193 193 193
193 193 193
180 180 180
160 160 160
138 138 138
164 164 164
188 188 188
205 205 205
207 207 207
193 193 193
171 171 171
150 150 150
156 156 156
154 154 154
143 143 143
142 142 142
135 135 135
139 139 139
157 157 157
168 168 168
169 169 169
161 161 161
146 146 146
131 131 131
147 147 147
164 164 164
196 196 196
194 194 194
179 179 179
177 177 177
173 173 173
160 160 160
153 153 153
165 165 165
169 169 169
165 165 165
169 169 169
163 163 163
160 160 160
167 167 167
186 186 186
201 201 201
202 202 202
189 189 189
169 169 169
190 190 190
202 202 202
199 199 199
182 182 182
181 181 181
189 189 189
184 184 184
169 169 169
148 148 148
135 135 135
160 160 160
183 183 183
198 198 198
200 200 200
187 187 187
167 167 167
143 143 143
127 127 127
141 141 141
156 156 156
163 163 163
162 162 162
151 151 151
154 154 154
164 164 164
166 166 166
158 158 158
143 143 143
140 140 140
165 165 165
185 185 185
213 213 213
210 210 210
191 191 191
166 166 166
146 146 146
150 150 150
148 148 148
156 156 156
169 169 169
185 185 185
190 190 190
182 182 182
165 165 165
158 158 158
179 179 179
193 193 193
193 193 193
181 181 181
182 182 182
208 208 208
227 227 227
221 221 221
198 198 198
194 194 194
204 204 204
198 198 198
180 180 180
156 156 156
137 137 137
148 148 148
167 167 167
179 179 179
182 182 182
174 174 174
157 157 157
136 136 136
137 137 137
160 160 160
178 178 178
188 188 188
186 186 186
172 172 172
152 152 152
152 152 152
153 153 153
147 147 147
133 133 133
148 148 148
174 174 174
198 198 198
212 212 212
209 209 209
190 190 190
166 166 166
161 161 161
167 167 167
164 164 164
154 154 154
178 178 178
196 196 196
202 202 202
193 193 193
173 173 173
149 149 149
163 163 163
173 173 173
174 174 174
170 170 170
184 184 184
211 211 211
232 232 232
226 226 226
201 201 201
194 194 194
204 204 204
198 198 198
180 180 180
156 156 156
142 142 142
145 145 145
156 156 156
173 173 173
182 182 182
179 179 179
166 166 166
146 146 146
147 147 147
172 172 172
195 195 195
208 208 208
204 204 204
187 187 187
163 163 163
137 137 137
142 142 142
145 145 145
140 140 140
147 147 147
174 174 174
197 197 197
194 194 194
192 192 192
177 177 177
156 156 156
169 169 169
176 176 176
173 173 173
160 160 160
176 176 176
193 193 193
199 199 199
190 190 190
171 171 171
148 148 148
161 161 161
181 181 181
193 193 193
192 192 192
178 178 178
197 197 197
210 210 210
207 207 207
189 189 189
181 181 181
189 189 189
185 185 185
177 177 177
169 169 169
153 153 153
145 145 145
169 169 169
189 189 189
200 200 200
197 197 197
180 180 180
157 157 157
149 149 149
175 175 175
199 199 199
213 213 213
209 209 209
190 190 190
166 166 166
157 157 157
170 170 170
174 174 174
167 167 167
152 152 152
163 163 163
183 183 183
169 169 169
168 168 168
157 157 157
152 152 152
167 167 167
174 174 174
171 171 171
159 159 159
164 164 164
178 178 178
183 183 183
176 176 176
160 160 160
144 144 144
170 170 170
192 192 192
207 207 207
205 205 205
189 189 189
174 174 174
183 183 183
181 181 181
168 168 168
161 161 161
172 172 172
187 187 187
190 190 190
181 181 181
165 165 165
148 148 148
173 173 173
194 194 194
206 206 206
202 202 202
184 184 184
161 161 161
156 156 156
168 168 168
188 188 188
200 200 200
197 197 197
181 181 181
172 172 172
178 178 178
196 196 196
202 202 202
193 193 193
173 173 173
165 165 165
161 161 161
143 143 143
141 141 141
133 133 133
143 143 143
157 157 157
163 163 163
160 160 160
149 149 149
145 145 145
156 156 156
161 161 161
166 166 166
162 162 162
149 149 149
169 169 169
191 191 191
205 205 205
203 203 203
187 187 187
164 164 164
154 154 154
153 153 153
143 143 143
152 152 152
173 173 173
187 187 187
195 195 195
196 196 196
184 184 184
164 164 164
166 166 166
185 185 185
195 195 195
192 192 192
177 177 177
171 171 171
166 166 166
153 153 153
168 168 168
177 177 177
175 175 175
171 171 171
184 184 184
193 193 193
217 217 217
227 227 227
212 212 212
188 188 188
184 184 184
169 169 169
115 115 115
120 120 120
132 132 132
137 137 137
139 139 139
154 154 154
164 164 164
164 164 164
156 156 156
161 161 161
177 177 177
183 183 183
178 178 178
163 163 163
173 173 173
188 188 188
192 192 192
187 187 187
174 174 174
154 154 154
130 130 130
124 124 124
121 121 121
144 144 144
166 166 166
190 190 190
207 207 207
209 209 209
194 194 194
172 172 172
151 151 151
167 167 167
175 175 175
172 172 172
168 168 168
173 173 173
168 168 168
155 155 155
144 144 144
151 151 151
152 152 152
172 172 172
185 185 185
195 195 195
221 221 221
233 233 233
215 215 215
199 199 199
194 194 194
178 178 178
113 113 113
121 121 121
125 125 125
139 139 139
159 159 159
179 179 179
193 193 193
193 193 193
181 181 181
166 166 166
183 183 183
190 190 190
185 185 185
169 169 169
192 192 192
213 213 213
220 220 220
206 206 206
181 181 181
154 154 154
146 146 146
147 147 147
141 141 141
138 138 138
163 163 163
187 187 187
203 203 203
205 205 205
191 191 191
169 169 169
144 144 144
144 144 144
162 162 162
175 175 175
178 178 178
170 170 170
160 160 160
148 148 148
129 129 129
143 143 143
158 158 158
166 166 166
174 174 174
184 184 184
204 204 204
211 211 211
200 200 200
195 195 195
191 191 191
175 175 175
126 126 126
134 134 134
143 143 143
163 163 163
177 177 177
200 200 200
220 220 220
221 221 221
202 202 202
176 176 176
178 178 178
185 185 185
180 180 180
175 175 175
201 201 201
229 229 229
243 243 243
218 218 218
189 189 189
160 160 160
166 166 166
168 168 168
160 160 160
144 144 144
152 152 152
172 172 172
185 185 185
186 186 186
176 176 176
157 157 157
134 134 134
142 142 142
162 162 162
174 174 174
177 177 177
170 170 170
154 154 154
134 134 134
139 139 139
163 163 163
182 182 182
193 193 193
190 190 190
176 176 176
179 179 179
183 183 183
176 176 176
179 179 179
179 179 179
180 180 180
133 133 133
142 142 142
160 160 160
184 184 184
203 203 203
210 210 210
237 237 237
239 239 239
211 211 211
182 182 182
163 163 163
169 169 169
165 165 165
179 179 179
208 208 208
233 233 233
233 233 233
209 209 209
184 184 184
168 168 168
180 180 180
182 182 182
173 173 173
155 155 155
148 148 148
165 165 165
175 175 175
175 175 175
164 164 164
146 146 146
144 144 144
141 141 141
152 152 152
164 164 164
166 166 166
159 159 159
145 145 145
125 125 125
149 149 149
176 176 176
200 200 200
215 215 215
211 211 211
192 192 192
167 167 167
154 154 154
151 151 151
167 167 167
179 179 179
179 179 179
133 133 133
142 142 142
169 169 169
197 197 197
223 223 223
235 235 235
221 221 221
222 222 222
202 202 202
176 176 176
163 163 163
165 165 165
157 157 157
172 172 172
197 197 197
215 215 215
215 215 215
197 197 197
172 172 172
171 171 171
184 184 184
186 186 186
176 176 176
158 158 158
153 153 153
171 171 171
182 182 182
181 181 181
170 170 170
163 163 163
154 154 154
143 143 143
136 136 136
146 146 146
148 148 148
142 142 142
130 130 130
124 124 124
152 152 152
180 180 180
205 205 205
222 222 222
218 218 218
196 196 196
170 170 170
142 142 142
141 141 141
158 158 158
168 168 168
168 168 168
131 131 131
140 140 140
168 168 168
196 196 196
222 222 222
232 232 232
214 214 214
194 194 194
182 182 182
164 164 164
176 176 176
178 178 178
169 169 169
156 156 156
176 176 176
188 188 188
189 189 189
180 180 180
162 162 162
164 164 164
176 176 176
178 178 178
169 169 169
152 152 152
151 151 151
172 172 172
187 187 187
191 191 191
182 182 182
182 182 182
171 171 171
152 152 152
135 135 135
127 127 127
125 125 125
121 121 121
110 110 110
127 127 127
146 146 146
172 172 172
194 194 194
207 207 207
204 204 204
187 187 187
163 163 163
154 154 154
145 145 145
141 141 141
150 150 150
150 150 150
151 151 151
150 150 150
158 158 158
182 182 182
201 201 201
206 206 206
195 195 195
175 175 175
157 157 157
167 167 167
179 179 179
181 181 181
172 172 172
166 166 166
167 167 167
181 181 181
185 185 185
176 176 176
159 159 159
151 151 151
159 159 159
161 161 161
153 153 153
147 147 147
154 154 154
176 176 176
192 192 192
196 196 196
191 191 191
191 191 191
178 178 178
158 158 158
140 140 140
132 132 132
117 117 117
99 99 99
124 124 124
148 148 148
168 168 168
182 182 182
185 185 185
182 182 182
180 180 180
168 168 168
160 160 160
160 160 160
151 151 151
135 135 135
129 129 129
143 143 143
165 165 165
164 164 164
167 167 167
183 183 183
188 188 188
182 182 182
171 171 171
157 157 157
156 156 156
165 165 165
171 171 171
177 177 177
192 192 192
195 195 195
184 184 184
167 167 167
170 170 170
163 163 163
148 148 148
142 142 142
143 143 143
139 139 139
139 139 139
136 136 136
149 149 149
169 169 169
184 184 184
188 188 188
188 188 188
188 188 188
175 175 175
156 156 156
138 138 138
129 129 129
121 121 121
115 115 115
137 137 137
164 164 164
188 188 188
207 207 207
212 212 212
199 199 199
176 176 176
150 150 150
158 158 158
157 157 157
149 149 149
147 147 147
144 144 144
157 157 157
171 171 171
170 170 170
181 181 181
201 201 201
210 210 210
200 200 200
190 190 190
180 180 180
166 166 166
170 170 170
170 170 170
196 196 196
217 217 217
222 222 222
204 204 204
179 179 179
152 152 152
143 143 143
132 132 132
126 126 126
127 127 127
121 121 121
121 121 121
118 118 118
136 136 136
154 154 154
166 166 166
169 169 169
173 173 173
180 180 180
179 179 179
167 167 167
148 148 148
137 137 137
137 137 137
133 133 133
145 145 145
171 171 171
200 200 200
226 226 226
234 234 234
213 213 213
186 186 186
157 157 157
147 147 147
148 148 148
163 163 163
170 170 170
166 166 166
162 162 162
175 175 175
173 173 173
185 185 185
207 207 207
217 217 217
209 209 209
212 212 212
198 198 198
187 187 187
192 192 192
184 184 184
203 203 203
229 229 229
237 237 237
213 213 213
185 185 185
156 156 156
155 155 155
156 156 156
148 148 148
134 134 134
126 126 126
121 121 121
110 110 110
118 118 118
134 134 134
143 143 143
169 169 169
191 191 191
205 205 205
203 203 203
187 187 187
164 164 164
147 147 147
147 147 147
158 158 158
172 172 172
178 178 178
196 196 196
220 220 220
227 227 227
209 209 209
183 183 183
155 155 155
139 139 139
161 161 161
178 178 178
186 186 186
182 182 182
168 168 168
203 203 203
199 199 199
183 183 183
197 197 197
204 204 204
216 216 216
220 220 220
204 204 204
199 199 199
205 205 205
195 195 195
194 194 194
215 215 215
219 219 219
202 202 202
178 178 178
164 164 164
176 176 176
177 177 177
167 167 167
150 150 150
131 131 131
125 125 125
114 114 114
109 109 109
121 121 121
150 150 150
177 177 177
203 203 203
221 221 221
218 218 218
197 197 197
171 171 171
150 150 150
154 154 154
179 179 179
199 199 199
207 207 207
199 199 199
197 197 197
201 201 201
190 190 190
170 170 170
145 145 145
143 143 143
166 166 166
184 184 184
193 193 193
188 188 188
192 192 192
228 228 228
221 221 221
198 198 198
176 176 176
186 186 186
203 203 203
207 207 207
194 194 194
197 197 197
203 203 203
193 193 193
175 175 175
189 189 189
191 191 191
181 181 181
162 162 162
176 176 176
189 189 189
190 190 190
179 179 179
160 160 160
136 136 136
124 124 124
112 112 112
99 99 99
120 120 120
148 148 148
175 175 175
199 199 199
215 215 215
213 213 213
194 194 194
169 169 169
144 144 144
164 164 164
192 192 192
219 219 219
235 235 235
219 219 219
194 194 194
176 176 176
165 165 165
149 149 149
129 129 129
139 139 139
161 161 161
178 178 178
186 186 186
185 185 185
210 210 210
232 232 232
225 225 225
199 199 199
171 171 171
168 168 168
181 181 181
183 183 183
174 174 174
182 182 182
186 186 186
179 179 179
162 162 162
161 161 161
163 163 163
155 155 155
156 156 156
177 177 177
191 191 191
192 192 192
181 181 181
161 161 161
149 149 149
141 141 141
126 126 126
118 118 118
127 127 127
138 138 138
162 162 162
182 182 182
194 194 194
192 192 192
178 178 178
157 157 157
136 136 136
165 165 165
194 194 194
221 221 221
239 239 239
229 229 229
218 218 218
193 193 193
166 166 166
137 137 137
134 134 134
150 150 150
167 167 167
188 188 188
201 201 201
199 199 199
212 212 212
209 209 209
205 205 205
188 188 188
170 170 170
146 146 146
154 154 154
156 156 156
150 150 150
160 160 160
163 163 163
157 157 157
144 144 144
147 147 147
163 163 163
172 172 172
171 171 171
168 168 168
180 180 180
181 181 181
171 171 171
163 163 163
162 162 162
152 152 152
136 136 136
132 132 132
142 142 142
145 145 145
143 143 143
159 159 159
167 167 167
166 166 166
156 156 156
139 139 139
129 129 129
156 156 156
182 182 182
203 203 203
221 221 221
249 249 249
228 228 228
199 199 199
170 170 170
140 140 140
155 155 155
175 175 175
187 187 187
189 189 189
202 202 202
200 200 200
197 197 197
216 216 216
226 226 226
211 211 211
186 186 186
159 159 159
143 143 143
131 131 131
127 127 127
134 134 134
137 137 137
132 132 132
135 135 135
158 158 158
177 177 177
188 188 188
186 186 186
173 173 173
160 160 160
161 161 161
158 158 158
166 166 166
166 166 166
155 155 155
147 147 147
144 144 144
151 151 151
154 154 154
149 149 149
136 136 136
140 140 140
139 139 139
131 131 131
117 117 117
131 131 131
142 142 142
162 162 162
184 184 184
208 208 208
221 221 221
212 212 212
190 190 190
168 168 168
165 165 165
170 170 170
195 195 195
214 214 214
215 215 215
198 198 198
187 187 187
192 192 192
227 227 227
244 244 244
220 220 220
191 191 191
168 168 168
150 150 150
140 140 140
142 142 142
136 136 136
123 123 123
111 111 111
137 137 137
161 161 161
181 181 181
192 192 192
190 190 190
177 177 177
156 156 156
139 139 139
153 153 153
161 161 161
160 160 160
153 153 153
160 160 160
157 157 157
152 152 152
155 155 155
153 153 153
148 148 148
136 136 136
118 118 118
119 119 119
131 131 131
141 141 141
153 153 153
157 157 157
166 166 166
184 184 184
192 192 192
187 187 187
186 186 186
196 196 196
192 192 192
177 177 177
206 206 206
232 232 232
235 235 235
210 210 210
181 181 181
198 198 198
212 212 212
221 221 221
208 208 208
184 184 184
166 166 166
149 149 149
150 150 150
152 152 152
145 145 145
132 132 132
117 117 117
132 132 132
155 155 155
173 173 173
183 183 183
182 182 182
169 169 169
150 150 150
138 138 138
146 146 146
147 147 147
146 146 146
158 158 158
164 164 164
162 162 162
158 158 158
171 171 171
175 175 175
169 169 169
154 154 154
133 133 133
137 137 137
150 150 150
157 157 157
156 156 156
160 160 160
155 155 155
157 157 157
162 162 162
182 182 182
207 207 207
222 222 222
216 216 216
193 193 193
200 200 200
221 221 221
223 223 223
203 203 203
177 177 177
190 190 190
187 187 187
192 192 192
184 184 184
167 167 167
156 156 156
143 143 143
152 152 152
154 154 154
147 147 147
138 138 138
145 145 145
148 148 148
162 162 162
180 180 180
189 189 189
185 185 185
170 170 170
149 149 149
130 130 130
145 145 145
159 159 159
165 165 165
162 162 162
160 160 160
157 157 157
170 170 170
186 186 186
191 191 191
183 183 183
166 166 166
143 143 143
148 148 148
164 164 164
172 172 172
170 170 170
158 158 158
150 150 150
138 138 138
158 158 158
186 186 186
214 214 214
235 235 235
225 225 225
199 199 199
182 182 182
196 196 196
197 197 197
184 184 184
171 171 171
171 171 171
160 160 160
163 163 163
157 157 157
149 149 149
161 161 161
164 164 164
158 158 158
162 162 162
161 161 161
158 158 158
171 171 171
175 175 175
169 169 169
185 185 185
194 194 194
190 190 190
175 175 175
153 153 153
141 141 141
163 163 163
180 180 180
188 188 188
183 183 183
168 168 168
151 151 151
173 173 173
190 190 190
195 195 195
187 187 187
169 169 169
145 145 145
153 153 153
170 170 170
178 178 178
176 176 176
163 163 163
150 150 150
151 151 151
152 152 152
179 179 179
202 202 202
216 216 216
210 210 210
194 194 194
194 194 194
181 181 181
175 175 175
183 183 183
180 180 180
167 167 167
131 131 131
134 134 134
151 151 151
173 173 173
189 189 189
193 193 193
184 184 184
170 170 170
168 168 168
178 178 178
195 195 195
201 201 201
192 192 192
178 178 178
186 186 186
183 183 183
168 168 168
148 148 148
150 150 150
174 174 174
194 194 194
204 204 204
198 198 198
180 180 180
157 157 157
166 166 166
181 181 181
186 186 186
178 178 178
162 162 162
140 140 140
149 149 149
165 165 165
173 173 173
171 171 171
159 159 159
169 169 169
169 169 169
160 160 160
162 162 162
180 180 180
189 189 189
200 200 200
218 218 218
218 218 218
199 199 199
173 173 173
181 181 181
178 178 178
165 165 165
109 109 109
137 137 137
165 165 165
192 192 192
214 214 214
222 222 222
208 208 208
183 183 183
166 166 166
190 190 190
212 212 212
220 220 220
207 207 207
183 183 183
168 168 168
165 165 165
154 154 154
136 136 136
150 150 150
175 175 175
195 195 195
207 207 207
210 210 210
197 197 197
174 174 174
151 151 151
163 163 163
167 167 167
161 161 161
147 147 147
128 128 128
143 143 143
158 158 158
166 166 166
165 165 165
168 168 168
179 179 179
180 180 180
169 169 169
151 151 151
154 154 154
178 178 178
205 205 205
227 227 227
227 227 227
204 204 204
177 177 177
168 168 168
165 165 165
154 154 154
112 112 112
142 142 142
171 171 171
200 200 200
230 230 230
248 248 248
220 220 220
190 190 190
163 163 163
189 189 189
211 211 211
220 220 220
207 207 207
183 183 183
156 156 156
143 143 143
133 133 133
127 127 127
143 143 143
172 172 172
200 200 200
225 225 225
232 232 232
211 211 211
184 184 184
165 165 165
158 158 158
144 144 144
139 139 139
127 127 127
126 126 126
147 147 147
163 163 163
172 172 172
170 170 170
168 168 168
179 179 179
180 180 180
169 169 169
151 151 151
144 144 144
170 170 170
194 194 194
211 211 211
210 210 210
194 194 194
170 170 170
148 148 148
148 148 148
141 141 141
110 110 110
138 138 138
167 167 167
194 194 194
218 218 218
226 226 226
210 210 210
185 185 185
157 157 157
177 177 177
194 194 194
200 200 200
191 191 191
171 171 171
147 147 147
131 131 131
132 132 132
132 132 132
147 147 147
170 170 170
197 197 197
220 220 220
225 225 225
207 207 207
181 181 181
172 172 172
164 164 164
148 148 148
128 128 128
119 119 119
138 138 138
153 153 153
160 160 160
167 167 167
166 166 166
159 159 159
168 168 168
169 169 169
159 159 159
143 143 143
134 134 134
156 156 156
174 174 174
185 185 185
185 185 185
173 173 173
158 158 158
168 168 168
168 168 168
159 159 159
110 110 110
128 128 128
154 154 154
176 176 176
192 192 192
197 197 197
188 188 188
169 169 169
145 145 145
157 157 157
170 170 170
174 174 174
167 167 167
152 152 152
141 141 141
130 130 130
132 132 132
130 130 130
145 145 145
159 159 159
181 181 181
197 197 197
201 201 201
189 189 189
169 169 169
168 168 168
160 160 160
145 145 145
129 129 129
137 137 137
156 156 156
174 174 174
183 183 183
181 181 181
168 168 168
154 154 154
152 152 152
150 150 150
143 143 143
128 128 128
145 145 145
170 170 170
192 192 192
204 204 204
202 202 202
185 185 185
169 169 169
180 180 180
180 180 180
170 170 170
113 113 113
113 113 113
134 134 134
153 153 153
165 165 165
168 168 168
161 161 161
169 169 169
173 173 173
167 167 167
155 155 155
172 172 172
180 180 180
177 177 177
164 164 164
149 149 149
154 154 154
151 151 151
165 165 165
174 174 174
172 172 172
170 170 170
173 173 173
165 165 165
156 156 156
155 155 155
148 148 148
135 135 135
140 140 140
148 148 148
168 168 168
188 188 188
200 200 200
198 198 198
182 182 182
173 173 173
170 170 170
157 157 157
138 138 138
132 132 132
148 148 148
174 174 174
198 198 198
212 212 212
209 209 209
191 191 191
171 171 171
182 182 182
183 183 183
172 172 172
110 110 110
110 110 110
119 119 119
136 136 136
149 149 149
154 154 154
178 178 178
196 196 196
202 202 202
193 193 193
174 174 174
193 193 193
204 204 204
200 200 200
183 183 183
172 172 172
179 179 179
174 174 174
189 189 189
202 202 202
200 200 200
184 184 184
161 161 161
160 160 160
162 162 162
155 155 155
141 141 141
128 128 128
144 144 144
153 153 153
170 170 170
191 191 191
204 204 204
201 201 201
185 185 185
183 183 183
180 180 180
166 166 166
145 145 145
141 141 141
163 163 163
178 178 178
190 190 190
202 202 202
199 199 199
183 183 183
163 163 163
173 173 173
173 173 173
163 163 163
125 125 125
127 127 127
124 124 124
123 123 123
137 137 137
166 166 166
194 194 194
219 219 219
231 231 231
215 215 215
189 189 189
204 204 204
219 219 219
214 214 214
192 192 192
190 190 190
198 198 198
192 192 192
208 208 208
229 229 229
224 224 224
201 201 201
173 173 173
157 157 157
159 159 159
152 152 152
138 138 138
125 125 125
140 140 140
152 152 152
165 165 165
181 181 181
192 192 192
190 190 190
176 176 176
182 182 182
179 179 179
165 165 165
145 145 145
148 148 148
171 171 171
189 189 189
196 196 196
189 189 189
179 179 179
170 170 170
167 167 167
155 155 155
156 156 156
147 147 147
139 139 139
142 142 142
138 138 138
127 127 127
139 139 139
168 168 168
198 198 198
226 226 226
245 245 245
221 221 221
192 192 192
200 200 200
214 214 214
208 208 208
189 189 189
197 197 197
206 206 206
200 200 200
212 212 212
236 236 236
231 231 231
204 204 204
176 176 176
146 146 146
147 147 147
141 141 141
128 128 128
117 117 117
141 141 141
162 162 162
176 176 176
181 181 181
174 174 174
169 169 169
163 163 163
170 170 170
167 167 167
155 155 155
159 159 159
173 173 173
177 177 177
187 187 187
194 194 194
187 187 187
176 176 176
184 184 184
179 179 179
165 165 165
144 144 144
129 129 129
147 147 147
150 150 150
146 146 146
134 134 134
134 134 134
161 161 161
187 187 187
209 209 209
217 217 217
205 205 205
183 183 183
183 183 183
192 192 192
189 189 189
181 181 181
189 189 189
198 198 198
192 192 192
198 198 198
213 213 213
210 210 210
192 192 192
167 167 167
140 140 140
130 130 130
124 124 124
124 124 124
120 120 120
141 141 141
162 162 162
176 176 176
181 181 181
175 175 175
159 159 159
145 145 145
151 151 151
148 148 148
156 156 156
180 180 180
199 199 199
205 205 205
195 195 195
180 180 180
174 174 174
178 178 178
186 186 186
181 181 181
167 167 167
146 146 146
136 136 136
147 147 147
151 151 151
146 146 146
134 134 134
133 133 133
158 158 158
181 181 181
196 196 196
199 199 199
188 188 188
167 167 167
159 159 159
166 166 166
180 180 180
203 203 203
215 215 215
207 207 207
187 187 187
175 175 175
185 185 185
183 183 183
171 171 171
151 151 151
142 142 142
146 146 146
143 143 143
132 132 132
124 124 124
134 134 134
153 153 153
166 166 166
171 171 171
165 165 165
151 151 151
138 138 138
130 130 130
137 137 137
166 166 166
194 194 194
219 219 219
230 230 230
214 214 214
188 188 188
160 160 160
170 170 170
176 176 176
172 172 172
159 159 159
139 139 139
136 136 136
