P3
50 50
255
116 116 116
134 134 134
147 147 147
152 152 152
150 150 150
148 148 148
165 165 165
175 175 175
174 174 174
163 163 163
152 152 152
172 172 172
185 185 185
187 187 187
182 182 182
190 190 190
185 185 185
170 170 170
148 148 148
124 124 124
98 98 98
115 115 115
131 131 131
143 143 143
147 147 147
144 144 144
133 133 133
126 126 126
143 143 143
155 155 155
158 158 158
152 152 152
158 158 158
165 165 165
163 163 163
157 157 157
177 177 177
189 189 189
190 190 190
178 178 178
158 158 158
154 154 154
146 146 146
131 131 131
112 112 112
106 106 106
116 116 116
120 120 120
118 118 118
110 110 110
133 133 133
154 154 154
170 170 170
177 177 177
173 173 173
161 161 161
180 180 180
192 192 192
191 191 191
178 178 178
167 167 167
192 192 192
211 211 211
215 215 215
199 199 199
185 185 185
180 180 180
166 166 166
145 145 145
121 121 121
109 109 109
129 129 129
148 148 148
161 161 161
166 166 166
162 162 162
149 149 149
142 142 142
162 162 162
176 176 176
180 180 180
173 173 173
173 173 173
182 182 182
179 179 179
168 168 168
192 192 192
208 208 208
209 209 209
193 193 193
181 181 181
182 182 182
171 171 171
152 152 152
130 130 130
131 131 131
144 144 144
150 150 150
147 147 147
137 137 137
145 145 145
168 168 168
187 187 187
196 196 196
191 191 191
175 175 175
185 185 185
198 198 198
197 197 197
183 183 183
175 175 175
203 203 203
230 230 230
236 236 236
212 212 212
184 184 184
165 165 165
153 153 153
141 141 141
141 141 141
133 133 133
137 137 137
157 157 157
172 172 172
178 178 178
173 173 173
159 159 159
152 152 152
174 174 174
190 190 190
195 195 195
186 186 186
180 180 180
190 190 190
187 187 187
172 172 172
195 195 195
212 212 212
213 213 213
196 196 196
206 206 206
207 207 207
192 192 192
169 169 169
143 143 143
155 155 155
171 171 171
179 179 179
175 175 175
162 162 162
149 149 149
174 174 174
194 194 194
205 205 205
199 199 199
181 181 181
178 178 178
190 190 190
189 189 189
176 176 176
172 172 172
199 199 199
222 222 222
226 226 226
207 207 207
180 180 180
152 152 152
161 161 161
170 170 170
169 169 169
158 158 158
154 154 154
166 166 166
174 174 174
180 180 180
175 175 175
160 160 160
162 162 162
176 176 176
193 193 193
198 198 198
189 189 189
175 175 175
184 184 184
190 190 190
185 185 185
184 184 184
198 198 198
199 199 199
202 202 202
223 223 223
223 223 223
203 203 203
177 177 177
149 149 149
174 174 174
196 196 196
207 207 207
202 202 202
184 184 184
145 145 145
169 169 169
188 188 188
197 197 197
192 192 192
176 176 176
166 166 166
171 171 171
170 170 170
160 160 160
160 160 160
182 182 182
197 197 197
199 199 199
187 187 187
167 167 167
164 164 164
185 185 185
197 197 197
196 196 196
181 181 181
175 175 175
191 191 191
194 194 194
184 184 184
166 166 166
174 174 174
188 188 188
190 190 190
182 182 182
187 187 187
179 179 179
179 179 179
201 201 201
213 213 213
206 206 206
186 186 186
175 175 175
175 175 175
198 198 198
217 217 217
217 217 217
199 199 199
174 174 174
158 158 158
186 186 186
214 214 214
233 233 233
224 224 224
198 198 198
145 145 145
160 160 160
171 171 171
178 178 178
174 174 174
168 168 168
176 176 176
173 173 173
160 160 160
141 141 141
141 141 141
158 158 158
169 169 169
171 171 171
165 165 165
157 157 157
177 177 177
203 203 203
221 221 221
219 219 219
198 198 198
190 190 190
209 209 209
214 214 214
200 200 200
177 177 177
190 190 190
209 209 209
212 212 212
198 198 198
174 174 174
160 160 160
183 183 183
208 208 208
223 223 223
214 214 214
192 192 192
165 165 165
161 161 161
181 181 181
195 195 195
195 195 195
182 182 182
167 167 167
161 161 161
187 187 187
214 214 214
235 235 235
224 224 224
198 198 198
148 148 148
164 164 164
173 173 173
171 171 171
168 168 168
168 168 168
175 175 175
172 172 172
160 160 160
141 141 141
118 118 118
132 132 132
141 141 141
145 145 145
147 147 147
151 151 151
180 180 180
207 207 207
229 229 229
226 226 226
202 202 202
192 192 192
212 212 212
218 218 218
203 203 203
179 179 179
195 195 195
216 216 216
221 221 221
204 204 204
179 179 179
167 167 167
177 177 177
198 198 198
209 209 209
203 203 203
184 184 184
164 164 164
173 173 173
171 171 171
168 168 168
168 168 168
183 183 183
187 187 187
178 178 178
182 182 182
203 203 203
211 211 211
204 204 204
185 185 185
143 143 143
158 158 158
166 166 166
165 165 165
170 170 170
167 167 167
165 165 165
162 162 162
151 151 151
145 145 145
134 134 134
132 132 132
148 148 148
158 158 158
158 158 158
165 165 165
174 174 174
195 195 195
210 210 210
208 208 208
191 191 191
181 181 181
198 198 198
202 202 202
190 190 190
178 178 178
187 187 187
204 204 204
207 207 207
194 194 194
190 190 190
188 188 188
174 174 174
177 177 177
185 185 185
181 181 181
167 167 167
166 166 166
179 179 179
190 190 190
190 190 190
177 177 177
193 193 193
197 197 197
188 188 188
181 181 181
201 201 201
209 209 209
200 200 200
179 179 179
131 131 131
145 145 145
152 152 152
157 157 157
163 163 163
160 160 160
153 153 153
167 167 167
173 173 173
168 168 168
154 154 154
143 143 143
161 161 161
171 171 171
173 173 173
175 175 175
185 185 185
184 184 184
184 184 184
183 183 183
171 171 171
162 162 162
175 175 175
177 177 177
169 169 169
175 175 175
180 180 180
181 181 181
183 183 183
189 189 189
202 202 202
200 200 200
184 184 184
161 161 161
158 158 158
155 155 155
152 152 152
168 168 168
191 191 191
206 206 206
205 205 205
189 189 189
189 189 189
193 193 193
184 184 184
169 169 169
186 186 186
191 191 191
184 184 184
169 169 169
121 121 121
139 139 139
153 153 153
158 158 158
155 155 155
145 145 145
168 168 168
185 185 185
192 192 192
186 186 186
169 169 169
147 147 147
165 165 165
176 176 176
177 177 177
174 174 174
184 184 184
183 183 183
170 170 170
157 157 157
154 154 154
142 142 142
148 148 148
153 153 153
162 162 162
162 162 162
166 166 166
162 162 162
166 166 166
187 187 187
199 199 199
197 197 197
182 182 182
160 160 160
142 142 142
156 156 156
162 162 162
168 168 168
191 191 191
206 206 206
205 205 205
189 189 189
174 174 174
178 178 178
170 170 170
154 154 154
163 163 163
167 167 167
170 170 170
187 187 187
135 135 135
156 156 156
172 172 172
179 179 179
175 175 175
162 162 162
174 174 174
192 192 192
200 200 200
193 193 193
175 175 175
152 152 152
162 162 162
170 170 170
171 171 171
163 163 163
172 172 172
171 171 171
162 162 162
169 169 169
165 165 165
153 153 153
149 149 149
167 167 167
178 178 178
187 187 187
186 186 186
174 174 174
155 155 155
173 173 173
183 183 183
182 182 182
169 169 169
150 150 150
143 143 143
157 157 157
164 164 164
161 161 161
178 178 178
190 190 190
190 190 190
177 177 177
157 157 157
156 156 156
160 160 160
161 161 161
153 153 153
153 153 153
177 177 177
195 195 195
142 142 142
165 165 165
183 183 183
192 192 192
188 188 188
172 172 172
169 169 169
186 186 186
194 194 194
187 187 187
170 170 170
151 151 151
167 167 167
175 175 175
172 172 172
160 160 160
153 153 153
151 151 151
165 165 165
171 171 171
167 167 167
155 155 155
154 154 154
173 173 173
197 197 197
214 214 214
212 212 212
194 194 194
169 169 169
158 158 158
162 162 162
170 170 170
173 173 173
166 166 166
151 151 151
150 150 150
156 156 156
156 156 156
158 158 158
167 167 167
167 167 167
157 157 157
153 153 153
173 173 173
185 185 185
186 186 186
176 176 176
157 157 157
172 172 172
190 190 190
143 143 143
166 166 166
184 184 184
193 193 193
188 188 188
172 172 172
156 156 156
170 170 170
176 176 176
171 171 171
157 157 157
147 147 147
163 163 163
170 170 170
173 173 173
181 181 181
178 178 178
165 165 165
158 158 158
164 164 164
160 160 160
148 148 148
152 152 152
180 180 180
208 208 208
231 231 231
229 229 229
204 204 204
176 176 176
159 159 159
178 178 178
195 195 195
199 199 199
189 189 189
170 170 170
157 157 157
172 172 172
178 178 178
173 173 173
159 159 159
141 141 141
139 139 139
166 166 166
189 189 189
205 205 205
207 207 207
192 192 192
170 170 170
162 162 162
173 173 173
135 135 135
157 157 157
173 173 173
180 180 180
176 176 176
163 163 163
146 146 146
148 148 148
152 152 152
149 149 149
137 137 137
136 136 136
150 150 150
172 172 172
193 193 193
204 204 204
200 200 200
183 183 183
160 160 160
149 149 149
149 149 149
147 147 147
149 149 149
176 176 176
202 202 202
221 221 221
219 219 219
199 199 199
173 173 173
165 165 165
192 192 192
213 213 213
220 220 220
206 206 206
181 181 181
169 169 169
186 186 186
194 194 194
188 188 188
171 171 171
149 149 149
142 142 142
169 169 169
194 194 194
212 212 212
214 214 214
198 198 198
173 173 173
178 178 178
186 186 186
122 122 122
141 141 141
154 154 154
160 160 160
157 157 157
155 155 155
152 152 152
142 142 142
127 127 127
123 123 123
114 114 114
124 124 124
152 152 152
179 179 179
203 203 203
217 217 217
212 212 212
192 192 192
180 180 180
174 174 174
168 168 168
166 166 166
155 155 155
163 163 163
183 183 183
196 196 196
195 195 195
181 181 181
180 180 180
184 184 184
192 192 192
215 215 215
222 222 222
207 207 207
182 182 182
171 171 171
190 190 190
198 198 198
191 191 191
174 174 174
151 151 151
137 137 137
163 163 163
186 186 186
201 201 201
202 202 202
189 189 189
167 167 167
185 185 185
194 194 194
127 127 127
126 126 126
137 137 137
159 159 159
176 176 176
184 184 184
181 181 181
167 167 167
146 146 146
122 122 122
109 109 109
122 122 122
149 149 149
175 175 175
197 197 197
210 210 210
206 206 206
194 194 194
201 201 201
193 193 193
180 180 180
178 178 178
166 166 166
146 146 146
159 159 159
168 168 168
167 167 167
186 186 186
206 206 206
211 211 211
199 199 199
198 198 198
203 203 203
192 192 192
172 172 172
164 164 164
180 180 180
187 187 187
182 182 182
166 166 166
154 154 154
139 139 139
149 149 149
167 167 167
179 179 179
180 180 180
178 178 178
173 173 173
180 180 180
188 188 188
126 126 126
132 132 132
152 152 152
178 178 178
200 200 200
213 213 213
207 207 207
187 187 187
162 162 162
135 135 135
131 131 131
141 141 141
145 145 145
161 161 161
179 179 179
189 189 189
186 186 186
203 203 203
212 212 212
202 202 202
182 182 182
180 180 180
167 167 167
148 148 148
132 132 132
141 141 141
169 169 169
197 197 197
222 222 222
231 231 231
212 212 212
186 186 186
178 178 178
181 181 181
173 173 173
156 156 156
162 162 162
168 168 168
170 170 170
171 171 171
162 162 162
145 145 145
146 146 146
152 152 152
177 177 177
197 197 197
206 206 206
199 199 199
180 180 180
172 172 172
133 133 133
154 154 154
171 171 171
188 188 188
216 216 216
239 239 239
226 226 226
199 199 199
170 170 170
141 141 141
151 151 151
165 165 165
170 170 170
165 165 165
156 156 156
163 163 163
178 178 178
197 197 197
204 204 204
195 195 195
176 176 176
171 171 171
159 159 159
141 141 141
124 124 124
139 139 139
167 167 167
194 194 194
217 217 217
224 224 224
208 208 208
186 186 186
204 204 204
209 209 209
196 196 196
176 176 176
171 171 171
158 158 158
168 168 168
169 169 169
160 160 160
162 162 162
174 174 174
176 176 176
190 190 190
216 216 216
232 232 232
219 219 219
193 193 193
165 165 165
147 147 147
172 172 172
193 193 193
205 205 205
213 213 213
232 232 232
222 222 222
197 197 197
169 169 169
145 145 145
167 167 167
183 183 183
190 190 190
183 183 183
167 167 167
145 145 145
163 163 163
178 178 178
184 184 184
177 177 177
162 162 162
154 154 154
144 144 144
128 128 128
143 143 143
161 161 161
172 172 172
178 178 178
195 195 195
199 199 199
189 189 189
199 199 199
224 224 224
232 232 232
212 212 212
205 205 205
197 197 197
178 178 178
157 157 157
158 158 158
161 161 161
184 184 184
200 200 200
203 203 203
190 190 190
217 217 217
233 233 233
219 219 219
193 193 193
165 165 165
155 155 155
182 182 182
208 208 208
224 224 224
217 217 217
204 204 204
199 199 199
182 182 182
158 158 158
165 165 165
182 182 182
193 193 193
200 200 200
192 192 192
174 174 174
151 151 151
143 143 143
155 155 155
159 159 159
154 154 154
141 141 141
132 132 132
123 123 123
133 133 133
158 158 158
179 179 179
194 194 194
195 195 195
183 183 183
171 171 171
170 170 170
197 197 197
222 222 222
229 229 229
217 217 217
233 233 233
219 219 219
193 193 193
165 165 165
143 143 143
171 171 171
198 198 198
220 220 220
225 225 225
206 206 206
199 199 199
208 208 208
204 204 204
199 199 199
181 181 181
154 154 154
181 181 181
206 206 206
221 221 221
215 215 215
193 193 193
178 178 178
165 165 165
158 158 158
182 182 182
204 204 204
215 215 215
206 206 206
189 189 189
171 171 171
152 152 152
155 155 155
149 149 149
136 136 136
128 128 128
118 118 118
107 107 107
111 111 111
139 139 139
165 165 165
189 189 189
206 206 206
208 208 208
193 193 193
171 171 171
159 159 159
183 183 183
200 200 200
205 205 205
221 221 221
242 242 242
224 224 224
196 196 196
167 167 167
167 167 167
172 172 172
199 199 199
222 222 222
226 226 226
207 207 207
182 182 182
206 206 206
220 220 220
213 213 213
191 191 191
163 163 163
175 175 175
189 189 189
200 200 200
196 196 196
179 179 179
182 182 182
191 191 191
186 186 186
189 189 189
215 215 215
230 230 230
218 218 218
192 192 192
165 165 165
166 166 166
169 169 169
163 163 163
148 148 148
128 128 128
122 122 122
133 133 133
137 137 137
137 137 137
163 163 163
186 186 186
201 201 201
203 203 203
190 190 190
168 168 168
143 143 143
171 171 171
199 199 199
225 225 225
235 235 235
215 215 215
206 206 206
184 184 184
175 175 175
192 192 192
198 198 198
190 190 190
202 202 202
205 205 205
192 192 192
179 179 179
201 201 201
214 214 214
208 208 208
188 188 188
185 185 185
201 201 201
204 204 204
191 191 191
170 170 170
183 183 183
206 206 206
220 220 220
212 212 212
190 190 190
206 206 206
218 218 218
209 209 209
187 187 187
161 161 161
173 173 173
176 176 176
168 168 168
153 153 153
132 132 132
147 147 147
161 161 161
166 166 166
162 162 162
152 152 152
171 171 171
184 184 184
185 185 185
175 175 175
157 157 157
141 141 141
170 170 170
198 198 198
223 223 223
232 232 232
213 213 213
186 186 186
165 165 165
189 189 189
212 212 212
221 221 221
209 209 209
203 203 203
197 197 197
178 178 178
166 166 166
184 184 184
193 193 193
189 189 189
173 173 173
199 199 199
222 222 222
227 227 227
207 207 207
181 181 181
191 191 191
220 220 220
247 247 247
228 228 228
199 199 199
185 185 185
193 193 193
187 187 187
170 170 170
168 168 168
182 182 182
186 186 186
177 177 177
160 160 160
147 147 147
170 170 170
188 188 188
195 195 195
189 189 189
172 172 172
151 151 151
161 161 161
164 164 164
158 158 158
144 144 144
150 150 150
160 160 160
184 184 184
201 201 201
206 206 206
195 195 195
173 173 173
164 164 164
192 192 192
216 216 216
227 227 227
212 212 212
193 193 193
188 188 188
171 171 171
156 156 156
160 160 160
167 167 167
164 164 164
172 172 172
199 199 199
222 222 222
227 227 227
208 208 208
181 181 181
187 187 187
213 213 213
229 229 229
219 219 219
194 194 194
196 196 196
199 199 199
187 187 187
166 166 166
187 187 187
207 207 207
212 212 212
199 199 199
177 177 177
159 159 159
186 186 186
211 211 211
224 224 224
213 213 213
190 190 190
172 172 172
187 187 187
191 191 191
182 182 182
164 164 164
176 176 176
186 186 186
184 184 184
175 175 175
178 178 178
170 170 170
154 154 154
173 173 173
193 193 193
204 204 204
208 208 208
198 198 198
178 178 178
186 186 186
190 190 190
182 182 182
165 165 165
142 142 142
143 143 143
172 172 172
185 185 185
202 202 202
205 205 205
192 192 192
171 171 171
171 171 171
191 191 191
200 200 200
195 195 195
198 198 198
221 221 221
225 225 225
206 206 206
180 180 180
197 197 197
221 221 221
230 230 230
212 212 212
185 185 185
164 164 164
193 193 193
221 221 221
244 244 244
225 225 225
196 196 196
188 188 188
208 208 208
214 214 214
201 201 201
178 178 178
197 197 197
211 211 211
208 208 208
190 190 190
166 166 166
143 143 143
155 155 155
183 183 183
207 207 207
222 222 222
214 214 214
192 192 192
189 189 189
211 211 211
219 219 219
206 206 206
182 182 182
155 155 155
136 136 136
162 162 162
164 164 164
176 176 176
178 178 178
169 169 169
159 159 159
155 155 155
164 164 164
171 171 171
188 188 188
203 203 203
229 229 229
234 234 234
211 211 211
183 183 183
192 192 192
214 214 214
221 221 221
206 206 206
181 181 181
159 159 159
186 186 186
210 210 210
222 222 222
212 212 212
189 189 189
193 193 193
216 216 216
223 223 223
208 208 208
183 183 183
208 208 208
228 228 228
223 223 223
200 200 200
173 173 173
144 144 144
154 154 154
181 181 181
205 205 205
219 219 219
212 212 212
190 190 190
199 199 199
227 227 227
242 242 242
219 219 219
190 190 190
161 161 161
132 132 132
145 145 145
139 139 139
148 148 148
160 160 160
174 174 174
180 180 180
174 174 174
159 159 159
179 179 179
207 207 207
229 229 229
227 227 227
214 214 214
199 199 199
175 175 175
176 176 176
192 192 192
196 196 196
186 186 186
167 167 167
146 146 146
169 169 169
186 186 186
194 194 194
188 188 188
180 180 180
185 185 185
204 204 204
209 209 209
197 197 197
177 177 177
202 202 202
218 218 218
215 215 215
195 195 195
169 169 169
142 142 142
145 145 145
169 169 169
188 188 188
198 198 198
193 193 193
177 177 177
193 193 193
217 217 217
227 227 227
211 211 211
186 186 186
162 162 162
159 159 159
148 148 148
124 124 124
150 150 150
173 173 173
191 191 191
198 198 198
190 190 190
179 179 179
182 182 182
212 212 212
239 239 239
236 236 236
208 208 208
179 179 179
158 158 158
154 154 154
165 165 165
168 168 168
161 161 161
147 147 147
165 165 165
178 178 178
181 181 181
173 173 173
186 186 186
197 197 197
194 194 194
181 181 181
185 185 185
176 176 176
166 166 166
183 183 183
194 194 194
192 192 192
178 178 178
156 156 156
144 144 144
144 144 144
149 149 149
164 164 164
171 171 171
168 168 168
156 156 156
176 176 176
193 193 193
198 198 198
189 189 189
181 181 181
190 190 190
185 185 185
170 170 170
127 127 127
153 153 153
177 177 177
196 196 196
203 203 203
200 200 200
206 206 206
195 195 195
198 198 198
215 215 215
214 214 214
196 196 196
170 170 170
151 151 151
144 144 144
138 138 138
140 140 140
134 134 134
160 160 160
183 183 183
201 201 201
205 205 205
193 193 193
190 190 190
201 201 201
198 198 198
182 182 182
159 159 159
175 175 175
185 185 185
184 184 184
171 171 171
165 165 165
155 155 155
139 139 139
147 147 147
147 147 147
139 139 139
138 138 138
145 145 145
147 147 147
141 141 141
156 156 156
174 174 174
184 184 184
183 183 183
202 202 202
214 214 214
208 208 208
187 187 187
138 138 138
148 148 148
170 170 170
187 187 187
193 193 193
216 216 216
226 226 226
210 210 210
185 185 185
187 187 187
186 186 186
174 174 174
154 154 154
146 146 146
140 140 140
127 127 127
125 125 125
142 142 142
166 166 166
192 192 192
213 213 213
218 218 218
203 203 203
181 181 181
191 191 191
188 188 188
173 173 173
163 163 163
184 184 184
196 196 196
194 194 194
180 180 180
158 158 158
134 134 134
135 135 135
142 142 142
143 143 143
147 147 147
143 143 143
136 136 136
138 138 138
141 141 141
165 165 165
186 186 186
198 198 198
196 196 196
211 211 211
227 227 227
218 218 218
194 194 194
147 147 147
145 145 145
155 155 155
168 168 168
191 191 191
214 214 214
223 223 223
208 208 208
184 184 184
158 158 158
157 157 157
148 148 148
133 133 133
134 134 134
138 138 138
138 138 138
142 142 142
161 161 161
175 175 175
188 188 188
206 206 206
211 211 211
198 198 198
175 175 175
171 171 171
168 168 168
157 157 157
161 161 161
181 181 181
192 192 192
191 191 191
177 177 177
156 156 156
134 134 134
143 143 143
145 145 145
151 151 151
156 156 156
152 152 152
148 148 148
138 138 138
140 140 140
165 165 165
185 185 185
198 198 198
196 196 196
202 202 202
214 214 214
207 207 207
187 187 187
148 148 148
146 146 146
152 152 152
155 155 155
178 178 178
195 195 195
200 200 200
191 191 191
171 171 171
147 147 147
128 128 128
122 122 122
143 143 143
158 158 158
167 167 167
165 165 165
155 155 155
175 175 175
191 191 191
197 197 197
188 188 188
189 189 189
180 180 180
162 162 162
146 146 146
144 144 144
135 135 135
150 150 150
167 167 167
177 177 177
176 176 176
164 164 164
146 146 146
159 159 159
170 170 170
173 173 173
165 165 165
158 158 158
164 164 164
160 160 160
148 148 148
133 133 133
156 156 156
174 174 174
184 184 184
182 182 182
196 196 196
211 211 211
209 209 209
191 191 191
154 154 154
169 169 169
181 181 181
182 182 182
172 172 172
170 170 170
173 173 173
167 167 167
152 152 152
131 131 131
114 114 114
138 138 138
162 162 162
182 182 182
194 194 194
192 192 192
178 178 178
179 179 179
196 196 196
202 202 202
192 192 192
173 173 173
159 159 159
166 166 166
163 163 163
151 151 151
157 157 157
156 156 156
147 147 147
155 155 155
154 154 154
145 145 145
157 157 157
180 180 180
196 196 196
199 199 199
188 188 188
168 168 168
168 168 168
164 164 164
151 151 151
133 133 133
139 139 139
154 154 154
162 162 162
173 173 173
197 197 197
212 212 212
210 210 210
192 192 192
168 168 168
191 191 191
208 208 208
210 210 210
195 195 195
172 172 172
170 170 170
172 172 172
164 164 164
148 148 148
131 131 131
149 149 149
176 176 176
200 200 200
217 217 217
214 214 214
195 195 195
171 171 171
193 193 193
209 209 209
209 209 209
193 193 193
185 185 185
195 195 195
191 191 191
175 175 175
183 183 183
181 181 181
169 169 169
154 154 154
154 154 154
146 146 146
167 167 167
194 194 194
215 215 215
220 220 220
204 204 204
179 179 179
168 168 168
158 158 158
146 146 146
137 137 137
125 125 125
144 144 144
161 161 161
172 172 172
184 184 184
195 195 195
194 194 194
180 180 180
176 176 176
205 205 205
230 230 230
234 234 234
210 210 210
182 182 182
198 198 198
201 201 201
189 189 189
168 168 168
143 143 143
162 162 162
179 179 179
205 205 205
225 225 225
222 222 222
200 200 200
178 178 178
206 206 206
230 230 230
230 230 230
206 206 206
208 208 208
224 224 224
217 217 217
194 194 194
203 203 203
201 201 201
185 185 185
162 162 162
156 156 156
148 148 148
168 168 168
195 195 195
216 216 216
228 228 228
214 214 214
189 189 189
186 186 186
172 172 172
156 156 156
149 149 149
135 135 135
149 149 149
167 167 167
179 179 179
180 180 180
172 172 172
170 170 170
160 160 160
175 175 175
203 203 203
226 226 226
229 229 229
208 208 208
199 199 199
223 223 223
228 228 228
208 208 208
182 182 182
154 154 154
167 167 167
181 181 181
195 195 195
209 209 209
207 207 207
190 190 190
176 176 176
203 203 203
224 224 224
224 224 224
203 203 203
219 219 219
248 248 248
231 231 231
202 202 202
211 211 211
209 209 209
191 191 191
166 166 166
148 148 148
141 141 141
167 167 167
197 197 197
226 226 226
247 247 247
223 223 223
198 198 198
194 194 194
178 178 178
160 160 160
153 153 153
142 142 142
146 146 146
164 164 164
175 175 175
176 176 176
166 166 166
149 149 149
153 153 153
164 164 164
187 187 187
202 202 202
204 204 204
190 190 190
203 203 203
230 230 230
238 238 238
213 213 213
185 185 185
156 156 156
162 162 162
176 176 176
180 180 180
195 195 195
203 203 203
195 195 195
176 176 176
186 186 186
200 200 200
200 200 200
195 195 195
208 208 208
225 225 225
217 217 217
194 194 194
201 201 201
199 199 199
184 184 184
161 161 161
135 135 135
133 133 133
161 161 161
188 188 188
211 211 211
221 221 221
209 209 209
192 192 192
188 188 188
173 173 173
155 155 155
149 149 149
145 145 145
148 148 148
152 152 152
161 161 161
162 162 162
154 154 154
138 138 138
141 141 141
145 145 145
164 164 164
175 175 175
176 176 176
167 167 167
192 192 192
211 211 211
215 215 215
200 200 200
176 176 176
149 149 149
149 149 149
161 161 161
170 170 170
187 187 187
194 194 194
187 187 187
170 170 170
162 162 162
172 172 172
179 179 179
184 184 184
186 186 186
196 196 196
191 191 191
176 176 176
180 180 180
179 179 179
167 167 167
148 148 148
125 125 125
141 141 141
156 156 156
169 169 169
186 186 186
191 191 191
184 184 184
178 178 178
172 172 172
159 159 159
143 143 143
143 143 143
159 159 159
168 168 168
168 168 168
159 159 159
158 158 158
156 156 156
146 146 146
130 130 130
123 123 123
138 138 138
146 146 146
147 147 147
151 151 151
171 171 171
184 184 184
186 186 186
177 177 177
159 159 159
136 136 136
130 130 130
140 140 140
155 155 155
169 169 169
174 174 174
169 169 169
155 155 155
150 150 150
159 159 159
161 161 161
165 165 165
159 159 159
166 166 166
163 163 163
162 162 162
155 155 155
154 154 154
144 144 144
144 144 144
139 139 139
162 162 162
182 182 182
193 193 193
191 191 191
190 190 190
205 205 205
206 206 206
191 191 191
168 168 168
142 142 142
153 153 153
172 172 172
183 183 183
183 183 183
175 175 175
184 184 184
181 181 181
168 168 168
148 148 148
98 98 98
110 110 110
132 132 132
150 150 150
162 162 162
165 165 165
158 158 158
157 157 157
150 150 150
136 136 136
132 132 132
149 149 149
163 163 163
168 168 168
164 164 164
151 151 151
146 146 146
156 156 156
176 176 176
187 187 187
187 187 187
175 175 175
156 156 156
174 174 174
188 188 188
192 192 192
182 182 182
163 163 163
166 166 166
167 167 167
159 159 159
178 178 178
204 204 204
221 221 221
218 218 218
205 205 205
228 228 228
229 229 229
206 206 206
178 178 178
150 150 150
156 156 156
175 175 175
187 187 187
187 187 187
193 193 193
205 205 205
202 202 202
185 185 185
161 161 161
89 89 89
114 114 114
136 136 136
155 155 155
167 167 167
170 170 170
164 164 164
153 153 153
148 148 148
136 136 136
144 144 144
166 166 166
183 183 183
191 191 191
185 185 185
169 169 169
147 147 147
173 173 173
197 197 197
215 215 215
215 215 215
197 197 197
172 172 172
193 193 193
215 215 215
220 220 220
205 205 205
180 180 180
184 184 184
186 186 186
176 176 176
185 185 185
214 214 214
242 242 242
234 234 234
206 206 206
228 228 228
228 228 228
206 206 206
178 178 178
150 150 150
150 150 150
168 168 168
179 179 179
179 179 179
200 200 200
215 215 215
211 211 211
191 191 191
166 166 166
87 87 87
111 111 111
133 133 133
151 151 151
163 163 163
166 166 166
177 177 177
182 182 182
175 175 175
159 159 159
151 151 151
176 176 176
196 196 196
205 205 205
198 198 198
179 179 179
155 155 155
181 181 181
209 209 209
236 236 236
236 236 236
208 208 208
180 180 180
203 203 203
232 232 232
244 244 244
217 217 217
188 188 188
193 193 193
195 195 195
184 184 184
180 180 180
206 206 206
224 224 224
220 220 220
198 198 198
205 205 205
205 205 205
190 190 190
168 168 168
142 142 142
153 153 153
171 171 171
180 180 180
178 178 178
192 192 192
205 205 205
201 201 201
184 184 184
161 161 161
80 80 80
103 103 103
123 123 123
140 140 140
158 158 158
183 183 183
203 203 203
210 210 210
200 200 200
179 179 179
153 153 153
175 175 175
195 195 195
204 204 204
197 197 197
178 178 178
154 154 154
177 177 177
204 204 204
225 225 225
225 225 225
203 203 203
176 176 176
197 197 197
220 220 220
227 227 227
209 209 209
183 183 183
189 189 189
191 191 191
193 193 193
182 182 182
184 184 184
196 196 196
194 194 194
181 181 181
177 177 177
178 178 178
167 167 167
150 150 150
142 142 142
167 167 167
187 187 187
199 199 199
196 196 196
181 181 181
183 183 183
181 181 181
168 168 168
148 148 148
68 68 68
90 90 90
109 109 109
138 138 138
167 167 167
196 196 196
222 222 222
236 236 236
217 217 217
190 190 190
178 178 178
183 183 183
181 181 181
188 188 188
185 185 185
176 176 176
159 159 159
164 164 164
185 185 185
199 199 199
199 199 199
185 185 185
163 163 163
179 179 179
195 195 195
198 198 198
187 187 187
171 171 171
197 197 197
217 217 217
220 220 220
203 203 203
177 177 177
175 175 175
197 197 197
209 209 209
203 203 203
185 185 185
160 160 160
157 157 157
158 158 158
173 173 173
193 193 193
206 206 206
203 203 203
186 186 186
163 163 163
155 155 155
145 145 145
129 129 129
85 85 85
103 103 103
118 118 118
138 138 138
166 166 166
194 194 194
220 220 220
233 233 233
216 216 216
189 189 189
202 202 202
210 210 210
200 200 200
189 189 189
192 192 192
182 182 182
163 163 163
144 144 144
161 161 161
181 181 181
195 195 195
197 197 197
185 185 185
164 164 164
167 167 167
169 169 169
162 162 162
176 176 176
205 205 205
233 233 233
238 238 238
212 212 212
184 184 184
186 186 186
213 213 213
232 232 232
222 222 222
197 197 197
175 175 175
174 174 174
177 177 177
196 196 196
204 204 204
197 197 197
194 194 194
179 179 179
158 158 158
132 132 132
126 126 126
125 125 125
103 103 103
124 124 124
142 142 142
153 153 153
157 157 157
180 180 180
199 199 199
206 206 206
196 196 196
193 193 193
218 218 218
230 230 230
215 215 215
189 189 189
186 186 186
177 177 177
159 159 159
149 149 149
173 173 173
200 200 200
221 221 221
225 225 225
205 205 205
179 179 179
151 151 151
140 140 140
143 143 143
171 171 171
197 197 197
218 218 218
221 221 221
206 206 206
197 197 197
185 185 185
211 211 211
229 229 229
220 220 220
196 196 196
184 184 184
183 183 183
187 187 187
210 210 210
222 222 222
211 211 211
187 187 187
163 163 163
144 144 144
146 146 146
153 153 153
152 152 152
118 118 118
141 141 141
162 162 162
176 176 176
181 181 181
175 175 175
173 173 173
177 177 177
172 172 172
190 190 190
214 214 214
224 224 224
211 211 211
187 187 187
169 169 169
164 164 164
163 163 163
154 154 154
177 177 177
206 206 206
234 234 234
239 239 239
212 212 212
183 183 183
154 154 154
125 125 125
132 132 132
157 157 157
178 178 178
193 193 193
219 219 219
231 231 231
215 215 215
189 189 189
193 193 193
204 204 204
199 199 199
181 181 181
181 181 181
180 180 180
185 185 185
208 208 208
219 219 219
208 208 208
186 186 186
159 159 159
153 153 153
170 170 170
180 180 180
178 178 178
127 127 127
153 153 153
176 176 176
194 194 194
200 200 200
192 192 192
175 175 175
175 175 175
164 164 164
176 176 176
193 193 193
200 200 200
192 192 192
173 173 173
161 161 161
171 171 171
171 171 171
161 161 161
170 170 170
196 196 196
216 216 216
219 219 219
201 201 201
176 176 176
149 149 149
122 122 122
116 116 116
137 137 137
166 166 166
194 194 194
220 220 220
233 233 233
216 216 216
190 190 190
169 169 169
176 176 176
173 173 173
160 160 160
168 168 168
167 167 167
172 172 172
190 190 190
198 198 198
190 190 190
173 173 173
150 150 150
168 168 168
190 190 190
202 202 202
200 200 200
129 129 129
156 156 156
180 180 180
199 199 199
207 207 207
197 197 197
187 187 187
187 187 187
174 174 174
155 155 155
168 168 168
172 172 172
166 166 166
159 159 159
176 176 176
183 183 183
179 179 179
164 164 164
155 155 155
176 176 176
189 189 189
191 191 191
179 179 179
160 160 160
138 138 138
133 133 133
122 122 122
130 130 130
157 157 157
181 181 181
201 201 201
208 208 208
199 199 199
178 178 178
153 153 153
147 147 147
155 155 155
165 165 165
165 165 165
156 156 156
163 163 163
179 179 179
186 186 186
180 180 180
164 164 164
149 149 149
175 175 175
199 199 199
215 215 215
212 212 212
