P3
50 50
255
123 123 123
144 144 144
161 161 161
170 170 170
169 169 169
159 159 159
145 145 145
148 148 148
142 142 142
129 129 129
112 112 112
124 124 124
139 139 139
149 149 149
150 150 150
144 144 144
131 131 131
126 126 126
119 119 119
110 110 110
139 139 139
167 167 167
195 195 195
220 220 220
230 230 230
213 213 213
187 187 187
158 158 158
130 130 130
112 112 112
137 137 137
160 160 160
178 178 178
188 188 188
185 185 185
171 171 171
171 171 171
182 182 182
182 182 182
177 177 177
188 188 188
186 186 186
173 173 173
153 153 153
129 129 129
103 103 103
97 97 97
104 104 104
116 116 116
122 122 122
139 139 139
164 164 164
185 185 185
198 198 198
197 197 197
183 183 183
174 174 174
177 177 177
169 169 169
153 153 153
132 132 132
145 145 145
164 164 164
177 177 177
180 180 180
171 171 171
154 154 154
137 137 137
129 129 129
125 125 125
135 135 135
163 163 163
188 188 188
209 209 209
216 216 216
204 204 204
181 181 181
154 154 154
134 134 134
124 124 124
150 150 150
176 176 176
199 199 199
213 213 213
209 209 209
190 190 190
184 184 184
198 198 198
199 199 199
185 185 185
188 188 188
186 186 186
173 173 173
153 153 153
129 129 129
111 111 111
121 121 121
126 126 126
133 133 133
141 141 141
149 149 149
177 177 177
203 203 203
222 222 222
221 221 221
200 200 200
201 201 201
205 205 205
194 194 194
173 173 173
148 148 148
162 162 162
186 186 186
204 204 204
208 208 208
196 196 196
174 174 174
148 148 148
135 135 135
152 152 152
162 162 162
164 164 164
171 171 171
187 187 187
191 191 191
183 183 183
165 165 165
163 163 163
159 159 159
147 147 147
155 155 155
183 183 183
210 210 210
229 229 229
222 222 222
198 198 198
187 187 187
202 202 202
202 202 202
204 204 204
191 191 191
181 181 181
171 171 171
152 152 152
130 130 130
130 130 130
143 143 143
148 148 148
146 146 146
153 153 153
151 151 151
180 180 180
207 207 207
231 231 231
229 229 229
205 205 205
223 223 223
232 232 232
212 212 212
186 186 186
157 157 157
172 172 172
201 201 201
226 226 226
235 235 235
213 213 213
185 185 185
156 156 156
156 156 156
177 177 177
191 191 191
193 193 193
182 182 182
162 162 162
163 163 163
163 163 163
179 179 179
186 186 186
181 181 181
166 166 166
152 152 152
179 179 179
203 203 203
218 218 218
213 213 213
192 192 192
177 177 177
202 202 202
227 227 227
231 231 231
209 209 209
191 191 191
179 179 179
159 159 159
135 135 135
145 145 145
160 160 160
166 166 166
164 164 164
158 158 158
166 166 166
186 186 186
198 198 198
212 212 212
211 211 211
199 199 199
225 225 225
236 236 236
214 214 214
187 187 187
158 158 158
172 172 172
201 201 201
227 227 227
235 235 235
213 213 213
185 185 185
156 156 156
170 170 170
196 196 196
217 217 217
221 221 221
204 204 204
181 181 181
173 173 173
175 175 175
194 194 194
203 203 203
197 197 197
178 178 178
154 154 154
164 164 164
183 183 183
193 193 193
191 191 191
187 187 187
176 176 176
205 205 205
233 233 233
239 239 239
213 213 213
188 188 188
176 176 176
157 157 157
148 148 148
154 154 154
170 170 170
177 177 177
174 174 174
161 161 161
180 180 180
207 207 207
226 226 226
221 221 221
199 199 199
186 186 186
205 205 205
211 211 211
198 198 198
182 182 182
176 176 176
162 162 162
186 186 186
204 204 204
209 209 209
196 196 196
174 174 174
150 150 150
176 176 176
205 205 205
234 234 234
242 242 242
214 214 214
197 197 197
186 186 186
181 181 181
197 197 197
206 206 206
199 199 199
180 180 180
156 156 156
165 165 165
191 191 191
212 212 212
218 218 218
203 203 203
179 179 179
192 192 192
211 211 211
214 214 214
198 198 198
174 174 174
177 177 177
181 181 181
173 173 173
157 157 157
170 170 170
178 178 178
174 174 174
161 161 161
185 185 185
214 214 214
242 242 242
234 234 234
205 205 205
176 176 176
179 179 179
182 182 182
193 193 193
201 201 201
193 193 193
174 174 174
165 165 165
177 177 177
180 180 180
171 171 171
179 179 179
178 178 178
171 171 171
198 198 198
220 220 220
224 224 224
205 205 205
199 199 199
189 189 189
205 205 205
215 215 215
206 206 206
187 187 187
171 171 171
175 175 175
174 174 174
202 202 202
231 231 231
244 244 244
217 217 217
188 188 188
208 208 208
229 229 229
225 225 225
201 201 201
182 182 182
200 200 200
206 206 206
195 195 195
174 174 174
161 161 161
167 167 167
165 165 165
156 156 156
178 178 178
203 203 203
219 219 219
216 216 216
195 195 195
169 169 169
155 155 155
179 179 179
199 199 199
207 207 207
199 199 199
184 184 184
167 167 167
149 149 149
170 170 170
192 192 192
206 206 206
204 204 204
188 188 188
179 179 179
194 194 194
196 196 196
185 185 185
188 188 188
192 192 192
219 219 219
235 235 235
220 220 220
193 193 193
187 187 187
199 199 199
197 197 197
198 198 198
222 222 222
230 230 230
211 211 211
185 185 185
212 212 212
237 237 237
232 232 232
205 205 205
192 192 192
214 214 214
222 222 222
207 207 207
182 182 182
155 155 155
150 150 150
149 149 149
151 151 151
161 161 161
180 180 180
191 191 191
189 189 189
175 175 175
154 154 154
163 163 163
178 178 178
190 190 190
206 206 206
216 216 216
207 207 207
185 185 185
159 159 159
180 180 180
207 207 207
228 228 228
224 224 224
201 201 201
174 174 174
169 169 169
167 167 167
165 165 165
167 167 167
188 188 188
212 212 212
224 224 224
213 213 213
189 189 189
199 199 199
214 214 214
211 211 211
192 192 192
197 197 197
201 201 201
191 191 191
174 174 174
198 198 198
214 214 214
211 211 211
206 206 206
190 190 190
209 209 209
216 216 216
202 202 202
179 179 179
153 153 153
138 138 138
148 148 148
150 150 150
139 139 139
154 154 154
169 169 169
175 175 175
171 171 171
163 163 163
179 179 179
199 199 199
208 208 208
218 218 218
232 232 232
218 218 218
192 192 192
177 177 177
179 179 179
206 206 206
225 225 225
222 222 222
200 200 200
203 203 203
197 197 197
179 179 179
155 155 155
149 149 149
172 172 172
190 190 190
198 198 198
191 191 191
173 173 173
196 196 196
211 211 211
208 208 208
190 190 190
169 169 169
172 172 172
165 165 165
157 157 157
175 175 175
191 191 191
206 206 206
206 206 206
190 190 190
189 189 189
194 194 194
185 185 185
166 166 166
152 152 152
134 134 134
140 140 140
142 142 142
139 139 139
160 160 160
176 176 176
183 183 183
185 185 185
192 192 192
186 186 186
209 209 209
220 220 220
210 210 210
219 219 219
209 209 209
186 186 186
191 191 191
183 183 183
189 189 189
202 202 202
201 201 201
214 214 214
231 231 231
220 220 220
195 195 195
167 167 167
154 154 154
155 155 155
164 164 164
169 169 169
165 165 165
180 180 180
199 199 199
206 206 206
197 197 197
177 177 177
155 155 155
143 143 143
137 137 137
136 136 136
159 159 159
179 179 179
191 191 191
190 190 190
177 177 177
164 164 164
167 167 167
167 167 167
165 165 165
153 153 153
135 135 135
126 126 126
131 131 131
137 137 137
157 157 157
173 173 173
186 186 186
209 209 209
220 220 220
209 209 209
201 201 201
211 211 211
202 202 202
193 193 193
187 187 187
186 186 186
192 192 192
184 184 184
166 166 166
175 175 175
191 191 191
220 220 220
245 245 245
227 227 227
199 199 199
169 169 169
176 176 176
177 177 177
176 176 176
175 175 175
166 166 166
194 194 194
221 221 221
235 235 235
218 218 218
191 191 191
162 162 162
144 144 144
152 152 152
162 162 162
167 167 167
163 163 163
168 168 168
167 167 167
157 157 157
156 156 156
167 167 167
178 178 178
179 179 179
169 169 169
152 152 152
154 154 154
159 159 159
135 135 135
146 146 146
165 165 165
194 194 194
222 222 222
242 242 242
223 223 223
195 195 195
188 188 188
182 182 182
166 166 166
162 162 162
175 175 175
180 180 180
173 173 173
172 172 172
169 169 169
182 182 182
205 205 205
217 217 217
209 209 209
188 188 188
176 176 176
190 190 190
192 192 192
184 184 184
183 183 183
171 171 171
196 196 196
225 225 225
243 243 243
221 221 221
193 193 193
179 179 179
162 162 162
169 169 169
186 186 186
194 194 194
188 188 188
171 171 171
149 149 149
135 135 135
160 160 160
182 182 182
196 196 196
197 197 197
185 185 185
164 164 164
179 179 179
187 187 187
158 158 158
163 163 163
161 161 161
188 188 188
213 213 213
225 225 225
213 213 213
189 189 189
162 162 162
157 157 157
145 145 145
145 145 145
157 157 157
163 163 163
182 182 182
192 192 192
188 188 188
174 174 174
180 180 180
188 188 188
183 183 183
168 168 168
179 179 179
193 193 193
195 195 195
183 183 183
179 179 179
173 173 173
185 185 185
206 206 206
214 214 214
204 204 204
204 204 204
194 194 194
173 173 173
182 182 182
205 205 205
216 216 216
207 207 207
185 185 185
160 160 160
138 138 138
164 164 164
186 186 186
202 202 202
203 203 203
189 189 189
179 179 179
200 200 200
212 212 212
176 176 176
183 183 183
178 178 178
172 172 172
190 190 190
197 197 197
190 190 190
172 172 172
149 149 149
130 130 130
121 121 121
124 124 124
145 145 145
170 170 170
190 190 190
201 201 201
198 198 198
181 181 181
178 178 178
172 172 172
157 157 157
151 151 151
170 170 170
183 183 183
184 184 184
174 174 174
177 177 177
198 198 198
207 207 207
200 200 200
185 185 185
201 201 201
207 207 207
196 196 196
175 175 175
186 186 186
209 209 209
222 222 222
212 212 212
189 189 189
174 174 174
156 156 156
158 158 158
179 179 179
192 192 192
203 203 203
214 214 214
205 205 205
210 210 210
226 226 226
186 186 186
194 194 194
189 189 189
172 172 172
163 163 163
168 168 168
163 163 163
150 150 150
131 131 131
122 122 122
113 113 113
122 122 122
142 142 142
166 166 166
186 186 186
196 196 196
193 193 193
192 192 192
199 199 199
191 191 191
172 172 172
149 149 149
153 153 153
164 164 164
165 165 165
161 161 161
188 188 188
214 214 214
229 229 229
217 217 217
202 202 202
206 206 206
194 194 194
185 185 185
166 166 166
177 177 177
197 197 197
206 206 206
211 211 211
213 213 213
197 197 197
173 173 173
157 157 157
163 163 163
192 192 192
220 220 220
242 242 242
225 225 225
203 203 203
215 215 215
184 184 184
192 192 192
187 187 187
171 171 171
149 149 149
147 147 147
145 145 145
135 135 135
123 123 123
121 121 121
138 138 138
150 150 150
154 154 154
154 154 154
170 170 170
179 179 179
181 181 181
201 201 201
209 209 209
199 199 199
179 179 179
154 154 154
144 144 144
148 148 148
143 143 143
160 160 160
187 187 187
212 212 212
226 226 226
215 215 215
205 205 205
210 210 210
197 197 197
175 175 175
150 150 150
159 159 159
177 177 177
206 206 206
234 234 234
238 238 238
211 211 211
183 183 183
181 181 181
171 171 171
190 190 190
217 217 217
235 235 235
221 221 221
195 195 195
191 191 191
171 171 171
178 178 178
174 174 174
161 161 161
168 168 168
176 176 176
173 173 173
160 160 160
141 141 141
140 140 140
160 160 160
175 175 175
181 181 181
175 175 175
160 160 160
155 155 155
176 176 176
195 195 195
202 202 202
193 193 193
174 174 174
150 150 150
136 136 136
139 139 139
135 135 135
150 150 150
175 175 175
194 194 194
203 203 203
196 196 196
193 193 193
196 196 196
186 186 186
172 172 172
164 164 164
149 149 149
176 176 176
203 203 203
228 228 228
231 231 231
208 208 208
196 196 196
199 199 199
186 186 186
177 177 177
197 197 197
206 206 206
199 199 199
180 180 180
164 164 164
151 151 151
157 157 157
172 172 172
180 180 180
193 193 193
204 204 204
199 199 199
182 182 182
159 159 159
153 153 153
178 178 178
197 197 197
205 205 205
197 197 197
177 177 177
153 153 153
162 162 162
177 177 177
182 182 182
176 176 176
160 160 160
141 141 141
125 125 125
124 124 124
136 136 136
151 151 151
159 159 159
169 169 169
175 175 175
171 171 171
171 171 171
174 174 174
179 179 179
182 182 182
173 173 173
157 157 157
164 164 164
186 186 186
202 202 202
204 204 204
190 190 190
202 202 202
204 204 204
191 191 191
169 169 169
175 175 175
181 181 181
176 176 176
162 162 162
141 141 141
141 141 141
164 164 164
182 182 182
192 192 192
211 211 211
229 229 229
221 221 221
197 197 197
169 169 169
160 160 160
186 186 186
209 209 209
220 220 220
209 209 209
186 186 186
170 170 170
170 170 170
161 161 161
157 157 157
153 153 153
143 143 143
134 134 134
120 120 120
127 127 127
148 148 148
165 165 165
174 174 174
173 173 173
162 162 162
150 150 150
146 146 146
165 165 165
178 178 178
181 181 181
173 173 173
157 157 157
153 153 153
163 163 163
174 174 174
175 175 175
178 178 178
192 192 192
194 194 194
183 183 183
163 163 163
165 165 165
171 171 171
166 166 166
153 153 153
134 134 134
140 140 140
163 163 163
181 181 181
190 190 190
213 213 213
233 233 233
224 224 224
198 198 198
170 170 170
157 157 157
183 183 183
204 204 204
213 213 213
204 204 204
183 183 183
197 197 197
197 197 197
184 184 184
163 163 163
138 138 138
134 134 134
143 143 143
144 144 144
138 138 138
153 153 153
170 170 170
180 180 180
179 179 179
167 167 167
148 148 148
150 150 150
164 164 164
170 170 170
169 169 169
162 162 162
158 158 158
154 154 154
142 142 142
149 149 149
151 151 151
164 164 164
181 181 181
188 188 188
183 183 183
168 168 168
168 168 168
171 171 171
164 164 164
149 149 149
129 129 129
146 146 146
165 165 165
176 176 176
178 178 178
197 197 197
210 210 210
204 204 204
186 186 186
161 161 161
146 146 146
169 169 169
185 185 185
192 192 192
185 185 185
199 199 199
219 219 219
219 219 219
200 200 200
175 175 175
147 147 147
152 152 152
163 163 163
165 165 165
157 157 157
149 149 149
166 166 166
175 175 175
174 174 174
163 163 163
148 148 148
171 171 171
190 190 190
198 198 198
192 192 192
175 175 175
152 152 152
147 147 147
151 151 151
162 162 162
170 170 170
178 178 178
199 199 199
209 209 209
202 202 202
183 183 183
173 173 173
176 176 176
168 168 168
153 153 153
132 132 132
160 160 160
177 177 177
191 191 191
193 193 193
182 182 182
182 182 182
178 178 178
170 170 170
176 176 176
171 171 171
157 157 157
161 161 161
166 166 166
175 175 175
202 202 202
223 223 223
224 224 224
203 203 203
177 177 177
148 148 148
165 165 165
178 178 178
180 180 180
171 171 171
154 154 154
153 153 153
161 161 161
160 160 160
150 150 150
158 158 158
185 185 185
209 209 209
223 223 223
213 213 213
190 190 190
163 163 163
137 137 137
155 155 155
168 168 168
184 184 184
189 189 189
205 205 205
217 217 217
209 209 209
187 187 187
167 167 167
170 170 170
163 163 163
148 148 148
142 142 142
170 170 170
183 183 183
193 193 193
195 195 195
184 184 184
164 164 164
176 176 176
195 195 195
204 204 204
198 198 198
179 179 179
155 155 155
158 158 158
177 177 177
190 190 190
205 205 205
206 206 206
191 191 191
168 168 168
149 149 149
169 169 169
182 182 182
185 185 185
175 175 175
157 157 157
135 135 135
140 140 140
139 139 139
132 132 132
160 160 160
188 188 188
214 214 214
230 230 230
218 218 218
193 193 193
165 165 165
137 137 137
151 151 151
170 170 170
186 186 186
191 191 191
195 195 195
204 204 204
198 198 198
179 179 179
155 155 155
155 155 155
149 149 149
136 136 136
150 150 150
170 170 170
183 183 183
185 185 185
184 184 184
174 174 174
161 161 161
189 189 189
215 215 215
231 231 231
219 219 219
193 193 193
165 165 165
174 174 174
199 199 199
216 216 216
214 214 214
195 195 195
170 170 170
151 151 151
144 144 144
163 163 163
175 175 175
178 178 178
169 169 169
154 154 154
135 135 135
121 121 121
123 123 123
127 127 127
154 154 154
179 179 179
201 201 201
211 211 211
203 203 203
183 183 183
158 158 158
137 137 137
159 159 159
176 176 176
183 183 183
181 181 181
175 175 175
181 181 181
177 177 177
162 162 162
149 149 149
136 136 136
130 130 130
126 126 126
150 150 150
161 161 161
172 172 172
174 174 174
185 185 185
191 191 191
184 184 184
191 191 191
219 219 219
237 237 237
222 222 222
195 195 195
167 167 167
182 182 182
210 210 210
235 235 235
232 232 232
206 206 206
177 177 177
150 150 150
145 145 145
156 156 156
171 171 171
177 177 177
172 172 172
158 158 158
138 138 138
139 139 139
140 140 140
133 133 133
154 154 154
172 172 172
181 181 181
184 184 184
179 179 179
165 165 165
144 144 144
144 144 144
167 167 167
186 186 186
195 195 195
191 191 191
175 175 175
155 155 155
166 166 166
170 170 170
164 164 164
149 149 149
129 129 129
133 133 133
142 142 142
144 144 144
161 161 161
187 187 187
210 210 210
221 221 221
209 209 209
186 186 186
202 202 202
212 212 212
204 204 204
184 184 184
159 159 159
177 177 177
203 203 203
223 223 223
221 221 221
200 200 200
173 173 173
165 165 165
159 159 159
151 151 151
166 166 166
171 171 171
167 167 167
165 165 165
162 162 162
152 152 152
153 153 153
145 145 145
160 160 160
179 179 179
189 189 189
187 187 187
174 174 174
157 157 157
166 166 166
166 166 166
166 166 166
184 184 184
193 193 193
189 189 189
173 173 173
160 160 160
173 173 173
177 177 177
170 170 170
155 155 155
150 150 150
161 161 161
164 164 164
138 138 138
167 167 167
196 196 196
226 226 226
250 250 250
224 224 224
194 194 194
177 177 177
184 184 184
179 179 179
164 164 164
150 150 150
163 163 163
184 184 184
196 196 196
195 195 195
181 181 181
168 168 168
172 172 172
165 165 165
151 151 151
152 152 152
162 162 162
180 180 180
190 190 190
187 187 187
173 173 173
159 159 159
151 151 151
157 157 157
175 175 175
185 185 185
183 183 183
170 170 170
181 181 181
194 194 194
194 194 194
181 181 181
171 171 171
179 179 179
175 175 175
162 162 162
156 156 156
169 169 169
173 173 173
166 166 166
152 152 152
174 174 174
189 189 189
193 193 193
135 135 135
164 164 164
191 191 191
217 217 217
230 230 230
215 215 215
194 194 194
197 197 197
186 186 186
166 166 166
163 163 163
171 171 171
169 169 169
159 159 159
168 168 168
167 167 167
157 157 157
165 165 165
168 168 168
162 162 162
169 169 169
171 171 171
175 175 175
197 197 197
211 211 211
207 207 207
188 188 188
164 164 164
148 148 148
146 146 146
162 162 162
170 170 170
168 168 168
175 175 175
200 200 200
219 219 219
219 219 219
200 200 200
174 174 174
158 158 158
155 155 155
144 144 144
147 147 147
164 164 164
173 173 173
171 171 171
166 166 166
192 192 192
215 215 215
222 222 222
126 126 126
152 152 152
175 175 175
193 193 193
200 200 200
192 192 192
207 207 207
211 211 211
197 197 197
175 175 175
183 183 183
193 193 193
191 191 191
177 177 177
155 155 155
139 139 139
142 142 142
153 153 153
156 156 156
173 173 173
188 188 188
191 191 191
181 181 181
202 202 202
217 217 217
212 212 212
192 192 192
166 166 166
139 139 139
128 128 128
142 142 142
149 149 149
150 150 150
179 179 179
207 207 207
231 231 231
231 231 231
206 206 206
178 178 178
150 150 150
131 131 131
141 141 141
165 165 165
186 186 186
198 198 198
196 196 196
181 181 181
200 200 200
229 229 229
243 243 243
111 111 111
133 133 133
153 153 153
166 166 166
171 171 171
186 186 186
204 204 204
208 208 208
195 195 195
173 173 173
195 195 195
208 208 208
205 205 205
187 187 187
163 163 163
157 157 157
155 155 155
148 148 148
160 160 160
181 181 181
197 197 197
201 201 201
190 190 190
191 191 191
203 203 203
199 199 199
183 183 183
160 160 160
134 134 134
116 116 116
126 126 126
132 132 132
148 148 148
172 172 172
197 197 197
215 215 215
214 214 214
197 197 197
172 172 172
148 148 148
146 146 146
148 148 148
175 175 175
199 199 199
216 216 216
213 213 213
194 194 194
193 193 193
216 216 216
224 224 224
92 92 92
111 111 111
127 127 127
138 138 138
152 152 152
173 173 173
187 187 187
189 189 189
179 179 179
171 171 171
193 193 193
206 206 206
203 203 203
186 186 186
177 177 177
186 186 186
183 183 183
170 170 170
185 185 185
189 189 189
192 192 192
196 196 196
185 185 185
171 171 171
179 179 179
177 177 177
164 164 164
145 145 145
137 137 137
145 145 145
146 146 146
138 138 138
147 147 147
158 158 158
176 176 176
188 188 188
188 188 188
176 176 176
169 169 169
176 176 176
173 173 173
160 160 160
175 175 175
199 199 199
215 215 215
217 217 217
208 208 208
187 187 187
191 191 191
196 196 196
93 93 93
115 115 115
132 132 132
145 145 145
151 151 151
152 152 152
163 163 163
165 165 165
157 157 157
161 161 161
179 179 179
190 190 190
187 187 187
177 177 177
200 200 200
214 214 214
210 210 210
190 190 190
204 204 204
211 211 211
199 199 199
178 178 178
170 170 170
154 154 154
153 153 153
151 151 151
141 141 141
146 146 146
164 164 164
174 174 174
175 175 175
165 165 165
148 148 148
148 148 148
156 156 156
160 160 160
160 160 160
172 172 172
192 192 192
202 202 202
197 197 197
180 180 180
165 165 165
187 187 187
212 212 212
226 226 226
216 216 216
192 192 192
164 164 164
166 166 166
110 110 110
123 123 123
139 139 139
153 153 153
159 159 159
156 156 156
146 146 146
138 138 138
132 132 132
143 143 143
158 158 158
166 166 166
164 164 164
186 186 186
214 214 214
238 238 238
228 228 228
201 201 201
210 210 210
218 218 218
205 205 205
182 182 182
155 155 155
135 135 135
134 134 134
148 148 148
155 155 155
165 165 165
187 187 187
202 202 202
203 203 203
189 189 189
170 170 170
164 164 164
176 176 176
179 179 179
170 170 170
183 183 183
207 207 207
222 222 222
214 214 214
192 192 192
165 165 165
179 179 179
201 201 201
211 211 211
203 203 203
183 183 183
158 158 158
137 137 137
121 121 121
136 136 136
144 144 144
153 153 153
159 159 159
156 156 156
145 145 145
143 143 143
136 136 136
125 125 125
150 150 150
172 172 172
187 187 187
192 192 192
210 210 210
228 228 228
222 222 222
198 198 198
199 199 199
205 205 205
194 194 194
174 174 174
164 164 164
150 150 150
153 153 153
170 170 170
180 180 180
178 178 178
204 204 204
228 228 228
229 229 229
207 207 207
191 191 191
182 182 182
189 189 189
192 192 192
182 182 182
185 185 185
206 206 206
221 221 221
213 213 213
191 191 191
169 169 169
176 176 176
179 179 179
186 186 186
181 181 181
166 166 166
145 145 145
120 120 120
133 133 133
145 145 145
151 151 151
152 152 152
150 150 150
150 150 150
160 160 160
162 162 162
154 154 154
140 140 140
163 163 163
189 189 189
211 211 211
219 219 219
206 206 206
201 201 201
198 198 198
186 186 186
180 180 180
181 181 181
190 190 190
196 196 196
188 188 188
170 170 170
166 166 166
187 187 187
199 199 199
197 197 197
207 207 207
233 233 233
235 235 235
210 210 210
203 203 203
193 193 193
190 190 190
194 194 194
196 196 196
209 209 209
204 204 204
218 218 218
223 223 223
206 206 206
180 180 180
182 182 182
178 178 178
164 164 164
154 154 154
143 143 143
125 125 125
117 117 117
140 140 140
152 152 152
156 156 156
152 152 152
144 144 144
161 161 161
172 172 172
174 174 174
166 166 166
149 149 149
168 168 168
196 196 196
223 223 223
234 234 234
216 216 216
209 209 209
200 200 200
187 187 187
182 182 182
188 188 188
210 210 210
219 219 219
207 207 207
184 184 184
171 171 171
193 193 193
207 207 207
204 204 204
193 193 193
211 211 211
212 212 212
195 195 195
200 200 200
190 190 190
179 179 179
182 182 182
206 206 206
222 222 222
215 215 215
233 233 233
244 244 244
216 216 216
186 186 186
176 176 176
173 173 173
160 160 160
141 141 141
123 123 123
134 134 134
139 139 139
139 139 139
151 151 151
155 155 155
151 151 151
144 144 144
163 163 163
175 175 175
177 177 177
168 168 168
151 151 151
163 163 163
189 189 189
211 211 211
219 219 219
208 208 208
218 218 218
207 207 207
185 185 185
172 172 172
190 190 190
214 214 214
224 224 224
210 210 210
186 186 186
165 165 165
186 186 186
198 198 198
196 196 196
181 181 181
183 183 183
184 184 184
180 180 180
184 184 184
176 176 176
161 161 161
176 176 176
199 199 199
212 212 212
207 207 207
218 218 218
223 223 223
206 206 206
180 180 180
162 162 162
159 159 159
147 147 147
136 136 136
144 144 144
158 158 158
165 165 165
131 131 131
142 142 142
146 146 146
142 142 142
142 142 142
157 157 157
167 167 167
169 169 169
161 161 161
145 145 145
150 150 150
172 172 172
188 188 188
193 193 193
198 198 198
206 206 206
198 198 198
178 178 178
167 167 167
180 180 180
199 199 199
206 206 206
197 197 197
176 176 176
176 176 176
189 189 189
189 189 189
178 178 178
164 164 164
154 154 154
155 155 155
158 158 158
161 161 161
155 155 155
151 151 151
162 162 162
180 180 180
189 189 189
186 186 186
192 192 192
194 194 194
184 184 184
164 164 164
141 141 141
154 154 154
162 162 162
161 161 161
161 161 161
179 179 179
187 187 187
117 117 117
127 127 127
131 131 131
127 127 127
133 133 133
147 147 147
154 154 154
153 153 153
146 146 146
132 132 132
131 131 131
149 149 149
161 161 161
164 164 164
177 177 177
183 183 183
177 177 177
186 186 186
195 195 195
191 191 191
176 176 176
181 181 181
174 174 174
170 170 170
194 194 194
211 211 211
212 212 212
195 195 195
171 171 171
155 155 155
148 148 148
144 144 144
164 164 164
177 177 177
180 180 180
172 172 172
156 156 156
163 163 163
160 160 160
163 163 163
165 165 165
158 158 158
143 143 143
155 155 155
173 173 173
183 183 183
182 182 182
175 175 175
191 191 191
201 201 201
99 99 99
108 108 108
111 111 111
124 124 124
132 132 132
138 138 138
140 140 140
136 136 136
128 128 128
114 114 114
133 133 133
152 152 152
167 167 167
172 172 172
168 168 168
157 157 157
184 184 184
208 208 208
223 223 223
215 215 215
192 192 192
165 165 165
148 148 148
174 174 174
200 200 200
220 220 220
220 220 220
201 201 201
181 181 181
183 183 183
173 173 173
161 161 161
186 186 186
204 204 204
208 208 208
196 196 196
174 174 174
185 185 185
186 186 186
175 175 175
156 156 156
133 133 133
140 140 140
164 164 164
185 185 185
197 197 197
196 196 196
194 194 194
191 191 191
201 201 201
87 87 87
110 110 110
130 130 130
146 146 146
155 155 155
161 161 161
164 164 164
157 157 157
143 143 143
128 128 128
147 147 147
170 170 170
188 188 188
196 196 196
190 190 190
173 173 173
189 189 189
217 217 217
239 239 239
226 226 226
198 198 198
170 170 170
150 150 150
167 167 167
191 191 191
207 207 207
207 207 207
192 192 192
204 204 204
207 207 207
194 194 194
171 171 171
199 199 199
225 225 225
234 234 234
213 213 213
190 190 190
206 206 206
208 208 208
193 193 193
170 170 170
144 144 144
140 140 140
165 165 165
185 185 185
198 198 198
204 204 204
201 201 201
184 184 184
187 187 187
97 97 97
122 122 122
145 145 145
163 163 163
175 175 175
179 179 179
182 182 182
174 174 174
158 158 158
148 148 148
166 166 166
180 180 180
202 202 202
212 212 212
204 204 204
184 184 184
182 182 182
206 206 206
220 220 220
212 212 212
190 190 190
180 180 180
168 168 168
152 152 152
172 172 172
183 183 183
184 184 184
197 197 197
218 218 218
222 222 222
204 204 204
179 179 179
199 199 199
225 225 225
234 234 234
213 213 213
196 196 196
215 215 215
216 216 216
199 199 199
174 174 174
147 147 147
133 133 133
156 156 156
174 174 174
185 185 185
196 196 196
193 193 193
178 178 178
165 165 165
103 103 103
129 129 129
153 153 153
173 173 173
186 186 186
188 188 188
192 192 192
183 183 183
165 165 165
164 164 164
185 185 185
199 199 199
201 201 201
211 211 211
203 203 203
183 183 183
165 165 165
183 183 183
192 192 192
187 187 187
195 195 195
192 192 192
177 177 177
156 156 156
154 154 154
156 156 156
167 167 167
192 192 192
211 211 211
214 214 214
199 199 199
175 175 175
185 185 185
203 203 203
208 208 208
195 195 195
188 188 188
203 203 203
205 205 205
191 191 191
168 168 168
143 143 143
120 120 120
140 140 140
155 155 155
168 168 168
177 177 177
175 175 175
162 162 162
144 144 144
107 107 107
129 129 129
153 153 153
173 173 173
186 186 186
188 188 188
188 188 188
180 180 180
172 172 172
171 171 171
196 196 196
213 213 213
213 213 213
209 209 209
213 213 213
199 199 199
176 176 176
157 157 157
163 163 163
183 183 183
194 194 194
191 191 191
177 177 177
155 155 155
143 143 143
145 145 145
155 155 155
176 176 176
190 190 190
192 192 192
181 181 181
165 165 165
163 163 163
176 176 176
179 179 179
171 171 171
170 170 170
181 181 181
183 183 183
182 182 182
170 170 170
151 151 151
128 128 128
119 119 119
132 132 132
146 146 146
152 152 152
151 151 151
141 141 141
137 137 137
128 128 128
146 146 146
157 157 157
163 163 163
175 175 175
176 176 176
173 173 173
178 178 178
171 171 171
169 169 169
192 192 192
208 208 208
208 208 208
220 220 220
227 227 227
208 208 208
182 182 182
154 154 154
154 154 154
171 171 171
180 180 180
178 178 178
165 165 165
157 157 157
157 157 157
149 149 149
137 137 137
154 154 154
164 164 164
176 176 176
177 177 177
168 168 168
151 151 151
148 148 148
150 150 150
147 147 147
172 172 172
195 195 195
210 210 210
209 209 209
191 191 191
167 167 167
141 141 141
134 134 134
124 124 124
121 121 121
126 126 126
131 131 131
146 146 146
155 155 155
146 146 146
167 167 167
182 182 182
186 186 186
179 179 179
162 162 162
162 162 162
166 166 166
161 161 161
167 167 167
182 182 182
189 189 189
190 190 190
210 210 210
214 214 214
200 200 200
187 187 187
175 175 175
156 156 156
159 159 159
169 169 169
170 170 170
169 169 169
181 181 181
182 182 182
172 172 172
153 153 153
142 142 142
160 160 160
171 171 171
172 172 172
163 163 163
147 147 147
129 129 129
141 141 141
152 152 152
180 180 180
208 208 208
230 230 230
227 227 227
203 203 203
176 176 176
166 166 166
162 162 162
149 149 149
130 130 130
128 128 128
141 141 141
156 156 156
165 165 165
158 158 158
182 182 182
201 201 201
207 207 207
197 197 197
179 179 179
176 176 176
175 175 175
164 164 164
165 165 165
180 180 180
185 185 185
179 179 179
187 187 187
197 197 197
215 215 215
215 215 215
197 197 197
172 172 172
162 162 162
173 173 173
175 175 175
185 185 185
200 200 200
201 201 201
188 188 188
166 166 166
141 141 141
147 147 147
156 156 156
158 158 158
150 150 150
144 144 144
132 132 132
133 133 133
150 150 150
178 178 178
204 204 204
223 223 223
221 221 221
200 200 200
187 187 187
195 195 195
188 188 188
171 171 171
148 148 148
147 147 147
164 164 164
172 172 172
171 171 171
161 161 161
187 187 187
207 207 207
215 215 215
206 206 206
197 197 197
202 202 202
201 201 201
186 186 186
164 164 164
167 167 167
172 172 172
166 166 166
181 181 181
210 210 210
238 238 238
237 237 237
209 209 209
180 180 180
157 157 157
167 167 167
168 168 168
190 190 190
206 206 206
208 208 208
193 193 193
170 170 170
160 160 160
165 165 165
162 162 162
150 150 150
149 149 149
144 144 144
132 132 132
129 129 129
140 140 140
165 165 165
186 186 186
199 199 199
198 198 198
186 186 186
210 210 210
221 221 221
210 210 210
187 187 187
161 161 161
162 162 162
181 181 181
192 192 192
190 190 190
156 156 156
179 179 179
197 197 197
205 205 205
214 214 214
203 203 203
223 223 223
222 222 222
201 201 201
174 174 174
148 148 148
151 151 151
149 149 149
177 177 177
205 205 205
227 227 227
226 226 226
204 204 204
177 177 177
148 148 148
152 152 152
162 162 162
188 188 188
208 208 208
215 215 215
203 203 203
180 180 180
172 172 172
179 179 179
175 175 175
161 161 161
141 141 141
153 153 153
160 160 160
158 158 158
147 147 147
150 150 150
162 162 162
171 171 171
171 171 171
192 192 192
219 219 219
235 235 235
220 220 220
193 193 193
165 165 165
168 168 168
190 190 190
203 203 203
200 200 200
