P3
50 50
255
116 116 116
135 135 135
151 151 151
159 159 159
158 158 158
149 149 149
138 138 138
140 140 140
135 135 135
123 123 123
129 129 129
145 145 145
155 155 155
156 156 156
149 149 149
143 143 143
130 130 130
120 120 120
105 105 105
102 102 102
129 129 129
155 155 155
178 178 178
195 195 195
200 200 200
191 191 191
171 171 171
147 147 147
121 121 121
114 114 114
140 140 140
163 163 163
182 182 182
192 192 192
189 189 189
174 174 174
184 184 184
198 198 198
199 199 199
185 185 185
164 164 164
158 158 158
148 148 148
132 132 132
112 112 112
99 99 99
109 109 109
113 113 113
111 111 111
104 104 104
131 131 131
153 153 153
172 172 172
182 182 182
182 182 182
170 170 170
164 164 164
167 167 167
160 160 160
145 145 145
142 142 142
160 160 160
171 171 171
175 175 175
178 178 178
170 170 170
153 153 153
132 132 132
110 110 110
124 124 124
132 132 132
151 151 151
173 173 173
188 188 188
193 193 193
185 185 185
166 166 166
143 143 143
119 119 119
127 127 127
153 153 153
180 180 180
205 205 205
220 220 220
215 215 215
194 194 194
201 201 201
222 222 222
222 222 222
202 202 202
179 179 179
179 179 179
169 169 169
151 151 151
128 128 128
124 124 124
135 135 135
141 141 141
138 138 138
129 129 129
140 140 140
165 165 165
186 186 186
200 200 200
199 199 199
184 184 184
187 187 187
191 191 191
182 182 182
163 163 163
148 148 148
167 167 167
184 184 184
202 202 202
206 206 206
193 193 193
172 172 172
147 147 147
133 133 133
150 150 150
160 160 160
161 161 161
158 158 158
171 171 171
175 175 175
168 168 168
153 153 153
145 145 145
141 141 141
136 136 136
158 158 158
187 187 187
216 216 216
244 244 244
232 232 232
203 203 203
204 204 204
227 227 227
228 228 228
206 206 206
203 203 203
204 204 204
189 189 189
167 167 167
141 141 141
145 145 145
160 160 160
167 167 167
164 164 164
152 152 152
143 143 143
168 168 168
190 190 190
204 204 204
203 203 203
188 188 188
203 203 203
208 208 208
196 196 196
175 175 175
149 149 149
171 171 171
198 198 198
222 222 222
229 229 229
210 210 210
183 183 183
155 155 155
153 153 153
174 174 174
187 187 187
189 189 189
179 179 179
172 172 172
164 164 164
149 149 149
158 158 158
163 163 163
159 159 159
147 147 147
154 154 154
182 182 182
208 208 208
226 226 226
220 220 220
197 197 197
192 192 192
209 209 209
211 211 211
213 213 213
218 218 218
219 219 219
200 200 200
175 175 175
147 147 147
163 163 163
181 181 181
190 190 190
186 186 186
171 171 171
163 163 163
183 183 183
194 194 194
193 193 193
192 192 192
186 186 186
205 205 205
210 210 210
198 198 198
176 176 176
150 150 150
171 171 171
198 198 198
222 222 222
229 229 229
210 210 210
183 183 183
155 155 155
168 168 168
193 193 193
212 212 212
215 215 215
199 199 199
199 199 199
188 188 188
168 168 168
169 169 169
175 175 175
171 171 171
157 157 157
143 143 143
167 167 167
187 187 187
203 203 203
216 216 216
209 209 209
188 188 188
195 195 195
214 214 214
217 217 217
213 213 213
213 213 213
196 196 196
172 172 172
153 153 153
173 173 173
194 194 194
206 206 206
201 201 201
183 183 183
177 177 177
202 202 202
219 219 219
215 215 215
195 195 195
175 175 175
191 191 191
195 195 195
185 185 185
166 166 166
155 155 155
161 161 161
185 185 185
202 202 202
206 206 206
194 194 194
172 172 172
161 161 161
173 173 173
201 201 201
225 225 225
230 230 230
216 216 216
222 222 222
206 206 206
183 183 183
189 189 189
183 183 183
172 172 172
159 159 159
155 155 155
160 160 160
185 185 185
211 211 211
227 227 227
218 218 218
194 194 194
187 187 187
200 200 200
202 202 202
192 192 192
192 192 192
184 184 184
188 188 188
180 180 180
174 174 174
195 195 195
206 206 206
201 201 201
183 183 183
182 182 182
209 209 209
230 230 230
225 225 225
201 201 201
173 173 173
169 169 169
172 172 172
169 169 169
174 174 174
168 168 168
154 154 154
163 163 163
176 176 176
178 178 178
172 172 172
182 182 182
180 180 180
173 173 173
194 194 194
214 214 214
217 217 217
221 221 221
227 227 227
209 209 209
207 207 207
218 218 218
208 208 208
186 186 186
175 175 175
184 184 184
183 183 183
193 193 193
214 214 214
220 220 220
206 206 206
186 186 186
205 205 205
224 224 224
221 221 221
199 199 199
190 190 190
210 210 210
217 217 217
204 204 204
180 180 180
182 182 182
191 191 191
187 187 187
172 172 172
175 175 175
198 198 198
213 213 213
210 210 210
191 191 191
167 167 167
146 146 146
159 159 159
173 173 173
178 178 178
175 175 175
170 170 170
156 156 156
148 148 148
172 172 172
195 195 195
210 210 210
208 208 208
191 191 191
176 176 176
190 190 190
192 192 192
204 204 204
208 208 208
195 195 195
222 222 222
242 242 242
223 223 223
195 195 195
198 198 198
213 213 213
210 210 210
192 192 192
208 208 208
214 214 214
200 200 200
182 182 182
209 209 209
231 231 231
226 226 226
206 206 206
201 201 201
229 229 229
245 245 245
219 219 219
190 190 190
161 161 161
168 168 168
165 165 165
154 154 154
159 159 159
177 177 177
187 187 187
185 185 185
172 172 172
152 152 152
169 169 169
186 186 186
193 193 193
187 187 187
194 194 194
188 188 188
171 171 171
154 154 154
183 183 183
211 211 211
236 236 236
231 231 231
205 205 205
176 176 176
166 166 166
166 166 166
179 179 179
181 181 181
189 189 189
214 214 214
228 228 228
215 215 215
190 190 190
212 212 212
238 238 238
232 232 232
205 205 205
189 189 189
192 192 192
183 183 183
173 173 173
196 196 196
210 210 210
230 230 230
229 229 229
205 205 205
222 222 222
232 232 232
213 213 213
186 186 186
158 158 158
143 143 143
140 140 140
136 136 136
137 137 137
152 152 152
159 159 159
158 158 158
150 150 150
160 160 160
187 187 187
211 211 211
223 223 223
212 212 212
203 203 203
195 195 195
176 176 176
153 153 153
182 182 182
209 209 209
232 232 232
228 228 228
203 203 203
198 198 198
192 192 192
175 175 175
153 153 153
153 153 153
174 174 174
192 192 192
200 200 200
193 193 193
182 182 182
209 209 209
231 231 231
226 226 226
202 202 202
174 174 174
166 166 166
159 159 159
156 156 156
179 179 179
207 207 207
230 230 230
228 228 228
205 205 205
198 198 198
203 203 203
192 192 192
172 172 172
147 147 147
128 128 128
125 125 125
135 135 135
119 119 119
137 137 137
149 149 149
159 159 159
174 174 174
180 180 180
194 194 194
224 224 224
249 249 249
226 226 226
196 196 196
189 189 189
172 172 172
162 162 162
170 170 170
192 192 192
206 206 206
204 204 204
208 208 208
222 222 222
213 213 213
190 190 190
164 164 164
151 151 151
169 169 169
178 178 178
178 178 178
166 166 166
173 173 173
191 191 191
204 204 204
201 201 201
185 185 185
162 162 162
138 138 138
133 133 133
142 142 142
168 168 168
191 191 191
206 206 206
205 205 205
189 189 189
170 170 170
173 173 173
166 166 166
167 167 167
158 158 158
142 142 142
130 130 130
140 140 140
117 117 117
134 134 134
151 151 151
175 175 175
194 194 194
202 202 202
194 194 194
213 213 213
227 227 227
215 215 215
190 190 190
172 172 172
159 159 159
163 163 163
157 157 157
168 168 168
177 177 177
187 187 187
213 213 213
229 229 229
219 219 219
194 194 194
166 166 166
166 166 166
187 187 187
200 200 200
199 199 199
185 185 185
186 186 186
208 208 208
218 218 218
206 206 206
184 184 184
157 157 157
133 133 133
153 153 153
168 168 168
173 173 173
169 169 169
178 178 178
178 178 178
167 167 167
159 159 159
180 180 180
193 193 193
195 195 195
183 183 183
162 162 162
157 157 157
164 164 164
118 118 118
129 129 129
156 156 156
182 182 182
203 203 203
213 213 213
203 203 203
190 190 190
197 197 197
191 191 191
173 173 173
150 150 150
151 151 151
160 160 160
178 178 178
187 187 187
184 184 184
178 178 178
199 199 199
210 210 210
204 204 204
184 184 184
159 159 159
172 172 172
196 196 196
212 212 212
211 211 211
193 193 193
188 188 188
211 211 211
221 221 221
209 209 209
185 185 185
158 158 158
151 151 151
175 175 175
194 194 194
203 203 203
196 196 196
177 177 177
154 154 154
144 144 144
172 172 172
198 198 198
218 218 218
220 220 220
201 201 201
176 176 176
184 184 184
193 193 193
137 137 137
142 142 142
153 153 153
177 177 177
197 197 197
205 205 205
197 197 197
178 178 178
168 168 168
163 163 163
150 150 150
132 132 132
150 150 150
176 176 176
199 199 199
213 213 213
208 208 208
189 189 189
177 177 177
184 184 184
180 180 180
165 165 165
154 154 154
169 169 169
191 191 191
206 206 206
204 204 204
188 188 188
183 183 183
196 196 196
203 203 203
195 195 195
176 176 176
169 169 169
162 162 162
190 190 190
216 216 216
232 232 232
219 219 219
193 193 193
165 165 165
147 147 147
176 176 176
204 204 204
228 228 228
230 230 230
208 208 208
183 183 183
208 208 208
222 222 222
152 152 152
157 157 157
154 154 154
163 163 163
178 178 178
184 184 184
179 179 179
163 163 163
142 142 142
135 135 135
125 125 125
127 127 127
156 156 156
184 184 184
211 211 211
230 230 230
223 223 223
198 198 198
191 191 191
184 184 184
167 167 167
145 145 145
148 148 148
157 157 157
175 175 175
186 186 186
185 185 185
202 202 202
212 212 212
204 204 204
184 184 184
174 174 174
178 178 178
171 171 171
164 164 164
193 193 193
222 222 222
247 247 247
226 226 226
197 197 197
171 171 171
153 153 153
169 169 169
194 194 194
212 212 212
213 213 213
201 201 201
194 194 194
220 220 220
249 249 249
159 159 159
165 165 165
161 161 161
149 149 149
155 155 155
159 159 159
155 155 155
143 143 143
126 126 126
106 106 106
117 117 117
127 127 127
153 153 153
180 180 180
204 204 204
220 220 220
214 214 214
209 209 209
219 219 219
207 207 207
184 184 184
158 158 158
134 134 134
142 142 142
152 152 152
163 163 163
192 192 192
220 220 220
240 240 240
224 224 224
196 196 196
179 179 179
171 171 171
162 162 162
157 157 157
184 184 184
206 206 206
218 218 218
208 208 208
207 207 207
193 193 193
170 170 170
154 154 154
174 174 174
186 186 186
206 206 206
218 218 218
209 209 209
211 211 211
227 227 227
158 158 158
164 164 164
160 160 160
151 151 151
167 167 167
174 174 174
171 171 171
158 158 158
139 139 139
125 125 125
143 143 143
155 155 155
160 160 160
166 166 166
185 185 185
195 195 195
195 195 195
222 222 222
238 238 238
220 220 220
192 192 192
163 163 163
134 134 134
123 123 123
133 133 133
162 162 162
191 191 191
218 218 218
236 236 236
221 221 221
202 202 202
181 181 181
173 173 173
172 172 172
164 164 164
165 165 165
181 181 181
201 201 201
224 224 224
226 226 226
206 206 206
179 179 179
158 158 158
156 156 156
182 182 182
204 204 204
215 215 215
207 207 207
188 188 188
198 198 198
148 148 148
153 153 153
169 169 169
177 177 177
176 176 176
184 184 184
180 180 180
166 166 166
146 146 146
145 145 145
167 167 167
183 183 183
189 189 189
183 183 183
166 166 166
167 167 167
189 189 189
212 212 212
223 223 223
211 211 211
187 187 187
160 160 160
131 131 131
112 112 112
126 126 126
153 153 153
178 178 178
198 198 198
207 207 207
211 211 211
198 198 198
176 176 176
191 191 191
195 195 195
185 185 185
166 166 166
172 172 172
198 198 198
219 219 219
221 221 221
203 203 203
177 177 177
172 172 172
163 163 163
179 179 179
200 200 200
209 209 209
201 201 201
182 182 182
168 168 168
146 146 146
171 171 171
191 191 191
202 202 202
198 198 198
205 205 205
200 200 200
183 183 183
159 159 159
159 159 159
186 186 186
208 208 208
218 218 218
208 208 208
185 185 185
159 159 159
172 172 172
190 190 190
196 196 196
188 188 188
170 170 170
147 147 147
122 122 122
100 100 100
116 116 116
136 136 136
157 157 157
172 172 172
187 187 187
191 191 191
182 182 182
187 187 187
205 205 205
210 210 210
198 198 198
175 175 175
167 167 167
183 183 183
197 197 197
199 199 199
186 186 186
174 174 174
175 175 175
166 166 166
179 179 179
200 200 200
210 210 210
202 202 202
182 182 182
157 157 157
153 153 153
181 181 181
205 205 205
220 220 220
214 214 214
232 232 232
223 223 223
198 198 198
170 170 170
166 166 166
195 195 195
224 224 224
246 246 246
224 224 224
195 195 195
166 166 166
157 157 157
163 163 163
167 167 167
162 162 162
148 148 148
129 129 129
107 107 107
108 108 108
126 126 126
140 140 140
147 147 147
151 151 151
163 163 163
166 166 166
162 162 162
186 186 186
204 204 204
209 209 209
196 196 196
185 185 185
180 180 180
165 165 165
171 171 171
172 172 172
162 162 162
167 167 167
170 170 170
171 171 171
169 169 169
186 186 186
194 194 194
188 188 188
171 171 171
149 149 149
153 153 153
179 179 179
203 203 203
218 218 218
215 215 215
236 236 236
226 226 226
199 199 199
171 171 171
163 163 163
191 191 191
217 217 217
231 231 231
217 217 217
191 191 191
179 179 179
179 179 179
169 169 169
151 151 151
134 134 134
124 124 124
122 122 122
124 124 124
118 118 118
130 130 130
144 144 144
151 151 151
150 150 150
143 143 143
138 138 138
152 152 152
173 173 173
188 188 188
192 192 192
182 182 182
188 188 188
182 182 182
166 166 166
152 152 152
165 165 165
172 172 172
190 190 190
199 199 199
193 193 193
176 176 176
165 165 165
170 170 170
166 166 166
159 159 159
148 148 148
158 158 158
169 169 169
187 187 187
197 197 197
198 198 198
211 211 211
206 206 206
187 187 187
167 167 167
154 154 154
176 176 176
194 194 194
202 202 202
194 194 194
181 181 181
194 194 194
194 194 194
181 181 181
161 161 161
136 136 136
131 131 131
139 139 139
141 141 141
135 135 135
127 127 127
140 140 140
147 147 147
148 148 148
141 141 141
138 138 138
159 159 159
174 174 174
181 181 181
178 178 178
181 181 181
178 178 178
173 173 173
158 158 158
172 172 172
189 189 189
195 195 195
213 213 213
228 228 228
217 217 217
192 192 192
165 165 165
153 153 153
159 159 159
157 157 157
146 146 146
178 178 178
193 193 193
195 195 195
184 184 184
174 174 174
182 182 182
182 182 182
190 190 190
185 185 185
171 171 171
162 162 162
167 167 167
173 173 173
167 167 167
183 183 183
196 196 196
197 197 197
184 184 184
163 163 163
138 138 138
141 141 141
150 150 150
155 155 155
151 151 151
139 139 139
130 130 130
137 137 137
138 138 138
132 132 132
147 147 147
171 171 171
189 189 189
198 198 198
192 192 192
180 180 180
172 172 172
156 156 156
160 160 160
186 186 186
207 207 207
216 216 216
221 221 221
245 245 245
226 226 226
198 198 198
169 169 169
143 143 143
149 149 149
146 146 146
156 156 156
191 191 191
209 209 209
213 213 213
198 198 198
175 175 175
171 171 171
190 190 190
199 199 199
204 204 204
197 197 197
178 178 178
154 154 154
158 158 158
177 177 177
189 189 189
188 188 188
186 186 186
174 174 174
155 155 155
137 137 137
158 158 158
173 173 173
179 179 179
174 174 174
160 160 160
140 140 140
129 129 129
131 131 131
126 126 126
149 149 149
173 173 173
193 193 193
202 202 202
195 195 195
177 177 177
162 162 162
147 147 147
162 162 162
188 188 188
211 211 211
220 220 220
208 208 208
220 220 220
211 211 211
189 189 189
162 162 162
135 135 135
132 132 132
139 139 139
166 166 166
191 191 191
210 210 210
213 213 213
198 198 198
175 175 175
167 167 167
189 189 189
214 214 214
230 230 230
218 218 218
193 193 193
165 165 165
174 174 174
199 199 199
216 216 216
214 214 214
195 195 195
170 170 170
144 144 144
148 148 148
172 172 172
190 190 190
198 198 198
192 192 192
175 175 175
151 151 151
147 147 147
149 149 149
144 144 144
154 154 154
172 172 172
183 183 183
190 190 190
185 185 185
169 169 169
147 147 147
148 148 148
173 173 173
194 194 194
205 205 205
204 204 204
195 195 195
191 191 191
186 186 186
175 175 175
168 168 168
153 153 153
133 133 133
139 139 139
166 166 166
179 179 179
194 194 194
196 196 196
185 185 185
184 184 184
178 178 178
190 190 190
217 217 217
235 235 235
221 221 221
195 195 195
176 176 176
182 182 182
210 210 210
235 235 235
232 232 232
206 206 206
177 177 177
150 150 150
152 152 152
177 177 177
197 197 197
206 206 206
199 199 199
180 180 180
156 156 156
158 158 158
161 161 161
155 155 155
170 170 170
192 192 192
205 205 205
202 202 202
186 186 186
162 162 162
136 136 136
156 156 156
183 183 183
208 208 208
223 223 223
215 215 215
193 193 193
174 174 174
191 191 191
196 196 196
187 187 187
168 168 168
145 145 145
132 132 132
157 157 157
159 159 159
170 170 170
181 181 181
201 201 201
209 209 209
200 200 200
180 180 180
201 201 201
211 211 211
203 203 203
183 183 183
179 179 179
177 177 177
203 203 203
223 223 223
221 221 221
200 200 200
173 173 173
147 147 147
148 148 148
171 171 171
190 190 190
198 198 198
191 191 191
174 174 174
170 170 170
162 162 162
165 165 165
158 158 158
177 177 177
202 202 202
218 218 218
215 215 215
195 195 195
169 169 169
156 156 156
156 156 156
182 182 182
206 206 206
220 220 220
213 213 213
191 191 191
182 182 182
200 200 200
206 206 206
196 196 196
175 175 175
150 150 150
154 154 154
157 157 157
135 135 135
162 162 162
189 189 189
213 213 213
224 224 224
212 212 212
187 187 187
176 176 176
183 183 183
188 188 188
187 187 187
174 174 174
163 163 163
184 184 184
196 196 196
195 195 195
181 181 181
160 160 160
142 142 142
146 146 146
157 157 157
172 172 172
178 178 178
189 189 189
201 201 201
197 197 197
181 181 181
159 159 159
153 153 153
173 173 173
196 196 196
211 211 211
208 208 208
190 190 190
169 169 169
180 180 180
180 180 180
169 169 169
189 189 189
198 198 198
194 194 194
177 177 177
177 177 177
195 195 195
200 200 200
191 191 191
171 171 171
165 165 165
179 179 179
182 182 182
131 131 131
159 159 159
185 185 185
206 206 206
215 215 215
205 205 205
183 183 183
174 174 174
179 179 179
191 191 191
190 190 190
177 177 177
157 157 157
159 159 159
168 168 168
167 167 167
157 157 157
140 140 140
149 149 149
169 169 169
183 183 183
186 186 186
183 183 183
210 210 210
229 229 229
222 222 222
198 198 198
171 171 171
142 142 142
160 160 160
179 179 179
189 189 189
187 187 187
174 174 174
185 185 185
198 198 198
198 198 198
184 184 184
165 165 165
172 172 172
169 169 169
156 156 156
163 163 163
177 177 177
182 182 182
179 179 179
167 167 167
182 182 182
199 199 199
204 204 204
122 122 122
147 147 147
170 170 170
186 186 186
192 192 192
185 185 185
180 180 180
183 183 183
174 174 174
182 182 182
181 181 181
170 170 170
168 168 168
157 157 157
139 139 139
139 139 139
131 131 131
137 137 137
164 164 164
189 189 189
208 208 208
212 212 212
199 199 199
216 216 216
242 242 242
231 231 231
203 203 203
174 174 174
145 145 145
141 141 141
156 156 156
163 163 163
162 162 162
167 167 167
190 190 190
205 205 205
205 205 205
189 189 189
167 167 167
144 144 144
141 141 141
146 146 146
172 172 172
195 195 195
209 209 209
207 207 207
189 189 189
188 188 188
208 208 208
215 215 215
108 108 108
130 130 130
148 148 148
161 161 161
165 165 165
165 165 165
178 178 178
180 180 180
172 172 172
163 163 163
171 171 171
180 180 180
178 178 178
165 165 165
146 146 146
149 149 149
147 147 147
154 154 154
170 170 170
198 198 198
222 222 222
229 229 229
210 210 210
202 202 202
217 217 217
212 212 212
192 192 192
167 167 167
139 139 139
137 137 137
137 137 137
136 136 136
137 137 137
161 161 161
182 182 182
195 195 195
195 195 195
182 182 182
161 161 161
137 137 137
134 134 134
154 154 154
183 183 183
211 211 211
236 236 236
231 231 231
204 204 204
182 182 182
200 200 200
206 206 206
89 89 89
108 108 108
124 124 124
134 134 134
152 152 152
164 164 164
168 168 168
167 167 167
160 160 160
153 153 153
170 170 170
179 179 179
177 177 177
164 164 164
167 167 167
175 175 175
173 173 173
177 177 177
194 194 194
200 200 200
214 214 214
220 220 220
204 204 204
180 180 180
188 188 188
186 186 186
172 172 172
151 151 151
131 131 131
139 139 139
139 139 139
132 132 132
125 125 125
147 147 147
165 165 165
175 175 175
175 175 175
165 165 165
155 155 155
161 161 161
158 158 158
154 154 154
183 183 183
211 211 211
235 235 235
230 230 230
204 204 204
176 176 176
181 181 181
184 184 184
110 110 110
123 123 123
130 130 130
131 131 131
143 143 143
154 154 154
157 157 157
152 152 152
142 142 142
144 144 144
159 159 159
167 167 167
165 165 165
167 167 167
187 187 187
198 198 198
195 195 195
194 194 194
219 219 219
229 229 229
212 212 212
195 195 195
185 185 185
166 166 166
159 159 159
157 157 157
147 147 147
140 140 140
156 156 156
166 166 166
166 166 166
157 157 157
141 141 141
158 158 158
170 170 170
172 172 172
165 165 165
157 157 157
174 174 174
181 181 181
178 178 178
164 164 164
171 171 171
194 194 194
208 208 208
206 206 206
191 191 191
174 174 174
156 156 156
159 159 159
128 128 128
144 144 144
153 153 153
153 153 153
146 146 146
137 137 137
140 140 140
135 135 135
128 128 128
129 129 129
142 142 142
150 150 150
162 162 162
175 175 175
198 198 198
211 211 211
207 207 207
199 199 199
228 228 228
245 245 245
220 220 220
191 191 191
162 162 162
149 149 149
147 147 147
157 157 157
165 165 165
164 164 164
177 177 177
190 190 190
191 191 191
179 179 179
159 159 159
179 179 179
195 195 195
199 199 199
188 188 188
168 168 168
185 185 185
194 194 194
189 189 189
174 174 174
153 153 153
170 170 170
181 181 181
188 188 188
183 183 183
168 168 168
154 154 154
145 145 145
142 142 142
160 160 160
170 170 170
171 171 171
162 162 162
149 149 149
159 159 159
160 160 160
153 153 153
139 139 139
151 151 151
173 173 173
189 189 189
194 194 194
195 195 195
207 207 207
203 203 203
189 189 189
211 211 211
219 219 219
206 206 206
183 183 183
169 169 169
172 172 172
169 169 169
182 182 182
194 194 194
192 192 192
192 192 192
208 208 208
209 209 209
194 194 194
170 170 170
193 193 193
214 214 214
219 219 219
204 204 204
193 193 193
189 189 189
193 193 193
189 189 189
176 176 176
158 158 158
150 150 150
164 164 164
170 170 170
165 165 165
153 153 153
146 146 146
138 138 138
149 149 149
168 168 168
180 180 180
181 181 181
171 171 171
169 169 169
182 182 182
184 184 184
175 175 175
157 157 157
165 165 165
191 191 191
214 214 214
223 223 223
209 209 209
198 198 198
190 190 190
173 173 173
193 193 193
209 209 209
210 210 210
204 204 204
195 195 195
190 190 190
186 186 186
203 203 203
220 220 220
217 217 217
196 196 196
212 212 212
212 212 212
196 196 196
174 174 174
194 194 194
216 216 216
221 221 221
206 206 206
222 222 222
215 215 215
204 204 204
208 208 208
195 195 195
173 173 173
153 153 153
150 150 150
146 146 146
143 143 143
132 132 132
132 132 132
126 126 126
148 148 148
167 167 167
179 179 179
180 180 180
170 170 170
183 183 183
199 199 199
201 201 201
189 189 189
169 169 169
170 170 170
199 199 199
227 227 227
244 244 244
219 219 219
227 227 227
214 214 214
189 189 189
190 190 190
206 206 206
220 220 220
234 234 234
217 217 217
197 197 197
193 193 193
211 211 211
234 234 234
229 229 229
203 203 203
197 197 197
198 198 198
185 185 185
172 172 172
182 182 182
199 199 199
203 203 203
218 218 218
247 247 247
232 232 232
214 214 214
218 218 218
202 202 202
178 178 178
151 151 151
146 146 146
136 136 136
120 120 120
113 113 113
119 119 119
125 125 125
140 140 140
157 157 157
167 167 167
168 168 168
162 162 162
186 186 186
203 203 203
206 206 206
193 193 193
171 171 171
165 165 165
192 192 192
215 215 215
223 223 223
224 224 224
247 247 247
224 224 224
195 195 195
176 176 176
197 197 197
226 226 226
245 245 245
221 221 221
193 193 193
186 186 186
201 201 201
218 218 218
215 215 215
195 195 195
174 174 174
174 174 174
165 165 165
161 161 161
170 170 170
186 186 186
192 192 192
209 209 209
226 226 226
219 219 219
204 204 204
208 208 208
194 194 194
172 172 172
147 147 147
135 135 135
129 129 129
135 135 135
134 134 134
140 140 140
145 145 145
125 125 125
139 139 139
148 148 148
149 149 149
155 155 155
177 177 177
191 191 191
194 194 194
183 183 183
164 164 164
151 151 151
174 174 174
190 190 190
195 195 195
211 211 211
222 222 222
210 210 210
187 187 187
160 160 160
186 186 186
208 208 208
216 216 216
205 205 205
182 182 182
169 169 169
180 180 180
191 191 191
189 189 189
176 176 176
155 155 155
148 148 148
140 140 140
142 142 142
154 154 154
168 168 168
172 172 172
187 187 187
198 198 198
194 194 194
183 183 183
185 185 185
176 176 176
158 158 158
135 135 135
142 142 142
157 157 157
164 164 164
162 162 162
156 156 156
163 163 163
105 105 105
118 118 118
125 125 125
126 126 126
141 141 141
159 159 159
170 170 170
172 172 172
164 164 164
148 148 148
132 132 132
150 150 150
162 162 162
169 169 169
186 186 186
193 193 193
186 186 186
175 175 175
182 182 182
178 178 178
181 181 181
187 187 187
180 180 180
163 163 163
175 175 175
187 187 187
187 187 187
176 176 176
159 159 159
160 160 160
153 153 153
142 142 142
157 157 157
167 167 167
170 170 170
162 162 162
166 166 166
168 168 168
166 166 166
157 157 157
159 159 159
152 152 152
137 137 137
139 139 139
163 163 163
182 182 182
192 192 192
189 189 189
175 175 175
173 173 173
83 83 83
94 94 94
100 100 100
107 107 107
122 122 122
137 137 137
146 146 146
147 147 147
141 141 141
128 128 128
139 139 139
160 160 160
176 176 176
182 182 182
177 177 177
163 163 163
172 172 172
192 192 192
202 202 202
197 197 197
180 180 180
162 162 162
152 152 152
158 158 158
179 179 179
192 192 192
192 192 192
180 180 180
187 187 187
189 189 189
179 179 179
160 160 160
175 175 175
190 190 190
193 193 193
184 184 184
176 176 176
177 177 177
167 167 167
158 158 158
142 142 142
125 125 125
124 124 124
151 151 151
178 178 178
202 202 202
218 218 218
214 214 214
193 193 193
172 172 172
73 73 73
94 94 94
112 112 112
126 126 126
134 134 134
139 139 139
142 142 142
144 144 144
139 139 139
128 128 128
154 154 154
180 180 180
201 201 201
211 211 211
203 203 203
183 183 183
177 177 177
199 199 199
210 210 210
204 204 204
192 192 192
179 179 179
159 159 159
166 166 166
179 179 179
184 184 184
184 184 184
195 195 195
215 215 215
218 218 218
202 202 202
177 177 177
186 186 186
205 205 205
210 210 210
197 197 197
176 176 176
182 182 182
182 182 182
172 172 172
154 154 154
131 131 131
126 126 126
155 155 155
184 184 184
211 211 211
233 233 233
226 226 226
201 201 201
173 173 173
83 83 83
106 106 106
125 125 125
141 141 141
150 150 150
153 153 153
166 166 166
170 170 170
164 164 164
150 150 150
163 163 163
191 191 191
219 219 219
238 238 238
222 222 222
195 195 195
171 171 171
191 191 191
200 200 200
203 203 203
203 203 203
188 188 188
165 165 165
172 172 172
186 186 186
189 189 189
180 180 180
206 206 206
235 235 235
243 243 243
214 214 214
185 185 185
186 186 186
205 205 205
209 209 209
197 197 197
175 175 175
187 187 187
188 188 188
176 176 176
157 157 157
134 134 134
128 128 128
151 151 151
178 178 178
202 202 202
217 217 217
213 213 213
193 193 193
167 167 167
88 88 88
112 112 112
132 132 132
149 149 149
158 158 158
171 171 171
187 187 187
193 193 193
185 185 185
167 167 167
166 166 166
190 190 190
217 217 217
234 234 234
220 220 220
194 194 194
166 166 166
172 172 172
185 185 185
198 198 198
198 198 198
184 184 184
162 162 162
168 168 168
181 181 181
184 184 184
175 175 175
200 200 200
224 224 224
228 228 228
208 208 208
181 181 181
174 174 174
189 189 189
193 193 193
183 183 183
168 168 168
180 180 180
180 180 180
170 170 170
152 152 152
131 131 131
138 138 138
144 144 144
162 162 162
181 181 181
191 191 191
189 189 189
174 174 174
153 153 153
97 97 97
112 112 112
132 132 132
149 149 149
158 158 158
181 181 181
200 200 200
207 207 207
197 197 197
177 177 177
173 173 173
185 185 185
198 198 198
218 218 218
223 223 223
206 206 206
181 181 181
153 153 153
170 170 170
181 181 181
181 181 181
170 170 170
153 153 153
155 155 155
166 166 166
169 169 169
161 161 161
182 182 182
198 198 198
200 200 200
197 197 197
185 185 185
165 165 165
167 167 167
169 169 169
167 167 167
164 164 164
175 175 175
185 185 185
184 184 184
172 172 172
152 152 152
141 141 141
148 148 148
146 146 146
156 156 156
163 163 163
161 161 161
151 151 151
134 134 134
116 116 116
132 132 132
142 142 142
145 145 145
156 156 156
180 180 180
199 199 199
206 206 206
196 196 196
177 177 177
195 195 195
201 201 201
204 204 204
233 233 233
246 246 246
217 217 217
187 187 187
158 158 158
149 149 149
166 166 166
178 178 178
179 179 179
170 170 170
152 152 152
145 145 145
147 147 147
141 141 141
164 164 164
187 187 187
204 204 204
206 206 206
192 192 192
170 170 170
153 153 153
169 169 169
176 176 176
173 173 173
197 197 197
213 213 213
212 212 212
194 194 194
169 169 169
156 156 156
152 152 152
142 142 142
133 133 133
134 134 134
133 133 133
129 129 129
129 129 129
132 132 132
150 150 150
162 162 162
166 166 166
169 169 169
169 169 169
184 184 184
189 189 189
182 182 182
186 186 186
208 208 208
217 217 217
206 206 206
219 219 219
224 224 224
207 207 207
184 184 184
172 172 172
159 159 159
181 181 181
196 196 196
197 197 197
185 185 185
165 165 165
161 161 161
153 153 153
137 137 137
159 159 159
181 181 181
196 196 196
198 198 198
186 186 186
165 165 165
152 152 152
168 168 168
175 175 175
182 182 182
211 211 211
237 237 237
233 233 233
206 206 206
177 177 177
168 168 168
163 163 163
150 150 150
131 131 131
136 136 136
151 151 151
158 158 158
157 157 157
143 143 143
163 163 163
177 177 177
191 191 191
198 198 198
189 189 189
179 179 179
179 179 179
167 167 167
184 184 184
204 204 204
213 213 213
202 202 202
192 192 192
196 196 196
209 209 209
209 209 209
193 193 193
169 169 169
186 186 186
202 202 202
203 203 203
190 190 190
174 174 174
175 175 175
165 165 165
148 148 148
147 147 147
166 166 166
177 177 177
179 179 179
177 177 177
171 171 171
156 156 156
158 158 158
164 164 164
180 180 180
207 207 207
228 228 228
226 226 226
202 202 202
190 190 190
197 197 197
190 190 190
173 173 173
150 150 150
158 158 158
176 176 176
186 186 186
185 185 185
146 146 146
166 166 166
191 191 191
215 215 215
226 226 226
212 212 212
208 208 208
207 207 207
190 190 190
170 170 170
187 187 187
193 193 193
185 185 185
177 177 177
204 204 204
226 226 226
226 226 226
204 204 204
177 177 177
178 178 178
192 192 192
194 194 194
182 182 182
178 178 178
179 179 179
169 169 169
152 152 152
136 136 136
144 144 144
159 159 159
173 173 173
178 178 178
172 172 172
157 157 157
141 141 141
146 146 146
167 167 167
188 188 188
202 202 202
200 200 200
188 188 188
213 213 213
226 226 226
214 214 214
190 190 190
162 162 162
174 174 174
198 198 198
213 213 213
210 210 210
141 141 141
168 168 168
197 197 197
225 225 225
243 243 243
221 221 221
234 234 234
232 232 232
206 206 206
178 178 178
163 163 163
167 167 167
162 162 162
174 174 174
200 200 200
219 219 219
218 218 218
199 199 199
174 174 174
162 162 162
173 173 173
174 174 174
172 172 172
188 188 188
193 193 193
184 184 184
166 166 166
145 145 145
150 150 150
151 151 151
163 163 163
168 168 168
162 162 162
162 162 162
160 160 160
150 150 150
161 161 161
171 171 171
173 173 173
172 172 172
194 194 194
223 223 223
244 244 244
224 224 224
195 195 195
166 166 166
182 182 182
209 209 209
230 230 230
226 226 226
