P3
50 50
255
103 103 103
128 128 128
152 152 152
171 171 171
184 184 184
185 185 185
175 175 175
156 156 156
180 180 180
205 205 205
221 221 221
215 215 215
194 194 194
168 168 168
140 140 140
145 145 145
159 159 159
165 165 165
161 161 161
149 149 149
132 132 132
118 118 118
135 135 135
147 147 147
151 151 151
148 148 148
137 137 137
130 130 130
150 150 150
164 164 164
171 171 171
167 167 167
154 154 154
136 136 136
137 137 137
160 160 160
178 178 178
188 188 188
186 186 186
173 173 173
152 152 152
128 128 128
105 105 105
102 102 102
111 111 111
115 115 115
113 113 113
126 126 126
138 138 138
144 144 144
107 107 107
134 134 134
158 158 158
180 180 180
194 194 194
195 195 195
183 183 183
163 163 163
176 176 176
198 198 198
212 212 212
207 207 207
188 188 188
164 164 164
137 137 137
147 147 147
161 161 161
167 167 167
164 164 164
151 151 151
133 133 133
120 120 120
138 138 138
155 155 155
165 165 165
166 166 166
158 158 158
143 143 143
151 151 151
166 166 166
173 173 173
169 169 169
156 156 156
137 137 137
147 147 147
173 173 173
195 195 195
208 208 208
205 205 205
188 188 188
164 164 164
138 138 138
130 130 130
128 128 128
139 139 139
144 144 144
142 142 142
132 132 132
137 137 137
143 143 143
106 106 106
132 132 132
156 156 156
177 177 177
190 190 190
191 191 191
180 180 180
161 161 161
168 168 168
183 183 183
189 189 189
186 186 186
172 172 172
151 151 151
127 127 127
141 141 141
154 154 154
160 160 160
157 157 157
145 145 145
128 128 128
131 131 131
155 155 155
176 176 176
190 190 190
192 192 192
181 181 181
166 166 166
170 170 170
165 165 165
165 165 165
161 161 161
149 149 149
131 131 131
149 149 149
176 176 176
200 200 200
215 215 215
211 211 211
192 192 192
167 167 167
162 162 162
152 152 152
153 153 153
167 167 167
173 173 173
169 169 169
157 157 157
138 138 138
135 135 135
98 98 98
123 123 123
146 146 146
164 164 164
175 175 175
176 176 176
167 167 167
150 150 150
164 164 164
178 178 178
181 181 181
174 174 174
157 157 157
136 136 136
112 112 112
128 128 128
140 140 140
145 145 145
142 142 142
132 132 132
116 116 116
140 140 140
166 166 166
191 191 191
209 209 209
212 212 212
197 197 197
189 189 189
196 196 196
188 188 188
170 170 170
147 147 147
135 135 135
119 119 119
144 144 144
169 169 169
189 189 189
202 202 202
199 199 199
183 183 183
183 183 183
182 182 182
170 170 170
178 178 178
192 192 192
201 201 201
196 196 196
178 178 178
155 155 155
129 129 129
97 97 97
122 122 122
146 146 146
166 166 166
179 179 179
183 183 183
175 175 175
158 158 158
151 151 151
163 163 163
166 166 166
159 159 159
145 145 145
126 126 126
111 111 111
126 126 126
136 136 136
138 138 138
134 134 134
123 123 123
113 113 113
141 141 141
169 169 169
194 194 194
213 213 213
216 216 216
200 200 200
207 207 207
216 216 216
205 205 205
183 183 183
157 157 157
132 132 132
124 124 124
131 131 131
153 153 153
170 170 170
179 179 179
177 177 177
184 184 184
196 196 196
194 194 194
188 188 188
199 199 199
211 211 211
226 226 226
217 217 217
193 193 193
166 166 166
138 138 138
105 105 105
133 133 133
159 159 159
183 183 183
201 201 201
206 206 206
194 194 194
173 173 173
148 148 148
142 142 142
144 144 144
143 143 143
135 135 135
121 121 121
133 133 133
151 151 151
164 164 164
167 167 167
161 161 161
147 147 147
132 132 132
143 143 143
161 161 161
183 183 183
199 199 199
201 201 201
189 189 189
209 209 209
218 218 218
207 207 207
184 184 184
163 163 163
160 160 160
150 150 150
134 134 134
132 132 132
146 146 146
152 152 152
163 163 163
183 183 183
195 195 195
193 193 193
196 196 196
208 208 208
214 214 214
232 232 232
221 221 221
196 196 196
168 168 168
139 139 139
109 109 109
137 137 137
165 165 165
190 190 190
211 211 211
217 217 217
203 203 203
180 180 180
167 167 167
164 164 164
169 169 169
168 168 168
158 158 158
140 140 140
152 152 152
174 174 174
191 191 191
196 196 196
188 188 188
169 169 169
155 155 155
170 170 170
176 176 176
171 171 171
176 176 176
178 178 178
176 176 176
194 194 194
201 201 201
199 199 199
197 197 197
191 191 191
189 189 189
175 175 175
154 154 154
130 130 130
123 123 123
148 148 148
169 169 169
184 184 184
189 189 189
181 181 181
190 190 190
201 201 201
199 199 199
211 211 211
204 204 204
185 185 185
160 160 160
133 133 133
106 106 106
134 134 134
161 161 161
185 185 185
203 203 203
209 209 209
197 197 197
187 187 187
196 196 196
191 191 191
190 190 190
189 189 189
175 175 175
155 155 155
164 164 164
191 191 191
214 214 214
224 224 224
210 210 210
185 185 185
173 173 173
193 193 193
201 201 201
195 195 195
177 177 177
154 154 154
157 157 157
174 174 174
198 198 198
213 213 213
210 210 210
220 220 220
216 216 216
195 195 195
169 169 169
142 142 142
134 134 134
161 161 161
186 186 186
206 206 206
213 213 213
201 201 201
179 179 179
181 181 181
179 179 179
183 183 183
179 179 179
165 165 165
147 147 147
125 125 125
99 99 99
124 124 124
148 148 148
169 169 169
183 183 183
187 187 187
185 185 185
210 210 210
224 224 224
215 215 215
202 202 202
200 200 200
185 185 185
162 162 162
168 168 168
197 197 197
224 224 224
239 239 239
218 218 218
190 190 190
184 184 184
208 208 208
220 220 220
211 211 211
189 189 189
162 162 162
146 146 146
172 172 172
195 195 195
209 209 209
214 214 214
242 242 242
234 234 234
205 205 205
176 176 176
146 146 146
137 137 137
165 165 165
192 192 192
215 215 215
224 224 224
210 210 210
185 185 185
166 166 166
188 188 188
203 203 203
202 202 202
188 188 188
166 166 166
140 140 140
119 119 119
138 138 138
152 152 152
158 158 158
158 158 158
162 162 162
191 191 191
219 219 219
241 241 241
226 226 226
199 199 199
198 198 198
183 183 183
161 161 161
163 163 163
189 189 189
211 211 211
219 219 219
206 206 206
183 183 183
183 183 183
207 207 207
219 219 219
210 210 210
188 188 188
162 162 162
160 160 160
160 160 160
179 179 179
190 190 190
207 207 207
226 226 226
222 222 222
199 199 199
172 172 172
143 143 143
133 133 133
160 160 160
185 185 185
205 205 205
212 212 212
200 200 200
179 179 179
178 178 178
205 205 205
228 228 228
228 228 228
205 205 205
178 178 178
149 149 149
134 134 134
156 156 156
173 173 173
181 181 181
179 179 179
166 166 166
183 183 183
207 207 207
221 221 221
212 212 212
190 190 190
182 182 182
170 170 170
150 150 150
172 172 172
194 194 194
207 207 207
203 203 203
186 186 186
166 166 166
172 172 172
190 190 190
199 199 199
193 193 193
191 191 191
180 180 180
185 185 185
185 185 185
173 173 173
166 166 166
186 186 186
198 198 198
195 195 195
180 180 180
158 158 158
133 133 133
123 123 123
148 148 148
173 173 173
193 193 193
205 205 205
200 200 200
182 182 182
180 180 180
208 208 208
234 234 234
234 234 234
208 208 208
179 179 179
150 150 150
143 143 143
167 167 167
187 187 187
198 198 198
195 195 195
179 179 179
166 166 166
184 184 184
192 192 192
187 187 187
171 171 171
159 159 159
150 150 150
152 152 152
180 180 180
205 205 205
221 221 221
216 216 216
195 195 195
169 169 169
152 152 152
172 172 172
197 197 197
217 217 217
218 218 218
200 200 200
204 204 204
204 204 204
188 188 188
166 166 166
161 161 161
169 169 169
167 167 167
156 156 156
139 139 139
130 130 130
131 131 131
151 151 151
177 177 177
199 199 199
212 212 212
207 207 207
187 187 187
170 170 170
194 194 194
211 211 211
211 211 211
194 194 194
170 170 170
155 155 155
145 145 145
170 170 170
190 190 190
202 202 202
198 198 198
182 182 182
169 169 169
176 176 176
172 172 172
160 160 160
148 148 148
134 134 134
146 146 146
151 151 151
176 176 176
199 199 199
214 214 214
210 210 210
191 191 191
166 166 166
148 148 148
178 178 178
206 206 206
233 233 233
235 235 235
210 210 210
210 210 210
210 210 210
193 193 193
169 169 169
153 153 153
152 152 152
159 159 159
167 167 167
166 166 166
156 156 156
147 147 147
162 162 162
171 171 171
191 191 191
201 201 201
197 197 197
180 180 180
157 157 157
172 172 172
183 183 183
183 183 183
180 180 180
174 174 174
159 159 159
139 139 139
162 162 162
181 181 181
190 190 190
187 187 187
173 173 173
164 164 164
170 170 170
166 166 166
153 153 153
135 135 135
145 145 145
158 158 158
164 164 164
163 163 163
182 182 182
192 192 192
189 189 189
175 175 175
154 154 154
145 145 145
173 173 173
199 199 199
219 219 219
221 221 221
202 202 202
198 198 198
198 198 198
184 184 184
168 168 168
177 177 177
177 177 177
184 184 184
196 196 196
194 194 194
180 180 180
159 159 159
173 173 173
182 182 182
180 180 180
180 180 180
177 177 177
163 163 163
144 144 144
146 146 146
155 155 155
169 169 169
174 174 174
169 169 169
155 155 155
126 126 126
147 147 147
162 162 162
174 174 174
182 182 182
178 178 178
164 164 164
156 156 156
152 152 152
141 141 141
129 129 129
149 149 149
163 163 163
168 168 168
164 164 164
158 158 158
165 165 165
164 164 164
167 167 167
161 161 161
146 146 146
158 158 158
179 179 179
193 193 193
194 194 194
182 182 182
182 182 182
187 187 187
180 180 180
185 185 185
198 198 198
197 197 197
204 204 204
222 222 222
220 220 220
199 199 199
172 172 172
175 175 175
184 184 184
181 181 181
168 168 168
152 152 152
141 141 141
125 125 125
124 124 124
142 142 142
155 155 155
159 159 159
155 155 155
142 142 142
122 122 122
149 149 149
174 174 174
195 195 195
206 206 206
201 201 201
183 183 183
159 159 159
137 137 137
129 129 129
126 126 126
144 144 144
158 158 158
163 163 163
160 160 160
154 154 154
176 176 176
192 192 192
197 197 197
187 187 187
168 168 168
144 144 144
155 155 155
165 165 165
165 165 165
181 181 181
200 200 200
207 207 207
197 197 197
192 192 192
207 207 207
206 206 206
211 211 211
236 236 236
232 232 232
205 205 205
177 177 177
166 166 166
174 174 174
172 172 172
160 160 160
149 149 149
138 138 138
121 121 121
109 109 109
124 124 124
135 135 135
145 145 145
147 147 147
141 141 141
127 127 127
155 155 155
182 182 182
206 206 206
221 221 221
213 213 213
191 191 191
165 165 165
137 137 137
145 145 145
152 152 152
151 151 151
145 145 145
150 150 150
147 147 147
167 167 167
194 194 194
218 218 218
226 226 226
210 210 210
184 184 184
158 158 158
178 178 178
189 189 189
189 189 189
184 184 184
205 205 205
213 213 213
202 202 202
187 187 187
200 200 200
199 199 199
200 200 200
217 217 217
215 215 215
196 196 196
170 170 170
149 149 149
156 156 156
171 171 171
177 177 177
172 172 172
158 158 158
138 138 138
115 115 115
133 133 133
150 150 150
161 161 161
164 164 164
157 157 157
125 125 125
152 152 152
178 178 178
201 201 201
213 213 213
207 207 207
187 187 187
162 162 162
151 151 151
169 169 169
178 178 178
177 177 177
166 166 166
147 147 147
142 142 142
172 172 172
201 201 201
231 231 231
249 249 249
219 219 219
190 190 190
171 171 171
194 194 194
209 209 209
208 208 208
191 191 191
194 194 194
200 200 200
191 191 191
172 172 172
181 181 181
180 180 180
179 179 179
190 190 190
189 189 189
176 176 176
155 155 155
150 150 150
170 170 170
188 188 188
196 196 196
189 189 189
172 172 172
150 150 150
124 124 124
140 140 140
158 158 158
171 171 171
173 173 173
166 166 166
116 116 116
142 142 142
165 165 165
183 183 183
192 192 192
187 187 187
172 172 172
154 154 154
167 167 167
188 188 188
201 201 201
200 200 200
185 185 185
162 162 162
138 138 138
166 166 166
193 193 193
215 215 215
223 223 223
208 208 208
183 183 183
174 174 174
198 198 198
215 215 215
214 214 214
195 195 195
173 173 173
178 178 178
171 171 171
156 156 156
156 156 156
156 156 156
153 153 153
161 161 161
161 161 161
166 166 166
170 170 170
165 165 165
175 175 175
194 194 194
203 203 203
196 196 196
177 177 177
154 154 154
127 127 127
139 139 139
158 158 158
170 170 170
173 173 173
165 165 165
102 102 102
125 125 125
145 145 145
159 159 159
165 165 165
164 164 164
162 162 162
152 152 152
174 174 174
198 198 198
215 215 215
213 213 213
194 194 194
169 169 169
142 142 142
152 152 152
174 174 174
190 190 190
194 194 194
185 185 185
166 166 166
166 166 166
188 188 188
201 201 201
201 201 201
186 186 186
163 163 163
152 152 152
147 147 147
135 135 135
130 130 130
129 129 129
126 126 126
139 139 139
159 159 159
172 172 172
177 177 177
171 171 171
182 182 182
201 201 201
209 209 209
199 199 199
179 179 179
153 153 153
127 127 127
132 132 132
149 149 149
160 160 160
162 162 162
155 155 155
88 88 88
110 110 110
129 129 129
143 143 143
151 151 151
153 153 153
151 151 151
163 163 163
186 186 186
202 202 202
209 209 209
207 207 207
190 190 190
166 166 166
140 140 140
138 138 138
150 150 150
162 162 162
165 165 165
158 158 158
144 144 144
151 151 151
168 168 168
178 178 178
178 178 178
167 167 167
157 157 157
148 148 148
133 133 133
113 113 113
102 102 102
111 111 111
121 121 121
136 136 136
155 155 155
168 168 168
173 173 173
167 167 167
191 191 191
215 215 215
226 226 226
212 212 212
187 187 187
160 160 160
132 132 132
118 118 118
133 133 133
142 142 142
144 144 144
139 139 139
96 96 96
119 119 119
139 139 139
155 155 155
164 164 164
163 163 163
154 154 154
173 173 173
201 201 201
224 224 224
228 228 228
208 208 208
181 181 181
157 157 157
152 152 152
151 151 151
143 143 143
143 143 143
138 138 138
130 130 130
147 147 147
170 170 170
189 189 189
197 197 197
191 191 191
174 174 174
172 172 172
162 162 162
145 145 145
123 123 123
117 117 117
135 135 135
149 149 149
154 154 154
152 152 152
155 155 155
159 159 159
161 161 161
187 187 187
209 209 209
219 219 219
207 207 207
184 184 184
157 157 157
138 138 138
128 128 128
113 113 113
129 129 129
140 140 140
145 145 145
98 98 98
122 122 122
143 143 143
159 159 159
168 168 168
168 168 168
158 158 158
174 174 174
202 202 202
226 226 226
230 230 230
213 213 213
195 195 195
170 170 170
158 158 158
158 158 158
169 169 169
172 172 172
166 166 166
151 151 151
158 158 158
185 185 185
209 209 209
223 223 223
213 213 213
190 190 190
179 179 179
168 168 168
149 149 149
127 127 127
136 136 136
157 157 157
174 174 174
182 182 182
178 178 178
165 165 165
145 145 145
150 150 150
172 172 172
189 189 189
195 195 195
188 188 188
170 170 170
162 162 162
158 158 158
147 147 147
129 129 129
146 146 146
159 159 159
164 164 164
100 100 100
119 119 119
139 139 139
154 154 154
163 163 163
162 162 162
170 170 170
185 185 185
189 189 189
205 205 205
224 224 224
222 222 222
201 201 201
174 174 174
156 156 156
178 178 178
196 196 196
202 202 202
192 192 192
173 173 173
161 161 161
189 189 189
216 216 216
232 232 232
220 220 220
194 194 194
174 174 174
163 163 163
153 153 153
138 138 138
149 149 149
174 174 174
195 195 195
207 207 207
201 201 201
183 183 183
159 159 159
133 133 133
151 151 151
164 164 164
168 168 168
163 163 163
170 170 170
177 177 177
173 173 173
160 160 160
140 140 140
157 157 157
172 172 172
178 178 178
111 111 111
124 124 124
130 130 130
142 142 142
149 149 149
163 163 163
189 189 189
209 209 209
215 215 215
202 202 202
210 210 210
208 208 208
191 191 191
167 167 167
166 166 166
194 194 194
219 219 219
230 230 230
213 213 213
187 187 187
159 159 159
180 180 180
202 202 202
213 213 213
205 205 205
185 185 185
188 188 188
189 189 189
179 179 179
160 160 160
155 155 155
182 182 182
207 207 207
222 222 222
215 215 215
193 193 193
166 166 166
138 138 138
131 131 131
137 137 137
140 140 140
160 160 160
176 176 176
183 183 183
179 179 179
165 165 165
152 152 152
159 159 159
175 175 175
181 181 181
118 118 118
130 130 130
137 137 137
138 138 138
146 146 146
169 169 169
197 197 197
223 223 223
233 233 233
214 214 214
187 187 187
184 184 184
172 172 172
162 162 162
169 169 169
198 198 198
226 226 226
242 242 242
219 219 219
191 191 191
162 162 162
163 163 163
179 179 179
186 186 186
181 181 181
194 194 194
214 214 214
217 217 217
200 200 200
176 176 176
158 158 158
179 179 179
202 202 202
216 216 216
209 209 209
189 189 189
164 164 164
136 136 136
141 141 141
142 142 142
134 134 134
155 155 155
171 171 171
187 187 187
196 196 196
191 191 191
175 175 175
153 153 153
167 167 167
173 173 173
118 118 118
130 130 130
138 138 138
154 154 154
163 163 163
165 165 165
192 192 192
214 214 214
221 221 221
206 206 206
182 182 182
157 157 157
158 158 158
175 175 175
182 182 182
188 188 188
209 209 209
217 217 217
204 204 204
182 182 182
164 164 164
144 144 144
153 153 153
158 158 158
175 175 175
204 204 204
230 230 230
236 236 236
212 212 212
183 183 183
181 181 181
187 187 187
184 184 184
193 193 193
189 189 189
174 174 174
152 152 152
137 137 137
145 145 145
145 145 145
139 139 139
157 157 157
184 184 184
209 209 209
223 223 223
214 214 214
192 192 192
165 165 165
152 152 152
157 157 157
112 112 112
124 124 124
146 146 146
163 163 163
173 173 173
173 173 173
175 175 175
191 191 191
195 195 195
186 186 186
167 167 167
143 143 143
161 161 161
178 178 178
186 186 186
182 182 182
183 183 183
201 201 201
213 213 213
205 205 205
185 185 185
160 160 160
156 156 156
174 174 174
183 183 183
198 198 198
219 219 219
223 223 223
205 205 205
179 179 179
198 198 198
206 206 206
198 198 198
178 178 178
164 164 164
152 152 152
134 134 134
135 135 135
153 153 153
164 164 164
166 166 166
160 160 160
189 189 189
217 217 217
237 237 237
224 224 224
197 197 197
169 169 169
140 140 140
135 135 135
100 100 100
124 124 124
146 146 146
163 163 163
176 176 176
186 186 186
184 184 184
171 171 171
167 167 167
160 160 160
153 153 153
160 160 160
158 158 158
171 171 171
178 178 178
174 174 174
191 191 191
219 219 219
240 240 240
224 224 224
197 197 197
168 168 168
175 175 175
198 198 198
212 212 212
208 208 208
194 194 194
196 196 196
185 185 185
182 182 182
202 202 202
211 211 211
202 202 202
181 181 181
156 156 156
129 129 129
130 130 130
155 155 155
176 176 176
192 192 192
195 195 195
185 185 185
181 181 181
204 204 204
217 217 217
210 210 210
189 189 189
166 166 166
145 145 145
125 125 125
116 116 116
121 121 121
148 148 148
175 175 175
199 199 199
214 214 214
211 211 211
192 192 192
167 167 167
158 158 158
176 176 176
185 185 185
182 182 182
169 169 169
160 160 160
161 161 161
189 189 189
216 216 216
234 234 234
221 221 221
195 195 195
178 178 178
185 185 185
213 213 213
238 238 238
230 230 230
203 203 203
174 174 174
160 160 160
174 174 174
191 191 191
198 198 198
191 191 191
173 173 173
149 149 149
132 132 132
140 140 140
168 168 168
195 195 195
217 217 217
223 223 223
206 206 206
181 181 181
184 184 184
207 207 207
218 218 218
208 208 208
186 186 186
159 159 159
134 134 134
144 144 144
144 144 144
155 155 155
184 184 184
213 213 213
239 239 239
232 232 232
204 204 204
175 175 175
172 172 172
193 193 193
205 205 205
201 201 201
184 184 184
161 161 161
151 151 151
176 176 176
196 196 196
206 206 206
199 199 199
201 201 201
190 190 190
184 184 184
211 211 211
232 232 232
226 226 226
201 201 201
173 173 173
171 171 171
165 165 165
171 171 171
176 176 176
171 171 171
160 160 160
156 156 156
144 144 144
144 144 144
173 173 173
202 202 202
229 229 229
239 239 239
215 215 215
187 187 187
194 194 194
223 223 223
246 246 246
225 225 225
196 196 196
167 167 167
137 137 137
172 172 172
171 171 171
161 161 161
182 182 182
209 209 209
230 230 230
225 225 225
201 201 201
173 173 173
175 175 175
198 198 198
212 212 212
208 208 208
189 189 189
164 164 164
137 137 137
155 155 155
170 170 170
180 180 180
197 197 197
201 201 201
190 190 190
171 171 171
193 193 193
205 205 205
202 202 202
185 185 185
192 192 192
198 198 198
190 190 190
172 172 172
150 150 150
161 161 161
167 167 167
163 163 163
150 150 150
139 139 139
167 167 167
193 193 193
214 214 214
220 220 220
205 205 205
199 199 199
191 191 191
217 217 217
232 232 232
218 218 218
192 192 192
164 164 164
163 163 163
198 198 198
197 197 197
182 182 182
169 169 169
190 190 190
202 202 202
200 200 200
184 184 184
161 161 161
169 169 169
189 189 189
200 200 200
197 197 197
181 181 181
159 159 159
146 146 146
131 131 131
149 149 149
169 169 169
183 183 183
187 187 187
178 178 178
174 174 174
189 189 189
193 193 193
183 183 183
190 190 190
213 213 213
224 224 224
211 211 211
186 186 186
159 159 159
159 159 159
164 164 164
160 160 160
148 148 148
144 144 144
161 161 161
174 174 174
189 189 189
202 202 202
225 225 225
227 227 227
206 206 206
195 195 195
203 203 203
195 195 195
177 177 177
164 164 164
185 185 185
218 218 218
216 216 216
197 197 197
172 172 172
165 165 165
174 174 174
172 172 172
161 161 161
143 143 143
154 154 154
170 170 170
179 179 179
185 185 185
192 192 192
186 186 186
169 169 169
150 150 150
162 162 162
166 166 166
162 162 162
168 168 168
177 177 177
193 193 193
215 215 215
222 222 222
206 206 206
193 193 193
219 219 219
232 232 232
216 216 216
190 190 190
162 162 162
148 148 148
152 152 152
149 149 149
138 138 138
163 163 163
184 184 184
197 197 197
196 196 196
208 208 208
237 237 237
241 241 241
212 212 212
185 185 185
187 187 187
177 177 177
158 158 158
175 175 175
200 200 200
220 220 220
218 218 218
198 198 198
172 172 172
145 145 145
144 144 144
143 143 143
135 135 135
124 124 124
133 133 133
159 159 159
185 185 185
208 208 208
220 220 220
209 209 209
187 187 187
174 174 174
190 190 190
195 195 195
186 186 186
193 193 193
205 205 205
202 202 202
231 231 231
246 246 246
218 218 218
189 189 189
204 204 204
212 212 212
202 202 202
181 181 181
155 155 155
130 130 130
134 134 134
131 131 131
147 147 147
174 174 174
200 200 200
218 218 218
217 217 217
198 198 198
216 216 216
218 218 218
200 200 200
212 212 212
215 215 215
200 200 200
176 176 176
176 176 176
201 201 201
202 202 202
201 201 201
186 186 186
171 171 171
154 154 154
132 132 132
142 142 142
151 151 151
153 153 153
146 146 146
164 164 164
193 193 193
221 221 221
239 239 239
222 222 222
194 194 194
192 192 192
215 215 215
223 223 223
209 209 209
212 212 212
233 233 233
225 225 225
218 218 218
226 226 226
209 209 209
183 183 183
180 180 180
185 185 185
178 178 178
162 162 162
141 141 141
116 116 116
113 113 113
120 120 120
148 148 148
176 176 176
202 202 202
222 222 222
221 221 221
205 205 205
189 189 189
189 189 189
205 205 205
234 234 234
241 241 241
214 214 214
185 185 185
166 166 166
188 188 188
181 181 181
196 196 196
199 199 199
187 187 187
167 167 167
147 147 147
167 167 167
179 179 179
182 182 182
172 172 172
160 160 160
187 187 187
211 211 211
223 223 223
212 212 212
189 189 189
199 199 199
228 228 228
244 244 244
219 219 219
214 214 214
238 238 238
229 229 229
202 202 202
197 197 197
187 187 187
168 168 168
153 153 153
157 157 157
152 152 152
139 139 139
131 131 131
132 132 132
126 126 126
115 115 115
141 141 141
167 167 167
189 189 189
210 210 210
220 220 220
208 208 208
185 185 185
174 174 174
201 201 201
226 226 226
231 231 231
209 209 209
182 182 182
154 154 154
167 167 167
186 186 186
203 203 203
206 206 206
193 193 193
171 171 171
164 164 164
188 188 188
206 206 206
209 209 209
196 196 196
173 173 173
171 171 171
188 188 188
196 196 196
189 189 189
172 172 172
192 192 192
215 215 215
223 223 223
209 209 209
198 198 198
212 212 212
208 208 208
189 189 189
168 168 168
161 161 161
146 146 146
131 131 131
141 141 141
144 144 144
145 145 145
155 155 155
157 157 157
150 150 150
136 136 136
128 128 128
153 153 153
177 177 177
196 196 196
203 203 203
195 195 195
175 175 175
161 161 161
184 184 184
200 200 200
203 203 203
190 190 190
178 178 178
176 176 176
163 163 163
179 179 179
194 194 194
197 197 197
185 185 185
165 165 165
173 173 173
201 201 201
226 226 226
232 232 232
211 211 211
183 183 183
159 159 159
174 174 174
180 180 180
174 174 174
159 159 159
174 174 174
190 190 190
195 195 195
186 186 186
174 174 174
183 183 183
181 181 181
167 167 167
148 148 148
133 133 133
129 129 129
147 147 147
159 159 159
163 163 163
164 164 164
176 176 176
178 178 178
170 170 170
153 153 153
131 131 131
139 139 139
159 159 159
173 173 173
178 178 178
172 172 172
158 158 158
150 150 150
170 170 170
185 185 185
188 188 188
189 189 189
200 200 200
197 197 197
181 181 181
163 163 163
175 175 175
176 176 176
168 168 168
151 151 151
172 172 172
199 199 199
223 223 223
229 229 229
209 209 209
182 182 182
175 175 175
194 194 194
202 202 202
194 194 194
175 175 175
152 152 152
162 162 162
166 166 166
159 159 159
148 148 148
154 154 154
152 152 152
142 142 142
126 126 126
114 114 114
138 138 138
157 157 157
171 171 171
175 175 175
176 176 176
191 191 191
193 193 193
183 183 183
164 164 164
140 140 140
149 149 149
165 165 165
174 174 174
173 173 173
162 162 162
143 143 143
164 164 164
189 189 189
209 209 209
215 215 215
201 201 201
212 212 212
208 208 208
189 189 189
158 158 158
155 155 155
153 153 153
168 168 168
175 175 175
172 172 172
184 184 184
201 201 201
204 204 204
191 191 191
170 170 170
183 183 183
204 204 204
213 213 213
204 204 204
183 183 183
157 157 157
143 143 143
136 136 136
132 132 132
121 121 121
125 125 125
123 123 123
116 116 116
102 102 102
116 116 116
139 139 139
159 159 159
173 173 173
178 178 178
178 178 178
193 193 193
196 196 196
185 185 185
165 165 165
143 143 143
168 168 168
189 189 189
201 201 201
199 199 199
184 184 184
161 161 161
170 170 170
198 198 198
224 224 224
232 232 232
212 212 212
205 205 205
202 202 202
185 185 185
163 163 163
160 160 160
170 170 170
190 190 190
200 200 200
195 195 195
199 199 199
195 195 195
180 180 180
167 167 167
154 154 154
178 178 178
198 198 198
206 206 206
198 198 198
182 182 182
180 180 180
168 168 168
149 149 149
125 125 125
122 122 122
128 128 128
127 127 127
120 120 120
108 108 108
126 126 126
149 149 149
169 169 169
181 181 181
183 183 183
173 173 173
182 182 182
185 185 185
186 186 186
177 177 177
160 160 160
179 179 179
205 205 205
224 224 224
220 220 220
199 199 199
172 172 172
167 167 167
193 193 193
215 215 215
221 221 221
206 206 206
186 186 186
183 183 183
170 170 170
159 159 159
156 156 156
180 180 180
203 203 203
217 217 217
210 210 210
227 227 227
221 221 221
198 198 198
170 170 170
143 143 143
164 164 164
180 180 180
186 186 186
196 196 196
210 210 210
207 207 207
189 189 189
165 165 165
149 149 149
147 147 147
154 154 154
154 154 154
145 145 145
130 130 130
135 135 135
161 161 161
183 183 183
198 198 198
200 200 200
188 188 188
187 187 187
206 206 206
212 212 212
199 199 199
177 177 177
180 180 180
207 207 207
227 227 227
223 223 223
200 200 200
173 173 173
154 154 154
176 176 176
192 192 192
196 196 196
186 186 186
174 174 174
159 159 159
152 152 152
146 146 146
153 153 153
179 179 179
202 202 202
214 214 214
216 216 216
243 243 243
232 232 232
203 203 203
174 174 174
149 149 149
144 144 144
156 156 156
183 183 183
210 210 210
232 232 232
227 227 227
202 202 202
174 174 174
173 173 173
170 170 170
179 179 179
178 178 178
167 167 167
148 148 148
137 137 137
163 163 163
186 186 186
203 203 203
205 205 205
192 192 192
196 196 196
220 220 220
229 229 229
211 211 211
185 185 185
170 170 170
192 192 192
206 206 206
204 204 204
187 187 187
164 164 164
138 138 138
157 157 157
181 181 181
200 200 200
206 206 206
196 196 196
176 176 176
151 151 151
128 128 128
148 148 148
174 174 174
198 198 198
213 213 213
210 210 210
219 219 219
214 214 214
194 194 194
182 182 182
172 172 172
154 154 154
153 153 153
181 181 181
207 207 207
227 227 227
222 222 222
199 199 199
182 182 182
192 192 192
188 188 188
198 198 198
197 197 197
183 183 183
161 161 161
136 136 136
156 156 156
178 178 178
192 192 192
193 193 193
182 182 182
191 191 191
213 213 213
220 220 220
205 205 205
181 181 181
158 158 158
170 170 170
179 179 179
178 178 178
166 166 166
147 147 147
149 149 149
164 164 164
191 191 191
213 213 213
223 223 223
209 209 209
185 185 185
157 157 157
126 126 126
155 155 155
184 184 184
213 213 213
238 238 238
231 231 231
204 204 204
188 188 188
202 202 202
204 204 204
191 191 191
169 169 169
144 144 144
168 168 168
190 190 190
202 202 202
200 200 200
184 184 184
190 190 190
200 200 200
196 196 196
206 206 206
204 204 204
189 189 189
165 165 165
139 139 139
142 142 142
160 160 160
171 171 171
173 173 173
181 181 181
188 188 188
191 191 191
195 195 195
186 186 186
167 167 167
166 166 166
184 184 184
193 193 193
189 189 189
174 174 174
173 173 173
176 176 176
168 168 168
188 188 188
209 209 209
217 217 217
205 205 205
182 182 182
155 155 155
125 125 125
154 154 154
182 182 182
210 210 210
231 231 231
226 226 226
201 201 201
193 193 193
212 212 212
215 215 215
199 199 199
175 175 175
151 151 151
170 170 170
182 182 182
182 182 182
173 173 173
165 165 165
184 184 184
194 194 194
190 190 190
197 197 197
196 196 196
182 182 182
160 160 160
160 160 160
160 160 160
152 152 152
152 152 152
177 177 177
198 198 198
208 208 208
201 201 201
182 182 182
161 161 161
150 150 150
175 175 175
196 196 196
208 208 208
203 203 203
184 184 184
195 195 195
199 199 199
189 189 189
173 173 173
190 190 190
195 195 195
187 187 187
168 168 168
145 145 145
117 117 117
144 144 144
170 170 170
191 191 191
204 204 204
201 201 201
185 185 185
187 187 187
204 204 204
206 206 206
192 192 192
170 170 170
169 169 169
193 193 193
210 210 210
211 211 211
195 195 195
171 171 171
168 168 168
176 176 176
173 173 173
177 177 177
176 176 176
165 165 165
173 173 173
184 184 184
184 184 184
173 173 173
155 155 155
181 181 181
202 202 202
213 213 213
206 206 206
185 185 185
159 159 159
149 149 149
174 174 174
195 195 195
206 206 206
201 201 201
188 188 188
208 208 208
213 213 213
200 200 200
178 178 178
165 165 165
168 168 168
162 162 162
148 148 148
130 130 130
104 104 104
128 128 128
150 150 150
166 166 166
175 175 175
174 174 174
162 162 162
171 171 171
183 183 183
185 185 185
184 184 184
181 181 181
178 178 178
207 207 207
234 234 234
236 236 236
210 210 210
181 181 181
152 152 152
153 153 153
160 160 160
165 165 165
161 161 161
165 165 165
188 188 188
203 203 203
203 203 203
188 188 188
166 166 166
173 173 173
192 192 192
200 200 200
194 194 194
176 176 176
153 153 153
140 140 140
163 163 163
181 181 181
190 190 190
186 186 186
185 185 185
204 204 204
209 209 209
197 197 197
175 175 175
185 185 185
193 193 193
187 187 187
171 171 171
149 149 149
93 93 93
117 117 117
138 138 138
155 155 155
165 165 165
166 166 166
157 157 157
148 148 148
173 173 173
195 195 195
208 208 208
203 203 203
186 186 186
205 205 205
230 230 230
232 232 232
208 208 208
180 180 180
151 151 151
158 158 158
173 173 173
179 179 179
173 173 173
168 168 168
192 192 192
208 208 208
208 208 208
193 193 193
169 169 169
156 156 156
171 171 171
177 177 177
173 173 173
159 159 159
139 139 139
141 141 141
156 156 156
163 163 163
166 166 166
163 163 163
172 172 172
186 186 186
190 190 190
181 181 181
184 184 184
207 207 207
219 219 219
210 210 210
188 188 188
161 161 161
