P3
50 50
255
124 124 124
143 143 143
157 157 157
163 163 163
160 160 160
160 160 160
180 180 180
191 191 191
190 190 190
177 177 177
156 156 156
171 171 171
185 185 185
186 186 186
206 206 206
219 219 219
211 211 211
189 189 189
163 163 163
135 135 135
107 107 107
128 128 128
146 146 146
160 160 160
165 165 165
161 161 161
148 148 148
136 136 136
155 155 155
167 167 167
171 171 171
165 165 165
150 150 150
142 142 142
140 140 140
142 142 142
159 159 159
169 169 169
169 169 169
160 160 160
153 153 153
158 158 158
154 154 154
142 142 142
125 125 125
103 103 103
110 110 110
114 114 114
113 113 113
105 105 105
142 142 142
165 165 165
183 183 183
191 191 191
187 187 187
174 174 174
199 199 199
215 215 215
214 214 214
195 195 195
170 170 170
192 192 192
211 211 211
214 214 214
199 199 199
210 210 210
203 203 203
184 184 184
159 159 159
132 132 132
118 118 118
143 143 143
165 165 165
182 182 182
189 189 189
183 183 183
167 167 167
153 153 153
176 176 176
193 193 193
198 198 198
189 189 189
170 170 170
155 155 155
153 153 153
152 152 152
170 170 170
182 182 182
182 182 182
171 171 171
166 166 166
170 170 170
165 165 165
152 152 152
133 133 133
125 125 125
137 137 137
142 142 142
140 140 140
130 130 130
154 154 154
181 181 181
204 204 204
218 218 218
211 211 211
189 189 189
205 205 205
226 226 226
224 224 224
201 201 201
175 175 175
203 203 203
229 229 229
235 235 235
211 211 211
188 188 188
183 183 183
168 168 168
147 147 147
142 142 142
134 134 134
153 153 153
177 177 177
197 197 197
206 206 206
199 199 199
179 179 179
164 164 164
191 191 191
213 213 213
221 221 221
207 207 207
183 183 183
160 160 160
158 158 158
153 153 153
172 172 172
184 184 184
185 185 185
174 174 174
185 185 185
186 186 186
174 174 174
155 155 155
135 135 135
147 147 147
162 162 162
169 169 169
166 166 166
154 154 154
159 159 159
187 187 187
215 215 215
234 234 234
223 223 223
197 197 197
196 196 196
212 212 212
210 210 210
193 193 193
172 172 172
199 199 199
221 221 221
225 225 225
206 206 206
180 180 180
158 158 158
163 163 163
172 172 172
171 171 171
161 161 161
154 154 154
179 179 179
199 199 199
209 209 209
201 201 201
181 181 181
168 168 168
193 193 193
217 217 217
226 226 226
211 211 211
185 185 185
165 165 165
171 171 171
168 168 168
164 164 164
175 175 175
175 175 175
182 182 182
196 196 196
196 196 196
183 183 183
162 162 162
142 142 142
165 165 165
183 183 183
192 192 192
188 188 188
173 173 173
155 155 155
182 182 182
205 205 205
219 219 219
212 212 212
190 190 190
190 190 190
187 187 187
186 186 186
173 173 173
159 159 159
181 181 181
197 197 197
199 199 199
187 187 187
166 166 166
166 166 166
188 188 188
201 201 201
199 199 199
184 184 184
162 162 162
171 171 171
187 187 187
195 195 195
188 188 188
180 180 180
196 196 196
198 198 198
201 201 201
208 208 208
197 197 197
176 176 176
180 180 180
188 188 188
183 183 183
169 169 169
157 157 157
159 159 159
179 179 179
192 192 192
193 193 193
180 180 180
160 160 160
150 150 150
175 175 175
197 197 197
209 209 209
204 204 204
185 185 185
143 143 143
166 166 166
184 184 184
193 193 193
188 188 188
193 193 193
204 204 204
200 200 200
182 182 182
159 159 159
140 140 140
158 158 158
169 169 169
171 171 171
162 162 162
151 151 151
180 180 180
207 207 207
228 228 228
225 225 225
202 202 202
175 175 175
184 184 184
187 187 187
178 178 178
172 172 172
199 199 199
222 222 222
227 227 227
208 208 208
181 181 181
174 174 174
166 166 166
185 185 185
193 193 193
189 189 189
173 173 173
151 151 151
148 148 148
166 166 166
177 177 177
177 177 177
167 167 167
149 149 149
157 157 157
183 183 183
203 203 203
211 211 211
204 204 204
185 185 185
125 125 125
145 145 145
168 168 168
187 187 187
195 195 195
193 193 193
204 204 204
199 199 199
182 182 182
158 158 158
132 132 132
132 132 132
145 145 145
154 154 154
155 155 155
154 154 154
183 183 183
212 212 212
238 238 238
234 234 234
207 207 207
178 178 178
186 186 186
189 189 189
180 180 180
176 176 176
205 205 205
234 234 234
244 244 244
215 215 215
186 186 186
156 156 156
161 161 161
178 178 178
185 185 185
181 181 181
167 167 167
146 146 146
144 144 144
149 149 149
155 155 155
155 155 155
158 158 158
161 161 161
166 166 166
194 194 194
222 222 222
237 237 237
219 219 219
192 192 192
120 120 120
147 147 147
171 171 171
190 190 190
199 199 199
194 194 194
189 189 189
185 185 185
170 170 170
150 150 150
125 125 125
148 148 148
167 167 167
178 178 178
180 180 180
170 170 170
174 174 174
199 199 199
215 215 215
213 213 213
195 195 195
170 170 170
176 176 176
179 179 179
171 171 171
169 169 169
195 195 195
216 216 216
220 220 220
203 203 203
178 178 178
163 163 163
153 153 153
161 161 161
168 168 168
164 164 164
155 155 155
152 152 152
158 158 158
167 167 167
167 167 167
157 157 157
165 165 165
168 168 168
165 165 165
193 193 193
219 219 219
233 233 233
217 217 217
190 190 190
116 116 116
141 141 141
163 163 163
181 181 181
189 189 189
184 184 184
169 169 169
163 163 163
152 152 152
147 147 147
136 136 136
160 160 160
182 182 182
197 197 197
199 199 199
186 186 186
165 165 165
176 176 176
187 187 187
186 186 186
173 173 173
167 167 167
158 158 158
160 160 160
155 155 155
155 155 155
175 175 175
189 189 189
191 191 191
181 181 181
173 173 173
172 172 172
161 161 161
143 143 143
153 153 153
169 169 169
176 176 176
173 173 173
168 168 168
178 178 178
177 177 177
166 166 166
162 162 162
165 165 165
159 159 159
179 179 179
198 198 198
206 206 206
197 197 197
183 183 183
131 131 131
152 152 152
167 167 167
174 174 174
170 170 170
165 165 165
153 153 153
160 160 160
165 165 165
161 161 161
148 148 148
165 165 165
188 188 188
204 204 204
206 206 206
192 192 192
170 170 170
155 155 155
158 158 158
157 157 157
157 157 157
158 158 158
151 151 151
170 170 170
180 180 180
180 180 180
170 170 170
160 160 160
162 162 162
163 163 163
171 171 171
170 170 170
159 159 159
141 141 141
164 164 164
182 182 182
191 191 191
187 187 187
172 172 172
178 178 178
177 177 177
166 166 166
151 151 151
154 154 154
148 148 148
158 158 158
172 172 172
177 177 177
184 184 184
206 206 206
146 146 146
171 171 171
190 190 190
200 200 200
195 195 195
178 178 178
155 155 155
165 165 165
171 171 171
166 166 166
153 153 153
166 166 166
185 185 185
196 196 196
197 197 197
185 185 185
164 164 164
146 146 146
137 137 137
140 140 140
141 141 141
141 141 141
165 165 165
188 188 188
202 202 202
202 202 202
188 188 188
165 165 165
145 145 145
152 152 152
160 160 160
159 159 159
149 149 149
144 144 144
165 165 165
184 184 184
193 193 193
189 189 189
174 174 174
167 167 167
167 167 167
157 157 157
140 140 140
137 137 137
145 145 145
146 146 146
144 144 144
164 164 164
192 192 192
218 218 218
155 155 155
182 182 182
206 206 206
220 220 220
212 212 212
190 190 190
164 164 164
161 161 161
166 166 166
162 162 162
149 149 149
171 171 171
192 192 192
204 204 204
200 200 200
183 183 183
159 159 159
133 133 133
137 137 137
142 142 142
139 139 139
144 144 144
171 171 171
196 196 196
213 213 213
213 213 213
196 196 196
180 180 180
159 159 159
143 143 143
162 162 162
175 175 175
179 179 179
171 171 171
158 158 158
174 174 174
182 182 182
179 179 179
165 165 165
149 149 149
149 149 149
140 140 140
139 139 139
156 156 156
166 166 166
166 166 166
158 158 158
161 161 161
187 187 187
210 210 210
155 155 155
182 182 182
206 206 206
220 220 220
213 213 213
191 191 191
164 164 164
149 149 149
153 153 153
149 149 149
143 143 143
167 167 167
186 186 186
197 197 197
193 193 193
178 178 178
161 161 161
150 150 150
133 133 133
136 136 136
139 139 139
141 141 141
167 167 167
190 190 190
205 205 205
205 205 205
203 203 203
188 188 188
165 165 165
160 160 160
184 184 184
203 203 203
208 208 208
196 196 196
175 175 175
157 157 157
163 163 163
160 160 160
151 151 151
139 139 139
126 126 126
127 127 127
150 150 150
168 168 168
180 180 180
181 181 181
171 171 171
153 153 153
171 171 171
188 188 188
147 147 147
172 172 172
191 191 191
201 201 201
196 196 196
179 179 179
156 156 156
130 130 130
134 134 134
131 131 131
132 132 132
154 154 154
170 170 170
178 178 178
175 175 175
180 180 180
178 178 178
165 165 165
145 145 145
158 158 158
165 165 165
164 164 164
154 154 154
173 173 173
186 186 186
199 199 199
198 198 198
183 183 183
161 161 161
170 170 170
199 199 199
226 226 226
237 237 237
215 215 215
188 188 188
159 159 159
160 160 160
166 166 166
162 162 162
149 149 149
131 131 131
129 129 129
153 153 153
172 172 172
184 184 184
185 185 185
175 175 175
156 156 156
153 153 153
162 162 162
148 148 148
153 153 153
169 169 169
176 176 176
172 172 172
159 159 159
151 151 151
141 141 141
124 124 124
122 122 122
124 124 124
134 134 134
148 148 148
161 161 161
179 179 179
188 188 188
185 185 185
171 171 171
161 161 161
180 180 180
190 190 190
187 187 187
173 173 173
153 153 153
170 170 170
181 181 181
180 180 180
168 168 168
167 167 167
171 171 171
200 200 200
228 228 228
240 240 240
217 217 217
188 188 188
159 159 159
163 163 163
168 168 168
164 164 164
151 151 151
132 132 132
125 125 125
147 147 147
166 166 166
177 177 177
178 178 178
168 168 168
151 151 151
158 158 158
164 164 164
156 156 156
154 154 154
145 145 145
158 158 158
175 175 175
183 183 183
179 179 179
165 165 165
145 145 145
134 134 134
137 137 137
133 133 133
136 136 136
158 158 158
175 175 175
184 184 184
181 181 181
171 171 171
176 176 176
195 195 195
208 208 208
204 204 204
187 187 187
163 163 163
149 149 149
157 157 157
156 156 156
172 172 172
187 187 187
191 191 191
187 187 187
206 206 206
212 212 212
199 199 199
177 177 177
151 151 151
156 156 156
161 161 161
157 157 157
145 145 145
141 141 141
132 132 132
135 135 135
151 151 151
160 160 160
162 162 162
167 167 167
163 163 163
155 155 155
161 161 161
155 155 155
154 154 154
151 151 151
176 176 176
198 198 198
210 210 210
205 205 205
186 186 186
161 161 161
140 140 140
143 143 143
139 139 139
128 128 128
146 146 146
162 162 162
169 169 169
167 167 167
177 177 177
182 182 182
197 197 197
211 211 211
207 207 207
189 189 189
164 164 164
147 147 147
144 144 144
158 158 158
181 181 181
198 198 198
203 203 203
192 192 192
179 179 179
183 183 183
175 175 175
162 162 162
147 147 147
142 142 142
146 146 146
146 146 146
153 153 153
151 151 151
142 142 142
148 148 148
149 149 149
166 166 166
183 183 183
190 190 190
184 184 184
168 168 168
148 148 148
146 146 146
145 145 145
158 158 158
187 187 187
213 213 213
233 233 233
223 223 223
197 197 197
169 169 169
140 140 140
142 142 142
144 144 144
148 148 148
144 144 144
142 142 142
148 148 148
158 158 158
173 173 173
178 178 178
186 186 186
197 197 197
194 194 194
179 179 179
157 157 157
139 139 139
146 146 146
156 156 156
179 179 179
195 195 195
199 199 199
189 189 189
173 173 173
188 188 188
192 192 192
182 182 182
173 173 173
168 168 168
155 155 155
148 148 148
155 155 155
153 153 153
165 165 165
177 177 177
179 179 179
177 177 177
197 197 197
206 206 206
199 199 199
179 179 179
155 155 155
136 136 136
158 158 158
176 176 176
185 185 185
210 210 210
227 227 227
219 219 219
195 195 195
168 168 168
145 145 145
159 159 159
164 164 164
164 164 164
159 159 159
146 146 146
142 142 142
150 150 150
159 159 159
163 163 163
165 165 165
174 174 174
172 172 172
160 160 160
142 142 142
152 152 152
171 171 171
184 184 184
185 185 185
179 179 179
183 183 183
175 175 175
184 184 184
201 201 201
206 206 206
194 194 194
201 201 201
194 194 194
176 176 176
152 152 152
149 149 149
164 164 164
187 187 187
205 205 205
207 207 207
194 194 194
197 197 197
207 207 207
199 199 199
184 184 184
169 169 169
143 143 143
167 167 167
186 186 186
196 196 196
192 192 192
202 202 202
197 197 197
180 180 180
157 157 157
168 168 168
186 186 186
193 193 193
187 187 187
171 171 171
152 152 152
148 148 148
151 151 151
148 148 148
142 142 142
141 141 141
147 147 147
146 146 146
137 137 137
141 141 141
168 168 168
192 192 192
211 211 211
213 213 213
197 197 197
174 174 174
159 159 159
183 183 183
200 200 200
204 204 204
212 212 212
225 225 225
214 214 214
190 190 190
163 163 163
145 145 145
174 174 174
203 203 203
228 228 228
234 234 234
211 211 211
184 184 184
203 203 203
217 217 217
210 210 210
189 189 189
142 142 142
166 166 166
185 185 185
195 195 195
191 191 191
176 176 176
171 171 171
158 158 158
159 159 159
186 186 186
210 210 210
222 222 222
212 212 212
189 189 189
162 162 162
172 172 172
176 176 176
168 168 168
152 152 152
132 132 132
120 120 120
119 119 119
118 118 118
147 147 147
176 176 176
204 204 204
230 230 230
234 234 234
210 210 210
182 182 182
153 153 153
171 171 171
185 185 185
204 204 204
215 215 215
230 230 230
217 217 217
192 192 192
164 164 164
154 154 154
175 175 175
203 203 203
230 230 230
237 237 237
212 212 212
190 190 190
219 219 219
244 244 244
229 229 229
200 200 200
152 152 152
162 162 162
172 172 172
180 180 180
177 177 177
164 164 164
175 175 175
183 183 183
178 178 178
194 194 194
223 223 223
249 249 249
226 226 226
197 197 197
175 175 175
191 191 191
196 196 196
186 186 186
167 167 167
143 143 143
118 118 118
127 127 127
131 131 131
145 145 145
173 173 173
200 200 200
222 222 222
225 225 225
206 206 206
179 179 179
151 151 151
170 170 170
198 198 198
224 224 224
233 233 233
213 213 213
201 201 201
181 181 181
161 161 161
175 175 175
180 180 180
189 189 189
207 207 207
210 210 210
196 196 196
186 186 186
213 213 213
232 232 232
222 222 222
197 197 197
171 171 171
184 184 184
186 186 186
176 176 176
158 158 158
176 176 176
196 196 196
207 207 207
200 200 200
188 188 188
213 213 213
227 227 227
215 215 215
191 191 191
182 182 182
200 200 200
205 205 205
194 194 194
173 173 173
148 148 148
141 141 141
153 153 153
158 158 158
154 154 154
161 161 161
183 183 183
198 198 198
200 200 200
187 187 187
166 166 166
141 141 141
170 170 170
197 197 197
222 222 222
230 230 230
212 212 212
185 185 185
162 162 162
173 173 173
190 190 190
195 195 195
187 187 187
179 179 179
181 181 181
172 172 172
172 172 172
192 192 192
203 203 203
198 198 198
180 180 180
182 182 182
198 198 198
201 201 201
189 189 189
168 168 168
183 183 183
207 207 207
221 221 221
212 212 212
190 190 190
190 190 190
198 198 198
191 191 191
174 174 174
178 178 178
194 194 194
198 198 198
188 188 188
169 169 169
145 145 145
161 161 161
177 177 177
184 184 184
179 179 179
164 164 164
160 160 160
170 170 170
171 171 171
163 163 163
148 148 148
140 140 140
159 159 159
183 183 183
201 201 201
205 205 205
194 194 194
173 173 173
152 152 152
175 175 175
192 192 192
198 198 198
190 190 190
171 171 171
163 163 163
154 154 154
151 151 151
166 166 166
174 174 174
170 170 170
160 160 160
182 182 182
198 198 198
201 201 201
189 189 189
176 176 176
180 180 180
201 201 201
213 213 213
206 206 206
186 186 186
197 197 197
199 199 199
187 187 187
167 167 167
191 191 191
212 212 212
218 218 218
204 204 204
180 180 180
153 153 153
176 176 176
196 196 196
205 205 205
198 198 198
179 179 179
178 178 178
194 194 194
199 199 199
189 189 189
169 169 169
162 162 162
171 171 171
169 169 169
174 174 174
177 177 177
169 169 169
153 153 153
158 158 158
174 174 174
182 182 182
187 187 187
180 180 180
163 163 163
176 176 176
180 180 180
172 172 172
157 157 157
144 144 144
142 142 142
160 160 160
171 171 171
185 185 185
187 187 187
177 177 177
176 176 176
180 180 180
183 183 183
191 191 191
186 186 186
199 199 199
222 222 222
226 226 226
207 207 207
180 180 180
201 201 201
230 230 230
244 244 244
218 218 218
189 189 189
159 159 159
182 182 182
204 204 204
214 214 214
206 206 206
185 185 185
196 196 196
220 220 220
228 228 228
211 211 211
185 185 185
180 180 180
190 190 190
188 188 188
174 174 174
154 154 154
142 142 142
143 143 143
166 166 166
185 185 185
194 194 194
189 189 189
174 174 174
179 179 179
196 196 196
202 202 202
192 192 192
172 172 172
148 148 148
127 127 127
151 151 151
153 153 153
163 163 163
165 165 165
163 163 163
168 168 168
168 168 168
162 162 162
164 164 164
183 183 183
204 204 204
230 230 230
236 236 236
212 212 212
184 184 184
196 196 196
221 221 221
229 229 229
211 211 211
185 185 185
157 157 157
176 176 176
195 195 195
204 204 204
197 197 197
178 178 178
201 201 201
231 231 231
247 247 247
219 219 219
190 190 190
188 188 188
200 200 200
197 197 197
182 182 182
160 160 160
134 134 134
142 142 142
165 165 165
183 183 183
192 192 192
188 188 188
172 172 172
186 186 186
207 207 207
214 214 214
202 202 202
179 179 179
153 153 153
134 134 134
136 136 136
130 130 130
149 149 149
172 172 172
189 189 189
196 196 196
188 188 188
171 171 171
175 175 175
200 200 200
218 218 218
216 216 216
215 215 215
199 199 199
175 175 175
179 179 179
196 196 196
200 200 200
190 190 190
170 170 170
146 146 146
160 160 160
176 176 176
183 183 183
177 177 177
166 166 166
192 192 192
214 214 214
221 221 221
206 206 206
182 182 182
183 183 183
195 195 195
192 192 192
178 178 178
157 157 157
132 132 132
134 134 134
155 155 155
170 170 170
178 178 178
174 174 174
162 162 162
182 182 182
201 201 201
207 207 207
196 196 196
175 175 175
166 166 166
163 163 163
151 151 151
133 133 133
161 161 161
188 188 188
211 211 211
221 221 221
210 210 210
186 186 186
178 178 178
204 204 204
224 224 224
222 222 222
201 201 201
177 177 177
175 175 175
167 167 167
168 168 168
171 171 171
164 164 164
149 149 149
150 150 150
161 161 161
163 163 163
157 157 157
162 162 162
169 169 169
172 172 172
188 188 188
192 192 192
183 183 183
181 181 181
180 180 180
178 178 178
176 176 176
164 164 164
145 145 145
123 123 123
126 126 126
143 143 143
163 163 163
175 175 175
178 178 178
170 170 170
167 167 167
182 182 182
186 186 186
179 179 179
187 187 187
196 196 196
191 191 191
175 175 175
146 146 146
164 164 164
192 192 192
218 218 218
232 232 232
217 217 217
213 213 213
201 201 201
192 192 192
207 207 207
206 206 206
190 190 190
178 178 178
180 180 180
171 171 171
154 154 154
142 142 142
136 136 136
145 145 145
165 165 165
178 178 178
181 181 181
172 172 172
164 164 164
172 172 172
170 170 170
160 160 160
170 170 170
193 193 193
207 207 207
205 205 205
188 188 188
165 165 165
144 144 144
128 128 128
137 137 137
148 148 148
153 153 153
161 161 161
173 173 173
176 176 176
168 168 168
152 152 152
158 158 158
161 161 161
184 184 184
209 209 209
225 225 225
216 216 216
193 193 193
164 164 164
162 162 162
184 184 184
205 205 205
214 214 214
227 227 227
242 242 242
219 219 219
190 190 190
182 182 182
181 181 181
170 170 170
172 172 172
174 174 174
165 165 165
149 149 149
128 128 128
127 127 127
151 151 151
172 172 172
186 186 186
189 189 189
180 180 180
162 162 162
165 165 165
163 163 163
152 152 152
178 178 178
204 204 204
223 223 223
220 220 220
199 199 199
172 172 172
144 144 144
134 134 134
153 153 153
167 167 167
172 172 172
167 167 167
161 161 161
163 163 163
157 157 157
145 145 145
161 161 161
169 169 169
191 191 191
220 220 220
249 249 249
230 230 230
200 200 200
176 176 176
173 173 173
166 166 166
182 182 182
197 197 197
224 224 224
236 236 236
216 216 216
189 189 189
160 160 160
154 154 154
147 147 147
157 157 157
158 158 158
151 151 151
141 141 141
132 132 132
142 142 142
153 153 153
168 168 168
182 182 182
185 185 185
176 176 176
158 158 158
150 150 150
148 148 148
149 149 149
176 176 176
200 200 200
217 217 217
215 215 215
195 195 195
170 170 170
143 143 143
142 142 142
163 163 163
179 179 179
185 185 185
179 179 179
171 171 171
158 158 158
139 139 139
145 145 145
161 161 161
169 169 169
184 184 184
209 209 209
224 224 224
216 216 216
193 193 193
177 177 177
174 174 174
162 162 162
158 158 158
182 182 182
201 201 201
207 207 207
196 196 196
176 176 176
150 150 150
132 132 132
128 128 128
146 146 146
162 162 162
171 171 171
170 170 170
159 159 159
153 153 153
165 165 165
169 169 169
167 167 167
170 170 170
162 162 162
147 147 147
130 130 130
128 128 128
139 139 139
163 163 163
183 183 183
195 195 195
194 194 194
179 179 179
158 158 158
146 146 146
156 156 156
164 164 164
180 180 180
186 186 186
192 192 192
186 186 186
171 171 171
149 149 149
137 137 137
152 152 152
159 159 159
182 182 182
210 210 210
233 233 233
229 229 229
204 204 204
175 175 175
180 180 180
180 180 180
181 181 181
171 171 171
174 174 174
178 178 178
171 171 171
155 155 155
134 134 134
118 118 118
141 141 141
166 166 166
187 187 187
200 200 200
198 198 198
183 183 183
161 161 161
169 169 169
173 173 173
170 170 170
161 161 161
154 154 154
160 160 160
158 158 158
147 147 147
141 141 141
144 144 144
160 160 160
168 168 168
167 167 167
157 157 157
145 145 145
164 164 164
177 177 177
179 179 179
171 171 171
188 188 188
197 197 197
191 191 191
175 175 175
152 152 152
127 127 127
146 146 146
165 165 165
182 182 182
210 210 210
234 234 234
230 230 230
204 204 204
193 193 193
198 198 198
207 207 207
209 209 209
194 194 194
171 171 171
162 162 162
163 163 163
156 156 156
141 141 141
123 123 123
152 152 152
180 180 180
207 207 207
228 228 228
224 224 224
201 201 201
174 174 174
179 179 179
192 192 192
192 192 192
179 179 179
179 179 179
187 187 187
184 184 184
169 169 169
162 162 162
161 161 161
151 151 151
140 140 140
140 140 140
132 132 132
154 154 154
175 175 175
190 190 190
193 193 193
183 183 183
181 181 181
188 188 188
183 183 183
168 168 168
147 147 147
138 138 138
161 161 161
182 182 182
196 196 196
197 197 197
209 209 209
207 207 207
190 190 190
199 199 199
205 205 205
228 228 228
231 231 231
208 208 208
181 181 181
186 186 186
188 188 188
178 178 178
160 160 160
137 137 137
155 155 155
184 184 184
213 213 213
242 242 242
235 235 235
207 207 207
177 177 177
189 189 189
204 204 204
205 205 205
190 190 190
199 199 199
211 211 211
206 206 206
187 187 187
177 177 177
176 176 176
164 164 164
145 145 145
127 127 127
130 130 130
157 157 157
182 182 182
203 203 203
211 211 211
201 201 201
180 180 180
170 170 170
166 166 166
153 153 153
159 159 159
157 157 157
167 167 167
190 190 190
207 207 207
208 208 208
193 193 193
179 179 179
180 180 180
190 190 190
201 201 201
224 224 224
227 227 227
206 206 206
187 187 187
204 204 204
207 207 207
194 194 194
172 172 172
146 146 146
149 149 149
176 176 176
201 201 201
218 218 218
215 215 215
195 195 195
170 170 170
187 187 187
201 201 201
202 202 202
187 187 187
207 207 207
223 223 223
216 216 216
193 193 193
182 182 182
181 181 181
168 168 168
149 149 149
126 126 126
133 133 133
161 161 161
187 187 187
209 209 209
219 219 219
207 207 207
184 184 184
166 166 166
154 154 154
166 166 166
173 173 173
170 170 170
163 163 163
186 186 186
201 201 201
202 202 202
189 189 189
167 167 167
174 174 174
172 172 172
186 186 186
201 201 201
203 203 203
189 189 189
190 190 190
208 208 208
212 212 212
198 198 198
174 174 174
148 148 148
138 138 138
159 159 159
178 178 178
189 189 189
188 188 188
174 174 174
154 154 154
173 173 173
185 185 185
185 185 185
177 177 177
199 199 199
211 211 211
206 206 206
187 187 187
176 176 176
175 175 175
163 163 163
145 145 145
122 122 122
128 128 128
155 155 155
179 179 179
198 198 198
206 206 206
197 197 197
177 177 177
162 162 162
153 153 153
169 169 169
177 177 177
174 174 174
163 163 163
171 171 171
182 182 182
183 183 183
173 173 173
154 154 154
158 158 158
148 148 148
163 163 163
174 174 174
175 175 175
166 166 166
180 180 180
196 196 196
199 199 199
187 187 187
167 167 167
142 142 142
139 139 139
137 137 137
152 152 152
162 162 162
167 167 167
162 162 162
149 149 149
153 153 153
162 162 162
162 162 162
162 162 162
179 179 179
188 188 188
184 184 184
170 170 170
161 161 161
159 159 159
149 149 149
133 133 133
119 119 119
139 139 139
153 153 153
162 162 162
177 177 177
182 182 182
178 178 178
179 179 179
168 168 168
150 150 150
163 163 163
170 170 170
176 176 176
188 188 188
188 188 188
176 176 176
159 159 159
151 151 151
136 136 136
137 137 137
122 122 122
137 137 137
145 145 145
157 157 157
169 169 169
173 173 173
174 174 174
176 176 176
167 167 167
151 151 151
152 152 152
155 155 155
149 149 149
137 137 137
148 148 148
153 153 153
148 148 148
137 137 137
143 143 143
151 151 151
151 151 151
149 149 149
155 155 155
161 161 161
158 158 158
160 160 160
153 153 153
139 139 139
130 130 130
126 126 126
136 136 136
160 160 160
178 178 178
189 189 189
187 187 187
190 190 190
206 206 206
207 207 207
191 191 191
168 168 168
149 149 149
169 169 169
193 193 193
209 209 209
208 208 208
192 192 192
169 169 169
162 162 162
152 152 152
135 135 135
99 99 99
125 125 125
150 150 150
172 172 172
187 187 187
191 191 191
183 183 183
165 165 165
143 143 143
148 148 148
160 160 160
164 164 164
158 158 158
149 149 149
146 146 146
135 135 135
129 129 129
149 149 149
167 167 167
177 177 177
177 177 177
167 167 167
167 167 167
171 171 171
185 185 185
188 188 188
178 178 178
160 160 160
144 144 144
145 145 145
148 148 148
175 175 175
199 199 199
214 214 214
211 211 211
205 205 205
229 229 229
230 230 230
207 207 207
179 179 179
150 150 150
173 173 173
197 197 197
215 215 215
215 215 215
197 197 197
180 180 180
178 178 178
165 165 165
146 146 146
102 102 102
129 129 129
155 155 155
178 178 178
195 195 195
200 200 200
190 190 190
170 170 170
146 146 146
148 148 148
160 160 160
163 163 163
161 161 161
166 166 166
162 162 162
150 150 150
139 139 139
164 164 164
186 186 186
200 200 200
200 200 200
185 185 185
175 175 175
189 189 189
209 209 209
213 213 213
200 200 200
177 177 177
158 158 158
160 160 160
153 153 153
181 181 181
208 208 208
229 229 229
224 224 224
205 205 205
229 229 229
230 230 230
207 207 207
179 179 179
150 150 150
166 166 166
188 188 188
202 202 202
202 202 202
187 187 187
186 186 186
183 183 183
170 170 170
150 150 150
100 100 100
126 126 126
151 151 151
173 173 173
189 189 189
193 193 193
184 184 184
171 171 171
165 165 165
151 151 151
151 151 151
155 155 155
170 170 170
176 176 176
171 171 171
157 157 157
145 145 145
171 171 171
196 196 196
212 212 212
212 212 212
195 195 195
173 173 173
198 198 198
222 222 222
230 230 230
210 210 210
184 184 184
165 165 165
166 166 166
158 158 158
176 176 176
201 201 201
217 217 217
213 213 213
194 194 194
206 206 206
206 206 206
191 191 191
168 168 168
142 142 142
164 164 164
183 183 183
194 194 194
192 192 192
177 177 177
179 179 179
177 177 177
165 165 165
146 146 146
92 92 92
117 117 117
140 140 140
159 159 159
172 172 172
176 176 176
189 189 189
195 195 195
186 186 186
169 169 169
145 145 145
155 155 155
169 169 169
175 175 175
171 171 171
157 157 157
142 142 142
168 168 168
191 191 191
207 207 207
206 206 206
191 191 191
167 167 167
192 192 192
213 213 213
219 219 219
203 203 203
179 179 179
168 168 168
180 180 180
181 181 181
172 172 172
181 181 181
192 192 192
190 190 190
182 182 182
179 179 179
178 178 178
168 168 168
150 150 150
151 151 151
178 178 178
203 203 203
220 220 220
216 216 216
196 196 196
169 169 169
162 162 162
151 151 151
134 134 134
79 79 79
102 102 102
123 123 123
139 139 139
158 158 158
183 183 183
203 203 203
210 210 210
199 199 199
178 178 178
165 165 165
169 169 169
164 164 164
164 164 164
160 160 160
151 151 151
137 137 137
156 156 156
176 176 176
187 187 187
187 187 187
175 175 175
155 155 155
175 175 175
190 190 190
194 194 194
184 184 184
165 165 165
185 185 185
200 200 200
202 202 202
189 189 189
168 168 168
177 177 177
199 199 199
211 211 211
205 205 205
186 186 186
161 161 161
142 142 142
163 163 163
183 183 183
211 211 211
234 234 234
228 228 228
202 202 202
174 174 174
145 145 145
132 132 132
118 118 118
74 74 74
92 92 92
105 105 105
131 131 131
157 157 157
182 182 182
201 201 201
208 208 208
198 198 198
178 178 178
184 184 184
190 190 190
183 183 183
166 166 166
163 163 163
156 156 156
141 141 141
157 157 157
175 175 175
185 185 185
184 184 184
186 186 186
175 175 175
157 157 157
164 164 164
166 166 166
159 159 159
167 167 167
191 191 191
209 209 209
212 212 212
197 197 197
173 173 173
188 188 188
216 216 216
237 237 237
226 226 226
199 199 199
170 170 170
157 157 157
183 183 183
204 204 204
214 214 214
217 217 217
213 213 213
194 194 194
168 168 168
141 141 141
119 119 119
113 113 113
91 91 91
111 111 111
126 126 126
136 136 136
148 148 148
170 170 170
186 186 186
191 191 191
197 197 197
189 189 189
195 195 195
202 202 202
193 193 193
174 174 174
159 159 159
152 152 152
144 144 144
168 168 168
189 189 189
202 202 202
204 204 204
206 206 206
192 192 192
170 170 170
144 144 144
137 137 137
137 137 137
162 162 162
185 185 185
201 201 201
203 203 203
207 207 207
198 198 198
187 187 187
214 214 214
233 233 233
223 223 223
198 198 198
169 169 169
165 165 165
194 194 194
223 223 223
243 243 243
223 223 223
195 195 195
174 174 174
154 154 154
133 133 133
139 139 139
138 138 138
105 105 105
126 126 126
144 144 144
156 156 156
159 159 159
154 154 154
177 177 177
195 195 195
201 201 201
192 192 192
192 192 192
199 199 199
191 191 191
172 172 172
152 152 152
158 158 158
154 154 154
170 170 170
192 192 192
205 205 205
212 212 212
214 214 214
198 198 198
174 174 174
147 147 147
120 120 120
126 126 126
149 149 149
169 169 169
194 194 194
220 220 220
234 234 234
217 217 217
190 190 190
195 195 195
206 206 206
201 201 201
183 183 183
159 159 159
164 164 164
193 193 193
220 220 220
236 236 236
220 220 220
193 193 193
164 164 164
139 139 139
154 154 154
161 161 161
160 160 160
113 113 113
136 136 136
155 155 155
169 169 169
173 173 173
167 167 167
169 169 169
185 185 185
190 190 190
183 183 183
177 177 177
183 183 183
176 176 176
160 160 160
177 177 177
184 184 184
180 180 180
165 165 165
182 182 182
193 193 193
201 201 201
202 202 202
189 189 189
168 168 168
143 143 143
116 116 116
110 110 110
137 137 137
166 166 166
195 195 195
221 221 221
236 236 236
218 218 218
191 191 191
170 170 170
177 177 177
174 174 174
161 161 161
149 149 149
161 161 161
178 178 178
198 198 198
207 207 207
198 198 198
179 179 179
154 154 154
152 152 152
169 169 169
178 178 178
177 177 177
115 115 115
139 139 139
159 159 159
173 173 173
177 177 177
171 171 171
159 159 159
166 166 166
170 170 170
164 164 164
156 156 156
160 160 160
156 156 156
176 176 176
197 197 197
207 207 207
201 201 201
182 182 182
163 163 163
171 171 171
179 179 179
180 180 180
171 171 171
153 153 153
138 138 138
135 135 135
125 125 125
130 130 130
157 157 157
182 182 182
202 202 202
210 210 210
200 200 200
179 179 179
154 154 154
148 148 148
146 146 146
149 149 149
158 158 158
171 171 171
175 175 175
172 172 172
177 177 177
172 172 172
157 157 157
137 137 137
158 158 158
176 176 176
186 186 186
185 185 185
