P3
50 50
255
124 124 124
145 145 145
162 162 162
171 171 171
171 171 171
160 160 160
145 145 145
147 147 147
141 141 141
129 129 129
111 111 111
118 118 118
133 133 133
142 142 142
144 144 144
145 145 145
152 152 152
151 151 151
142 142 142
127 127 127
141 141 141
171 171 171
200 200 200
229 229 229
248 248 248
220 220 220
191 191 191
162 162 162
132 132 132
109 109 109
128 128 128
149 149 149
164 164 164
172 172 172
170 170 170
158 158 158
150 150 150
159 159 159
175 175 175
199 199 199
215 215 215
213 213 213
193 193 193
168 168 168
141 141 141
113 113 113
114 114 114
122 122 122
134 134 134
142 142 142
140 140 140
165 165 165
186 186 186
200 200 200
199 199 199
184 184 184
173 173 173
176 176 176
168 168 168
153 153 153
132 132 132
138 138 138
156 156 156
168 168 168
170 170 170
163 163 163
166 166 166
165 165 165
154 154 154
137 137 137
138 138 138
166 166 166
193 193 193
216 216 216
225 225 225
210 210 210
185 185 185
157 157 157
142 142 142
131 131 131
140 140 140
163 163 163
182 182 182
191 191 191
188 188 188
174 174 174
161 161 161
171 171 171
175 175 175
199 199 199
215 215 215
212 212 212
193 193 193
168 168 168
141 141 141
113 113 113
122 122 122
138 138 138
154 154 154
164 164 164
150 150 150
178 178 178
205 205 205
226 226 226
225 225 225
202 202 202
200 200 200
204 204 204
193 193 193
172 172 172
147 147 147
155 155 155
176 176 176
191 191 191
194 194 194
184 184 184
171 171 171
170 170 170
159 159 159
146 146 146
156 156 156
157 157 157
175 175 175
191 191 191
196 196 196
187 187 187
168 168 168
174 174 174
170 170 170
156 156 156
144 144 144
169 169 169
189 189 189
200 200 200
197 197 197
181 181 181
163 163 163
181 181 181
196 196 196
198 198 198
197 197 197
195 195 195
180 180 180
159 159 159
134 134 134
110 110 110
128 128 128
150 150 150
169 169 169
180 180 180
152 152 152
181 181 181
210 210 210
236 236 236
234 234 234
207 207 207
221 221 221
230 230 230
211 211 211
185 185 185
157 157 157
164 164 164
188 188 188
207 207 207
211 211 211
198 198 198
175 175 175
165 165 165
154 154 154
169 169 169
181 181 181
183 183 183
173 173 173
163 163 163
167 167 167
174 174 174
193 193 193
202 202 202
196 196 196
178 178 178
154 154 154
165 165 165
184 184 184
194 194 194
191 191 191
176 176 176
171 171 171
197 197 197
218 218 218
221 221 221
203 203 203
178 178 178
160 160 160
142 142 142
120 120 120
123 123 123
135 135 135
155 155 155
175 175 175
187 187 187
159 159 159
177 177 177
198 198 198
215 215 215
213 213 213
198 198 198
224 224 224
233 233 233
213 213 213
186 186 186
163 163 163
164 164 164
188 188 188
207 207 207
211 211 211
198 198 198
175 175 175
151 151 151
163 163 163
186 186 186
203 203 203
205 205 205
192 192 192
170 170 170
160 160 160
188 188 188
213 213 213
228 228 228
217 217 217
192 192 192
165 165 165
152 152 152
169 169 169
181 181 181
184 184 184
175 175 175
173 173 173
200 200 200
222 222 222
226 226 226
206 206 206
180 180 180
152 152 152
141 141 141
136 136 136
130 130 130
143 143 143
152 152 152
171 171 171
182 182 182
172 172 172
195 195 195
209 209 209
206 206 206
188 188 188
186 186 186
204 204 204
210 210 210
197 197 197
196 196 196
189 189 189
171 171 171
176 176 176
191 191 191
195 195 195
184 184 184
165 165 165
141 141 141
168 168 168
194 194 194
213 213 213
216 216 216
200 200 200
176 176 176
161 161 161
190 190 190
217 217 217
234 234 234
221 221 221
194 194 194
166 166 166
162 162 162
186 186 186
205 205 205
210 210 210
197 197 197
175 175 175
188 188 188
205 205 205
207 207 207
193 193 193
171 171 171
161 161 161
164 164 164
158 158 158
144 144 144
143 143 143
149 149 149
157 157 157
167 167 167
176 176 176
201 201 201
216 216 216
213 213 213
193 193 193
168 168 168
178 178 178
188 188 188
212 212 212
223 223 223
211 211 211
187 187 187
160 160 160
168 168 168
171 171 171
163 163 163
166 166 166
165 165 165
164 164 164
187 187 187
205 205 205
207 207 207
194 194 194
171 171 171
171 171 171
188 188 188
201 201 201
211 211 211
203 203 203
183 183 183
158 158 158
169 169 169
196 196 196
220 220 220
227 227 227
209 209 209
183 183 183
194 194 194
209 209 209
206 206 206
189 189 189
165 165 165
179 179 179
183 183 183
175 175 175
158 158 158
137 137 137
155 155 155
167 167 167
170 170 170
170 170 170
191 191 191
204 204 204
202 202 202
185 185 185
162 162 162
165 165 165
193 193 193
220 220 220
236 236 236
220 220 220
192 192 192
170 170 170
147 147 147
158 158 158
177 177 177
188 188 188
187 187 187
174 174 174
171 171 171
184 184 184
186 186 186
176 176 176
162 162 162
178 178 178
198 198 198
206 206 206
198 198 198
179 179 179
167 167 167
176 176 176
174 174 174
192 192 192
213 213 213
219 219 219
204 204 204
180 180 180
197 197 197
213 213 213
210 210 210
192 192 192
173 173 173
188 188 188
193 193 193
184 184 184
165 165 165
144 144 144
164 164 164
177 177 177
180 180 180
155 155 155
172 172 172
181 181 181
180 180 180
174 174 174
160 160 160
159 159 159
185 185 185
207 207 207
217 217 217
222 222 222
211 211 211
188 188 188
172 172 172
167 167 167
188 188 188
201 201 201
200 200 200
184 184 184
166 166 166
163 163 163
160 160 160
152 152 152
151 151 151
175 175 175
193 193 193
201 201 201
194 194 194
175 175 175
176 176 176
186 186 186
184 184 184
176 176 176
192 192 192
196 196 196
186 186 186
166 166 166
186 186 186
198 198 198
196 196 196
181 181 181
170 170 170
185 185 185
189 189 189
181 181 181
176 176 176
163 163 163
163 163 163
176 176 176
179 179 179
149 149 149
173 173 173
192 192 192
200 200 200
194 194 194
176 176 176
162 162 162
177 177 177
195 195 195
224 224 224
247 247 247
224 224 224
195 195 195
198 198 198
189 189 189
187 187 187
200 200 200
198 198 198
184 184 184
192 192 192
187 187 187
171 171 171
150 150 150
140 140 140
161 161 161
177 177 177
183 183 183
177 177 177
162 162 162
174 174 174
184 184 184
182 182 182
169 169 169
166 166 166
168 168 168
161 161 161
150 150 150
166 166 166
175 175 175
179 179 179
178 178 178
167 167 167
171 171 171
184 184 184
194 194 194
190 190 190
175 175 175
154 154 154
165 165 165
168 168 168
155 155 155
180 180 180
202 202 202
212 212 212
204 204 204
191 191 191
184 184 184
184 184 184
191 191 191
213 213 213
226 226 226
213 213 213
210 210 210
218 218 218
206 206 206
182 182 182
185 185 185
184 184 184
201 201 201
213 213 213
206 206 206
186 186 186
160 160 160
168 168 168
169 169 169
161 161 161
159 159 159
154 154 154
175 175 175
193 193 193
199 199 199
191 191 191
172 172 172
149 149 149
140 140 140
149 149 149
153 153 153
148 148 148
159 159 159
168 168 168
167 167 167
158 158 158
178 178 178
190 190 190
196 196 196
193 193 193
177 177 177
155 155 155
147 147 147
149 149 149
152 152 152
176 176 176
197 197 197
206 206 206
208 208 208
218 218 218
208 208 208
186 186 186
185 185 185
190 190 190
197 197 197
190 190 190
211 211 211
220 220 220
207 207 207
183 183 183
163 163 163
182 182 182
206 206 206
219 219 219
211 211 211
189 189 189
179 179 179
194 194 194
196 196 196
184 184 184
164 164 164
162 162 162
189 189 189
211 211 211
221 221 221
209 209 209
185 185 185
168 168 168
158 158 158
172 172 172
177 177 177
171 171 171
157 157 157
150 150 150
149 149 149
161 161 161
181 181 181
194 194 194
193 193 193
182 182 182
168 168 168
148 148 148
142 142 142
147 147 147
146 146 146
163 163 163
179 179 179
193 193 193
220 220 220
237 237 237
221 221 221
193 193 193
169 169 169
165 165 165
168 168 168
178 178 178
195 195 195
201 201 201
192 192 192
173 173 173
149 149 149
174 174 174
194 194 194
204 204 204
198 198 198
180 180 180
195 195 195
215 215 215
218 218 218
201 201 201
176 176 176
163 163 163
190 190 190
214 214 214
225 225 225
212 212 212
203 203 203
193 193 193
173 173 173
190 190 190
197 197 197
189 189 189
171 171 171
156 156 156
137 137 137
154 154 154
173 173 173
184 184 184
184 184 184
172 172 172
161 161 161
149 149 149
164 164 164
170 170 170
172 172 172
179 179 179
174 174 174
187 187 187
211 211 211
223 223 223
211 211 211
188 188 188
161 161 161
144 144 144
139 139 139
158 158 158
172 172 172
176 176 176
169 169 169
166 166 166
163 163 163
157 157 157
173 173 173
180 180 180
175 175 175
172 172 172
198 198 198
219 219 219
223 223 223
204 204 204
179 179 179
161 161 161
180 180 180
199 199 199
206 206 206
219 219 219
229 229 229
212 212 212
186 186 186
197 197 197
205 205 205
196 196 196
184 184 184
168 168 168
146 146 146
140 140 140
157 157 157
165 165 165
173 173 173
174 174 174
181 181 181
176 176 176
181 181 181
189 189 189
195 195 195
204 204 204
198 198 198
180 180 180
189 189 189
196 196 196
189 189 189
172 172 172
152 152 152
146 146 146
133 133 133
135 135 135
145 145 145
149 149 149
165 165 165
172 172 172
170 170 170
158 158 158
157 157 157
153 153 153
149 149 149
164 164 164
187 187 187
203 203 203
206 206 206
192 192 192
170 170 170
181 181 181
188 188 188
183 183 183
199 199 199
223 223 223
234 234 234
215 215 215
188 188 188
190 190 190
197 197 197
193 193 193
187 187 187
176 176 176
167 167 167
150 150 150
140 140 140
157 157 157
177 177 177
198 198 198
207 207 207
200 200 200
188 188 188
197 197 197
209 209 209
223 223 223
213 213 213
190 190 190
164 164 164
167 167 167
162 162 162
154 154 154
156 156 156
149 149 149
136 136 136
117 117 117
126 126 126
146 146 146
161 161 161
169 169 169
166 166 166
168 168 168
173 173 173
167 167 167
153 153 153
158 158 158
172 172 172
179 179 179
180 180 180
171 171 171
174 174 174
193 193 193
201 201 201
198 198 198
222 222 222
229 229 229
211 211 211
199 199 199
177 177 177
172 172 172
178 178 178
184 184 184
199 199 199
200 200 200
187 187 187
166 166 166
168 168 168
160 160 160
188 188 188
213 213 213
228 228 228
217 217 217
192 192 192
191 191 191
206 206 206
219 219 219
210 210 210
189 189 189
162 162 162
153 153 153
153 153 153
149 149 149
151 151 151
145 145 145
132 132 132
137 137 137
140 140 140
143 143 143
151 151 151
156 156 156
160 160 160
174 174 174
179 179 179
173 173 173
165 165 165
158 158 158
172 172 172
177 177 177
171 171 171
156 156 156
173 173 173
192 192 192
200 200 200
201 201 201
227 227 227
236 236 236
214 214 214
186 186 186
159 159 159
149 149 149
170 170 170
195 195 195
214 214 214
216 216 216
199 199 199
194 194 194
196 196 196
184 184 184
186 186 186
211 211 211
224 224 224
214 214 214
190 190 190
183 183 183
189 189 189
198 198 198
192 192 192
175 175 175
158 158 158
165 165 165
162 162 162
151 151 151
139 139 139
133 133 133
146 146 146
159 159 159
163 163 163
159 159 159
164 164 164
164 164 164
156 156 156
170 170 170
175 175 175
179 179 179
177 177 177
165 165 165
161 161 161
165 165 165
160 160 160
147 147 147
162 162 162
178 178 178
185 185 185
189 189 189
208 208 208
213 213 213
199 199 199
176 176 176
150 150 150
141 141 141
168 168 168
193 193 193
211 211 211
212 212 212
197 197 197
218 218 218
221 221 221
203 203 203
178 178 178
192 192 192
201 201 201
195 195 195
177 177 177
170 170 170
165 165 165
171 171 171
167 167 167
162 162 162
179 179 179
188 188 188
185 185 185
170 170 170
149 149 149
140 140 140
161 161 161
176 176 176
181 181 181
176 176 176
168 168 168
168 168 168
158 158 158
157 157 157
172 172 172
181 181 181
179 179 179
166 166 166
147 147 147
147 147 147
152 152 152
169 169 169
179 179 179
178 178 178
166 166 166
168 168 168
182 182 182
185 185 185
176 176 176
158 158 158
147 147 147
133 133 133
157 157 157
178 178 178
192 192 192
193 193 193
202 202 202
227 227 227
232 232 232
210 210 210
182 182 182
168 168 168
174 174 174
169 169 169
156 156 156
151 151 151
138 138 138
143 143 143
156 156 156
173 173 173
193 193 193
205 205 205
200 200 200
182 182 182
159 159 159
146 146 146
168 168 168
184 184 184
191 191 191
184 184 184
167 167 167
174 174 174
174 174 174
164 164 164
163 163 163
171 171 171
169 169 169
158 158 158
140 140 140
141 141 141
166 166 166
187 187 187
200 200 200
198 198 198
183 183 183
161 161 161
154 154 154
156 156 156
150 150 150
152 152 152
146 146 146
133 133 133
139 139 139
156 156 156
167 167 167
168 168 168
192 192 192
211 211 211
214 214 214
199 199 199
175 175 175
176 176 176
179 179 179
171 171 171
155 155 155
134 134 134
140 140 140
158 158 158
169 169 169
174 174 174
195 195 195
206 206 206
202 202 202
184 184 184
160 160 160
143 143 143
165 165 165
181 181 181
187 187 187
181 181 181
188 188 188
203 203 203
203 203 203
189 189 189
166 166 166
154 154 154
152 152 152
158 158 158
160 160 160
153 153 153
171 171 171
194 194 194
209 209 209
207 207 207
190 190 190
166 166 166
153 153 153
167 167 167
173 173 173
169 169 169
156 156 156
136 136 136
141 141 141
160 160 160
171 171 171
174 174 174
173 173 173
186 186 186
187 187 187
177 177 177
177 177 177
194 194 194
198 198 198
188 188 188
168 168 168
145 145 145
158 158 158
180 180 180
195 195 195
197 197 197
185 185 185
192 192 192
189 189 189
173 173 173
152 152 152
136 136 136
153 153 153
167 167 167
172 172 172
178 178 178
205 205 205
229 229 229
230 230 230
206 206 206
179 179 179
150 150 150
170 170 170
183 183 183
185 185 185
176 176 176
167 167 167
188 188 188
201 201 201
200 200 200
184 184 184
162 162 162
174 174 174
194 194 194
203 203 203
196 196 196
178 178 178
154 154 154
153 153 153
174 174 174
188 188 188
192 192 192
182 182 182
176 176 176
183 183 183
183 183 183
183 183 183
200 200 200
205 205 205
194 194 194
173 173 173
148 148 148
169 169 169
195 195 195
215 215 215
219 219 219
202 202 202
177 177 177
167 167 167
160 160 160
166 166 166
162 162 162
158 158 158
166 166 166
164 164 164
180 180 180
209 209 209
236 236 236
237 237 237
210 210 210
181 181 181
162 162 162
185 185 185
202 202 202
206 206 206
193 193 193
171 171 171
171 171 171
181 181 181
180 180 180
168 168 168
161 161 161
189 189 189
215 215 215
231 231 231
219 219 219
194 194 194
166 166 166
157 157 157
179 179 179
195 195 195
198 198 198
187 187 187
180 180 180
188 188 188
185 185 185
180 180 180
192 192 192
196 196 196
186 186 186
167 167 167
144 144 144
171 171 171
197 197 197
219 219 219
223 223 223
205 205 205
179 179 179
166 166 166
183 183 183
190 190 190
185 185 185
169 169 169
173 173 173
171 171 171
171 171 171
195 195 195
212 212 212
213 213 213
196 196 196
172 172 172
166 166 166
191 191 191
210 210 210
214 214 214
199 199 199
176 176 176
149 149 149
156 156 156
156 156 156
146 146 146
163 163 163
192 192 192
221 221 221
244 244 244
226 226 226
197 197 197
168 168 168
152 152 152
173 173 173
187 187 187
191 191 191
181 181 181
173 173 173
180 180 180
175 175 175
170 170 170
173 173 173
176 176 176
169 169 169
153 153 153
143 143 143
163 163 163
186 186 186
202 202 202
205 205 205
192 192 192
170 170 170
178 178 178
198 198 198
208 208 208
200 200 200
181 181 181
170 170 170
168 168 168
185 185 185
198 198 198
197 197 197
185 185 185
173 173 173
154 154 154
160 160 160
183 183 183
199 199 199
202 202 202
190 190 190
169 169 169
144 144 144
140 140 140
141 141 141
134 134 134
156 156 156
183 183 183
205 205 205
217 217 217
208 208 208
187 187 187
161 161 161
140 140 140
158 158 158
170 170 170
172 172 172
164 164 164
157 157 157
163 163 163
159 159 159
153 153 153
149 149 149
152 152 152
146 146 146
133 133 133
137 137 137
147 147 147
166 166 166
178 178 178
179 179 179
185 185 185
179 179 179
179 179 179
200 200 200
210 210 210
203 203 203
183 183 183
158 158 158
170 170 170
193 193 193
208 208 208
207 207 207
190 190 190
168 168 168
171 171 171
165 165 165
166 166 166
178 178 178
180 180 180
172 172 172
154 154 154
152 152 152
162 162 162
163 163 163
155 155 155
142 142 142
164 164 164
181 181 181
188 188 188
183 183 183
167 167 167
146 146 146
138 138 138
145 145 145
160 160 160
166 166 166
163 163 163
163 163 163
154 154 154
140 140 140
142 142 142
138 138 138
126 126 126
123 123 123
132 132 132
134 134 134
137 137 137
156 156 156
181 181 181
202 202 202
210 210 210
201 201 201
180 180 180
188 188 188
196 196 196
190 190 190
173 173 173
150 150 150
167 167 167
189 189 189
202 202 202
201 201 201
186 186 186
186 186 186
191 191 191
183 183 183
165 165 165
153 153 153
155 155 155
148 148 148
149 149 149
167 167 167
179 179 179
180 180 180
170 170 170
152 152 152
163 163 163
171 171 171
170 170 170
159 159 159
158 158 158
167 167 167
167 167 167
158 158 158
158 158 158
165 165 165
170 170 170
171 171 171
162 162 162
145 145 145
147 147 147
142 142 142
131 131 131
149 149 149
160 160 160
163 163 163
136 136 136
162 162 162
190 190 190
214 214 214
225 225 225
212 212 212
188 188 188
185 185 185
176 176 176
168 168 168
155 155 155
153 153 153
154 154 154
173 173 173
183 183 183
182 182 182
178 178 178
195 195 195
201 201 201
191 191 191
172 172 172
148 148 148
147 147 147
162 162 162
170 170 170
174 174 174
186 186 186
188 188 188
177 177 177
158 158 158
173 173 173
183 183 183
182 182 182
169 169 169
183 183 183
196 196 196
196 196 196
182 182 182
161 161 161
158 158 158
168 168 168
169 169 169
160 160 160
144 144 144
145 145 145
140 140 140
151 151 151
172 172 172
187 187 187
191 191 191
132 132 132
159 159 159
185 185 185
207 207 207
216 216 216
206 206 206
209 209 209
213 213 213
199 199 199
176 176 176
172 172 172
182 182 182
179 179 179
167 167 167
159 159 159
158 158 158
174 174 174
191 191 191
196 196 196
187 187 187
168 168 168
150 150 150
158 158 158
175 175 175
184 184 184
182 182 182
182 182 182
183 183 183
173 173 173
155 155 155
173 173 173
183 183 183
182 182 182
176 176 176
202 202 202
222 222 222
222 222 222
202 202 202
175 175 175
148 148 148
157 157 157
158 158 158
150 150 150
149 149 149
157 157 157
156 156 156
164 164 164
190 190 190
211 211 211
218 218 218
122 122 122
148 148 148
170 170 170
187 187 187
193 193 193
202 202 202
229 229 229
237 237 237
213 213 213
185 185 185
196 196 196
210 210 210
206 206 206
188 188 188
164 164 164
151 151 151
161 161 161
175 175 175
179 179 179
172 172 172
163 163 163
165 165 165
162 162 162
181 181 181
192 192 192
189 189 189
175 175 175
168 168 168
159 159 159
147 147 147
164 164 164
172 172 172
171 171 171
180 180 180
209 209 209
236 236 236
235 235 235
209 209 209
180 180 180
150 150 150
139 139 139
140 140 140
150 150 150
167 167 167
176 176 176
175 175 175
170 170 170
198 198 198
224 224 224
234 234 234
108 108 108
130 130 130
149 149 149
161 161 161
172 172 172
199 199 199
223 223 223
229 229 229
210 210 210
184 184 184
211 211 211
234 234 234
227 227 227
202 202 202
173 173 173
156 156 156
154 154 154
152 152 152
155 155 155
157 157 157
169 169 169
172 172 172
164 164 164
182 182 182
192 192 192
190 190 190
176 176 176
154 154 154
140 140 140
132 132 132
146 146 146
154 154 154
172 172 172
188 188 188
199 199 199
217 217 217
217 217 217
198 198 198
173 173 173
153 153 153
150 150 150
139 139 139
159 159 159
177 177 177
191 191 191
200 200 200
193 193 193
191 191 191
213 213 213
220 220 220
97 97 97
119 119 119
138 138 138
151 151 151
164 164 164
183 183 183
199 199 199
202 202 202
191 191 191
183 183 183
209 209 209
230 230 230
224 224 224
200 200 200
176 176 176
185 185 185
182 182 182
169 169 169
166 166 166
169 169 169
170 170 170
174 174 174
167 167 167
171 171 171
180 180 180
178 178 178
166 166 166
147 147 147
136 136 136
144 144 144
144 144 144
149 149 149
170 170 170
185 185 185
189 189 189
190 190 190
190 190 190
177 177 177
174 174 174
182 182 182
178 178 178
164 164 164
160 160 160
188 188 188
214 214 214
229 229 229
217 217 217
193 193 193
189 189 189
193 193 193
109 109 109
132 132 132
153 153 153
169 169 169
177 177 177
179 179 179
173 173 173
174 174 174
166 166 166
170 170 170
192 192 192
205 205 205
202 202 202
185 185 185
199 199 199
213 213 213
208 208 208
189 189 189
180 180 180
184 184 184
177 177 177
170 170 170
164 164 164
153 153 153
160 160 160
158 158 158
148 148 148
144 144 144
162 162 162
172 172 172
173 173 173
163 163 163
158 158 158
171 171 171
175 175 175
168 168 168
161 161 161
177 177 177
199 199 199
211 211 211
205 205 205
186 186 186
164 164 164
193 193 193
222 222 222
249 249 249
227 227 227
198 198 198
169 169 169
165 165 165
120 120 120
140 140 140
162 162 162
180 180 180
188 188 188
184 184 184
172 172 172
158 158 158
139 139 139
151 151 151
168 168 168
176 176 176
174 174 174
185 185 185
213 213 213
234 234 234
226 226 226
200 200 200
184 184 184
189 189 189
181 181 181
164 164 164
152 152 152
138 138 138
136 136 136
135 135 135
139 139 139
163 163 163
185 185 185
199 199 199
200 200 200
187 187 187
183 183 183
175 175 175
159 159 159
154 154 154
160 160 160
189 189 189
217 217 217
240 240 240
227 227 227
199 199 199
173 173 173
185 185 185
208 208 208
221 221 221
211 211 211
189 189 189
162 162 162
136 136 136
140 140 140
152 152 152
162 162 162
179 179 179
188 188 188
184 184 184
169 169 169
148 148 148
130 130 130
128 128 128
141 141 141
160 160 160
174 174 174
182 182 182
208 208 208
226 226 226
219 219 219
196 196 196
188 188 188
180 180 180
173 173 173
157 157 157
151 151 151
138 138 138
137 137 137
151 151 151
159 159 159
174 174 174
201 201 201
222 222 222
223 223 223
205 205 205
210 210 210
199 199 199
177 177 177
164 164 164
160 160 160
188 188 188
216 216 216
238 238 238
225 225 225
198 198 198
192 192 192
202 202 202
197 197 197
192 192 192
186 186 186
170 170 170
148 148 148
123 123 123
155 155 155
170 170 170
175 175 175
170 170 170
175 175 175
172 172 172
164 164 164
162 162 162
152 152 152
135 135 135
153 153 153
175 175 175
192 192 192
197 197 197
189 189 189
200 200 200
204 204 204
214 214 214
205 205 205
183 183 183
173 173 173
177 177 177
171 171 171
156 156 156
148 148 148
164 164 164
173 173 173
176 176 176
204 204 204
227 227 227
228 228 228
221 221 221
231 231 231
213 213 213
186 186 186
165 165 165
176 176 176
185 185 185
197 197 197
212 212 212
216 216 216
201 201 201
199 199 199
211 211 211
205 205 205
186 186 186
161 161 161
146 146 146
128 128 128
136 136 136
164 164 164
179 179 179
185 185 185
179 179 179
164 164 164
174 174 174
183 183 183
181 181 181
169 169 169
149 149 149
157 157 157
181 181 181
199 199 199
205 205 205
195 195 195
184 184 184
206 206 206
216 216 216
207 207 207
185 185 185
187 187 187
192 192 192
185 185 185
167 167 167
152 152 152
169 169 169
178 178 178
176 176 176
191 191 191
207 207 207
208 208 208
217 217 217
225 225 225
209 209 209
184 184 184
164 164 164
183 183 183
193 193 193
199 199 199
223 223 223
229 229 229
209 209 209
192 192 192
203 203 203
198 198 198
180 180 180
157 157 157
131 131 131
144 144 144
149 149 149
163 163 163
178 178 178
184 184 184
178 178 178
164 164 164
184 184 184
195 195 195
192 192 192
178 178 178
156 156 156
153 153 153
175 175 175
192 192 192
197 197 197
188 188 188
189 189 189
192 192 192
200 200 200
193 193 193
175 175 175
189 189 189
195 195 195
187 187 187
169 169 169
158 158 158
168 168 168
172 172 172
170 170 170
169 169 169
181 181 181
181 181 181
196 196 196
200 200 200
190 190 190
171 171 171
160 160 160
178 178 178
187 187 187
192 192 192
211 211 211
215 215 215
200 200 200
177 177 177
182 182 182
178 178 178
165 165 165
146 146 146
154 154 154
170 170 170
178 178 178
153 153 153
167 167 167
172 172 172
167 167 167
162 162 162
182 182 182
193 193 193
190 190 190
176 176 176
155 155 155
141 141 141
161 161 161
174 174 174
178 178 178
176 176 176
181 181 181
175 175 175
175 175 175
170 170 170
164 164 164
179 179 179
184 184 184
177 177 177
161 161 161
183 183 183
197 197 197
197 197 197
184 184 184
163 163 163
153 153 153
157 157 157
169 169 169
173 173 173
166 166 166
151 151 151
148 148 148
163 163 163
171 171 171
174 174 174
188 188 188
190 190 190
180 180 180
161 161 161
157 157 157
166 166 166
175 175 175
174 174 174
173 173 173
194 194 194
205 205 205
137 137 137
148 148 148
152 152 152
148 148 148
152 152 152
169 169 169
178 178 178
176 176 176
164 164 164
146 146 146
123 123 123
140 140 140
151 151 151
154 154 154
160 160 160
164 164 164
168 168 168
186 186 186
195 195 195
191 191 191
174 174 174
165 165 165
159 159 159
175 175 175
202 202 202
224 224 224
225 225 225
204 204 204
177 177 177
149 149 149
136 136 136
144 144 144
163 163 163
176 176 176
179 179 179
171 171 171
157 157 157
167 167 167
167 167 167
160 160 160
162 162 162
155 155 155
142 142 142
167 167 167
189 189 189
202 202 202
200 200 200
185 185 185
211 211 211
228 228 228
116 116 116
125 125 125
129 129 129
136 136 136
144 144 144
151 151 151
157 157 157
155 155 155
146 146 146
130 130 130
122 122 122
138 138 138
150 150 150
155 155 155
151 151 151
156 156 156
183 183 183
208 208 208
223 223 223
215 215 215
192 192 192
165 165 165
150 150 150
180 180 180
209 209 209
238 238 238
240 240 240
211 211 211
182 182 182
166 166 166
158 158 158
161 161 161
185 185 185
203 203 203
207 207 207
195 195 195
181 181 181
195 195 195
196 196 196
184 184 184
163 163 163
139 139 139
151 151 151
178 178 178
204 204 204
223 223 223
220 220 220
199 199 199
211 211 211
228 228 228
96 96 96
120 120 120
142 142 142
160 160 160
171 171 171
177 177 177
181 181 181
173 173 173
156 156 156
135 135 135
149 149 149
157 157 157
167 167 167
173 173 173
169 169 169
160 160 160
189 189 189
217 217 217
239 239 239
226 226 226
198 198 198
175 175 175
163 163 163
173 173 173
199 199 199
218 218 218
219 219 219
200 200 200
183 183 183
185 185 185
183 183 183
172 172 172
198 198 198
223 223 223
231 231 231
212 212 212
200 200 200
222 222 222
224 224 224
204 204 204
178 178 178
150 150 150
151 151 151
179 179 179
205 205 205
224 224 224
221 221 221
199 199 199
194 194 194
205 205 205
107 107 107
134 134 134
159 159 159
181 181 181
195 195 195
200 200 200
205 205 205
194 194 194
173 173 173
155 155 155
174 174 174
186 186 186
186 186 186
184 184 184
178 178 178
164 164 164
182 182 182
206 206 206
220 220 220
212 212 212
203 203 203
200 200 200
184 184 184
161 161 161
178 178 178
190 190 190
191 191 191
179 179 179
191 191 191
201 201 201
202 202 202
189 189 189
198 198 198
223 223 223
231 231 231
211 211 211
208 208 208
236 236 236
240 240 240
212 212 212
183 183 183
153 153 153
143 143 143
169 169 169
190 190 190
204 204 204
202 202 202
186 186 186
170 170 170
177 177 177
113 113 113
141 141 141
168 168 168
193 193 193
213 213 213
216 216 216
221 221 221
206 206 206
182 182 182
172 172 172
196 196 196
214 214 214
214 214 214
196 196 196
178 178 178
164 164 164
165 165 165
183 183 183
192 192 192
205 205 205
222 222 222
218 218 218
196 196 196
170 170 170
152 152 152
162 162 162
162 162 162
174 174 174
191 191 191
208 208 208
210 210 210
195 195 195
184 184 184
202 202 202
206 206 206
194 194 194
198 198 198
218 218 218
220 220 220
201 201 201
176 176 176
148 148 148
134 134 134
152 152 152
168 168 168
177 177 177
176 176 176
164 164 164
146 146 146
149 149 149
113 113 113
141 141 141
168 168 168
194 194 194
213 213 213
216 216 216
215 215 215
202 202 202
179 179 179
180 180 180
209 209 209
236 236 236
236 236 236
209 209 209
190 190 190
181 181 181
162 162 162
157 157 157
179 179 179
203 203 203
220 220 220
216 216 216
195 195 195
169 169 169
141 141 141
132 132 132
143 143 143
162 162 162
184 184 184
199 199 199
200 200 200
187 187 187
166 166 166
175 175 175
178 178 178
170 170 170
177 177 177
191 191 191
192 192 192
180 180 180
160 160 160
142 142 142
125 125 125
138 138 138
148 148 148
150 150 150
148 148 148
139 139 139
148 148 148
157 157 157
134 134 134
153 153 153
165 165 165
181 181 181
196 196 196
198 198 198
193 193 193
184 184 184
165 165 165
177 177 177
204 204 204
227 227 227
226 226 226
204 204 204
198 198 198
187 187 187
167 167 167
144 144 144
167 167 167
188 188 188
199 199 199
197 197 197
181 181 181
166 166 166
167 167 167
158 158 158
142 142 142
148 148 148
166 166 166
178 178 178
179 179 179
169 169 169
156 156 156
147 147 147
149 149 149
143 143 143
160 160 160
180 180 180
191 191 191
190 190 190
177 177 177
156 156 156
132 132 132
126 126 126
127 127 127
129 129 129
127 127 127
149 149 149
168 168 168
178 178 178
153 153 153
176 176 176
193 193 193
198 198 198
189 189 189
173 173 173
167 167 167
160 160 160
146 146 146
164 164 164
186 186 186
200 200 200
200 200 200
188 188 188
191 191 191
181 181 181
179 179 179
168 168 168
150 150 150
165 165 165
173 173 173
171 171 171
180 180 180
194 194 194
195 195 195
183 183 183
163 163 163
138 138 138
144 144 144
163 163 163
174 174 174
176 176 176
167 167 167
150 150 150
129 129 129
142 142 142
168 168 168
190 190 190
203 203 203
202 202 202
186 186 186
164 164 164
156 156 156
151 151 151
140 140 140
122 122 122
135 135 135
160 160 160
180 180 180
193 193 193
166 166 166
193 193 193
217 217 217
226 226 226
211 211 211
186 186 186
162 162 162
162 162 162
152 152 152
145 145 145
162 162 162
172 172 172
172 172 172
171 171 171
188 188 188
202 202 202
202 202 202
187 187 187
165 165 165
140 140 140
145 145 145
173 173 173
199 199 199
220 220 220
222 222 222
203 203 203
177 177 177
157 157 157
162 162 162
165 165 165
177 177 177
179 179 179
170 170 170
153 153 153
131 131 131
141 141 141
166 166 166
187 187 187
200 200 200
199 199 199
184 184 184
174 174 174
180 180 180
174 174 174
160 160 160
139 139 139
137 137 137
161 161 161
182 182 182
196 196 196
169 169 169
199 199 199
227 227 227
243 243 243
219 219 219
191 191 191
184 184 184
183 183 183
171 171 171
152 152 152
143 143 143
147 147 147
146 146 146
173 173 173
198 198 198
216 216 216
215 215 215
197 197 197
172 172 172
145 145 145
148 148 148
177 177 177
205 205 205
231 231 231
234 234 234
210 210 210
181 181 181
179 179 179
187 187 187
182 182 182
169 169 169
171 171 171
162 162 162
146 146 146
126 126 126
132 132 132
155 155 155
173 173 173
183 183 183
182 182 182
173 173 173
191 191 191
199 199 199
192 192 192
174 174 174
151 151 151
147 147 147
159 159 159
173 173 173
185 185 185
163 163 163
190 190 190
212 212 212
220 220 220
207 207 207
184 184 184
197 197 197
196 196 196
182 182 182
161 161 161
136 136 136
130 130 130
143 143 143
170 170 170
194 194 194
210 210 210
210 210 210
193 193 193
169 169 169
143 143 143
143 143 143
170 170 170
196 196 196
215 215 215
224 224 224
209 209 209
184 184 184
196 196 196
206 206 206
200 200 200
181 181 181
157 157 157
147 147 147
148 148 148
146 146 146
137 137 137
137 137 137
152 152 152
165 165 165
186 186 186
198 198 198
197 197 197
206 206 206
198 198 198
179 179 179
154 154 154
158 158 158
165 165 165
174 174 174
172 172 172
