P3
50 50
255
107 107 107
125 125 125
139 139 139
146 146 146
146 146 146
138 138 138
124 124 124
124 124 124
120 120 120
109 109 109
105 105 105
113 113 113
115 115 115
136 136 136
160 160 160
179 179 179
190 190 190
188 188 188
175 175 175
155 155 155
130 130 130
149 149 149
171 171 171
186 186 186
191 191 191
182 182 182
167 167 167
172 172 172
166 166 166
152 152 152
133 133 133
110 110 110
121 121 121
126 126 126
124 124 124
117 117 117
123 123 123
151 151 151
179 179 179
205 205 205
224 224 224
221 221 221
199 199 199
172 172 172
144 144 144
140 140 140
159 159 159
171 171 171
174 174 174
167 167 167
123 123 123
142 142 142
158 158 158
167 167 167
166 166 166
156 156 156
145 145 145
147 147 147
141 141 141
129 129 129
126 126 126
135 135 135
137 137 137
148 148 148
175 175 175
199 199 199
215 215 215
212 212 212
194 194 194
169 169 169
141 141 141
145 145 145
166 166 166
180 180 180
184 184 184
177 177 177
182 182 182
188 188 188
181 181 181
165 165 165
143 143 143
120 120 120
132 132 132
137 137 137
136 136 136
127 127 127
123 123 123
151 151 151
179 179 179
205 205 205
224 224 224
221 221 221
199 199 199
172 172 172
144 144 144
150 150 150
171 171 171
186 186 186
189 189 189
191 191 191
151 151 151
153 153 153
170 170 170
180 180 180
180 180 180
168 168 168
163 163 163
166 166 166
159 159 159
144 144 144
143 143 143
154 154 154
156 156 156
152 152 152
180 180 180
207 207 207
228 228 228
224 224 224
201 201 201
174 174 174
145 145 145
134 134 134
152 152 152
165 165 165
168 168 168
170 170 170
187 187 187
193 193 193
186 186 186
169 169 169
146 146 146
124 124 124
136 136 136
142 142 142
140 140 140
138 138 138
130 130 130
146 146 146
168 168 168
190 190 190
203 203 203
201 201 201
185 185 185
162 162 162
136 136 136
153 153 153
174 174 174
189 189 189
199 199 199
219 219 219
176 176 176
180 180 180
173 173 173
183 183 183
183 183 183
171 171 171
174 174 174
177 177 177
169 169 169
153 153 153
154 154 154
166 166 166
169 169 169
162 162 162
175 175 175
199 199 199
215 215 215
212 212 212
194 194 194
169 169 169
141 141 141
141 141 141
135 135 135
143 143 143
146 146 146
166 166 166
183 183 183
191 191 191
185 185 185
169 169 169
147 147 147
123 123 123
142 142 142
156 156 156
162 162 162
159 159 159
148 148 148
156 156 156
167 167 167
168 168 168
176 176 176
174 174 174
163 163 163
145 145 145
124 124 124
147 147 147
167 167 167
180 180 180
209 209 209
237 237 237
198 198 198
204 204 204
193 193 193
175 175 175
174 174 174
164 164 164
175 175 175
178 178 178
170 170 170
160 160 160
157 157 157
170 170 170
173 173 173
166 166 166
160 160 160
179 179 179
190 190 190
188 188 188
175 175 175
155 155 155
152 152 152
153 153 153
146 146 146
132 132 132
153 153 153
178 178 178
199 199 199
209 209 209
202 202 202
182 182 182
157 157 157
133 133 133
154 154 154
171 171 171
178 178 178
175 175 175
162 162 162
158 158 158
168 168 168
170 170 170
161 161 161
147 147 147
140 140 140
128 128 128
112 112 112
134 134 134
151 151 151
175 175 175
201 201 201
222 222 222
211 211 211
217 217 217
204 204 204
180 180 180
158 158 158
154 154 154
166 166 166
168 168 168
180 180 180
185 185 185
179 179 179
163 163 163
166 166 166
159 159 159
146 146 146
154 154 154
162 162 162
161 161 161
151 151 151
147 147 147
157 157 157
158 158 158
151 151 151
136 136 136
154 154 154
180 180 180
202 202 202
212 212 212
204 204 204
184 184 184
159 159 159
137 137 137
160 160 160
177 177 177
185 185 185
182 182 182
168 168 168
151 151 151
160 160 160
162 162 162
154 154 154
139 139 139
119 119 119
117 117 117
117 117 117
122 122 122
145 145 145
165 165 165
182 182 182
195 195 195
205 205 205
211 211 211
199 199 199
177 177 177
151 151 151
151 151 151
155 155 155
178 178 178
198 198 198
206 206 206
197 197 197
178 178 178
153 153 153
145 145 145
133 133 133
128 128 128
134 134 134
133 133 133
128 128 128
144 144 144
153 153 153
154 154 154
147 147 147
133 133 133
147 147 147
171 171 171
189 189 189
198 198 198
192 192 192
174 174 174
152 152 152
137 137 137
156 156 156
172 172 172
180 180 180
177 177 177
163 163 163
146 146 146
153 153 153
152 152 152
143 143 143
127 127 127
128 128 128
140 140 140
146 146 146
144 144 144
162 162 162
186 186 186
204 204 204
209 209 209
186 186 186
190 190 190
182 182 182
164 164 164
162 162 162
176 176 176
181 181 181
183 183 183
204 204 204
213 213 213
203 203 203
182 182 182
156 156 156
146 146 146
141 141 141
131 131 131
137 137 137
136 136 136
128 128 128
133 133 133
143 143 143
149 149 149
147 147 147
138 138 138
134 134 134
154 154 154
168 168 168
174 174 174
170 170 170
157 157 157
137 137 137
135 135 135
152 152 152
164 164 164
166 166 166
162 162 162
151 151 151
148 148 148
155 155 155
154 154 154
145 145 145
131 131 131
152 152 152
168 168 168
175 175 175
173 173 173
171 171 171
199 199 199
225 225 225
234 234 234
161 161 161
164 164 164
181 181 181
188 188 188
183 183 183
197 197 197
203 203 203
193 193 193
194 194 194
202 202 202
194 194 194
176 176 176
170 170 170
174 174 174
168 168 168
153 153 153
144 144 144
143 143 143
135 135 135
148 148 148
164 164 164
172 172 172
170 170 170
158 158 158
140 140 140
141 141 141
145 145 145
148 148 148
150 150 150
146 146 146
134 134 134
127 127 127
142 142 142
152 152 152
155 155 155
148 148 148
135 135 135
142 142 142
148 148 148
147 147 147
138 138 138
147 147 147
172 172 172
193 193 193
205 205 205
200 200 200
183 183 183
198 198 198
223 223 223
232 232 232
156 156 156
182 182 182
205 205 205
216 216 216
207 207 207
207 207 207
215 215 215
203 203 203
181 181 181
182 182 182
188 188 188
182 182 182
195 195 195
201 201 201
192 192 192
172 172 172
148 148 148
142 142 142
142 142 142
161 161 161
179 179 179
189 189 189
186 186 186
172 172 172
151 151 151
134 134 134
146 146 146
159 159 159
164 164 164
159 159 159
146 146 146
135 135 135
126 126 126
134 134 134
136 136 136
133 133 133
136 136 136
132 132 132
135 135 135
134 134 134
140 140 140
165 165 165
187 187 187
213 213 213
233 233 233
225 225 225
199 199 199
184 184 184
201 201 201
206 206 206
162 162 162
191 191 191
218 218 218
237 237 237
222 222 222
201 201 201
207 207 207
197 197 197
176 176 176
177 177 177
183 183 183
191 191 191
214 214 214
223 223 223
209 209 209
185 185 185
157 157 157
140 140 140
153 153 153
165 165 165
185 185 185
196 196 196
192 192 192
177 177 177
169 169 169
160 160 160
151 151 151
165 165 165
169 169 169
164 164 164
156 156 156
151 151 151
139 139 139
134 134 134
148 148 148
161 161 161
165 165 165
160 160 160
147 147 147
128 128 128
150 150 150
178 178 178
206 206 206
228 228 228
243 243 243
230 230 230
202 202 202
188 188 188
177 177 177
177 177 177
159 159 159
186 186 186
211 211 211
225 225 225
214 214 214
191 191 191
186 186 186
179 179 179
162 162 162
162 162 162
167 167 167
192 192 192
215 215 215
225 225 225
210 210 210
185 185 185
158 158 158
141 141 141
155 155 155
160 160 160
179 179 179
188 188 188
185 185 185
193 193 193
195 195 195
183 183 183
163 163 163
160 160 160
165 165 165
162 162 162
166 166 166
162 162 162
166 166 166
159 159 159
171 171 171
188 188 188
195 195 195
187 187 187
170 170 170
147 147 147
152 152 152
182 182 182
211 211 211
239 239 239
237 237 237
210 210 210
190 190 190
189 189 189
178 178 178
159 159 159
148 148 148
171 171 171
190 190 190
198 198 198
192 192 192
179 179 179
173 173 173
159 159 159
160 160 160
153 153 153
156 156 156
180 180 180
198 198 198
204 204 204
195 195 195
175 175 175
161 161 161
151 151 151
148 148 148
154 154 154
163 163 163
171 171 171
194 194 194
213 213 213
216 216 216
200 200 200
176 176 176
149 149 149
152 152 152
164 164 164
171 171 171
186 186 186
190 190 190
181 181 181
189 189 189
212 212 212
223 223 223
211 211 211
187 187 187
160 160 160
146 146 146
174 174 174
198 198 198
216 216 216
215 215 215
197 197 197
178 178 178
178 178 178
169 169 169
151 151 151
172 172 172
179 179 179
175 175 175
184 184 184
196 196 196
194 194 194
180 180 180
182 182 182
185 185 185
176 176 176
159 159 159
160 160 160
174 174 174
178 178 178
177 177 177
186 186 186
183 183 183
170 170 170
149 149 149
140 140 140
143 143 143
171 171 171
197 197 197
218 218 218
221 221 221
203 203 203
178 178 178
150 150 150
144 144 144
159 159 159
183 183 183
202 202 202
208 208 208
197 197 197
196 196 196
225 225 225
245 245 245
223 223 223
194 194 194
165 165 165
135 135 135
157 157 157
176 176 176
188 188 188
187 187 187
175 175 175
167 167 167
159 159 159
151 151 151
157 157 157
195 195 195
205 205 205
199 199 199
186 186 186
198 198 198
196 196 196
185 185 185
202 202 202
206 206 206
194 194 194
172 172 172
147 147 147
147 147 147
169 169 169
190 190 190
201 201 201
198 198 198
181 181 181
159 159 159
146 146 146
156 156 156
181 181 181
201 201 201
209 209 209
205 205 205
191 191 191
169 169 169
144 144 144
149 149 149
170 170 170
185 185 185
205 205 205
211 211 211
199 199 199
189 189 189
213 213 213
224 224 224
211 211 211
187 187 187
160 160 160
132 132 132
135 135 135
150 150 150
159 159 159
158 158 158
157 157 157
162 162 162
158 158 158
150 150 150
175 175 175
210 210 210
223 223 223
214 214 214
191 191 191
189 189 189
202 202 202
201 201 201
210 210 210
214 214 214
200 200 200
177 177 177
151 151 151
145 145 145
170 170 170
191 191 191
203 203 203
199 199 199
182 182 182
167 167 167
175 175 175
173 173 173
193 193 193
219 219 219
233 233 233
217 217 217
191 191 191
162 162 162
139 139 139
160 160 160
183 183 183
200 200 200
204 204 204
196 196 196
187 187 187
172 172 172
189 189 189
195 195 195
188 188 188
170 170 170
152 152 152
150 150 150
160 160 160
161 161 161
154 154 154
151 151 151
165 165 165
171 171 171
167 167 167
158 158 158
185 185 185
207 207 207
220 220 220
211 211 211
189 189 189
196 196 196
211 211 211
209 209 209
200 200 200
203 203 203
192 192 192
171 171 171
146 146 146
158 158 158
178 178 178
190 190 190
190 190 190
186 186 186
172 172 172
191 191 191
204 204 204
201 201 201
192 192 192
217 217 217
230 230 230
215 215 215
190 190 190
162 162 162
154 154 154
161 161 161
185 185 185
203 203 203
208 208 208
195 195 195
174 174 174
151 151 151
161 161 161
166 166 166
161 161 161
158 158 158
159 159 159
172 172 172
185 185 185
186 186 186
176 176 176
158 158 158
164 164 164
170 170 170
166 166 166
157 157 157
183 183 183
189 189 189
198 198 198
192 192 192
175 175 175
189 189 189
202 202 202
201 201 201
185 185 185
181 181 181
173 173 173
156 156 156
145 145 145
172 172 172
197 197 197
214 214 214
213 213 213
196 196 196
183 183 183
210 210 210
230 230 230
224 224 224
200 200 200
197 197 197
205 205 205
196 196 196
177 177 177
163 163 163
163 163 163
166 166 166
176 176 176
191 191 191
194 194 194
184 184 184
165 165 165
142 142 142
133 133 133
137 137 137
148 148 148
157 157 157
164 164 164
187 187 187
204 204 204
207 207 207
193 193 193
171 171 171
154 154 154
159 159 159
155 155 155
147 147 147
171 171 171
165 165 165
171 171 171
167 167 167
155 155 155
171 171 171
181 181 181
180 180 180
169 169 169
155 155 155
149 149 149
135 135 135
149 149 149
177 177 177
204 204 204
225 225 225
224 224 224
202 202 202
184 184 184
212 212 212
235 235 235
228 228 228
202 202 202
174 174 174
177 177 177
171 171 171
180 180 180
191 191 191
190 190 190
176 176 176
159 159 159
170 170 170
172 172 172
165 165 165
149 149 149
128 128 128
105 105 105
124 124 124
138 138 138
147 147 147
167 167 167
192 192 192
211 211 211
213 213 213
198 198 198
174 174 174
164 164 164
167 167 167
160 160 160
146 146 146
151 151 151
139 139 139
143 143 143
141 141 141
142 142 142
148 148 148
156 156 156
164 164 164
166 166 166
159 159 159
144 144 144
140 140 140
148 148 148
171 171 171
195 195 195
211 211 211
210 210 210
194 194 194
174 174 174
197 197 197
211 211 211
208 208 208
189 189 189
165 165 165
149 149 149
176 176 176
201 201 201
218 218 218
216 216 216
196 196 196
171 171 171
145 145 145
147 147 147
146 146 146
141 141 141
129 129 129
114 114 114
136 136 136
153 153 153
165 165 165
167 167 167
184 184 184
199 199 199
201 201 201
189 189 189
176 176 176
192 192 192
196 196 196
186 186 186
167 167 167
144 144 144
140 140 140
157 157 157
168 168 168
170 170 170
161 161 161
172 172 172
187 187 187
190 190 190
181 181 181
162 162 162
152 152 152
161 161 161
162 162 162
175 175 175
187 187 187
186 186 186
174 174 174
164 164 164
174 174 174
183 183 183
181 181 181
168 168 168
166 166 166
159 159 159
182 182 182
211 211 211
235 235 235
231 231 231
205 205 205
176 176 176
155 155 155
168 168 168
172 172 172
166 166 166
152 152 152
132 132 132
155 155 155
177 177 177
193 193 193
196 196 196
186 186 186
178 178 178
195 195 195
205 205 205
199 199 199
217 217 217
224 224 224
208 208 208
183 183 183
156 156 156
158 158 158
179 179 179
194 194 194
196 196 196
184 184 184
185 185 185
203 203 203
208 208 208
195 195 195
174 174 174
176 176 176
185 185 185
183 183 183
170 170 170
175 175 175
187 187 187
187 187 187
176 176 176
156 156 156
156 156 156
177 177 177
192 192 192
195 195 195
184 184 184
177 177 177
203 203 203
221 221 221
218 218 218
198 198 198
172 172 172
174 174 174
190 190 190
196 196 196
188 188 188
169 169 169
146 146 146
169 169 169
196 196 196
219 219 219
225 225 225
207 207 207
189 189 189
215 215 215
233 233 233
221 221 221
229 229 229
243 243 243
218 218 218
189 189 189
159 159 159
169 169 169
194 194 194
214 214 214
217 217 217
201 201 201
187 187 187
205 205 205
210 210 210
197 197 197
175 175 175
198 198 198
212 212 212
208 208 208
189 189 189
177 177 177
189 189 189
190 190 190
178 178 178
158 158 158
169 169 169
195 195 195
216 216 216
221 221 221
204 204 204
179 179 179
182 182 182
194 194 194
193 193 193
179 179 179
159 159 159
184 184 184
205 205 205
212 212 212
201 201 201
179 179 179
154 154 154
174 174 174
203 203 203
233 233 233
246 246 246
217 217 217
190 190 190
218 218 218
239 239 239
224 224 224
214 214 214
221 221 221
206 206 206
182 182 182
155 155 155
170 170 170
196 196 196
217 217 217
221 221 221
203 203 203
178 178 178
191 191 191
195 195 195
185 185 185
183 183 183
210 210 210
230 230 230
224 224 224
199 199 199
172 172 172
179 179 179
179 179 179
169 169 169
171 171 171
189 189 189
201 201 201
226 226 226
233 233 233
211 211 211
184 184 184
157 157 157
166 166 166
165 165 165
155 155 155
159 159 159
184 184 184
203 203 203
210 210 210
200 200 200
178 178 178
166 166 166
168 168 168
195 195 195
217 217 217
223 223 223
206 206 206
181 181 181
202 202 202
213 213 213
205 205 205
189 189 189
193 193 193
184 184 184
165 165 165
142 142 142
162 162 162
185 185 185
201 201 201
204 204 204
191 191 191
169 169 169
169 169 169
172 172 172
164 164 164
180 180 180
205 205 205
221 221 221
216 216 216
195 195 195
169 169 169
160 160 160
161 161 161
158 158 158
183 183 183
205 205 205
215 215 215
212 212 212
216 216 216
201 201 201
177 177 177
151 151 151
160 160 160
161 161 161
153 153 153
149 149 149
171 171 171
187 187 187
193 193 193
185 185 185
167 167 167
171 171 171
171 171 171
176 176 176
191 191 191
194 194 194
184 184 184
181 181 181
177 177 177
184 184 184
179 179 179
165 165 165
164 164 164
157 157 157
143 143 143
136 136 136
169 169 169
189 189 189
199 199 199
194 194 194
177 177 177
155 155 155
144 144 144
148 148 148
152 152 152
166 166 166
186 186 186
197 197 197
194 194 194
178 178 178
156 156 156
150 150 150
170 170 170
186 186 186
190 190 190
206 206 206
217 217 217
207 207 207
189 189 189
179 179 179
161 161 161
176 176 176
189 189 189
190 190 190
179 179 179
159 159 159
169 169 169
179 179 179
177 177 177
165 165 165
157 157 157
166 166 166
166 166 166
156 156 156
166 166 166
190 190 190
206 206 206
207 207 207
193 193 193
170 170 170
151 151 151
140 140 140
142 142 142
148 148 148
146 146 146
145 145 145
179 179 179
201 201 201
214 214 214
208 208 208
188 188 188
163 163 163
144 144 144
146 146 146
145 145 145
146 146 146
161 161 161
169 169 169
167 167 167
156 156 156
148 148 148
163 163 163
190 190 190
212 212 212
220 220 220
206 206 206
199 199 199
192 192 192
174 174 174
154 154 154
171 171 171
197 197 197
216 216 216
218 218 218
201 201 201
176 176 176
193 193 193
207 207 207
205 205 205
188 188 188
165 165 165
153 153 153
153 153 153
146 146 146
175 175 175
202 202 202
224 224 224
226 226 226
205 205 205
179 179 179
150 150 150
134 134 134
147 147 147
153 153 153
150 150 150
152 152 152
177 177 177
199 199 199
211 211 211
206 206 206
186 186 186
162 162 162
169 169 169
171 171 171
163 163 163
148 148 148
138 138 138
144 144 144
144 144 144
159 159 159
166 166 166
170 170 170
199 199 199
228 228 228
246 246 246
220 220 220
191 191 191
170 170 170
156 156 156
170 170 170
179 179 179
207 207 207
236 236 236
240 240 240
212 212 212
183 183 183
210 210 210
233 233 233
228 228 228
203 203 203
175 175 175
164 164 164
164 164 164
154 154 154
173 173 173
199 199 199
220 220 220
221 221 221
202 202 202
177 177 177
149 149 149
131 131 131
143 143 143
149 149 149
153 153 153
156 156 156
165 165 165
184 184 184
193 193 193
188 188 188
173 173 173
176 176 176
190 190 190
193 193 193
183 183 183
164 164 164
162 162 162
170 170 170
168 168 168
181 181 181
191 191 191
187 187 187
194 194 194
219 219 219
229 229 229
212 212 212
187 187 187
159 159 159
173 173 173
195 195 195
208 208 208
205 205 205
223 223 223
225 225 225
205 205 205
182 182 182
210 210 210
234 234 234
230 230 230
204 204 204
187 187 187
179 179 179
178 178 178
167 167 167
161 161 161
183 183 183
197 197 197
198 198 198
186 186 186
164 164 164
140 140 140
134 134 134
137 137 137
155 155 155
167 167 167
170 170 170
147 147 147
161 161 161
168 168 168
165 165 165
162 162 162
185 185 185
202 202 202
206 206 206
193 193 193
172 172 172
182 182 182
193 193 193
191 191 191
196 196 196
209 209 209
205 205 205
187 187 187
194 194 194
200 200 200
191 191 191
183 183 183
187 187 187
184 184 184
213 213 213
236 236 236
229 229 229
202 202 202
198 198 198
185 185 185
172 172 172
194 194 194
209 209 209
206 206 206
209 209 209
216 216 216
203 203 203
183 183 183
171 171 171
167 167 167
160 160 160
171 171 171
171 171 171
162 162 162
148 148 148
160 160 160
163 163 163
157 157 157
160 160 160
173 173 173
176 176 176
124 124 124
135 135 135
141 141 141
162 162 162
177 177 177
183 183 183
199 199 199
202 202 202
190 190 190
172 172 172
194 194 194
207 207 207
204 204 204
199 199 199
212 212 212
208 208 208
189 189 189
167 167 167
171 171 171
187 187 187
207 207 207
214 214 214
201 201 201
213 213 213
238 238 238
230 230 230
203 203 203
174 174 174
160 160 160
153 153 153
171 171 171
180 180 180
200 200 200
229 229 229
245 245 245
219 219 219
190 190 190
179 179 179
180 180 180
170 170 170
152 152 152
143 143 143
150 150 150
172 172 172
188 188 188
193 193 193
184 184 184
166 166 166
168 168 168
171 171 171
111 111 111
136 136 136
157 157 157
181 181 181
202 202 202
211 211 211
202 202 202
185 185 185
176 176 176
171 171 171
193 193 193
206 206 206
203 203 203
187 187 187
198 198 198
194 194 194
179 179 179
156 156 156
168 168 168
196 196 196
222 222 222
232 232 232
214 214 214
197 197 197
211 211 211
207 207 207
189 189 189
165 165 165
146 146 146
143 143 143
144 144 144
168 168 168
196 196 196
222 222 222
233 233 233
214 214 214
187 187 187
182 182 182
183 183 183
172 172 172
158 158 158
147 147 147
164 164 164
191 191 191
213 213 213
222 222 222
208 208 208
184 184 184
157 157 157
157 157 157
124 124 124
151 151 151
177 177 177
199 199 199
219 219 219
235 235 235
220 220 220
193 193 193
164 164 164
160 160 160
179 179 179
189 189 189
187 187 187
173 173 173
175 175 175
172 172 172
167 167 167
156 156 156
165 165 165
191 191 191
214 214 214
221 221 221
207 207 207
183 183 183
181 181 181
179 179 179
167 167 167
154 154 154
159 159 159
156 156 156
145 145 145
157 157 157
180 180 180
198 198 198
204 204 204
193 193 193
173 173 173
173 173 173
174 174 174
181 181 181
178 178 178
164 164 164
170 170 170
199 199 199
229 229 229
248 248 248
221 221 221
191 191 191
162 162 162
137 137 137
138 138 138
159 159 159
188 188 188
216 216 216
239 239 239
230 230 230
216 216 216
191 191 191
163 163 163
143 143 143
158 158 158
166 166 166
164 164 164
153 153 153
169 169 169
178 178 178
175 175 175
174 174 174
169 169 169
175 175 175
191 191 191
196 196 196
187 187 187
168 168 168
152 152 152
151 151 151
145 145 145
158 158 158
165 165 165
161 161 161
161 161 161
173 173 173
176 176 176
171 171 171
174 174 174
167 167 167
152 152 152
166 166 166
185 185 185
194 194 194
189 189 189
174 174 174
184 184 184
193 193 193
217 217 217
227 227 227
211 211 211
186 186 186
158 158 158
130 130 130
162 162 162
177 177 177
188 188 188
215 215 215
237 237 237
225 225 225
201 201 201
181 181 181
156 156 156
129 129 129
133 133 133
139 139 139
144 144 144
151 151 151
167 167 167
175 175 175
194 194 194
202 202 202
195 195 195
176 176 176
165 165 165
168 168 168
161 161 161
147 147 147
127 127 127
122 122 122
141 141 141
155 155 155
161 161 161
171 171 171
178 178 178
195 195 195
200 200 200
190 190 190
170 170 170
146 146 146
144 144 144
166 166 166
184 184 184
193 193 193
189 189 189
182 182 182
206 206 206
220 220 220
213 213 213
198 198 198
189 189 189
170 170 170
146 146 146
141 141 141
182 182 182
203 203 203
212 212 212
203 203 203
208 208 208
203 203 203
188 188 188
182 182 182
170 170 170
150 150 150
126 126 126
131 131 131
145 145 145
151 151 151
161 161 161
188 188 188
213 213 213
226 226 226
214 214 214
190 190 190
162 162 162
139 139 139
134 134 134
129 129 129
117 117 117
123 123 123
135 135 135
145 145 145
163 163 163
173 173 173
188 188 188
208 208 208
215 215 215
202 202 202
179 179 179
153 153 153
167 167 167
177 177 177
178 178 178
180 180 180
176 176 176
188 188 188
216 216 216
238 238 238
226 226 226
199 199 199
171 171 171
149 149 149
129 129 129
156 156 156
194 194 194
221 221 221
239 239 239
221 221 221
200 200 200
203 203 203
213 213 213
210 210 210
191 191 191
167 167 167
140 140 140
134 134 134
144 144 144
147 147 147
162 162 162
190 190 190
215 215 215
229 229 229
216 216 216
191 191 191
163 163 163
135 135 135
131 131 131
120 120 120
123 123 123
142 142 142
157 157 157
164 164 164
162 162 162
164 164 164
186 186 186
205 205 205
211 211 211
199 199 199
177 177 177
162 162 162
184 184 184
198 198 198
198 198 198
185 185 185
171 171 171
182 182 182
207 207 207
221 221 221
214 214 214
196 196 196
177 177 177
154 154 154
140 140 140
165 165 165
192 192 192
219 219 219
235 235 235
219 219 219
192 192 192
214 214 214
240 240 240
232 232 232
204 204 204
175 175 175
146 146 146
130 130 130
140 140 140
144 144 144
154 154 154
179 179 179
199 199 199
208 208 208
200 200 200
180 180 180
155 155 155
136 136 136
132 132 132
128 128 128
142 142 142
157 157 157
175 175 175
184 184 184
181 181 181
168 168 168
172 172 172
187 187 187
192 192 192
183 183 183
165 165 165
167 167 167
191 191 191
207 207 207
208 208 208
193 193 193
169 169 169
166 166 166
185 185 185
194 194 194
196 196 196
190 190 190
173 173 173
151 151 151
165 165 165
172 172 172
179 179 179
198 198 198
207 207 207
198 198 198
183 183 183
211 211 211
233 233 233
227 227 227
202 202 202
174 174 174
145 145 145
120 120 120
130 130 130
143 143 143
149 149 149
160 160 160
175 175 175
181 181 181
175 175 175
161 161 161
140 140 140
131 131 131
127 127 127
145 145 145
163 163 163
173 173 173
184 184 184
194 194 194
191 191 191
176 176 176
154 154 154
163 163 163
166 166 166
160 160 160
160 160 160
163 163 163
185 185 185
200 200 200
200 200 200
187 187 187
165 165 165
146 146 146
159 159 159
172 172 172
178 178 178
174 174 174
170 170 170
168 168 168
187 187 187
196 196 196
158 158 158
172 172 172
178 178 178
172 172 172
170 170 170
192 192 192
205 205 205
202 202 202
186 186 186
162 162 162
136 136 136
114 114 114
122 122 122
134 134 134
139 139 139
137 137 137
148 148 148
155 155 155
161 161 161
158 158 158
147 147 147
129 129 129
133 133 133
157 157 157
177 177 177
190 190 190
190 190 190
191 191 191
188 188 188
174 174 174
153 153 153
137 137 137
147 147 147
167 167 167
180 180 180
182 182 182
173 173 173
180 180 180
181 181 181
170 170 170
152 152 152
130 130 130
149 149 149
164 164 164
185 185 185
197 197 197
195 195 195
180 180 180
201 201 201
214 214 214
133 133 133
144 144 144
148 148 148
144 144 144
151 151 151
167 167 167
176 176 176
174 174 174
163 163 163
144 144 144
121 121 121
129 129 129
136 136 136
137 137 137
130 130 130
132 132 132
153 153 153
169 169 169
175 175 175
172 172 172
159 159 159
147 147 147
138 138 138
160 160 160
181 181 181
195 195 195
195 195 195
183 183 183
174 174 174
165 165 165
166 166 166
158 158 158
154 154 154
176 176 176
191 191 191
194 194 194
184 184 184
176 176 176
177 177 177
167 167 167
149 149 149
144 144 144
166 166 166
183 183 183
199 199 199
215 215 215
213 213 213
194 194 194
201 201 201
214 214 214
112 112 112
122 122 122
145 145 145
163 163 163
174 174 174
180 180 180
183 183 183
175 175 175
158 158 158
137 137 137
138 138 138
146 146 146
146 146 146
146 146 146
139 139 139
136 136 136
157 157 157
173 173 173
180 180 180
177 177 177
176 176 176
174 174 174
162 162 162
155 155 155
174 174 174
187 187 187
187 187 187
176 176 176
179 179 179
193 193 193
194 194 194
182 182 182
162 162 162
175 175 175
190 190 190
193 193 193
183 183 183
193 193 193
194 194 194
182 182 182
162 162 162
152 152 152
176 176 176
196 196 196
217 217 217
225 225 225
213 213 213
194 194 194
187 187 187
196 196 196
110 110 110
136 136 136
162 162 162
185 185 185
200 200 200
204 204 204
209 209 209
197 197 197
176 176 176
150 150 150
161 161 161
170 170 170
170 170 170
161 161 161
144 144 144
133 133 133
152 152 152
167 167 167
174 174 174
190 190 190
202 202 202
199 199 199
183 183 183
160 160 160
159 159 159
168 168 168
169 169 169
172 172 172
198 198 198
219 219 219
221 221 221
202 202 202
177 177 177
174 174 174
177 177 177
179 179 179
185 185 185
200 200 200
201 201 201
187 187 187
166 166 166
156 156 156
175 175 175
197 197 197
222 222 222
231 231 231
212 212 212
186 186 186
165 165 165
172 172 172
115 115 115
144 144 144
172 172 172
198 198 198
220 220 220
224 224 224
227 227 227
210 210 210
184 184 184
158 158 158
179 179 179
191 191 191
191 191 191
178 178 178
158 158 158
148 148 148
161 161 161
166 166 166
179 179 179
203 203 203
220 220 220
216 216 216
195 195 195
169 169 169
141 141 141
145 145 145
148 148 148
177 177 177
205 205 205
231 231 231
234 234 234
210 210 210
181 181 181
164 164 164
166 166 166
159 159 159
178 178 178
191 191 191
192 192 192
188 188 188
188 188 188
176 176 176
164 164 164
186 186 186
205 205 205
211 211 211
198 198 198
176 176 176
151 151 151
145 145 145
115 115 115
144 144 144
172 172 172
198 198 198
220 220 220
224 224 224
220 220 220
205 205 205
181 181 181
165 165 165
188 188 188
202 202 202
202 202 202
187 187 187
165 165 165
156 156 156
171 171 171
176 176 176
178 178 178
202 202 202
218 218 218
214 214 214
194 194 194
168 168 168
141 141 141
125 125 125
143 143 143
170 170 170
196 196 196
215 215 215
217 217 217
200 200 200
175 175 175
148 148 148
148 148 148
144 144 144
162 162 162
172 172 172
189 189 189
203 203 203
203 203 203
188 188 188
166 166 166
166 166 166
180 180 180
184 184 184
175 175 175
158 158 158
164 164 164
174 174 174
125 125 125
142 142 142
162 162 162
185 185 185
201 201 201
203 203 203
196 196 196
187 187 187
168 168 168
163 163 163
184 184 184
198 198 198
198 198 198
184 184 184
163 163 163
156 156 156
170 170 170
175 175 175
170 170 170
187 187 187
198 198 198
195 195 195
180 180 180
158 158 158
158 158 158
150 150 150
135 135 135
156 156 156
176 176 176
189 189 189
197 197 197
200 200 200
188 188 188
167 167 167
142 142 142
125 125 125
141 141 141
167 167 167
189 189 189
204 204 204
204 204 204
189 189 189
166 166 166
142 142 142
153 153 153
155 155 155
149 149 149
166 166 166
188 188 188
203 203 203
142 142 142
162 162 162
176 176 176
180 180 180
175 175 175
182 182 182
191 191 191
186 186 186
171 171 171
152 152 152
170 170 170
181 181 181
181 181 181
170 170 170
152 152 152
147 147 147
160 160 160
165 165 165
160 160 160
164 164 164
172 172 172
170 170 170
170 170 170
182 182 182
183 183 183
172 172 172
154 154 154
143 143 143
172 172 172
199 199 199
221 221 221
226 226 226
207 207 207
180 180 180
152 152 152
124 124 124
134 134 134
158 158 158
178 178 178
190 190 190
190 190 190
178 178 178
162 162 162
155 155 155
141 141 141
132 132 132
149 149 149
178 178 178
206 206 206
229 229 229
154 154 154
176 176 176
193 193 193
199 199 199
190 190 190
178 178 178
186 186 186
182 182 182
167 167 167
149 149 149
160 160 160
162 162 162
158 158 158
150 150 150
144 144 144
153 153 153
152 152 152
147 147 147
143 143 143
138 138 138
155 155 155
170 170 170
186 186 186
201 201 201
202 202 202
189 189 189
167 167 167
165 165 165
174 174 174
203 203 203
228 228 228
234 234 234
211 211 211
183 183 183
155 155 155
142 142 142
138 138 138
142 142 142
158 158 158
168 168 168
168 168 168
177 177 177
180 180 180
172 172 172
155 155 155
159 159 159
165 165 165
180 180 180
209 209 209
237 237 237
157 157 157
181 181 181
199 199 199
205 205 205
195 195 195
175 175 175
171 171 171
167 167 167
154 154 154
141 141 141
151 151 151
153 153 153
147 147 147
135 135 135
150 150 150
159 159 159
159 159 159
150 150 150
135 135 135
150 150 150
174 174 174
193 193 193
201 201 201
208 208 208
209 209 209
194 194 194
172 172 172
191 191 191
200 200 200
194 194 194
210 210 210
213 213 213
198 198 198
175 175 175
151 151 151
155 155 155
150 150 150
138 138 138
151 151 151
168 168 168
177 177 177
185 185 185
189 189 189
180 180 180
165 165 165
183 183 183
191 191 191
186 186 186
195 195 195
213 213 213
152 152 152
174 174 174
190 190 190
195 195 195
187 187 187
168 168 168
149 149 149
146 146 146
136 136 136
126 126 126
135 135 135
138 138 138
132 132 132
133 133 133
148 148 148
156 156 156
162 162 162
161 161 161
151 151 151
157 157 157
184 184 184
207 207 207
219 219 219
210 210 210
199 199 199
186 186 186
186 186 186
211 211 211
226 226 226
216 216 216
192 192 192
186 186 186
176 176 176
157 157 157
155 155 155
160 160 160
155 155 155
143 143 143
169 169 169
190 190 190
203 203 203
201 201 201
185 185 185
177 177 177
179 179 179
201 201 201
212 212 212
206 206 206
185 185 185
185 185 185
