P3
50 50
255
188 188 188
204 204 204
206 206 206
191 191 191
169 169 169
143 143 143
119 119 119
136 136 136
147 147 147
164 164 164
177 177 177
181 181 181
174 174 174
172 172 172
185 185 185
188 188 188
185 185 185
199 199 199
198 198 198
185 185 185
163 163 163
171 171 171
185 185 185
188 188 188
178 178 178
160 160 160
139 139 139
158 158 158
171 171 171
174 174 174
167 167 167
152 152 152
131 131 131
132 132 132
129 129 129
131 131 131
154 154 154
171 171 171
181 181 181
179 179 179
170 170 170
196 196 196
217 217 217
222 222 222
205 205 205
179 179 179
165 165 165
149 149 149
151 151 151
165 165 165
205 205 205
229 229 229
232 232 232
209 209 209
181 181 181
152 152 152
139 139 139
159 159 159
173 173 173
177 177 177
180 180 180
184 184 184
176 176 176
191 191 191
210 210 210
214 214 214
203 203 203
224 224 224
224 224 224
203 203 203
176 176 176
191 191 191
210 210 210
215 215 215
200 200 200
177 177 177
150 150 150
158 158 158
171 171 171
174 174 174
167 167 167
152 152 152
154 154 154
159 159 159
154 154 154
146 146 146
172 172 172
195 195 195
209 209 209
207 207 207
189 189 189
198 198 198
220 220 220
225 225 225
207 207 207
181 181 181
170 170 170
163 163 163
177 177 177
182 182 182
206 206 206
233 233 233
236 236 236
211 211 211
182 182 182
161 161 161
157 157 157
177 177 177
195 195 195
201 201 201
193 193 193
175 175 175
173 173 173
201 201 201
225 225 225
231 231 231
210 210 210
233 233 233
233 233 233
208 208 208
179 179 179
201 201 201
227 227 227
234 234 234
213 213 213
185 185 185
165 165 165
155 155 155
161 161 161
164 164 164
158 158 158
162 162 162
177 177 177
183 183 183
177 177 177
162 162 162
184 184 184
212 212 212
237 237 237
231 231 231
204 204 204
186 186 186
203 203 203
206 206 206
193 193 193
172 172 172
164 164 164
181 181 181
200 200 200
207 207 207
192 192 192
209 209 209
211 211 211
195 195 195
172 172 172
174 174 174
168 168 168
187 187 187
208 208 208
217 217 217
206 206 206
183 183 183
169 169 169
195 195 195
216 216 216
220 220 220
203 203 203
213 213 213
213 213 213
196 196 196
171 171 171
196 196 196
218 218 218
224 224 224
206 206 206
182 182 182
181 181 181
169 169 169
150 150 150
146 146 146
151 151 151
175 175 175
194 194 194
202 202 202
194 194 194
176 176 176
183 183 183
212 212 212
236 236 236
230 230 230
204 204 204
175 175 175
177 177 177
179 179 179
170 170 170
157 157 157
163 163 163
190 190 190
213 213 213
223 223 223
170 170 170
181 181 181
182 182 182
172 172 172
172 172 172
181 181 181
195 195 195
197 197 197
205 205 205
213 213 213
202 202 202
181 181 181
161 161 161
178 178 178
192 192 192
195 195 195
184 184 184
186 186 186
186 186 186
174 174 174
183 183 183
181 181 181
194 194 194
197 197 197
187 187 187
189 189 189
188 188 188
175 175 175
155 155 155
131 131 131
154 154 154
179 179 179
199 199 199
208 208 208
199 199 199
180 180 180
172 172 172
195 195 195
209 209 209
206 206 206
189 189 189
165 165 165
160 160 160
159 159 159
149 149 149
136 136 136
161 161 161
187 187 187
208 208 208
216 216 216
188 188 188
183 183 183
167 167 167
151 151 151
172 172 172
198 198 198
219 219 219
222 222 222
204 204 204
193 193 193
186 186 186
168 168 168
184 184 184
194 194 194
190 190 190
175 175 175
159 159 159
157 157 157
168 168 168
188 188 188
200 200 200
197 197 197
181 181 181
169 169 169
172 172 172
183 183 183
182 182 182
170 170 170
150 150 150
127 127 127
149 149 149
172 172 172
189 189 189
197 197 197
190 190 190
172 172 172
153 153 153
170 170 170
180 180 180
178 178 178
166 166 166
177 177 177
187 187 187
186 186 186
173 173 173
153 153 153
150 150 150
172 172 172
189 189 189
194 194 194
214 214 214
205 205 205
184 184 184
159 159 159
175 175 175
203 203 203
227 227 227
231 231 231
209 209 209
181 181 181
162 162 162
177 177 177
200 200 200
213 213 213
208 208 208
189 189 189
164 164 164
145 145 145
170 170 170
191 191 191
203 203 203
200 200 200
184 184 184
160 160 160
158 158 158
167 167 167
166 166 166
156 156 156
145 145 145
142 142 142
136 136 136
156 156 156
170 170 170
176 176 176
171 171 171
160 160 160
173 173 173
176 176 176
169 169 169
153 153 153
174 174 174
197 197 197
212 212 212
210 210 210
192 192 192
167 167 167
158 158 158
158 158 158
181 181 181
203 203 203
228 228 228
216 216 216
192 192 192
164 164 164
168 168 168
192 192 192
210 210 210
213 213 213
197 197 197
173 173 173
152 152 152
179 179 179
202 202 202
217 217 217
212 212 212
191 191 191
166 166 166
169 169 169
168 168 168
181 181 181
191 191 191
189 189 189
174 174 174
153 153 153
150 150 150
145 145 145
144 144 144
157 157 157
163 163 163
160 160 160
152 152 152
170 170 170
181 181 181
181 181 181
170 170 170
181 181 181
199 199 199
205 205 205
194 194 194
174 174 174
180 180 180
207 207 207
227 227 227
223 223 223
200 200 200
173 173 173
182 182 182
182 182 182
188 188 188
213 213 213
216 216 216
207 207 207
186 186 186
160 160 160
153 153 153
172 172 172
184 184 184
186 186 186
175 175 175
157 157 157
145 145 145
170 170 170
190 190 190
201 201 201
197 197 197
180 180 180
183 183 183
196 196 196
195 195 195
181 181 181
170 170 170
168 168 168
167 167 167
177 177 177
176 176 176
165 165 165
152 152 152
167 167 167
174 174 174
170 170 170
169 169 169
192 192 192
207 207 207
207 207 207
191 191 191
196 196 196
221 221 221
231 231 231
213 213 213
186 186 186
175 175 175
199 199 199
216 216 216
213 213 213
194 194 194
186 186 186
200 200 200
200 200 200
186 186 186
205 205 205
191 191 191
186 186 186
169 169 169
163 163 163
169 169 169
164 164 164
156 156 156
157 157 157
150 150 150
135 135 135
135 135 135
152 152 152
169 169 169
177 177 177
174 174 174
175 175 175
200 200 200
219 219 219
217 217 217
198 198 198
172 172 172
164 164 164
186 186 186
199 199 199
198 198 198
183 183 183
162 162 162
168 168 168
175 175 175
171 171 171
177 177 177
204 204 204
225 225 225
225 225 225
203 203 203
198 198 198
224 224 224
235 235 235
215 215 215
188 188 188
167 167 167
191 191 191
207 207 207
207 207 207
192 192 192
190 190 190
206 206 206
206 206 206
191 191 191
184 184 184
164 164 164
160 160 160
156 156 156
170 170 170
176 176 176
170 170 170
159 159 159
146 146 146
128 128 128
138 138 138
148 148 148
150 150 150
154 154 154
151 151 151
150 150 150
178 178 178
205 205 205
225 225 225
224 224 224
202 202 202
175 175 175
171 171 171
195 195 195
211 211 211
210 210 210
193 193 193
168 168 168
160 160 160
166 166 166
163 163 163
175 175 175
201 201 201
220 220 220
220 220 220
200 200 200
191 191 191
205 205 205
211 211 211
199 199 199
177 177 177
178 178 178
206 206 206
231 231 231
232 232 232
208 208 208
182 182 182
196 196 196
196 196 196
182 182 182
162 162 162
137 137 137
137 137 137
153 153 153
167 167 167
181 181 181
187 187 187
181 181 181
165 165 165
143 143 143
142 142 142
157 157 157
173 173 173
179 179 179
175 175 175
161 161 161
170 170 170
193 193 193
208 208 208
207 207 207
191 191 191
167 167 167
168 168 168
191 191 191
205 205 205
204 204 204
188 188 188
165 165 165
144 144 144
149 149 149
146 146 146
165 165 165
184 184 184
197 197 197
197 197 197
191 191 191
188 188 188
179 179 179
182 182 182
175 175 175
162 162 162
178 178 178
206 206 206
231 231 231
232 232 232
208 208 208
180 180 180
175 175 175
175 175 175
165 165 165
147 147 147
119 119 119
126 126 126
153 153 153
177 177 177
196 196 196
204 204 204
196 196 196
177 177 177
153 153 153
148 148 148
172 172 172
191 191 191
200 200 200
194 194 194
176 176 176
154 154 154
172 172 172
183 183 183
182 182 182
170 170 170
151 151 151
156 156 156
175 175 175
186 186 186
185 185 185
173 173 173
154 154 154
139 139 139
151 151 151
155 155 155
170 170 170
189 189 189
199 199 199
194 194 194
177 177 177
174 174 174
162 162 162
153 153 153
154 154 154
167 167 167
173 173 173
190 190 190
206 206 206
207 207 207
192 192 192
169 169 169
150 150 150
150 150 150
147 147 147
144 144 144
100 100 100
127 127 127
154 154 154
179 179 179
199 199 199
207 207 207
199 199 199
179 179 179
154 154 154
152 152 152
177 177 177
198 198 198
209 209 209
202 202 202
182 182 182
158 158 158
148 148 148
155 155 155
154 154 154
165 165 165
171 171 171
167 167 167
157 157 157
161 161 161
161 161 161
160 160 160
158 158 158
159 159 159
174 174 174
179 179 179
174 174 174
182 182 182
191 191 191
186 186 186
171 171 171
153 153 153
144 144 144
155 155 155
176 176 176
191 191 191
193 193 193
183 183 183
178 178 178
179 179 179
168 168 168
150 150 150
147 147 147
161 161 161
167 167 167
172 172 172
95 95 95
122 122 122
147 147 147
170 170 170
187 187 187
194 194 194
187 187 187
170 170 170
167 167 167
156 156 156
172 172 172
191 191 191
200 200 200
194 194 194
177 177 177
154 154 154
131 131 131
140 140 140
162 162 162
179 179 179
186 186 186
181 181 181
175 175 175
175 175 175
174 174 174
183 183 183
180 180 180
174 174 174
192 192 192
199 199 199
192 192 192
173 173 173
172 172 172
169 169 169
156 156 156
138 138 138
139 139 139
166 166 166
191 191 191
211 211 211
215 215 215
200 200 200
177 177 177
150 150 150
142 142 142
137 137 137
158 158 158
173 173 173
191 191 191
199 199 199
107 107 107
126 126 126
141 141 141
153 153 153
166 166 166
172 172 172
180 180 180
192 192 192
190 190 190
176 176 176
158 158 158
173 173 173
180 180 180
176 176 176
162 162 162
142 142 142
139 139 139
142 142 142
165 165 165
182 182 182
189 189 189
184 184 184
185 185 185
185 185 185
187 187 187
198 198 198
194 194 194
179 179 179
199 199 199
208 208 208
199 199 199
179 179 179
154 154 154
146 146 146
136 136 136
124 124 124
141 141 141
169 169 169
195 195 195
217 217 217
221 221 221
205 205 205
180 180 180
152 152 152
124 124 124
138 138 138
160 160 160
186 186 186
209 209 209
221 221 221
125 125 125
146 146 146
164 164 164
174 174 174
174 174 174
171 171 171
194 194 194
208 208 208
206 206 206
189 189 189
165 165 165
150 150 150
155 155 155
152 152 152
146 146 146
140 140 140
141 141 141
154 154 154
162 162 162
174 174 174
180 180 180
176 176 176
183 183 183
183 183 183
189 189 189
200 200 200
196 196 196
180 180 180
192 192 192
199 199 199
191 191 191
173 173 173
150 150 150
124 124 124
131 131 131
134 134 134
157 157 157
182 182 182
201 201 201
207 207 207
206 206 206
193 193 193
172 172 172
146 146 146
119 119 119
133 133 133
161 161 161
188 188 188
212 212 212
225 225 225
137 137 137
161 161 161
182 182 182
195 195 195
195 195 195
182 182 182
194 194 194
208 208 208
206 206 206
189 189 189
165 165 165
142 142 142
161 161 161
173 173 173
175 175 175
167 167 167
163 163 163
166 166 166
175 175 175
173 173 173
162 162 162
160 160 160
170 170 170
170 170 170
179 179 179
188 188 188
184 184 184
170 170 170
174 174 174
179 179 179
173 173 173
159 159 159
154 154 154
144 144 144
134 134 134
138 138 138
166 166 166
194 194 194
220 220 220
231 231 231
214 214 214
191 191 191
176 176 176
155 155 155
130 130 130
126 126 126
153 153 153
178 178 178
198 198 198
206 206 206
142 142 142
168 168 168
191 191 191
207 207 207
207 207 207
191 191 191
181 181 181
192 192 192
191 191 191
177 177 177
156 156 156
161 161 161
184 184 184
201 201 201
204 204 204
192 192 192
180 180 180
180 180 180
179 179 179
177 177 177
165 165 165
153 153 153
157 157 157
157 157 157
171 171 171
175 175 175
169 169 169
154 154 154
150 150 150
154 154 154
166 166 166
174 174 174
171 171 171
159 159 159
141 141 141
138 138 138
166 166 166
194 194 194
219 219 219
230 230 230
213 213 213
203 203 203
186 186 186
162 162 162
136 136 136
120 120 120
138 138 138
159 159 159
174 174 174
180 180 180
140 140 140
166 166 166
188 188 188
202 202 202
202 202 202
187 187 187
165 165 165
169 169 169
168 168 168
168 168 168
163 163 163
172 172 172
200 200 200
225 225 225
232 232 232
211 211 211
187 187 187
187 187 187
175 175 175
170 170 170
165 165 165
180 180 180
184 184 184
177 177 177
174 174 174
179 179 179
172 172 172
157 157 157
151 151 151
157 157 157
175 175 175
184 184 184
181 181 181
168 168 168
148 148 148
130 130 130
157 157 157
181 181 181
199 199 199
205 205 205
203 203 203
200 200 200
183 183 183
160 160 160
150 150 150
144 144 144
132 132 132
136 136 136
148 148 148
152 152 152
131 131 131
154 154 154
173 173 173
184 184 184
184 184 184
173 173 173
154 154 154
172 172 172
189 189 189
195 195 195
187 187 187
185 185 185
203 203 203
231 231 231
240 240 240
215 215 215
186 186 186
183 183 183
171 171 171
158 158 158
183 183 183
203 203 203
210 210 210
199 199 199
178 178 178
171 171 171
165 165 165
163 163 163
178 178 178
183 183 183
176 176 176
182 182 182
180 180 180
167 167 167
154 154 154
141 141 141
140 140 140
160 160 160
173 173 173
180 180 180
195 195 195
197 197 197
185 185 185
169 169 169
172 172 172
165 165 165
150 150 150
131 131 131
148 148 148
158 158 158
138 138 138
161 161 161
180 180 180
190 190 190
187 187 187
174 174 174
160 160 160
186 186 186
208 208 208
217 217 217
205 205 205
199 199 199
209 209 209
210 210 210
214 214 214
200 200 200
176 176 176
168 168 168
158 158 158
165 165 165
192 192 192
215 215 215
225 225 225
211 211 211
186 186 186
176 176 176
169 169 169
181 181 181
201 201 201
209 209 209
199 199 199
178 178 178
181 181 181
186 186 186
179 179 179
163 163 163
149 149 149
138 138 138
157 157 157
179 179 179
193 193 193
195 195 195
184 184 184
185 185 185
189 189 189
180 180 180
163 163 163
144 144 144
160 160 160
168 168 168
148 148 148
174 174 174
197 197 197
211 211 211
208 208 208
190 190 190
165 165 165
190 190 190
213 213 213
223 223 223
210 210 210
198 198 198
208 208 208
202 202 202
185 185 185
176 176 176
158 158 158
148 148 148
166 166 166
177 177 177
187 187 187
209 209 209
217 217 217
205 205 205
182 182 182
170 170 170
164 164 164
191 191 191
215 215 215
227 227 227
212 212 212
188 188 188
202 202 202
209 209 209
199 199 199
182 182 182
177 177 177
163 163 163
148 148 148
167 167 167
179 179 179
181 181 181
175 175 175
190 190 190
195 195 195
185 185 185
167 167 167
152 152 152
169 169 169
178 178 178
151 151 151
178 178 178
203 203 203
219 219 219
215 215 215
195 195 195
169 169 169
180 180 180
199 199 199
207 207 207
197 197 197
184 184 184
192 192 192
187 187 187
171 171 171
156 156 156
160 160 160
162 162 162
184 184 184
199 199 199
200 200 200
188 188 188
194 194 194
186 186 186
168 168 168
156 156 156
162 162 162
188 188 188
210 210 210
220 220 220
208 208 208
188 188 188
211 211 211
220 220 220
207 207 207
211 211 211
204 204 204
184 184 184
159 159 159
148 148 148
158 158 158
159 159 159
168 168 168
183 183 183
187 187 187
178 178 178
161 161 161
151 151 151
168 168 168
177 177 177
146 146 146
171 171 171
193 193 193
206 206 206
203 203 203
186 186 186
162 162 162
162 162 162
176 176 176
181 181 181
175 175 175
162 162 162
168 168 168
181 181 181
187 187 187
181 181 181
189 189 189
185 185 185
193 193 193
211 211 211
212 212 212
196 196 196
172 172 172
161 161 161
147 147 147
136 136 136
151 151 151
173 173 173
191 191 191
197 197 197
189 189 189
182 182 182
202 202 202
209 209 209
218 218 218
238 238 238
224 224 224
196 196 196
168 168 168
139 139 139
133 133 133
136 136 136
154 154 154
166 166 166
169 169 169
162 162 162
147 147 147
143 143 143
158 158 158
166 166 166
147 147 147
155 155 155
173 173 173
182 182 182
180 180 180
167 167 167
148 148 148
139 139 139
150 150 150
154 154 154
149 149 149
155 155 155
180 180 180
201 201 201
210 210 210
203 203 203
217 217 217
211 211 211
190 190 190
204 204 204
206 206 206
191 191 191
169 169 169
143 143 143
123 123 123
128 128 128
144 144 144
157 157 157
165 165 165
170 170 170
164 164 164
166 166 166
181 181 181
190 190 190
217 217 217
236 236 236
222 222 222
196 196 196
167 167 167
138 138 138
141 141 141
156 156 156
163 163 163
161 161 161
156 156 156
161 161 161
157 157 157
145 145 145
141 141 141
148 148 148
159 159 159
162 162 162
156 156 156
155 155 155
154 154 154
144 144 144
142 142 142
139 139 139
129 129 129
126 126 126
131 131 131
159 159 159
186 186 186
209 209 209
220 220 220
216 216 216
240 240 240
228 228 228
200 200 200
185 185 185
186 186 186
175 175 175
156 156 156
135 135 135
143 143 143
143 143 143
161 161 161
173 173 173
176 176 176
168 168 168
151 151 151
144 144 144
156 156 156
177 177 177
198 198 198
208 208 208
201 201 201
182 182 182
157 157 157
149 149 149
162 162 162
180 180 180
190 190 190
187 187 187
173 173 173
170 170 170
166 166 166
153 153 153
134 134 134
148 148 148
163 163 163
166 166 166
160 160 160
146 146 146
146 146 146
159 159 159
165 165 165
161 161 161
149 149 149
131 131 131
128 128 128
155 155 155
179 179 179
200 200 200
208 208 208
210 210 210
227 227 227
219 219 219
196 196 196
168 168 168
161 161 161
153 153 153
145 145 145
162 162 162
172 172 172
172 172 172
172 172 172
184 184 184
187 187 187
177 177 177
160 160 160
138 138 138
136 136 136
157 157 157
172 172 172
179 179 179
174 174 174
160 160 160
173 173 173
175 175 175
177 177 177
200 200 200
215 215 215
210 210 210
191 191 191
169 169 169
165 165 165
152 152 152
151 151 151
152 152 152
157 157 157
161 161 161
155 155 155
167 167 167
171 171 171
177 177 177
184 184 184
179 179 179
165 165 165
144 144 144
132 132 132
142 142 142
163 163 163
179 179 179
185 185 185
189 189 189
199 199 199
195 195 195
179 179 179
156 156 156
134 134 134
142 142 142
164 164 164
186 186 186
199 199 199
199 199 199
189 189 189
187 187 187
186 186 186
177 177 177
162 162 162
167 167 167
162 162 162
152 152 152
163 163 163
166 166 166
159 159 159
179 179 179
195 195 195
199 199 199
188 188 188
209 209 209
227 227 227
221 221 221
198 198 198
171 171 171
154 154 154
160 160 160
171 171 171
172 172 172
144 144 144
153 153 153
175 175 175
191 191 191
196 196 196
187 187 187
194 194 194
189 189 189
172 172 172
168 168 168
159 159 159
142 142 142
142 142 142
154 154 154
159 159 159
163 163 163
170 170 170
168 168 168
156 156 156
137 137 137
149 149 149
165 165 165
176 176 176
203 203 203
224 224 224
224 224 224
203 203 203
193 193 193
179 179 179
172 172 172
189 189 189
196 196 196
189 189 189
171 171 171
161 161 161
155 155 155
164 164 164
189 189 189
209 209 209
214 214 214
200 200 200
199 199 199
214 214 214
209 209 209
190 190 190
165 165 165
152 152 152
171 171 171
184 184 184
186 186 186
138 138 138
163 163 163
188 188 188
209 209 209
215 215 215
202 202 202
190 190 190
185 185 185
196 196 196
197 197 197
184 184 184
162 162 162
138 138 138
127 127 127
131 131 131
136 136 136
141 141 141
139 139 139
130 130 130
140 140 140
164 164 164
183 183 183
194 194 194
207 207 207
232 232 232
232 232 232
207 207 207
186 186 186
189 189 189
192 192 192
213 213 213
224 224 224
212 212 212
188 188 188
167 167 167
153 153 153
163 163 163
187 187 187
206 206 206
211 211 211
198 198 198
179 179 179
189 189 189
186 186 186
172 172 172
151 151 151
153 153 153
173 173 173
187 187 187
188 188 188
136 136 136
163 163 163
189 189 189
210 210 210
217 217 217
203 203 203
180 180 180
202 202 202
223 223 223
224 224 224
203 203 203
177 177 177
148 148 148
120 120 120
107 107 107
111 111 111
123 123 123
129 129 129
129 129 129
145 145 145
170 170 170
192 192 192
205 205 205
202 202 202
211 211 211
211 211 211
195 195 195
189 189 189
209 209 209
214 214 214
223 223 223
243 243 243
222 222 222
194 194 194
165 165 165
151 151 151
152 152 152
174 174 174
188 188 188
192 192 192
183 183 183
179 179 179
166 166 166
159 159 159
149 149 149
132 132 132
146 146 146
165 165 165
177 177 177
178 178 178
129 129 129
155 155 155
178 178 178
195 195 195
200 200 200
190 190 190
180 180 180
209 209 209
237 237 237
238 238 238
210 210 210
181 181 181
155 155 155
139 139 139
128 128 128
131 131 131
145 145 145
153 153 153
153 153 153
145 145 145
167 167 167
187 187 187
199 199 199
196 196 196
184 184 184
184 184 184
173 173 173
194 194 194
216 216 216
222 222 222
211 211 211
221 221 221
210 210 210
186 186 186
160 160 160
140 140 140
158 158 158
175 175 175
182 182 182
193 193 193
203 203 203
198 198 198
181 181 181
158 158 158
152 152 152
149 149 149
153 153 153
169 169 169
177 177 177
174 174 174
117 117 117
140 140 140
159 159 159
171 171 171
175 175 175
168 168 168
173 173 173
199 199 199
218 218 218
218 218 218
199 199 199
192 192 192
180 180 180
160 160 160
146 146 146
147 147 147
164 164 164
174 174 174
173 173 173
163 163 163
155 155 155
172 172 172
181 181 181
179 179 179
166 166 166
156 156 156
161 161 161
185 185 185
202 202 202
207 207 207
195 195 195
193 193 193
186 186 186
169 169 169
146 146 146
151 151 151
176 176 176
198 198 198
210 210 210
204 204 204
211 211 211
206 206 206
186 186 186
173 173 173
181 181 181
177 177 177
171 171 171
192 192 192
203 203 203
198 198 198
118 118 118
144 144 144
167 167 167
185 185 185
193 193 193
188 188 188
172 172 172
178 178 178
190 190 190
198 198 198
218 218 218
220 220 220
202 202 202
176 176 176
157 157 157
156 156 156
175 175 175
187 187 187
186 186 186
174 174 174
155 155 155
151 151 151
165 165 165
170 170 170
166 166 166
159 159 159
174 174 174
179 179 179
179 179 179
183 183 183
174 174 174
164 164 164
159 159 159
146 146 146
146 146 146
158 158 158
186 186 186
213 213 213
231 231 231
221 221 221
201 201 201
196 196 196
179 179 179
197 197 197
208 208 208
202 202 202
183 183 183
206 206 206
221 221 221
215 215 215
129 129 129
157 157 157
184 184 184
208 208 208
222 222 222
213 213 213
191 191 191
164 164 164
179 179 179
208 208 208
237 237 237
241 241 241
212 212 212
183 183 183
159 159 159
157 157 157
176 176 176
188 188 188
188 188 188
175 175 175
156 156 156
173 173 173
192 192 192
200 200 200
193 193 193
176 176 176
194 194 194
202 202 202
194 194 194
176 176 176
152 152 152
159 159 159
170 170 170
171 171 171
162 162 162
165 165 165
184 184 184
209 209 209
225 225 225
217 217 217
194 194 194
177 177 177
186 186 186
212 212 212
229 229 229
219 219 219
195 195 195
204 204 204
219 219 219
213 213 213
132 132 132
162 162 162
191 191 191
220 220 220
245 245 245
228 228 228
199 199 199
170 170 170
174 174 174
201 201 201
222 222 222
224 224 224
204 204 204
178 178 178
153 153 153
156 156 156
167 167 167
177 177 177
177 177 177
166 166 166
162 162 162
189 189 189
214 214 214
228 228 228
216 216 216
191 191 191
205 205 205
215 215 215
205 205 205
184 184 184
158 158 158
178 178 178
191 191 191
192 192 192
180 180 180
173 173 173
182 182 182
201 201 201
209 209 209
199 199 199
179 179 179
157 157 157
184 184 184
209 209 209
225 225 225
217 217 217
193 193 193
188 188 188
198 198 198
194 194 194
129 129 129
158 158 158
185 185 185
210 210 210
225 225 225
216 216 216
192 192 192
167 167 167
160 160 160
181 181 181
195 195 195
196 196 196
184 184 184
163 163 163
140 140 140
153 153 153
162 162 162
162 162 162
158 158 158
149 149 149
165 165 165
194 194 194
223 223 223
244 244 244
224 224 224
195 195 195
200 200 200
209 209 209
200 200 200
180 180 180
164 164 164
187 187 187
203 203 203
204 204 204
190 190 190
172 172 172
179 179 179
198 198 198
205 205 205
196 196 196
176 176 176
166 166 166
177 177 177
192 192 192
202 202 202
197 197 197
179 179 179
165 165 165
172 172 172
169 169 169
120 120 120
146 146 146
169 169 169
188 188 188
197 197 197
191 191 191
195 195 195
196 196 196
183 183 183
162 162 162
167 167 167
167 167 167
159 159 159
142 142 142
128 128 128
142 142 142
150 150 150
150 150 150
142 142 142
131 131 131
159 159 159
185 185 185
208 208 208
219 219 219
209 209 209
186 186 186
182 182 182
188 188 188
182 182 182
166 166 166
163 163 163
185 185 185
200 200 200
201 201 201
188 188 188
166 166 166
167 167 167
182 182 182
188 188 188
181 181 181
164 164 164
169 169 169
180 180 180
181 181 181
174 174 174
171 171 171
170 170 170
173 173 173
165 165 165
149 149 149
110 110 110
128 128 128
147 147 147
161 161 161
174 174 174
200 200 200
220 220 220
221 221 221
202 202 202
179 179 179
173 173 173
158 158 158
147 147 147
135 135 135
140 140 140
142 142 142
138 138 138
132 132 132
126 126 126
120 120 120
145 145 145
167 167 167
183 183 183
190 190 190
184 184 184
168 168 168
158 158 158
163 163 163
158 158 158
146 146 146
152 152 152
171 171 171
183 183 183
184 184 184
174 174 174
155 155 155
147 147 147
160 160 160
164 164 164
158 158 158
150 150 150
162 162 162
172 172 172
173 173 173
163 163 163
165 165 165
178 178 178
180 180 180
172 172 172
155 155 155
120 120 120
130 130 130
147 147 147
158 158 158
178 178 178
206 206 206
232 232 232
234 234 234
209 209 209
207 207 207
197 197 197
181 181 181
174 174 174
159 159 159
154 154 154
157 157 157
152 152 152
139 139 139
121 121 121
104 104 104
125 125 125
144 144 144
156 156 156
161 161 161
157 157 157
144 144 144
133 133 133
140 140 140
149 149 149
149 149 149
142 142 142
151 151 151
160 160 160
161 161 161
153 153 153
138 138 138
135 135 135
156 156 156
172 172 172
179 179 179
174 174 174
162 162 162
162 162 162
156 156 156
148 148 148
162 162 162
175 175 175
177 177 177
169 169 169
152 152 152
124 124 124
135 135 135
153 153 153
165 165 165
171 171 171
196 196 196
215 215 215
215 215 215
218 218 218
230 230 230
214 214 214
210 210 210
200 200 200
179 179 179
161 161 161
165 165 165
159 159 159
145 145 145
129 129 129
125 125 125
122 122 122
135 135 135
142 142 142
142 142 142
134 134 134
125 125 125
148 148 148
166 166 166
178 178 178
179 179 179
169 169 169
151 151 151
134 134 134
135 135 135
128 128 128
121 121 121
148 148 148
172 172 172
191 191 191
200 200 200
194 194 194
184 184 184
183 183 183
171 171 171
152 152 152
152 152 152
162 162 162
164 164 164
156 156 156
142 142 142
121 121 121
134 134 134
152 152 152
164 164 164
167 167 167
176 176 176
188 188 188
192 192 192
216 216 216
228 228 228
222 222 222
237 237 237
218 218 218
191 191 191
162 162 162
163 163 163
157 157 157
145 145 145
149 149 149
146 146 146
142 142 142
158 158 158
167 167 167
167 167 167
157 157 157
140 140 140
166 166 166
189 189 189
206 206 206
207 207 207
193 193 193
170 170 170
144 144 144
133 133 133
141 141 141
141 141 141
153 153 153
178 178 178
200 200 200
211 211 211
204 204 204
199 199 199
198 198 198
183 183 183
162 162 162
178 178 178
185 185 185
180 180 180
164 164 164
143 143 143
119 119 119
139 139 139
154 154 154
162 162 162
161 161 161
151 151 151
160 160 160
179 179 179
197 197 197
204 204 204
222 222 222
235 235 235
217 217 217
190 190 190
162 162 162
152 152 152
147 147 147
160 160 160
165 165 165
161 161 161
158 158 158
177 177 177
188 188 188
188 188 188
175 175 175
155 155 155
177 177 177
205 205 205
230 230 230
233 233 233
209 209 209
181 181 181
152 152 152
150 150 150
159 159 159
159 159 159
151 151 151
174 174 174
194 194 194
203 203 203
197 197 197
200 200 200
199 199 199
184 184 184
180 180 180
202 202 202
212 212 212
203 203 203
183 183 183
158 158 158
134 134 134
157 157 157
175 175 175
185 185 185
184 184 184
171 171 171
155 155 155
158 158 158
172 172 172
181 181 181
201 201 201
208 208 208
198 198 198
177 177 177
152 152 152
148 148 148
153 153 153
167 167 167
173 173 173
168 168 168
166 166 166
188 188 188
201 201 201
200 200 200
186 186 186
163 163 163
177 177 177
206 206 206
232 232 232
235 235 235
210 210 210
182 182 182
153 153 153
162 162 162
172 172 172
172 172 172
162 162 162
160 160 160
176 176 176
184 184 184
179 179 179
187 187 187
186 186 186
173 173 173
189 189 189
215 215 215
230 230 230
218 218 218
192 192 192
164 164 164
143 143 143
168 168 168
190 190 190
202 202 202
200 200 200
184 184 184
182 182 182
181 181 181
170 170 170
160 160 160
174 174 174
179 179 179
173 173 173
159 159 159
169 169 169
176 176 176
172 172 172
165 165 165
170 170 170
166 166 166
165 165 165
186 186 186
199 199 199
198 198 198
184 184 184
170 170 170
167 167 167
191 191 191
208 208 208
209 209 209
194 194 194
171 171 171
149 149 149
164 164 164
174 174 174
174 174 174
164 164 164
180 180 180
192 192 192
192 192 192
180 180 180
166 166 166
168 168 168
183 183 183
187 187 187
209 209 209
222 222 222
211 211 211
188 188 188
162 162 162
145 145 145
170 170 170
192 192 192
206 206 206
203 203 203
189 189 189
204 204 204
204 204 204
189 189 189
166 166 166
146 146 146
150 150 150
166 166 166
181 181 181
192 192 192
202 202 202
197 197 197
180 180 180
174 174 174
164 164 164
154 154 154
173 173 173
184 184 184
194 194 194
197 197 197
185 185 185
165 165 165
168 168 168
180 180 180
181 181 181
182 182 182
181 181 181
169 169 169
157 157 157
167 167 167
167 167 167
173 173 173
198 198 198
217 217 217
217 217 217
199 199 199
173 173 173
188 188 188
208 208 208
215 215 215
202 202 202
197 197 197
197 197 197
197 197 197
184 184 184
138 138 138
162 162 162
182 182 182
193 193 193
191 191 191
197 197 197
215 215 215
215 215 215
197 197 197
172 172 172
145 145 145
154 154 154
178 178 178
196 196 196
208 208 208
223 223 223
215 215 215
192 192 192
186 186 186
175 175 175
156 156 156
161 161 161
184 184 184
200 200 200
202 202 202
190 190 190
169 169 169
186 186 186
194 194 194
188 188 188
198 198 198
197 197 197
182 182 182
160 160 160
151 151 151
151 151 151
178 178 178
205 205 205
229 229 229
229 229 229
206 206 206
178 178 178
198 198 198
225 225 225
236 236 236
216 216 216
198 198 198
216 216 216
217 217 217
198 198 198
139 139 139
147 147 147
163 163 163
171 171 171
170 170 170
191 191 191
207 207 207
207 207 207
191 191 191
168 168 168
146 146 146
155 155 155
180 180 180
199 199 199
208 208 208
223 223 223
215 215 215
193 193 193
186 186 186
175 175 175
156 156 156
156 156 156
176 176 176
190 190 190
192 192 192
182 182 182
179 179 179
200 200 200
210 210 210
203 203 203
202 202 202
200 200 200
185 185 185
162 162 162
137 137 137
145 145 145
172 172 172
196 196 196
214 214 214
214 214 214
196 196 196
172 172 172
194 194 194
218 218 218
226 226 226
210 210 210
199 199 199
218 218 218
218 218 218
199 199 199
165 165 165
176 176 176
177 177 177
167 167 167
155 155 155
174 174 174
186 186 186
186 186 186
174 174 174
155 155 155
165 165 165
168 168 168
170 170 170
187 187 187
193 193 193
202 202 202
197 197 197
180 180 180
175 175 175
166 166 166
160 160 160
161 161 161
160 160 160
171 171 171
173 173 173
164 164 164
179 179 179
199 199 199
210 210 210
202 202 202
190 190 190
189 189 189
176 176 176
155 155 155
131 131 131
133 133 133
156 156 156
176 176 176
188 188 188
188 188 188
176 176 176
181 181 181
197 197 197
200 200 200
200 200 200
190 190 190
186 186 186
200 200 200
200 200 200
186 186 186
