P3
50 50
255
152 152 152
181 181 181
210 210 210
237 237 237
236 236 236
208 208 208
179 179 179
150 150 150
146 146 146
135 135 135
124 124 124
133 133 133
135 135 135
130 130 130
156 156 156
185 185 185
212 212 212
233 233 233
225 225 225
200 200 200
171 171 171
143 143 143
131 131 131
128 128 128
136 136 136
156 156 156
170 170 170
175 175 175
181 181 181
184 184 184
176 176 176
159 159 159
137 137 137
113 113 113
100 100 100
107 107 107
130 130 130
149 149 149
162 162 162
177 177 177
192 192 192
195 195 195
185 185 185
165 165 165
142 142 142
142 142 142
161 161 161
174 174 174
177 177 177
169 169 169
150 150 150
179 179 179
207 207 207
231 231 231
230 230 230
206 206 206
178 178 178
175 175 175
170 170 170
156 156 156
149 149 149
160 160 160
163 163 163
156 156 156
153 153 153
181 181 181
206 206 206
223 223 223
217 217 217
195 195 195
168 168 168
155 155 155
160 160 160
157 157 157
147 147 147
169 169 169
186 186 186
192 192 192
185 185 185
184 184 184
176 176 176
159 159 159
137 137 137
132 132 132
125 125 125
123 123 123
145 145 145
168 168 168
184 184 184
191 191 191
204 204 204
209 209 209
196 196 196
174 174 174
148 148 148
152 152 152
174 174 174
189 189 189
193 193 193
183 183 183
141 141 141
167 167 167
189 189 189
204 204 204
203 203 203
188 188 188
189 189 189
196 196 196
189 189 189
172 172 172
170 170 170
185 185 185
189 189 189
180 180 180
162 162 162
167 167 167
187 187 187
197 197 197
194 194 194
178 178 178
165 165 165
182 182 182
190 190 190
185 185 185
169 169 169
173 173 173
191 191 191
198 198 198
190 190 190
173 173 173
166 166 166
154 154 154
160 160 160
158 158 158
152 152 152
149 149 149
155 155 155
180 180 180
200 200 200
209 209 209
201 201 201
205 205 205
193 193 193
172 172 172
147 147 147
155 155 155
177 177 177
193 193 193
197 197 197
187 187 187
147 147 147
150 150 150
165 165 165
175 175 175
175 175 175
179 179 179
199 199 199
208 208 208
199 199 199
180 180 180
186 186 186
205 205 205
210 210 210
198 198 198
176 176 176
153 153 153
166 166 166
170 170 170
167 167 167
156 156 156
183 183 183
207 207 207
219 219 219
211 211 211
189 189 189
188 188 188
185 185 185
189 189 189
183 183 183
166 166 166
159 159 159
176 176 176
185 185 185
182 182 182
176 176 176
173 173 173
160 160 160
181 181 181
202 202 202
211 211 211
202 202 202
188 188 188
178 178 178
160 160 160
157 157 157
151 151 151
169 169 169
183 183 183
187 187 187
178 178 178
162 162 162
165 165 165
159 159 159
146 146 146
151 151 151
175 175 175
194 194 194
202 202 202
195 195 195
176 176 176
190 190 190
211 211 211
217 217 217
203 203 203
180 180 180
174 174 174
191 191 191
197 197 197
188 188 188
170 170 170
192 192 192
221 221 221
248 248 248
227 227 227
200 200 200
214 214 214
209 209 209
189 189 189
165 165 165
152 152 152
171 171 171
192 192 192
203 203 203
199 199 199
196 196 196
192 192 192
176 176 176
171 171 171
189 189 189
196 196 196
189 189 189
172 172 172
166 166 166
179 179 179
182 182 182
174 174 174
157 157 157
165 165 165
167 167 167
160 160 160
169 169 169
173 173 173
166 166 166
150 150 150
141 141 141
162 162 162
178 178 178
184 184 184
178 178 178
163 163 163
182 182 182
200 200 200
204 204 204
193 193 193
173 173 173
187 187 187
209 209 209
217 217 217
205 205 205
183 183 183
188 188 188
214 214 214
230 230 230
219 219 219
211 211 211
230 230 230
222 222 222
198 198 198
170 170 170
149 149 149
174 174 174
196 196 196
209 209 209
204 204 204
205 205 205
201 201 201
183 183 183
159 159 159
167 167 167
173 173 173
168 168 168
158 158 158
181 181 181
198 198 198
202 202 202
191 191 191
170 170 170
146 146 146
144 144 144
157 157 157
166 166 166
169 169 169
163 163 163
148 148 148
128 128 128
142 142 142
155 155 155
159 159 159
155 155 155
171 171 171
192 192 192
204 204 204
200 200 200
183 183 183
162 162 162
189 189 189
211 211 211
221 221 221
208 208 208
184 184 184
173 173 173
192 192 192
201 201 201
195 195 195
203 203 203
218 218 218
212 212 212
192 192 192
166 166 166
148 148 148
167 167 167
187 187 187
197 197 197
193 193 193
198 198 198
194 194 194
178 178 178
175 175 175
169 169 169
154 154 154
143 143 143
162 162 162
186 186 186
204 204 204
209 209 209
197 197 197
175 175 175
149 149 149
147 147 147
154 154 154
154 154 154
157 157 157
151 151 151
138 138 138
140 140 140
151 151 151
154 154 154
149 149 149
155 155 155
183 183 183
209 209 209
228 228 228
222 222 222
198 198 198
171 171 171
178 178 178
197 197 197
203 203 203
194 194 194
175 175 175
151 151 151
166 166 166
172 172 172
168 168 168
183 183 183
193 193 193
190 190 190
175 175 175
171 171 171
167 167 167
155 155 155
168 168 168
175 175 175
173 173 173
179 179 179
178 178 178
197 197 197
204 204 204
195 195 195
175 175 175
151 151 151
156 156 156
179 179 179
195 195 195
199 199 199
189 189 189
169 169 169
171 171 171
172 172 172
163 163 163
136 136 136
139 139 139
143 143 143
156 156 156
161 161 161
166 166 166
170 170 170
163 163 163
155 155 155
184 184 184
211 211 211
232 232 232
224 224 224
200 200 200
172 172 172
160 160 160
173 173 173
178 178 178
172 172 172
156 156 156
163 163 163
171 171 171
169 169 169
157 157 157
158 158 158
165 165 165
164 164 164
179 179 179
185 185 185
179 179 179
165 165 165
145 145 145
150 150 150
149 149 149
166 166 166
194 194 194
219 219 219
232 232 232
215 215 215
189 189 189
161 161 161
143 143 143
163 163 163
175 175 175
178 178 178
170 170 170
179 179 179
193 193 193
195 195 195
183 183 183
121 121 121
137 137 137
157 157 157
172 172 172
178 178 178
172 172 172
176 176 176
169 169 169
154 154 154
174 174 174
196 196 196
209 209 209
205 205 205
187 187 187
163 163 163
142 142 142
157 157 157
165 165 165
163 163 163
171 171 171
188 188 188
194 194 194
187 187 187
171 171 171
151 151 151
155 155 155
180 180 180
200 200 200
209 209 209
200 200 200
180 180 180
155 155 155
128 128 128
138 138 138
167 167 167
196 196 196
224 224 224
240 240 240
220 220 220
192 192 192
163 163 163
143 143 143
141 141 141
151 151 151
163 163 163
168 168 168
189 189 189
206 206 206
208 208 208
193 193 193
118 118 118
142 142 142
164 164 164
180 180 180
186 186 186
180 180 180
172 172 172
166 166 166
151 151 151
155 155 155
172 172 172
191 191 191
203 203 203
200 200 200
183 183 183
161 161 161
172 172 172
181 181 181
179 179 179
189 189 189
212 212 212
223 223 223
210 210 210
186 186 186
159 159 159
160 160 160
187 187 187
210 210 210
222 222 222
210 210 210
187 187 187
160 160 160
146 146 146
144 144 144
160 160 160
185 185 185
206 206 206
214 214 214
203 203 203
181 181 181
180 180 180
170 170 170
151 151 151
168 168 168
184 184 184
189 189 189
195 195 195
203 203 203
205 205 205
191 191 191
116 116 116
140 140 140
161 161 161
176 176 176
182 182 182
176 176 176
161 161 161
153 153 153
140 140 140
154 154 154
182 182 182
209 209 209
229 229 229
224 224 224
200 200 200
172 172 172
178 178 178
187 187 187
185 185 185
196 196 196
224 224 224
244 244 244
222 222 222
193 193 193
164 164 164
156 156 156
182 182 182
203 203 203
212 212 212
203 203 203
182 182 182
168 168 168
161 161 161
156 156 156
145 145 145
165 165 165
180 180 180
186 186 186
192 192 192
208 208 208
208 208 208
193 193 193
169 169 169
178 178 178
196 196 196
203 203 203
196 196 196
198 198 198
187 187 187
176 176 176
108 108 108
130 130 130
149 149 149
165 165 165
174 174 174
172 172 172
161 161 161
143 143 143
138 138 138
156 156 156
185 185 185
213 213 213
236 236 236
229 229 229
203 203 203
174 174 174
172 172 172
181 181 181
179 179 179
189 189 189
213 213 213
223 223 223
211 211 211
187 187 187
159 159 159
144 144 144
166 166 166
183 183 183
189 189 189
183 183 183
188 188 188
191 191 191
182 182 182
164 164 164
148 148 148
141 141 141
153 153 153
178 178 178
207 207 207
232 232 232
233 233 233
208 208 208
180 180 180
177 177 177
195 195 195
202 202 202
193 193 193
185 185 185
175 175 175
157 157 157
109 109 109
135 135 135
158 158 158
177 177 177
187 187 187
186 186 186
173 173 173
155 155 155
157 157 157
151 151 151
175 175 175
198 198 198
213 213 213
209 209 209
190 190 190
172 172 172
172 172 172
170 170 170
164 164 164
172 172 172
189 189 189
195 195 195
187 187 187
170 170 170
147 147 147
132 132 132
145 145 145
158 158 158
162 162 162
184 184 184
202 202 202
207 207 207
195 195 195
174 174 174
148 148 148
152 152 152
162 162 162
178 178 178
206 206 206
230 230 230
231 231 231
207 207 207
179 179 179
166 166 166
182 182 182
187 187 187
180 180 180
165 165 165
163 163 163
159 159 159
110 110 110
136 136 136
159 159 159
178 178 178
189 189 189
188 188 188
174 174 174
169 169 169
171 171 171
163 163 163
157 157 157
175 175 175
184 184 184
182 182 182
175 175 175
187 187 187
198 198 198
194 194 194
179 179 179
157 157 157
161 161 161
166 166 166
161 161 161
147 147 147
142 142 142
148 148 148
146 146 146
146 146 146
160 160 160
184 184 184
202 202 202
207 207 207
195 195 195
174 174 174
160 160 160
175 175 175
189 189 189
192 192 192
190 190 190
205 205 205
206 206 206
190 190 190
168 168 168
148 148 148
160 160 160
164 164 164
159 159 159
169 169 169
175 175 175
171 171 171
114 114 114
135 135 135
152 152 152
169 169 169
179 179 179
177 177 177
171 171 171
173 173 173
176 176 176
168 168 168
156 156 156
176 176 176
188 188 188
188 188 188
178 178 178
202 202 202
217 217 217
212 212 212
192 192 192
166 166 166
139 139 139
138 138 138
149 149 149
153 153 153
152 152 152
158 158 158
160 160 160
173 173 173
177 177 177
173 173 173
188 188 188
192 192 192
182 182 182
170 170 170
186 186 186
193 193 193
213 213 213
217 217 217
201 201 201
177 177 177
177 177 177
167 167 167
157 157 157
152 152 152
139 139 139
139 139 139
156 156 156
171 171 171
178 178 178
174 174 174
131 131 131
156 156 156
177 177 177
190 190 190
192 192 192
181 181 181
176 176 176
167 167 167
169 169 169
162 162 162
169 169 169
192 192 192
209 209 209
209 209 209
193 193 193
203 203 203
218 218 218
213 213 213
193 193 193
167 167 167
152 152 152
137 137 137
149 149 149
152 152 152
153 153 153
159 159 159
180 180 180
197 197 197
202 202 202
192 192 192
172 172 172
168 168 168
161 161 161
186 186 186
207 207 207
214 214 214
224 224 224
229 229 229
209 209 209
182 182 182
167 167 167
182 182 182
186 186 186
179 179 179
162 162 162
159 159 159
160 160 160
164 164 164
170 170 170
166 166 166
143 143 143
171 171 171
197 197 197
217 217 217
220 220 220
202 202 202
177 177 177
160 160 160
155 155 155
148 148 148
172 172 172
197 197 197
216 216 216
216 216 216
198 198 198
189 189 189
200 200 200
197 197 197
180 180 180
176 176 176
164 164 164
145 145 145
162 162 162
176 176 176
180 180 180
173 173 173
191 191 191
214 214 214
221 221 221
207 207 207
183 183 183
156 156 156
165 165 165
192 192 192
215 215 215
224 224 224
211 211 211
214 214 214
199 199 199
176 176 176
187 187 187
207 207 207
215 215 215
204 204 204
181 181 181
187 187 187
189 189 189
179 179 179
160 160 160
150 150 150
148 148 148
177 177 177
206 206 206
235 235 235
242 242 242
213 213 213
184 184 184
155 155 155
140 140 140
140 140 140
166 166 166
188 188 188
203 203 203
203 203 203
189 189 189
167 167 167
175 175 175
172 172 172
181 181 181
180 180 180
167 167 167
158 158 158
183 183 183
202 202 202
208 208 208
198 198 198
190 190 190
212 212 212
220 220 220
206 206 206
182 182 182
166 166 166
164 164 164
184 184 184
204 204 204
211 211 211
200 200 200
189 189 189
179 179 179
169 169 169
198 198 198
226 226 226
242 242 242
220 220 220
194 194 194
214 214 214
218 218 218
202 202 202
177 177 177
150 150 150
144 144 144
173 173 173
199 199 199
221 221 221
225 225 225
205 205 205
179 179 179
151 151 151
141 141 141
153 153 153
173 173 173
185 185 185
187 187 187
181 181 181
170 170 170
157 157 157
149 149 149
165 165 165
174 174 174
182 182 182
187 187 187
180 180 180
196 196 196
221 221 221
233 233 233
215 215 215
207 207 207
194 194 194
199 199 199
189 189 189
170 170 170
175 175 175
173 173 173
167 167 167
182 182 182
186 186 186
179 179 179
162 162 162
154 154 154
167 167 167
195 195 195
220 220 220
232 232 232
215 215 215
205 205 205
233 233 233
241 241 241
214 214 214
185 185 185
156 156 156
134 134 134
159 159 159
180 180 180
195 195 195
197 197 197
187 187 187
178 178 178
165 165 165
158 158 158
167 167 167
191 191 191
208 208 208
210 210 210
195 195 195
171 171 171
145 145 145
136 136 136
155 155 155
179 179 179
198 198 198
204 204 204
195 195 195
195 195 195
221 221 221
232 232 232
237 237 237
223 223 223
196 196 196
173 173 173
166 166 166
166 166 166
174 174 174
172 172 172
160 160 160
156 156 156
159 159 159
153 153 153
140 140 140
148 148 148
165 165 165
179 179 179
197 197 197
204 204 204
194 194 194
199 199 199
222 222 222
227 227 227
208 208 208
181 181 181
173 173 173
118 118 118
139 139 139
160 160 160
184 184 184
202 202 202
206 206 206
194 194 194
177 177 177
169 169 169
172 172 172
198 198 198
219 219 219
221 221 221
202 202 202
177 177 177
149 149 149
130 130 130
157 157 157
181 181 181
200 200 200
207 207 207
197 197 197
182 182 182
200 200 200
212 212 212
226 226 226
215 215 215
191 191 191
164 164 164
141 141 141
156 156 156
163 163 163
167 167 167
161 161 161
149 149 149
158 158 158
157 157 157
148 148 148
168 168 168
190 190 190
203 203 203
201 201 201
186 186 186
168 168 168
181 181 181
197 197 197
199 199 199
187 187 187
172 172 172
185 185 185
108 108 108
136 136 136
163 163 163
188 188 188
207 207 207
212 212 212
199 199 199
178 178 178
170 170 170
167 167 167
191 191 191
208 208 208
210 210 210
195 195 195
172 172 172
145 145 145
124 124 124
149 149 149
172 172 172
188 188 188
194 194 194
186 186 186
168 168 168
174 174 174
191 191 191
199 199 199
193 193 193
176 176 176
152 152 152
139 139 139
159 159 159
172 172 172
176 176 176
170 170 170
173 173 173
184 184 184
183 183 183
172 172 172
181 181 181
208 208 208
230 230 230
227 227 227
203 203 203
175 175 175
187 187 187
199 199 199
197 197 197
182 182 182
173 173 173
186 186 186
123 123 123
131 131 131
157 157 157
179 179 179
196 196 196
199 199 199
189 189 189
169 169 169
161 161 161
153 153 153
173 173 173
186 186 186
187 187 187
176 176 176
157 157 157
134 134 134
112 112 112
135 135 135
154 154 154
167 167 167
171 171 171
165 165 165
151 151 151
151 151 151
165 165 165
171 171 171
166 166 166
153 153 153
134 134 134
138 138 138
158 158 158
171 171 171
175 175 175
169 169 169
191 191 191
206 206 206
205 205 205
189 189 189
183 183 183
212 212 212
238 238 238
234 234 234
206 206 206
180 180 180
207 207 207
227 227 227
223 223 223
200 200 200
173 173 173
175 175 175
147 147 147
150 150 150
149 149 149
162 162 162
174 174 174
177 177 177
169 169 169
153 153 153
145 145 145
135 135 135
150 150 150
159 159 159
160 160 160
152 152 152
137 137 137
117 117 117
110 110 110
133 133 133
152 152 152
166 166 166
171 171 171
166 166 166
152 152 152
133 133 133
137 137 137
142 142 142
138 138 138
128 128 128
121 121 121
131 131 131
149 149 149
161 161 161
164 164 164
174 174 174
199 199 199
216 216 216
215 215 215
197 197 197
175 175 175
198 198 198
214 214 214
212 212 212
193 193 193
184 184 184
213 213 213
239 239 239
233 233 233
205 205 205
188 188 188
173 173 173
169 169 169
173 173 173
166 166 166
162 162 162
151 151 151
151 151 151
145 145 145
132 132 132
124 124 124
126 126 126
139 139 139
145 145 145
143 143 143
134 134 134
119 119 119
104 104 104
129 129 129
151 151 151
169 169 169
178 178 178
177 177 177
167 167 167
153 153 153
140 140 140
151 151 151
155 155 155
149 149 149
137 137 137
120 120 120
117 117 117
133 133 133
143 143 143
147 147 147
169 169 169
192 192 192
207 207 207
206 206 206
190 190 190
195 195 195
215 215 215
219 219 219
203 203 203
178 178 178
176 176 176
200 200 200
217 217 217
214 214 214
219 219 219
213 213 213
191 191 191
185 185 185
189 189 189
181 181 181
171 171 171
158 158 158
139 139 139
129 129 129
128 128 128
120 120 120
111 111 111
123 123 123
128 128 128
126 126 126
119 119 119
121 121 121
120 120 120
143 143 143
168 168 168
191 191 191
205 205 205
203 203 203
187 187 187
164 164 164
163 163 163
178 178 178
182 182 182
175 175 175
159 159 159
138 138 138
124 124 124
131 131 131
152 152 152
169 169 169
179 179 179
178 178 178
185 185 185
184 184 184
175 175 175
204 204 204
232 232 232
239 239 239
214 214 214
185 185 185
166 166 166
183 183 183
190 190 190
215 215 215
237 237 237
226 226 226
199 199 199
190 190 190
195 195 195
186 186 186
170 170 170
157 157 157
148 148 148
155 155 155
153 153 153
143 143 143
127 127 127
107 107 107
108 108 108
126 126 126
138 138 138
144 144 144
142 142 142
150 150 150
178 178 178
204 204 204
224 224 224
222 222 222
200 200 200
174 174 174
182 182 182
201 201 201
208 208 208
197 197 197
177 177 177
163 163 163
146 146 146
141 141 141
166 166 166
187 187 187
200 200 200
198 198 198
192 192 192
183 183 183
170 170 170
197 197 197
219 219 219
223 223 223
205 205 205
180 180 180
165 165 165
181 181 181
188 188 188
206 206 206
222 222 222
215 215 215
193 193 193
183 183 183
187 187 187
179 179 179
162 162 162
152 152 152
169 169 169
178 178 178
176 176 176
163 163 163
145 145 145
122 122 122
122 122 122
141 141 141
155 155 155
162 162 162
160 160 160
149 149 149
177 177 177
203 203 203
221 221 221
219 219 219
199 199 199
173 173 173
191 191 191
215 215 215
224 224 224
210 210 210
198 198 198
185 185 185
164 164 164
145 145 145
171 171 171
194 194 194
209 209 209
207 207 207
191 191 191
181 181 181
163 163 163
183 183 183
206 206 206
219 219 219
211 211 211
189 189 189
163 163 163
169 169 169
175 175 175
185 185 185
195 195 195
191 191 191
175 175 175
199 199 199
206 206 206
197 197 197
177 177 177
164 164 164
184 184 184
195 195 195
192 192 192
177 177 177
156 156 156
131 131 131
129 129 129
150 150 150
166 166 166
174 174 174
172 172 172
159 159 159
166 166 166
187 187 187
200 200 200
199 199 199
184 184 184
162 162 162
188 188 188
210 210 210
218 218 218
216 216 216
217 217 217
199 199 199
174 174 174
147 147 147
167 167 167
188 188 188
201 201 201
199 199 199
184 184 184
171 171 171
183 183 183
191 191 191
219 219 219
241 241 241
226 226 226
198 198 198
169 169 169
159 159 159
182 182 182
197 197 197
199 199 199
187 187 187
180 180 180
211 211 211
220 220 220
208 208 208
185 185 185
168 168 168
188 188 188
200 200 200
197 197 197
181 181 181
159 159 159
134 134 134
131 131 131
152 152 152
168 168 168
176 176 176
173 173 173
161 161 161
153 153 153
164 164 164
173 173 173
172 172 172
162 162 162
151 151 151
173 173 173
190 190 190
197 197 197
217 217 217
218 218 218
200 200 200
175 175 175
148 148 148
153 153 153
171 171 171
181 181 181
180 180 180
168 168 168
185 185 185
200 200 200
201 201 201
211 211 211
226 226 226
216 216 216
192 192 192
170 170 170
173 173 173
200 200 200
222 222 222
226 226 226
206 206 206
188 188 188
204 204 204
213 213 213
202 202 202
181 181 181
161 161 161
180 180 180
190 190 190
188 188 188
174 174 174
153 153 153
129 129 129
129 129 129
145 145 145
160 160 160
170 170 170
184 184 184
188 188 188
179 179 179
162 162 162
145 145 145
161 161 161
173 173 173
175 175 175
168 168 168
165 165 165
184 184 184
199 199 199
200 200 200
187 187 187
183 183 183
168 168 168
147 147 147
149 149 149
156 156 156
155 155 155
165 165 165
188 188 188
203 203 203
205 205 205
191 191 191
198 198 198
213 213 213
209 209 209
191 191 191
176 176 176
205 205 205
233 233 233
239 239 239
213 213 213
184 184 184
185 185 185
191 191 191
184 184 184
167 167 167
162 162 162
166 166 166
171 171 171
169 169 169
158 158 158
140 140 140
130 130 130
152 152 152
169 169 169
177 177 177
189 189 189
210 210 210
216 216 216
203 203 203
179 179 179
160 160 160
183 183 183
201 201 201
205 205 205
193 193 193
172 172 172
163 163 163
178 178 178
200 200 200
212 212 212
206 206 206
186 186 186
174 174 174
165 165 165
149 149 149
133 133 133
157 157 157
178 178 178
192 192 192
193 193 193
183 183 183
211 211 211
233 233 233
227 227 227
202 202 202
174 174 174
194 194 194
214 214 214
217 217 217
201 201 201
176 176 176
160 160 160
165 165 165
159 159 159
163 163 163
181 181 181
191 191 191
187 187 187
173 173 173
152 152 152
127 127 127
146 146 146
171 171 171
193 193 193
205 205 205
202 202 202
227 227 227
240 240 240
217 217 217
188 188 188
171 171 171
199 199 199
225 225 225
233 233 233
212 212 212
185 185 185
157 157 157
185 185 185
210 210 210
226 226 226
217 217 217
201 201 201
203 203 203
190 190 190
168 168 168
143 143 143
143 143 143
160 160 160
171 171 171
171 171 171
180 180 180
206 206 206
224 224 224
219 219 219
198 198 198
171 171 171
174 174 174
187 187 187
189 189 189
178 178 178
160 160 160
134 134 134
137 137 137
152 152 152
179 179 179
202 202 202
217 217 217
211 211 211
191 191 191
166 166 166
138 138 138
154 154 154
183 183 183
210 210 210
230 230 230
224 224 224
219 219 219
228 228 228
211 211 211
185 185 185
173 173 173
202 202 202
230 230 230
241 241 241
216 216 216
187 187 187
158 158 158
180 180 180
202 202 202
215 215 215
208 208 208
225 225 225
229 229 229
208 208 208
181 181 181
152 152 152
124 124 124
137 137 137
146 146 146
146 146 146
166 166 166
187 187 187
199 199 199
196 196 196
181 181 181
164 164 164
160 160 160
166 166 166
165 165 165
154 154 154
138 138 138
124 124 124
135 135 135
156 156 156
185 185 185
212 212 212
232 232 232
224 224 224
199 199 199
171 171 171
142 142 142
155 155 155
184 184 184
211 211 211
232 232 232
226 226 226
201 201 201
200 200 200
197 197 197
199 199 199
188 188 188
190 190 190
209 209 209
214 214 214
200 200 200
177 177 177
151 151 151
165 165 165
182 182 182
191 191 191
204 204 204
230 230 230
235 235 235
211 211 211
183 183 183
154 154 154
134 134 134
149 149 149
158 158 158
158 158 158
150 150 150
162 162 162
170 170 170
169 169 169
175 175 175
181 181 181
182 182 182
193 193 193
191 191 191
177 177 177
156 156 156
130 130 130
141 141 141
152 152 152
179 179 179
203 203 203
218 218 218
213 213 213
192 192 192
166 166 166
139 139 139
147 147 147
173 173 173
195 195 195
208 208 208
212 212 212
207 207 207
194 194 194
203 203 203
206 206 206
193 193 193
171 171 171
182 182 182
185 185 185
176 176 176
159 159 159
152 152 152
158 158 158
165 165 165
183 183 183
208 208 208
223 223 223
215 215 215
197 197 197
173 173 173
147 147 147
145 145 145
163 163 163
173 173 173
174 174 174
164 164 164
147 147 147
142 142 142
165 165 165
182 182 182
189 189 189
199 199 199
214 214 214
211 211 211
193 193 193
168 168 168
130 130 130
141 141 141
145 145 145
165 165 165
183 183 183
192 192 192
189 189 189
174 174 174
153 153 153
128 128 128
135 135 135
158 158 158
187 187 187
214 214 214
236 236 236
226 226 226
200 200 200
194 194 194
197 197 197
186 186 186
166 166 166
154 154 154
156 156 156
170 170 170
180 180 180
180 180 180
175 175 175
184 184 184
187 187 187
214 214 214
233 233 233
222 222 222
197 197 197
169 169 169
140 140 140
150 150 150
168 168 168
180 180 180
180 180 180
170 170 170
152 152 152
140 140 140
161 161 161
177 177 177
184 184 184
203 203 203
221 221 221
218 218 218
197 197 197
170 170 170
155 155 155
160 160 160
157 157 157
151 151 151
161 161 161
164 164 164
162 162 162
151 151 151
134 134 134
128 128 128
128 128 128
156 156 156
184 184 184
211 211 211
230 230 230
222 222 222
197 197 197
174 174 174
176 176 176
168 168 168
151 151 151
143 143 143
169 169 169
191 191 191
206 206 206
205 205 205
189 189 189
195 195 195
192 192 192
201 201 201
214 214 214
207 207 207
187 187 187
162 162 162
160 160 160
162 162 162
164 164 164
175 175 175
175 175 175
165 165 165
148 148 148
130 130 130
149 149 149
163 163 163
170 170 170
193 193 193
206 206 206
203 203 203
187 187 187
163 163 163
181 181 181
189 189 189
184 184 184
168 168 168
162 162 162
156 156 156
144 144 144
155 155 155
158 158 158
153 153 153
143 143 143
161 161 161
172 172 172
192 192 192
203 203 203
199 199 199
182 182 182
158 158 158
152 152 152
145 145 145
131 131 131
149 149 149
177 177 177
203 203 203
223 223 223
221 221 221
200 200 200
192 192 192
189 189 189
178 178 178
187 187 187
183 183 183
168 168 168
166 166 166
179 179 179
182 182 182
173 173 173
160 160 160
161 161 161
152 152 152
137 137 137
121 121 121
138 138 138
151 151 151
155 155 155
172 172 172
181 181 181
180 180 180
171 171 171
164 164 164
204 204 204
215 215 215
207 207 207
186 186 186
181 181 181
173 173 173
163 163 163
177 177 177
181 181 181
174 174 174
162 162 162
184 184 184
200 200 200
201 201 201
188 188 188
172 172 172
159 159 159
141 141 141
125 125 125
120 120 120
119 119 119
148 148 148
175 175 175
200 200 200
218 218 218
216 216 216
197 197 197
177 177 177
174 174 174
162 162 162
158 158 158
155 155 155
154 154 154
176 176 176
191 191 191
194 194 194
183 183 183
164 164 164
141 141 141
133 133 133
125 125 125
134 134 134
154 154 154
168 168 168
174 174 174
169 169 169
174 174 174
177 177 177
168 168 168
181 181 181
216 216 216
233 233 233
221 221 221
195 195 195
192 192 192
183 183 183
176 176 176
193 193 193
198 198 198
189 189 189
174 174 174
202 202 202
224 224 224
227 227 227
206 206 206
179 179 179
151 151 151
145 145 145
141 141 141
135 135 135
140 140 140
152 152 152
163 163 163
183 183 183
196 196 196
195 195 195
181 181 181
160 160 160
163 163 163
164 164 164
156 156 156
140 140 140
153 153 153
175 175 175
189 189 189
192 192 192
182 182 182
163 163 163
140 140 140
127 127 127
140 140 140
147 147 147
162 162 162
178 178 178
184 184 184
179 179 179
164 164 164
163 163 163
161 161 161
189 189 189
208 208 208
221 221 221
212 212 212
189 189 189
189 189 189
181 181 181
179 179 179
196 196 196
202 202 202
192 192 192
177 177 177
205 205 205
232 232 232
235 235 235
210 210 210
182 182 182
167 167 167
172 172 172
167 167 167
157 157 157
159 159 159
173 173 173
179 179 179
173 173 173
169 169 169
169 169 169
159 159 159
177 177 177
190 190 190
192 192 192
180 180 180
161 161 161
144 144 144
164 164 164
176 176 176
179 179 179
170 170 170
154 154 154
142 142 142
150 150 150
150 150 150
156 156 156
161 161 161
177 177 177
183 183 183
178 178 178
169 169 169
181 181 181
182 182 182
184 184 184
187 187 187
195 195 195
190 190 190
173 173 173
175 175 175
168 168 168
171 171 171
186 186 186
191 191 191
182 182 182
169 169 169
193 193 193
211 211 211
213 213 213
197 197 197
173 173 173
189 189 189
196 196 196
189 189 189
174 174 174
171 171 171
189 189 189
196 196 196
189 189 189
171 171 171
148 148 148
170 170 170
195 195 195
214 214 214
217 217 217
200 200 200
175 175 175
148 148 148
158 158 158
167 167 167
167 167 167
159 159 159
153 153 153
159 159 159
168 168 168
168 168 168
159 159 159
156 156 156
165 165 165
171 171 171
166 166 166
190 190 190
207 207 207
209 209 209
194 194 194
161 161 161
167 167 167
163 163 163
152 152 152
154 154 154
165 165 165
171 171 171
168 168 168
170 170 170
164 164 164
173 173 173
176 176 176
184 184 184
185 185 185
175 175 175
182 182 182
203 203 203
212 212 212
203 203 203
183 183 183
174 174 174
193 193 193
200 200 200
193 193 193
175 175 175
151 151 151
174 174 174
202 202 202
225 225 225
229 229 229
207 207 207
180 180 180
152 152 152
170 170 170
181 181 181
183 183 183
187 187 187
178 178 178
169 169 169
180 180 180
180 180 180
169 169 169
150 150 150
147 147 147
152 152 152
174 174 174
202 202 202
226 226 226
229 229 229
208 208 208
134 134 134
141 141 141
148 148 148
152 152 152
165 165 165
182 182 182
191 191 191
186 186 186
171 171 171
181 181 181
198 198 198
202 202 202
191 191 191
171 171 171
156 156 156
181 181 181
202 202 202
211 211 211
202 202 202
181 181 181
167 167 167
183 183 183
190 190 190
184 184 184
167 167 167
145 145 145
169 169 169
193 193 193
212 212 212
214 214 214
198 198 198
174 174 174
153 153 153
172 172 172
187 187 187
207 207 207
212 212 212
199 199 199
176 176 176
180 180 180
180 180 180
169 169 169
151 151 151
140 140 140
144 144 144
172 172 172
199 199 199
221 221 221
224 224 224
205 205 205
150 150 150
167 167 167
176 176 176
175 175 175
171 171 171
191 191 191
200 200 200
195 195 195
178 178 178
194 194 194
216 216 216
223 223 223
207 207 207
182 182 182
155 155 155
170 170 170
187 187 187
194 194 194
187 187 187
170 170 170
153 153 153
165 165 165
170 170 170
165 165 165
152 152 152
150 150 150
154 154 154
174 174 174
187 187 187
189 189 189
178 178 178
159 159 159
147 147 147
169 169 169
196 196 196
219 219 219
226 226 226
209 209 209
183 183 183
170 170 170
170 170 170
167 167 167
170 170 170
163 163 163
148 148 148
161 161 161
183 183 183
198 198 198
200 200 200
187 187 187
168 168 168
190 190 190
203 203 203
201 201 201
185 185 185
186 186 186
195 195 195
190 190 190
174 174 174
194 194 194
216 216 216
223 223 223
207 207 207
182 182 182
155 155 155
151 151 151
164 164 164
169 169 169
164 164 164
170 170 170
170 170 170
160 160 160
146 146 146
144 144 144
164 164 164
178 178 178
182 182 182
174 174 174
160 160 160
161 161 161
155 155 155
154 154 154
145 145 145
167 167 167
190 190 190
210 210 210
216 216 216
202 202 202
178 178 178
152 152 152
172 172 172
187 187 187
190 190 190
181 181 181
163 163 163
143 143 143
160 160 160
171 171 171
172 172 172
164 164 164
179 179 179
205 205 205
224 224 224
220 220 220
199 199 199
172 172 172
177 177 177
174 174 174
160 160 160
181 181 181
198 198 198
202 202 202
192 192 192
171 171 171
147 147 147
160 160 160
177 177 177
187 187 187
185 185 185
199 199 199
198 198 198
184 184 184
163 163 163
159 159 159
184 184 184
203 203 203
210 210 210
198 198 198
177 177 177
154 154 154
157 157 157
156 156 156
158 158 158
184 184 184
206 206 206
215 215 215
205 205 205
183 183 183
164 164 164
157 157 157
180 180 180
197 197 197
201 201 201
190 190 190
170 170 170
150 150 150
155 155 155
152 152 152
144 144 144
151 151 151
179 179 179
205 205 205
223 223 223
220 220 220
212 212 212
195 195 195
170 170 170
151 151 151
141 141 141
160 160 160
173 173 173
176 176 176
168 168 168
153 153 153
150 150 150
177 177 177
200 200 200
214 214 214
209 209 209
225 225 225
225 225 225
203 203 203
176 176 176
168 168 168
196 196 196
222 222 222
233 233 233
214 214 214
188 188 188
173 173 173
166 166 166
151 151 151
164 164 164
192 192 192
217 217 217
231 231 231
217 217 217
191 191 191
163 163 163
158 158 158
177 177 177
193 193 193
197 197 197
187 187 187
167 167 167
161 161 161
168 168 168
164 164 164
155 155 155
151 151 151
