P3
50 50
255
140 140 140
161 161 161
181 181 181
194 194 194
194 194 194
180 180 180
160 160 160
160 160 160
156 156 156
144 144 144
139 139 139
128 128 128
133 133 133
150 150 150
160 160 160
162 162 162
167 167 167
175 175 175
173 173 173
161 161 161
142 142 142
121 121 121
129 129 129
131 131 131
125 125 125
141 141 141
170 170 170
199 199 199
225 225 225
236 236 236
215 215 215
188 188 188
159 159 159
134 134 134
130 130 130
120 120 120
136 136 136
156 156 156
170 170 170
176 176 176
170 170 170
156 156 156
138 138 138
139 139 139
133 133 133
120 120 120
117 117 117
125 125 125
127 127 127
125 125 125
148 148 148
159 159 159
179 179 179
192 192 192
191 191 191
179 179 179
182 182 182
189 189 189
183 183 183
169 169 169
163 163 163
149 149 149
146 146 146
165 165 165
177 177 177
179 179 179
170 170 170
172 172 172
170 170 170
158 158 158
140 140 140
140 140 140
145 145 145
143 143 143
137 137 137
141 141 141
170 170 170
198 198 198
225 225 225
236 236 236
215 215 215
188 188 188
159 159 159
161 161 161
157 157 157
144 144 144
152 152 152
177 177 177
196 196 196
204 204 204
196 196 196
177 177 177
153 153 153
140 140 140
134 134 134
121 121 121
125 125 125
134 134 134
136 136 136
133 133 133
149 149 149
158 158 158
167 167 167
177 177 177
177 177 177
185 185 185
207 207 207
217 217 217
208 208 208
189 189 189
182 182 182
165 165 165
151 151 151
171 171 171
184 184 184
186 186 186
177 177 177
159 159 159
157 157 157
147 147 147
148 148 148
162 162 162
168 168 168
164 164 164
152 152 152
157 157 157
160 160 160
184 184 184
203 203 203
209 209 209
197 197 197
175 175 175
180 180 180
186 186 186
180 180 180
164 164 164
162 162 162
190 190 190
216 216 216
230 230 230
216 216 216
191 191 191
163 163 163
136 136 136
138 138 138
133 133 133
127 127 127
136 136 136
138 138 138
133 133 133
142 142 142
151 151 151
151 151 151
156 156 156
165 165 165
194 194 194
222 222 222
241 241 241
223 223 223
201 201 201
193 193 193
174 174 174
156 156 156
167 167 167
180 180 180
182 182 182
173 173 173
172 172 172
166 166 166
152 152 152
163 163 163
180 180 180
188 188 188
183 183 183
175 175 175
183 183 183
180 180 180
167 167 167
176 176 176
180 180 180
172 172 172
188 188 188
199 199 199
206 206 206
198 198 198
179 179 179
164 164 164
192 192 192
218 218 218
234 234 234
219 219 219
193 193 193
164 164 164
165 165 165
167 167 167
160 160 160
145 145 145
131 131 131
133 133 133
135 135 135
145 145 145
142 142 142
136 136 136
133 133 133
162 162 162
189 189 189
214 214 214
228 228 228
215 215 215
199 199 199
190 190 190
172 172 172
159 159 159
160 160 160
165 165 165
176 176 176
193 193 193
199 199 199
191 191 191
172 172 172
170 170 170
189 189 189
197 197 197
192 192 192
194 194 194
206 206 206
202 202 202
184 184 184
160 160 160
155 155 155
183 183 183
209 209 209
226 226 226
219 219 219
203 203 203
183 183 183
157 157 157
181 181 181
201 201 201
210 210 210
202 202 202
181 181 181
176 176 176
192 192 192
196 196 196
186 186 186
167 167 167
143 143 143
130 130 130
141 141 141
168 168 168
164 164 164
151 151 151
132 132 132
150 150 150
174 174 174
192 192 192
200 200 200
193 193 193
183 183 183
176 176 176
167 167 167
174 174 174
182 182 182
179 179 179
189 189 189
212 212 212
221 221 221
209 209 209
185 185 185
167 167 167
185 185 185
193 193 193
187 187 187
204 204 204
219 219 219
213 213 213
192 192 192
166 166 166
158 158 158
187 187 187
215 215 215
238 238 238
228 228 228
201 201 201
175 175 175
151 151 151
161 161 161
176 176 176
182 182 182
177 177 177
168 168 168
194 194 194
217 217 217
223 223 223
207 207 207
182 182 182
154 154 154
149 149 149
162 162 162
185 185 185
180 180 180
165 165 165
144 144 144
132 132 132
152 152 152
166 166 166
171 171 171
166 166 166
163 163 163
182 182 182
192 192 192
189 189 189
198 198 198
194 194 194
191 191 191
215 215 215
225 225 225
211 211 211
187 187 187
159 159 159
170 170 170
177 177 177
175 175 175
197 197 197
210 210 210
205 205 205
187 187 187
177 177 177
173 173 173
178 178 178
202 202 202
216 216 216
211 211 211
190 190 190
165 165 165
158 158 158
162 162 162
156 156 156
154 154 154
149 149 149
172 172 172
201 201 201
228 228 228
239 239 239
215 215 215
187 187 187
158 158 158
162 162 162
179 179 179
193 193 193
187 187 187
170 170 170
156 156 156
160 160 160
156 156 156
144 144 144
142 142 142
148 148 148
174 174 174
196 196 196
209 209 209
205 205 205
200 200 200
196 196 196
180 180 180
199 199 199
206 206 206
197 197 197
176 176 176
152 152 152
149 149 149
154 154 154
161 161 161
179 179 179
188 188 188
185 185 185
195 195 195
206 206 206
200 200 200
182 182 182
179 179 179
188 188 188
185 185 185
171 171 171
165 165 165
180 180 180
185 185 185
178 178 178
162 162 162
140 140 140
166 166 166
192 192 192
213 213 213
219 219 219
204 204 204
180 180 180
153 153 153
168 168 168
185 185 185
187 187 187
181 181 181
167 167 167
183 183 183
190 190 190
183 183 183
167 167 167
145 145 145
149 149 149
175 175 175
197 197 197
211 211 211
207 207 207
188 188 188
185 185 185
171 171 171
175 175 175
180 180 180
173 173 173
158 158 158
138 138 138
147 147 147
164 164 164
173 173 173
173 173 173
162 162 162
188 188 188
215 215 215
233 233 233
222 222 222
197 197 197
169 169 169
159 159 159
157 157 157
154 154 154
177 177 177
195 195 195
202 202 202
193 193 193
174 174 174
150 150 150
152 152 152
173 173 173
188 188 188
191 191 191
182 182 182
163 163 163
143 143 143
164 164 164
180 180 180
170 170 170
166 166 166
185 185 185
208 208 208
219 219 219
208 208 208
186 186 186
159 159 159
142 142 142
165 165 165
185 185 185
195 195 195
192 192 192
177 177 177
165 165 165
164 164 164
183 183 183
194 194 194
191 191 191
176 176 176
159 159 159
163 163 163
182 182 182
194 194 194
193 193 193
180 180 180
189 189 189
217 217 217
239 239 239
226 226 226
198 198 198
170 170 170
162 162 162
159 159 159
155 155 155
179 179 179
198 198 198
205 205 205
196 196 196
176 176 176
151 151 151
154 154 154
163 163 163
164 164 164
162 162 162
156 156 156
142 142 142
150 150 150
151 151 151
165 165 165
148 148 148
165 165 165
194 194 194
223 223 223
244 244 244
223 223 223
195 195 195
166 166 166
137 137 137
148 148 148
164 164 164
176 176 176
186 186 186
184 184 184
170 170 170
180 180 180
205 205 205
222 222 222
217 217 217
196 196 196
174 174 174
179 179 179
191 191 191
205 205 205
204 204 204
188 188 188
178 178 178
200 200 200
212 212 212
206 206 206
186 186 186
180 180 180
189 189 189
185 185 185
170 170 170
171 171 171
187 187 187
193 193 193
185 185 185
167 167 167
166 166 166
163 163 163
173 173 173
174 174 174
164 164 164
147 147 147
139 139 139
148 148 148
149 149 149
144 144 144
133 133 133
162 162 162
190 190 190
215 215 215
228 228 228
215 215 215
190 190 190
167 167 167
145 145 145
144 144 144
170 170 170
191 191 191
203 203 203
200 200 200
184 184 184
186 186 186
215 215 215
243 243 243
233 233 233
204 204 204
179 179 179
185 185 185
187 187 187
200 200 200
199 199 199
185 185 185
163 163 163
176 176 176
183 183 183
179 179 179
177 177 177
199 199 199
211 211 211
205 205 205
186 186 186
161 161 161
167 167 167
171 171 171
176 176 176
188 188 188
188 188 188
177 177 177
173 173 173
174 174 174
164 164 164
147 147 147
141 141 141
140 140 140
143 143 143
140 140 140
124 124 124
150 150 150
174 174 174
192 192 192
200 200 200
208 208 208
200 200 200
180 180 180
155 155 155
149 149 149
173 173 173
193 193 193
206 206 206
203 203 203
186 186 186
180 180 180
206 206 206
223 223 223
219 219 219
197 197 197
174 174 174
179 179 179
173 173 173
182 182 182
182 182 182
170 170 170
151 151 151
149 149 149
160 160 160
184 184 184
203 203 203
207 207 207
221 221 221
214 214 214
192 192 192
165 165 165
142 142 142
165 165 165
187 187 187
202 202 202
202 202 202
188 188 188
166 166 166
163 163 163
155 155 155
145 145 145
152 152 152
166 166 166
172 172 172
168 168 168
110 110 110
133 133 133
156 156 156
181 181 181
202 202 202
211 211 211
202 202 202
182 182 182
156 156 156
154 154 154
179 179 179
201 201 201
212 212 212
205 205 205
185 185 185
167 167 167
184 184 184
195 195 195
192 192 192
178 178 178
159 159 159
163 163 163
158 158 158
159 159 159
162 162 162
169 169 169
166 166 166
162 162 162
177 177 177
198 198 198
224 224 224
233 233 233
213 213 213
203 203 203
184 184 184
160 160 160
159 159 159
164 164 164
187 187 187
201 201 201
201 201 201
187 187 187
165 165 165
146 146 146
139 139 139
148 148 148
172 172 172
192 192 192
201 201 201
195 195 195
96 96 96
123 123 123
149 149 149
172 172 172
190 190 190
197 197 197
190 190 190
172 172 172
166 166 166
155 155 155
174 174 174
194 194 194
203 203 203
197 197 197
179 179 179
190 190 190
201 201 201
198 198 198
181 181 181
159 159 159
139 139 139
142 142 142
142 142 142
165 165 165
184 184 184
194 194 194
191 191 191
177 177 177
196 196 196
204 204 204
224 224 224
233 233 233
213 213 213
186 186 186
167 167 167
171 171 171
184 184 184
186 186 186
177 177 177
186 186 186
186 186 186
175 175 175
156 156 156
132 132 132
130 130 130
159 159 159
187 187 187
212 212 212
227 227 227
216 216 216
100 100 100
119 119 119
135 135 135
155 155 155
169 169 169
174 174 174
179 179 179
190 190 190
188 188 188
175 175 175
160 160 160
180 180 180
193 193 193
194 194 194
181 181 181
206 206 206
223 223 223
217 217 217
195 195 195
169 169 169
157 157 157
140 140 140
151 151 151
177 177 177
200 200 200
214 214 214
209 209 209
189 189 189
204 204 204
213 213 213
204 204 204
208 208 208
196 196 196
174 174 174
186 186 186
191 191 191
205 205 205
208 208 208
195 195 195
172 172 172
164 164 164
155 155 155
139 139 139
132 132 132
132 132 132
161 161 161
190 190 190
217 217 217
235 235 235
222 222 222
116 116 116
137 137 137
153 153 153
163 163 163
165 165 165
169 169 169
192 192 192
205 205 205
203 203 203
187 187 187
173 173 173
198 198 198
217 217 217
217 217 217
199 199 199
207 207 207
224 224 224
218 218 218
198 198 198
196 196 196
181 181 181
159 159 159
152 152 152
179 179 179
202 202 202
217 217 217
211 211 211
191 191 191
196 196 196
204 204 204
195 195 195
180 180 180
172 172 172
187 187 187
207 207 207
215 215 215
214 214 214
218 218 218
202 202 202
177 177 177
174 174 174
172 172 172
160 160 160
154 154 154
141 141 141
154 154 154
180 180 180
202 202 202
213 213 213
206 206 206
126 126 126
149 149 149
168 168 168
180 180 180
181 181 181
172 172 172
192 192 192
205 205 205
203 203 203
187 187 187
176 176 176
204 204 204
226 226 226
227 227 227
205 205 205
192 192 192
204 204 204
206 206 206
225 225 225
221 221 221
199 199 199
172 172 172
154 154 154
176 176 176
193 193 193
200 200 200
196 196 196
180 180 180
177 177 177
182 182 182
176 176 176
181 181 181
179 179 179
192 192 192
216 216 216
225 225 225
210 210 210
207 207 207
193 193 193
186 186 186
197 197 197
194 194 194
179 179 179
171 171 171
159 159 159
170 170 170
172 172 172
178 178 178
185 185 185
181 181 181
130 130 130
154 154 154
174 174 174
187 187 187
189 189 189
178 178 178
179 179 179
190 190 190
189 189 189
175 175 175
170 170 170
194 194 194
210 210 210
211 211 211
194 194 194
171 171 171
184 184 184
212 212 212
237 237 237
231 231 231
204 204 204
175 175 175
172 172 172
192 192 192
216 216 216
227 227 227
212 212 212
187 187 187
164 164 164
174 174 174
196 196 196
209 209 209
205 205 205
187 187 187
204 204 204
211 211 211
200 200 200
184 184 184
179 179 179
197 197 197
211 211 211
207 207 207
189 189 189
180 180 180
176 176 176
190 190 190
192 192 192
181 181 181
162 162 162
153 153 153
127 127 127
150 150 150
170 170 170
182 182 182
184 184 184
173 173 173
159 159 159
168 168 168
167 167 167
156 156 156
154 154 154
173 173 173
185 185 185
185 185 185
174 174 174
161 161 161
176 176 176
200 200 200
216 216 216
213 213 213
204 204 204
195 195 195
183 183 183
202 202 202
225 225 225
241 241 241
219 219 219
191 191 191
162 162 162
184 184 184
211 211 211
231 231 231
224 224 224
199 199 199
182 182 182
187 187 187
179 179 179
162 162 162
172 172 172
194 194 194
207 207 207
204 204 204
186 186 186
177 177 177
183 183 183
199 199 199
202 202 202
190 190 190
169 169 169
176 176 176
118 118 118
139 139 139
156 156 156
167 167 167
168 168 168
160 160 160
144 144 144
158 158 158
172 172 172
177 177 177
171 171 171
184 184 184
192 192 192
187 187 187
171 171 171
163 163 163
159 159 159
178 178 178
194 194 194
219 219 219
231 231 231
215 215 215
189 189 189
202 202 202
209 209 209
218 218 218
205 205 205
183 183 183
160 160 160
182 182 182
209 209 209
227 227 227
221 221 221
197 197 197
170 170 170
159 159 159
154 154 154
141 141 141
161 161 161
179 179 179
189 189 189
186 186 186
172 172 172
165 165 165
180 180 180
194 194 194
197 197 197
185 185 185
187 187 187
204 204 204
103 103 103
122 122 122
137 137 137
145 145 145
149 149 149
151 151 151
148 148 148
170 170 170
187 187 187
193 193 193
185 185 185
197 197 197
207 207 207
201 201 201
182 182 182
158 158 158
141 141 141
167 167 167
196 196 196
223 223 223
238 238 238
219 219 219
194 194 194
187 187 187
196 196 196
206 206 206
199 199 199
180 180 180
177 177 177
183 183 183
191 191 191
203 203 203
199 199 199
182 182 182
159 159 159
134 134 134
127 127 127
131 131 131
153 153 153
171 171 171
181 181 181
180 180 180
168 168 168
149 149 149
165 165 165
178 178 178
179 179 179
174 174 174
202 202 202
228 228 228
108 108 108
112 112 112
125 125 125
141 141 141
152 152 152
154 154 154
150 150 150
173 173 173
190 190 190
196 196 196
188 188 188
196 196 196
206 206 206
200 200 200
181 181 181
157 157 157
132 132 132
159 159 159
184 184 184
205 205 205
213 213 213
202 202 202
190 190 190
182 182 182
179 179 179
186 186 186
181 181 181
170 170 170
187 187 187
192 192 192
185 185 185
175 175 175
172 172 172
160 160 160
143 143 143
147 147 147
144 144 144
139 139 139
164 164 164
184 184 184
197 197 197
195 195 195
181 181 181
159 159 159
159 159 159
167 167 167
166 166 166
175 175 175
204 204 204
231 231 231
137 137 137
139 139 139
134 134 134
136 136 136
146 146 146
148 148 148
144 144 144
165 165 165
181 181 181
186 186 186
179 179 179
182 182 182
190 190 190
185 185 185
170 170 170
148 148 148
124 124 124
144 144 144
164 164 164
179 179 179
184 184 184
177 177 177
174 174 174
168 168 168
156 156 156
162 162 162
158 158 158
168 168 168
184 184 184
189 189 189
182 182 182
165 165 165
144 144 144
145 145 145
159 159 159
164 164 164
161 161 161
149 149 149
166 166 166
187 187 187
200 200 200
198 198 198
183 183 183
161 161 161
172 172 172
182 182 182
180 180 180
168 168 168
190 190 190
208 208 208
165 165 165
168 168 168
162 162 162
148 148 148
133 133 133
135 135 135
131 131 131
150 150 150
162 162 162
166 166 166
161 161 161
161 161 161
167 167 167
163 163 163
151 151 151
133 133 133
136 136 136
133 133 133
140 140 140
152 152 152
155 155 155
150 150 150
152 152 152
147 147 147
135 135 135
135 135 135
137 137 137
156 156 156
170 170 170
174 174 174
168 168 168
154 154 154
134 134 134
153 153 153
168 168 168
174 174 174
170 170 170
157 157 157
158 158 158
177 177 177
188 188 188
187 187 187
174 174 174
161 161 161
177 177 177
185 185 185
184 184 184
171 171 171
168 168 168
180 180 180
193 193 193
198 198 198
189 189 189
169 169 169
146 146 146
122 122 122
126 126 126
129 129 129
139 139 139
143 143 143
138 138 138
136 136 136
140 140 140
138 138 138
130 130 130
143 143 143
148 148 148
146 146 146
137 137 137
144 144 144
143 143 143
135 135 135
127 127 127
123 123 123
122 122 122
125 125 125
121 121 121
138 138 138
149 149 149
153 153 153
148 148 148
136 136 136
147 147 147
167 167 167
181 181 181
184 184 184
175 175 175
158 158 158
163 163 163
175 175 175
177 177 177
168 168 168
156 156 156
181 181 181
203 203 203
213 213 213
205 205 205
184 184 184
170 170 170
176 176 176
218 218 218
227 227 227
211 211 211
185 185 185
158 158 158
150 150 150
155 155 155
152 152 152
140 140 140
123 123 123
113 113 113
109 109 109
118 118 118
128 128 128
135 135 135
148 148 148
154 154 154
152 152 152
152 152 152
160 160 160
159 159 159
150 150 150
134 134 134
131 131 131
141 141 141
144 144 144
145 145 145
146 146 146
138 138 138
128 128 128
125 125 125
137 137 137
164 164 164
189 189 189
208 208 208
213 213 213
199 199 199
177 177 177
169 169 169
181 181 181
183 183 183
174 174 174
169 169 169
192 192 192
221 221 221
242 242 242
225 225 225
196 196 196
176 176 176
194 194 194
230 230 230
249 249 249
220 220 220
191 191 191
161 161 161
176 176 176
183 183 183
178 178 178
164 164 164
143 143 143
119 119 119
100 100 100
115 115 115
125 125 125
133 133 133
146 146 146
152 152 152
149 149 149
160 160 160
169 169 169
168 168 168
158 158 158
141 141 141
144 144 144
156 156 156
162 162 162
173 173 173
173 173 173
164 164 164
147 147 147
125 125 125
144 144 144
173 173 173
202 202 202
230 230 230
241 241 241
216 216 216
187 187 187
164 164 164
176 176 176
178 178 178
176 176 176
185 185 185
191 191 191
218 218 218
236 236 236
222 222 222
195 195 195
171 171 171
200 200 200
214 214 214
222 222 222
208 208 208
183 183 183
177 177 177
198 198 198
208 208 208
201 201 201
182 182 182
158 158 158
131 131 131
103 103 103
106 106 106
115 115 115
124 124 124
136 136 136
141 141 141
143 143 143
159 159 159
168 168 168
167 167 167
157 157 157
153 153 153
151 151 151
163 163 163
184 184 184
199 199 199
200 200 200
186 186 186
165 165 165
140 140 140
143 143 143
172 172 172
200 200 200
226 226 226
235 235 235
213 213 213
186 186 186
157 157 157
170 170 170
176 176 176
182 182 182
192 192 192
189 189 189
197 197 197
207 207 207
200 200 200
180 180 180
165 165 165
192 192 192
204 204 204
212 212 212
202 202 202
180 180 180
186 186 186
211 211 211
225 225 225
215 215 215
192 192 192
164 164 164
136 136 136
116 116 116
101 101 101
112 112 112
116 116 116
120 120 120
124 124 124
135 135 135
150 150 150
157 157 157
157 157 157
170 170 170
179 179 179
177 177 177
173 173 173
199 199 199
219 219 219
220 220 220
201 201 201
176 176 176
154 154 154
159 159 159
161 161 161
185 185 185
202 202 202
207 207 207
194 194 194
173 173 173
160 160 160
176 176 176
183 183 183
179 179 179
185 185 185
182 182 182
171 171 171
177 177 177
173 173 173
166 166 166
158 158 158
183 183 183
217 217 217
229 229 229
214 214 214
189 189 189
183 183 183
206 206 206
218 218 218
210 210 210
188 188 188
162 162 162
147 147 147
132 132 132
112 112 112
113 113 113
125 125 125
134 134 134
136 136 136
131 131 131
133 133 133
144 144 144
168 168 168
189 189 189
201 201 201
199 199 199
183 183 183
199 199 199
220 220 220
221 221 221
202 202 202
176 176 176
168 168 168
173 173 173
167 167 167
162 162 162
175 175 175
177 177 177
169 169 169
153 153 153
157 157 157
172 172 172
179 179 179
177 177 177
175 175 175
166 166 166
155 155 155
167 167 167
179 179 179
181 181 181
171 171 171
192 192 192
210 210 210
219 219 219
207 207 207
184 184 184
169 169 169
187 187 187
195 195 195
190 190 190
173 173 173
168 168 168
159 159 159
142 142 142
140 140 140
142 142 142
145 145 145
155 155 155
158 158 158
152 152 152
144 144 144
149 149 149
175 175 175
199 199 199
214 214 214
210 210 210
191 191 191
186 186 186
201 201 201
202 202 202
189 189 189
192 192 192
183 183 183
178 178 178
172 172 172
157 157 157
146 146 146
148 148 148
142 142 142
146 146 146
147 147 147
167 167 167
187 187 187
199 199 199
197 197 197
181 181 181
159 159 159
170 170 170
183 183 183
185 185 185
175 175 175
187 187 187
189 189 189
195 195 195
187 187 187
169 169 169
149 149 149
163 163 163
169 169 169
165 165 165
172 172 172
172 172 172
162 162 162
156 156 156
168 168 168
171 171 171
164 164 164
172 172 172
175 175 175
173 173 173
172 172 172
162 162 162
172 172 172
194 194 194
207 207 207
204 204 204
187 187 187
165 165 165
175 175 175
177 177 177
193 193 193
197 197 197
187 187 187
172 172 172
166 166 166
152 152 152
133 133 133
120 120 120
139 139 139
152 152 152
158 158 158
174 174 174
198 198 198
212 212 212
209 209 209
190 190 190
166 166 166
164 164 164
175 175 175
177 177 177
168 168 168
172 172 172
163 163 163
167 167 167
162 162 162
148 148 148
148 148 148
154 154 154
152 152 152
156 156 156
165 165 165
166 166 166
157 157 157
179 179 179
196 196 196
201 201 201
190 190 190
180 180 180
186 186 186
199 199 199
199 199 199
185 185 185
171 171 171
185 185 185
188 188 188
185 185 185
171 171 171
151 151 151
149 149 149
170 170 170
184 184 184
187 187 187
178 178 178
167 167 167
159 159 159
143 143 143
123 123 123
133 133 133
153 153 153
169 169 169
176 176 176
173 173 173
194 194 194
207 207 207
204 204 204
187 187 187
163 163 163
149 149 149
159 159 159
174 174 174
183 183 183
179 179 179
136 136 136
139 139 139
135 135 135
146 146 146
161 161 161
169 169 169
166 166 166
155 155 155
151 151 151
154 154 154
169 169 169
197 197 197
221 221 221
230 230 230
212 212 212
185 185 185
202 202 202
221 221 221
220 220 220
200 200 200
174 174 174
187 187 187
190 190 190
181 181 181
162 162 162
154 154 154
168 168 168
173 173 173
168 168 168
168 168 168
178 178 178
180 180 180
170 170 170
153 153 153
131 131 131
139 139 139
161 161 161
178 178 178
186 186 186
182 182 182
178 178 178
188 188 188
186 186 186
172 172 172
152 152 152
159 159 159
167 167 167
185 185 185
195 195 195
191 191 191
107 107 107
117 117 117
135 135 135
151 151 151
166 166 166
174 174 174
172 172 172
159 159 159
142 142 142
159 159 159
172 172 172
201 201 201
231 231 231
246 246 246
219 219 219
198 198 198
217 217 217
224 224 224
223 223 223
202 202 202
175 175 175
177 177 177
180 180 180
171 171 171
155 155 155
170 170 170
187 187 187
194 194 194
187 187 187
170 170 170
180 180 180
182 182 182
172 172 172
154 154 154
132 132 132
150 150 150
173 173 173
190 190 190
196 196 196
188 188 188
170 170 170
163 163 163
161 161 161
151 151 151
163 163 163
183 183 183
194 194 194
192 192 192
193 193 193
190 190 190
99 99 99
121 121 121
139 139 139
152 152 152
162 162 162
169 169 169
167 167 167
155 155 155
138 138 138
155 155 155
165 165 165
191 191 191
213 213 213
219 219 219
205 205 205
210 210 210
239 239 239
239 239 239
210 210 210
189 189 189
166 166 166
159 159 159
166 166 166
172 172 172
167 167 167
177 177 177
197 197 197
205 205 205
197 197 197
177 177 177
172 172 172
172 172 172
164 164 164
147 147 147
130 130 130
157 157 157
182 182 182
202 202 202
210 210 210
200 200 200
179 179 179
154 154 154
135 135 135
149 149 149
176 176 176
201 201 201
217 217 217
214 214 214
194 194 194
176 176 176
123 123 123
127 127 127
136 136 136
149 149 149
154 154 154
155 155 155
153 153 153
143 143 143
128 128 128
143 143 143
152 152 152
171 171 171
186 186 186
190 190 190
181 181 181
204 204 204
226 226 226
226 226 226
204 204 204
177 177 177
149 149 149
155 155 155
170 170 170
175 175 175
179 179 179
178 178 178
192 192 192
200 200 200
192 192 192
174 174 174
175 175 175
171 171 171
159 159 159
140 140 140
129 129 129
156 156 156
180 180 180
199 199 199
206 206 206
197 197 197
177 177 177
152 152 152
125 125 125
152 152 152
179 179 179
205 205 205
224 224 224
220 220 220
198 198 198
172 172 172
150 150 150
155 155 155
152 152 152
154 154 154
156 156 156
150 150 150
137 137 137
141 141 141
144 144 144
139 139 139
133 133 133
147 147 147
158 158 158
171 171 171
179 179 179
185 185 185
199 199 199
199 199 199
185 185 185
163 163 163
138 138 138
150 150 150
167 167 167
189 189 189
203 203 203
202 202 202
187 187 187
182 182 182
176 176 176
161 161 161
168 168 168
165 165 165
153 153 153
135 135 135
121 121 121
146 146 146
167 167 167
183 183 183
188 188 188
181 181 181
165 165 165
142 142 142
118 118 118
146 146 146
172 172 172
194 194 194
211 211 211
215 215 215
200 200 200
177 177 177
175 175 175
181 181 181
177 177 177
182 182 182
186 186 186
177 177 177
160 160 160
170 170 170
173 173 173
167 167 167
152 152 152
139 139 139
146 146 146
160 160 160
166 166 166
164 164 164
170 170 170
170 170 170
160 160 160
143 143 143
122 122 122
148 148 148
176 176 176
201 201 201
219 219 219
218 218 218
198 198 198
172 172 172
154 154 154
147 147 147
152 152 152
150 150 150
139 139 139
123 123 123
128 128 128
129 129 129
148 148 148
160 160 160
164 164 164
159 159 159
145 145 145
142 142 142
142 142 142
144 144 144
173 173 173
202 202 202
228 228 228
236 236 236
213 213 213
185 185 185
195 195 195
204 204 204
198 198 198
209 209 209
215 215 215
202 202 202
179 179 179
197 197 197
203 203 203
193 193 193
173 173 173
155 155 155
165 165 165
166 166 166
158 158 158
145 145 145
141 141 141
141 141 141
134 134 134
126 126 126
128 128 128
146 146 146
173 173 173
198 198 198
215 215 215
213 213 213
195 195 195
170 170 170
143 143 143
132 132 132
132 132 132
129 129 129
120 120 120
126 126 126
134 134 134
136 136 136
130 130 130
134 134 134
137 137 137
144 144 144
160 160 160
169 169 169
168 168 168
158 158 158
170 170 170
197 197 197
220 220 220
225 225 225
207 207 207
182 182 182
204 204 204
216 216 216
208 208 208
229 229 229
243 243 243
218 218 218
195 195 195
220 220 220
231 231 231
214 214 214
187 187 187
167 167 167
178 178 178
179 179 179
169 169 169
152 152 152
141 141 141
153 153 153
158 158 158
154 154 154
153 153 153
167 167 167
172 172 172
182 182 182
194 194 194
193 193 193
180 180 180
159 159 159
159 159 159
160 160 160
152 152 152
137 137 137
121 121 121
135 135 135
143 143 143
143 143 143
135 135 135
122 122 122
138 138 138
162 162 162
182 182 182
194 194 194
193 193 193
179 179 179
158 158 158
180 180 180
196 196 196
199 199 199
188 188 188
182 182 182
198 198 198
208 208 208
201 201 201
224 224 224
234 234 234
214 214 214
199 199 199
227 227 227
243 243 243
219 219 219
191 191 191
169 169 169
181 181 181
182 182 182
172 172 172
154 154 154
164 164 164
181 181 181
187 187 187
182 182 182
175 175 175
194 194 194
201 201 201
194 194 194
175 175 175
167 167 167
157 157 157
172 172 172
185 185 185
186 186 186
175 175 175
157 157 157
144 144 144
161 161 161
171 171 171
172 172 172
162 162 162
145 145 145
146 146 146
172 172 172
196 196 196
212 212 212
210 210 210
193 193 193
168 168 168
157 157 157
168 168 168
174 174 174
175 175 175
177 177 177
180 180 180
187 187 187
182 182 182
200 200 200
205 205 205
194 194 194
188 188 188
209 209 209
217 217 217
204 204 204
181 181 181
161 161 161
172 172 172
173 173 173
164 164 164
157 157 157
183 183 183
206 206 206
217 217 217
208 208 208
191 191 191
216 216 216
230 230 230
217 217 217
191 191 191
163 163 163
165 165 165
189 189 189
206 206 206
208 208 208
193 193 193
171 171 171
164 164 164
186 186 186
200 200 200
200 200 200
186 186 186
164 164 164
146 146 146
173 173 173
197 197 197
213 213 213
212 212 212
194 194 194
169 169 169
174 174 174
182 182 182
197 197 197
198 198 198
186 186 186
156 156 156
161 161 161
178 178 178
189 189 189
187 187 187
174 174 174
168 168 168
183 183 183
188 188 188
180 180 180
163 163 163
146 146 146
155 155 155
156 156 156
148 148 148
164 164 164
193 193 193
222 222 222
244 244 244
225 225 225
196 196 196
224 224 224
247 247 247
224 224 224
195 195 195
166 166 166
170 170 170
195 195 195
214 214 214
217 217 217
200 200 200
175 175 175
177 177 177
204 204 204
226 226 226
226 226 226
204 204 204
177 177 177
159 159 159
164 164 164
184 184 184
197 197 197
196 196 196
182 182 182
166 166 166
182 182 182
193 193 193
211 211 211
213 213 213
198 198 198
145 145 145
171 171 171
193 193 193
207 207 207
205 205 205
188 188 188
173 173 173
173 173 173
163 163 163
153 153 153
155 155 155
158 158 158
151 151 151
138 138 138
133 133 133
162 162 162
190 190 190
216 216 216
232 232 232
219 219 219
193 193 193
208 208 208
219 219 219
208 208 208
186 186 186
159 159 159
164 164 164
187 187 187
204 204 204
206 206 206
192 192 192
170 170 170
179 179 179
208 208 208
235 235 235
236 236 236
209 209 209
197 197 197
175 175 175
149 149 149
164 164 164
173 173 173
172 172 172
161 161 161
163 163 163
179 179 179
190 190 190
208 208 208
210 210 210
195 195 195
148 148 148
173 173 173
196 196 196
211 211 211
208 208 208
190 190 190
192 192 192
192 192 192
179 179 179
159 159 159
164 164 164
167 167 167
160 160 160
146 146 146
126 126 126
151 151 151
175 175 175
194 194 194
203 203 203
196 196 196
177 177 177
183 183 183
190 190 190
183 183 183
167 167 167
145 145 145
150 150 150
170 170 170
182 182 182
183 183 183
190 190 190
189 189 189
176 176 176
196 196 196
214 214 214
216 216 216
222 222 222
206 206 206
181 181 181
154 154 154
139 139 139
146 146 146
145 145 145
142 142 142
151 151 151
165 165 165
176 176 176
189 189 189
191 191 191
180 180 180
165 165 165
186 186 186
198 198 198
197 197 197
195 195 195
187 187 187
201 201 201
201 201 201
186 186 186
164 164 164
164 164 164
167 167 167
160 160 160
146 146 146
133 133 133
138 138 138
154 154 154
168 168 168
174 174 174
169 169 169
157 157 157
156 156 156
160 160 160
156 156 156
157 157 157
170 170 170
173 173 173
184 184 184
191 191 191
195 195 195
210 210 210
208 208 208
190 190 190
174 174 174
188 188 188
208 208 208
213 213 213
200 200 200
177 177 177
151 151 151
137 137 137
135 135 135
137 137 137
147 147 147
150 150 150
146 146 146
155 155 155
165 165 165
166 166 166
158 158 158
176 176 176
200 200 200
216 216 216
213 213 213
194 194 194
182 182 182
194 194 194
194 194 194
181 181 181
160 160 160
155 155 155
158 158 158
152 152 152
138 138 138
133 133 133
138 138 138
146 146 146
153 153 153
170 170 170
181 181 181
181 181 181
170 170 170
151 151 151
153 153 153
175 175 175
192 192 192
197 197 197
197 197 197
206 206 206
199 199 199
214 214 214
212 212 212
193 193 193
169 169 169
172 172 172
186 186 186
190 190 190
181 181 181
162 162 162
140 140 140
132 132 132
140 140 140
143 143 143
145 145 145
148 148 148
142 142 142
130 130 130
138 138 138
139 139 139
149 149 149
175 175 175
200 200 200
216 216 216
213 213 213
194 194 194
171 171 171
177 177 177
177 177 177
166 166 166
148 148 148
139 139 139
141 141 141
136 136 136
130 130 130
139 139 139
146 146 146
161 161 161
168 168 168
185 185 185
198 198 198
198 198 198
184 184 184
163 163 163
161 161 161
186 186 186
205 205 205
212 212 212
200 200 200
206 206 206
209 209 209
200 200 200
198 198 198
183 183 183
161 161 161
168 168 168
173 173 173
167 167 167
156 156 156
143 143 143
147 147 147
143 143 143
138 138 138
140 140 140
135 135 135
138 138 138
133 133 133
121 121 121
127 127 127
127 127 127
149 149 149
