P3
50 50
255
118 118 118
139 139 139
155 155 155
164 164 164
163 163 163
154 154 154
138 138 138
117 117 117
101 101 101
105 105 105
119 119 119
128 128 128
130 130 130
139 139 139
163 163 163
183 183 183
194 194 194
193 193 193
182 182 182
169 169 169
149 149 149
129 129 129
147 147 147
158 158 158
161 161 161
168 168 168
184 184 184
190 190 190
183 183 183
167 167 167
145 145 145
120 120 120
95 95 95
100 100 100
100 100 100
98 98 98
114 114 114
141 141 141
165 165 165
186 186 186
198 198 198
196 196 196
185 185 185
166 166 166
142 142 142
153 153 153
174 174 174
189 189 189
193 193 193
184 184 184
128 128 128
138 138 138
153 153 153
162 162 162
162 162 162
153 153 153
137 137 137
125 125 125
120 120 120
126 126 126
143 143 143
153 153 153
156 156 156
150 150 150
178 178 178
204 204 204
222 222 222
219 219 219
198 198 198
172 172 172
146 146 146
126 126 126
143 143 143
154 154 154
158 158 158
183 183 183
204 204 204
213 213 213
203 203 203
182 182 182
156 156 156
129 129 129
112 112 112
123 123 123
128 128 128
126 126 126
118 118 118
141 141 141
165 165 165
186 186 186
205 205 205
209 209 209
196 196 196
174 174 174
148 148 148
164 164 164
190 190 190
210 210 210
215 215 215
201 201 201
157 157 157
160 160 160
154 154 154
152 152 152
152 152 152
143 143 143
137 137 137
140 140 140
134 134 134
143 143 143
163 163 163
176 176 176
179 179 179
171 171 171
184 184 184
213 213 213
242 242 242
236 236 236
207 207 207
177 177 177
148 148 148
139 139 139
143 143 143
142 142 142
161 161 161
188 188 188
211 211 211
222 222 222
211 211 211
187 187 187
160 160 160
132 132 132
136 136 136
150 150 150
156 156 156
153 153 153
143 143 143
134 134 134
161 161 161
184 184 184
202 202 202
205 205 205
193 193 193
172 172 172
147 147 147
167 167 167
193 193 193
215 215 215
222 222 222
212 212 212
185 185 185
189 189 189
181 181 181
163 163 163
154 154 154
145 145 145
146 146 146
148 148 148
142 142 142
154 154 154
176 176 176
192 192 192
197 197 197
187 187 187
178 178 178
204 204 204
223 223 223
220 220 220
198 198 198
172 172 172
144 144 144
152 152 152
158 158 158
154 154 154
156 156 156
181 181 181
201 201 201
209 209 209
200 200 200
180 180 180
155 155 155
135 135 135
157 157 157
173 173 173
181 181 181
178 178 178
165 165 165
145 145 145
150 150 150
171 171 171
185 185 185
188 188 188
178 178 178
160 160 160
138 138 138
160 160 160
184 184 184
202 202 202
206 206 206
227 227 227
211 211 211
218 218 218
204 204 204
181 181 181
154 154 154
140 140 140
147 147 147
149 149 149
143 143 143
157 157 157
180 180 180
197 197 197
202 202 202
191 191 191
171 171 171
183 183 183
194 194 194
193 193 193
179 179 179
157 157 157
145 145 145
158 158 158
164 164 164
160 160 160
148 148 148
164 164 164
179 179 179
185 185 185
179 179 179
163 163 163
142 142 142
147 147 147
172 172 172
193 193 193
203 203 203
199 199 199
181 181 181
158 158 158
140 140 140
151 151 151
162 162 162
164 164 164
157 157 157
142 142 142
122 122 122
145 145 145
165 165 165
179 179 179
197 197 197
216 216 216
229 229 229
244 244 244
219 219 219
190 190 190
160 160 160
131 131 131
140 140 140
147 147 147
160 160 160
165 165 165
173 173 173
188 188 188
192 192 192
183 183 183
165 165 165
157 157 157
165 165 165
164 164 164
154 154 154
137 137 137
142 142 142
156 156 156
161 161 161
157 157 157
146 146 146
161 161 161
177 177 177
183 183 183
178 178 178
164 164 164
143 143 143
152 152 152
178 178 178
201 201 201
214 214 214
208 208 208
188 188 188
163 163 163
136 136 136
134 134 134
136 136 136
137 137 137
132 132 132
120 120 120
119 119 119
126 126 126
145 145 145
165 165 165
179 179 179
200 200 200
220 220 220
230 230 230
212 212 212
186 186 186
158 158 158
159 159 159
162 162 162
159 159 159
174 174 174
179 179 179
173 173 173
169 169 169
172 172 172
165 165 165
150 150 150
130 130 130
136 136 136
135 135 135
130 130 130
119 119 119
133 133 133
145 145 145
150 150 150
146 146 146
136 136 136
153 153 153
168 168 168
174 174 174
169 169 169
156 156 156
137 137 137
148 148 148
174 174 174
195 195 195
206 206 206
201 201 201
183 183 183
159 159 159
133 133 133
124 124 124
116 116 116
110 110 110
124 124 124
136 136 136
142 142 142
140 140 140
161 161 161
186 186 186
204 204 204
209 209 209
196 196 196
201 201 201
191 191 191
171 171 171
171 171 171
186 186 186
191 191 191
183 183 183
178 178 178
184 184 184
178 178 178
162 162 162
148 148 148
142 142 142
131 131 131
120 120 120
125 125 125
128 128 128
124 124 124
140 140 140
155 155 155
162 162 162
160 160 160
149 149 149
132 132 132
139 139 139
151 151 151
156 156 156
152 152 152
144 144 144
133 133 133
137 137 137
159 159 159
177 177 177
185 185 185
181 181 181
167 167 167
147 147 147
139 139 139
128 128 128
118 118 118
127 127 127
147 147 147
162 162 162
169 169 169
167 167 167
171 171 171
199 199 199
224 224 224
233 233 233
169 169 169
172 172 172
169 169 169
175 175 175
189 189 189
212 212 212
220 220 220
207 207 207
183 183 183
177 177 177
171 171 171
157 157 157
157 157 157
160 160 160
155 155 155
142 142 142
123 123 123
116 116 116
138 138 138
161 161 161
179 179 179
189 189 189
186 186 186
172 172 172
152 152 152
134 134 134
153 153 153
167 167 167
172 172 172
167 167 167
153 153 153
134 134 134
139 139 139
153 153 153
159 159 159
157 157 157
150 150 150
154 154 154
149 149 149
137 137 137
120 120 120
143 143 143
166 166 166
185 185 185
196 196 196
192 192 192
179 179 179
198 198 198
223 223 223
231 231 231
147 147 147
170 170 170
188 188 188
197 197 197
198 198 198
227 227 227
243 243 243
220 220 220
191 191 191
162 162 162
159 159 159
163 163 163
177 177 177
182 182 182
175 175 175
159 159 159
137 137 137
122 122 122
150 150 150
176 176 176
199 199 199
213 213 213
209 209 209
190 190 190
165 165 165
146 146 146
168 168 168
184 184 184
191 191 191
184 184 184
168 168 168
145 145 145
120 120 120
127 127 127
132 132 132
140 140 140
152 152 152
155 155 155
150 150 150
138 138 138
136 136 136
160 160 160
181 181 181
202 202 202
217 217 217
211 211 211
194 194 194
206 206 206
208 208 208
206 206 206
152 152 152
177 177 177
198 198 198
208 208 208
200 200 200
216 216 216
226 226 226
211 211 211
186 186 186
158 158 158
155 155 155
174 174 174
190 190 190
196 196 196
187 187 187
169 169 169
146 146 146
125 125 125
154 154 154
181 181 181
207 207 207
224 224 224
219 219 219
196 196 196
169 169 169
150 150 150
174 174 174
192 192 192
199 199 199
192 192 192
173 173 173
150 150 150
125 125 125
124 124 124
142 142 142
154 154 154
158 158 158
153 153 153
144 144 144
132 132 132
146 146 146
173 173 173
198 198 198
215 215 215
221 221 221
215 215 215
212 212 212
214 214 214
205 205 205
191 191 191
150 150 150
174 174 174
193 193 193
202 202 202
195 195 195
192 192 192
198 198 198
189 189 189
170 170 170
147 147 147
152 152 152
175 175 175
191 191 191
197 197 197
188 188 188
170 170 170
146 146 146
136 136 136
149 149 149
175 175 175
198 198 198
212 212 212
208 208 208
189 189 189
176 176 176
167 167 167
169 169 169
186 186 186
193 193 193
186 186 186
169 169 169
147 147 147
148 148 148
143 143 143
163 163 163
178 178 178
184 184 184
178 178 178
162 162 162
146 146 146
148 148 148
176 176 176
202 202 202
222 222 222
221 221 221
214 214 214
214 214 214
217 217 217
200 200 200
176 176 176
139 139 139
161 161 161
176 176 176
186 186 186
199 199 199
197 197 197
182 182 182
165 165 165
168 168 168
160 160 160
145 145 145
165 165 165
180 180 180
184 184 184
177 177 177
176 176 176
173 173 173
161 161 161
142 142 142
160 160 160
178 178 178
188 188 188
185 185 185
189 189 189
190 190 190
179 179 179
160 160 160
170 170 170
175 175 175
170 170 170
156 156 156
165 165 165
168 168 168
161 161 161
179 179 179
198 198 198
206 206 206
197 197 197
177 177 177
154 154 154
154 154 154
168 168 168
191 191 191
206 206 206
206 206 206
213 213 213
202 202 202
200 200 200
187 187 187
166 166 166
158 158 158
164 164 164
178 178 178
203 203 203
221 221 221
218 218 218
197 197 197
193 193 193
196 196 196
186 186 186
166 166 166
148 148 148
160 160 160
171 171 171
192 192 192
203 203 203
200 200 200
183 183 183
160 160 160
142 142 142
153 153 153
162 162 162
177 177 177
191 191 191
193 193 193
182 182 182
162 162 162
148 148 148
152 152 152
148 148 148
163 163 163
176 176 176
180 180 180
173 173 173
185 185 185
207 207 207
216 216 216
205 205 205
183 183 183
157 157 157
153 153 153
153 153 153
171 171 171
182 182 182
189 189 189
195 195 195
187 187 187
175 175 175
166 166 166
149 149 149
177 177 177
184 184 184
179 179 179
206 206 206
225 225 225
222 222 222
200 200 200
218 218 218
225 225 225
207 207 207
182 182 182
154 154 154
155 155 155
183 183 183
209 209 209
227 227 227
221 221 221
197 197 197
170 170 170
146 146 146
157 157 157
182 182 182
203 203 203
211 211 211
201 201 201
180 180 180
155 155 155
135 135 135
138 138 138
151 151 151
164 164 164
178 178 178
182 182 182
174 174 174
179 179 179
198 198 198
206 206 206
197 197 197
177 177 177
153 153 153
145 145 145
137 137 137
146 146 146
154 154 154
166 166 166
170 170 170
164 164 164
150 150 150
141 141 141
160 160 160
187 187 187
195 195 195
190 190 190
193 193 193
206 206 206
220 220 220
218 218 218
231 231 231
242 242 242
216 216 216
187 187 187
158 158 158
155 155 155
183 183 183
210 210 210
229 229 229
222 222 222
198 198 198
171 171 171
175 175 175
173 173 173
194 194 194
221 221 221
237 237 237
219 219 219
192 192 192
163 163 163
159 159 159
162 162 162
162 162 162
174 174 174
177 177 177
172 172 172
166 166 166
164 164 164
179 179 179
184 184 184
178 178 178
162 162 162
141 141 141
136 136 136
144 144 144
145 145 145
139 139 139
140 140 140
143 143 143
142 142 142
139 139 139
145 145 145
169 169 169
185 185 185
193 193 193
188 188 188
183 183 183
211 211 211
237 237 237
233 233 233
215 215 215
220 220 220
205 205 205
180 180 180
153 153 153
162 162 162
183 183 183
196 196 196
207 207 207
203 203 203
185 185 185
191 191 191
203 203 203
200 200 200
193 193 193
219 219 219
233 233 233
217 217 217
191 191 191
165 165 165
179 179 179
183 183 183
175 175 175
176 176 176
179 179 179
171 171 171
154 154 154
142 142 142
154 154 154
158 158 158
154 154 154
141 141 141
137 137 137
154 154 154
165 165 165
166 166 166
158 158 158
143 143 143
136 136 136
141 141 141
138 138 138
144 144 144
167 167 167
172 172 172
179 179 179
174 174 174
177 177 177
202 202 202
221 221 221
218 218 218
198 198 198
192 192 192
182 182 182
163 163 163
149 149 149
177 177 177
203 203 203
224 224 224
223 223 223
202 202 202
182 182 182
209 209 209
228 228 228
222 222 222
199 199 199
199 199 199
206 206 206
197 197 197
177 177 177
174 174 174
190 190 190
195 195 195
186 186 186
167 167 167
170 170 170
162 162 162
147 147 147
133 133 133
136 136 136
137 137 137
138 138 138
132 132 132
148 148 148
167 167 167
179 179 179
180 180 180
171 171 171
154 154 154
138 138 138
139 139 139
133 133 133
136 136 136
156 156 156
152 152 152
157 157 157
159 159 159
170 170 170
181 181 181
193 193 193
192 192 192
178 178 178
163 163 163
156 156 156
142 142 142
152 152 152
182 182 182
211 211 211
240 240 240
239 239 239
209 209 209
184 184 184
211 211 211
233 233 233
226 226 226
201 201 201
173 173 173
177 177 177
172 172 172
169 169 169
179 179 179
189 189 189
194 194 194
185 185 185
167 167 167
153 153 153
147 147 147
133 133 133
129 129 129
132 132 132
128 128 128
127 127 127
131 131 131
151 151 151
170 170 170
183 183 183
185 185 185
175 175 175
157 157 157
156 156 156
159 159 159
153 153 153
139 139 139
139 139 139
128 128 128
138 138 138
155 155 155
166 166 166
167 167 167
165 165 165
173 173 173
176 176 176
168 168 168
152 152 152
160 160 160
171 171 171
175 175 175
201 201 201
220 220 220
219 219 219
199 199 199
174 174 174
197 197 197
210 210 210
207 207 207
189 189 189
164 164 164
148 148 148
166 166 166
186 186 186
199 199 199
198 198 198
183 183 183
173 173 173
157 157 157
150 150 150
153 153 153
148 148 148
136 136 136
121 121 121
131 131 131
148 148 148
159 159 159
161 161 161
164 164 164
175 175 175
177 177 177
175 175 175
171 171 171
181 181 181
185 185 185
176 176 176
159 159 159
137 137 137
129 129 129
145 145 145
154 154 154
167 167 167
181 181 181
184 184 184
200 200 200
205 205 205
193 193 193
172 172 172
175 175 175
188 188 188
189 189 189
180 180 180
192 192 192
191 191 191
179 179 179
158 158 158
173 173 173
183 183 183
180 180 180
167 167 167
156 156 156
149 149 149
171 171 171
194 194 194
209 209 209
207 207 207
190 190 190
166 166 166
163 163 163
178 178 178
182 182 182
175 175 175
159 159 159
138 138 138
150 150 150
171 171 171
185 185 185
188 188 188
178 178 178
174 174 174
193 193 193
203 203 203
197 197 197
201 201 201
206 206 206
195 195 195
174 174 174
148 148 148
145 145 145
163 163 163
175 175 175
181 181 181
198 198 198
202 202 202
223 223 223
231 231 231
211 211 211
185 185 185
181 181 181
195 195 195
196 196 196
184 184 184
163 163 163
163 163 163
159 159 159
151 151 151
147 147 147
154 154 154
165 165 165
178 178 178
180 180 180
171 171 171
167 167 167
188 188 188
201 201 201
199 199 199
184 184 184
162 162 162
184 184 184
204 204 204
211 211 211
200 200 200
179 179 179
153 153 153
163 163 163
188 188 188
206 206 206
211 211 211
197 197 197
187 187 187
212 212 212
227 227 227
217 217 217
209 209 209
215 215 215
201 201 201
178 178 178
152 152 152
154 154 154
175 175 175
189 189 189
191 191 191
202 202 202
207 207 207
226 226 226
236 236 236
214 214 214
186 186 186
202 202 202
217 217 217
213 213 213
193 193 193
167 167 167
161 161 161
161 161 161
152 152 152
158 158 158
173 173 173
180 180 180
196 196 196
198 198 198
187 187 187
167 167 167
171 171 171
181 181 181
180 180 180
168 168 168
168 168 168
196 196 196
223 223 223
237 237 237
218 218 218
190 190 190
174 174 174
173 173 173
194 194 194
215 215 215
221 221 221
205 205 205
188 188 188
215 215 215
232 232 232
220 220 220
199 199 199
204 204 204
193 193 193
172 172 172
148 148 148
156 156 156
177 177 177
191 191 191
193 193 193
192 192 192
195 195 195
206 206 206
211 211 211
198 198 198
186 186 186
215 215 215
242 242 242
232 232 232
203 203 203
174 174 174
153 153 153
153 153 153
154 154 154
179 179 179
199 199 199
208 208 208
202 202 202
205 205 205
193 193 193
171 171 171
149 149 149
156 156 156
155 155 155
146 146 146
167 167 167
195 195 195
221 221 221
234 234 234
216 216 216
189 189 189
192 192 192
192 192 192
187 187 187
205 205 205
209 209 209
196 196 196
178 178 178
199 199 199
210 210 210
203 203 203
183 183 183
182 182 182
174 174 174
157 157 157
136 136 136
159 159 159
176 176 176
184 184 184
182 182 182
172 172 172
174 174 174
180 180 180
183 183 183
174 174 174
183 183 183
209 209 209
228 228 228
222 222 222
199 199 199
171 171 171
143 143 143
141 141 141
164 164 164
193 193 193
220 220 220
236 236 236
220 220 220
196 196 196
185 185 185
165 165 165
149 149 149
158 158 158
159 159 159
151 151 151
157 157 157
181 181 181
200 200 200
207 207 207
197 197 197
187 187 187
200 200 200
199 199 199
185 185 185
183 183 183
186 186 186
184 184 184
185 185 185
175 175 175
182 182 182
178 178 178
174 174 174
173 173 173
162 162 162
158 158 158
147 147 147
178 178 178
200 200 200
213 213 213
207 207 207
187 187 187
162 162 162
152 152 152
154 154 154
147 147 147
168 168 168
189 189 189
200 200 200
197 197 197
181 181 181
159 159 159
143 143 143
163 163 163
177 177 177
194 194 194
222 222 222
241 241 241
222 222 222
194 194 194
167 167 167
153 153 153
173 173 173
186 186 186
187 187 187
176 176 176
157 157 157
167 167 167
177 177 177
178 178 178
171 171 171
181 181 181
193 193 193
192 192 192
179 179 179
169 169 169
194 194 194
212 212 212
213 213 213
197 197 197
173 173 173
159 159 159
167 167 167
168 168 168
176 176 176
173 173 173
160 160 160
189 189 189
217 217 217
239 239 239
227 227 227
199 199 199
171 171 171
141 141 141
134 134 134
127 127 127
148 148 148
163 163 163
171 171 171
169 169 169
158 158 158
146 146 146
157 157 157
181 181 181
199 199 199
205 205 205
203 203 203
212 212 212
203 203 203
182 182 182
157 157 157
168 168 168
193 193 193
211 211 211
212 212 212
197 197 197
173 173 173
191 191 191
204 204 204
202 202 202
186 186 186
178 178 178
175 175 175
174 174 174
164 164 164
178 178 178
207 207 207
234 234 234
237 237 237
211 211 211
182 182 182
153 153 153
157 157 157
174 174 174
182 182 182
179 179 179
165 165 165
187 187 187
214 214 214
233 233 233
223 223 223
197 197 197
169 169 169
163 163 163
162 162 162
151 151 151
134 134 134
136 136 136
142 142 142
151 151 151
167 167 167
175 175 175
172 172 172
189 189 189
211 211 211
219 219 219
206 206 206
188 188 188
177 177 177
162 162 162
166 166 166
180 180 180
202 202 202
226 226 226
228 228 228
207 207 207
180 180 180
207 207 207
227 227 227
224 224 224
201 201 201
198 198 198
183 183 183
161 161 161
147 147 147
176 176 176
204 204 204
228 228 228
230 230 230
207 207 207
180 180 180
151 151 151
153 153 153
169 169 169
177 177 177
174 174 174
161 161 161
174 174 174
194 194 194
205 205 205
200 200 200
182 182 182
179 179 179
189 189 189
187 187 187
173 173 173
153 153 153
145 145 145
152 152 152
171 171 171
192 192 192
204 204 204
200 200 200
185 185 185
205 205 205
211 211 211
200 200 200
187 187 187
174 174 174
168 168 168
188 188 188
200 200 200
197 197 197
216 216 216
218 218 218
201 201 201
180 180 180
207 207 207
228 228 228
224 224 224
209 209 209
207 207 207
190 190 190
166 166 166
163 163 163
164 164 164
187 187 187
202 202 202
203 203 203
189 189 189
167 167 167
142 142 142
142 142 142
156 156 156
162 162 162
159 159 159
149 149 149
153 153 153
169 169 169
176 176 176
173 173 173
174 174 174
197 197 197
211 211 211
207 207 207
189 189 189
165 165 165
161 161 161
169 169 169
184 184 184
211 211 211
231 231 231
223 223 223
199 199 199
185 185 185
190 190 190
182 182 182
186 186 186
190 190 190
182 182 182
204 204 204
221 221 221
216 216 216
195 195 195
194 194 194
182 182 182
170 170 170
192 192 192
206 206 206
204 204 204
202 202 202
208 208 208
197 197 197
176 176 176
187 187 187
188 188 188
177 177 177
178 178 178
174 174 174
165 165 165
148 148 148
157 157 157
160 160 160
157 157 157
159 159 159
151 151 151
147 147 147
129 129 129
142 142 142
147 147 147
162 162 162
178 178 178
202 202 202
218 218 218
214 214 214
194 194 194
168 168 168
170 170 170
179 179 179
186 186 186
215 215 215
238 238 238
228 228 228
201 201 201
173 173 173
164 164 164
190 190 190
212 212 212
219 219 219
205 205 205
204 204 204
222 222 222
217 217 217
196 196 196
169 169 169
158 158 158
152 152 152
169 169 169
178 178 178
194 194 194
217 217 217
226 226 226
210 210 210
189 189 189
205 205 205
207 207 207
192 192 192
174 174 174
170 170 170
157 157 157
168 168 168
183 183 183
188 188 188
180 180 180
172 172 172
163 163 163
147 147 147
127 127 127
133 133 133
156 156 156
182 182 182
203 203 203
212 212 212
205 205 205
202 202 202
185 185 185
162 162 162
169 169 169
178 178 178
176 176 176
199 199 199
213 213 213
208 208 208
189 189 189
164 164 164
171 171 171
200 200 200
228 228 228
244 244 244
219 219 219
190 190 190
202 202 202
199 199 199
183 183 183
162 162 162
169 169 169
165 165 165
153 153 153
164 164 164
191 191 191
212 212 212
220 220 220
206 206 206
192 192 192
210 210 210
211 211 211
195 195 195
172 172 172
157 157 157
161 161 161
186 186 186
206 206 206
213 213 213
202 202 202
180 180 180
166 166 166
149 149 149
122 122 122
148 148 148
173 173 173
194 194 194
220 220 220
237 237 237
221 221 221
193 193 193
167 167 167
148 148 148
159 159 159
166 166 166
165 165 165
176 176 176
185 185 185
182 182 182
170 170 170
163 163 163
167 167 167
195 195 195
219 219 219
228 228 228
211 211 211
185 185 185
176 176 176
174 174 174
162 162 162
178 178 178
186 186 186
182 182 182
168 168 168
153 153 153
176 176 176
192 192 192
197 197 197
188 188 188
182 182 182
196 196 196
198 198 198
185 185 185
164 164 164
147 147 147
166 166 166
194 194 194
219 219 219
229 229 229
213 213 213
187 187 187
160 160 160
144 144 144
136 136 136
157 157 157
184 184 184
210 210 210
227 227 227
233 233 233
218 218 218
192 192 192
164 164 164
135 135 135
141 141 141
148 148 148
160 160 160
168 168 168
166 166 166
174 174 174
178 178 178
170 170 170
159 159 159
178 178 178
195 195 195
199 199 199
190 190 190
170 170 170
148 148 148
147 147 147
167 167 167
185 185 185
194 194 194
189 189 189
173 173 173
163 163 163
158 158 158
167 167 167
170 170 170
163 163 163
163 163 163
174 174 174
175 175 175
165 165 165
162 162 162
156 156 156
172 172 172
188 188 188
210 210 210
217 217 217
205 205 205
182 182 182
155 155 155
132 132 132
160 160 160
175 175 175
184 184 184
209 209 209
225 225 225
236 236 236
220 220 220
193 193 193
164 164 164
135 135 135
132 132 132
154 154 154
171 171 171
180 180 180
177 177 177
171 171 171
178 178 178
184 184 184
184 184 184
175 175 175
167 167 167
170 170 170
169 169 169
162 162 162
147 147 147
140 140 140
163 163 163
180 180 180
188 188 188
184 184 184
174 174 174
175 175 175
176 176 176
169 169 169
153 153 153
137 137 137
152 152 152
162 162 162
162 162 162
165 165 165
162 162 162
170 170 170
190 190 190
200 200 200
195 195 195
193 193 193
184 184 184
166 166 166
143 143 143
139 139 139
180 180 180
200 200 200
208 208 208
200 200 200
214 214 214
219 219 219
203 203 203
181 181 181
164 164 164
146 146 146
132 132 132
154 154 154
171 171 171
180 180 180
178 178 178
174 174 174
192 192 192
201 201 201
204 204 204
192 192 192
170 170 170
159 159 159
161 161 161
155 155 155
140 140 140
133 133 133
150 150 150
165 165 165
171 171 171
168 168 168
176 176 176
182 182 182
186 186 186
178 178 178
161 161 161
157 157 157
177 177 177
190 190 190
190 190 190
179 179 179
159 159 159
176 176 176
197 197 197
209 209 209
214 214 214
206 206 206
185 185 185
160 160 160
132 132 132
155 155 155
191 191 191
217 217 217
231 231 231
217 217 217
225 225 225
232 232 232
211 211 211
201 201 201
184 184 184
161 161 161
136 136 136
146 146 146
162 162 162
170 170 170
170 170 170
175 175 175
194 194 194
209 209 209
212 212 212
198 198 198
175 175 175
148 148 148
146 146 146
140 140 140
133 133 133
155 155 155
172 172 172
180 180 180
178 178 178
174 174 174
182 182 182
180 180 180
184 184 184
176 176 176
159 159 159
172 172 172
197 197 197
216 216 216
217 217 217
199 199 199
174 174 174
171 171 171
191 191 191
215 215 215
231 231 231
219 219 219
194 194 194
166 166 166
137 137 137
163 163 163
190 190 190
215 215 215
228 228 228
215 215 215
211 211 211
216 216 216
221 221 221
217 217 217
196 196 196
170 170 170
142 142 142
133 133 133
155 155 155
171 171 171
179 179 179
176 176 176
183 183 183
199 199 199
202 202 202
190 190 190
169 169 169
144 144 144
125 125 125
120 120 120
147 147 147
172 172 172
193 193 193
205 205 205
202 202 202
184 184 184
186 186 186
182 182 182
170 170 170
164 164 164
149 149 149
178 178 178
207 207 207
232 232 232
234 234 234
209 209 209
181 181 181
157 157 157
184 184 184
207 207 207
220 220 220
211 211 211
188 188 188
162 162 162
149 149 149
162 162 162
177 177 177
196 196 196
203 203 203
196 196 196
187 187 187
201 201 201
217 217 217
214 214 214
194 194 194
168 168 168
141 141 141
132 132 132
153 153 153
169 169 169
177 177 177
174 174 174
166 166 166
178 178 178
180 180 180
171 171 171
154 154 154
132 132 132
113 113 113
127 127 127
153 153 153
181 181 181
206 206 206
222 222 222
217 217 217
195 195 195
178 178 178
174 174 174
161 161 161
163 163 163
175 175 175
177 177 177
199 199 199
219 219 219
220 220 220
201 201 201
176 176 176
148 148 148
169 169 169
187 187 187
195 195 195
189 189 189
172 172 172
152 152 152
167 167 167
174 174 174
156 156 156
170 170 170
176 176 176
170 170 170
165 165 165
185 185 185
196 196 196
194 194 194
179 179 179
157 157 157
132 132 132
135 135 135
144 144 144
158 158 158
165 165 165
163 163 163
151 151 151
153 153 153
154 154 154
147 147 147
134 134 134
115 115 115
118 118 118
137 137 137
153 153 153
178 178 178
202 202 202
217 217 217
212 212 212
192 192 192
166 166 166
158 158 158
160 160 160
183 183 183
199 199 199
203 203 203
191 191 191
193 193 193
194 194 194
182 182 182
161 161 161
138 138 138
159 159 159
175 175 175
181 181 181
176 176 176
174 174 174
163 163 163
178 178 178
186 186 186
136 136 136
143 143 143
147 147 147
143 143 143
146 146 146
162 162 162
170 170 170
169 169 169
158 158 158
140 140 140
136 136 136
152 152 152
162 162 162
162 162 162
154 154 154
144 144 144
134 134 134
142 142 142
147 147 147
145 145 145
137 137 137
136 136 136
127 127 127
140 140 140
157 157 157
166 166 166
185 185 185
196 196 196
192 192 192
177 177 177
156 156 156
149 149 149
168 168 168
195 195 195
216 216 216
222 222 222
205 205 205
180 180 180
166 166 166
157 157 157
141 141 141
154 154 154
179 179 179
199 199 199
209 209 209
203 203 203
192 192 192
173 173 173
178 178 178
186 186 186
141 141 141
145 145 145
142 142 142
151 151 151
161 161 161
165 165 165
168 168 168
161 161 161
147 147 147
127 127 127
145 145 145
163 163 163
174 174 174
175 175 175
165 165 165
148 148 148
138 138 138
146 146 146
151 151 151
153 153 153
161 161 161
159 159 159
149 149 149
135 135 135
151 151 151
160 160 160
162 162 162
169 169 169
168 168 168
180 180 180
181 181 181
171 171 171
167 167 167
193 193 193
214 214 214
219 219 219
204 204 204
179 179 179
168 168 168
159 159 159
147 147 147
162 162 162
190 190 190
216 216 216
232 232 232
231 231 231
212 212 212
186 186 186
167 167 167
174 174 174
138 138 138
142 142 142
150 150 150
170 170 170
182 182 182
184 184 184
188 188 188
179 179 179
162 162 162
139 139 139
147 147 147
165 165 165
176 176 176
177 177 177
168 168 168
150 150 150
163 163 163
168 168 168
163 163 163
172 172 172
181 181 181
179 179 179
166 166 166
147 147 147
139 139 139
147 147 147
147 147 147
162 162 162
184 184 184
199 199 199
200 200 200
187 187 187
166 166 166
179 179 179
195 195 195
199 199 199
188 188 188
171 171 171
172 172 172
176 176 176
176 176 176
165 165 165
189 189 189
214 214 214
229 229 229
241 241 241
217 217 217
188 188 188
159 159 159
155 155 155
128 128 128
134 134 134
159 159 159
181 181 181
195 195 195
197 197 197
198 198 198
188 188 188
169 169 169
145 145 145
157 157 157
166 166 166
168 168 168
169 169 169
160 160 160
167 167 167
184 184 184
190 190 190
184 184 184
182 182 182
192 192 192
190 190 190
176 176 176
155 155 155
130 130 130
127 127 127
140 140 140
166 166 166
189 189 189
206 206 206
207 207 207
193 193 193
170 170 170
158 158 158
170 170 170
172 172 172
165 165 165
166 166 166
189 189 189
204 204 204
203 203 203
189 189 189
176 176 176
195 195 195
209 209 209
215 215 215
202 202 202
179 179 179
152 152 152
140 140 140
112 112 112
134 134 134
159 159 159
181 181 181
195 195 195
198 198 198
194 194 194
185 185 185
166 166 166
146 146 146
164 164 164
174 174 174
174 174 174
163 163 163
153 153 153
177 177 177
197 197 197
205 205 205
197 197 197
181 181 181
191 191 191
189 189 189
175 175 175
154 154 154
129 129 129
112 112 112
135 135 135
160 160 160
182 182 182
196 196 196
198 198 198
185 185 185
164 164 164
147 147 147
143 143 143
144 144 144
149 149 149
177 177 177
205 205 205
227 227 227
227 227 227
204 204 204
177 177 177
170 170 170
183 183 183
186 186 186
178 178 178
160 160 160
158 158 158
168 168 168
111 111 111
127 127 127
150 150 150
170 170 170
182 182 182
196 196 196
206 206 206
200 200 200
182 182 182
162 162 162
175 175 175
179 179 179
171 171 171
161 161 161
153 153 153
177 177 177
196 196 196
204 204 204
196 196 196
177 177 177
178 178 178
176 176 176
164 164 164
145 145 145
142 142 142
135 135 135
124 124 124
147 147 147
165 165 165
182 182 182
198 198 198
200 200 200
188 188 188
167 167 167
143 143 143
132 132 132
150 150 150
178 178 178
206 206 206
229 229 229
229 229 229
205 205 205
178 178 178
149 149 149
154 154 154
157 157 157
151 151 151
160 160 160
181 181 181
194 194 194
127 127 127
144 144 144
155 155 155
158 158 158
182 182 182
206 206 206
220 220 220
212 212 212
190 190 190
172 172 172
187 187 187
191 191 191
182 182 182
164 164 164
144 144 144
166 166 166
182 182 182
188 188 188
182 182 182
166 166 166
157 157 157
156 156 156
154 154 154
161 161 161
162 162 162
154 154 154
138 138 138
144 144 144
172 172 172
199 199 199
222 222 222
227 227 227
207 207 207
181 181 181
153 153 153
143 143 143
142 142 142
168 168 168
191 191 191
207 207 207
206 206 206
191 191 191
180 180 180
172 172 172
155 155 155
137 137 137
144 144 144
171 171 171
196 196 196
214 214 214
136 136 136
155 155 155
168 168 168
172 172 172
178 178 178
200 200 200
212 212 212
205 205 205
185 185 185
172 172 172
187 187 187
191 191 191
182 182 182
164 164 164
141 141 141
148 148 148
161 161 161
165 165 165
161 161 161
148 148 148
161 161 161
177 177 177
184 184 184
179 179 179
176 176 176
166 166 166
149 149 149
155 155 155
175 175 175
203 203 203
230 230 230
236 236 236
212 212 212
184 184 184
161 161 161
165 165 165
160 160 160
150 150 150
169 169 169
179 179 179
182 182 182
199 199 199
203 203 203
192 192 192
172 172 172
165 165 165
172 172 172
173 173 173
199 199 199
218 218 218
139 139 139
159 159 159
172 172 172
176 176 176
169 169 169
182 182 182
190 190 190
185 185 185
170 170 170
163 163 163
176 176 176
179 179 179
171 171 171
155 155 155
133 133 133
139 139 139
153 153 153
160 160 160
158 158 158
155 155 155
181 181 181
202 202 202
213 213 213
205 205 205
184 184 184
170 170 170
161 161 161
178 178 178
185 185 185
192 192 192
211 211 211
214 214 214
199 199 199
175 175 175
176 176 176
182 182 182
176 176 176
161 161 161
143 143 143
165 165 165
191 191 191
212 212 212
218 218 218
203 203 203
180 180 180
191 191 191
201 201 201
195 195 195
187 187 187
202 202 202
135 135 135
153 153 153
166 166 166
169 169 169
163 163 163
158 158 158
164 164 164
160 160 160
149 149 149
145 145 145
156 156 156
159 159 159
152 152 152
139 139 139
141 141 141
157 157 157
169 169 169
177 177 177
174 174 174
163 163 163
192 192 192
221 221 221
242 242 242
224 224 224
196 196 196
167 167 167
174 174 174
194 194 194
203 203 203
197 197 197
184 184 184
186 186 186
176 176 176
167 167 167
183 183 183
189 189 189
183 183 183
166 166 166
156 156 156
175 175 175
187 187 187
206 206 206
212 212 212
199 199 199
187 187 187
213 213 213
230 230 230
219 219 219
194 194 194
177 177 177
