P3
50 50
255
148 148 148
176 176 176
202 202 202
221 221 221
220 220 220
200 200 200
174 174 174
159 159 159
155 155 155
143 143 143
125 125 125
121 121 121
123 123 123
129 129 129
146 146 146
171 171 171
193 193 193
205 205 205
201 201 201
183 183 183
160 160 160
134 134 134
128 128 128
125 125 125
120 120 120
137 137 137
162 162 162
187 187 187
207 207 207
212 212 212
200 200 200
178 178 178
152 152 152
124 124 124
118 118 118
113 113 113
136 136 136
156 156 156
171 171 171
176 176 176
171 171 171
171 171 171
163 163 163
148 148 148
127 127 127
125 125 125
141 141 141
151 151 151
153 153 153
147 147 147
146 146 146
174 174 174
199 199 199
217 217 217
217 217 217
198 198 198
181 181 181
188 188 188
182 182 182
166 166 166
144 144 144
145 145 145
148 148 148
142 142 142
150 150 150
168 168 168
188 188 188
199 199 199
196 196 196
180 180 180
157 157 157
151 151 151
156 156 156
153 153 153
142 142 142
147 147 147
162 162 162
187 187 187
206 206 206
212 212 212
200 200 200
178 178 178
152 152 152
145 145 145
141 141 141
130 130 130
153 153 153
177 177 177
197 197 197
205 205 205
197 197 197
180 180 180
171 171 171
155 155 155
133 133 133
133 133 133
151 151 151
162 162 162
165 165 165
158 158 158
138 138 138
162 162 162
183 183 183
196 196 196
196 196 196
183 183 183
205 205 205
216 216 216
206 206 206
184 184 184
159 159 159
166 166 166
169 169 169
162 162 162
156 156 156
157 157 157
173 173 173
182 182 182
179 179 179
166 166 166
161 161 161
177 177 177
184 184 184
180 180 180
165 165 165
163 163 163
164 164 164
175 175 175
191 191 191
195 195 195
186 186 186
167 167 167
170 170 170
168 168 168
160 160 160
148 148 148
163 163 163
191 191 191
217 217 217
232 232 232
218 218 218
192 192 192
169 169 169
153 153 153
138 138 138
135 135 135
153 153 153
165 165 165
167 167 167
160 160 160
124 124 124
144 144 144
161 161 161
170 170 170
170 170 170
192 192 192
220 220 220
236 236 236
220 220 220
193 193 193
167 167 167
180 180 180
184 184 184
176 176 176
159 159 159
158 158 158
172 172 172
177 177 177
170 170 170
155 155 155
178 178 178
199 199 199
210 210 210
203 203 203
183 183 183
192 192 192
189 189 189
174 174 174
167 167 167
171 171 171
168 168 168
188 188 188
199 199 199
195 195 195
179 179 179
159 159 159
164 164 164
193 193 193
220 220 220
238 238 238
221 221 221
194 194 194
165 165 165
164 164 164
167 167 167
160 160 160
147 147 147
158 158 158
161 161 161
154 154 154
135 135 135
138 138 138
135 135 135
142 142 142
161 161 161
188 188 188
212 212 212
225 225 225
213 213 213
189 189 189
170 170 170
185 185 185
188 188 188
180 180 180
162 162 162
180 180 180
199 199 199
206 206 206
196 196 196
176 176 176
186 186 186
212 212 212
226 226 226
216 216 216
205 205 205
221 221 221
215 215 215
193 193 193
167 167 167
155 155 155
183 183 183
208 208 208
225 225 225
219 219 219
196 196 196
169 169 169
156 156 156
182 182 182
203 203 203
212 212 212
203 203 203
182 182 182
176 176 176
192 192 192
196 196 196
186 186 186
166 166 166
144 144 144
146 146 146
140 140 140
145 145 145
143 143 143
138 138 138
126 126 126
149 149 149
173 173 173
191 191 191
198 198 198
191 191 191
174 174 174
169 169 169
177 177 177
180 180 180
172 172 172
167 167 167
195 195 195
222 222 222
235 235 235
217 217 217
190 190 190
183 183 183
206 206 206
218 218 218
210 210 210
217 217 217
245 245 245
231 231 231
202 202 202
173 173 173
157 157 157
186 186 186
214 214 214
237 237 237
227 227 227
200 200 200
173 173 173
160 160 160
162 162 162
177 177 177
183 183 183
178 178 178
167 167 167
194 194 194
216 216 216
223 223 223
207 207 207
182 182 182
154 154 154
129 129 129
141 141 141
158 158 158
154 154 154
142 142 142
125 125 125
132 132 132
151 151 151
165 165 165
170 170 170
165 165 165
172 172 172
193 193 193
205 205 205
202 202 202
185 185 185
168 168 168
197 197 197
226 226 226
243 243 243
221 221 221
192 192 192
168 168 168
186 186 186
195 195 195
189 189 189
209 209 209
226 226 226
219 219 219
196 196 196
169 169 169
165 165 165
178 178 178
201 201 201
215 215 215
210 210 210
190 190 190
169 169 169
169 169 169
173 173 173
167 167 167
154 154 154
150 150 150
172 172 172
200 200 200
227 227 227
238 238 238
215 215 215
187 187 187
158 158 158
141 141 141
153 153 153
163 163 163
159 159 159
147 147 147
149 149 149
153 153 153
149 149 149
137 137 137
141 141 141
156 156 156
184 184 184
211 211 211
232 232 232
225 225 225
200 200 200
172 172 172
185 185 185
206 206 206
214 214 214
203 203 203
181 181 181
155 155 155
162 162 162
167 167 167
168 168 168
187 187 187
198 198 198
194 194 194
184 184 184
193 193 193
188 188 188
173 173 173
179 179 179
188 188 188
184 184 184
170 170 170
177 177 177
195 195 195
201 201 201
193 193 193
173 173 173
149 149 149
166 166 166
192 192 192
213 213 213
219 219 219
204 204 204
180 180 180
153 153 153
153 153 153
158 158 158
159 159 159
155 155 155
159 159 159
174 174 174
179 179 179
174 174 174
159 159 159
139 139 139
156 156 156
185 185 185
213 213 213
236 236 236
228 228 228
201 201 201
173 173 173
165 165 165
180 180 180
185 185 185
178 178 178
162 162 162
153 153 153
157 157 157
152 152 152
153 153 153
161 161 161
168 168 168
177 177 177
199 199 199
211 211 211
205 205 205
185 185 185
161 161 161
159 159 159
157 157 157
164 164 164
191 191 191
216 216 216
227 227 227
212 212 212
187 187 187
160 160 160
151 151 151
173 173 173
187 187 187
191 191 191
182 182 182
163 163 163
169 169 169
170 170 170
162 162 162
147 147 147
152 152 152
175 175 175
194 194 194
202 202 202
195 195 195
176 176 176
152 152 152
149 149 149
175 175 175
197 197 197
211 211 211
206 206 206
188 188 188
164 164 164
157 157 157
174 174 174
184 184 184
181 181 181
168 168 168
178 178 178
183 183 183
177 177 177
169 169 169
169 169 169
158 158 158
179 179 179
201 201 201
213 213 213
207 207 207
187 187 187
162 162 162
148 148 148
145 145 145
166 166 166
194 194 194
220 220 220
233 233 233
216 216 216
190 190 190
161 161 161
142 142 142
149 149 149
160 160 160
162 162 162
156 156 156
167 167 167
178 178 178
179 179 179
170 170 170
130 130 130
157 157 157
183 183 183
205 205 205
215 215 215
206 206 206
184 184 184
158 158 158
134 134 134
156 156 156
173 173 173
189 189 189
201 201 201
199 199 199
182 182 182
171 171 171
193 193 193
206 206 206
202 202 202
185 185 185
197 197 197
204 204 204
196 196 196
177 177 177
176 176 176
165 165 165
169 169 169
188 188 188
198 198 198
193 193 193
176 176 176
163 163 163
170 170 170
167 167 167
158 158 158
183 183 183
204 204 204
211 211 211
201 201 201
180 180 180
179 179 179
168 168 168
150 150 150
148 148 148
160 160 160
165 165 165
167 167 167
176 176 176
177 177 177
168 168 168
128 128 128
155 155 155
179 179 179
200 200 200
209 209 209
200 200 200
180 180 180
155 155 155
131 131 131
153 153 153
181 181 181
208 208 208
227 227 227
221 221 221
198 198 198
177 177 177
201 201 201
216 216 216
212 212 212
192 192 192
205 205 205
214 214 214
204 204 204
182 182 182
173 173 173
162 162 162
165 165 165
180 180 180
186 186 186
180 180 180
176 176 176
179 179 179
186 186 186
182 182 182
168 168 168
164 164 164
179 179 179
184 184 184
190 190 190
205 205 205
206 206 206
191 191 191
168 168 168
156 156 156
170 170 170
174 174 174
168 168 168
169 169 169
165 165 165
157 157 157
119 119 119
144 144 144
165 165 165
182 182 182
188 188 188
182 182 182
175 175 175
160 160 160
139 139 139
155 155 155
184 184 184
211 211 211
233 233 233
226 226 226
201 201 201
173 173 173
194 194 194
207 207 207
203 203 203
186 186 186
197 197 197
205 205 205
196 196 196
176 176 176
160 160 160
151 151 151
152 152 152
165 165 165
170 170 170
184 184 184
202 202 202
207 207 207
195 195 195
188 188 188
172 172 172
151 151 151
152 152 152
177 177 177
204 204 204
227 227 227
227 227 227
205 205 205
178 178 178
156 156 156
169 169 169
174 174 174
168 168 168
160 160 160
162 162 162
158 158 158
105 105 105
127 127 127
145 145 145
161 161 161
177 177 177
183 183 183
177 177 177
162 162 162
141 141 141
148 148 148
174 174 174
197 197 197
211 211 211
207 207 207
189 189 189
171 171 171
179 179 179
185 185 185
183 183 183
169 169 169
178 178 178
183 183 183
177 177 177
161 161 161
147 147 147
153 153 153
151 151 151
145 145 145
170 170 170
198 198 198
223 223 223
232 232 232
212 212 212
185 185 185
166 166 166
155 155 155
165 165 165
176 176 176
203 203 203
225 225 225
226 226 226
204 204 204
177 177 177
149 149 149
159 159 159
163 163 163
162 162 162
178 178 178
185 185 185
181 181 181
95 95 95
118 118 118
138 138 138
154 154 154
168 168 168
173 173 173
168 168 168
154 154 154
147 147 147
139 139 139
156 156 156
174 174 174
183 183 183
181 181 181
173 173 173
195 195 195
208 208 208
204 204 204
186 186 186
162 162 162
154 154 154
158 158 158
153 153 153
150 150 150
166 166 166
173 173 173
171 171 171
159 159 159
173 173 173
198 198 198
224 224 224
233 233 233
213 213 213
186 186 186
165 165 165
179 179 179
194 194 194
196 196 196
188 188 188
203 203 203
203 203 203
189 189 189
166 166 166
141 141 141
142 142 142
150 150 150
174 174 174
194 194 194
203 203 203
197 197 197
110 110 110
130 130 130
146 146 146
155 155 155
156 156 156
155 155 155
158 158 158
166 166 166
165 165 165
155 155 155
162 162 162
184 184 184
198 198 198
198 198 198
186 186 186
214 214 214
236 236 236
227 227 227
201 201 201
173 173 173
149 149 149
133 133 133
138 138 138
160 160 160
178 178 178
187 187 187
183 183 183
170 170 170
178 178 178
185 185 185
203 203 203
208 208 208
196 196 196
176 176 176
192 192 192
198 198 198
220 220 220
224 224 224
206 206 206
180 180 180
176 176 176
166 166 166
150 150 150
145 145 145
133 133 133
151 151 151
176 176 176
197 197 197
207 207 207
200 200 200
127 127 127
150 150 150
169 169 169
181 181 181
183 183 183
173 173 173
168 168 168
177 177 177
176 176 176
164 164 164
176 176 176
203 203 203
225 225 225
225 225 225
204 204 204
215 215 215
239 239 239
229 229 229
202 202 202
183 183 183
170 170 170
151 151 151
139 139 139
161 161 161
179 179 179
188 188 188
185 185 185
177 177 177
181 181 181
178 178 178
176 176 176
179 179 179
171 171 171
193 193 193
217 217 217
227 227 227
234 234 234
243 243 243
215 215 215
186 186 186
159 159 159
173 173 173
177 177 177
171 171 171
155 155 155
157 157 157
168 168 168
186 186 186
195 195 195
189 189 189
138 138 138
164 164 164
187 187 187
204 204 204
206 206 206
192 192 192
170 170 170
177 177 177
176 176 176
164 164 164
180 180 180
209 209 209
237 237 237
239 239 239
210 210 210
198 198 198
211 211 211
207 207 207
204 204 204
202 202 202
185 185 185
162 162 162
162 162 162
176 176 176
181 181 181
186 186 186
179 179 179
189 189 189
193 193 193
184 184 184
166 166 166
169 169 169
170 170 170
199 199 199
229 229 229
250 250 250
221 221 221
222 222 222
204 204 204
179 179 179
177 177 177
195 195 195
201 201 201
192 192 192
173 173 173
184 184 184
186 186 186
176 176 176
173 173 173
169 169 169
142 142 142
170 170 170
195 195 195
215 215 215
217 217 217
201 201 201
176 176 176
167 167 167
166 166 166
156 156 156
173 173 173
198 198 198
217 217 217
217 217 217
199 199 199
174 174 174
182 182 182
196 196 196
210 210 210
207 207 207
189 189 189
168 168 168
183 183 183
202 202 202
209 209 209
206 206 206
196 196 196
188 188 188
192 192 192
183 183 183
181 181 181
191 191 191
188 188 188
191 191 191
214 214 214
223 223 223
209 209 209
193 193 193
182 182 182
173 173 173
187 187 187
208 208 208
216 216 216
204 204 204
191 191 191
209 209 209
213 213 213
198 198 198
175 175 175
148 148 148
139 139 139
166 166 166
189 189 189
207 207 207
209 209 209
194 194 194
172 172 172
149 149 149
148 148 148
141 141 141
158 158 158
177 177 177
189 189 189
189 189 189
177 177 177
158 158 158
166 166 166
187 187 187
198 198 198
196 196 196
203 203 203
194 194 194
196 196 196
222 222 222
235 235 235
216 216 216
208 208 208
186 186 186
179 179 179
171 171 171
192 192 192
204 204 204
201 201 201
184 184 184
188 188 188
193 193 193
185 185 185
167 167 167
156 156 156
171 171 171
184 184 184
204 204 204
212 212 212
201 201 201
201 201 201
225 225 225
230 230 230
209 209 209
182 182 182
169 169 169
129 129 129
153 153 153
173 173 173
186 186 186
187 187 187
177 177 177
159 159 159
144 144 144
150 150 150
153 153 153
172 172 172
185 185 185
186 186 186
175 175 175
157 157 157
136 136 136
151 151 151
168 168 168
193 193 193
217 217 217
229 229 229
214 214 214
196 196 196
222 222 222
233 233 233
240 240 240
224 224 224
196 196 196
167 167 167
170 170 170
191 191 191
202 202 202
199 199 199
182 182 182
160 160 160
164 164 164
158 158 158
144 144 144
146 146 146
162 162 162
171 171 171
187 187 187
192 192 192
184 184 184
196 196 196
216 216 216
220 220 220
203 203 203
178 178 178
193 193 193
113 113 113
134 134 134
150 150 150
164 164 164
177 177 177
179 179 179
171 171 171
155 155 155
160 160 160
165 165 165
178 178 178
191 191 191
193 193 193
181 181 181
161 161 161
141 141 141
138 138 138
167 167 167
195 195 195
221 221 221
235 235 235
217 217 217
190 190 190
201 201 201
213 213 213
227 227 227
216 216 216
192 192 192
164 164 164
159 159 159
177 177 177
186 186 186
183 183 183
170 170 170
150 150 150
143 143 143
143 143 143
140 140 140
165 165 165
186 186 186
198 198 198
197 197 197
182 182 182
161 161 161
178 178 178
193 193 193
196 196 196
184 184 184
192 192 192
211 211 211
105 105 105
123 123 123
147 147 147
167 167 167
180 180 180
183 183 183
174 174 174
157 157 157
163 163 163
167 167 167
172 172 172
185 185 185
186 186 186
175 175 175
160 160 160
140 140 140
132 132 132
159 159 159
184 184 184
204 204 204
211 211 211
201 201 201
179 179 179
175 175 175
191 191 191
200 200 200
194 194 194
176 176 176
159 159 159
163 163 163
158 158 158
163 163 163
161 161 161
150 150 150
156 156 156
165 165 165
165 165 165
155 155 155
177 177 177
203 203 203
221 221 221
219 219 219
198 198 198
172 172 172
177 177 177
188 188 188
186 186 186
173 173 173
193 193 193
212 212 212
133 133 133
135 135 135
141 141 141
160 160 160
172 172 172
175 175 175
167 167 167
151 151 151
156 156 156
160 160 160
158 158 158
168 168 168
169 169 169
163 163 163
151 151 151
133 133 133
119 119 119
143 143 143
164 164 164
179 179 179
183 183 183
177 177 177
161 161 161
151 151 151
165 165 165
171 171 171
167 167 167
154 154 154
157 157 157
161 161 161
156 156 156
143 143 143
147 147 147
153 153 153
171 171 171
182 182 182
181 181 181
170 170 170
179 179 179
206 206 206
227 227 227
224 224 224
201 201 201
174 174 174
194 194 194
208 208 208
206 206 206
189 189 189
181 181 181
196 196 196
160 160 160
164 164 164
157 157 157
145 145 145
156 156 156
158 158 158
152 152 152
138 138 138
141 141 141
145 145 145
140 140 140
146 146 146
148 148 148
145 145 145
135 135 135
119 119 119
110 110 110
123 123 123
140 140 140
151 151 151
155 155 155
150 150 150
137 137 137
128 128 128
138 138 138
142 142 142
139 139 139
136 136 136
147 147 147
150 150 150
145 145 145
135 135 135
138 138 138
157 157 157
177 177 177
188 188 188
187 187 187
175 175 175
171 171 171
193 193 193
208 208 208
206 206 206
189 189 189
174 174 174
198 198 198
214 214 214
211 211 211
193 193 193
175 175 175
173 173 173
186 186 186
191 191 191
182 182 182
164 164 164
142 142 142
136 136 136
131 131 131
119 119 119
122 122 122
125 125 125
121 121 121
122 122 122
126 126 126
123 123 123
115 115 115
116 116 116
120 120 120
140 140 140
156 156 156
164 164 164
163 163 163
154 154 154
137 137 137
129 129 129
139 139 139
142 142 142
138 138 138
126 126 126
130 130 130
133 133 133
129 129 129
121 121 121
143 143 143
162 162 162
174 174 174
182 182 182
182 182 182
170 170 170
183 183 183
199 199 199
202 202 202
190 190 190
169 169 169
174 174 174
193 193 193
201 201 201
199 199 199
199 199 199
195 195 195
178 178 178
207 207 207
214 214 214
202 202 202
179 179 179
153 153 153
138 138 138
143 143 143
140 140 140
130 130 130
114 114 114
100 100 100
104 104 104
103 103 103
99 99 99
109 109 109
120 120 120
133 133 133
156 156 156
174 174 174
185 185 185
184 184 184
172 172 172
152 152 152
150 150 150
162 162 162
166 166 166
160 160 160
149 149 149
142 142 142
128 128 128
117 117 117
136 136 136
159 159 159
182 182 182
199 199 199
203 203 203
191 191 191
171 171 171
190 190 190
209 209 209
212 212 212
198 198 198
175 175 175
184 184 184
207 207 207
219 219 219
209 209 209
208 208 208
203 203 203
187 187 187
216 216 216
224 224 224
209 209 209
184 184 184
157 157 157
161 161 161
167 167 167
163 163 163
151 151 151
132 132 132
110 110 110
91 91 91
106 106 106
117 117 117
121 121 121
120 120 120
139 139 139
164 164 164
185 185 185
197 197 197
196 196 196
182 182 182
160 160 160
166 166 166
181 181 181
185 185 185
178 178 178
178 178 178
168 168 168
151 151 151
128 128 128
148 148 148
167 167 167
193 193 193
215 215 215
221 221 221
205 205 205
180 180 180
185 185 185
202 202 202
204 204 204
192 192 192
170 170 170
182 182 182
205 205 205
216 216 216
207 207 207
201 201 201
196 196 196
193 193 193
204 204 204
211 211 211
199 199 199
177 177 177
162 162 162
179 179 179
186 186 186
181 181 181
166 166 166
145 145 145
121 121 121
103 103 103
119 119 119
131 131 131
136 136 136
135 135 135
139 139 139
163 163 163
184 184 184
196 196 196
195 195 195
181 181 181
159 159 159
174 174 174
190 190 190
196 196 196
206 206 206
207 207 207
192 192 192
169 169 169
143 143 143
153 153 153
170 170 170
192 192 192
212 212 212
218 218 218
203 203 203
179 179 179
173 173 173
192 192 192
201 201 201
195 195 195
178 178 178
170 170 170
188 188 188
196 196 196
190 190 190
181 181 181
178 178 178
185 185 185
210 210 210
220 220 220
208 208 208
185 185 185
169 169 169
188 188 188
196 196 196
191 191 191
174 174 174
151 151 151
126 126 126
109 109 109
127 127 127
139 139 139
145 145 145
143 143 143
134 134 134
153 153 153
171 171 171
181 181 181
180 180 180
169 169 169
160 160 160
171 171 171
187 187 187
206 206 206
231 231 231
234 234 234
209 209 209
181 181 181
152 152 152
149 149 149
166 166 166
178 178 178
194 194 194
197 197 197
187 187 187
167 167 167
180 180 180
201 201 201
213 213 213
205 205 205
185 185 185
160 160 160
165 165 165
172 172 172
185 185 185
187 187 187
177 177 177
188 188 188
226 226 226
248 248 248
223 223 223
193 193 193
167 167 167
185 185 185
193 193 193
187 187 187
171 171 171
149 149 149
124 124 124
111 111 111
128 128 128
141 141 141
147 147 147
149 149 149
151 151 151
145 145 145
152 152 152
160 160 160
159 159 159
168 168 168
177 177 177
175 175 175
178 178 178
207 207 207
233 233 233
236 236 236
210 210 210
181 181 181
152 152 152
145 145 145
153 153 153
160 160 160
169 169 169
171 171 171
164 164 164
173 173 173
175 175 175
196 196 196
206 206 206
199 199 199
185 185 185
172 172 172
164 164 164
188 188 188
205 205 205
207 207 207
193 193 193
197 197 197
217 217 217
230 230 230
215 215 215
189 189 189
161 161 161
170 170 170
177 177 177
173 173 173
159 159 159
140 140 140
133 133 133
127 127 127
136 136 136
142 142 142
161 161 161
174 174 174
177 177 177
169 169 169
154 154 154
137 137 137
157 157 157
175 175 175
185 185 185
183 183 183
170 170 170
192 192 192
209 209 209
210 210 210
194 194 194
171 171 171
158 158 158
148 148 148
144 144 144
140 140 140
142 142 142
146 146 146
164 164 164
175 175 175
176 176 176
178 178 178
200 200 200
215 215 215
212 212 212
192 192 192
167 167 167
192 192 192
211 211 211
213 213 213
198 198 198
192 192 192
194 194 194
200 200 200
192 192 192
173 173 173
149 149 149
152 152 152
155 155 155
152 152 152
143 143 143
143 143 143
135 135 135
152 152 152
163 163 163
166 166 166
178 178 178
195 195 195
199 199 199
189 189 189
170 170 170
154 154 154
176 176 176
191 191 191
194 194 194
184 184 184
166 166 166
169 169 169
180 180 180
181 181 181
189 189 189
184 184 184
169 169 169
165 165 165
157 157 157
141 141 141
121 121 121
140 140 140
157 157 157
167 167 167
168 168 168
185 185 185
213 213 213
238 238 238
231 231 231
204 204 204
175 175 175
183 183 183
199 199 199
201 201 201
189 189 189
176 176 176
167 167 167
171 171 171
165 165 165
152 152 152
168 168 168
176 176 176
173 173 173
161 161 161
142 142 142
138 138 138
152 152 152
174 174 174
189 189 189
193 193 193
187 187 187
206 206 206
212 212 212
200 200 200
181 181 181
170 170 170
190 190 190
210 210 210
215 215 215
201 201 201
177 177 177
151 151 151
169 169 169
188 188 188
197 197 197
192 192 192
187 187 187
189 189 189
178 178 178
159 159 159
136 136 136
127 127 127
142 142 142
151 151 151
153 153 153
181 181 181
208 208 208
228 228 228
223 223 223
199 199 199
172 172 172
165 165 165
177 177 177
179 179 179
169 169 169
155 155 155
138 138 138
142 142 142
142 142 142
166 166 166
185 185 185
195 195 195
192 192 192
176 176 176
154 154 154
136 136 136
164 164 164
189 189 189
210 210 210
216 216 216
202 202 202
202 202 202
207 207 207
196 196 196
196 196 196
182 182 182
192 192 192
213 213 213
219 219 219
203 203 203
179 179 179
152 152 152
164 164 164
182 182 182
191 191 191
188 188 188
205 205 205
207 207 207
193 193 193
171 171 171
145 145 145
122 122 122
139 139 139
151 151 151
157 157 157
168 168 168
188 188 188
200 200 200
198 198 198
182 182 182
160 160 160
163 163 163
172 172 172
170 170 170
166 166 166
163 163 163
109 109 109
119 119 119
146 146 146
171 171 171
192 192 192
203 203 203
199 199 199
182 182 182
159 159 159
139 139 139
167 167 167
194 194 194
216 216 216
224 224 224
208 208 208
191 191 191
207 207 207
206 206 206
197 197 197
183 183 183
182 182 182
198 198 198
202 202 202
191 191 191
170 170 170
150 150 150
163 163 163
168 168 168
173 173 173
190 190 190
208 208 208
210 210 210
195 195 195
172 172 172
146 146 146
135 135 135
154 154 154
167 167 167
172 172 172
166 166 166
163 163 163
172 172 172
170 170 170
159 159 159
167 167 167
188 188 188
201 201 201
199 199 199
183 183 183
162 162 162
104 104 104
117 117 117
143 143 143
166 166 166
186 186 186
196 196 196
192 192 192
177 177 177
155 155 155
134 134 134
160 160 160
185 185 185
203 203 203
208 208 208
197 197 197
201 201 201
221 221 221
221 221 221
201 201 201
175 175 175
162 162 162
175 175 175
178 178 178
169 169 169
156 156 156
156 156 156
170 170 170
176 176 176
170 170 170
189 189 189
199 199 199
196 196 196
184 184 184
164 164 164
140 140 140
141 141 141
161 161 161
176 176 176
181 181 181
174 174 174
159 159 159
143 143 143
141 141 141
154 154 154
181 181 181
208 208 208
229 229 229
225 225 225
201 201 201
173 173 173
129 129 129
133 133 133
132 132 132
153 153 153
169 169 169
177 177 177
175 175 175
162 162 162
143 143 143
122 122 122
146 146 146
166 166 166
180 180 180
197 197 197
210 210 210
205 205 205
214 214 214
214 214 214
196 196 196
171 171 171
147 147 147
148 148 148
156 156 156
175 175 175
186 186 186
185 185 185
173 173 173
172 172 172
173 173 173
194 194 194
204 204 204
199 199 199
181 181 181
158 158 158
131 131 131
139 139 139
160 160 160
174 174 174
178 178 178
172 172 172
157 157 157
136 136 136
139 139 139
155 155 155
185 185 185
214 214 214
242 242 242
234 234 234
206 206 206
176 176 176
157 157 157
162 162 162
159 159 159
149 149 149
151 151 151
153 153 153
151 151 151
141 141 141
142 142 142
137 137 137
126 126 126
148 148 148
173 173 173
195 195 195
206 206 206
202 202 202
192 192 192
192 192 192
179 179 179
159 159 159
135 135 135
146 146 146
173 173 173
197 197 197
214 214 214
213 213 213
195 195 195
170 170 170
166 166 166
184 184 184
193 193 193
189 189 189
173 173 173
152 152 152
139 139 139
141 141 141
149 149 149
162 162 162
166 166 166
161 161 161
147 147 147
128 128 128
129 129 129
149 149 149
176 176 176
201 201 201
217 217 217
214 214 214
194 194 194
169 169 169
184 184 184
191 191 191
186 186 186
175 175 175
178 178 178
171 171 171
155 155 155
167 167 167
171 171 171
164 164 164
150 150 150
153 153 153
163 163 163
180 180 180
189 189 189
185 185 185
171 171 171
165 165 165
156 156 156
140 140 140
124 124 124
153 153 153
182 182 182
211 211 211
239 239 239
236 236 236
208 208 208
178 178 178
162 162 162
166 166 166
173 173 173
170 170 170
157 157 157
144 144 144
154 154 154
156 156 156
150 150 150
143 143 143
147 147 147
142 142 142
131 131 131
129 129 129
129 129 129
136 136 136
163 163 163
187 187 187
205 205 205
209 209 209
196 196 196
174 174 174
207 207 207
220 220 220
211 211 211
199 199 199
203 203 203
193 193 193
176 176 176
193 193 193
198 198 198
189 189 189
170 170 170
174 174 174
187 187 187
188 188 188
177 177 177
162 162 162
151 151 151
137 137 137
130 130 130
121 121 121
126 126 126
151 151 151
180 180 180
207 207 207
230 230 230
228 228 228
204 204 204
176 176 176
151 151 151
143 143 143
148 148 148
146 146 146
135 135 135
152 152 152
163 163 163
165 165 165
158 158 158
143 143 143
123 123 123
131 131 131
145 145 145
153 153 153
152 152 152
143 143 143
160 160 160
183 183 183
200 200 200
204 204 204
192 192 192
184 184 184
221 221 221
245 245 245
226 226 226
213 213 213
220 220 220
206 206 206
191 191 191
214 214 214
223 223 223
209 209 209
184 184 184
188 188 188
205 205 205
206 206 206
192 192 192
169 169 169
144 144 144
147 147 147
152 152 152
148 148 148
150 150 150
164 164 164
168 168 168
189 189 189
203 203 203
202 202 202
186 186 186
164 164 164
166 166 166
167 167 167
158 158 158
143 143 143
134 134 134
151 151 151
162 162 162
164 164 164
157 157 157
142 142 142
125 125 125
147 147 147
163 163 163
173 173 173
172 172 172
161 161 161
155 155 155
169 169 169
182 182 182
185 185 185
176 176 176
192 192 192
212 212 212
227 227 227
216 216 216
210 210 210
216 216 216
203 203 203
195 195 195
220 220 220
230 230 230
213 213 213
187 187 187
191 191 191
208 208 208
210 210 210
195 195 195
172 172 172
157 157 157
173 173 173
179 179 179
174 174 174
171 171 171
189 189 189
196 196 196
189 189 189
174 174 174
173 173 173
163 163 163
180 180 180
194 194 194
196 196 196
184 184 184
163 163 163
139 139 139
154 154 154
163 163 163
163 163 163
154 154 154
138 138 138
133 133 133
156 156 156
174 174 174
185 185 185
184 184 184
172 172 172
154 154 154
151 151 151
171 171 171
183 183 183
184 184 184
187 187 187
190 190 190
198 198 198
193 193 193
191 191 191
195 195 195
186 186 186
185 185 185
204 204 204
211 211 211
200 200 200
178 178 178
181 181 181
196 196 196
197 197 197
185 185 185
164 164 164
175 175 175
194 194 194
202 202 202
195 195 195
186 186 186
209 209 209
220 220 220
210 210 210
187 187 187
160 160 160
173 173 173
199 199 199
221 221 221
224 224 224
205 205 205
178 178 178
156 156 156
176 176 176
188 188 188
188 188 188
176 176 176
157 157 157
142 142 142
156 156 156
175 175 175
186 186 186
185 185 185
172 172 172
153 153 153
168 168 168
192 192 192
210 210 210
213 213 213
197 197 197
163 163 163
169 169 169
165 165 165
167 167 167
169 169 169
162 162 162
166 166 166
180 180 180
184 184 184
177 177 177
160 160 160
163 163 163
174 174 174
174 174 174
165 165 165
162 162 162
184 184 184
206 206 206
217 217 217
208 208 208
190 190 190
216 216 216
229 229 229
216 216 216
191 191 191
163 163 163
177 177 177
207 207 207
235 235 235
241 241 241
213 213 213
184 184 184
168 168 168
191 191 191
207 207 207
207 207 207
192 192 192
183 183 183
164 164 164
151 151 151
165 165 165
175 175 175
174 174 174
163 163 163
147 147 147
176 176 176
205 205 205
232 232 232
237 237 237
212 212 212
135 135 135
153 153 153
171 171 171
180 180 180
178 178 178
166 166 166
164 164 164
161 161 161
156 156 156
166 166 166
179 179 179
182 182 182
174 174 174
157 157 157
141 141 141
162 162 162
181 181 181
202 202 202
212 212 212
204 204 204
183 183 183
202 202 202
211 211 211
202 202 202
182 182 182
156 156 156
171 171 171
198 198 198
218 218 218
221 221 221
203 203 203
177 177 177
170 170 170
195 195 195
212 212 212
215 215 215
221 221 221
206 206 206
181 181 181
154 154 154
152 152 152
156 156 156
155 155 155
146 146 146
146 146 146
174 174 174
202 202 202
226 226 226
230 230 230
208 208 208
153 153 153
171 171 171
180 180 180
182 182 182
181 181 181
168 168 168
171 171 171
167 167 167
157 157 157
176 176 176
192 192 192
196 196 196
186 186 186
167 167 167
143 143 143
153 153 153
167 167 167
185 185 185
192 192 192
186 186 186
170 170 170
179 179 179
185 185 185
179 179 179
164 164 164
151 151 151
157 157 157
177 177 177
191 191 191
193 193 193
181 181 181
168 168 168
163 163 163
185 185 185
202 202 202
232 232 232
247 247 247
218 218 218
189 189 189
159 159 159
144 144 144
147 147 147
149 149 149
143 143 143
137 137 137
163 163 163
185 185 185
201 201 201
203 203 203
190 190 190
172 172 172
195 195 195
209 209 209
207 207 207
189 189 189
165 165 165
172 172 172
172 172 172
162 162 162
176 176 176
192 192 192
196 196 196
186 186 186
167 167 167
143 143 143
136 136 136
148 148 148
161 161 161
166 166 166
169 169 169
168 168 168
159 159 159
157 157 157
153 153 153
165 165 165
179 179 179
183 183 183
176 176 176
167 167 167
173 173 173
183 183 183
182 182 182
170 170 170
169 169 169
196 196 196
220 220 220
227 227 227
209 209 209
183 183 183
156 156 156
151 151 151
162 162 162
165 165 165
158 158 158
144 144 144
144 144 144
162 162 162
173 173 173
174 174 174
165 165 165
183 183 183
211 211 211
236 236 236
231 231 231
204 204 204
176 176 176
168 168 168
168 168 168
158 158 158
166 166 166
179 179 179
183 183 183
174 174 174
158 158 158
136 136 136
150 150 150
165 165 165
173 173 173
183 183 183
196 196 196
196 196 196
182 182 182
161 161 161
161 161 161
186 186 186
205 205 205
212 212 212
200 200 200
178 178 178
175 175 175
186 186 186
184 184 184
172 172 172
170 170 170
187 187 187
194 194 194
198 198 198
188 188 188
168 168 168
144 144 144
157 157 157
169 169 169
172 172 172
165 165 165
149 149 149
129 129 129
136 136 136
144 144 144
145 145 145
154 154 154
183 183 183
211 211 211
235 235 235
230 230 230
204 204 204
188 188 188
166 166 166
155 155 155
146 146 146
148 148 148
159 159 159
162 162 162
155 155 155
141 141 141
141 141 141
165 165 165
184 184 184
194 194 194
201 201 201
221 221 221
220 220 220
200 200 200
174 174 174
169 169 169
198 198 198
225 225 225
238 238 238
217 217 217
191 191 191
196 196 196
186 186 186
175 175 175
164 164 164
176 176 176
195 195 195
202 202 202
194 194 194
175 175 175
151 151 151
147 147 147
154 154 154
166 166 166
169 169 169
162 162 162
147 147 147
134 134 134
139 139 139
136 136 136
135 135 135
154 154 154
