P3
50 50
255
184 184 184
199 199 199
200 200 200
187 187 187
166 166 166
141 141 141
130 130 130
133 133 133
159 159 159
184 184 184
203 203 203
209 209 209
198 198 198
176 176 176
172 172 172
173 173 173
185 185 185
198 198 198
198 198 198
184 184 184
163 163 163
172 172 172
186 186 186
189 189 189
179 179 179
161 161 161
138 138 138
133 133 133
143 143 143
145 145 145
141 141 141
149 149 149
149 149 149
141 141 141
127 127 127
128 128 128
149 149 149
166 166 166
175 175 175
173 173 173
174 174 174
202 202 202
227 227 227
234 234 234
211 211 211
200 200 200
188 188 188
168 168 168
156 156 156
162 162 162
199 199 199
220 220 220
222 222 222
203 203 203
177 177 177
160 160 160
156 156 156
144 144 144
161 161 161
186 186 186
206 206 206
213 213 213
201 201 201
179 179 179
191 191 191
193 193 193
203 203 203
223 223 223
223 223 223
202 202 202
176 176 176
192 192 192
212 212 212
217 217 217
202 202 202
178 178 178
158 158 158
148 148 148
143 143 143
145 145 145
140 140 140
147 147 147
147 147 147
141 141 141
138 138 138
142 142 142
167 167 167
188 188 188
201 201 201
198 198 198
183 183 183
204 204 204
231 231 231
239 239 239
214 214 214
207 207 207
194 194 194
172 172 172
184 184 184
189 189 189
201 201 201
223 223 223
225 225 225
205 205 205
179 179 179
184 184 184
178 178 178
162 162 162
174 174 174
178 178 178
194 194 194
199 199 199
189 189 189
184 184 184
200 200 200
203 203 203
207 207 207
232 232 232
232 232 232
207 207 207
179 179 179
202 202 202
230 230 230
239 239 239
214 214 214
186 186 186
184 184 184
171 171 171
152 152 152
137 137 137
132 132 132
144 144 144
156 156 156
161 161 161
157 157 157
150 150 150
178 178 178
203 203 203
220 220 220
217 217 217
196 196 196
190 190 190
209 209 209
213 213 213
198 198 198
198 198 198
187 187 187
188 188 188
210 210 210
218 218 218
188 188 188
204 204 204
205 205 205
191 191 191
194 194 194
202 202 202
193 193 193
175 175 175
183 183 183
188 188 188
181 181 181
176 176 176
169 169 169
179 179 179
194 194 194
197 197 197
195 195 195
213 213 213
212 212 212
195 195 195
172 172 172
197 197 197
220 220 220
226 226 226
208 208 208
207 207 207
205 205 205
189 189 189
165 165 165
139 139 139
135 135 135
155 155 155
169 169 169
175 175 175
169 169 169
155 155 155
177 177 177
202 202 202
220 220 220
216 216 216
196 196 196
170 170 170
181 181 181
184 184 184
175 175 175
178 178 178
169 169 169
198 198 198
227 227 227
247 247 247
167 167 167
178 178 178
179 179 179
179 179 179
198 198 198
206 206 206
198 198 198
200 200 200
187 187 187
186 186 186
179 179 179
163 163 163
146 146 146
165 165 165
177 177 177
179 179 179
174 174 174
186 186 186
185 185 185
188 188 188
200 200 200
197 197 197
196 196 196
199 199 199
200 200 200
217 217 217
215 215 215
196 196 196
170 170 170
143 143 143
137 137 137
158 158 158
173 173 173
178 178 178
173 173 173
159 159 159
167 167 167
188 188 188
200 200 200
198 198 198
182 182 182
160 160 160
163 163 163
162 162 162
152 152 152
153 153 153
166 166 166
194 194 194
220 220 220
232 232 232
172 172 172
167 167 167
154 154 154
171 171 171
188 188 188
201 201 201
223 223 223
227 227 227
206 206 206
180 180 180
166 166 166
152 152 152
165 165 165
173 173 173
170 170 170
158 158 158
149 149 149
157 157 157
181 181 181
206 206 206
224 224 224
219 219 219
197 197 197
170 170 170
193 193 193
207 207 207
206 206 206
189 189 189
166 166 166
139 139 139
136 136 136
152 152 152
166 166 166
171 171 171
166 166 166
153 153 153
149 149 149
165 165 165
174 174 174
173 173 173
162 162 162
181 181 181
192 192 192
191 191 191
177 177 177
156 156 156
155 155 155
178 178 178
196 196 196
202 202 202
190 190 190
185 185 185
169 169 169
154 154 154
177 177 177
205 205 205
233 233 233
238 238 238
212 212 212
183 183 183
154 154 154
160 160 160
177 177 177
186 186 186
183 183 183
169 169 169
149 149 149
155 155 155
183 183 183
210 210 210
231 231 231
224 224 224
200 200 200
172 172 172
175 175 175
185 185 185
184 184 184
172 172 172
152 152 152
141 141 141
153 153 153
156 156 156
156 156 156
156 156 156
151 151 151
151 151 151
163 163 163
166 166 166
160 160 160
150 150 150
178 178 178
203 203 203
221 221 221
218 218 218
197 197 197
171 171 171
168 168 168
168 168 168
169 169 169
183 183 183
198 198 198
192 192 192
175 175 175
151 151 151
169 169 169
194 194 194
213 213 213
216 216 216
199 199 199
175 175 175
148 148 148
161 161 161
179 179 179
188 188 188
185 185 185
171 171 171
163 163 163
172 172 172
174 174 174
197 197 197
210 210 210
207 207 207
188 188 188
164 164 164
151 151 151
159 159 159
158 158 158
149 149 149
137 137 137
151 151 151
164 164 164
174 174 174
185 185 185
185 185 185
173 173 173
171 171 171
186 186 186
190 190 190
181 181 181
164 164 164
184 184 184
214 214 214
242 242 242
236 236 236
207 207 207
182 182 182
196 196 196
196 196 196
182 182 182
190 190 190
192 192 192
186 186 186
170 170 170
151 151 151
153 153 153
173 173 173
186 186 186
188 188 188
177 177 177
158 158 158
141 141 141
154 154 154
170 170 170
178 178 178
175 175 175
166 166 166
187 187 187
201 201 201
200 200 200
185 185 185
183 183 183
181 181 181
168 168 168
158 158 158
157 157 157
148 148 148
133 133 133
140 140 140
145 145 145
153 153 153
172 172 172
196 196 196
213 213 213
213 213 213
195 195 195
183 183 183
201 201 201
207 207 207
196 196 196
175 175 175
179 179 179
205 205 205
225 225 225
221 221 221
199 199 199
201 201 201
221 221 221
221 221 221
201 201 201
185 185 185
184 184 184
184 184 184
173 173 173
154 154 154
141 141 141
148 148 148
158 158 158
159 159 159
151 151 151
147 147 147
158 158 158
161 161 161
155 155 155
159 159 159
157 157 157
179 179 179
206 206 206
228 228 228
227 227 227
203 203 203
176 176 176
153 153 153
165 165 165
174 174 174
174 174 174
163 163 163
145 145 145
141 141 141
146 146 146
151 151 151
181 181 181
210 210 210
237 237 237
236 236 236
209 209 209
201 201 201
203 203 203
209 209 209
197 197 197
176 176 176
164 164 164
185 185 185
197 197 197
195 195 195
181 181 181
207 207 207
232 232 232
232 232 232
207 207 207
179 179 179
177 177 177
177 177 177
167 167 167
149 149 149
146 146 146
145 145 145
141 141 141
130 130 130
142 142 142
161 161 161
174 174 174
178 178 178
170 170 170
154 154 154
153 153 153
182 182 182
211 211 211
239 239 239
236 236 236
208 208 208
179 179 179
154 154 154
172 172 172
182 182 182
182 182 182
170 170 170
151 151 151
136 136 136
139 139 139
150 150 150
178 178 178
206 206 206
229 229 229
228 228 228
222 222 222
217 217 217
195 195 195
194 194 194
185 185 185
169 169 169
175 175 175
193 193 193
210 210 210
210 210 210
194 194 194
196 196 196
214 214 214
214 214 214
197 197 197
172 172 172
161 161 161
161 161 161
152 152 152
147 147 147
159 159 159
164 164 164
159 159 159
147 147 147
147 147 147
167 167 167
181 181 181
185 185 185
177 177 177
160 160 160
147 147 147
174 174 174
198 198 198
215 215 215
214 214 214
196 196 196
171 171 171
151 151 151
169 169 169
179 179 179
178 178 178
167 167 167
149 149 149
130 130 130
126 126 126
140 140 140
166 166 166
188 188 188
202 202 202
202 202 202
217 217 217
213 213 213
193 193 193
171 171 171
168 168 168
186 186 186
194 194 194
193 193 193
209 209 209
210 210 210
194 194 194
176 176 176
187 187 187
188 188 188
176 176 176
156 156 156
139 139 139
139 139 139
136 136 136
156 156 156
171 171 171
176 176 176
171 171 171
157 157 157
144 144 144
164 164 164
177 177 177
181 181 181
173 173 173
169 169 169
156 156 156
157 157 157
176 176 176
187 187 187
186 186 186
174 174 174
166 166 166
162 162 162
157 157 157
165 165 165
165 165 165
155 155 155
138 138 138
124 124 124
134 134 134
138 138 138
148 148 148
164 164 164
174 174 174
185 185 185
196 196 196
193 193 193
178 178 178
156 156 156
174 174 174
194 194 194
202 202 202
196 196 196
193 193 193
193 193 193
181 181 181
161 161 161
159 159 159
159 159 159
151 151 151
147 147 147
114 114 114
114 114 114
138 138 138
158 158 158
172 172 172
178 178 178
173 173 173
158 158 158
138 138 138
151 151 151
163 163 163
172 172 172
179 179 179
175 175 175
161 161 161
141 141 141
150 150 150
158 158 158
166 166 166
184 184 184
191 191 191
186 186 186
174 174 174
174 174 174
164 164 164
147 147 147
139 139 139
142 142 142
154 154 154
158 158 158
154 154 154
158 158 158
164 164 164
162 162 162
169 169 169
167 167 167
156 156 156
160 160 160
182 182 182
199 199 199
202 202 202
190 190 190
173 173 173
170 170 170
160 160 160
144 144 144
136 136 136
156 156 156
171 171 171
176 176 176
97 97 97
120 120 120
140 140 140
155 155 155
164 164 164
169 169 169
164 164 164
151 151 151
149 149 149
141 141 141
153 153 153
167 167 167
174 174 174
170 170 170
157 157 157
137 137 137
126 126 126
154 154 154
179 179 179
201 201 201
212 212 212
205 205 205
198 198 198
198 198 198
184 184 184
163 163 163
157 157 157
154 154 154
168 168 168
173 173 173
167 167 167
154 154 154
150 150 150
147 147 147
141 141 141
140 140 140
143 143 143
172 172 172
200 200 200
224 224 224
230 230 230
210 210 210
183 183 183
155 155 155
136 136 136
126 126 126
153 153 153
177 177 177
197 197 197
206 206 206
114 114 114
133 133 133
149 149 149
157 157 157
165 165 165
163 163 163
160 160 160
169 169 169
168 168 168
157 157 157
141 141 141
154 154 154
159 159 159
156 156 156
144 144 144
127 127 127
128 128 128
156 156 156
183 183 183
206 206 206
219 219 219
210 210 210
213 213 213
213 213 213
196 196 196
171 171 171
167 167 167
158 158 158
173 173 173
178 178 178
173 173 173
158 158 158
137 137 137
128 128 128
119 119 119
116 116 116
145 145 145
175 175 175
204 204 204
233 233 233
243 243 243
216 216 216
186 186 186
157 157 157
128 128 128
134 134 134
163 163 163
192 192 192
218 218 218
235 235 235
132 132 132
155 155 155
174 174 174
185 185 185
185 185 185
174 174 174
170 170 170
180 180 180
178 178 178
167 167 167
148 148 148
134 134 134
139 139 139
139 139 139
141 141 141
146 146 146
155 155 155
155 155 155
174 174 174
194 194 194
204 204 204
198 198 198
210 210 210
210 210 210
193 193 193
171 171 171
169 169 169
157 157 157
168 168 168
173 173 173
167 167 167
153 153 153
134 134 134
111 111 111
103 103 103
123 123 123
148 148 148
169 169 169
193 193 193
213 213 213
217 217 217
202 202 202
178 178 178
151 151 151
123 123 123
135 135 135
165 165 165
194 194 194
222 222 222
244 244 244
144 144 144
171 171 171
196 196 196
213 213 213
212 212 212
195 195 195
171 171 171
180 180 180
179 179 179
167 167 167
148 148 148
137 137 137
155 155 155
166 166 166
168 168 168
170 170 170
181 181 181
181 181 181
170 170 170
173 173 173
180 180 180
179 179 179
191 191 191
191 191 191
179 179 179
163 163 163
160 160 160
149 149 149
154 154 154
158 158 158
153 153 153
141 141 141
131 131 131
123 123 123
109 109 109
130 130 130
156 156 156
180 180 180
198 198 198
204 204 204
194 194 194
178 178 178
160 160 160
138 138 138
116 116 116
129 129 129
157 157 157
183 183 183
204 204 204
215 215 215
150 150 150
179 179 179
208 208 208
232 232 232
232 232 232
207 207 207
179 179 179
169 169 169
168 168 168
158 158 158
140 140 140
154 154 154
176 176 176
191 191 191
194 194 194
189 189 189
203 203 203
203 203 203
188 188 188
166 166 166
153 153 153
157 157 157
167 167 167
167 167 167
157 157 157
154 154 154
148 148 148
135 135 135
146 146 146
151 151 151
149 149 149
147 147 147
145 145 145
136 136 136
121 121 121
129 129 129
156 156 156
179 179 179
197 197 197
203 203 203
194 194 194
179 179 179
170 170 170
152 152 152
135 135 135
130 130 130
142 142 142
163 163 163
179 179 179
185 185 185
148 148 148
176 176 176
203 203 203
224 224 224
223 223 223
202 202 202
176 176 176
151 151 151
150 150 150
154 154 154
149 149 149
165 165 165
190 190 190
209 209 209
213 213 213
199 199 199
215 215 215
215 215 215
197 197 197
172 172 172
152 152 152
164 164 164
168 168 168
162 162 162
175 175 175
178 178 178
171 171 171
155 155 155
158 158 158
164 164 164
161 161 161
155 155 155
153 153 153
143 143 143
133 133 133
122 122 122
147 147 147
168 168 168
183 183 183
188 188 188
202 202 202
205 205 205
192 192 192
170 170 170
163 163 163
157 157 157
143 143 143
154 154 154
161 161 161
158 158 158
138 138 138
163 163 163
185 185 185
198 198 198
198 198 198
184 184 184
163 163 163
157 157 157
171 171 171
175 175 175
169 169 169
167 167 167
192 192 192
213 213 213
217 217 217
202 202 202
208 208 208
208 208 208
192 192 192
168 168 168
167 167 167
182 182 182
187 187 187
180 180 180
193 193 193
198 198 198
188 188 188
169 169 169
163 163 163
169 169 169
165 165 165
154 154 154
162 162 162
166 166 166
161 161 161
147 147 147
132 132 132
150 150 150
172 172 172
198 198 198
220 220 220
224 224 224
206 206 206
186 186 186
190 190 190
181 181 181
164 164 164
144 144 144
160 160 160
169 169 169
142 142 142
167 167 167
187 187 187
199 199 199
196 196 196
181 181 181
159 159 159
169 169 169
185 185 185
191 191 191
183 183 183
174 174 174
182 182 182
198 198 198
201 201 201
190 190 190
187 187 187
187 187 187
175 175 175
159 159 159
174 174 174
191 191 191
196 196 196
188 188 188
200 200 200
205 205 205
194 194 194
174 174 174
182 182 182
187 187 187
180 180 180
173 173 173
190 190 190
196 196 196
187 187 187
169 169 169
146 146 146
143 143 143
170 170 170
197 197 197
218 218 218
221 221 221
204 204 204
208 208 208
214 214 214
201 201 201
178 178 178
161 161 161
180 180 180
191 191 191
153 153 153
182 182 182
208 208 208
227 227 227
222 222 222
199 199 199
172 172 172
172 172 172
188 188 188
194 194 194
186 186 186
173 173 173
180 180 180
176 176 176
177 177 177
169 169 169
161 161 161
161 161 161
175 175 175
188 188 188
188 188 188
186 186 186
192 192 192
184 184 184
192 192 192
197 197 197
187 187 187
174 174 174
192 192 192
198 198 198
190 190 190
191 191 191
215 215 215
225 225 225
211 211 211
186 186 186
169 169 169
156 156 156
160 160 160
182 182 182
197 197 197
199 199 199
193 193 193
216 216 216
224 224 224
208 208 208
183 183 183
170 170 170
193 193 193
206 206 206
156 156 156
186 186 186
215 215 215
243 243 243
234 234 234
205 205 205
175 175 175
164 164 164
179 179 179
184 184 184
177 177 177
163 163 163
169 169 169
165 165 165
167 167 167
163 163 163
159 159 159
171 171 171
196 196 196
215 215 215
216 216 216
199 199 199
176 176 176
169 169 169
174 174 174
177 177 177
170 170 170
175 175 175
188 188 188
194 194 194
187 187 187
198 198 198
227 227 227
248 248 248
222 222 222
197 197 197
191 191 191
174 174 174
152 152 152
160 160 160
171 171 171
173 173 173
185 185 185
205 205 205
210 210 210
198 198 198
176 176 176
170 170 170
192 192 192
205 205 205
151 151 151
178 178 178
203 203 203
219 219 219
215 215 215
195 195 195
169 169 169
148 148 148
161 161 161
165 165 165
160 160 160
149 149 149
172 172 172
189 189 189
197 197 197
190 190 190
187 187 187
184 184 184
207 207 207
234 234 234
237 237 237
211 211 211
182 182 182
153 153 153
150 150 150
153 153 153
167 167 167
185 185 185
194 194 194
189 189 189
173 173 173
191 191 191
214 214 214
224 224 224
210 210 210
214 214 214
206 206 206
185 185 185
160 160 160
135 135 135
143 143 143
147 147 147
168 168 168
182 182 182
186 186 186
178 178 178
161 161 161
160 160 160
179 179 179
189 189 189
138 138 138
161 161 161
180 180 180
190 190 190
188 188 188
174 174 174
153 153 153
129 129 129
138 138 138
141 141 141
137 137 137
161 161 161
189 189 189
213 213 213
226 226 226
214 214 214
215 215 215
209 209 209
201 201 201
223 223 223
225 225 225
205 205 205
178 178 178
150 150 150
124 124 124
142 142 142
165 165 165
183 183 183
191 191 191
186 186 186
171 171 171
173 173 173
189 189 189
195 195 195
202 202 202
213 213 213
205 205 205
185 185 185
159 159 159
132 132 132
131 131 131
144 144 144
151 151 151
156 156 156
159 159 159
153 153 153
139 139 139
142 142 142
158 158 158
166 166 166
131 131 131
139 139 139
154 154 154
161 161 161
160 160 160
149 149 149
133 133 133
121 121 121
113 113 113
116 116 116
136 136 136
166 166 166
195 195 195
224 224 224
249 249 249
225 225 225
235 235 235
225 225 225
199 199 199
197 197 197
198 198 198
185 185 185
164 164 164
139 139 139
143 143 143
157 157 157
179 179 179
195 195 195
198 198 198
187 187 187
167 167 167
150 150 150
162 162 162
168 168 168
186 186 186
195 195 195
189 189 189
173 173 173
153 153 153
155 155 155
150 150 150
166 166 166
174 174 174
171 171 171
160 160 160
141 141 141
138 138 138
131 131 131
139 139 139
140 140 140
134 134 134
137 137 137
136 136 136
146 146 146
149 149 149
143 143 143
143 143 143
140 140 140
130 130 130
114 114 114
132 132 132
161 161 161
188 188 188
211 211 211
223 223 223
212 212 212
224 224 224
217 217 217
194 194 194
169 169 169
169 169 169
160 160 160
145 145 145
162 162 162
172 172 172
179 179 179
190 190 190
210 210 210
215 215 215
201 201 201
177 177 177
151 151 151
143 143 143
150 150 150
164 164 164
170 170 170
166 166 166
168 168 168
182 182 182
185 185 185
176 176 176
181 181 181
192 192 192
189 189 189
174 174 174
153 153 153
138 138 138
156 156 156
166 166 166
168 168 168
133 133 133
142 142 142
161 161 161
175 175 175
178 178 178
171 171 171
158 158 158
154 154 154
143 143 143
134 134 134
127 127 127
147 147 147
170 170 170
187 187 187
194 194 194
188 188 188
198 198 198
194 194 194
177 177 177
155 155 155
140 140 140
139 139 139
164 164 164
186 186 186
200 200 200
200 200 200
213 213 213
210 210 210
214 214 214
200 200 200
176 176 176
159 159 159
166 166 166
171 171 171
166 166 166
153 153 153
164 164 164
189 189 189
208 208 208
213 213 213
200 200 200
187 187 187
198 198 198
195 195 195
180 180 180
157 157 157
156 156 156
177 177 177
191 191 191
193 193 193
134 134 134
159 159 159
183 183 183
202 202 202
207 207 207
196 196 196
175 175 175
161 161 161
161 161 161
161 161 161
154 154 154
141 141 141
147 147 147
160 160 160
165 165 165
162 162 162
169 169 169
167 167 167
155 155 155
137 137 137
133 133 133
148 148 148
177 177 177
203 203 203
225 225 225
225 225 225
223 223 223
220 220 220
198 198 198
185 185 185
178 178 178
184 184 184
185 185 185
191 191 191
185 185 185
168 168 168
172 172 172
201 201 201
229 229 229
239 239 239
215 215 215
187 187 187
191 191 191
188 188 188
174 174 174
153 153 153
167 167 167
192 192 192
210 210 210
213 213 213
141 141 141
170 170 170
198 198 198
224 224 224
236 236 236
215 215 215
188 188 188
174 174 174
186 186 186
187 187 187
179 179 179
163 163 163
141 141 141
132 132 132
135 135 135
135 135 135
141 141 141
138 138 138
129 129 129
125 125 125
145 145 145
161 161 161
179 179 179
207 207 207
232 232 232
232 232 232
211 211 211
208 208 208
190 190 190
178 178 178
197 197 197
205 205 205
197 197 197
202 202 202
194 194 194
176 176 176
171 171 171
199 199 199
224 224 224
232 232 232
212 212 212
185 185 185
173 173 173
170 170 170
159 159 159
141 141 141
169 169 169
194 194 194
213 213 213
217 217 217
141 141 141
170 170 170
199 199 199
227 227 227
240 240 240
217 217 217
189 189 189
191 191 191
207 207 207
210 210 210
200 200 200
179 179 179
154 154 154
127 127 127
106 106 106
111 111 111
125 125 125
133 133 133
135 135 135
129 129 129
150 150 150
167 167 167
176 176 176
195 195 195
212 212 212
212 212 212
195 195 195
185 185 185
185 185 185
189 189 189
205 205 205
214 214 214
204 204 204
197 197 197
190 190 190
172 172 172
160 160 160
183 183 183
200 200 200
204 204 204
196 196 196
191 191 191
175 175 175
153 153 153
138 138 138
135 135 135
161 161 161
183 183 183
199 199 199
201 201 201
134 134 134
161 161 161
186 186 186
206 206 206
212 212 212
200 200 200
178 178 178
197 197 197
215 215 215
223 223 223
210 210 210
186 186 186
159 159 159
134 134 134
115 115 115
113 113 113
127 127 127
135 135 135
136 136 136
130 130 130
148 148 148
164 164 164
172 172 172
173 173 173
184 184 184
184 184 184
173 173 173
174 174 174
189 189 189
193 193 193
196 196 196
203 203 203
195 195 195
180 180 180
174 174 174
159 159 159
148 148 148
162 162 162
183 183 183
208 208 208
223 223 223
216 216 216
193 193 193
166 166 166
154 154 154
152 152 152
145 145 145
164 164 164
175 175 175
177 177 177
121 121 121
145 145 145
165 165 165
179 179 179
183 183 183
175 175 175
166 166 166
188 188 188
204 204 204
212 212 212
202 202 202
183 183 183
173 173 173
154 154 154
132 132 132
127 127 127
141 141 141
149 149 149
148 148 148
140 140 140
146 146 146
155 155 155
159 159 159
157 157 157
156 156 156
156 156 156
147 147 147
167 167 167
181 181 181
184 184 184
176 176 176
182 182 182
176 176 176
160 160 160
152 152 152
143 143 143
164 164 164
182 182 182
190 190 190
217 217 217
240 240 240
227 227 227
200 200 200
176 176 176
184 184 184
180 180 180
166 166 166
174 174 174
182 182 182
178 178 178
117 117 117
142 142 142
165 165 165
182 182 182
190 190 190
185 185 185
170 170 170
170 170 170
183 183 183
189 189 189
205 205 205
206 206 206
192 192 192
169 169 169
143 143 143
135 135 135
150 150 150
158 158 158
158 158 158
149 149 149
149 149 149
159 159 159
159 159 159
162 162 162
158 158 158
165 165 165
171 171 171
167 167 167
163 163 163
166 166 166
159 159 159
156 156 156
154 154 154
155 155 155
165 165 165
168 168 168
172 172 172
193 193 193
203 203 203
206 206 206
220 220 220
213 213 213
191 191 191
201 201 201
213 213 213
207 207 207
187 187 187
184 184 184
193 193 193
190 190 190
127 127 127
155 155 155
181 181 181
204 204 204
216 216 216
209 209 209
188 188 188
162 162 162
171 171 171
197 197 197
216 216 216
218 218 218
200 200 200
175 175 175
148 148 148
136 136 136
151 151 151
159 159 159
159 159 159
150 150 150
145 145 145
165 165 165
181 181 181
188 188 188
182 182 182
187 187 187
196 196 196
191 191 191
174 174 174
158 158 158
151 151 151
170 170 170
182 182 182
183 183 183
186 186 186
189 189 189
180 180 180
190 190 190
200 200 200
195 195 195
192 192 192
188 188 188
189 189 189
217 217 217
240 240 240
227 227 227
199 199 199
183 183 183
192 192 192
188 188 188
131 131 131
160 160 160
188 188 188
215 215 215
233 233 233
221 221 221
196 196 196
167 167 167
167 167 167
191 191 191
208 208 208
209 209 209
194 194 194
171 171 171
144 144 144
129 129 129
144 144 144
152 152 152
151 151 151
143 143 143
154 154 154
179 179 179
200 200 200
209 209 209
200 200 200
202 202 202
214 214 214
207 207 207
186 186 186
164 164 164
168 168 168
192 192 192
209 209 209
210 210 210
198 198 198
202 202 202
191 191 191
176 176 176
184 184 184
180 180 180
166 166 166
173 173 173
188 188 188
215 215 215
234 234 234
223 223 223
197 197 197
171 171 171
178 178 178
175 175 175
128 128 128
156 156 156
183 183 183
206 206 206
219 219 219
211 211 211
189 189 189
171 171 171
165 165 165
174 174 174
186 186 186
187 187 187
176 176 176
157 157 157
134 134 134
127 127 127
133 133 133
137 137 137
137 137 137
136 136 136
157 157 157
183 183 183
205 205 205
216 216 216
206 206 206
202 202 202
215 215 215
207 207 207
187 187 187
161 161 161
176 176 176
204 204 204
228 228 228
231 231 231
208 208 208
200 200 200
190 190 190
173 173 173
178 178 178
172 172 172
165 165 165
188 188 188
203 203 203
204 204 204
206 206 206
201 201 201
182 182 182
158 158 158
157 157 157
155 155 155
118 118 118
144 144 144
167 167 167
185 185 185
193 193 193
188 188 188
195 195 195
196 196 196
185 185 185
168 168 168
160 160 160
161 161 161
153 153 153
137 137 137
138 138 138
140 140 140
136 136 136
124 124 124
119 119 119
125 125 125
152 152 152
176 176 176
195 195 195
203 203 203
196 196 196
188 188 188
197 197 197
192 192 192
175 175 175
153 153 153
174 174 174
201 201 201
222 222 222
224 224 224
204 204 204
184 184 184
176 176 176
161 161 161
165 165 165
160 160 160
168 168 168
192 192 192
208 208 208
209 209 209
194 194 194
173 173 173
160 160 160
145 145 145
139 139 139
131 131 131
104 104 104
126 126 126
145 145 145
159 159 159
174 174 174
201 201 201
221 221 221
222 222 222
202 202 202
176 176 176
161 161 161
151 151 151
146 146 146
149 149 149
161 161 161
164 164 164
158 158 158
144 144 144
125 125 125
115 115 115
138 138 138
159 159 159
174 174 174
180 180 180
175 175 175
166 166 166
173 173 173
169 169 169
156 156 156
137 137 137
162 162 162
184 184 184
199 199 199
200 200 200
187 187 187
166 166 166
155 155 155
153 153 153
156 156 156
162 162 162
161 161 161
182 182 182
196 196 196
197 197 197
184 184 184
163 163 163
149 149 149
151 151 151
145 145 145
132 132 132
92 92 92
108 108 108
122 122 122
149 149 149
178 178 178
207 207 207
233 233 233
235 235 235
209 209 209
188 188 188
181 181 181
179 179 179
173 173 173
165 165 165
179 179 179
183 183 183
176 176 176
160 160 160
138 138 138
115 115 115
120 120 120
137 137 137
149 149 149
154 154 154
152 152 152
146 146 146
146 146 146
143 143 143
147 147 147
147 147 147
143 143 143
161 161 161
171 171 171
172 172 172
163 163 163
146 146 146
143 143 143
165 165 165
183 183 183
191 191 191
186 186 186
170 170 170
175 175 175
176 176 176
166 166 166
148 148 148
147 147 147
149 149 149
142 142 142
129 129 129
95 95 95
113 113 113
128 128 128
144 144 144
172 172 172
197 197 197
215 215 215
216 216 216
198 198 198
202 202 202
200 200 200
207 207 207
198 198 198
177 177 177
189 189 189
194 194 194
186 186 186
167 167 167
144 144 144
123 123 123
130 130 130
144 144 144
152 152 152
154 154 154
156 156 156
150 150 150
146 146 146
164 164 164
175 175 175
175 175 175
166 166 166
149 149 149
143 143 143
143 143 143
136 136 136
128 128 128
156 156 156
183 183 183
206 206 206
219 219 219
211 211 211
189 189 189
163 163 163
151 151 151
142 142 142
142 142 142
146 146 146
142 142 142
133 133 133
121 121 121
101 101 101
116 116 116
126 126 126
136 136 136
156 156 156
176 176 176
188 188 188
189 189 189
195 195 195
201 201 201
219 219 219
231 231 231
215 215 215
189 189 189
187 187 187
191 191 191
183 183 183
165 165 165
145 145 145
129 129 129
152 152 152
170 170 170
180 180 180
180 180 180
168 168 168
150 150 150
163 163 163
186 186 186
201 201 201
202 202 202
189 189 189
167 167 167
142 142 142
115 115 115
119 119 119
132 132 132
161 161 161
190 190 190
218 218 218
239 239 239
225 225 225
197 197 197
170 170 170
160 160 160
151 151 151
165 165 165
170 170 170
166 166 166
153 153 153
134 134 134
107 107 107
125 125 125
138 138 138
144 144 144
143 143 143
151 151 151
160 160 160
166 166 166
181 181 181
193 193 193
218 218 218
230 230 230
214 214 214
188 188 188
173 173 173
177 177 177
170 170 170
154 154 154
138 138 138
143 143 143
169 169 169
192 192 192
207 207 207
206 206 206
190 190 190
167 167 167
174 174 174
200 200 200
222 222 222
224 224 224
204 204 204
178 178 178
150 150 150
127 127 127
134 134 134
134 134 134
158 158 158
185 185 185
210 210 210
224 224 224
215 215 215
192 192 192
171 171 171
161 161 161
167 167 167
183 183 183
191 191 191
185 185 185
169 169 169
147 147 147
120 120 120
140 140 140
155 155 155
163 163 163
162 162 162
152 152 152
141 141 141
148 148 148
160 160 160
180 180 180
199 199 199
205 205 205
196 196 196
176 176 176
152 152 152
155 155 155
150 150 150
143 143 143
143 143 143
150 150 150
179 179 179
206 206 206
227 227 227
226 226 226
203 203 203
176 176 176
174 174 174
201 201 201
223 223 223
225 225 225
205 205 205
178 178 178
150 150 150
136 136 136
143 143 143
143 143 143
146 146 146
170 170 170
188 188 188
197 197 197
191 191 191
175 175 175
162 162 162
155 155 155
174 174 174
193 193 193
201 201 201
194 194 194
176 176 176
153 153 153
134 134 134
149 149 149
166 166 166
175 175 175
173 173 173
162 162 162
163 163 163
163 163 163
154 154 154
159 159 159
173 173 173
177 177 177
171 171 171
170 170 170
174 174 174
181 181 181
177 177 177
170 170 170
170 170 170
161 161 161
177 177 177
204 204 204
224 224 224
222 222 222
201 201 201
184 184 184
164 164 164
187 187 187
203 203 203
204 204 204
190 190 190
168 168 168
143 143 143
137 137 137
145 145 145
145 145 145
161 161 161
182 182 182
195 195 195
195 195 195
182 182 182
161 161 161
169 169 169
183 183 183
187 187 187
189 189 189
197 197 197
190 190 190
177 177 177
167 167 167
149 149 149
152 152 152
168 168 168
177 177 177
175 175 175
169 169 169
180 180 180
180 180 180
169 169 169
150 150 150
145 145 145
154 154 154
177 177 177
196 196 196
202 202 202
210 210 210
204 204 204
194 194 194
195 195 195
182 182 182
166 166 166
187 187 187
201 201 201
216 216 216
220 220 220
203 203 203
178 178 178
165 165 165
176 176 176
177 177 177
168 168 168
158 158 158
149 149 149
133 133 133
139 139 139
147 147 147
175 175 175
202 202 202
222 222 222
222 222 222
202 202 202
176 176 176
189 189 189
209 209 209
215 215 215
202 202 202
190 190 190
206 206 206
206 206 206
191 191 191
157 157 157
160 160 160
160 160 160
168 168 168
167 167 167
175 175 175
187 187 187
187 187 187
175 175 175
155 155 155
136 136 136
164 164 164
192 192 192
216 216 216
228 228 228
239 239 239
226 226 226
212 212 212
213 213 213
196 196 196
172 172 172
173 173 173
201 201 201
225 225 225
230 230 230
209 209 209
182 182 182
165 165 165
171 171 171
167 167 167
171 171 171
170 170 170
159 159 159
142 142 142
127 127 127
151 151 151
180 180 180
209 209 209
237 237 237
238 238 238
210 210 210
180 180 180
199 199 199
226 226 226
238 238 238
217 217 217
207 207 207
232 232 232
232 232 232
207 207 207
157 157 157
160 160 160
154 154 154
152 152 152
152 152 152
171 171 171
182 182 182
182 182 182
170 170 170
158 158 158
162 162 162
166 166 166
194 194 194
220 220 220
234 234 234
239 239 239
226 226 226
213 213 213
214 214 214
197 197 197
181 181 181
183 183 183
191 191 191
210 210 210
213 213 213
198 198 198
175 175 175
175 175 175
182 182 182
177 177 177
173 173 173
172 172 172
161 161 161
143 143 143
121 121 121
146 146 146
174 174 174
199 199 199
219 219 219
219 219 219
200 200 200
174 174 174
195 195 195
219 219 219
228 228 228
211 211 211
208 208 208
235 235 235
235 235 235
209 209 209
162 162 162
173 173 173
173 173 173
164 164 164
147 147 147
157 157 157
167 167 167
166 166 166
167 167 167
170 170 170
185 185 185
190 190 190
183 183 183
203 203 203
211 211 211
210 210 210
204 204 204
197 197 197
197 197 197
184 184 184
188 188 188
190 190 190
179 179 179
185 185 185
187 187 187
177 177 177
159 159 159
175 175 175
181 181 181
176 176 176
165 165 165
164 164 164
154 154 154
138 138 138
121 121 121
134 134 134
158 158 158
179 179 179
191 191 191
191 191 191
179 179 179
186 186 186
203 203 203
206 206 206
200 200 200
190 190 190
193 193 193
210 210 210
210 210 210
194 194 194
