P3
50 50
255
147 147 147
175 175 175
201 201 201
220 220 220
219 219 219
199 199 199
174 174 174
146 146 146
130 130 130
120 120 120
129 129 129
139 139 139
141 141 141
135 135 135
158 158 158
187 187 187
216 216 216
241 241 241
230 230 230
202 202 202
173 173 173
144 144 144
127 127 127
124 124 124
147 147 147
169 169 169
186 186 186
192 192 192
185 185 185
168 168 168
149 149 149
136 136 136
118 118 118
100 100 100
104 104 104
102 102 102
117 117 117
137 137 137
164 164 164
189 189 189
208 208 208
212 212 212
199 199 199
176 176 176
150 150 150
154 154 154
176 176 176
191 191 191
195 195 195
185 185 185
146 146 146
173 173 173
198 198 198
216 216 216
215 215 215
197 197 197
172 172 172
155 155 155
151 151 151
139 139 139
155 155 155
167 167 167
170 170 170
163 163 163
155 155 155
183 183 183
209 209 209
228 228 228
221 221 221
197 197 197
170 170 170
150 150 150
155 155 155
152 152 152
159 159 159
185 185 185
207 207 207
217 217 217
206 206 206
184 184 184
158 158 158
136 136 136
120 120 120
128 128 128
133 133 133
131 131 131
131 131 131
150 150 150
172 172 172
201 201 201
227 227 227
235 235 235
213 213 213
185 185 185
157 157 157
165 165 165
191 191 191
212 212 212
218 218 218
203 203 203
144 144 144
162 162 162
183 183 183
195 195 195
195 195 195
182 182 182
166 166 166
171 171 171
166 166 166
156 156 156
178 178 178
195 195 195
199 199 199
189 189 189
169 169 169
178 178 178
189 189 189
200 200 200
196 196 196
180 180 180
160 160 160
176 176 176
183 183 183
178 178 178
164 164 164
190 190 190
215 215 215
227 227 227
214 214 214
189 189 189
161 161 161
138 138 138
143 143 143
155 155 155
162 162 162
159 159 159
148 148 148
160 160 160
175 175 175
198 198 198
222 222 222
228 228 228
210 210 210
183 183 183
155 155 155
168 168 168
195 195 195
218 218 218
225 225 225
208 208 208
168 168 168
171 171 171
164 164 164
169 169 169
169 169 169
159 159 159
173 173 173
178 178 178
173 173 173
168 168 168
196 196 196
220 220 220
228 228 228
210 210 210
184 184 184
173 173 173
183 183 183
182 182 182
169 169 169
157 157 157
177 177 177
197 197 197
207 207 207
200 200 200
181 181 181
183 183 183
203 203 203
212 212 212
203 203 203
181 181 181
156 156 156
156 156 156
163 163 163
181 181 181
190 190 190
186 186 186
172 172 172
161 161 161
176 176 176
182 182 182
199 199 199
202 202 202
191 191 191
170 170 170
145 145 145
161 161 161
185 185 185
204 204 204
209 209 209
196 196 196
187 187 187
191 191 191
182 182 182
164 164 164
142 142 142
155 155 155
169 169 169
175 175 175
170 170 170
172 172 172
201 201 201
230 230 230
244 244 244
218 218 218
189 189 189
160 160 160
172 172 172
176 176 176
170 170 170
158 158 158
185 185 185
209 209 209
222 222 222
213 213 213
190 190 190
192 192 192
188 188 188
187 187 187
181 181 181
164 164 164
152 152 152
168 168 168
180 180 180
203 203 203
217 217 217
211 211 211
190 190 190
164 164 164
167 167 167
172 172 172
171 171 171
174 174 174
166 166 166
159 159 159
161 161 161
154 154 154
166 166 166
180 180 180
183 183 183
175 175 175
197 197 197
202 202 202
192 192 192
172 172 172
147 147 147
144 144 144
157 157 157
162 162 162
157 157 157
165 165 165
191 191 191
213 213 213
219 219 219
205 205 205
181 181 181
169 169 169
185 185 185
190 190 190
183 183 183
166 166 166
181 181 181
203 203 203
215 215 215
207 207 207
190 190 190
201 201 201
197 197 197
180 180 180
157 157 157
142 142 142
155 155 155
171 171 171
187 187 187
214 214 214
234 234 234
224 224 224
198 198 198
170 170 170
150 150 150
154 154 154
150 150 150
145 145 145
160 160 160
172 172 172
175 175 175
168 168 168
152 152 152
153 153 153
156 156 156
180 180 180
193 193 193
197 197 197
188 188 188
169 169 169
145 145 145
147 147 147
151 151 151
145 145 145
138 138 138
160 160 160
178 178 178
188 188 188
190 190 190
181 181 181
163 163 163
171 171 171
187 187 187
192 192 192
184 184 184
167 167 167
167 167 167
185 185 185
193 193 193
187 187 187
185 185 185
195 195 195
191 191 191
176 176 176
154 154 154
131 131 131
149 149 149
164 164 164
181 181 181
206 206 206
221 221 221
214 214 214
192 192 192
166 166 166
160 160 160
147 147 147
129 129 129
144 144 144
164 164 164
177 177 177
180 180 180
172 172 172
155 155 155
155 155 155
166 166 166
176 176 176
176 176 176
180 180 180
173 173 173
156 156 156
158 158 158
171 171 171
175 175 175
169 169 169
154 154 154
171 171 171
192 192 192
204 204 204
200 200 200
183 183 183
160 160 160
162 162 162
176 176 176
181 181 181
175 175 175
159 159 159
155 155 155
162 162 162
166 166 166
162 162 162
169 169 169
177 177 177
174 174 174
162 162 162
164 164 164
159 159 159
147 147 147
149 149 149
166 166 166
185 185 185
194 194 194
190 190 190
185 185 185
191 191 191
183 183 183
166 166 166
144 144 144
140 140 140
159 159 159
171 171 171
174 174 174
166 166 166
170 170 170
182 182 182
184 184 184
179 179 179
154 154 154
157 157 157
151 151 151
151 151 151
174 174 174
190 190 190
196 196 196
187 187 187
169 169 169
172 172 172
193 193 193
205 205 205
201 201 201
184 184 184
161 161 161
146 146 146
158 158 158
162 162 162
156 156 156
161 161 161
179 179 179
189 189 189
186 186 186
172 172 172
151 151 151
154 154 154
170 170 170
187 187 187
194 194 194
187 187 187
170 170 170
147 147 147
145 145 145
159 159 159
166 166 166
182 182 182
202 202 202
210 210 210
200 200 200
179 179 179
153 153 153
128 128 128
145 145 145
156 156 156
158 158 158
167 167 167
192 192 192
209 209 209
211 211 211
196 196 196
129 129 129
131 131 131
139 139 139
157 157 157
181 181 181
199 199 199
205 205 205
195 195 195
175 175 175
163 163 163
181 181 181
191 191 191
188 188 188
174 174 174
153 153 153
135 135 135
135 135 135
141 141 141
149 149 149
176 176 176
198 198 198
212 212 212
208 208 208
189 189 189
164 164 164
161 161 161
188 188 188
211 211 211
223 223 223
211 211 211
188 188 188
161 161 161
132 132 132
132 132 132
159 159 159
185 185 185
205 205 205
214 214 214
203 203 203
181 181 181
155 155 155
137 137 137
143 143 143
161 161 161
175 175 175
183 183 183
204 204 204
230 230 230
234 234 234
210 210 210
115 115 115
132 132 132
144 144 144
153 153 153
176 176 176
193 193 193
199 199 199
190 190 190
171 171 171
147 147 147
161 161 161
179 179 179
189 189 189
187 187 187
173 173 173
152 152 152
147 147 147
153 153 153
161 161 161
187 187 187
210 210 210
223 223 223
218 218 218
196 196 196
169 169 169
166 166 166
196 196 196
225 225 225
251 251 251
225 225 225
195 195 195
166 166 166
137 137 137
126 126 126
152 152 152
175 175 175
193 193 193
199 199 199
191 191 191
172 172 172
171 171 171
161 161 161
156 156 156
181 181 181
200 200 200
207 207 207
219 219 219
224 224 224
227 227 227
206 206 206
113 113 113
130 130 130
144 144 144
160 160 160
168 168 168
176 176 176
180 180 180
173 173 173
158 158 158
146 146 146
172 172 172
194 194 194
207 207 207
204 204 204
187 187 187
163 163 163
151 151 151
158 158 158
166 166 166
194 194 194
221 221 221
236 236 236
218 218 218
191 191 191
164 164 164
162 162 162
190 190 190
214 214 214
227 227 227
214 214 214
189 189 189
162 162 162
144 144 144
131 131 131
138 138 138
157 157 157
171 171 171
176 176 176
181 181 181
194 194 194
194 194 194
182 182 182
165 165 165
193 193 193
218 218 218
230 230 230
222 222 222
225 225 225
205 205 205
188 188 188
112 112 112
139 139 139
163 163 163
182 182 182
194 194 194
192 192 192
178 178 178
157 157 157
155 155 155
149 149 149
174 174 174
197 197 197
211 211 211
207 207 207
189 189 189
169 169 169
167 167 167
155 155 155
161 161 161
187 187 187
210 210 210
220 220 220
208 208 208
185 185 185
158 158 158
149 149 149
173 173 173
190 190 190
198 198 198
190 190 190
173 173 173
168 168 168
161 161 161
146 146 146
137 137 137
149 149 149
153 153 153
169 169 169
193 193 193
210 210 210
210 210 210
194 194 194
170 170 170
192 192 192
217 217 217
228 228 228
214 214 214
205 205 205
191 191 191
169 169 169
120 120 120
147 147 147
174 174 174
198 198 198
214 214 214
211 211 211
193 193 193
176 176 176
179 179 179
171 171 171
166 166 166
185 185 185
197 197 197
194 194 194
184 184 184
194 194 194
191 191 191
176 176 176
154 154 154
170 170 170
187 187 187
193 193 193
186 186 186
168 168 168
149 149 149
137 137 137
150 150 150
163 163 163
168 168 168
163 163 163
176 176 176
179 179 179
171 171 171
154 154 154
141 141 141
153 153 153
157 157 157
169 169 169
192 192 192
209 209 209
209 209 209
193 193 193
170 170 170
179 179 179
197 197 197
204 204 204
195 195 195
179 179 179
169 169 169
152 152 152
126 126 126
149 149 149
176 176 176
200 200 200
217 217 217
215 215 215
195 195 195
194 194 194
198 198 198
187 187 187
167 167 167
165 165 165
174 174 174
175 175 175
198 198 198
212 212 212
207 207 207
189 189 189
164 164 164
148 148 148
160 160 160
164 164 164
167 167 167
172 172 172
166 166 166
152 152 152
140 140 140
151 151 151
153 153 153
163 163 163
176 176 176
179 179 179
171 171 171
155 155 155
147 147 147
162 162 162
174 174 174
176 176 176
179 179 179
192 192 192
192 192 192
180 180 180
160 160 160
158 158 158
172 172 172
177 177 177
170 170 170
156 156 156
147 147 147
144 144 144
132 132 132
142 142 142
167 167 167
188 188 188
201 201 201
199 199 199
197 197 197
201 201 201
205 205 205
193 193 193
172 172 172
159 159 159
169 169 169
176 176 176
199 199 199
213 213 213
209 209 209
189 189 189
173 173 173
152 152 152
145 145 145
162 162 162
177 177 177
182 182 182
176 176 176
161 161 161
165 165 165
179 179 179
183 183 183
175 175 175
166 166 166
168 168 168
161 161 161
156 156 156
169 169 169
177 177 177
191 191 191
194 194 194
183 183 183
168 168 168
168 168 168
159 159 159
155 155 155
150 150 150
144 144 144
148 148 148
143 143 143
144 144 144
149 149 149
145 145 145
131 131 131
153 153 153
173 173 173
186 186 186
192 192 192
206 206 206
205 205 205
192 192 192
196 196 196
185 185 185
166 166 166
172 172 172
183 183 183
184 184 184
186 186 186
197 197 197
194 194 194
187 187 187
173 173 173
165 165 165
163 163 163
161 161 161
176 176 176
181 181 181
175 175 175
161 161 161
186 186 186
206 206 206
212 212 212
200 200 200
178 178 178
152 152 152
148 148 148
169 169 169
184 184 184
189 189 189
198 198 198
201 201 201
189 189 189
168 168 168
164 164 164
179 179 179
183 183 183
176 176 176
160 160 160
152 152 152
154 154 154
147 147 147
142 142 142
139 139 139
141 141 141
168 168 168
192 192 192
211 211 211
213 213 213
198 198 198
197 197 197
182 182 182
176 176 176
168 168 168
156 156 156
176 176 176
188 188 188
188 188 188
185 185 185
185 185 185
179 179 179
176 176 176
168 168 168
177 177 177
175 175 175
163 163 163
165 165 165
169 169 169
169 169 169
170 170 170
199 199 199
227 227 227
241 241 241
218 218 218
189 189 189
160 160 160
151 151 151
173 173 173
190 190 190
195 195 195
190 190 190
192 192 192
182 182 182
162 162 162
184 184 184
203 203 203
210 210 210
200 200 200
178 178 178
178 178 178
180 180 180
171 171 171
154 154 154
132 132 132
145 145 145
174 174 174
201 201 201
225 225 225
228 228 228
207 207 207
180 180 180
166 166 166
151 151 151
145 145 145
154 154 154
169 169 169
180 180 180
180 180 180
191 191 191
191 191 191
178 178 178
158 158 158
169 169 169
178 178 178
176 176 176
164 164 164
171 171 171
187 187 187
192 192 192
184 184 184
198 198 198
225 225 225
237 237 237
216 216 216
188 188 188
160 160 160
146 146 146
167 167 167
182 182 182
187 187 187
179 179 179
174 174 174
165 165 165
166 166 166
194 194 194
219 219 219
231 231 231
214 214 214
188 188 188
200 200 200
203 203 203
190 190 190
169 169 169
144 144 144
142 142 142
169 169 169
195 195 195
214 214 214
217 217 217
200 200 200
176 176 176
165 165 165
158 158 158
158 158 158
179 179 179
193 193 193
194 194 194
182 182 182
184 184 184
183 183 183
172 172 172
153 153 153
161 161 161
169 169 169
167 167 167
159 159 159
182 182 182
201 201 201
207 207 207
197 197 197
191 191 191
202 202 202
208 208 208
197 197 197
176 176 176
150 150 150
145 145 145
153 153 153
165 165 165
169 169 169
163 163 163
150 150 150
143 143 143
164 164 164
191 191 191
215 215 215
224 224 224
210 210 210
193 193 193
212 212 212
216 216 216
200 200 200
176 176 176
149 149 149
132 132 132
156 156 156
177 177 177
191 191 191
196 196 196
200 200 200
189 189 189
188 188 188
179 179 179
173 173 173
199 199 199
220 220 220
223 223 223
203 203 203
178 178 178
166 166 166
157 157 157
140 140 140
158 158 158
172 172 172
176 176 176
170 170 170
182 182 182
200 200 200
207 207 207
209 209 209
201 201 201
182 182 182
179 179 179
171 171 171
156 156 156
165 165 165
169 169 169
163 163 163
149 149 149
146 146 146
141 141 141
135 135 135
144 144 144
158 158 158
177 177 177
194 194 194
200 200 200
191 191 191
188 188 188
206 206 206
209 209 209
195 195 195
173 173 173
148 148 148
116 116 116
141 141 141
169 169 169
197 197 197
220 220 220
227 227 227
209 209 209
205 205 205
193 193 193
178 178 178
208 208 208
237 237 237
242 242 242
213 213 213
184 184 184
154 154 154
136 136 136
140 140 140
160 160 160
174 174 174
178 178 178
172 172 172
170 170 170
186 186 186
194 194 194
203 203 203
197 197 197
178 178 178
155 155 155
148 148 148
170 170 170
186 186 186
191 191 191
183 183 183
166 166 166
164 164 164
164 164 164
154 154 154
161 161 161
181 181 181
192 192 192
191 191 191
177 177 177
174 174 174
173 173 173
186 186 186
188 188 188
178 178 178
160 160 160
157 157 157
114 114 114
143 143 143
172 172 172
201 201 201
229 229 229
239 239 239
215 215 215
207 207 207
195 195 195
173 173 173
199 199 199
220 220 220
223 223 223
204 204 204
178 178 178
150 150 150
121 121 121
134 134 134
152 152 152
165 165 165
169 169 169
163 163 163
152 152 152
164 164 164
178 178 178
185 185 185
180 180 180
165 165 165
144 144 144
156 156 156
180 180 180
199 199 199
205 205 205
195 195 195
181 181 181
193 193 193
193 193 193
179 179 179
173 173 173
197 197 197
212 212 212
210 210 210
192 192 192
175 175 175
185 185 185
197 197 197
195 195 195
180 180 180
158 158 158
158 158 158
126 126 126
138 138 138
165 165 165
191 191 191
211 211 211
216 216 216
202 202 202
193 193 193
183 183 183
164 164 164
179 179 179
193 193 193
194 194 194
183 183 183
162 162 162
138 138 138
117 117 117
141 141 141
163 163 163
178 178 178
184 184 184
179 179 179
163 163 163
142 142 142
155 155 155
161 161 161
157 157 157
145 145 145
129 129 129
155 155 155
179 179 179
197 197 197
204 204 204
194 194 194
202 202 202
221 221 221
220 220 220
200 200 200
175 175 175
199 199 199
216 216 216
214 214 214
195 195 195
178 178 178
203 203 203
221 221 221
218 218 218
197 197 197
171 171 171
150 150 150
147 147 147
162 162 162
169 169 169
171 171 171
185 185 185
188 188 188
179 179 179
170 170 170
163 163 163
157 157 157
174 174 174
184 184 184
181 181 181
168 168 168
148 148 148
125 125 125
124 124 124
150 150 150
174 174 174
192 192 192
199 199 199
192 192 192
174 174 174
151 151 151
130 130 130
134 134 134
131 131 131
131 131 131
125 125 125
146 146 146
168 168 168
183 183 183
188 188 188
182 182 182
211 211 211
240 240 240
237 237 237
209 209 209
179 179 179
188 188 188
201 201 201
199 199 199
184 184 184
182 182 182
209 209 209
231 231 231
227 227 227
202 202 202
188 188 188
173 173 173
164 164 164
181 181 181
190 190 190
186 186 186
171 171 171
159 159 159
152 152 152
145 145 145
139 139 139
146 146 146
161 161 161
169 169 169
167 167 167
156 156 156
138 138 138
116 116 116
131 131 131
154 154 154
174 174 174
193 193 193
201 201 201
193 193 193
175 175 175
151 151 151
155 155 155
159 159 159
153 153 153
151 151 151
143 143 143
131 131 131
149 149 149
161 161 161
165 165 165
176 176 176
202 202 202
222 222 222
221 221 221
200 200 200
193 193 193
213 213 213
217 217 217
201 201 201
177 177 177
174 174 174
197 197 197
212 212 212
210 210 210
220 220 220
214 214 214
192 192 192
172 172 172
193 193 193
203 203 203
198 198 198
181 181 181
157 157 157
138 138 138
137 137 137
129 129 129
129 129 129
142 142 142
148 148 148
147 147 147
137 137 137
136 136 136
134 134 134
146 146 146
172 172 172
196 196 196
211 211 211
210 210 210
192 192 192
168 168 168
168 168 168
183 183 183
188 188 188
181 181 181
166 166 166
157 157 157
141 141 141
155 155 155
163 163 163
180 180 180
192 192 192
190 190 190
194 194 194
194 194 194
180 180 180
202 202 202
228 228 228
234 234 234
211 211 211
184 184 184
157 157 157
176 176 176
188 188 188
216 216 216
240 240 240
228 228 228
200 200 200
171 171 171
191 191 191
201 201 201
196 196 196
179 179 179
159 159 159
167 167 167
165 165 165
154 154 154
137 137 137
119 119 119
124 124 124
141 141 141
155 155 155
162 162 162
160 160 160
153 153 153
182 182 182
211 211 211
237 237 237
233 233 233
206 206 206
177 177 177
188 188 188
209 209 209
218 218 218
205 205 205
182 182 182
163 163 163
148 148 148
165 165 165
176 176 176
201 201 201
219 219 219
216 216 216
196 196 196
171 171 171
169 169 169
195 195 195
216 216 216
221 221 221
204 204 204
179 179 179
156 156 156
155 155 155
182 182 182
207 207 207
223 223 223
216 216 216
193 193 193
161 161 161
177 177 177
185 185 185
181 181 181
167 167 167
183 183 183
194 194 194
192 192 192
177 177 177
156 156 156
131 131 131
136 136 136
159 159 159
176 176 176
185 185 185
182 182 182
169 169 169
181 181 181
209 209 209
233 233 233
230 230 230
205 205 205
176 176 176
198 198 198
227 227 227
246 246 246
221 221 221
192 192 192
168 168 168
150 150 150
165 165 165
182 182 182
211 211 211
236 236 236
232 232 232
205 205 205
177 177 177
171 171 171
182 182 182
205 205 205
217 217 217
209 209 209
188 188 188
162 162 162
145 145 145
167 167 167
186 186 186
195 195 195
191 191 191
175 175 175
177 177 177
183 183 183
176 176 176
160 160 160
178 178 178
202 202 202
218 218 218
214 214 214
194 194 194
168 168 168
141 141 141
145 145 145
170 170 170
191 191 191
202 202 202
198 198 198
181 181 181
169 169 169
191 191 191
206 206 206
204 204 204
188 188 188
167 167 167
195 195 195
220 220 220
232 232 232
215 215 215
190 190 190
179 179 179
159 159 159
156 156 156
177 177 177
203 203 203
221 221 221
218 218 218
198 198 198
183 183 183
198 198 198
199 199 199
217 217 217
236 236 236
223 223 223
196 196 196
168 168 168
158 158 158
180 180 180
194 194 194
196 196 196
184 184 184
164 164 164
185 185 185
191 191 191
184 184 184
167 167 167
182 182 182
208 208 208
228 228 228
223 223 223
199 199 199
172 172 172
143 143 143
147 147 147
172 172 172
193 193 193
205 205 205
201 201 201
183 183 183
160 160 160
167 167 167
177 177 177
176 176 176
179 179 179
172 172 172
179 179 179
197 197 197
203 203 203
193 193 193
191 191 191
179 179 179
161 161 161
149 149 149
162 162 162
182 182 182
194 194 194
192 192 192
179 179 179
200 200 200
222 222 222
224 224 224
209 209 209
223 223 223
214 214 214
191 191 191
164 164 164
171 171 171
197 197 197
218 218 218
221 221 221
204 204 204
178 178 178
181 181 181
187 187 187
180 180 180
164 164 164
174 174 174
197 197 197
212 212 212
208 208 208
190 190 190
165 165 165
138 138 138
140 140 140
163 163 163
182 182 182
192 192 192
189 189 189
187 187 187
178 178 178
161 161 161
169 169 169
183 183 183
187 187 187
179 179 179
164 164 164
169 169 169
173 173 173
178 178 178
185 185 185
193 193 193
189 189 189
173 173 173
151 151 151
157 157 157
165 165 165
166 166 166
176 176 176
204 204 204
228 228 228
231 231 231
208 208 208
197 197 197
194 194 194
191 191 191
177 177 177
174 174 174
202 202 202
227 227 227
232 232 232
210 210 210
182 182 182
167 167 167
171 171 171
166 166 166
167 167 167
183 183 183
190 190 190
186 186 186
184 184 184
171 171 171
150 150 150
131 131 131
152 152 152
169 169 169
177 177 177
188 188 188
208 208 208
214 214 214
201 201 201
178 178 178
165 165 165
179 179 179
195 195 195
199 199 199
188 188 188
168 168 168
156 156 156
184 184 184
208 208 208
223 223 223
214 214 214
192 192 192
173 173 173
164 164 164
152 152 152
155 155 155
168 168 168
192 192 192
209 209 209
211 211 211
195 195 195
192 192 192
205 205 205
202 202 202
186 186 186
167 167 167
192 192 192
211 211 211
213 213 213
198 198 198
174 174 174
146 146 146
150 150 150
154 154 154
178 178 178
198 198 198
206 206 206
198 198 198
178 178 178
154 154 154
130 130 130
146 146 146
171 171 171
193 193 193
206 206 206
203 203 203
225 225 225
235 235 235
215 215 215
187 187 187
168 168 168
194 194 194
216 216 216
222 222 222
206 206 206
181 181 181
161 161 161
191 191 191
220 220 220
249 249 249
230 230 230
200 200 200
201 201 201
189 189 189
167 167 167
142 142 142
152 152 152
171 171 171
183 183 183
184 184 184
173 173 173
189 189 189
201 201 201
198 198 198
182 182 182
163 163 163
172 172 172
185 185 185
187 187 187
177 177 177
158 158 158
133 133 133
144 144 144
154 154 154
181 181 181
206 206 206
222 222 222
216 216 216
194 194 194
168 168 168
140 140 140
155 155 155
183 183 183
210 210 210
231 231 231
225 225 225
217 217 217
225 225 225
209 209 209
195 195 195
184 184 184
197 197 197
220 220 220
226 226 226
209 209 209
183 183 183
157 157 157
185 185 185
211 211 211
227 227 227
218 218 218
223 223 223
226 226 226
206 206 206
180 180 180
152 152 152
130 130 130
146 146 146
155 155 155
156 156 156
156 156 156
174 174 174
183 183 183
181 181 181
176 176 176
182 182 182
178 178 178
163 163 163
159 159 159
151 151 151
136 136 136
147 147 147
160 160 160
165 165 165
188 188 188
217 217 217
243 243 243
231 231 231
202 202 202
173 173 173
144 144 144
155 155 155
184 184 184
212 212 212
234 234 234
227 227 227
201 201 201
199 199 199
217 217 217
221 221 221
204 204 204
185 185 185
203 203 203
207 207 207
195 195 195
173 173 173
148 148 148
169 169 169
188 188 188
197 197 197
203 203 203
228 228 228
232 232 232
209 209 209
182 182 182
153 153 153
149 149 149
167 167 167
178 178 178
178 178 178
168 168 168
152 152 152
160 160 160
176 176 176
196 196 196
206 206 206
199 199 199
180 180 180
172 172 172
161 161 161
143 143 143
155 155 155
169 169 169
174 174 174
191 191 191
211 211 211
224 224 224
218 218 218
195 195 195
168 168 168
140 140 140
147 147 147
173 173 173
196 196 196
209 209 209
212 212 212
207 207 207
202 202 202
228 228 228
234 234 234
212 212 212
184 184 184
178 178 178
181 181 181
172 172 172
156 156 156
155 155 155
172 172 172
180 180 180
185 185 185
211 211 211
228 228 228
219 219 219
196 196 196
172 172 172
146 146 146
162 162 162
184 184 184
198 198 198
199 199 199
186 186 186
164 164 164
157 157 157
183 183 183
206 206 206
218 218 218
209 209 209
189 189 189
187 187 187
174 174 174
153 153 153
154 154 154
168 168 168
173 173 173
184 184 184
201 201 201
204 204 204
192 192 192
177 177 177
155 155 155
135 135 135
133 133 133
158 158 158
186 186 186
214 214 214
235 235 235
225 225 225
199 199 199
213 213 213
217 217 217
201 201 201
177 177 177
151 151 151
153 153 153
157 157 157
165 165 165
172 172 172
194 194 194
206 206 206
202 202 202
218 218 218
243 243 243
228 228 228
200 200 200
171 171 171
148 148 148
168 168 168
191 191 191
208 208 208
209 209 209
193 193 193
170 170 170
153 153 153
179 179 179
200 200 200
210 210 210
203 203 203
193 193 193
191 191 191
177 177 177
156 156 156
145 145 145
158 158 158
163 163 163
167 167 167
180 180 180
182 182 182
173 173 173
161 161 161
151 151 151
134 134 134
127 127 127
156 156 156
184 184 184
210 210 210
229 229 229
221 221 221
197 197 197
188 188 188
190 190 190
180 180 180
161 161 161
138 138 138
155 155 155
174 174 174
185 185 185
184 184 184
206 206 206
223 223 223
217 217 217
204 204 204
218 218 218
211 211 211
190 190 190
164 164 164
175 175 175
177 177 177
186 186 186
200 200 200
201 201 201
187 187 187
166 166 166
142 142 142
164 164 164
181 181 181
188 188 188
183 183 183
183 183 183
182 182 182
169 169 169
150 150 150
168 168 168
174 174 174
170 170 170
157 157 157
154 154 154
156 156 156
152 152 152
151 151 151
142 142 142
135 135 135
143 143 143
160 160 160
171 171 171
192 192 192
203 203 203
198 198 198
181 181 181
160 160 160
161 161 161
154 154 154
139 139 139
138 138 138
163 163 163
183 183 183
196 196 196
195 195 195
203 203 203
218 218 218
213 213 213
192 192 192
189 189 189
185 185 185
170 170 170
183 183 183
199 199 199
203 203 203
191 191 191
181 181 181
181 181 181
171 171 171
153 153 153
133 133 133
153 153 153
167 167 167
173 173 173
168 168 168
165 165 165
164 164 164
153 153 153
153 153 153
186 186 186
194 194 194
189 189 189
172 172 172
155 155 155
149 149 149
144 144 144
155 155 155
158 158 158
153 153 153
161 161 161
183 183 183
198 198 198
200 200 200
187 187 187
171 171 171
159 159 159
140 140 140
133 133 133
127 127 127
115 115 115
137 137 137
161 161 161
181 181 181
193 193 193
192 192 192
186 186 186
196 196 196
193 193 193
177 177 177
160 160 160
157 157 157
168 168 168
194 194 194
216 216 216
222 222 222
205 205 205
180 180 180
157 157 157
149 149 149
134 134 134
148 148 148
171 171 171
189 189 189
197 197 197
191 191 191
173 173 173
150 150 150
145 145 145
168 168 168
195 195 195
204 204 204
198 198 198
179 179 179
163 163 163
156 156 156
154 154 154
167 167 167
170 170 170
164 164 164
174 174 174
200 200 200
222 222 222
225 225 225
205 205 205
178 178 178
150 150 150
152 152 152
148 148 148
136 136 136
123 123 123
134 134 134
150 150 150
168 168 168
178 178 178
177 177 177
166 166 166
169 169 169
167 167 167
156 156 156
145 145 145
140 140 140
167 167 167
193 193 193
214 214 214
219 219 219
204 204 204
179 179 179
152 152 152
141 141 141
141 141 141
155 155 155
181 181 181
203 203 203
213 213 213
204 204 204
184 184 184
158 158 158
150 150 150
175 175 175
189 189 189
198 198 198
192 192 192
175 175 175
161 161 161
155 155 155
156 156 156
169 169 169
173 173 173
166 166 166
176 176 176
204 204 204
229 229 229
232 232 232
209 209 209
181 181 181
176 176 176
182 182 182
176 176 176
161 161 161
140 140 140
151 151 151
156 156 156
151 151 151
156 156 156
155 155 155
147 147 147
164 164 164
175 175 175
176 176 176
167 167 167
150 150 150
157 157 157
179 179 179
195 195 195
198 198 198
188 188 188
168 168 168
158 158 158
167 167 167
167 167 167
157 157 157
180 180 180
201 201 201
211 211 211
203 203 203
183 183 183
168 168 168
169 169 169
171 171 171
173 173 173
180 180 180
175 175 175
161 161 161
151 151 151
153 153 153
159 159 159
162 162 162
165 165 165
159 159 159
168 168 168
192 192 192
210 210 210
211 211 211
196 196 196
181 181 181
202 202 202
210 210 210
201 201 201
181 181 181
156 156 156
163 163 163
168 168 168
163 163 163
150 150 150
133 133 133
157 157 157
179 179 179
192 192 192
194 194 194
182 182 182
162 162 162
140 140 140
158 158 158
170 170 170
172 172 172
164 164 164
158 158 158
178 178 178
191 191 191
190 190 190
178 178 178
168 168 168
186 186 186
193 193 193
187 187 187
175 175 175
189 189 189
190 190 190
179 179 179
151 151 151
156 156 156
152 152 152
141 141 141
162 162 162
179 179 179
187 187 187
182 182 182
167 167 167
164 164 164
177 177 177
180 180 180
183 183 183
184 184 184
174 174 174
193 193 193
221 221 221
237 237 237
220 220 220
193 193 193
164 164 164
166 166 166
171 171 171
166 166 166
152 152 152
136 136 136
161 161 161
184 184 184
199 199 199
201 201 201
188 188 188
167 167 167
142 142 142
144 144 144
156 156 156
168 168 168
170 170 170
168 168 168
191 191 191
207 207 207
207 207 207
191 191 191
168 168 168
163 163 163
169 169 169
164 164 164
185 185 185
201 201 201
203 203 203
189 189 189
125 125 125
132 132 132
138 138 138
153 153 153
179 179 179
201 201 201
212 212 212
206 206 206
186 186 186
186 186 186
204 204 204
210 210 210
197 197 197
175 175 175
164 164 164
193 193 193
219 219 219
235 235 235
219 219 219
192 192 192
164 164 164
159 159 159
164 164 164
159 159 159
147 147 147
132 132 132
156 156 156
177 177 177
191 191 191
192 192 192
181 181 181
165 165 165
157 157 157
150 150 150
171 171 171
185 185 185
189 189 189
180 180 180
192 192 192
208 208 208
208 208 208
192 192 192
168 168 168
150 150 150
142 142 142
161 161 161
183 183 183
198 198 198
200 200 200
187 187 187
140 140 140
155 155 155
163 163 163
161 161 161
186 186 186
212 212 212
229 229 229
219 219 219
194 194 194
200 200 200
227 227 227
238 238 238
216 216 216
187 187 187
159 159 159
179 179 179
199 199 199
208 208 208
199 199 199
179 179 179
154 154 154
145 145 145
149 149 149
145 145 145
134 134 134
141 141 141
144 144 144
162 162 162
172 172 172
174 174 174
176 176 176
178 178 178
169 169 169
155 155 155
177 177 177
193 193 193
197 197 197
187 187 187
180 180 180
193 193 193
193 193 193
181 181 181
185 185 185
176 176 176
159 159 159
150 150 150
170 170 170
182 182 182
184 184 184
173 173 173
156 156 156
174 174 174
184 184 184
182 182 182
182 182 182
206 206 206
219 219 219
211 211 211
190 190 190
200 200 200
227 227 227
238 238 238
216 216 216
188 188 188
159 159 159
159 159 159
173 173 173
179 179 179
173 173 173
162 162 162
162 162 162
160 160 160
165 165 165
161 161 161
154 154 154
166 166 166
169 169 169
163 163 163
149 149 149
167 167 167
179 179 179
181 181 181
172 172 172
170 170 170
187 187 187
193 193 193
191 191 191
182 182 182
163 163 163
170 170 170
187 187 187
206 206 206
211 211 211
199 199 199
176 176 176
150 150 150
156 156 156
160 160 160
161 161 161
162 162 162
165 165 165
185 185 185
197 197 197
195 195 195
181 181 181
186 186 186
194 194 194
190 190 190
173 173 173
186 186 186
205 205 205
210 210 210
198 198 198
176 176 176
150 150 150
161 161 161
179 179 179
189 189 189
186 186 186
187 187 187
187 187 187
179 179 179
186 186 186
181 181 181
171 171 171
187 187 187
192 192 192
183 183 183
165 165 165
160 160 160
171 171 171
173 173 173
164 164 164
188 188 188
211 211 211
222 222 222
210 210 210
187 187 187
160 160 160
169 169 169
197 197 197
221 221 221
230 230 230
211 211 211
185 185 185
172 172 172
179 179 179
174 174 174
161 161 161
154 154 154
165 165 165
185 185 185
197 197 197
203 203 203
202 202 202
187 187 187
167 167 167
163 163 163
151 151 151
164 164 164
178 178 178
181 181 181
173 173 173
156 156 156
152 152 152
178 178 178
202 202 202
217 217 217
212 212 212
206 206 206
206 206 206
190 190 190
198 198 198
192 192 192
181 181 181
199 199 199
205 205 205
195 195 195
174 174 174
150 150 150
154 154 154
156 156 156
166 166 166
196 196 196
225 225 225
248 248 248
224 224 224
195 195 195
165 165 165
168 168 168
193 193 193
215 215 215
221 221 221
206 206 206
181 181 181
187 187 187
195 195 195
190 190 190
174 174 174
161 161 161
