P3
50 50
255
162 162 162
173 173 173
174 174 174
165 165 165
165 165 165
156 156 156
148 148 148
152 152 152
151 151 151
154 154 154
149 149 149
137 137 137
147 147 147
166 166 166
179 179 179
181 181 181
172 172 172
164 164 164
164 164 164
155 155 155
138 138 138
143 143 143
153 153 153
155 155 155
148 148 148
140 140 140
168 168 168
196 196 196
220 220 220
229 229 229
212 212 212
186 186 186
157 157 157
141 141 141
137 137 137
127 127 127
138 138 138
152 152 152
160 160 160
165 165 165
160 160 160
155 155 155
166 166 166
168 168 168
160 160 160
144 144 144
124 124 124
112 112 112
122 122 122
144 144 144
173 173 173
186 186 186
187 187 187
176 176 176
164 164 164
157 157 157
172 172 172
178 178 178
178 178 178
183 183 183
176 176 176
160 160 160
161 161 161
184 184 184
200 200 200
203 203 203
191 191 191
177 177 177
177 177 177
166 166 166
148 148 148
157 157 157
168 168 168
170 170 170
163 163 163
147 147 147
168 168 168
196 196 196
220 220 220
229 229 229
211 211 211
185 185 185
165 165 165
170 170 170
165 165 165
152 152 152
154 154 154
171 171 171
182 182 182
188 188 188
182 182 182
166 166 166
167 167 167
169 169 169
161 161 161
145 145 145
125 125 125
130 130 130
140 140 140
153 153 153
174 174 174
187 187 187
188 188 188
177 177 177
158 158 158
174 174 174
192 192 192
200 200 200
202 202 202
210 210 210
200 200 200
179 179 179
167 167 167
192 192 192
212 212 212
215 215 215
200 200 200
180 180 180
180 180 180
169 169 169
151 151 151
163 163 163
175 175 175
178 178 178
169 169 169
153 153 153
158 158 158
182 182 182
200 200 200
205 205 205
194 194 194
174 174 174
191 191 191
199 199 199
192 192 192
174 174 174
162 162 162
182 182 182
197 197 197
205 205 205
197 197 197
178 178 178
159 159 159
160 160 160
153 153 153
139 139 139
125 125 125
143 143 143
154 154 154
158 158 158
165 165 165
176 176 176
177 177 177
167 167 167
156 156 156
182 182 182
203 203 203
212 212 212
218 218 218
230 230 230
215 215 215
189 189 189
163 163 163
187 187 187
205 205 205
208 208 208
194 194 194
172 172 172
172 172 172
162 162 162
145 145 145
160 160 160
172 172 172
174 174 174
166 166 166
165 165 165
162 162 162
161 161 161
174 174 174
178 178 178
170 170 170
189 189 189
214 214 214
227 227 227
214 214 214
190 190 190
162 162 162
182 182 182
198 198 198
207 207 207
199 199 199
179 179 179
154 154 154
156 156 156
158 158 158
151 151 151
138 138 138
149 149 149
161 161 161
164 164 164
159 159 159
157 157 157
158 158 158
150 150 150
153 153 153
178 178 178
198 198 198
206 206 206
214 214 214
224 224 224
211 211 211
186 186 186
165 165 165
173 173 173
185 185 185
187 187 187
177 177 177
180 180 180
174 174 174
158 158 158
148 148 148
162 162 162
168 168 168
164 164 164
174 174 174
182 182 182
179 179 179
166 166 166
147 147 147
149 149 149
172 172 172
194 194 194
222 222 222
241 241 241
223 223 223
195 195 195
166 166 166
171 171 171
186 186 186
193 193 193
186 186 186
170 170 170
166 166 166
180 180 180
183 183 183
174 174 174
157 157 157
146 146 146
158 158 158
162 162 162
186 186 186
180 180 180
165 165 165
144 144 144
143 143 143
164 164 164
180 180 180
187 187 187
193 193 193
200 200 200
192 192 192
173 173 173
189 189 189
200 200 200
196 196 196
180 180 180
189 189 189
195 195 195
187 187 187
169 169 169
146 146 146
159 159 159
165 165 165
162 162 162
180 180 180
189 189 189
186 186 186
172 172 172
151 151 151
149 149 149
175 175 175
197 197 197
210 210 210
218 218 218
208 208 208
186 186 186
159 159 159
152 152 152
165 165 165
170 170 170
166 166 166
158 158 158
181 181 181
198 198 198
203 203 203
192 192 192
171 171 171
146 146 146
163 163 163
179 179 179
210 210 210
202 202 202
182 182 182
157 157 157
145 145 145
163 163 163
174 174 174
175 175 175
168 168 168
172 172 172
166 166 166
182 182 182
207 207 207
223 223 223
217 217 217
195 195 195
191 191 191
197 197 197
189 189 189
170 170 170
147 147 147
148 148 148
153 153 153
158 158 158
176 176 176
184 184 184
181 181 181
168 168 168
175 175 175
171 171 171
168 168 168
188 188 188
198 198 198
194 194 194
184 184 184
167 167 167
162 162 162
166 166 166
159 159 159
145 145 145
141 141 141
162 162 162
187 187 187
205 205 205
210 210 210
198 198 198
175 175 175
154 154 154
179 179 179
200 200 200
222 222 222
212 212 212
189 189 189
162 162 162
159 159 159
156 156 156
167 167 167
168 168 168
159 159 159
155 155 155
173 173 173
183 183 183
210 210 210
228 228 228
221 221 221
197 197 197
180 180 180
185 185 185
178 178 178
162 162 162
140 140 140
138 138 138
150 150 150
158 158 158
161 161 161
169 169 169
173 173 173
193 193 193
203 203 203
198 198 198
180 180 180
168 168 168
176 176 176
173 173 173
161 161 161
170 170 170
185 185 185
189 189 189
181 181 181
163 163 163
145 145 145
161 161 161
180 180 180
196 196 196
200 200 200
189 189 189
169 169 169
159 159 159
186 186 186
209 209 209
212 212 212
204 204 204
183 183 183
181 181 181
187 187 187
181 181 181
165 165 165
152 152 152
145 145 145
156 156 156
173 173 173
182 182 182
196 196 196
208 208 208
203 203 203
185 185 185
161 161 161
165 165 165
161 161 161
150 150 150
133 133 133
156 156 156
175 175 175
186 186 186
185 185 185
173 173 173
185 185 185
211 211 211
227 227 227
218 218 218
194 194 194
167 167 167
162 162 162
162 162 162
159 159 159
183 183 183
201 201 201
206 206 206
195 195 195
174 174 174
149 149 149
157 157 157
165 165 165
176 176 176
179 179 179
171 171 171
155 155 155
155 155 155
180 180 180
202 202 202
189 189 189
183 183 183
183 183 183
205 205 205
215 215 215
205 205 205
184 184 184
158 158 158
131 131 131
149 149 149
164 164 164
172 172 172
173 173 173
181 181 181
178 178 178
165 165 165
180 180 180
190 190 190
188 188 188
174 174 174
153 153 153
173 173 173
197 197 197
213 213 213
212 212 212
194 194 194
187 187 187
213 213 213
231 231 231
221 221 221
196 196 196
168 168 168
170 170 170
170 170 170
160 160 160
184 184 184
203 203 203
208 208 208
197 197 197
176 176 176
155 155 155
175 175 175
187 187 187
187 187 187
176 176 176
157 157 157
148 148 148
149 149 149
165 165 165
182 182 182
162 162 162
163 163 163
192 192 192
218 218 218
234 234 234
219 219 219
193 193 193
164 164 164
136 136 136
134 134 134
147 147 147
159 159 159
165 165 165
162 162 162
151 151 151
177 177 177
201 201 201
216 216 216
212 212 212
192 192 192
167 167 167
180 180 180
208 208 208
232 232 232
230 230 230
205 205 205
177 177 177
198 198 198
209 209 209
203 203 203
184 184 184
188 188 188
197 197 197
193 193 193
176 176 176
174 174 174
189 189 189
194 194 194
185 185 185
166 166 166
164 164 164
186 186 186
201 201 201
202 202 202
188 188 188
166 166 166
143 143 143
143 143 143
144 144 144
157 157 157
134 134 134
160 160 160
187 187 187
211 211 211
223 223 223
212 212 212
196 196 196
177 177 177
153 153 153
144 144 144
167 167 167
185 185 185
194 194 194
188 188 188
172 172 172
183 183 183
210 210 210
231 231 231
225 225 225
200 200 200
172 172 172
177 177 177
203 203 203
222 222 222
221 221 221
200 200 200
174 174 174
174 174 174
181 181 181
177 177 177
185 185 185
210 210 210
226 226 226
218 218 218
194 194 194
167 167 167
168 168 168
171 171 171
164 164 164
164 164 164
165 165 165
186 186 186
201 201 201
202 202 202
188 188 188
166 166 166
140 140 140
139 139 139
144 144 144
141 141 141
123 123 123
149 149 149
172 172 172
191 191 191
217 217 217
231 231 231
217 217 217
191 191 191
163 163 163
157 157 157
184 184 184
208 208 208
222 222 222
213 213 213
190 190 190
178 178 178
202 202 202
217 217 217
213 213 213
193 193 193
168 168 168
163 163 163
184 184 184
197 197 197
196 196 196
182 182 182
161 161 161
148 148 148
161 161 161
173 173 173
190 190 190
219 219 219
248 248 248
230 230 230
201 201 201
171 171 171
143 143 143
146 146 146
164 164 164
174 174 174
174 174 174
174 174 174
187 187 187
187 187 187
176 176 176
156 156 156
152 152 152
167 167 167
173 173 173
169 169 169
109 109 109
136 136 136
165 165 165
193 193 193
221 221 221
239 239 239
221 221 221
194 194 194
165 165 165
162 162 162
191 191 191
219 219 219
241 241 241
225 225 225
197 197 197
168 168 168
181 181 181
192 192 192
189 189 189
175 175 175
154 154 154
144 144 144
160 160 160
169 169 169
169 169 169
176 176 176
174 174 174
171 171 171
188 188 188
195 195 195
203 203 203
208 208 208
222 222 222
215 215 215
192 192 192
166 166 166
144 144 144
146 146 146
163 163 163
173 173 173
174 174 174
164 164 164
165 165 165
165 165 165
156 156 156
149 149 149
173 173 173
193 193 193
202 202 202
196 196 196
102 102 102
130 130 130
157 157 157
183 183 183
204 204 204
213 213 213
204 204 204
183 183 183
176 176 176
165 165 165
185 185 185
209 209 209
223 223 223
213 213 213
191 191 191
173 173 173
182 182 182
179 179 179
166 166 166
152 152 152
134 134 134
126 126 126
147 147 147
173 173 173
194 194 194
206 206 206
201 201 201
188 188 188
212 212 212
223 223 223
211 211 211
208 208 208
196 196 196
189 189 189
173 173 173
155 155 155
166 166 166
167 167 167
159 159 159
163 163 163
163 163 163
154 154 154
140 140 140
139 139 139
132 132 132
160 160 160
188 188 188
214 214 214
230 230 230
218 218 218
91 91 91
117 117 117
142 142 142
163 163 163
179 179 179
185 185 185
192 192 192
206 206 206
204 204 204
187 187 187
168 168 168
186 186 186
195 195 195
189 189 189
173 173 173
186 186 186
196 196 196
193 193 193
177 177 177
168 168 168
157 157 157
139 139 139
157 157 157
186 186 186
213 213 213
234 234 234
225 225 225
199 199 199
223 223 223
243 243 243
222 222 222
194 194 194
183 183 183
164 164 164
169 169 169
173 173 173
181 181 181
183 183 183
174 174 174
172 172 172
165 165 165
157 157 157
144 144 144
128 128 128
133 133 133
162 162 162
191 191 191
219 219 219
240 240 240
224 224 224
100 100 100
118 118 118
132 132 132
141 141 141
152 152 152
181 181 181
208 208 208
230 230 230
226 226 226
202 202 202
174 174 174
181 181 181
194 194 194
194 194 194
182 182 182
186 186 186
197 197 197
194 194 194
198 198 198
195 195 195
180 180 180
158 158 158
158 158 158
187 187 187
216 216 216
240 240 240
229 229 229
201 201 201
211 211 211
223 223 223
211 211 211
187 187 187
162 162 162
170 170 170
185 185 185
190 190 190
187 187 187
189 189 189
190 190 190
196 196 196
187 187 187
183 183 183
169 169 169
149 149 149
127 127 127
155 155 155
181 181 181
203 203 203
215 215 215
207 207 207
109 109 109
129 129 129
144 144 144
153 153 153
154 154 154
181 181 181
209 209 209
230 230 230
226 226 226
202 202 202
174 174 174
185 185 185
199 199 199
199 199 199
186 186 186
175 175 175
184 184 184
205 205 205
224 224 224
220 220 220
198 198 198
171 171 171
152 152 152
177 177 177
200 200 200
213 213 213
208 208 208
189 189 189
188 188 188
194 194 194
187 187 187
183 183 183
180 180 180
174 174 174
191 191 191
196 196 196
187 187 187
185 185 185
205 205 205
212 212 212
213 213 213
209 209 209
190 190 190
165 165 165
141 141 141
150 150 150
162 162 162
179 179 179
186 186 186
182 182 182
112 112 112
133 133 133
149 149 149
159 159 159
160 160 160
170 170 170
193 193 193
207 207 207
205 205 205
188 188 188
164 164 164
177 177 177
190 190 190
190 190 190
182 182 182
173 173 173
183 183 183
211 211 211
235 235 235
229 229 229
203 203 203
175 175 175
164 164 164
191 191 191
215 215 215
225 225 225
211 211 211
186 186 186
161 161 161
175 175 175
198 198 198
212 212 212
207 207 207
189 189 189
183 183 183
188 188 188
180 180 180
185 185 185
204 204 204
213 213 213
237 237 237
229 229 229
202 202 202
174 174 174
154 154 154
165 165 165
166 166 166
158 158 158
157 157 157
154 154 154
110 110 110
130 130 130
146 146 146
155 155 155
156 156 156
152 152 152
169 169 169
179 179 179
178 178 178
169 169 169
163 163 163
174 174 174
181 181 181
194 194 194
197 197 197
186 186 186
175 175 175
199 199 199
215 215 215
212 212 212
193 193 193
183 183 183
183 183 183
196 196 196
223 223 223
237 237 237
218 218 218
190 190 190
161 161 161
186 186 186
214 214 214
237 237 237
228 228 228
202 202 202
173 173 173
170 170 170
164 164 164
173 173 173
189 189 189
209 209 209
229 229 229
223 223 223
199 199 199
172 172 172
160 160 160
171 171 171
173 173 173
165 165 165
161 161 161
173 173 173
102 102 102
120 120 120
135 135 135
143 143 143
144 144 144
137 137 137
150 150 150
173 173 173
190 190 190
196 196 196
188 188 188
198 198 198
209 209 209
202 202 202
200 200 200
188 188 188
168 168 168
177 177 177
188 188 188
201 201 201
208 208 208
201 201 201
208 208 208
198 198 198
208 208 208
216 216 216
204 204 204
182 182 182
176 176 176
184 184 184
211 211 211
232 232 232
225 225 225
200 200 200
172 172 172
147 147 147
142 142 142
153 153 153
169 169 169
190 190 190
202 202 202
199 199 199
183 183 183
160 160 160
157 157 157
168 168 168
170 170 170
161 161 161
183 183 183
199 199 199
109 109 109
127 127 127
140 140 140
147 147 147
145 145 145
136 136 136
161 161 161
187 187 187
209 209 209
219 219 219
207 207 207
215 215 215
233 233 233
222 222 222
196 196 196
178 178 178
160 160 160
158 158 158
183 183 183
203 203 203
211 211 211
214 214 214
223 223 223
210 210 210
185 185 185
188 188 188
181 181 181
179 179 179
198 198 198
205 205 205
196 196 196
205 205 205
201 201 201
184 184 184
161 161 161
141 141 141
138 138 138
130 130 130
149 149 149
166 166 166
174 174 174
172 172 172
160 160 160
142 142 142
146 146 146
156 156 156
157 157 157
171 171 171
197 197 197
219 219 219
117 117 117
137 137 137
151 151 151
158 158 158
157 157 157
147 147 147
163 163 163
191 191 191
214 214 214
225 225 225
211 211 211
214 214 214
231 231 231
220 220 220
195 195 195
167 167 167
145 145 145
151 151 151
174 174 174
191 191 191
197 197 197
208 208 208
215 215 215
204 204 204
181 181 181
165 165 165
162 162 162
189 189 189
212 212 212
221 221 221
209 209 209
185 185 185
174 174 174
162 162 162
161 161 161
167 167 167
163 163 163
151 151 151
144 144 144
160 160 160
169 169 169
168 168 168
157 157 157
140 140 140
136 136 136
143 143 143
143 143 143
171 171 171
198 198 198
221 221 221
133 133 133
139 139 139
154 154 154
161 161 161
160 160 160
150 150 150
156 156 156
181 181 181
200 200 200
208 208 208
198 198 198
196 196 196
206 206 206
200 200 200
181 181 181
157 157 157
137 137 137
137 137 137
156 156 156
169 169 169
174 174 174
187 187 187
193 193 193
185 185 185
167 167 167
145 145 145
160 160 160
186 186 186
207 207 207
216 216 216
205 205 205
182 182 182
157 157 157
164 164 164
181 181 181
189 189 189
184 184 184
168 168 168
147 147 147
162 162 162
171 171 171
170 170 170
159 159 159
142 142 142
147 147 147
154 154 154
152 152 152
162 162 162
186 186 186
202 202 202
160 160 160
164 164 164
158 158 158
155 155 155
154 154 154
144 144 144
142 142 142
163 163 163
177 177 177
182 182 182
176 176 176
171 171 171
178 178 178
173 173 173
160 160 160
153 153 153
159 159 159
156 156 156
146 146 146
154 154 154
154 154 154
162 162 162
166 166 166
160 160 160
146 146 146
127 127 127
149 149 149
172 172 172
188 188 188
194 194 194
186 186 186
169 169 169
153 153 153
174 174 174
194 194 194
203 203 203
197 197 197
178 178 178
155 155 155
155 155 155
163 163 163
162 162 162
152 152 152
158 158 158
173 173 173
180 180 180
175 175 175
161 161 161
165 165 165
177 177 177
186 186 186
191 191 191
182 182 182
165 165 165
142 142 142
132 132 132
130 130 130
140 140 140
151 151 151
155 155 155
150 150 150
144 144 144
149 149 149
153 153 153
157 157 157
168 168 168
176 176 176
173 173 173
160 160 160
151 151 151
151 151 151
144 144 144
138 138 138
133 133 133
122 122 122
110 110 110
132 132 132
151 151 151
163 163 163
168 168 168
162 162 162
148 148 148
149 149 149
173 173 173
193 193 193
202 202 202
196 196 196
178 178 178
154 154 154
148 148 148
149 149 149
154 154 154
161 161 161
177 177 177
197 197 197
207 207 207
199 199 199
180 180 180
156 156 156
171 171 171
208 208 208
214 214 214
202 202 202
179 179 179
153 153 153
154 154 154
159 159 159
155 155 155
144 144 144
127 127 127
122 122 122
126 126 126
144 144 144
157 157 157
161 161 161
175 175 175
184 184 184
180 180 180
166 166 166
146 146 146
141 141 141
134 134 134
121 121 121
115 115 115
121 121 121
127 127 127
134 134 134
135 135 135
137 137 137
140 140 140
136 136 136
134 134 134
160 160 160
183 183 183
200 200 200
204 204 204
193 193 193
172 172 172
147 147 147
153 153 153
160 160 160
178 178 178
187 187 187
188 188 188
213 213 213
227 227 227
216 216 216
192 192 192
164 164 164
187 187 187
216 216 216
225 225 225
209 209 209
184 184 184
164 164 164
181 181 181
188 188 188
183 183 183
168 168 168
147 147 147
122 122 122
122 122 122
140 140 140
152 152 152
156 156 156
172 172 172
180 180 180
177 177 177
163 163 163
144 144 144
139 139 139
131 131 131
131 131 131
137 137 137
144 144 144
150 150 150
159 159 159
159 159 159
151 151 151
136 136 136
126 126 126
140 140 140
168 168 168
195 195 195
217 217 217
223 223 223
207 207 207
182 182 182
154 154 154
149 149 149
174 174 174
197 197 197
210 210 210
206 206 206
210 210 210
224 224 224
213 213 213
190 190 190
166 166 166
193 193 193
205 205 205
211 211 211
199 199 199
177 177 177
182 182 182
205 205 205
218 218 218
209 209 209
188 188 188
162 162 162
134 134 134
112 112 112
129 129 129
140 140 140
145 145 145
159 159 159
166 166 166
163 163 163
152 152 152
139 139 139
139 139 139
153 153 153
160 160 160
159 159 159
164 164 164
168 168 168
180 180 180
180 180 180
170 170 170
152 152 152
152 152 152
156 156 156
167 167 167
193 193 193
215 215 215
221 221 221
205 205 205
180 180 180
153 153 153
152 152 152
180 180 180
204 204 204
221 221 221
215 215 215
194 194 194
201 201 201
194 194 194
176 176 176
160 160 160
185 185 185
184 184 184
190 190 190
183 183 183
166 166 166
192 192 192
221 221 221
247 247 247
227 227 227
198 198 198
169 169 169
146 146 146
131 131 131
112 112 112
122 122 122
128 128 128
140 140 140
145 145 145
143 143 143
134 134 134
137 137 137
161 161 161
179 179 179
189 189 189
187 187 187
176 176 176
180 180 180
193 193 193
194 194 194
182 182 182
167 167 167
175 175 175
180 180 180
174 174 174
179 179 179
195 195 195
199 199 199
188 188 188
168 168 168
154 154 154
156 156 156
174 174 174
196 196 196
209 209 209
205 205 205
187 187 187
174 174 174
169 169 169
156 156 156
147 147 147
168 168 168
193 193 193
200 200 200
191 191 191
173 173 173
189 189 189
215 215 215
232 232 232
220 220 220
194 194 194
177 177 177
167 167 167
149 149 149
127 127 127
110 110 110
107 107 107
117 117 117
122 122 122
120 120 120
122 122 122
150 150 150
177 177 177
202 202 202
218 218 218
214 214 214
194 194 194
180 180 180
194 194 194
195 195 195
190 190 190
194 194 194
192 192 192
199 199 199
192 192 192
173 173 173
170 170 170
172 172 172
165 165 165
149 149 149
153 153 153
155 155 155
159 159 159
177 177 177
186 186 186
183 183 183
170 170 170
150 150 150
152 152 152
153 153 153
152 152 152
175 175 175
189 189 189
195 195 195
187 187 187
169 169 169
174 174 174
193 193 193
203 203 203
196 196 196
194 194 194
195 195 195
182 182 182
161 161 161
137 137 137
138 138 138
133 133 133
133 133 133
139 139 139
147 147 147
147 147 147
156 156 156
185 185 185
214 214 214
240 240 240
232 232 232
204 204 204
175 175 175
181 181 181
191 191 191
212 212 212
217 217 217
203 203 203
207 207 207
198 198 198
178 178 178
154 154 154
144 144 144
139 139 139
144 144 144
149 149 149
150 150 150
166 166 166
175 175 175
173 173 173
162 162 162
147 147 147
145 145 145
154 154 154
156 156 156
150 150 150
172 172 172
173 173 173
178 178 178
172 172 172
157 157 157
152 152 152
167 167 167
173 173 173
186 186 186
200 200 200
201 201 201
187 187 187
165 165 165
164 164 164
166 166 166
160 160 160
148 148 148
166 166 166
176 176 176
176 176 176
165 165 165
181 181 181
207 207 207
226 226 226
221 221 221
198 198 198
171 171 171
168 168 168
196 196 196
219 219 219
226 226 226
208 208 208
198 198 198
190 190 190
172 172 172
149 149 149
132 132 132
153 153 153
169 169 169
176 176 176
172 172 172
174 174 174
183 183 183
181 181 181
169 169 169
149 149 149
140 140 140
154 154 154
170 170 170
178 178 178
175 175 175
151 151 151
155 155 155
150 150 150
138 138 138
142 142 142
139 139 139
158 158 158
179 179 179
191 191 191
191 191 191
179 179 179
174 174 174
189 189 189
193 193 193
184 184 184
167 167 167
190 190 190
205 205 205
204 204 204
189 189 189
167 167 167
187 187 187
199 199 199
196 196 196
181 181 181
158 158 158
162 162 162
186 186 186
205 205 205
209 209 209
197 197 197
178 178 178
172 172 172
157 157 157
137 137 137
146 146 146
170 170 170
190 190 190
199 199 199
195 195 195
178 178 178
180 180 180
178 178 178
166 166 166
147 147 147
147 147 147
172 172 172
192 192 192
204 204 204
199 199 199
126 126 126
129 129 129
144 144 144
158 158 158
164 164 164
161 161 161
149 149 149
162 162 162
172 172 172
177 177 177
190 190 190
190 190 190
210 210 210
216 216 216
203 203 203
179 179 179
207 207 207
231 231 231
230 230 230
206 206 206
178 178 178
162 162 162
170 170 170
168 168 168
157 157 157
165 165 165
181 181 181
187 187 187
181 181 181
184 184 184
176 176 176
158 158 158
148 148 148
137 137 137
125 125 125
153 153 153
179 179 179
202 202 202
215 215 215
208 208 208
188 188 188
167 167 167
165 165 165
157 157 157
163 163 163
160 160 160
182 182 182
207 207 207
223 223 223
216 216 216
112 112 112
136 136 136
157 157 157
173 173 173
180 180 180
176 176 176
162 162 162
142 142 142
161 161 161
183 183 183
198 198 198
199 199 199
217 217 217
224 224 224
208 208 208
191 191 191
210 210 210
236 236 236
235 235 235
208 208 208
179 179 179
160 160 160
175 175 175
181 181 181
176 176 176
183 183 183
205 205 205
214 214 214
205 205 205
183 183 183
157 157 157
153 153 153
146 146 146
132 132 132
132 132 132
159 159 159
184 184 184
205 205 205
213 213 213
205 205 205
186 186 186
161 161 161
150 150 150
165 165 165
172 172 172
169 169 169
181 181 181
205 205 205
220 220 220
214 214 214
116 116 116
140 140 140
163 163 163
180 180 180
187 187 187
183 183 183
168 168 168
147 147 147
157 157 157
178 178 178
192 192 192
193 193 193
203 203 203
209 209 209
197 197 197
201 201 201
221 221 221
221 221 221
211 211 211
193 193 193
169 169 169
173 173 173
191 191 191
199 199 199
192 192 192
192 192 192
219 219 219
234 234 234
219 219 219
192 192 192
164 164 164
146 146 146
140 140 140
141 141 141
137 137 137
166 166 166
195 195 195
222 222 222
237 237 237
219 219 219
191 191 191
163 163 163
149 149 149
164 164 164
171 171 171
181 181 181
192 192 192
190 190 190
199 199 199
195 195 195
113 113 113
137 137 137
159 159 159
175 175 175
182 182 182
178 178 178
164 164 164
143 143 143
145 145 145
163 163 163
174 174 174
175 175 175
180 180 180
184 184 184
175 175 175
196 196 196
214 214 214
214 214 214
196 196 196
172 172 172
152 152 152
177 177 177
196 196 196
205 205 205
197 197 197
188 188 188
212 212 212
223 223 223
212 212 212
188 188 188
161 161 161
143 143 143
146 146 146
147 147 147
140 140 140
165 165 165
192 192 192
217 217 217
230 230 230
214 214 214
189 189 189
161 161 161
141 141 141
154 154 154
164 164 164
184 184 184
196 196 196
194 194 194
179 179 179
170 170 170
136 136 136
141 141 141
146 146 146
160 160 160
166 166 166
163 163 163
160 160 160
161 161 161
152 152 152
146 146 146
151 151 151
152 152 152
154 154 154
156 156 156
159 159 159
179 179 179
192 192 192
192 192 192
179 179 179
159 159 159
147 147 147
170 170 170
187 187 187
194 194 194
188 188 188
181 181 181
190 190 190
197 197 197
190 190 190
173 173 173
149 149 149
138 138 138
145 145 145
145 145 145
138 138 138
154 154 154
177 177 177
196 196 196
203 203 203
194 194 194
175 175 175
150 150 150
125 125 125
139 139 139
166 166 166
191 191 191
211 211 211
215 215 215
201 201 201
177 177 177
157 157 157
163 163 163
164 164 164
177 177 177
181 181 181
173 173 173
174 174 174
175 175 175
169 169 169
173 173 173
167 167 167
153 153 153
133 133 133
135 135 135
141 141 141
156 156 156
165 165 165
165 165 165
156 156 156
140 140 140
134 134 134
154 154 154
168 168 168
180 180 180
192 192 192
191 191 191
178 178 178
169 169 169
164 164 164
151 151 151
132 132 132
128 128 128
136 136 136
136 136 136
130 130 130
136 136 136
156 156 156
169 169 169
174 174 174
168 168 168
154 154 154
148 148 148
148 148 148
144 144 144
173 173 173
202 202 202
228 228 228
237 237 237
214 214 214
185 185 185
173 173 173
179 179 179
184 184 184
202 202 202
207 207 207
195 195 195
178 178 178
187 187 187
192 192 192
198 198 198
189 189 189
171 171 171
149 149 149
141 141 141
134 134 134
130 130 130
137 137 137
137 137 137
130 130 130
124 124 124
123 123 123
135 135 135
158 158 158
177 177 177
189 189 189
188 188 188
175 175 175
155 155 155
137 137 137
131 131 131
125 125 125
114 114 114
121 121 121
121 121 121
115 115 115
115 115 115
131 131 131
141 141 141
145 145 145
150 150 150
168 168 168
177 177 177
177 177 177
165 165 165
170 170 170
197 197 197
220 220 220
226 226 226
208 208 208
182 182 182
180 180 180
187 187 187
195 195 195
218 218 218
226 226 226
209 209 209
185 185 185
205 205 205
212 212 212
215 215 215
204 204 204
181 181 181
167 167 167
152 152 152
144 144 144
129 129 129
139 139 139
151 151 151
156 156 156
152 152 152
147 147 147
160 160 160
165 165 165
165 165 165
175 175 175
174 174 174
163 163 163
145 145 145
154 154 154
155 155 155
147 147 147
132 132 132
120 120 120
134 134 134
141 141 141
141 141 141
134 134 134
130 130 130
143 143 143
169 169 169
192 192 192
206 206 206
205 205 205
188 188 188
165 165 165
180 180 180
196 196 196
199 199 199
188 188 188
168 168 168
175 175 175
182 182 182
192 192 192
214 214 214
221 221 221
206 206 206
188 188 188
209 209 209
217 217 217
213 213 213
203 203 203
184 184 184
177 177 177
161 161 161
145 145 145
140 140 140
162 162 162
178 178 178
184 184 184
179 179 179
168 168 168
185 185 185
191 191 191
185 185 185
168 168 168
153 153 153
145 145 145
162 162 162
173 173 173
174 174 174
165 165 165
148 148 148
143 143 143
160 160 160
170 170 170
170 170 170
160 160 160
144 144 144
152 152 152
181 181 181
209 209 209
232 232 232
229 229 229
204 204 204
176 176 176
174 174 174
180 180 180
175 175 175
163 163 163
159 159 159
161 161 161
167 167 167
178 178 178
194 194 194
198 198 198
188 188 188
179 179 179
197 197 197
202 202 202
195 195 195
187 187 187
183 183 183
176 176 176
160 160 160
139 139 139
155 155 155
180 180 180
201 201 201
211 211 211
203 203 203
183 183 183
203 203 203
213 213 213
204 204 204
183 183 183
157 157 157
153 153 153
173 173 173
185 185 185
186 186 186
175 175 175
157 157 157
162 162 162
184 184 184
197 197 197
197 197 197
184 184 184
163 163 163
153 153 153
182 182 182
210 210 210
235 235 235
232 232 232
206 206 206
177 177 177
195 195 195
204 204 204
197 197 197
178 178 178
166 166 166
143 143 143
168 168 168
190 190 190
202 202 202
200 200 200
184 184 184
162 162 162
175 175 175
179 179 179
172 172 172
167 167 167
172 172 172
166 166 166
151 151 151
133 133 133
161 161 161
190 190 190
215 215 215
231 231 231
218 218 218
192 192 192
209 209 209
220 220 220
209 209 209
186 186 186
160 160 160
154 154 154
174 174 174
187 187 187
188 188 188
177 177 177
158 158 158
175 175 175
201 201 201
221 221 221
222 222 222
202 202 202
176 176 176
148 148 148
171 171 171
195 195 195
210 210 210
208 208 208
191 191 191
184 184 184
207 207 207
218 218 218
209 209 209
187 187 187
175 175 175
153 153 153
181 181 181
208 208 208
229 229 229
224 224 224
201 201 201
188 188 188
187 187 187
175 175 175
156 156 156
149 149 149
152 152 152
148 148 148
135 135 135
136 136 136
159 159 159
186 186 186
210 210 210
223 223 223
213 213 213
189 189 189
197 197 197
205 205 205
197 197 197
178 178 178
154 154 154
149 149 149
168 168 168
180 180 180
181 181 181
173 173 173
172 172 172
178 178 178
205 205 205
229 229 229
229 229 229
206 206 206
178 178 178
159 159 159
155 155 155
171 171 171
181 181 181
180 180 180
169 169 169
181 181 181
202 202 202
212 212 212
204 204 204
183 183 183
173 173 173
154 154 154
183 183 183
212 212 212
236 236 236
230 230 230
204 204 204
213 213 213
213 213 213
195 195 195
171 171 171
144 144 144
138 138 138
133 133 133
138 138 138
151 151 151
157 157 157
172 172 172
191 191 191
199 199 199
192 192 192
174 174 174
175 175 175
181 181 181
176 176 176
161 161 161
140 140 140
158 158 158
173 173 173
180 180 180
189 189 189
202 202 202
200 200 200
185 185 185
194 194 194
210 210 210
211 211 211
194 194 194
184 184 184
169 169 169
169 169 169
159 159 159
152 152 152
156 156 156
168 168 168
171 171 171
184 184 184
191 191 191
185 185 185
170 170 170
161 161 161
151 151 151
174 174 174
197 197 197
213 213 213
210 210 210
205 205 205
228 228 228
227 227 227
205 205 205
177 177 177
149 149 149
138 138 138
133 133 133
146 146 146
160 160 160
167 167 167
164 164 164
165 165 165
171 171 171
166 166 166
153 153 153
150 150 150
154 154 154
150 150 150
144 144 144
153 153 153
178 178 178
198 198 198
208 208 208
207 207 207
229 229 229
226 226 226
202 202 202
175 175 175
184 184 184
184 184 184
188 188 188
179 179 179
173 173 173
173 173 173
163 163 163
146 146 146
162 162 162
176 176 176
179 179 179
172 172 172
165 165 165
162 162 162
162 162 162
153 153 153
159 159 159
178 178 178
189 189 189
187 187 187
183 183 183
198 198 198
217 217 217
217 217 217
198 198 198
173 173 173
145 145 145
131 131 131
133 133 133
146 146 146
160 160 160
167 167 167
164 164 164
152 152 152
150 150 150
159 159 159
159 159 159
150 150 150
134 134 134
138 138 138
157 157 157
170 170 170
189 189 189
216 216 216
233 233 233
220 220 220
238 238 238
233 233 233
206 206 206
177 177 177
157 157 157
169 169 169
171 171 171
164 164 164
167 167 167
167 167 167
158 158 158
141 141 141
160 160 160
173 173 173
176 176 176
169 169 169
154 154 154
163 163 163
163 163 163
154 154 154
159 159 159
178 178 178
189 189 189
187 187 187
174 174 174
180 180 180
192 192 192
192 192 192
179 179 179
159 159 159
135 135 135
118 118 118
127 127 127
143 143 143
153 153 153
157 157 157
155 155 155
145 145 145
162 162 162
171 171 171
171 171 171
161 161 161
144 144 144
145 145 145
165 165 165
179 179 179
189 189 189
215 215 215
231 231 231
219 219 219
214 214 214
212 212 212
194 194 194
169 169 169
142 142 142
147 147 147
149 149 149
145 145 145
153 153 153
153 153 153
145 145 145
146 146 146
156 156 156
160 160 160
163 163 163
157 157 157
146 146 146
154 154 154
154 154 154
146 146 146
