P3
50 50
255
180 180 180
194 194 194
195 195 195
182 182 182
162 162 162
138 138 138
133 133 133
141 141 141
153 153 153
157 157 157
152 152 152
153 153 153
153 153 153
174 174 174
188 188 188
191 191 191
180 180 180
185 185 185
185 185 185
173 173 173
154 154 154
160 160 160
172 172 172
175 175 175
167 167 167
150 150 150
157 157 157
181 181 181
198 198 198
203 203 203
192 192 192
172 172 172
147 147 147
140 140 140
136 136 136
128 128 128
149 149 149
166 166 166
175 175 175
173 173 173
162 162 162
178 178 178
193 193 193
196 196 196
185 185 185
165 165 165
141 141 141
129 129 129
139 139 139
159 159 159
194 194 194
212 212 212
213 213 213
197 197 197
173 173 173
146 146 146
154 154 154
165 165 165
181 181 181
186 186 186
179 179 179
163 163 163
169 169 169
194 194 194
215 215 215
219 219 219
203 203 203
203 203 203
203 203 203
188 188 188
166 166 166
177 177 177
193 193 193
196 196 196
185 185 185
165 165 165
157 157 157
180 180 180
198 198 198
203 203 203
192 192 192
172 172 172
164 164 164
169 169 169
164 164 164
151 151 151
167 167 167
188 188 188
201 201 201
199 199 199
183 183 183
180 180 180
195 195 195
198 198 198
186 186 186
166 166 166
143 143 143
149 149 149
161 161 161
169 169 169
195 195 195
214 214 214
216 216 216
199 199 199
174 174 174
155 155 155
170 170 170
185 185 185
207 207 207
215 215 215
204 204 204
182 182 182
175 175 175
204 204 204
233 233 233
241 241 241
215 215 215
208 208 208
208 208 208
192 192 192
169 169 169
185 185 185
203 203 203
207 207 207
194 194 194
172 172 172
148 148 148
169 169 169
184 184 184
188 188 188
179 179 179
172 172 172
190 190 190
198 198 198
191 191 191
173 173 173
178 178 178
203 203 203
220 220 220
217 217 217
196 196 196
170 170 170
183 183 183
186 186 186
176 176 176
158 158 158
144 144 144
165 165 165
179 179 179
184 184 184
183 183 183
198 198 198
199 199 199
186 186 186
165 165 165
162 162 162
177 177 177
197 197 197
225 225 225
243 243 243
221 221 221
192 192 192
171 171 171
198 198 198
221 221 221
226 226 226
207 207 207
196 196 196
196 196 196
183 183 183
162 162 162
182 182 182
198 198 198
201 201 201
190 190 190
169 169 169
154 154 154
151 151 151
162 162 162
165 165 165
161 161 161
188 188 188
212 212 212
224 224 224
213 213 213
189 189 189
178 178 178
203 203 203
220 220 220
217 217 217
196 196 196
170 170 170
163 163 163
165 165 165
157 157 157
142 142 142
150 150 150
172 172 172
188 188 188
194 194 194
164 164 164
174 174 174
175 175 175
165 165 165
149 149 149
168 168 168
180 180 180
194 194 194
220 220 220
233 233 233
216 216 216
190 190 190
168 168 168
180 180 180
195 195 195
198 198 198
187 187 187
175 175 175
174 174 174
164 164 164
160 160 160
167 167 167
180 180 180
183 183 183
174 174 174
160 160 160
159 159 159
149 149 149
137 137 137
140 140 140
164 164 164
193 193 193
220 220 220
237 237 237
221 221 221
193 193 193
167 167 167
188 188 188
200 200 200
198 198 198
183 183 183
160 160 160
149 149 149
159 159 159
162 162 162
155 155 155
148 148 148
169 169 169
185 185 185
190 190 190
194 194 194
188 188 188
171 171 171
149 149 149
160 160 160
182 182 182
197 197 197
199 199 199
197 197 197
204 204 204
195 195 195
176 176 176
193 193 193
205 205 205
201 201 201
183 183 183
163 163 163
167 167 167
161 161 161
164 164 164
172 172 172
170 170 170
159 159 159
159 159 159
154 154 154
160 160 160
158 158 158
147 147 147
137 137 137
135 135 135
158 158 158
184 184 184
206 206 206
216 216 216
207 207 207
185 185 185
159 159 159
165 165 165
174 174 174
173 173 173
161 161 161
163 163 163
172 172 172
173 173 173
176 176 176
169 169 169
152 152 152
157 157 157
171 171 171
186 186 186
223 223 223
213 213 213
189 189 189
162 162 162
163 163 163
186 186 186
202 202 202
204 204 204
191 191 191
175 175 175
169 169 169
185 185 185
213 213 213
233 233 233
225 225 225
199 199 199
171 171 171
168 168 168
162 162 162
166 166 166
174 174 174
172 172 172
161 161 161
142 142 142
150 150 150
157 157 157
154 154 154
157 157 157
163 163 163
160 160 160
150 150 150
166 166 166
182 182 182
189 189 189
183 183 183
167 167 167
173 173 173
176 176 176
169 169 169
153 153 153
160 160 160
179 179 179
190 190 190
189 189 189
181 181 181
173 173 173
156 156 156
159 159 159
186 186 186
210 210 210
251 251 251
227 227 227
197 197 197
168 168 168
157 157 157
178 178 178
192 192 192
193 193 193
182 182 182
162 162 162
158 158 158
187 187 187
216 216 216
241 241 241
229 229 229
202 202 202
173 173 173
160 160 160
155 155 155
159 159 159
166 166 166
164 164 164
153 153 153
159 159 159
158 158 158
149 149 149
161 161 161
178 178 178
186 186 186
182 182 182
167 167 167
158 158 158
167 167 167
167 167 167
158 158 158
181 181 181
199 199 199
205 205 205
194 194 194
173 173 173
165 165 165
186 186 186
198 198 198
197 197 197
182 182 182
167 167 167
160 160 160
164 164 164
194 194 194
223 223 223
227 227 227
215 215 215
191 191 191
168 168 168
174 174 174
169 169 169
171 171 171
172 172 172
164 164 164
147 147 147
151 151 151
177 177 177
200 200 200
214 214 214
209 209 209
189 189 189
168 168 168
178 178 178
178 178 178
167 167 167
150 150 150
157 157 157
176 176 176
187 187 187
187 187 187
174 174 174
172 172 172
192 192 192
202 202 202
197 197 197
179 179 179
176 176 176
187 187 187
187 187 187
175 175 175
196 196 196
221 221 221
231 231 231
213 213 213
186 186 186
161 161 161
181 181 181
192 192 192
190 190 190
177 177 177
163 163 163
174 174 174
174 174 174
188 188 188
213 213 213
197 197 197
191 191 191
174 174 174
187 187 187
194 194 194
188 188 188
171 171 171
148 148 148
141 141 141
127 127 127
140 140 140
159 159 159
176 176 176
185 185 185
182 182 182
168 168 168
182 182 182
194 194 194
193 193 193
180 180 180
159 159 159
174 174 174
198 198 198
215 215 215
214 214 214
195 195 195
173 173 173
194 194 194
204 204 204
198 198 198
181 181 181
185 185 185
199 199 199
198 198 198
184 184 184
198 198 198
224 224 224
235 235 235
215 215 215
188 188 188
166 166 166
189 189 189
204 204 204
205 205 205
190 190 190
168 168 168
177 177 177
178 178 178
171 171 171
189 189 189
168 168 168
164 164 164
177 177 177
197 197 197
205 205 205
197 197 197
178 178 178
155 155 155
135 135 135
126 126 126
145 145 145
158 158 158
164 164 164
160 160 160
153 153 153
164 164 164
185 185 185
198 198 198
197 197 197
183 183 183
161 161 161
181 181 181
210 210 210
236 236 236
233 233 233
207 207 207
178 178 178
182 182 182
190 190 190
186 186 186
171 171 171
183 183 183
196 196 196
195 195 195
182 182 182
185 185 185
205 205 205
211 211 211
199 199 199
177 177 177
176 176 176
203 203 203
226 226 226
227 227 227
205 205 205
178 178 178
171 171 171
171 171 171
161 161 161
162 162 162
138 138 138
150 150 150
174 174 174
192 192 192
200 200 200
203 203 203
195 195 195
176 176 176
152 152 152
144 144 144
167 167 167
185 185 185
193 193 193
187 187 187
171 171 171
169 169 169
190 190 190
202 202 202
199 199 199
183 183 183
160 160 160
178 178 178
205 205 205
225 225 225
223 223 223
202 202 202
175 175 175
162 162 162
169 169 169
165 165 165
180 180 180
203 203 203
216 216 216
210 210 210
189 189 189
165 165 165
179 179 179
182 182 182
175 175 175
158 158 158
176 176 176
203 203 203
225 225 225
226 226 226
205 205 205
178 178 178
155 155 155
155 155 155
147 147 147
134 134 134
116 116 116
140 140 140
162 162 162
190 190 190
215 215 215
229 229 229
215 215 215
190 190 190
163 163 163
157 157 157
184 184 184
207 207 207
220 220 220
211 211 211
189 189 189
165 165 165
184 184 184
195 195 195
192 192 192
178 178 178
156 156 156
164 164 164
186 186 186
199 199 199
198 198 198
183 183 183
162 162 162
147 147 147
160 160 160
165 165 165
185 185 185
211 211 211
228 228 228
219 219 219
195 195 195
168 168 168
151 151 151
153 153 153
148 148 148
151 151 151
165 165 165
188 188 188
203 203 203
204 204 204
190 190 190
167 167 167
145 145 145
158 158 158
164 164 164
160 160 160
106 106 106
135 135 135
164 164 164
192 192 192
219 219 219
235 235 235
219 219 219
193 193 193
164 164 164
161 161 161
190 190 190
218 218 218
238 238 238
224 224 224
197 197 197
168 168 168
168 168 168
177 177 177
174 174 174
162 162 162
147 147 147
145 145 145
161 161 161
170 170 170
170 170 170
173 173 173
171 171 171
170 170 170
187 187 187
193 193 193
186 186 186
201 201 201
213 213 213
207 207 207
187 187 187
162 162 162
135 135 135
142 142 142
160 160 160
172 172 172
174 174 174
166 166 166
176 176 176
177 177 177
167 167 167
149 149 149
164 164 164
181 181 181
189 189 189
184 184 184
101 101 101
129 129 129
156 156 156
182 182 182
203 203 203
212 212 212
203 203 203
182 182 182
177 177 177
165 165 165
184 184 184
208 208 208
221 221 221
212 212 212
190 190 190
163 163 163
158 158 158
156 156 156
151 151 151
152 152 152
158 158 158
154 154 154
149 149 149
169 169 169
190 190 190
201 201 201
197 197 197
187 187 187
210 210 210
220 220 220
209 209 209
186 186 186
188 188 188
184 184 184
169 169 169
148 148 148
142 142 142
152 152 152
173 173 173
187 187 187
189 189 189
179 179 179
161 161 161
148 148 148
141 141 141
152 152 152
177 177 177
197 197 197
208 208 208
201 201 201
96 96 96
117 117 117
141 141 141
162 162 162
178 178 178
184 184 184
193 193 193
206 206 206
204 204 204
188 188 188
168 168 168
186 186 186
194 194 194
189 189 189
172 172 172
160 160 160
168 168 168
165 165 165
159 159 159
158 158 158
160 160 160
157 157 157
156 156 156
182 182 182
207 207 207
224 224 224
217 217 217
195 195 195
221 221 221
237 237 237
220 220 220
193 193 193
164 164 164
157 157 157
147 147 147
150 150 150
154 154 154
163 163 163
177 177 177
190 190 190
193 193 193
183 183 183
163 163 163
140 140 140
126 126 126
154 154 154
179 179 179
201 201 201
212 212 212
205 205 205
112 112 112
131 131 131
146 146 146
154 154 154
154 154 154
182 182 182
209 209 209
231 231 231
227 227 227
203 203 203
175 175 175
159 159 159
167 167 167
167 167 167
158 158 158
161 161 161
168 168 168
174 174 174
183 183 183
182 182 182
169 169 169
150 150 150
156 156 156
184 184 184
210 210 210
228 228 228
220 220 220
197 197 197
209 209 209
220 220 220
209 209 209
186 186 186
159 159 159
147 147 147
159 159 159
162 162 162
159 159 159
184 184 184
203 203 203
210 210 210
199 199 199
182 182 182
168 168 168
149 149 149
125 125 125
147 147 147
171 171 171
190 190 190
198 198 198
197 197 197
123 123 123
144 144 144
161 161 161
171 171 171
171 171 171
182 182 182
209 209 209
232 232 232
228 228 228
203 203 203
175 175 175
161 161 161
171 171 171
171 171 171
172 172 172
164 164 164
168 168 168
189 189 189
202 202 202
200 200 200
184 184 184
161 161 161
148 148 148
174 174 174
195 195 195
207 207 207
203 203 203
185 185 185
186 186 186
193 193 193
186 186 186
173 173 173
171 171 171
159 159 159
163 163 163
167 167 167
168 168 168
197 197 197
223 223 223
237 237 237
217 217 217
208 208 208
189 189 189
165 165 165
138 138 138
134 134 134
154 154 154
169 169 169
179 179 179
185 185 185
128 128 128
150 150 150
168 168 168
179 179 179
178 178 178
171 171 171
193 193 193
208 208 208
205 205 205
189 189 189
165 165 165
158 158 158
180 180 180
196 196 196
199 199 199
188 188 188
172 172 172
194 194 194
208 208 208
205 205 205
188 188 188
164 164 164
161 161 161
178 178 178
196 196 196
202 202 202
193 193 193
173 173 173
160 160 160
166 166 166
186 186 186
197 197 197
194 194 194
178 178 178
158 158 158
161 161 161
168 168 168
196 196 196
222 222 222
235 235 235
233 233 233
226 226 226
201 201 201
173 173 173
144 144 144
138 138 138
139 139 139
147 147 147
160 160 160
165 165 165
126 126 126
148 148 148
165 165 165
176 176 176
175 175 175
165 165 165
170 170 170
179 179 179
178 178 178
174 174 174
168 168 168
174 174 174
195 195 195
217 217 217
222 222 222
206 206 206
180 180 180
185 185 185
196 196 196
194 194 194
179 179 179
185 185 185
190 190 190
183 183 183
201 201 201
208 208 208
198 198 198
177 177 177
155 155 155
176 176 176
198 198 198
212 212 212
208 208 208
189 189 189
164 164 164
147 147 147
158 158 158
182 182 182
201 201 201
208 208 208
226 226 226
221 221 221
198 198 198
171 171 171
142 142 142
143 143 143
144 144 144
137 137 137
150 150 150
160 160 160
117 117 117
138 138 138
154 154 154
163 163 163
163 163 163
154 154 154
154 154 154
178 178 178
196 196 196
203 203 203
194 194 194
199 199 199
210 210 210
221 221 221
227 227 227
209 209 209
182 182 182
166 166 166
175 175 175
176 176 176
189 189 189
211 211 211
220 220 220
207 207 207
191 191 191
197 197 197
188 188 188
170 170 170
182 182 182
188 188 188
197 197 197
210 210 210
206 206 206
187 187 187
163 163 163
136 136 136
141 141 141
161 161 161
175 175 175
189 189 189
201 201 201
198 198 198
182 182 182
159 159 159
149 149 149
143 143 143
141 141 141
149 149 149
168 168 168
181 181 181
126 126 126
147 147 147
162 162 162
171 171 171
169 169 169
158 158 158
165 165 165
194 194 194
219 219 219
232 232 232
216 216 216
216 216 216
235 235 235
223 223 223
208 208 208
195 195 195
173 173 173
147 147 147
163 163 163
177 177 177
199 199 199
228 228 228
248 248 248
221 221 221
192 192 192
175 175 175
169 169 169
187 187 187
208 208 208
217 217 217
206 206 206
192 192 192
189 189 189
174 174 174
162 162 162
151 151 151
148 148 148
137 137 137
149 149 149
165 165 165
173 173 173
171 171 171
159 159 159
158 158 158
161 161 161
155 155 155
141 141 141
158 158 158
180 180 180
195 195 195
135 135 135
158 158 158
176 176 176
186 186 186
184 184 184
171 171 171
168 168 168
197 197 197
226 226 226
247 247 247
222 222 222
215 215 215
233 233 233
221 221 221
196 196 196
172 172 172
155 155 155
136 136 136
155 155 155
168 168 168
194 194 194
219 219 219
230 230 230
214 214 214
188 188 188
160 160 160
168 168 168
197 197 197
226 226 226
246 246 246
222 222 222
193 193 193
179 179 179
184 184 184
177 177 177
180 180 180
175 175 175
161 161 161
141 141 141
146 146 146
155 155 155
157 157 157
151 151 151
162 162 162
165 165 165
159 159 159
144 144 144
159 159 159
181 181 181
196 196 196
138 138 138
161 161 161
180 180 180
191 191 191
188 188 188
174 174 174
161 161 161
187 187 187
208 208 208
218 218 218
206 206 206
196 196 196
207 207 207
200 200 200
182 182 182
157 157 157
152 152 152
150 150 150
164 164 164
175 175 175
177 177 177
195 195 195
201 201 201
192 192 192
172 172 172
148 148 148
165 165 165
194 194 194
219 219 219
233 233 233
216 216 216
190 190 190
185 185 185
190 190 190
197 197 197
207 207 207
200 200 200
181 181 181
157 157 157
135 135 135
142 142 142
141 141 141
146 146 146
157 157 157
160 160 160
154 154 154
140 140 140
151 151 151
171 171 171
184 184 184
148 148 148
155 155 155
173 173 173
182 182 182
180 180 180
168 168 168
148 148 148
167 167 167
183 183 183
188 188 188
181 181 181
171 171 171
178 178 178
174 174 174
168 168 168
170 170 170
178 178 178
175 175 175
171 171 171
183 183 183
183 183 183
173 173 173
171 171 171
165 165 165
151 151 151
131 131 131
154 154 154
178 178 178
196 196 196
203 203 203
194 194 194
175 175 175
179 179 179
188 188 188
214 214 214
230 230 230
219 219 219
194 194 194
166 166 166
137 137 137
136 136 136
135 135 135
137 137 137
147 147 147
160 160 160
166 166 166
162 162 162
149 149 149
153 153 153
163 163 163
169 169 169
173 173 173
166 166 166
165 165 165
163 163 163
152 152 152
135 135 135
143 143 143
155 155 155
159 159 159
154 154 154
144 144 144
163 163 163
179 179 179
185 185 185
190 190 190
200 200 200
196 196 196
179 179 179
179 179 179
179 179 179
169 169 169
152 152 152
137 137 137
126 126 126
113 113 113
136 136 136
156 156 156
169 169 169
174 174 174
168 168 168
153 153 153
163 163 163
187 187 187
213 213 213
228 228 228
217 217 217
193 193 193
165 165 165
137 137 137
144 144 144
159 159 159
166 166 166
164 164 164
180 180 180
186 186 186
181 181 181
166 166 166
145 145 145
157 157 157
185 185 185
190 190 190
181 181 181
164 164 164
141 141 141
149 149 149
154 154 154
151 151 151
140 140 140
129 129 129
125 125 125
145 145 145
167 167 167
184 184 184
191 191 191
200 200 200
213 213 213
207 207 207
188 188 188
165 165 165
165 165 165
157 157 157
141 141 141
128 128 128
135 135 135
135 135 135
138 138 138
148 148 148
150 150 150
144 144 144
140 140 140
132 132 132
150 150 150
175 175 175
195 195 195
204 204 204
198 198 198
179 179 179
156 156 156
142 142 142
165 165 165
185 185 185
196 196 196
193 193 193
191 191 191
199 199 199
193 193 193
175 175 175
152 152 152
170 170 170
191 191 191
195 195 195
186 186 186
168 168 168
159 159 159
175 175 175
182 182 182
177 177 177
163 163 163
142 142 142
119 119 119
141 141 141
162 162 162
178 178 178
184 184 184
195 195 195
206 206 206
202 202 202
184 184 184
160 160 160
145 145 145
138 138 138
137 137 137
153 153 153
162 162 162
162 162 162
153 153 153
156 156 156
158 158 158
151 151 151
137 137 137
137 137 137
155 155 155
177 177 177
192 192 192
196 196 196
185 185 185
166 166 166
155 155 155
157 157 157
181 181 181
207 207 207
224 224 224
219 219 219
196 196 196
197 197 197
191 191 191
174 174 174
152 152 152
175 175 175
183 183 183
187 187 187
179 179 179
162 162 162
176 176 176
197 197 197
207 207 207
200 200 200
181 181 181
157 157 157
130 130 130
130 130 130
149 149 149
162 162 162
167 167 167
178 178 178
187 187 187
183 183 183
169 169 169
148 148 148
137 137 137
152 152 152
159 159 159
174 174 174
185 185 185
185 185 185
174 174 174
160 160 160
157 157 157
151 151 151
161 161 161
166 166 166
161 161 161
175 175 175
191 191 191
194 194 194
184 184 184
165 165 165
173 173 173
175 175 175
187 187 187
216 216 216
245 245 245
233 233 233
204 204 204
182 182 182
177 177 177
163 163 163
147 147 147
168 168 168
166 166 166
169 169 169
163 163 163
171 171 171
185 185 185
209 209 209
223 223 223
213 213 213
190 190 190
165 165 165
156 156 156
140 140 140
130 130 130
141 141 141
145 145 145
155 155 155
162 162 162
159 159 159
148 148 148
136 136 136
159 159 159
177 177 177
187 187 187
188 188 188
203 203 203
203 203 203
188 188 188
166 166 166
169 169 169
171 171 171
188 188 188
194 194 194
187 187 187
170 170 170
177 177 177
180 180 180
171 171 171
169 169 169
182 182 182
185 185 185
181 181 181
206 206 206
223 223 223
218 218 218
196 196 196
169 169 169
156 156 156
147 147 147
157 157 157
158 158 158
166 166 166
170 170 170
169 169 169
183 183 183
187 187 187
204 204 204
216 216 216
208 208 208
193 193 193
193 193 193
180 180 180
160 160 160
136 136 136
116 116 116
119 119 119
130 130 130
135 135 135
133 133 133
124 124 124
149 149 149
176 176 176
199 199 199
214 214 214
210 210 210
207 207 207
207 207 207
191 191 191
180 180 180
197 197 197
201 201 201
211 211 211
221 221 221
210 210 210
186 186 186
160 160 160
158 158 158
152 152 152
167 167 167
180 180 180
183 183 183
175 175 175
184 184 184
194 194 194
191 191 191
176 176 176
155 155 155
132 132 132
148 148 148
158 158 158
159 159 159
163 163 163
167 167 167
170 170 170
184 184 184
188 188 188
186 186 186
194 194 194
198 198 198
217 217 217
217 217 217
199 199 199
174 174 174
146 146 146
128 128 128
123 123 123
121 121 121
134 134 134
142 142 142
141 141 141
155 155 155
183 183 183
211 211 211
232 232 232
226 226 226
201 201 201
194 194 194
181 181 181
197 197 197
222 222 222
229 229 229
220 220 220
236 236 236
219 219 219
192 192 192
164 164 164
135 135 135
138 138 138
156 156 156
168 168 168
170 170 170
163 163 163
160 160 160
165 165 165
163 163 163
152 152 152
135 135 135
135 135 135
148 148 148
154 154 154
152 152 152
151 151 151
155 155 155
161 161 161
174 174 174
177 177 177
170 170 170
177 177 177
204 204 204
227 227 227
228 228 228
205 205 205
178 178 178
152 152 152
153 153 153
147 147 147
143 143 143
160 160 160
169 169 169
169 169 169
159 159 159
179 179 179
205 205 205
222 222 222
217 217 217
196 196 196
173 173 173
173 173 173
202 202 202
231 231 231
245 245 245
218 218 218
219 219 219
208 208 208
185 185 185
159 159 159
138 138 138
160 160 160
177 177 177
185 185 185
181 181 181
177 177 177
174 174 174
161 161 161
143 143 143
142 142 142
140 140 140
158 158 158
175 175 175
183 183 183
180 180 180
133 133 133
136 136 136
144 144 144
155 155 155
158 158 158
154 154 154
170 170 170
195 195 195
212 212 212
212 212 212
195 195 195
187 187 187
176 176 176
175 175 175
168 168 168
161 161 161
182 182 182
194 194 194
194 194 194
180 180 180
165 165 165
185 185 185
196 196 196
194 194 194
179 179 179
157 157 157
166 166 166
192 192 192
213 213 213
219 219 219
204 204 204
191 191 191
185 185 185
168 168 168
145 145 145
153 153 153
179 179 179
201 201 201
214 214 214
208 208 208
187 187 187
179 179 179
165 165 165
161 161 161
167 167 167
164 164 164
177 177 177
200 200 200
213 213 213
207 207 207
113 113 113
138 138 138
159 159 159
176 176 176
183 183 183
179 179 179
164 164 164
175 175 175
187 187 187
193 193 193
211 211 211
212 212 212
196 196 196
191 191 191
182 182 182
172 172 172
196 196 196
213 213 213
212 212 212
195 195 195
170 170 170
160 160 160
168 168 168
168 168 168
164 164 164
167 167 167
183 183 183
189 189 189
186 186 186
190 190 190
180 180 180
163 163 163
158 158 158
145 145 145
131 131 131
160 160 160
189 189 189
217 217 217
240 240 240
227 227 227
199 199 199
172 172 172
163 163 163
180 180 180
188 188 188
184 184 184
188 188 188
217 217 217
241 241 241
229 229 229
123 123 123
150 150 150
175 175 175
195 195 195
206 206 206
199 199 199
181 181 181
157 157 157
175 175 175
202 202 202
224 224 224
227 227 227
206 206 206
195 195 195
186 186 186
173 173 173
198 198 198
216 216 216
215 215 215
197 197 197
172 172 172
171 171 171
189 189 189
197 197 197
190 190 190
185 185 185
208 208 208
218 218 218
208 208 208
185 185 185
159 159 159
142 142 142
150 150 150
151 151 151
144 144 144
159 159 159
187 187 187
214 214 214
232 232 232
222 222 222
197 197 197
169 169 169
171 171 171
191 191 191
201 201 201
196 196 196
187 187 187
214 214 214
236 236 236
226 226 226
127 127 127
155 155 155
181 181 181
204 204 204
217 217 217
209 209 209
188 188 188
162 162 162
170 170 170
195 195 195
214 214 214
216 216 216
199 199 199
186 186 186
178 178 178
181 181 181
194 194 194
199 199 199
199 199 199
185 185 185
163 163 163
187 187 187
211 211 211
223 223 223
212 212 212
195 195 195
223 223 223
244 244 244
223 223 223
195 195 195
165 165 165
157 157 157
167 167 167
167 167 167
159 159 159
166 166 166
195 195 195
222 222 222
237 237 237
219 219 219
191 191 191
163 163 163
170 170 170
190 190 190
199 199 199
194 194 194
178 178 178
195 195 195
207 207 207
202 202 202
124 124 124
151 151 151
176 176 176
197 197 197
208 208 208
201 201 201
182 182 182
158 158 158
157 157 157
177 177 177
190 190 190
191 191 191
180 180 180
167 167 167
161 161 161
177 177 177
189 189 189
189 189 189
177 177 177
164 164 164
163 163 163
191 191 191
218 218 218
234 234 234
219 219 219
193 193 193
215 215 215
229 229 229
215 215 215
190 190 190
162 162 162
164 164 164
175 175 175
176 176 176
166 166 166
164 164 164
192 192 192
217 217 217
229 229 229
214 214 214
189 189 189
161 161 161
159 159 159
176 176 176
184 184 184
180 180 180
173 173 173
176 176 176
178 178 178
175 175 175
117 117 117
140 140 140
162 162 162
178 178 178
186 186 186
182 182 182
182 182 182
182 182 182
171 171 171
154 154 154
163 163 163
164 164 164
156 156 156
144 144 144
146 146 146
164 164 164
174 174 174
174 174 174
163 163 163
146 146 146
157 157 157
183 183 183
205 205 205
215 215 215
205 205 205
184 184 184
193 193 193
200 200 200
193 193 193
174 174 174
151 151 151
162 162 162
173 173 173
174 174 174
164 164 164
154 154 154
177 177 177
196 196 196
202 202 202
194 194 194
174 174 174
150 150 150
151 151 151
155 155 155
161 161 161
179 179 179
194 194 194
197 197 197
187 187 187
167 167 167
135 135 135
139 139 139
151 151 151
163 163 163
166 166 166
186 186 186
200 200 200
201 201 201
187 187 187
182 182 182
175 175 175
160 160 160
140 140 140
129 129 129
129 129 129
144 144 144
152 152 152
152 152 152
144 144 144
129 129 129
143 143 143
165 165 165
181 181 181
188 188 188
182 182 182
166 166 166
166 166 166
171 171 171
166 166 166
152 152 152
135 135 135
152 152 152
161 161 161
162 162 162
154 154 154
138 138 138
156 156 156
169 169 169
174 174 174
168 168 168
153 153 153
146 146 146
146 146 146
146 146 146
163 163 163
187 187 187
205 205 205
209 209 209
196 196 196
174 174 174
147 147 147
152 152 152
168 168 168
182 182 182
186 186 186
191 191 191
207 207 207
207 207 207
203 203 203
211 211 211
201 201 201
180 180 180
166 166 166
151 151 151
131 131 131
130 130 130
127 127 127
127 127 127
120 120 120
116 116 116
124 124 124
142 142 142
155 155 155
159 159 159
161 161 161
160 160 160
151 151 151
142 142 142
143 143 143
144 144 144
137 137 137
134 134 134
142 142 142
143 143 143
136 136 136
123 123 123
131 131 131
141 141 141
153 153 153
159 159 159
165 165 165
175 175 175
174 174 174
163 163 163
160 160 160
184 184 184
200 200 200
204 204 204
192 192 192
171 171 171
152 152 152
157 157 157
177 177 177
193 193 193
197 197 197
187 187 187
196 196 196
197 197 197
223 223 223
239 239 239
219 219 219
196 196 196
188 188 188
169 169 169
146 146 146
136 136 136
131 131 131
141 141 141
145 145 145
142 142 142
135 135 135
146 146 146
150 150 150
146 146 146
150 150 150
150 150 150
142 142 142
160 160 160
170 170 170
171 171 171
162 162 162
145 145 145
124 124 124
126 126 126
133 133 133
133 133 133
133 133 133
153 153 153
168 168 168
174 174 174
189 189 189
202 202 202
201 201 201
185 185 185
163 163 163
169 169 169
183 183 183
185 185 185
176 176 176
158 158 158
149 149 149
154 154 154
175 175 175
191 191 191
195 195 195
185 185 185
176 176 176
195 195 195
222 222 222
236 236 236
218 218 218
212 212 212
201 201 201
180 180 180
154 154 154
134 134 134
151 151 151
164 164 164
170 170 170
165 165 165
153 153 153
166 166 166
172 172 172
167 167 167
153 153 153
134 134 134
159 159 159
180 180 180
194 194 194
195 195 195
183 183 183
163 163 163
138 138 138
150 150 150
159 159 159
159 159 159
150 150 150
158 158 158
174 174 174
181 181 181
205 205 205
224 224 224
222 222 222
200 200 200
174 174 174
182 182 182
189 189 189
183 183 183
167 167 167
146 146 146
138 138 138
148 148 148
164 164 164
176 176 176
180 180 180
172 172 172
161 161 161
181 181 181
201 201 201
208 208 208
204 204 204
211 211 211
201 201 201
179 179 179
154 154 154
144 144 144
167 167 167
183 183 183
191 191 191
185 185 185
169 169 169
180 180 180
187 187 187
180 180 180
165 165 165
143 143 143
169 169 169
194 194 194
212 212 212
213 213 213
197 197 197
173 173 173
152 152 152
170 170 170
182 182 182
182 182 182
171 171 171
155 155 155
170 170 170
179 179 179
206 206 206
226 226 226
224 224 224
202 202 202
184 184 184
207 207 207
218 218 218
209 209 209
187 187 187
160 160 160
142 142 142
167 167 167
188 188 188
201 201 201
199 199 199
183 183 183
162 162 162
162 162 162
174 174 174
179 179 179
188 188 188
194 194 194
186 186 186
168 168 168
145 145 145
150 150 150
174 174 174
193 193 193
202 202 202
195 195 195
177 177 177
184 184 184
190 190 190
184 184 184
168 168 168
146 146 146
169 169 169
194 194 194
212 212 212
214 214 214
198 198 198
174 174 174
163 163 163
185 185 185
199 199 199
199 199 199
185 185 185
164 164 164
157 157 157
169 169 169
191 191 191
206 206 206
204 204 204
188 188 188
193 193 193
222 222 222
246 246 246
225 225 225
196 196 196
167 167 167
152 152 152
180 180 180
206 206 206
226 226 226
222 222 222
199 199 199
191 191 191
191 191 191
178 178 178
158 158 158
166 166 166
170 170 170
164 164 164
150 150 150
155 155 155
161 161 161
172 172 172
190 190 190
198 198 198
192 192 192
174 174 174
176 176 176
182 182 182
176 176 176
161 161 161
150 150 150
160 160 160
182 182 182
196 196 196
197 197 197
185 185 185
170 170 170
165 165 165
188 188 188
203 203 203
203 203 203
188 188 188
167 167 167
177 177 177
177 177 177
169 169 169
179 179 179
178 178 178
171 171 171
190 190 190
215 215 215
231 231 231
218 218 218
192 192 192
165 165 165
154 154 154
182 182 182
210 210 210
232 232 232
227 227 227
202 202 202
219 219 219
218 218 218
199 199 199
174 174 174
146 146 146
143 143 143
147 147 147
159 159 159
174 174 174
182 182 182
178 178 178
175 175 175
182 182 182
176 176 176
162 162 162
159 159 159
164 164 164
168 168 168
170 170 170
161 161 161
159 159 159
174 174 174
181 181 181
186 186 186
198 198 198
197 197 197
182 182 182
179 179 179
191 191 191
192 192 192
179 179 179
182 182 182
195 195 195
195 195 195
182 182 182
161 161 161
176 176 176
192 192 192
196 196 196
193 193 193
202 202 202
195 195 195
177 177 177
167 167 167
147 147 147
173 173 173
196 196 196
211 211 211
208 208 208
210 210 210
238 238 238
238 238 238
209 209 209
180 180 180
151 151 151
137 137 137
157 157 157
170 170 170
186 186 186
195 195 195
191 191 191
175 175 175
159 159 159
155 155 155
143 143 143
142 142 142
160 160 160
172 172 172
173 173 173
165 165 165
179 179 179
199 199 199
209 209 209
204 204 204
222 222 222
220 220 220
199 199 199
172 172 172
171 171 171
171 171 171
165 165 165
187 187 187
202 202 202
202 202 202
187 187 187
165 165 165
184 184 184
203 203 203
208 208 208
197 197 197
178 178 178
190 190 190
190 190 190
178 178 178
138 138 138
156 156 156
174 174 174
183 183 183
182 182 182
203 203 203
223 223 223
223 223 223
202 202 202
176 176 176
147 147 147
138 138 138
158 158 158
172 172 172
186 186 186
195 195 195
191 191 191
175 175 175
158 158 158
150 150 150
135 135 135
137 137 137
154 154 154
165 165 165
167 167 167
162 162 162
190 190 190
218 218 218
236 236 236
222 222 222
229 229 229
226 226 226
202 202 202
175 175 175
146 146 146
146 146 146
160 160 160
180 180 180
193 193 193
193 193 193
180 180 180
160 160 160
181 181 181
198 198 198
204 204 204
193 193 193
179 179 179
191 191 191
191 191 191
179 179 179
158 158 158
169 169 169
170 170 170
161 161 161
162 162 162
183 183 183
196 196 196
196 196 196
182 182 182
161 161 161
140 140 140
143 143 143
151 151 151
164 164 164
174 174 174
182 182 182
179 179 179
165 165 165
161 161 161
152 152 152
143 143 143
138 138 138
148 148 148
150 150 150
152 152 152
162 162 162
190 190 190
217 217 217
234 234 234
221 221 221
210 210 210
208 208 208
191 191 191
167 167 167
140 140 140
128 128 128
146 146 146
164 164 164
174 174 174
174 174 174
164 164 164
167 167 167
179 179 179
181 181 181
185 185 185
177 177 177
169 169 169
180 180 180
180 180 180
169 169 169
