P3
50 50
255
136 136 136
160 160 160
180 180 180
192 192 192
192 192 192
179 179 179
159 159 159
134 134 134
110 110 110
113 113 113
128 128 128
137 137 137
139 139 139
134 134 134
156 156 156
177 177 177
200 200 200
214 214 214
209 209 209
190 190 190
165 165 165
138 138 138
120 120 120
129 129 129
151 151 151
174 174 174
192 192 192
199 199 199
191 191 191
173 173 173
149 149 149
123 123 123
96 96 96
101 101 101
105 105 105
103 103 103
109 109 109
137 137 137
164 164 164
189 189 189
208 208 208
212 212 212
199 199 199
176 176 176
150 150 150
158 158 158
181 181 181
197 197 197
202 202 202
191 191 191
134 134 134
158 158 158
178 178 178
190 190 190
190 190 190
177 177 177
157 157 157
133 133 133
128 128 128
135 135 135
153 153 153
165 165 165
167 167 167
161 161 161
171 171 171
193 193 193
207 207 207
208 208 208
204 204 204
186 186 186
162 162 162
138 138 138
142 142 142
139 139 139
163 163 163
191 191 191
215 215 215
228 228 228
214 214 214
189 189 189
162 162 162
133 133 133
118 118 118
129 129 129
134 134 134
132 132 132
123 123 123
143 143 143
172 172 172
201 201 201
227 227 227
235 235 235
213 213 213
185 185 185
157 157 157
170 170 170
198 198 198
222 222 222
231 231 231
212 212 212
154 154 154
157 157 157
166 166 166
176 176 176
176 176 176
165 165 165
147 147 147
143 143 143
140 140 140
153 153 153
175 175 175
191 191 191
195 195 195
186 186 186
176 176 176
201 201 201
218 218 218
215 215 215
195 195 195
171 171 171
150 150 150
160 160 160
166 166 166
162 162 162
167 167 167
196 196 196
225 225 225
251 251 251
224 224 224
195 195 195
165 165 165
136 136 136
143 143 143
157 157 157
163 163 163
161 161 161
149 149 149
142 142 142
170 170 170
198 198 198
222 222 222
229 229 229
210 210 210
183 183 183
155 155 155
173 173 173
202 202 202
231 231 231
245 245 245
218 218 218
182 182 182
186 186 186
177 177 177
160 160 160
155 155 155
146 146 146
145 145 145
149 149 149
145 145 145
166 166 166
192 192 192
214 214 214
220 220 220
205 205 205
181 181 181
193 193 193
208 208 208
205 205 205
189 189 189
165 165 165
161 161 161
177 177 177
184 184 184
179 179 179
165 165 165
188 188 188
211 211 211
222 222 222
210 210 210
187 187 187
160 160 160
142 142 142
165 165 165
183 183 183
192 192 192
188 188 188
173 173 173
152 152 152
159 159 159
182 182 182
199 199 199
202 202 202
191 191 191
170 170 170
145 145 145
165 165 165
191 191 191
212 212 212
218 218 218
203 203 203
206 206 206
212 212 212
200 200 200
178 178 178
152 152 152
131 131 131
142 142 142
146 146 146
142 142 142
169 169 169
197 197 197
222 222 222
231 231 231
212 212 212
185 185 185
175 175 175
185 185 185
184 184 184
171 171 171
152 152 152
167 167 167
185 185 185
193 193 193
188 188 188
172 172 172
170 170 170
186 186 186
193 193 193
186 186 186
169 169 169
146 146 146
154 154 154
182 182 182
206 206 206
221 221 221
214 214 214
192 192 192
166 166 166
142 142 142
159 159 159
171 171 171
174 174 174
166 166 166
150 150 150
136 136 136
150 150 150
171 171 171
185 185 185
189 189 189
193 193 193
221 221 221
230 230 230
213 213 213
186 186 186
158 158 158
129 129 129
132 132 132
136 136 136
136 136 136
163 163 163
188 188 188
208 208 208
213 213 213
200 200 200
178 178 178
152 152 152
159 159 159
162 162 162
156 156 156
143 143 143
164 164 164
181 181 181
189 189 189
184 184 184
169 169 169
171 171 171
169 169 169
163 163 163
158 158 158
145 145 145
131 131 131
159 159 159
189 189 189
217 217 217
242 242 242
229 229 229
201 201 201
172 172 172
142 142 142
134 134 134
143 143 143
145 145 145
139 139 139
145 145 145
147 147 147
141 141 141
146 146 146
157 157 157
168 168 168
196 196 196
214 214 214
221 221 221
207 207 207
182 182 182
155 155 155
157 157 157
161 161 161
155 155 155
147 147 147
151 151 151
169 169 169
183 183 183
187 187 187
178 178 178
161 161 161
147 147 147
159 159 159
163 163 163
158 158 158
144 144 144
153 153 153
167 167 167
174 174 174
169 169 169
160 160 160
167 167 167
165 165 165
153 153 153
144 144 144
133 133 133
127 127 127
156 156 156
183 183 183
208 208 208
225 225 225
217 217 217
194 194 194
167 167 167
145 145 145
133 133 133
116 116 116
123 123 123
139 139 139
148 148 148
151 151 151
145 145 145
152 152 152
174 174 174
189 189 189
193 193 193
192 192 192
197 197 197
187 187 187
168 168 168
169 169 169
184 184 184
189 189 189
181 181 181
164 164 164
154 154 154
167 167 167
176 176 176
173 173 173
161 161 161
142 142 142
140 140 140
152 152 152
155 155 155
150 150 150
144 144 144
159 159 159
167 167 167
165 165 165
153 153 153
148 148 148
154 154 154
152 152 152
156 156 156
160 160 160
156 156 156
144 144 144
144 144 144
168 168 168
187 187 187
196 196 196
192 192 192
176 176 176
169 169 169
163 163 163
149 149 149
130 130 130
119 119 119
135 135 135
148 148 148
155 155 155
152 152 152
170 170 170
185 185 185
203 203 203
208 208 208
166 166 166
169 169 169
162 162 162
162 162 162
187 187 187
208 208 208
216 216 216
204 204 204
181 181 181
155 155 155
168 168 168
177 177 177
174 174 174
162 162 162
143 143 143
127 127 127
137 137 137
140 140 140
142 142 142
166 166 166
185 185 185
196 196 196
193 193 193
178 178 178
156 156 156
144 144 144
166 166 166
182 182 182
188 188 188
182 182 182
166 166 166
144 144 144
146 146 146
161 161 161
167 167 167
165 165 165
177 177 177
182 182 182
176 176 176
160 160 160
139 139 139
131 131 131
152 152 152
168 168 168
176 176 176
173 173 173
192 192 192
209 209 209
211 211 211
206 206 206
138 138 138
151 151 151
165 165 165
171 171 171
196 196 196
222 222 222
234 234 234
216 216 216
189 189 189
160 160 160
160 160 160
167 167 167
165 165 165
157 157 157
152 152 152
139 139 139
121 121 121
125 125 125
154 154 154
181 181 181
207 207 207
225 225 225
219 219 219
196 196 196
170 170 170
157 157 157
183 183 183
204 204 204
214 214 214
204 204 204
183 183 183
157 157 157
130 130 130
133 133 133
144 144 144
165 165 165
179 179 179
185 185 185
178 178 178
162 162 162
140 140 140
147 147 147
165 165 165
181 181 181
190 190 190
187 187 187
204 204 204
230 230 230
233 233 233
210 210 210
136 136 136
157 157 157
172 172 172
178 178 178
190 190 190
213 213 213
222 222 222
208 208 208
184 184 184
157 157 157
144 144 144
160 160 160
167 167 167
167 167 167
161 161 161
147 147 147
128 128 128
128 128 128
158 158 158
187 187 187
217 217 217
246 246 246
233 233 233
204 204 204
175 175 175
162 162 162
190 190 190
215 215 215
228 228 228
215 215 215
190 190 190
162 162 162
134 134 134
114 114 114
137 137 137
157 157 157
171 171 171
175 175 175
169 169 169
154 154 154
153 153 153
158 158 158
178 178 178
190 190 190
203 203 203
211 211 211
229 229 229
233 233 233
227 227 227
206 206 206
134 134 134
154 154 154
169 169 169
175 175 175
175 175 175
190 190 190
196 196 196
187 187 187
169 169 169
145 145 145
154 154 154
171 171 171
180 180 180
178 178 178
165 165 165
149 149 149
147 147 147
137 137 137
155 155 155
181 181 181
206 206 206
223 223 223
218 218 218
196 196 196
169 169 169
158 158 158
185 185 185
207 207 207
217 217 217
206 206 206
184 184 184
158 158 158
131 131 131
129 129 129
147 147 147
160 160 160
164 164 164
159 159 159
162 162 162
172 172 172
172 172 172
162 162 162
181 181 181
196 196 196
223 223 223
238 238 238
233 233 233
238 238 238
212 212 212
188 188 188
124 124 124
144 144 144
169 169 169
191 191 191
204 204 204
202 202 202
186 186 186
164 164 164
166 166 166
159 159 159
155 155 155
173 173 173
182 182 182
180 180 180
170 170 170
178 178 178
175 175 175
163 163 163
151 151 151
174 174 174
192 192 192
198 198 198
191 191 191
176 176 176
162 162 162
154 154 154
169 169 169
185 185 185
192 192 192
185 185 185
169 169 169
146 146 146
142 142 142
140 140 140
160 160 160
175 175 175
180 180 180
174 174 174
171 171 171
182 182 182
183 183 183
172 172 172
173 173 173
195 195 195
221 221 221
236 236 236
218 218 218
212 212 212
196 196 196
173 173 173
138 138 138
153 153 153
182 182 182
209 209 209
232 232 232
228 228 228
203 203 203
191 191 191
194 194 194
184 184 184
165 165 165
165 165 165
173 173 173
173 173 173
194 194 194
207 207 207
203 203 203
185 185 185
161 161 161
159 159 159
174 174 174
179 179 179
173 173 173
172 172 172
166 166 166
156 156 156
147 147 147
160 160 160
164 164 164
160 160 160
148 148 148
150 150 150
152 152 152
146 146 146
165 165 165
181 181 181
186 186 186
180 180 180
170 170 170
182 182 182
182 182 182
171 171 171
157 157 157
181 181 181
200 200 200
208 208 208
198 198 198
183 183 183
173 173 173
155 155 155
153 153 153
158 158 158
183 183 183
212 212 212
239 239 239
233 233 233
206 206 206
215 215 215
220 220 220
204 204 204
180 180 180
153 153 153
156 156 156
185 185 185
212 212 212
234 234 234
226 226 226
200 200 200
172 172 172
143 143 143
150 150 150
172 172 172
189 189 189
195 195 195
188 188 188
170 170 170
147 147 147
147 147 147
149 149 149
144 144 144
148 148 148
150 150 150
153 153 153
147 147 147
161 161 161
175 175 175
180 180 180
174 174 174
160 160 160
170 170 170
170 170 170
161 161 161
144 144 144
160 160 160
174 174 174
179 179 179
172 172 172
157 157 157
146 146 146
140 140 140
160 160 160
166 166 166
174 174 174
198 198 198
213 213 213
218 218 218
216 216 216
225 225 225
233 233 233
212 212 212
185 185 185
156 156 156
157 157 157
186 186 186
214 214 214
237 237 237
228 228 228
201 201 201
173 173 173
164 164 164
162 162 162
182 182 182
203 203 203
211 211 211
201 201 201
180 180 180
160 160 160
174 174 174
177 177 177
170 170 170
154 154 154
148 148 148
146 146 146
141 141 141
148 148 148
160 160 160
165 165 165
167 167 167
159 159 159
151 151 151
151 151 151
143 143 143
145 145 145
140 140 140
146 146 146
149 149 149
145 145 145
133 133 133
127 127 127
146 146 146
159 159 159
165 165 165
161 161 161
182 182 182
210 210 210
233 233 233
230 230 230
211 211 211
216 216 216
202 202 202
178 178 178
151 151 151
157 157 157
176 176 176
197 197 197
211 211 211
206 206 206
188 188 188
178 178 178
187 187 187
185 185 185
181 181 181
201 201 201
209 209 209
200 200 200
179 179 179
180 180 180
198 198 198
203 203 203
193 193 193
173 173 173
150 150 150
143 143 143
147 147 147
158 158 158
162 162 162
170 170 170
171 171 171
163 163 163
147 147 147
153 153 153
166 166 166
170 170 170
164 164 164
149 149 149
138 138 138
139 139 139
133 133 133
126 126 126
145 145 145
149 149 149
156 156 156
176 176 176
190 190 190
201 201 201
218 218 218
216 216 216
196 196 196
190 190 190
180 180 180
162 162 162
150 150 150
170 170 170
194 194 194
210 210 210
209 209 209
193 193 193
170 170 170
192 192 192
204 204 204
201 201 201
184 184 184
186 186 186
192 192 192
185 185 185
168 168 168
192 192 192
215 215 215
223 223 223
208 208 208
183 183 183
156 156 156
137 137 137
150 150 150
162 162 162
166 166 166
164 164 164
166 166 166
158 158 158
148 148 148
170 170 170
185 185 185
191 191 191
183 183 183
165 165 165
160 160 160
162 162 162
154 154 154
139 139 139
137 137 137
135 135 135
161 161 161
183 183 183
198 198 198
200 200 200
192 192 192
191 191 191
177 177 177
161 161 161
155 155 155
151 151 151
160 160 160
175 175 175
200 200 200
219 219 219
218 218 218
199 199 199
173 173 173
194 194 194
207 207 207
203 203 203
186 186 186
163 163 163
168 168 168
168 168 168
165 165 165
191 191 191
213 213 213
221 221 221
207 207 207
183 183 183
155 155 155
128 128 128
145 145 145
157 157 157
160 160 160
155 155 155
152 152 152
145 145 145
155 155 155
178 178 178
196 196 196
203 203 203
193 193 193
174 174 174
177 177 177
179 179 179
170 170 170
153 153 153
131 131 131
132 132 132
157 157 157
178 178 178
192 192 192
194 194 194
182 182 182
173 173 173
175 175 175
168 168 168
154 154 154
174 174 174
187 187 187
188 188 188
192 192 192
207 207 207
207 207 207
191 191 191
167 167 167
183 183 183
193 193 193
190 190 190
176 176 176
161 161 161
174 174 174
179 179 179
172 172 172
178 178 178
195 195 195
200 200 200
190 190 190
171 171 171
149 149 149
152 152 152
147 147 147
144 144 144
147 147 147
142 142 142
136 136 136
145 145 145
153 153 153
176 176 176
193 193 193
199 199 199
190 190 190
172 172 172
185 185 185
187 187 187
177 177 177
159 159 159
136 136 136
123 123 123
145 145 145
164 164 164
179 179 179
195 195 195
198 198 198
200 200 200
204 204 204
192 192 192
171 171 171
193 193 193
210 210 210
212 212 212
197 197 197
184 184 184
184 184 184
172 172 172
153 153 153
163 163 163
171 171 171
169 169 169
158 158 158
161 161 161
174 174 174
178 178 178
179 179 179
180 180 180
179 179 179
174 174 174
167 167 167
162 162 162
176 176 176
181 181 181
174 174 174
158 158 158
137 137 137
138 138 138
156 156 156
167 167 167
169 169 169
164 164 164
178 178 178
183 183 183
186 186 186
181 181 181
181 181 181
183 183 183
173 173 173
156 156 156
134 134 134
126 126 126
142 142 142
168 168 168
195 195 195
218 218 218
225 225 225
222 222 222
229 229 229
210 210 210
184 184 184
200 200 200
222 222 222
224 224 224
205 205 205
178 178 178
157 157 157
148 148 148
133 133 133
139 139 139
146 146 146
149 149 149
156 156 156
158 158 158
164 164 164
170 170 170
176 176 176
175 175 175
174 174 174
162 162 162
158 158 158
182 182 182
202 202 202
209 209 209
198 198 198
177 177 177
162 162 162
161 161 161
169 169 169
183 183 183
186 186 186
177 177 177
173 173 173
193 193 193
202 202 202
196 196 196
182 182 182
185 185 185
177 177 177
160 160 160
138 138 138
134 134 134
151 151 151
171 171 171
200 200 200
226 226 226
235 235 235
225 225 225
233 233 233
213 213 213
185 185 185
193 193 193
211 211 211
213 213 213
197 197 197
173 173 173
146 146 146
132 132 132
136 136 136
155 155 155
170 170 170
175 175 175
170 170 170
172 172 172
164 164 164
158 158 158
163 163 163
160 160 160
159 159 159
150 150 150
167 167 167
195 195 195
220 220 220
232 232 232
215 215 215
189 189 189
189 189 189
189 189 189
176 176 176
189 189 189
192 192 192
186 186 186
184 184 184
195 195 195
204 204 204
198 198 198
181 181 181
179 179 179
171 171 171
155 155 155
134 134 134
135 135 135
152 152 152
164 164 164
189 189 189
209 209 209
214 214 214
205 205 205
210 210 210
197 197 197
177 177 177
201 201 201
216 216 216
212 212 212
192 192 192
166 166 166
139 139 139
126 126 126
152 152 152
176 176 176
195 195 195
203 203 203
195 195 195
176 176 176
168 168 168
151 151 151
143 143 143
140 140 140
139 139 139
137 137 137
166 166 166
194 194 194
218 218 218
229 229 229
213 213 213
197 197 197
214 214 214
213 213 213
195 195 195
182 182 182
185 185 185
188 188 188
187 187 187
183 183 183
191 191 191
186 186 186
198 198 198
196 196 196
182 182 182
160 160 160
142 142 142
157 157 157
174 174 174
182 182 182
178 178 178
184 184 184
187 187 187
179 179 179
182 182 182
174 174 174
174 174 174
196 196 196
210 210 210
206 206 206
188 188 188
164 164 164
137 137 137
133 133 133
161 161 161
189 189 189
213 213 213
226 226 226
214 214 214
189 189 189
162 162 162
146 146 146
139 139 139
147 147 147
148 148 148
141 141 141
156 156 156
180 180 180
198 198 198
205 205 205
195 195 195
206 206 206
228 228 228
226 226 226
203 203 203
176 176 176
175 175 175
178 178 178
177 177 177
167 167 167
169 169 169
190 190 190
203 203 203
201 201 201
185 185 185
177 177 177
164 164 164
176 176 176
197 197 197
209 209 209
203 203 203
185 185 185
160 160 160
152 152 152
153 153 153
147 147 147
161 161 161
180 180 180
189 189 189
187 187 187
173 173 173
152 152 152
131 131 131
148 148 148
162 162 162
190 190 190
215 215 215
228 228 228
215 215 215
190 190 190
163 163 163
151 151 151
160 160 160
171 171 171
172 172 172
163 163 163
146 146 146
159 159 159
172 172 172
176 176 176
173 173 173
198 198 198
215 215 215
214 214 214
196 196 196
179 179 179
194 194 194
199 199 199
200 200 200
187 187 187
166 166 166
181 181 181
193 193 193
191 191 191
201 201 201
197 197 197
180 180 180
186 186 186
213 213 213
231 231 231
221 221 221
196 196 196
169 169 169
141 141 141
139 139 139
131 131 131
142 142 142
157 157 157
164 164 164
162 162 162
151 151 151
145 145 145
143 143 143
163 163 163
177 177 177
187 187 187
200 200 200
207 207 207
199 199 199
179 179 179
163 163 163
177 177 177
182 182 182
190 190 190
191 191 191
180 180 180
160 160 160
177 177 177
187 187 187
186 186 186
191 191 191
190 190 190
190 190 190
190 190 190
177 177 177
186 186 186
203 203 203
214 214 214
215 215 215
198 198 198
174 174 174
164 164 164
177 177 177
199 199 199
211 211 211
206 206 206
187 187 187
184 184 184
210 210 210
226 226 226
218 218 218
194 194 194
167 167 167
170 170 170
168 168 168
157 157 157
139 139 139
131 131 131
136 136 136
150 150 150
166 166 166
173 173 173
171 171 171
170 170 170
185 185 185
199 199 199
217 217 217
215 215 215
196 196 196
170 170 170
181 181 181
200 200 200
207 207 207
199 199 199
201 201 201
188 188 188
168 168 168
189 189 189
202 202 202
201 201 201
218 218 218
216 216 216
196 196 196
171 171 171
159 159 159
181 181 181
196 196 196
210 210 210
212 212 212
196 196 196
172 172 172
147 147 147
172 172 172
192 192 192
203 203 203
198 198 198
181 181 181
171 171 171
192 192 192
202 202 202
197 197 197
180 180 180
187 187 187
199 199 199
196 196 196
181 181 181
159 159 159
133 133 133
145 145 145
170 170 170
190 190 190
201 201 201
198 198 198
181 181 181
181 181 181
198 198 198
215 215 215
213 213 213
194 194 194
170 170 170
191 191 191
214 214 214
223 223 223
210 210 210
195 195 195
183 183 183
168 168 168
189 189 189
202 202 202
211 211 211
235 235 235
231 231 231
205 205 205
176 176 176
172 172 172
173 173 173
188 188 188
197 197 197
192 192 192
180 180 180
160 160 160
136 136 136
158 158 158
175 175 175
183 183 183
179 179 179
166 166 166
152 152 152
167 167 167
174 174 174
171 171 171
182 182 182
208 208 208
227 227 227
222 222 222
199 199 199
172 172 172
143 143 143
155 155 155
183 183 183
208 208 208
226 226 226
220 220 220
197 197 197
169 169 169
183 183 183
195 195 195
194 194 194
181 181 181
173 173 173
188 188 188
209 209 209
217 217 217
205 205 205
182 182 182
168 168 168
159 159 159
178 178 178
188 188 188
202 202 202
220 220 220
218 218 218
197 197 197
185 185 185
200 200 200
201 201 201
197 197 197
207 207 207
201 201 201
182 182 182
157 157 157
148 148 148
167 167 167
179 179 179
181 181 181
171 171 171
154 154 154
158 158 158
162 162 162
157 157 157
156 156 156
186 186 186
215 215 215
243 243 243
233 233 233
205 205 205
175 175 175
146 146 146
156 156 156
185 185 185
212 212 212
232 232 232
224 224 224
199 199 199
171 171 171
161 161 161
181 181 181
198 198 198
204 204 204
193 193 193
183 183 183
194 194 194
195 195 195
187 187 187
168 168 168
159 159 159
156 156 156
158 158 158
166 166 166
182 182 182
194 194 194
197 197 197
188 188 188
202 202 202
225 225 225
227 227 227
206 206 206
201 201 201
195 195 195
178 178 178
156 156 156
168 168 168
182 182 182
197 197 197
199 199 199
187 187 187
166 166 166
155 155 155
159 159 159
154 154 154
171 171 171
189 189 189
203 203 203
219 219 219
215 215 215
194 194 194
168 168 168
143 143 143
149 149 149
175 175 175
197 197 197
210 210 210
206 206 206
187 187 187
167 167 167
163 163 163
189 189 189
210 210 210
216 216 216
203 203 203
180 180 180
182 182 182
180 180 180
167 167 167
178 178 178
186 186 186
182 182 182
167 167 167
152 152 152
174 174 174
190 190 190
194 194 194
185 185 185
206 206 206
233 233 233
236 236 236
210 210 210
182 182 182
178 178 178
167 167 167
171 171 171
186 186 186
191 191 191
202 202 202
204 204 204
191 191 191
169 169 169
144 144 144
147 147 147
160 160 160
181 181 181
201 201 201
210 210 210
202 202 202
188 188 188
174 174 174
153 153 153
135 135 135
144 144 144
160 160 160
174 174 174
183 183 183
191 191 191
195 195 195
186 186 186
167 167 167
184 184 184
203 203 203
209 209 209
198 198 198
176 176 176
161 161 161
160 160 160
177 177 177
199 199 199
210 210 210
204 204 204
185 185 185
162 162 162
162 162 162
175 175 175
179 179 179
171 171 171
194 194 194
212 212 212
213 213 213
197 197 197
173 173 173
176 176 176
175 175 175
177 177 177
194 194 194
200 200 200
192 192 192
194 194 194
182 182 182
163 163 163
128 128 128
146 146 146
170 170 170
191 191 191
217 217 217
231 231 231
217 217 217
191 191 191
163 163 163
134 134 134
139 139 139
162 162 162
181 181 181
191 191 191
188 188 188
202 202 202
207 207 207
195 195 195
174 174 174
169 169 169
184 184 184
192 192 192
196 196 196
186 186 186
166 166 166
156 156 156
184 184 184
208 208 208
223 223 223
215 215 215
192 192 192
186 186 186
176 176 176
157 157 157
157 157 157
153 153 153
172 172 172
184 184 184
185 185 185
175 175 175
165 165 165
173 173 173
172 172 172
173 173 173
188 188 188
193 193 193
185 185 185
173 173 173
165 165 165
148 148 148
150 150 150
163 163 163
169 169 169
192 192 192
219 219 219
234 234 234
219 219 219
192 192 192
164 164 164
135 135 135
147 147 147
172 172 172
194 194 194
208 208 208
204 204 204
197 197 197
202 202 202
194 194 194
196 196 196
185 185 185
179 179 179
195 195 195
198 198 198
188 188 188
168 168 168
153 153 153
179 179 179
201 201 201
213 213 213
206 206 206
201 201 201
203 203 203
190 190 190
168 168 168
143 143 143
136 136 136
153 153 153
162 162 162
162 162 162
154 154 154
153 153 153
161 161 161
167 167 167
184 184 184
192 192 192
186 186 186
170 170 170
154 154 154
142 142 142
131 131 131
167 167 167
183 183 183
190 190 190
197 197 197
219 219 219
225 225 225
211 211 211
191 191 191
165 165 165
138 138 138
147 147 147
173 173 173
195 195 195
209 209 209
205 205 205
187 187 187
197 197 197
219 219 219
224 224 224
206 206 206
180 180 180
184 184 184
187 187 187
178 178 178
160 160 160
141 141 141
164 164 164
181 181 181
190 190 190
187 187 187
203 203 203
206 206 206
192 192 192
170 170 170
144 144 144
157 157 157
177 177 177
190 190 190
191 191 191
179 179 179
159 159 159
158 158 158
184 184 184
208 208 208
221 221 221
211 211 211
189 189 189
162 162 162
140 140 140
145 145 145
176 176 176
195 195 195
203 203 203
203 203 203
232 232 232
242 242 242
216 216 216
187 187 187
168 168 168
148 148 148
140 140 140
163 163 163
183 183 183
193 193 193
194 194 194
191 191 191
204 204 204
231 231 231
239 239 239
214 214 214
185 185 185
164 164 164
166 166 166
159 159 159
144 144 144
159 159 159
177 177 177
186 186 186
184 184 184
197 197 197
209 209 209
203 203 203
184 184 184
162 162 162
145 145 145
172 172 172
198 198 198
217 217 217
218 218 218
200 200 200
174 174 174
163 163 163
193 193 193
222 222 222
247 247 247
227 227 227
198 198 198
168 168 168
150 150 150
152 152 152
175 175 175
194 194 194
202 202 202
194 194 194
216 216 216
221 221 221
204 204 204
191 191 191
177 177 177
155 155 155
131 131 131
149 149 149
174 174 174
196 196 196
208 208 208
203 203 203
194 194 194
215 215 215
219 219 219
203 203 203
178 178 178
151 151 151
142 142 142
137 137 137
151 151 151
178 178 178
201 201 201
215 215 215
211 211 211
202 202 202
215 215 215
209 209 209
188 188 188
163 163 163
152 152 152
178 178 178
207 207 207
233 233 233
235 235 235
209 209 209
181 181 181
160 160 160
188 188 188
213 213 213
228 228 228
217 217 217
192 192 192
165 165 165
152 152 152
152 152 152
164 164 164
180 180 180
186 186 186
180 180 180
189 189 189
192 192 192
191 191 191
189 189 189
175 175 175
154 154 154
130 130 130
147 147 147
172 172 172
193 193 193
205 205 205
200 200 200
183 183 183
189 189 189
191 191 191
181 181 181
162 162 162
139 139 139
136 136 136
151 151 151
159 159 159
187 187 187
216 216 216
243 243 243
231 231 231
203 203 203
202 202 202
197 197 197
180 180 180
167 167 167
180 180 180
183 183 183
199 199 199
220 220 220
221 221 221
202 202 202
176 176 176
148 148 148
172 172 172
190 190 190
199 199 199
193 193 193
175 175 175
156 156 156
146 146 146
149 149 149
148 148 148
159 159 159
163 163 163
159 159 159
161 161 161
168 168 168
177 177 177
175 175 175
163 163 163
145 145 145
135 135 135
151 151 151
161 161 161
179 179 179
188 188 188
184 184 184
170 170 170
161 161 161
162 162 162
155 155 155
140 140 140
121 121 121
142 142 142
158 158 158
167 167 167
185 185 185
212 212 212
232 232 232
225 225 225
200 200 200
179 179 179
176 176 176
164 164 164
189 189 189
208 208 208
212 212 212
199 199 199
194 194 194
194 194 194
182 182 182
161 161 161
139 139 139
161 161 161
176 176 176
183 183 183
178 178 178
163 163 163
145 145 145
151 151 151
157 157 157
162 162 162
168 168 168
164 164 164
152 152 152
135 135 135
149 149 149
156 156 156
154 154 154
145 145 145
129 129 129
152 152 152
171 171 171
184 184 184
185 185 185
174 174 174
161 161 161
150 150 150
133 133 133
133 133 133
128 128 128
119 119 119
120 120 120
140 140 140
156 156 156
165 165 165
171 171 171
192 192 192
204 204 204
200 200 200
183 183 183
160 160 160
150 150 150
173 173 173
202 202 202
230 230 230
240 240 240
215 215 215
186 186 186
166 166 166
157 157 157
141 141 141
155 155 155
180 180 180
202 202 202
212 212 212
203 203 203
183 183 183
164 164 164
151 151 151
157 157 157
168 168 168
175 175 175
170 170 170
157 157 157
142 142 142
144 144 144
147 147 147
141 141 141
142 142 142
137 137 137
163 163 163
185 185 185
201 201 201
202 202 202
189 189 189
167 167 167
147 147 147
151 151 151
147 147 147
136 136 136
140 140 140
138 138 138
132 132 132
146 146 146
154 154 154
153 153 153
167 167 167
175 175 175
172 172 172
160 160 160
160 160 160
152 152 152
172 172 172
201 201 201
227 227 227
235 235 235
213 213 213
185 185 185
156 156 156
148 148 148
148 148 148
163 163 163
192 192 192
220 220 220
238 238 238
222 222 222
198 198 198
176 176 176
150 150 150
153 153 153
165 165 165
171 171 171
167 167 167
154 154 154
158 158 158
159 159 159
162 162 162
155 155 155
143 143 143
139 139 139
165 165 165
188 188 188
204 204 204
206 206 206
192 192 192
169 169 169
174 174 174
180 180 180
174 174 174
159 159 159
155 155 155
154 154 154
144 144 144
130 130 130
137 137 137
136 136 136
139 139 139
145 145 145
162 162 162
173 173 173
174 174 174
164 164 164
162 162 162
185 185 185
203 203 203
207 207 207
194 194 194
173 173 173
166 166 166
177 177 177
177 177 177
166 166 166
191 191 191
217 217 217
234 234 234
220 220 220
202 202 202
179 179 179
152 152 152
150 150 150
152 152 152
157 157 157
154 154 154
157 157 157
168 168 168
169 169 169
169 169 169
162 162 162
147 147 147
134 134 134
158 158 158
178 178 178
192 192 192
193 193 193
182 182 182
180 180 180
199 199 199
208 208 208
199 199 199
179 179 179
164 164 164
162 162 162
152 152 152
136 136 136
125 125 125
117 117 117
139 139 139
156 156 156
166 166 166
177 177 177
178 178 178
169 169 169
151 151 151
163 163 163
175 175 175
178 178 178
169 169 169
167 167 167
190 190 190
205 205 205
205 205 205
189 189 189
177 177 177
197 197 197
207 207 207
200 200 200
190 190 190
170 170 170
165 165 165
157 157 157
134 134 134
138 138 138
140 140 140
157 157 157
168 168 168
183 183 183
191 191 191
186 186 186
171 171 171
159 159 159
171 171 171
174 174 174
171 171 171
172 172 172
163 163 163
191 191 191
217 217 217
232 232 232
217 217 217
191 191 191
163 163 163
161 161 161
151 151 151
138 138 138
127 127 127
120 120 120
142 142 142
160 160 160
171 171 171
172 172 172
172 172 172
163 163 163
155 155 155
140 140 140
147 147 147
148 148 148
150 150 150
178 178 178
206 206 206
229 229 229
229 229 229
205 205 205
178 178 178
172 172 172
178 178 178
177 177 177
169 169 169
173 173 173
174 174 174
165 165 165
111 111 111
116 116 116
132 132 132
156 156 156
183 183 183
207 207 207
220 220 220
212 212 212
190 190 190
179 179 179
195 195 195
199 199 199
189 189 189
169 169 169
163 163 163
191 191 191
216 216 216
230 230 230
216 216 216
191 191 191
163 163 163
152 152 152
142 142 142
133 133 133
122 122 122
117 117 117
138 138 138
155 155 155
165 165 165
172 172 172
185 185 185
187 187 187
177 177 177
158 158 158
149 149 149
160 160 160
162 162 162
179 179 179
207 207 207
231 231 231
231 231 231
206 206 206
178 178 178
153 153 153
148 148 148
150 150 150
160 160 160
171 171 171
172 172 172
174 174 174
123 123 123
136 136 136
143 143 143
162 162 162
191 191 191
220 220 220
247 247 247
229 229 229
200 200 200
191 191 191
212 212 212
219 219 219
204 204 204
180 180 180
153 153 153
178 178 178
197 197 197
205 205 205
197 197 197
178 178 178
153 153 153
146 146 146
151 151 151
148 148 148
137 137 137
131 131 131
128 128 128
142 142 142
163 163 163
186 186 186
202 202 202
205 205 205
192 192 192
170 170 170
154 154 154
165 165 165
168 168 168
169 169 169
192 192 192
208 208 208
208 208 208
192 192 192
188 188 188
180 180 180
162 162 162
139 139 139
150 150 150
159 159 159
176 176 176
188 188 188
137 137 137
152 152 152
159 159 159
158 158 158
186 186 186
212 212 212
229 229 229
219 219 219
194 194 194
191 191 191
213 213 213
219 219 219
204 204 204
180 180 180
153 153 153
157 157 157
172 172 172
177 177 177
172 172 172
157 157 157
158 158 158
173 173 173
179 179 179
175 175 175
160 160 160
147 147 147
150 150 150
145 145 145
165 165 165
189 189 189
207 207 207
210 210 210
196 196 196
173 173 173
178 178 178
184 184 184
178 178 178
162 162 162
169 169 169
180 180 180
191 191 191
211 211 211
217 217 217
203 203 203
180 180 180
162 162 162
168 168 168
165 165 165
178 178 178
190 190 190
144 144 144
160 160 160
169 169 169
167 167 167
171 171 171
190 190 190
200 200 200
194 194 194
177 177 177
179 179 179
195 195 195
200 200 200
189 189 189
170 170 170
145 145 145
154 154 154
170 170 170
179 179 179
176 176 176
166 166 166
177 177 177
197 197 197
206 206 206
199 199 199
180 180 180
164 164 164
167 167 167
161 161 161
163 163 163
180 180 180
195 195 195
197 197 197
185 185 185
179 179 179
199 199 199
207 207 207
198 198 198
178 178 178
154 154 154
172 172 172
201 201 201
230 230 230
243 243 243
217 217 217
188 188 188
187 187 187
196 196 196
191 191 191
174 174 174
180 180 180
144 144 144
160 160 160
171 171 171
181 181 181
181 181 181
170 170 170
170 170 170
167 167 167
154 154 154
159 159 159
171 171 171
174 174 174
167 167 167
151 151 151
145 145 145
169 169 169
190 190 190
201 201 201
198 198 198
181 181 181
187 187 187
212 212 212
226 226 226
215 215 215
191 191 191
173 173 173
176 176 176
169 169 169
176 176 176
172 172 172
173 173 173
175 175 175
166 166 166
186 186 186
208 208 208
219 219 219
208 208 208
185 185 185
159 159 159
169 169 169
197 197 197
222 222 222
230 230 230
211 211 211
185 185 185
207 207 207
220 220 220
212 212 212
190 190 190
165 165 165
