P3
50 50
255
89 89 89
112 112 112
133 133 133
149 149 149
158 158 158
159 159 159
151 151 151
158 158 158
188 188 188
217 217 217
245 245 245
232 232 232
203 203 203
174 174 174
145 145 145
166 166 166
184 184 184
193 193 193
188 188 188
172 172 172
150 150 150
137 137 137
158 158 158
173 173 173
180 180 180
175 175 175
160 160 160
147 147 147
171 171 171
190 190 190
199 199 199
193 193 193
176 176 176
153 153 153
128 128 128
145 145 145
160 160 160
168 168 168
166 166 166
155 155 155
138 138 138
120 120 120
113 113 113
101 101 101
104 104 104
108 108 108
129 129 129
150 150 150
165 165 165
173 173 173
93 93 93
117 117 117
138 138 138
155 155 155
165 165 165
166 166 166
158 158 158
158 158 158
183 183 183
209 209 209
227 227 227
220 220 220
197 197 197
170 170 170
145 145 145
169 169 169
187 187 187
196 196 196
191 191 191
175 175 175
152 152 152
140 140 140
162 162 162
177 177 177
184 184 184
179 179 179
165 165 165
148 148 148
173 173 173
192 192 192
202 202 202
196 196 196
179 179 179
155 155 155
133 133 133
155 155 155
173 173 173
182 182 182
180 180 180
167 167 167
149 149 149
149 149 149
140 140 140
125 125 125
131 131 131
135 135 135
133 133 133
149 149 149
164 164 164
172 172 172
92 92 92
115 115 115
136 136 136
153 153 153
163 163 163
164 164 164
155 155 155
163 163 163
189 189 189
210 210 210
216 216 216
203 203 203
180 180 180
157 157 157
139 139 139
161 161 161
178 178 178
186 186 186
182 182 182
167 167 167
146 146 146
136 136 136
162 162 162
184 184 184
200 200 200
203 203 203
190 190 190
168 168 168
164 164 164
182 182 182
190 190 190
185 185 185
170 170 170
148 148 148
135 135 135
158 158 158
176 176 176
186 186 186
184 184 184
170 170 170
177 177 177
176 176 176
165 165 165
146 146 146
156 156 156
162 162 162
158 158 158
147 147 147
154 154 154
161 161 161
93 93 93
111 111 111
132 132 132
149 149 149
161 161 161
163 163 163
157 157 157
159 159 159
183 183 183
202 202 202
207 207 207
196 196 196
175 175 175
150 150 150
127 127 127
146 146 146
160 160 160
166 166 166
163 163 163
151 151 151
133 133 133
145 145 145
174 174 174
201 201 201
226 226 226
230 230 230
209 209 209
182 182 182
175 175 175
169 169 169
169 169 169
165 165 165
153 153 153
134 134 134
130 130 130
152 152 152
169 169 169
177 177 177
175 175 175
190 190 190
203 203 203
202 202 202
186 186 186
163 163 163
177 177 177
185 185 185
180 180 180
166 166 166
145 145 145
143 143 143
101 101 101
127 127 127
152 152 152
173 173 173
189 189 189
192 192 192
183 183 183
165 165 165
167 167 167
182 182 182
185 185 185
177 177 177
160 160 160
138 138 138
113 113 113
126 126 126
138 138 138
142 142 142
140 140 140
130 130 130
117 117 117
147 147 147
176 176 176
205 205 205
233 233 233
240 240 240
213 213 213
184 184 184
188 188 188
181 181 181
165 165 165
146 146 146
131 131 131
119 119 119
119 119 119
138 138 138
153 153 153
160 160 160
178 178 178
204 204 204
223 223 223
220 220 220
199 199 199
173 173 173
192 192 192
201 201 201
196 196 196
178 178 178
155 155 155
129 129 129
110 110 110
138 138 138
166 166 166
193 193 193
214 214 214
221 221 221
206 206 206
182 182 182
154 154 154
157 157 157
160 160 160
154 154 154
144 144 144
129 129 129
126 126 126
143 143 143
155 155 155
158 158 158
153 153 153
140 140 140
136 136 136
148 148 148
168 168 168
193 193 193
212 212 212
215 215 215
199 199 199
184 184 184
190 190 190
185 185 185
184 184 184
171 171 171
154 154 154
145 145 145
129 129 129
120 120 120
132 132 132
150 150 150
177 177 177
203 203 203
221 221 221
218 218 218
198 198 198
179 179 179
194 194 194
204 204 204
199 199 199
180 180 180
157 157 157
130 130 130
113 113 113
143 143 143
172 172 172
201 201 201
230 230 230
245 245 245
218 218 218
189 189 189
166 166 166
172 172 172
182 182 182
181 181 181
169 169 169
150 150 150
143 143 143
164 164 164
178 178 178
183 183 183
176 176 176
160 160 160
160 160 160
176 176 176
182 182 182
178 178 178
184 184 184
186 186 186
176 176 176
174 174 174
198 198 198
214 214 214
211 211 211
193 193 193
180 180 180
168 168 168
148 148 148
126 126 126
122 122 122
141 141 141
166 166 166
187 187 187
200 200 200
198 198 198
183 183 183
174 174 174
183 183 183
192 192 192
187 187 187
171 171 171
150 150 150
125 125 125
111 111 111
140 140 140
168 168 168
195 195 195
218 218 218
226 226 226
209 209 209
186 186 186
195 195 195
194 194 194
209 209 209
207 207 207
190 190 190
166 166 166
155 155 155
179 179 179
197 197 197
203 203 203
193 193 193
173 173 173
180 180 180
201 201 201
212 212 212
204 204 204
184 184 184
159 159 159
154 154 154
183 183 183
212 212 212
237 237 237
232 232 232
205 205 205
202 202 202
186 186 186
162 162 162
139 139 139
134 134 134
148 148 148
169 169 169
184 184 184
189 189 189
181 181 181
163 163 163
160 160 160
164 164 164
173 173 173
173 173 173
163 163 163
145 145 145
124 124 124
102 102 102
129 129 129
155 155 155
177 177 177
193 193 193
197 197 197
187 187 187
208 208 208
222 222 222
213 213 213
229 229 229
226 226 226
202 202 202
174 174 174
159 159 159
184 184 184
203 203 203
210 210 210
199 199 199
178 178 178
192 192 192
220 220 220
241 241 241
225 225 225
197 197 197
168 168 168
153 153 153
181 181 181
208 208 208
229 229 229
225 225 225
217 217 217
214 214 214
194 194 194
168 168 168
144 144 144
139 139 139
152 152 152
174 174 174
190 190 190
195 195 195
186 186 186
168 168 168
164 164 164
186 186 186
200 200 200
200 200 200
186 186 186
164 164 164
139 139 139
105 105 105
122 122 122
135 135 135
153 153 153
165 165 165
168 168 168
190 190 190
217 217 217
237 237 237
224 224 224
223 223 223
220 220 220
199 199 199
172 172 172
154 154 154
177 177 177
194 194 194
200 200 200
191 191 191
172 172 172
191 191 191
218 218 218
238 238 238
223 223 223
196 196 196
167 167 167
144 144 144
168 168 168
189 189 189
202 202 202
200 200 200
209 209 209
206 206 206
189 189 189
165 165 165
143 143 143
138 138 138
147 147 147
168 168 168
183 183 183
188 188 188
180 180 180
163 163 163
176 176 176
203 203 203
223 223 223
223 223 223
202 202 202
176 176 176
148 148 148
118 118 118
137 137 137
151 151 151
158 158 158
156 156 156
156 156 156
182 182 182
206 206 206
219 219 219
211 211 211
199 199 199
198 198 198
183 183 183
161 161 161
157 157 157
175 175 175
184 184 184
181 181 181
172 172 172
156 156 156
178 178 178
199 199 199
209 209 209
201 201 201
191 191 191
179 179 179
164 164 164
164 164 164
165 165 165
174 174 174
178 178 178
188 188 188
186 186 186
173 173 173
152 152 152
133 133 133
129 129 129
136 136 136
154 154 154
170 170 170
178 178 178
175 175 175
162 162 162
178 178 178
205 205 205
228 228 228
228 228 228
205 205 205
178 178 178
160 160 160
127 127 127
147 147 147
163 163 163
170 170 170
168 168 168
170 170 170
189 189 189
197 197 197
192 192 192
186 186 186
172 172 172
171 171 171
160 160 160
150 150 150
163 163 163
182 182 182
193 193 193
190 190 190
175 175 175
154 154 154
157 157 157
173 173 173
197 197 197
216 216 216
218 218 218
200 200 200
178 178 178
178 178 178
167 167 167
149 149 149
154 154 154
162 162 162
161 161 161
150 150 150
137 137 137
129 129 129
144 144 144
159 159 159
167 167 167
175 175 175
183 183 183
180 180 180
166 166 166
169 169 169
192 192 192
208 208 208
208 208 208
201 201 201
193 193 193
175 175 175
128 128 128
149 149 149
165 165 165
173 173 173
170 170 170
175 175 175
196 196 196
205 205 205
199 199 199
180 180 180
156 156 156
152 152 152
167 167 167
173 173 173
169 169 169
179 179 179
188 188 188
186 186 186
172 172 172
151 151 151
148 148 148
177 177 177
206 206 206
232 232 232
235 235 235
210 210 210
182 182 182
181 181 181
170 170 170
151 151 151
137 137 137
142 142 142
158 158 158
167 167 167
166 166 166
156 156 156
163 163 163
181 181 181
191 191 191
188 188 188
176 176 176
173 173 173
160 160 160
152 152 152
170 170 170
181 181 181
200 200 200
209 209 209
201 201 201
180 180 180
123 123 123
143 143 143
158 158 158
165 165 165
163 163 163
170 170 170
188 188 188
197 197 197
191 191 191
174 174 174
151 151 151
166 166 166
183 183 183
191 191 191
186 186 186
170 170 170
173 173 173
171 171 171
159 159 159
141 141 141
145 145 145
172 172 172
198 198 198
218 218 218
220 220 220
202 202 202
176 176 176
174 174 174
165 165 165
151 151 151
157 157 157
163 163 163
183 183 183
195 195 195
194 194 194
180 180 180
174 174 174
196 196 196
210 210 210
206 206 206
187 187 187
163 163 163
150 150 150
140 140 140
151 151 151
174 174 174
193 193 193
200 200 200
193 193 193
175 175 175
112 112 112
130 130 130
144 144 144
158 158 158
165 165 165
162 162 162
171 171 171
177 177 177
173 173 173
159 159 159
147 147 147
171 171 171
189 189 189
198 198 198
192 192 192
175 175 175
152 152 152
160 160 160
163 163 163
156 156 156
142 142 142
158 158 158
179 179 179
193 193 193
194 194 194
181 181 181
194 194 194
200 200 200
191 191 191
172 172 172
172 172 172
177 177 177
203 203 203
221 221 221
219 219 219
198 198 198
176 176 176
198 198 198
212 212 212
208 208 208
189 189 189
164 164 164
138 138 138
127 127 127
139 139 139
159 159 159
174 174 174
180 180 180
174 174 174
160 160 160
112 112 112
136 136 136
158 158 158
175 175 175
183 183 183
179 179 179
165 165 165
167 167 167
166 166 166
155 155 155
143 143 143
166 166 166
183 183 183
190 190 190
185 185 185
169 169 169
171 171 171
186 186 186
190 190 190
181 181 181
163 163 163
141 141 141
155 155 155
165 165 165
165 165 165
192 192 192
217 217 217
228 228 228
213 213 213
188 188 188
179 179 179
182 182 182
210 210 210
234 234 234
231 231 231
205 205 205
176 176 176
186 186 186
197 197 197
194 194 194
179 179 179
156 156 156
131 131 131
109 109 109
121 121 121
139 139 139
153 153 153
164 164 164
166 166 166
159 159 159
116 116 116
142 142 142
165 165 165
183 183 183
192 192 192
187 187 187
172 172 172
164 164 164
163 163 163
153 153 153
138 138 138
152 152 152
166 166 166
172 172 172
168 168 168
162 162 162
188 188 188
208 208 208
214 214 214
201 201 201
178 178 178
152 152 152
160 160 160
169 169 169
169 169 169
197 197 197
224 224 224
241 241 241
220 220 220
192 192 192
174 174 174
175 175 175
200 200 200
216 216 216
214 214 214
195 195 195
170 170 170
166 166 166
174 174 174
171 171 171
160 160 160
151 151 151
140 140 140
123 123 123
126 126 126
150 150 150
171 171 171
185 185 185
188 188 188
179 179 179
114 114 114
139 139 139
162 162 162
179 179 179
187 187 187
187 187 187
184 184 184
170 170 170
151 151 151
152 152 152
160 160 160
159 159 159
150 150 150
149 149 149
146 146 146
167 167 167
194 194 194
217 217 217
225 225 225
209 209 209
184 184 184
156 156 156
173 173 173
183 183 183
183 183 183
187 187 187
208 208 208
217 217 217
205 205 205
183 183 183
160 160 160
159 159 159
178 178 178
190 190 190
188 188 188
175 175 175
176 176 176
170 170 170
155 155 155
163 163 163
169 169 169
164 164 164
151 151 151
133 133 133
132 132 132
158 158 158
181 181 181
198 198 198
202 202 202
191 191 191
106 106 106
130 130 130
150 150 150
166 166 166
186 186 186
196 196 196
193 193 193
178 178 178
156 156 156
168 168 168
178 178 178
177 177 177
165 165 165
147 147 147
134 134 134
161 161 161
186 186 186
206 206 206
212 212 212
199 199 199
177 177 177
157 157 157
176 176 176
187 187 187
186 186 186
174 174 174
183 183 183
189 189 189
181 181 181
164 164 164
142 142 142
139 139 139
153 153 153
161 161 161
173 173 173
190 190 190
196 196 196
188 188 188
170 170 170
183 183 183
189 189 189
182 182 182
165 165 165
143 143 143
132 132 132
157 157 157
180 180 180
197 197 197
201 201 201
190 190 190
93 93 93
115 115 115
140 140 140
163 163 163
182 182 182
192 192 192
189 189 189
175 175 175
157 157 157
176 176 176
186 186 186
185 185 185
172 172 172
153 153 153
138 138 138
148 148 148
169 169 169
183 183 183
187 187 187
179 179 179
162 162 162
150 150 150
168 168 168
178 178 178
177 177 177
166 166 166
156 156 156
159 159 159
154 154 154
141 141 141
123 123 123
116 116 116
129 129 129
156 156 156
180 180 180
199 199 199
206 206 206
197 197 197
187 187 187
209 209 209
218 218 218
207 207 207
184 184 184
157 157 157
130 130 130
148 148 148
169 169 169
183 183 183
186 186 186
177 177 177
101 101 101
125 125 125
147 147 147
164 164 164
173 173 173
176 176 176
174 174 174
162 162 162
173 173 173
186 186 186
188 188 188
181 181 181
169 169 169
153 153 153
161 161 161
160 160 160
150 150 150
157 157 157
160 160 160
154 154 154
140 140 140
151 151 151
166 166 166
171 171 171
167 167 167
178 178 178
177 177 177
166 166 166
148 148 148
126 126 126
101 101 101
114 114 114
127 127 127
153 153 153
176 176 176
194 194 194
200 200 200
191 191 191
197 197 197
226 226 226
247 247 247
222 222 222
193 193 193
164 164 164
139 139 139
133 133 133
150 150 150
161 161 161
164 164 164
157 157 157
110 110 110
135 135 135
159 159 159
179 179 179
191 191 191
190 190 190
177 177 177
163 163 163
186 186 186
202 202 202
204 204 204
191 191 191
169 169 169
169 169 169
178 178 178
178 178 178
166 166 166
148 148 148
132 132 132
127 127 127
149 149 149
173 173 173
192 192 192
201 201 201
194 194 194
198 198 198
198 198 198
183 183 183
162 162 162
137 137 137
121 121 121
140 140 140
153 153 153
159 159 159
162 162 162
176 176 176
181 181 181
175 175 175
193 193 193
219 219 219
232 232 232
216 216 216
190 190 190
169 169 169
157 157 157
142 142 142
127 127 127
143 143 143
156 156 156
161 161 161
112 112 112
139 139 139
164 164 164
184 184 184
197 197 197
196 196 196
182 182 182
163 163 163
186 186 186
203 203 203
205 205 205
192 192 192
177 177 177
176 176 176
187 187 187
186 186 186
174 174 174
164 164 164
158 158 158
145 145 145
160 160 160
188 188 188
214 214 214
229 229 229
218 218 218
208 208 208
207 207 207
191 191 191
167 167 167
141 141 141
140 140 140
162 162 162
180 180 180
189 189 189
185 185 185
170 170 170
157 157 157
153 153 153
177 177 177
195 195 195
202 202 202
194 194 194
187 187 187
184 184 184
178 178 178
164 164 164
143 143 143
163 163 163
179 179 179
186 186 186
120 120 120
135 135 135
158 158 158
178 178 178
189 189 189
189 189 189
176 176 176
171 171 171
175 175 175
189 189 189
196 196 196
195 195 195
181 181 181
174 174 174
184 184 184
183 183 183
185 185 185
190 190 190
182 182 182
164 164 164
163 163 163
192 192 192
221 221 221
244 244 244
226 226 226
200 200 200
200 200 200
185 185 185
163 163 163
138 138 138
154 154 154
180 180 180
204 204 204
218 218 218
211 211 211
190 190 190
164 164 164
137 137 137
155 155 155
168 168 168
173 173 173
182 182 182
193 193 193
203 203 203
197 197 197
179 179 179
156 156 156
176 176 176
196 196 196
205 205 205
134 134 134
149 149 149
157 157 157
162 162 162
171 171 171
171 171 171
175 175 175
190 190 190
195 195 195
185 185 185
188 188 188
187 187 187
174 174 174
161 161 161
170 170 170
183 183 183
203 203 203
209 209 209
199 199 199
178 178 178
157 157 157
183 183 183
206 206 206
218 218 218
209 209 209
188 188 188
187 187 187
189 189 189
179 179 179
160 160 160
160 160 160
189 189 189
219 219 219
245 245 245
230 230 230
201 201 201
172 172 172
147 147 147
156 156 156
156 156 156
157 157 157
179 179 179
201 201 201
213 213 213
206 206 206
186 186 186
160 160 160
179 179 179
200 200 200
210 210 210
142 142 142
157 157 157
166 166 166
165 165 165
164 164 164
164 164 164
181 181 181
199 199 199
204 204 204
193 193 193
173 173 173
168 168 168
163 163 163
181 181 181
189 189 189
187 187 187
207 207 207
215 215 215
203 203 203
181 181 181
154 154 154
165 165 165
182 182 182
189 189 189
184 184 184
194 194 194
214 214 214
217 217 217
200 200 200
176 176 176
167 167 167
186 186 186
212 212 212
231 231 231
222 222 222
197 197 197
169 169 169
159 159 159
169 169 169
170 170 170
160 160 160
174 174 174
194 194 194
204 204 204
198 198 198
192 192 192
176 176 176
172 172 172
190 190 190
198 198 198
142 142 142
157 157 157
166 166 166
175 175 175
186 186 186
187 187 187
177 177 177
193 193 193
198 198 198
188 188 188
169 169 169
151 151 151
177 177 177
198 198 198
209 209 209
203 203 203
195 195 195
201 201 201
192 192 192
172 172 172
157 157 157
142 142 142
155 155 155
160 160 160
175 175 175
204 204 204
230 230 230
236 236 236
212 212 212
183 183 183
193 193 193
201 201 201
193 193 193
202 202 202
197 197 197
180 180 180
157 157 157
163 163 163
174 174 174
174 174 174
164 164 164
161 161 161
185 185 185
210 210 210
225 225 225
216 216 216
193 193 193
166 166 166
170 170 170
176 176 176
134 134 134
149 149 149
165 165 165
187 187 187
201 201 201
201 201 201
187 187 187
176 176 176
180 180 180
172 172 172
156 156 156
154 154 154
180 180 180
203 203 203
215 215 215
208 208 208
187 187 187
189 189 189
198 198 198
192 192 192
175 175 175
152 152 152
155 155 155
172 172 172
181 181 181
198 198 198
219 219 219
223 223 223
205 205 205
190 190 190
215 215 215
228 228 228
215 215 215
190 190 190
169 169 169
157 157 157
141 141 141
158 158 158
168 168 168
169 169 169
179 179 179
178 178 178
190 190 190
218 218 218
241 241 241
226 226 226
198 198 198
169 169 169
146 146 146
150 150 150
121 121 121
139 139 139
165 165 165
187 187 187
201 201 201
201 201 201
187 187 187
165 165 165
156 156 156
150 150 150
138 138 138
148 148 148
172 172 172
192 192 192
202 202 202
196 196 196
182 182 182
203 203 203
214 214 214
206 206 206
186 186 186
169 169 169
173 173 173
195 195 195
208 208 208
204 204 204
194 194 194
196 196 196
185 185 185
194 194 194
222 222 222
240 240 240
221 221 221
193 193 193
164 164 164
135 135 135
130 130 130
154 154 154
176 176 176
191 191 191
194 194 194
186 186 186
182 182 182
206 206 206
219 219 219
211 211 211
190 190 190
179 179 179
162 162 162
139 139 139
119 119 119
132 132 132
156 156 156
175 175 175
188 188 188
200 200 200
197 197 197
182 182 182
160 160 160
142 142 142
157 157 157
164 164 164
162 162 162
172 172 172
179 179 179
175 175 175
179 179 179
201 201 201
212 212 212
204 204 204
204 204 204
193 193 193
183 183 183
209 209 209
229 229 229
223 223 223
199 199 199
172 172 172
160 160 160
184 184 184
206 206 206
216 216 216
206 206 206
184 184 184
163 163 163
151 151 151
140 140 140
167 167 167
194 194 194
215 215 215
221 221 221
205 205 205
181 181 181
183 183 183
197 197 197
205 205 205
206 206 206
195 195 195
174 174 174
149 149 149
148 148 148
148 148 148
148 148 148
175 175 175
199 199 199
214 214 214
211 211 211
192 192 192
167 167 167
153 153 153
170 170 170
179 179 179
176 176 176
163 163 163
153 153 153
150 150 150
167 167 167
185 185 185
196 196 196
219 219 219
227 227 227
210 210 210
184 184 184
207 207 207
226 226 226
220 220 220
198 198 198
171 171 171
159 159 159
166 166 166
182 182 182
188 188 188
181 181 181
187 187 187
181 181 181
166 166 166
145 145 145
172 172 172
201 201 201
227 227 227
236 236 236
214 214 214
186 186 186
186 186 186
209 209 209
221 221 221
210 210 210
198 198 198
176 176 176
150 150 150
177 177 177
177 177 177
165 165 165
173 173 173
196 196 196
210 210 210
207 207 207
189 189 189
165 165 165
157 157 157
174 174 174
183 183 183
180 180 180
167 167 167
147 147 147
138 138 138
148 148 148
169 169 169
196 196 196
220 220 220
228 228 228
210 210 210
184 184 184
190 190 190
202 202 202
199 199 199
183 183 183
177 177 177
182 182 182
176 176 176
160 160 160
170 170 170
188 188 188
196 196 196
190 190 190
173 173 173
150 150 150
167 167 167
192 192 192
213 213 213
219 219 219
204 204 204
191 191 191
183 183 183
205 205 205
215 215 215
205 205 205
187 187 187
168 168 168
167 167 167
206 206 206
205 205 205
189 189 189
166 166 166
180 180 180
191 191 191
189 189 189
175 175 175
154 154 154
151 151 151
167 167 167
175 175 175
173 173 173
163 163 163
159 159 159
146 146 146
148 148 148
159 159 159
183 183 183
201 201 201
205 205 205
194 194 194
173 173 173
185 185 185
189 189 189
180 180 180
175 175 175
193 193 193
199 199 199
191 191 191
172 172 172
167 167 167
185 185 185
192 192 192
186 186 186
170 170 170
148 148 148
165 165 165
175 175 175
188 188 188
194 194 194
212 212 212
214 214 214
197 197 197
186 186 186
193 193 193
187 187 187
170 170 170
169 169 169
192 192 192
233 233 233
231 231 231
205 205 205
177 177 177
161 161 161
166 166 166
164 164 164
154 154 154
137 137 137
138 138 138
152 152 152
168 168 168
185 185 185
192 192 192
186 186 186
169 169 169
149 149 149
160 160 160
164 164 164
175 175 175
178 178 178
174 174 174
189 189 189
209 209 209
214 214 214
201 201 201
178 178 178
196 196 196
203 203 203
194 194 194
175 175 175
155 155 155
170 170 170
176 176 176
171 171 171
158 158 158
167 167 167
190 190 190
204 204 204
203 203 203
199 199 199
220 220 220
222 222 222
203 203 203
178 178 178
180 180 180
171 171 171
153 153 153
181 181 181
209 209 209
237 237 237
234 234 234
207 207 207
178 178 178
164 164 164
160 160 160
147 147 147
129 129 129
117 117 117
131 131 131
159 159 159
186 186 186
209 209 209
220 220 220
210 210 210
187 187 187
172 172 172
187 187 187
192 192 192
184 184 184
190 190 190
202 202 202
198 198 198
221 221 221
230 230 230
211 211 211
185 185 185
186 186 186
192 192 192
185 185 185
167 167 167
145 145 145
149 149 149
154 154 154
150 150 150
151 151 151
179 179 179
207 207 207
231 231 231
230 230 230
205 205 205
206 206 206
207 207 207
192 192 192
202 202 202
205 205 205
192 192 192
170 170 170
182 182 182
211 211 211
211 211 211
210 210 210
194 194 194
183 183 183
164 164 164
153 153 153
142 142 142
143 143 143
144 144 144
138 138 138
164 164 164
193 193 193
221 221 221
240 240 240
222 222 222
195 195 195
189 189 189
211 211 211
219 219 219
205 205 205
208 208 208
226 226 226
220 220 220
212 212 212
218 218 218
203 203 203
180 180 180
167 167 167
171 171 171
166 166 166
151 151 151
132 132 132
125 125 125
129 129 129
126 126 126
152 152 152
181 181 181
210 210 210
237 237 237
236 236 236
208 208 208
182 182 182
183 183 183
196 196 196
217 217 217
221 221 221
203 203 203
178 178 178
172 172 172
195 195 195
196 196 196
216 216 216
220 220 220
203 203 203
178 178 178
151 151 151
157 157 157
168 168 168
170 170 170
162 162 162
160 160 160
187 187 187
211 211 211
223 223 223
212 212 212
189 189 189
196 196 196
222 222 222
234 234 234
215 215 215
210 210 210
230 230 230
223 223 223
199 199 199
193 193 193
183 183 183
165 165 165
143 143 143
146 146 146
142 142 142
132 132 132
121 121 121
116 116 116
111 111 111
117 117 117
145 145 145
172 172 172
196 196 196
212 212 212
212 212 212
194 194 194
170 170 170
168 168 168
193 193 193
212 212 212
216 216 216
200 200 200
176 176 176
158 158 158
172 172 172
202 202 202
228 228 228
234 234 234
211 211 211
183 183 183
155 155 155
176 176 176
190 190 190
192 192 192
182 182 182
163 163 163
171 171 171
188 188 188
196 196 196
189 189 189
172 172 172
189 189 189
211 211 211
219 219 219
205 205 205
195 195 195
208 208 208
204 204 204
186 186 186
165 165 165
158 158 158
144 144 144
146 146 146
158 158 158
162 162 162
157 157 157
144 144 144
137 137 137
131 131 131
119 119 119
131 131 131
154 154 154
173 173 173
184 184 184
183 183 183
174 174 174
159 159 159
156 156 156
178 178 178
192 192 192
194 194 194
183 183 183
189 189 189
186 186 186
174 174 174
193 193 193
213 213 213
217 217 217
201 201 201
177 177 177
163 163 163
186 186 186
203 203 203
206 206 206
193 193 193
171 171 171
149 149 149
162 162 162
167 167 167
162 162 162
160 160 160
172 172 172
187 187 187
192 192 192
184 184 184
172 172 172
181 181 181
178 178 178
165 165 165
146 146 146
131 131 131
144 144 144
165 165 165
181 181 181
186 186 186
179 179 179
163 163 163
154 154 154
148 148 148
134 134 134
115 115 115
132 132 132
147 147 147
157 157 157
162 162 162
157 157 157
144 144 144
151 151 151
172 172 172
187 187 187
191 191 191
202 202 202
217 217 217
212 212 212
192 192 192
174 174 174
188 188 188
190 190 190
180 180 180
161 161 161
162 162 162
185 185 185
201 201 201
205 205 205
192 192 192
170 170 170
157 157 157
171 171 171
177 177 177
171 171 171
165 165 165
169 169 169
163 163 163
164 164 164
158 158 158
146 146 146
152 152 152
151 151 151
141 141 141
125 125 125
128 128 128
154 154 154
178 178 178
197 197 197
203 203 203
194 194 194
175 175 175
165 165 165
158 158 158
143 143 143
123 123 123
139 139 139
154 154 154
162 162 162
160 160 160
150 150 150
138 138 138
166 166 166
192 192 192
213 213 213
219 219 219
214 214 214
239 239 239
230 230 230
202 202 202
185 185 185
181 181 181
168 168 168
154 154 154
158 158 158
156 156 156
172 172 172
186 186 186
188 188 188
178 178 178
160 160 160
163 163 163
178 178 178
184 184 184
178 178 178
162 162 162
164 164 164
159 159 159
145 145 145
130 130 130
119 119 119
124 124 124
122 122 122
114 114 114
102 102 102
129 129 129
156 156 156
180 180 180
200 200 200
207 207 207
197 197 197
177 177 177
167 167 167
159 159 159
144 144 144
135 135 135
156 156 156
174 174 174
184 184 184
182 182 182
170 170 170
150 150 150
173 173 173
202 202 202
230 230 230
243 243 243
217 217 217
226 226 226
220 220 220
197 197 197
192 192 192
188 188 188
173 173 173
170 170 170
177 177 177
179 179 179
188 188 188
185 185 185
172 172 172
157 157 157
142 142 142
159 159 159
174 174 174
179 179 179
174 174 174
183 183 183
181 181 181
169 169 169
149 149 149
126 126 126
129 129 129
136 136 136
135 135 135
128 128 128
114 114 114
124 124 124
149 149 149
172 172 172
188 188 188
194 194 194
186 186 186
169 169 169
167 167 167
170 170 170
164 164 164
156 156 156
166 166 166
187 187 187
199 199 199
197 197 197
182 182 182
160 160 160
169 169 169
196 196 196
219 219 219
227 227 227
209 209 209
199 199 199
195 195 195
183 183 183
186 186 186
183 183 183
169 169 169
180 180 180
188 188 188
196 196 196
209 209 209
206 206 206
187 187 187
163 163 163
137 137 137
147 147 147
160 160 160
174 174 174
197 197 197
211 211 211
208 208 208
190 190 190
166 166 166
140 140 140
156 156 156
164 164 164
164 164 164
154 154 154
138 138 138
120 120 120
143 143 143
161 161 161
172 172 172
173 173 173
166 166 166
171 171 171
186 186 186
190 190 190
181 181 181
171 171 171
183 183 183
188 188 188
200 200 200
198 198 198
183 183 183
160 160 160
156 156 156
178 178 178
195 195 195
199 199 199
188 188 188
180 180 180
168 168 168
177 177 177
170 170 170
167 167 167
161 161 161
179 179 179
187 187 187
202 202 202
217 217 217
212 212 212
192 192 192
167 167 167
139 139 139
130 130 130
155 155 155
184 184 184
212 212 212
235 235 235
229 229 229
203 203 203
175 175 175
161 161 161
181 181 181
193 193 193
192 192 192
178 178 178
158 158 158
133 133 133
145 145 145
163 163 163
175 175 175
176 176 176
167 167 167
179 179 179
196 196 196
200 200 200
190 190 190
177 177 177
191 191 191
192 192 192
187 187 187
185 185 185
172 172 172
152 152 152
141 141 141
162 162 162
188 188 188
209 209 209
217 217 217
205 205 205
182 182 182
163 163 163
148 148 148
146 146 146
172 172 172
195 195 195
209 209 209
206 206 206
205 205 205
201 201 201
184 184 184
163 163 163
155 155 155
140 140 140
153 153 153
182 182 182
209 209 209
230 230 230
225 225 225
201 201 201
173 173 173
175 175 175
200 200 200
219 219 219
217 217 217
198 198 198
172 172 172
144 144 144
154 154 154
159 159 159
167 167 167
168 168 168
166 166 166
175 175 175
191 191 191
195 195 195
186 186 186
173 173 173
185 185 185
187 187 187
176 176 176
165 165 165
154 154 154
154 154 154
157 157 157
169 169 169
198 198 198
227 227 227
246 246 246
221 221 221
192 192 192
162 162 162
124 124 124
153 153 153
182 182 182
208 208 208
229 229 229
224 224 224
200 200 200
179 179 179
178 178 178
179 179 179
170 170 170
152 152 152
144 144 144
169 169 169
191 191 191
204 204 204
201 201 201
185 185 185
164 164 164
181 181 181
209 209 209
232 232 232
230 230 230
205 205 205
177 177 177
149 149 149
163 163 163
169 169 169
165 165 165
173 173 173
192 192 192
201 201 201
195 195 195
178 178 178
171 171 171
159 159 159
169 169 169
171 171 171
170 170 170
167 167 167
168 168 168
182 182 182
186 186 186
177 177 177
195 195 195
221 221 221
233 233 233
215 215 215
189 189 189
160 160 160
123 123 123
152 152 152
180 180 180
206 206 206
224 224 224
220 220 220
198 198 198
172 172 172
184 184 184
186 186 186
176 176 176
157 157 157
149 149 149
167 167 167
178 178 178
179 179 179
173 173 173
162 162 162
160 160 160
175 175 175
199 199 199
217 217 217
216 216 216
197 197 197
171 171 171
169 169 169
170 170 170
169 169 169
165 165 165
188 188 188
214 214 214
229 229 229
218 218 218
193 193 193
165 165 165
139 139 139
156 156 156
172 172 172
179 179 179
176 176 176
189 189 189
209 209 209
214 214 214
201 201 201
179 179 179
197 197 197
203 203 203
194 194 194
174 174 174
150 150 150
116 116 116
143 143 143
167 167 167
188 188 188
200 200 200
198 198 198
182 182 182
167 167 167
179 179 179
180 180 180
171 171 171
161 161 161
166 166 166
189 189 189
204 204 204
205 205 205
191 191 191
168 168 168
147 147 147
159 159 159
179 179 179
191 191 191
190 190 190
177 177 177
184 184 184
198 198 198
198 198 198
184 184 184
163 163 163
192 192 192
220 220 220
241 241 241
225 225 225
197 197 197
168 168 168
139 139 139
155 155 155
171 171 171
178 178 178
175 175 175
200 200 200
228 228 228
240 240 240
216 216 216
188 188 188
170 170 170
174 174 174
168 168 168
153 153 153
133 133 133
103 103 103
127 127 127
148 148 148
164 164 164
173 173 173
171 171 171
160 160 160
154 154 154
164 164 164
182 182 182
192 192 192
189 189 189
175 175 175
202 202 202
223 223 223
225 225 225
204 204 204
178 178 178
152 152 152
164 164 164
180 180 180
187 187 187
181 181 181
175 175 175
202 202 202
223 223 223
224 224 224
203 203 203
176 176 176
182 182 182
205 205 205
217 217 217
208 208 208
187 187 187
161 161 161
133 133 133
146 146 146
160 160 160
167 167 167
169 169 169
197 197 197
222 222 222
231 231 231
212 212 212
185 185 185
188 188 188
196 196 196
190 190 190
173 173 173
151 151 151
86 86 86
107 107 107
125 125 125
138 138 138
144 144 144
144 144 144
137 137 137
153 153 153
180 180 180
205 205 205
221 221 221
215 215 215
194 194 194
200 200 200
221 221 221
222 222 222
203 203 203
177 177 177
173 173 173
177 177 177
197 197 197
206 206 206
198 198 198
179 179 179
207 207 207
233 233 233
234 234 234
208 208 208
180 180 180
175 175 175
183 183 183
188 188 188
183 183 183
167 167 167
146 146 146
128 128 128
141 141 141
147 147 147
148 148 148
158 158 158
181 181 181
198 198 198
203 203 203
192 192 192
187 187 187
211 211 211
225 225 225
215 215 215
191 191 191
164 164 164
