P3
50 50
255
101 101 101
106 106 106
110 110 110
123 123 123
131 131 131
132 132 132
127 127 127
155 155 155
183 183 183
209 209 209
227 227 227
221 221 221
197 197 197
170 170 170
155 155 155
182 182 182
205 205 205
219 219 219
211 211 211
189 189 189
163 163 163
152 152 152
177 177 177
197 197 197
206 206 206
199 199 199
180 180 180
157 157 157
185 185 185
209 209 209
224 224 224
215 215 215
192 192 192
165 165 165
140 140 140
138 138 138
137 137 137
143 143 143
142 142 142
140 140 140
143 143 143
137 137 137
125 125 125
108 108 108
92 92 92
119 119 119
145 145 145
170 170 170
191 191 191
202 202 202
113 113 113
119 119 119
119 119 119
128 128 128
136 136 136
137 137 137
138 138 138
166 166 166
192 192 192
214 214 214
222 222 222
212 212 212
191 191 191
166 166 166
157 157 157
185 185 185
210 210 210
225 225 225
216 216 216
193 193 193
166 166 166
155 155 155
181 181 181
203 203 203
213 213 213
205 205 205
184 184 184
159 159 159
187 187 187
213 213 213
230 230 230
219 219 219
195 195 195
167 167 167
141 141 141
139 139 139
147 147 147
154 154 154
152 152 152
152 152 152
155 155 155
152 152 152
143 143 143
128 128 128
117 117 117
121 121 121
144 144 144
169 169 169
189 189 189
200 200 200
120 120 120
127 127 127
126 126 126
127 127 127
134 134 134
135 135 135
142 142 142
171 171 171
200 200 200
229 229 229
244 244 244
219 219 219
190 190 190
160 160 160
151 151 151
176 176 176
197 197 197
208 208 208
202 202 202
183 183 183
159 159 159
150 150 150
174 174 174
193 193 193
202 202 202
198 198 198
186 186 186
166 166 166
177 177 177
199 199 199
210 210 210
203 203 203
184 184 184
159 159 159
134 134 134
135 135 135
150 150 150
157 157 157
155 155 155
172 172 172
182 182 182
181 181 181
169 169 169
149 149 149
138 138 138
143 143 143
140 140 140
158 158 158
176 176 176
185 185 185
121 121 121
128 128 128
130 130 130
147 147 147
158 158 158
161 161 161
154 154 154
167 167 167
194 194 194
217 217 217
225 225 225
209 209 209
184 184 184
156 156 156
137 137 137
158 158 158
175 175 175
182 182 182
178 178 178
164 164 164
144 144 144
143 143 143
171 171 171
197 197 197
218 218 218
222 222 222
204 204 204
178 178 178
159 159 159
176 176 176
183 183 183
179 179 179
164 164 164
144 144 144
122 122 122
130 130 130
144 144 144
151 151 151
172 172 172
196 196 196
211 211 211
209 209 209
191 191 191
167 167 167
156 156 156
162 162 162
158 158 158
147 147 147
155 155 155
162 162 162
116 116 116
125 125 125
150 150 150
171 171 171
185 185 185
189 189 189
180 180 180
162 162 162
176 176 176
192 192 192
196 196 196
187 187 187
168 168 168
144 144 144
118 118 118
136 136 136
149 149 149
154 154 154
151 151 151
141 141 141
129 129 129
144 144 144
173 173 173
200 200 200
223 223 223
228 228 228
207 207 207
181 181 181
159 159 159
155 155 155
155 155 155
151 151 151
141 141 141
124 124 124
104 104 104
119 119 119
131 131 131
154 154 154
183 183 183
212 212 212
237 237 237
232 232 232
205 205 205
177 177 177
167 167 167
173 173 173
170 170 170
157 157 157
138 138 138
137 137 137
108 108 108
136 136 136
164 164 164
189 189 189
209 209 209
215 215 215
202 202 202
179 179 179
152 152 152
164 164 164
167 167 167
161 161 161
146 146 146
130 130 130
113 113 113
129 129 129
139 139 139
141 141 141
137 137 137
131 131 131
150 150 150
164 164 164
169 169 169
189 189 189
206 206 206
209 209 209
195 195 195
172 172 172
173 173 173
183 183 183
182 182 182
169 169 169
150 150 150
132 132 132
127 127 127
129 129 129
125 125 125
153 153 153
182 182 182
210 210 210
234 234 234
230 230 230
204 204 204
176 176 176
169 169 169
175 175 175
171 171 171
158 158 158
139 139 139
116 116 116
112 112 112
141 141 141
169 169 169
197 197 197
222 222 222
231 231 231
212 212 212
186 186 186
157 157 157
175 175 175
185 185 185
184 184 184
171 171 171
152 152 152
129 129 129
146 146 146
158 158 158
162 162 162
156 156 156
144 144 144
166 166 166
183 183 183
190 190 190
184 184 184
181 181 181
182 182 182
173 173 173
172 172 172
195 195 195
210 210 210
208 208 208
190 190 190
166 166 166
152 152 152
147 147 147
150 150 150
145 145 145
144 144 144
170 170 170
193 193 193
207 207 207
205 205 205
188 188 188
165 165 165
161 161 161
167 167 167
163 163 163
151 151 151
133 133 133
111 111 111
109 109 109
138 138 138
165 165 165
191 191 191
212 212 212
219 219 219
204 204 204
180 180 180
181 181 181
197 197 197
213 213 213
211 211 211
193 193 193
168 168 168
141 141 141
158 158 158
172 172 172
176 176 176
169 169 169
154 154 154
175 175 175
195 195 195
204 204 204
197 197 197
179 179 179
155 155 155
153 153 153
181 181 181
209 209 209
230 230 230
226 226 226
202 202 202
179 179 179
167 167 167
163 163 163
166 166 166
160 160 160
145 145 145
151 151 151
168 168 168
178 178 178
177 177 177
165 165 165
147 147 147
152 152 152
161 161 161
161 161 161
153 153 153
141 141 141
123 123 123
109 109 109
133 133 133
154 154 154
174 174 174
189 189 189
193 193 193
184 184 184
191 191 191
200 200 200
212 212 212
237 237 237
233 233 233
206 206 206
177 177 177
148 148 148
162 162 162
176 176 176
181 181 181
174 174 174
159 159 159
186 186 186
210 210 210
224 224 224
214 214 214
191 191 191
164 164 164
151 151 151
179 179 179
205 205 205
224 224 224
220 220 220
199 199 199
187 187 187
173 173 173
170 170 170
174 174 174
167 167 167
152 152 152
150 150 150
162 162 162
166 166 166
160 160 160
146 146 146
154 154 154
173 173 173
184 184 184
184 184 184
173 173 173
154 154 154
132 132 132
102 102 102
125 125 125
144 144 144
158 158 158
165 165 165
168 168 168
177 177 177
197 197 197
208 208 208
208 208 208
230 230 230
226 226 226
202 202 202
175 175 175
146 146 146
157 157 157
170 170 170
174 174 174
168 168 168
158 158 158
185 185 185
209 209 209
223 223 223
213 213 213
190 190 190
163 163 163
141 141 141
166 166 166
187 187 187
199 199 199
198 198 198
184 184 184
182 182 182
169 169 169
168 168 168
171 171 171
165 165 165
150 150 150
146 146 146
158 158 158
161 161 161
155 155 155
151 151 151
164 164 164
186 186 186
200 200 200
200 200 200
186 186 186
164 164 164
148 148 148
99 99 99
115 115 115
128 128 128
141 141 141
146 146 146
167 167 167
185 185 185
198 198 198
204 204 204
194 194 194
203 203 203
201 201 201
185 185 185
163 163 163
137 137 137
150 150 150
157 157 157
158 158 158
153 153 153
149 149 149
173 173 173
192 192 192
201 201 201
195 195 195
178 178 178
168 168 168
151 151 151
147 147 147
163 163 163
172 172 172
170 170 170
169 169 169
167 167 167
156 156 156
156 156 156
159 159 159
153 153 153
141 141 141
147 147 147
149 149 149
165 165 165
173 173 173
171 171 171
166 166 166
188 188 188
203 203 203
203 203 203
194 194 194
187 187 187
170 170 170
109 109 109
123 123 123
136 136 136
142 142 142
157 157 157
183 183 183
207 207 207
219 219 219
211 211 211
196 196 196
175 175 175
173 173 173
162 162 162
163 163 163
159 159 159
156 156 156
164 164 164
162 162 162
151 151 151
134 134 134
154 154 154
168 168 168
183 183 183
198 198 198
199 199 199
186 186 186
165 165 165
150 150 150
142 142 142
143 143 143
142 142 142
147 147 147
146 146 146
137 137 137
138 138 138
141 141 141
151 151 151
168 168 168
176 176 176
173 173 173
177 177 177
186 186 186
184 184 184
170 170 170
178 178 178
190 190 190
210 210 210
221 221 221
210 210 210
187 187 187
124 124 124
131 131 131
137 137 137
143 143 143
161 161 161
190 190 190
217 217 217
235 235 235
221 221 221
195 195 195
167 167 167
165 165 165
183 183 183
190 190 190
185 185 185
169 169 169
161 161 161
159 159 159
148 148 148
132 132 132
140 140 140
167 167 167
190 190 190
207 207 207
208 208 208
193 193 193
170 170 170
152 152 152
144 144 144
129 129 129
117 117 117
135 135 135
149 149 149
157 157 157
156 156 156
147 147 147
171 171 171
192 192 192
205 205 205
201 201 201
184 184 184
188 188 188
185 185 185
172 172 172
165 165 165
193 193 193
221 221 221
239 239 239
221 221 221
194 194 194
134 134 134
142 142 142
142 142 142
138 138 138
156 156 156
183 183 183
206 206 206
218 218 218
210 210 210
188 188 188
162 162 162
181 181 181
203 203 203
215 215 215
207 207 207
186 186 186
160 160 160
147 147 147
138 138 138
123 123 123
137 137 137
162 162 162
184 184 184
199 199 199
200 200 200
187 187 187
166 166 166
170 170 170
164 164 164
150 150 150
133 133 133
154 154 154
171 171 171
181 181 181
180 180 180
168 168 168
184 184 184
211 211 211
231 231 231
224 224 224
200 200 200
178 178 178
175 175 175
163 163 163
160 160 160
187 187 187
210 210 210
221 221 221
210 210 210
187 187 187
137 137 137
145 145 145
145 145 145
138 138 138
144 144 144
166 166 166
184 184 184
192 192 192
186 186 186
172 172 172
159 159 159
187 187 187
212 212 212
227 227 227
216 216 216
192 192 192
165 165 165
147 147 147
150 150 150
144 144 144
131 131 131
149 149 149
168 168 168
180 180 180
180 180 180
175 175 175
193 193 193
199 199 199
190 190 190
172 172 172
148 148 148
166 166 166
188 188 188
201 201 201
199 199 199
184 184 184
186 186 186
214 214 214
237 237 237
229 229 229
202 202 202
173 173 173
157 157 157
147 147 147
147 147 147
169 169 169
186 186 186
193 193 193
186 186 186
170 170 170
133 133 133
140 140 140
141 141 141
150 150 150
156 156 156
164 164 164
184 184 184
196 196 196
194 194 194
180 180 180
158 158 158
181 181 181
203 203 203
214 214 214
206 206 206
185 185 185
160 160 160
169 169 169
172 172 172
165 165 165
150 150 150
131 131 131
146 146 146
155 155 155
164 164 164
191 191 191
215 215 215
225 225 225
211 211 211
186 186 186
159 159 159
170 170 170
193 193 193
207 207 207
206 206 206
189 189 189
175 175 175
198 198 198
212 212 212
208 208 208
189 189 189
164 164 164
137 137 137
128 128 128
132 132 132
147 147 147
163 163 163
176 176 176
179 179 179
171 171 171
122 122 122
129 129 129
149 149 149
165 165 165
174 174 174
183 183 183
181 181 181
192 192 192
190 190 190
176 176 176
155 155 155
165 165 165
182 182 182
189 189 189
184 184 184
168 168 168
170 170 170
185 185 185
189 189 189
181 181 181
163 163 163
140 140 140
138 138 138
145 145 145
167 167 167
195 195 195
222 222 222
236 236 236
218 218 218
190 190 190
162 162 162
164 164 164
185 185 185
197 197 197
196 196 196
182 182 182
161 161 161
175 175 175
184 184 184
181 181 181
168 168 168
148 148 148
129 129 129
140 140 140
145 145 145
160 160 160
184 184 184
202 202 202
207 207 207
195 195 195
111 111 111
136 136 136
158 158 158
175 175 175
196 196 196
208 208 208
205 205 205
187 187 187
174 174 174
163 163 163
145 145 145
143 143 143
156 156 156
161 161 161
158 158 158
153 153 153
175 175 175
191 191 191
196 196 196
186 186 186
167 167 167
144 144 144
147 147 147
155 155 155
160 160 160
186 186 186
207 207 207
215 215 215
204 204 204
182 182 182
155 155 155
150 150 150
167 167 167
177 177 177
176 176 176
184 184 184
189 189 189
182 182 182
165 165 165
153 153 153
154 154 154
150 150 150
137 137 137
146 146 146
151 151 151
170 170 170
197 197 197
221 221 221
229 229 229
210 210 210
111 111 111
136 136 136
157 157 157
181 181 181
207 207 207
225 225 225
219 219 219
197 197 197
170 170 170
144 144 144
151 151 151
150 150 150
141 141 141
133 133 133
130 130 130
148 148 148
169 169 169
184 184 184
188 188 188
180 180 180
162 162 162
141 141 141
150 150 150
158 158 158
157 157 157
167 167 167
182 182 182
187 187 187
180 180 180
164 164 164
142 142 142
130 130 130
145 145 145
161 161 161
187 187 187
208 208 208
217 217 217
205 205 205
183 183 183
177 177 177
182 182 182
175 175 175
160 160 160
144 144 144
149 149 149
169 169 169
196 196 196
220 220 220
227 227 227
209 209 209
105 105 105
128 128 128
151 151 151
178 178 178
202 202 202
217 217 217
213 213 213
192 192 192
167 167 167
149 149 149
157 157 157
156 156 156
147 147 147
144 144 144
152 152 152
151 151 151
155 155 155
167 167 167
170 170 170
163 163 163
148 148 148
148 148 148
152 152 152
152 152 152
153 153 153
162 162 162
161 161 161
159 159 159
154 154 154
141 141 141
131 131 131
124 124 124
138 138 138
166 166 166
195 195 195
221 221 221
235 235 235
218 218 218
190 190 190
199 199 199
207 207 207
197 197 197
177 177 177
152 152 152
140 140 140
159 159 159
182 182 182
199 199 199
204 204 204
192 192 192
109 109 109
135 135 135
159 159 159
178 178 178
190 190 190
195 195 195
191 191 191
177 177 177
155 155 155
164 164 164
165 165 165
157 157 157
151 151 151
168 168 168
178 178 178
177 177 177
166 166 166
148 148 148
147 147 147
142 142 142
146 146 146
159 159 159
164 164 164
164 164 164
178 178 178
190 190 190
190 190 190
177 177 177
157 157 157
133 133 133
130 130 130
124 124 124
135 135 135
163 163 163
190 190 190
213 213 213
222 222 222
209 209 209
189 189 189
212 212 212
222 222 222
210 210 210
186 186 186
163 163 163
152 152 152
145 145 145
161 161 161
173 173 173
176 176 176
168 168 168
118 118 118
146 146 146
173 173 173
197 197 197
214 214 214
212 212 212
195 195 195
173 173 173
163 163 163
174 174 174
176 176 176
167 167 167
167 167 167
188 188 188
202 202 202
200 200 200
185 185 185
163 163 163
137 137 137
129 129 129
148 148 148
165 165 165
182 182 182
189 189 189
199 199 199
217 217 217
216 216 216
197 197 197
172 172 172
145 145 145
121 121 121
136 136 136
149 149 149
155 155 155
173 173 173
190 190 190
196 196 196
188 188 188
186 186 186
207 207 207
216 216 216
205 205 205
192 192 192
188 188 188
173 173 173
151 151 151
146 146 146
151 151 151
165 165 165
171 171 171
121 121 121
150 150 150
178 178 178
205 205 205
225 225 225
223 223 223
201 201 201
176 176 176
164 164 164
175 175 175
177 177 177
167 167 167
174 174 174
199 199 199
216 216 216
214 214 214
195 195 195
170 170 170
143 143 143
131 131 131
153 153 153
179 179 179
200 200 200
210 210 210
209 209 209
234 234 234
232 232 232
207 207 207
178 178 178
149 149 149
136 136 136
158 158 158
175 175 175
183 183 183
179 179 179
166 166 166
168 168 168
162 162 162
171 171 171
188 188 188
194 194 194
201 201 201
214 214 214
208 208 208
189 189 189
173 173 173
151 151 151
173 173 173
192 192 192
200 200 200
137 137 137
152 152 152
172 172 172
196 196 196
212 212 212
211 211 211
193 193 193
169 169 169
155 155 155
165 165 165
167 167 167
167 167 167
172 172 172
195 195 195
210 210 210
209 209 209
191 191 191
169 169 169
163 163 163
148 148 148
156 156 156
182 182 182
205 205 205
216 216 216
208 208 208
220 220 220
219 219 219
199 199 199
173 173 173
146 146 146
150 150 150
175 175 175
197 197 197
208 208 208
203 203 203
185 185 185
160 160 160
145 145 145
153 153 153
163 163 163
182 182 182
206 206 206
220 220 220
222 222 222
213 213 213
191 191 191
164 164 164
188 188 188
213 213 213
227 227 227
153 153 153
171 171 171
181 181 181
180 180 180
188 188 188
187 187 187
174 174 174
165 165 165
169 169 169
162 162 162
161 161 161
161 161 161
159 159 159
179 179 179
190 190 190
189 189 189
178 178 178
182 182 182
175 175 175
159 159 159
150 150 150
174 174 174
194 194 194
203 203 203
196 196 196
194 194 194
194 194 194
180 180 180
168 168 168
151 151 151
156 156 156
184 184 184
209 209 209
225 225 225
217 217 217
194 194 194
167 167 167
166 166 166
177 177 177
177 177 177
173 173 173
194 194 194
219 219 219
242 242 242
226 226 226
198 198 198
169 169 169
192 192 192
220 220 220
239 239 239
162 162 162
182 182 182
194 194 194
193 193 193
179 179 179
176 176 176
166 166 166
172 172 172
175 175 175
168 168 168
152 152 152
147 147 147
171 171 171
191 191 191
200 200 200
195 195 195
181 181 181
186 186 186
178 178 178
162 162 162
140 140 140
158 158 158
173 173 173
180 180 180
175 175 175
181 181 181
196 196 196
198 198 198
186 186 186
166 166 166
166 166 166
180 180 180
204 204 204
218 218 218
211 211 211
190 190 190
165 165 165
182 182 182
195 195 195
196 196 196
183 183 183
184 184 184
209 209 209
223 223 223
214 214 214
191 191 191
166 166 166
183 183 183
205 205 205
216 216 216
162 162 162
182 182 182
194 194 194
193 193 193
203 203 203
204 204 204
189 189 189
168 168 168
171 171 171
164 164 164
149 149 149
158 158 158
186 186 186
212 212 212
229 229 229
219 219 219
194 194 194
190 190 190
189 189 189
176 176 176
155 155 155
136 136 136
148 148 148
153 153 153
165 165 165
189 189 189
206 206 206
209 209 209
195 195 195
175 175 175
193 193 193
200 200 200
192 192 192
195 195 195
191 191 191
175 175 175
165 165 165
187 187 187
202 202 202
203 203 203
189 189 189
179 179 179
186 186 186
195 195 195
205 205 205
199 199 199
181 181 181
164 164 164
181 181 181
188 188 188
153 153 153
171 171 171
181 181 181
204 204 204
226 226 226
226 226 226
204 204 204
177 177 177
158 158 158
161 161 161
158 158 158
161 161 161
190 190 190
219 219 219
243 243 243
227 227 227
199 199 199
213 213 213
211 211 211
193 193 193
168 168 168
145 145 145
145 145 145
160 160 160
168 168 168
184 184 184
200 200 200
202 202 202
189 189 189
190 190 190
214 214 214
227 227 227
214 214 214
189 189 189
165 165 165
153 153 153
160 160 160
180 180 180
194 194 194
194 194 194
203 203 203
201 201 201
186 186 186
201 201 201
212 212 212
206 206 206
186 186 186
166 166 166
154 154 154
159 159 159
137 137 137
153 153 153
177 177 177
204 204 204
226 226 226
226 226 226
204 204 204
177 177 177
163 163 163
169 169 169
165 165 165
155 155 155
181 181 181
205 205 205
218 218 218
210 210 210
203 203 203
222 222 222
219 219 219
198 198 198
180 180 180
172 172 172
161 161 161
179 179 179
189 189 189
187 187 187
181 181 181
183 183 183
173 173 173
194 194 194
221 221 221
237 237 237
220 220 220
193 193 193
164 164 164
141 141 141
146 146 146
164 164 164
175 175 175
199 199 199
215 215 215
213 213 213
195 195 195
191 191 191
201 201 201
197 197 197
202 202 202
192 192 192
171 171 171
147 147 147
117 117 117
141 141 141
167 167 167
189 189 189
204 204 204
205 205 205
190 190 190
167 167 167
161 161 161
167 167 167
164 164 164
151 151 151
164 164 164
181 181 181
189 189 189
185 185 185
193 193 193
208 208 208
206 206 206
204 204 204
209 209 209
197 197 197
175 175 175
190 190 190
202 202 202
199 199 199
183 183 183
160 160 160
158 158 158
184 184 184
205 205 205
215 215 215
205 205 205
184 184 184
179 179 179
164 164 164
143 143 143
158 158 158
180 180 180
196 196 196
209 209 209
207 207 207
190 190 190
172 172 172
196 196 196
220 220 220
229 229 229
211 211 211
185 185 185
157 157 157
144 144 144
144 144 144
149 149 149
167 167 167
177 177 177
186 186 186
184 184 184
171 171 171
151 151 151
156 156 156
153 153 153
150 150 150
149 149 149
154 154 154
160 160 160
157 157 157
174 174 174
184 184 184
199 199 199
226 226 226
236 236 236
215 215 215
187 187 187
189 189 189
200 200 200
197 197 197
181 181 181
159 159 159
160 160 160
165 165 165
181 181 181
187 187 187
199 199 199
209 209 209
201 201 201
182 182 182
157 157 157
162 162 162
186 186 186
204 204 204
208 208 208
196 196 196
174 174 174
170 170 170
199 199 199
226 226 226
237 237 237
216 216 216
188 188 188
159 159 159
172 172 172
171 171 171
161 161 161
156 156 156
173 173 173
183 183 183
181 181 181
169 169 169
149 149 149
138 138 138
147 147 147
154 154 154
152 152 152
142 142 142
147 147 147
164 164 164
174 174 174
174 174 174
200 200 200
226 226 226
237 237 237
215 215 215
187 187 187
175 175 175
185 185 185
182 182 182
169 169 169
155 155 155
161 161 161
163 163 163
160 160 160
187 187 187
212 212 212
225 225 225
214 214 214
191 191 191
163 163 163
157 157 157
179 179 179
195 195 195
199 199 199
188 188 188
173 173 173
165 165 165
188 188 188
207 207 207
213 213 213
201 201 201
178 178 178
163 163 163
198 198 198
197 197 197
183 183 183
168 168 168
174 174 174
170 170 170
168 168 168
157 157 157
140 140 140
129 129 129
142 142 142
148 148 148
150 150 150
154 154 154
150 150 150
166 166 166
177 177 177
176 176 176
186 186 186
205 205 205
210 210 210
197 197 197
176 176 176
170 170 170
173 173 173
166 166 166
154 154 154
167 167 167
171 171 171
166 166 166
157 157 157
183 183 183
206 206 206
218 218 218
208 208 208
187 187 187
161 161 161
166 166 166
171 171 171
176 176 176
178 178 178
188 188 188
189 189 189
178 178 178
168 168 168
181 181 181
185 185 185
177 177 177
164 164 164
185 185 185
218 218 218
217 217 217
197 197 197
182 182 182
189 189 189
184 184 184
168 168 168
146 146 146
125 125 125
118 118 118
138 138 138
159 159 159
174 174 174
179 179 179
174 174 174
160 160 160
168 168 168
168 168 168
164 164 164
178 178 178
181 181 181
173 173 173
173 173 173
188 188 188
192 192 192
183 183 183
164 164 164
169 169 169
174 174 174
168 168 168
154 154 154
169 169 169
187 187 187
194 194 194
188 188 188
172 172 172
162 162 162
183 183 183
195 195 195
195 195 195
181 181 181
192 192 192
193 193 193
181 181 181
162 162 162
164 164 164
156 156 156
150 150 150
175 175 175
200 200 200
220 220 220
219 219 219
199 199 199
186 186 186
193 193 193
187 187 187
171 171 171
148 148 148
129 129 129
124 124 124
150 150 150
174 174 174
193 193 193
201 201 201
193 193 193
175 175 175
160 160 160
174 174 174
177 177 177
170 170 170
176 176 176
185 185 185
182 182 182
196 196 196
201 201 201
190 190 190
170 170 170
162 162 162
166 166 166
161 161 161
147 147 147
148 148 148
162 162 162
167 167 167
163 163 163
150 150 150
173 173 173
198 198 198
216 216 216
215 215 215
197 197 197
184 184 184
185 185 185
174 174 174
181 181 181
183 183 183
173 173 173
155 155 155
176 176 176
202 202 202
202 202 202
201 201 201
196 196 196
185 185 185
184 184 184
178 178 178
164 164 164
143 143 143
129 129 129
128 128 128
155 155 155
180 180 180
201 201 201
211 211 211
202 202 202
182 182 182
175 175 175
192 192 192
197 197 197
188 188 188
189 189 189
201 201 201
197 197 197
190 190 190
194 194 194
185 185 185
166 166 166
147 147 147
151 151 151
146 146 146
134 134 134
135 135 135
142 142 142
141 141 141
136 136 136
148 148 148
175 175 175
201 201 201
219 219 219
218 218 218
199 199 199
173 173 173
166 166 166
177 177 177
191 191 191
193 193 193
182 182 182
162 162 162
167 167 167
188 188 188
197 197 197
219 219 219
223 223 223
205 205 205
180 180 180
161 161 161
148 148 148
150 150 150
151 151 151
144 144 144
151 151 151
175 175 175
195 195 195
203 203 203
195 195 195
177 177 177
181 181 181
199 199 199
205 205 205
195 195 195
191 191 191
202 202 202
199 199 199
182 182 182
176 176 176
169 169 169
153 153 153
132 132 132
141 141 141
144 144 144
140 140 140
128 128 128
131 131 131
130 130 130
123 123 123
141 141 141
166 166 166
188 188 188
202 202 202
202 202 202
187 187 187
164 164 164
154 154 154
174 174 174
188 188 188
190 190 190
179 179 179
160 160 160
157 157 157
171 171 171
204 204 204
232 232 232
239 239 239
214 214 214
185 185 185
156 156 156
156 156 156
167 167 167
168 168 168
160 160 160
145 145 145
161 161 161
177 177 177
183 183 183
177 177 177
169 169 169
175 175 175
192 192 192
197 197 197
188 188 188
180 180 180
189 189 189
186 186 186
172 172 172
153 153 153
147 147 147
136 136 136
155 155 155
169 169 169
173 173 173
167 167 167
153 153 153
133 133 133
116 116 116
113 113 113
127 127 127
150 150 150
167 167 167
178 178 178
177 177 177
166 166 166
148 148 148
144 144 144
162 162 162
173 173 173
175 175 175
178 178 178
188 188 188
185 185 185
175 175 175
195 195 195
216 216 216
219 219 219
203 203 203
178 178 178
151 151 151
164 164 164
176 176 176
178 178 178
169 169 169
152 152 152
141 141 141
153 153 153
158 158 158
170 170 170
186 186 186
191 191 191
183 183 183
178 178 178
171 171 171
160 160 160
168 168 168
166 166 166
154 154 154
137 137 137
127 127 127
153 153 153
177 177 177
195 195 195
201 201 201
193 193 193
174 174 174
150 150 150
123 123 123
111 111 111
109 109 109
128 128 128
143 143 143
150 150 150
150 150 150
142 142 142
127 127 127
145 145 145
164 164 164
177 177 177
180 180 180
201 201 201
215 215 215
211 211 211
191 191 191
185 185 185
189 189 189
192 192 192
181 181 181
162 162 162
144 144 144
163 163 163
175 175 175
177 177 177
168 168 168
151 151 151
134 134 134
145 145 145
152 152 152
175 175 175
193 193 193
199 199 199
190 190 190
171 171 171
148 148 148
137 137 137
143 143 143
141 141 141
132 132 132
117 117 117
136 136 136
164 164 164
192 192 192
216 216 216
227 227 227
213 213 213
188 188 188
160 160 160
132 132 132
119 119 119
122 122 122
129 129 129
136 136 136
142 142 142
141 141 141
133 133 133
133 133 133
159 159 159
182 182 182
199 199 199
203 203 203
213 213 213
235 235 235
227 227 227
201 201 201
209 209 209
204 204 204
186 186 186
161 161 161
140 140 140
141 141 141
153 153 153
163 163 163
165 165 165
158 158 158
142 142 142
138 138 138
150 150 150
154 154 154
170 170 170
186 186 186
192 192 192
184 184 184
166 166 166
144 144 144
118 118 118
116 116 116
114 114 114
112 112 112
116 116 116
137 137 137
166 166 166
195 195 195
221 221 221
235 235 235
217 217 217
190 190 190
162 162 162
133 133 133
131 131 131
147 147 147
157 157 157
158 158 158
160 160 160
159 159 159
149 149 149
137 137 137
164 164 164
190 190 190
210 210 210
215 215 215
206 206 206
223 223 223
218 218 218
197 197 197
221 221 221
215 215 215
193 193 193
167 167 167
151 151 151
161 161 161
169 169 169
166 166 166
155 155 155
140 140 140
127 127 127
136 136 136
147 147 147
151 151 151
164 164 164
173 173 173
174 174 174
168 168 168
153 153 153
133 133 133
130 130 130
136 136 136
136 136 136
128 128 128
115 115 115
131 131 131
159 159 159
184 184 184
205 205 205
213 213 213
202 202 202
181 181 181
155 155 155
149 149 149
151 151 151
171 171 171
183 183 183
185 185 185
174 174 174
169 169 169
158 158 158
141 141 141
161 161 161
185 185 185
203 203 203
208 208 208
196 196 196
197 197 197
194 194 194
206 206 206
211 211 211
206 206 206
187 187 187
162 162 162
159 159 159
175 175 175
184 184 184
181 181 181
168 168 168
148 148 148
124 124 124
126 126 126
140 140 140
164 164 164
184 184 184
196 196 196
194 194 194
179 179 179
157 157 157
141 141 141
157 157 157
165 165 165
165 165 165
155 155 155
139 139 139
122 122 122
144 144 144
165 165 165
180 180 180
185 185 185
178 178 178
162 162 162
161 161 161
164 164 164
166 166 166
189 189 189
206 206 206
208 208 208
194 194 194
171 171 171
159 159 159
141 141 141
149 149 149
171 171 171
189 189 189
195 195 195
188 188 188
175 175 175
176 176 176
198 198 198
188 188 188
185 185 185
170 170 170
160 160 160
168 168 168
179 179 179
188 188 188
186 186 186
172 172 172
151 151 151
127 127 127
120 120 120
147 147 147
173 173 173
196 196 196
210 210 210
207 207 207
190 190 190
165 165 165
162 162 162
182 182 182
194 194 194
193 193 193
180 180 180
159 159 159
144 144 144
157 157 157
162 162 162
159 159 159
156 156 156
151 151 151
156 156 156
168 168 168
171 171 171
171 171 171
197 197 197
218 218 218
221 221 221
203 203 203
177 177 177
151 151 151
135 135 135
156 156 156
182 182 182
202 202 202
212 212 212
208 208 208
197 197 197
177 177 177
179 179 179
162 162 162
159 159 159
160 160 160
179 179 179
189 189 189
187 187 187
180 180 180
178 178 178
165 165 165
146 146 146
133 133 133
120 120 120
146 146 146
172 172 172
194 194 194
208 208 208
205 205 205
188 188 188
164 164 164
176 176 176
202 202 202
221 221 221
220 220 220
199 199 199
173 173 173
161 161 161
177 177 177
184 184 184
179 179 179
164 164 164
165 165 165
171 171 171
167 167 167
168 168 168
167 167 167
191 191 191
209 209 209
211 211 211
196 196 196
173 173 173
146 146 146
153 153 153
156 156 156
181 181 181
202 202 202
215 215 215
225 225 225
210 210 210
186 186 186
158 158 158
134 134 134
143 143 143
168 168 168
189 189 189
202 202 202
199 199 199
184 184 184
161 161 161
151 151 151
152 152 152
145 145 145
131 131 131
137 137 137
160 160 160
179 179 179
190 190 190
188 188 188
174 174 174
154 154 154
182 182 182
211 211 211
237 237 237
234 234 234
207 207 207
178 178 178
171 171 171
189 189 189
198 198 198
192 192 192
175 175 175
190 190 190
199 199 199
193 193 193
176 176 176
154 154 154
174 174 174
187 187 187
189 189 189
178 178 178
159 159 159
167 167 167
180 180 180
184 184 184
176 176 176
189 189 189
211 211 211
219 219 219
206 206 206
183 183 183
156 156 156
116 116 116
142 142 142
167 167 167
187 187 187
199 199 199
197 197 197
182 182 182
159 159 159
156 156 156
157 157 157
149 149 149
135 135 135
139 139 139
155 155 155
165 165 165
166 166 166
164 164 164
154 154 154
148 148 148
176 176 176
201 201 201
219 219 219
218 218 218
198 198 198
172 172 172
171 171 171
190 190 190
198 198 198
192 192 192
186 186 186
211 211 211
225 225 225
215 215 215
191 191 191
164 164 164
166 166 166
175 175 175
174 174 174
162 162 162
162 162 162
187 187 187
206 206 206
211 211 211
199 199 199
177 177 177
191 191 191
196 196 196
188 188 188
169 169 169
146 146 146
109 109 109
134 134 134
156 156 156
174 174 174
184 184 184
182 182 182
169 169 169
149 149 149
152 152 152
153 153 153
159 159 159
157 157 157
154 154 154
173 173 173
185 185 185
186 186 186
175 175 175
159 159 159
150 150 150
160 160 160
180 180 180
192 192 192
191 191 191
178 178 178
183 183 183
197 197 197
198 198 198
185 185 185
180 180 180
190 190 190
217 217 217
235 235 235
221 221 221
195 195 195
167 167 167
166 166 166
175 175 175
174 174 174
162 162 162
170 170 170
198 198 198
223 223 223
233 233 233
213 213 213
186 186 186
186 186 186
177 177 177
163 163 163
149 149 149
142 142 142
96 96 96
119 119 119
139 139 139
153 153 153
161 161 161
159 159 159
149 149 149
137 137 137
160 160 160
178 178 178
187 187 187
184 184 184
170 170 170
183 183 183
198 198 198
198 198 198
185 185 185
169 169 169
165 165 165
174 174 174
192 192 192
200 200 200
193 193 193
175 175 175
202 202 202
222 222 222
223 223 223
203 203 203
176 176 176
181 181 181
203 203 203
214 214 214
206 206 206
185 185 185
160 160 160
157 157 157
165 165 165
164 164 164
154 154 154
168 168 168
195 195 195
218 218 218
226 226 226
209 209 209
203 203 203
207 207 207
195 195 195
181 181 181
166 166 166
167 167 167
84 84 84
103 103 103
119 119 119
129 129 129
135 135 135
134 134 134
126 126 126
150 150 150
176 176 176
199 199 199
212 212 212
208 208 208
189 189 189
182 182 182
196 196 196
197 197 197
187 187 187
196 196 196
191 191 191
189 189 189
214 214 214
228 228 228
215 215 215
191 191 191
207 207 207
232 232 232
233 233 233
208 208 208
180 180 180
190 190 190
200 200 200
194 194 194
181 181 181
166 166 166
145 145 145
140 140 140
147 147 147
146 146 146
138 138 138
156 156 156
179 179 179
196 196 196
200 200 200
190 190 190
210 210 210
215 215 215
208 208 208
201 201 201
181 181 181
189 189 189
