P3
50 50
255
149 149 149
158 158 158
158 158 158
150 150 150
140 140 140
150 150 150
153 153 153
147 147 147
166 166 166
194 194 194
217 217 217
226 226 226
210 210 210
185 185 185
197 197 197
208 208 208
203 203 203
184 184 184
162 162 162
153 153 153
137 137 137
146 146 146
157 157 157
158 158 158
152 152 152
138 138 138
133 133 133
125 125 125
141 141 141
167 167 167
190 190 190
206 206 206
206 206 206
191 191 191
168 168 168
142 142 142
128 128 128
134 134 134
139 139 139
138 138 138
152 152 152
173 173 173
186 186 186
196 196 196
218 218 218
223 223 223
206 206 206
180 180 180
153 153 153
143 143 143
158 158 158
168 168 168
169 169 169
160 160 160
168 168 168
173 173 173
175 175 175
168 168 168
169 169 169
197 197 197
223 223 223
234 234 234
215 215 215
188 188 188
212 212 212
230 230 230
220 220 220
195 195 195
175 175 175
165 165 165
147 147 147
161 161 161
173 173 173
175 175 175
167 167 167
162 162 162
161 161 161
151 151 151
140 140 140
165 165 165
188 188 188
202 202 202
203 203 203
188 188 188
166 166 166
140 140 140
136 136 136
148 148 148
155 155 155
154 154 154
153 153 153
174 174 174
188 188 188
203 203 203
230 230 230
239 239 239
214 214 214
186 186 186
163 163 163
167 167 167
159 159 159
169 169 169
170 170 170
176 176 176
195 195 195
202 202 202
194 194 194
183 183 183
165 165 165
186 186 186
206 206 206
212 212 212
200 200 200
185 185 185
210 210 210
226 226 226
217 217 217
194 194 194
178 178 178
168 168 168
149 149 149
167 167 167
180 180 180
183 183 183
178 178 178
190 190 190
188 188 188
175 175 175
155 155 155
155 155 155
174 174 174
185 185 185
185 185 185
174 174 174
155 155 155
131 131 131
141 141 141
156 156 156
164 164 164
163 163 163
153 153 153
165 165 165
177 177 177
194 194 194
215 215 215
220 220 220
203 203 203
179 179 179
182 182 182
186 186 186
151 151 151
160 160 160
164 164 164
192 192 192
217 217 217
230 230 230
215 215 215
190 190 190
169 169 169
166 166 166
180 180 180
185 185 185
177 177 177
172 172 172
192 192 192
202 202 202
196 196 196
179 179 179
170 170 170
161 161 161
166 166 166
164 164 164
177 177 177
179 179 179
198 198 198
215 215 215
213 213 213
194 194 194
169 169 169
142 142 142
153 153 153
162 162 162
162 162 162
153 153 153
137 137 137
121 121 121
141 141 141
156 156 156
164 164 164
163 163 163
153 153 153
148 148 148
158 158 158
175 175 175
189 189 189
192 192 192
182 182 182
174 174 174
191 191 191
197 197 197
136 136 136
144 144 144
166 166 166
195 195 195
223 223 223
241 241 241
221 221 221
193 193 193
164 164 164
161 161 161
153 153 153
156 156 156
150 150 150
152 152 152
167 167 167
174 174 174
170 170 170
158 158 158
162 162 162
180 180 180
191 191 191
188 188 188
174 174 174
180 180 180
207 207 207
228 228 228
225 225 225
202 202 202
175 175 175
146 146 146
140 140 140
143 143 143
138 138 138
129 129 129
116 116 116
122 122 122
136 136 136
148 148 148
155 155 155
154 154 154
144 144 144
137 137 137
144 144 144
151 151 151
161 161 161
163 163 163
159 159 159
180 180 180
193 193 193
194 194 194
139 139 139
139 139 139
159 159 159
185 185 185
207 207 207
216 216 216
205 205 205
183 183 183
182 182 182
182 182 182
170 170 170
151 151 151
128 128 128
128 128 128
140 140 140
145 145 145
143 143 143
148 148 148
174 174 174
196 196 196
210 210 210
206 206 206
188 188 188
174 174 174
199 199 199
215 215 215
213 213 213
194 194 194
169 169 169
154 154 154
167 167 167
171 171 171
165 165 165
151 151 151
131 131 131
144 144 144
160 160 160
169 169 169
168 168 168
158 158 158
142 142 142
158 158 158
166 166 166
165 165 165
155 155 155
138 138 138
161 161 161
182 182 182
195 195 195
196 196 196
168 168 168
168 168 168
158 158 158
166 166 166
182 182 182
187 187 187
183 183 183
184 184 184
195 195 195
194 194 194
181 181 181
160 160 160
153 153 153
143 143 143
127 127 127
124 124 124
127 127 127
149 149 149
176 176 176
199 199 199
214 214 214
210 210 210
191 191 191
181 181 181
189 189 189
190 190 190
189 189 189
176 176 176
155 155 155
175 175 175
192 192 192
198 198 198
190 190 190
171 171 171
148 148 148
161 161 161
181 181 181
193 193 193
191 191 191
178 178 178
157 157 157
173 173 173
183 183 183
182 182 182
170 170 170
150 150 150
159 159 159
172 172 172
191 191 191
210 210 210
196 196 196
196 196 196
183 183 183
162 162 162
154 154 154
163 163 163
175 175 175
182 182 182
194 194 194
194 194 194
180 180 180
180 180 180
178 178 178
165 165 165
146 146 146
146 146 146
149 149 149
151 151 151
168 168 168
188 188 188
199 199 199
196 196 196
181 181 181
192 192 192
203 203 203
198 198 198
180 180 180
157 157 157
163 163 163
189 189 189
212 212 212
222 222 222
209 209 209
185 185 185
158 158 158
171 171 171
194 194 194
209 209 209
208 208 208
191 191 191
167 167 167
180 180 180
191 191 191
189 189 189
176 176 176
172 172 172
184 184 184
184 184 184
194 194 194
213 213 213
223 223 223
223 223 223
202 202 202
176 176 176
148 148 148
148 148 148
158 158 158
170 170 170
181 181 181
180 180 180
189 189 189
201 201 201
197 197 197
181 181 181
159 159 159
163 163 163
167 167 167
172 172 172
171 171 171
168 168 168
176 176 176
174 174 174
171 171 171
191 191 191
201 201 201
196 196 196
179 179 179
176 176 176
164 164 164
192 192 192
216 216 216
227 227 227
213 213 213
187 187 187
180 180 180
178 178 178
195 195 195
210 210 210
208 208 208
191 191 191
181 181 181
182 182 182
185 185 185
184 184 184
171 171 171
188 188 188
203 203 203
203 203 203
188 188 188
202 202 202
236 236 236
237 237 237
209 209 209
180 180 180
151 151 151
128 128 128
136 136 136
151 151 151
160 160 160
174 174 174
197 197 197
210 210 210
206 206 206
188 188 188
164 164 164
173 173 173
177 177 177
186 186 186
185 185 185
173 173 173
154 154 154
148 148 148
160 160 160
177 177 177
186 186 186
183 183 183
193 193 193
190 190 190
176 176 176
182 182 182
201 201 201
208 208 208
198 198 198
193 193 193
205 205 205
202 202 202
185 185 185
194 194 194
192 192 192
184 184 184
199 199 199
201 201 201
188 188 188
168 168 168
169 169 169
193 193 193
209 209 209
210 210 210
193 193 193
209 209 209
217 217 217
217 217 217
199 199 199
173 173 173
146 146 146
118 118 118
124 124 124
145 145 145
165 165 165
191 191 191
212 212 212
219 219 219
205 205 205
182 182 182
159 159 159
173 173 173
178 178 178
189 189 189
189 189 189
176 176 176
156 156 156
132 132 132
143 143 143
157 157 157
165 165 165
185 185 185
196 196 196
193 193 193
178 178 178
163 163 163
177 177 177
182 182 182
185 185 185
206 206 206
223 223 223
218 218 218
196 196 196
170 170 170
169 169 169
189 189 189
206 206 206
207 207 207
193 193 193
170 170 170
163 163 163
185 185 185
198 198 198
198 198 198
185 185 185
198 198 198
190 190 190
190 190 190
178 178 178
158 158 158
142 142 142
141 141 141
136 136 136
160 160 160
181 181 181
200 200 200
228 228 228
242 242 242
218 218 218
189 189 189
160 160 160
163 163 163
170 170 170
180 180 180
180 180 180
168 168 168
150 150 150
138 138 138
128 128 128
135 135 135
158 158 158
175 175 175
185 185 185
182 182 182
169 169 169
149 149 149
150 150 150
162 162 162
178 178 178
202 202 202
218 218 218
214 214 214
194 194 194
168 168 168
186 186 186
210 210 210
223 223 223
213 213 213
190 190 190
164 164 164
149 149 149
166 166 166
177 177 177
177 177 177
167 167 167
177 177 177
161 161 161
161 161 161
152 152 152
162 162 162
170 170 170
168 168 168
158 158 158
167 167 167
190 190 190
205 205 205
218 218 218
226 226 226
210 210 210
184 184 184
157 157 157
145 145 145
154 154 154
162 162 162
162 162 162
163 163 163
169 169 169
166 166 166
153 153 153
153 153 153
144 144 144
158 158 158
166 166 166
166 166 166
157 157 157
141 141 141
129 129 129
143 143 143
166 166 166
185 185 185
196 196 196
194 194 194
179 179 179
164 164 164
193 193 193
222 222 222
247 247 247
226 226 226
197 197 197
168 168 168
139 139 139
143 143 143
152 152 152
164 164 164
180 180 180
186 186 186
132 132 132
140 140 140
165 165 165
185 185 185
196 196 196
194 194 194
179 179 179
165 165 165
186 186 186
201 201 201
200 200 200
198 198 198
188 188 188
169 169 169
145 145 145
137 137 137
138 138 138
146 146 146
170 170 170
188 188 188
197 197 197
192 192 192
181 181 181
181 181 181
170 170 170
160 160 160
170 170 170
170 170 170
161 161 161
144 144 144
123 123 123
126 126 126
146 146 146
162 162 162
170 170 170
168 168 168
157 157 157
159 159 159
187 187 187
212 212 212
226 226 226
215 215 215
191 191 191
164 164 164
135 135 135
123 123 123
149 149 149
172 172 172
191 191 191
198 198 198
121 121 121
150 150 150
177 177 177
201 201 201
217 217 217
214 214 214
194 194 194
169 169 169
172 172 172
183 183 183
183 183 183
172 172 172
163 163 163
148 148 148
131 131 131
139 139 139
140 140 140
157 157 157
184 184 184
208 208 208
221 221 221
213 213 213
207 207 207
207 207 207
191 191 191
168 168 168
164 164 164
164 164 164
155 155 155
139 139 139
119 119 119
106 106 106
123 123 123
136 136 136
142 142 142
140 140 140
139 139 139
154 154 154
175 175 175
190 190 190
197 197 197
191 191 191
174 174 174
151 151 151
125 125 125
122 122 122
148 148 148
171 171 171
189 189 189
196 196 196
123 123 123
151 151 151
179 179 179
204 204 204
222 222 222
218 218 218
197 197 197
171 171 171
151 151 151
159 159 159
159 159 159
151 151 151
141 141 141
145 145 145
140 140 140
133 133 133
134 134 134
160 160 160
188 188 188
213 213 213
230 230 230
219 219 219
227 227 227
227 227 227
205 205 205
177 177 177
150 150 150
150 150 150
142 142 142
128 128 128
116 116 116
107 107 107
101 101 101
109 109 109
113 113 113
117 117 117
131 131 131
156 156 156
178 178 178
193 193 193
196 196 196
185 185 185
166 166 166
142 142 142
115 115 115
120 120 120
145 145 145
167 167 167
184 184 184
191 191 191
137 137 137
147 147 147
170 170 170
191 191 191
204 204 204
202 202 202
185 185 185
162 162 162
139 139 139
148 148 148
149 149 149
145 145 145
158 158 158
161 161 161
156 156 156
150 150 150
159 159 159
158 158 158
179 179 179
200 200 200
211 211 211
204 204 204
222 222 222
223 223 223
202 202 202
176 176 176
148 148 148
130 130 130
131 131 131
135 135 135
133 133 133
123 123 123
115 115 115
124 124 124
127 127 127
123 123 123
126 126 126
150 150 150
170 170 170
184 184 184
186 186 186
177 177 177
159 159 159
136 136 136
134 134 134
135 135 135
156 156 156
173 173 173
186 186 186
193 193 193
156 156 156
162 162 162
183 183 183
196 196 196
196 196 196
182 182 182
165 165 165
146 146 146
135 135 135
144 144 144
145 145 145
153 153 153
166 166 166
171 171 171
165 165 165
175 175 175
186 186 186
186 186 186
174 174 174
177 177 177
185 185 185
186 186 186
200 200 200
200 200 200
186 186 186
164 164 164
139 139 139
144 144 144
158 158 158
164 164 164
160 160 160
149 149 149
131 131 131
140 140 140
143 143 143
139 139 139
128 128 128
136 136 136
154 154 154
165 165 165
167 167 167
159 159 159
144 144 144
153 153 153
154 154 154
148 148 148
173 173 173
194 194 194
205 205 205
200 200 200
169 169 169
170 170 170
192 192 192
208 208 208
208 208 208
192 192 192
168 168 168
142 142 142
126 126 126
142 142 142
160 160 160
170 170 170
171 171 171
170 170 170
171 171 171
195 195 195
212 212 212
212 212 212
195 195 195
170 170 170
157 157 157
162 162 162
172 172 172
172 172 172
163 163 163
166 166 166
160 160 160
165 165 165
183 183 183
191 191 191
187 187 187
171 171 171
149 149 149
149 149 149
152 152 152
148 148 148
143 143 143
135 135 135
144 144 144
163 163 163
175 175 175
176 176 176
167 167 167
167 167 167
169 169 169
160 160 160
181 181 181
206 206 206
221 221 221
214 214 214
174 174 174
174 174 174
189 189 189
203 203 203
203 203 203
188 188 188
166 166 166
140 140 140
135 135 135
160 160 160
182 182 182
196 196 196
197 197 197
185 185 185
177 177 177
205 205 205
227 227 227
227 227 227
204 204 204
177 177 177
149 149 149
136 136 136
153 153 153
175 175 175
191 191 191
195 195 195
186 186 186
180 180 180
203 203 203
216 216 216
209 209 209
188 188 188
162 162 162
150 150 150
154 154 154
151 151 151
150 150 150
142 142 142
161 161 161
183 183 183
199 199 199
201 201 201
189 189 189
173 173 173
175 175 175
166 166 166
179 179 179
202 202 202
215 215 215
209 209 209
168 168 168
168 168 168
174 174 174
185 185 185
185 185 185
173 173 173
154 154 154
131 131 131
144 144 144
172 172 172
197 197 197
217 217 217
218 218 218
201 201 201
175 175 175
199 199 199
217 217 217
217 217 217
198 198 198
173 173 173
146 146 146
138 138 138
166 166 166
193 193 193
216 216 216
224 224 224
208 208 208
186 186 186
211 211 211
227 227 227
218 218 218
194 194 194
166 166 166
162 162 162
158 158 158
151 151 151
150 150 150
145 145 145
169 169 169
195 195 195
215 215 215
218 218 218
202 202 202
187 187 187
191 191 191
182 182 182
165 165 165
184 184 184
194 194 194
190 190 190
153 153 153
153 153 153
168 168 168
177 177 177
175 175 175
163 163 163
153 153 153
152 152 152
145 145 145
173 173 173
199 199 199
220 220 220
222 222 222
203 203 203
177 177 177
180 180 180
193 193 193
193 193 193
180 180 180
160 160 160
149 149 149
142 142 142
171 171 171
200 200 200
228 228 228
243 243 243
218 218 218
189 189 189
201 201 201
213 213 213
206 206 206
186 186 186
172 172 172
177 177 177
172 172 172
158 158 158
142 142 142
144 144 144
168 168 168
193 193 193
212 212 212
216 216 216
200 200 200
208 208 208
215 215 215
202 202 202
179 179 179
172 172 172
194 194 194
208 208 208
140 140 140
163 163 163
183 183 183
194 194 194
191 191 191
177 177 177
169 169 169
167 167 167
156 156 156
164 164 164
187 187 187
203 203 203
204 204 204
190 190 190
168 168 168
156 156 156
169 169 169
185 185 185
191 191 191
184 184 184
174 174 174
164 164 164
166 166 166
192 192 192
215 215 215
222 222 222
207 207 207
183 183 183
186 186 186
188 188 188
184 184 184
172 172 172
188 188 188
193 193 193
186 186 186
168 168 168
145 145 145
136 136 136
157 157 157
179 179 179
194 194 194
196 196 196
194 194 194
217 217 217
225 225 225
209 209 209
184 184 184
182 182 182
210 210 210
233 233 233
142 142 142
167 167 167
187 187 187
199 199 199
196 196 196
181 181 181
177 177 177
175 175 175
163 163 163
148 148 148
166 166 166
178 178 178
178 178 178
168 168 168
152 152 152
158 158 158
184 184 184
204 204 204
212 212 212
202 202 202
194 194 194
182 182 182
162 162 162
174 174 174
189 189 189
194 194 194
185 185 185
203 203 203
216 216 216
209 209 209
188 188 188
177 177 177
195 195 195
201 201 201
192 192 192
173 173 173
149 149 149
134 134 134
140 140 140
158 158 158
169 169 169
170 170 170
186 186 186
205 205 205
211 211 211
199 199 199
177 177 177
182 182 182
209 209 209
231 231 231
148 148 148
171 171 171
190 190 190
199 199 199
193 193 193
176 176 176
174 174 174
172 172 172
160 160 160
142 142 142
142 142 142
150 150 150
156 156 156
170 170 170
176 176 176
170 170 170
188 188 188
210 210 210
220 220 220
208 208 208
205 205 205
190 190 190
168 168 168
150 150 150
162 162 162
165 165 165
190 190 190
219 219 219
244 244 244
228 228 228
199 199 199
171 171 171
188 188 188
193 193 193
185 185 185
168 168 168
153 153 153
141 141 141
124 124 124
133 133 133
142 142 142
148 148 148
168 168 168
183 183 183
187 187 187
178 178 178
161 161 161
170 170 170
192 192 192
206 206 206
148 148 148
171 171 171
190 190 190
199 199 199
193 193 193
175 175 175
161 161 161
160 160 160
161 161 161
153 153 153
138 138 138
147 147 147
170 170 170
187 187 187
194 194 194
187 187 187
179 179 179
198 198 198
205 205 205
198 198 198
199 199 199
186 186 186
165 165 165
140 140 140
133 133 133
159 159 159
188 188 188
215 215 215
234 234 234
222 222 222
196 196 196
168 168 168
170 170 170
175 175 175
168 168 168
156 156 156
152 152 152
141 141 141
132 132 132
143 143 143
147 147 147
158 158 158
174 174 174
181 181 181
177 177 177
163 163 163
143 143 143
151 151 151
168 168 168
177 177 177
153 153 153
161 161 161
178 178 178
185 185 185
180 180 180
165 165 165
158 158 158
168 168 168
169 169 169
161 161 161
144 144 144
151 151 151
174 174 174
193 193 193
201 201 201
193 193 193
177 177 177
176 176 176
182 182 182
180 180 180
181 181 181
171 171 171
153 153 153
144 144 144
139 139 139
161 161 161
185 185 185
202 202 202
206 206 206
199 199 199
181 181 181
157 157 157
148 148 148
151 151 151
146 146 146
147 147 147
144 144 144
133 133 133
152 152 152
165 165 165
169 169 169
174 174 174
194 194 194
204 204 204
198 198 198
180 180 180
157 157 157
134 134 134
142 142 142
148 148 148
173 173 173
181 181 181
178 178 178
165 165 165
159 159 159
147 147 147
157 157 157
167 167 167
168 168 168
160 160 160
144 144 144
146 146 146
169 169 169
186 186 186
192 192 192
186 186 186
174 174 174
171 171 171
158 158 158
160 160 160
157 157 157
161 161 161
168 168 168
166 166 166
159 159 159
178 178 178
197 197 197
221 221 221
228 228 228
209 209 209
183 183 183
155 155 155
156 156 156
160 160 160
156 156 156
144 144 144
137 137 137
155 155 155
167 167 167
181 181 181
187 187 187
181 181 181
204 204 204
217 217 217
209 209 209
188 188 188
163 163 163
159 159 159
170 170 170
172 172 172
185 185 185
196 196 196
192 192 192
177 177 177
162 162 162
156 156 156
148 148 148
157 157 157
158 158 158
150 150 150
135 135 135
135 135 135
154 154 154
168 168 168
174 174 174
169 169 169
161 161 161
158 158 158
158 158 158
161 161 161
160 160 160
177 177 177
186 186 186
183 183 183
174 174 174
197 197 197
212 212 212
219 219 219
226 226 226
208 208 208
182 182 182
167 167 167
183 183 183
190 190 190
183 183 183
167 167 167
152 152 152
173 173 173
187 187 187
191 191 191
194 194 194
186 186 186
198 198 198
209 209 209
203 203 203
184 184 184
159 159 159
182 182 182
197 197 197
199 199 199
187 187 187
197 197 197
194 194 194
180 180 180
184 184 184
176 176 176
159 159 159
145 145 145
157 157 157
161 161 161
156 156 156
143 143 143
151 151 151
163 163 163
167 167 167
161 161 161
147 147 147
153 153 153
155 155 155
153 153 153
165 165 165
184 184 184
193 193 193
190 190 190
179 179 179
205 205 205
223 223 223
219 219 219
203 203 203
191 191 191
170 170 170
186 186 186
208 208 208
219 219 219
208 208 208
186 186 186
159 159 159
182 182 182
199 199 199
203 203 203
192 192 192
180 180 180
180 180 180
188 188 188
184 184 184
169 169 169
171 171 171
197 197 197
218 218 218
222 222 222
176 176 176
185 185 185
182 182 182
194 194 194
198 198 198
189 189 189
169 169 169
167 167 167
183 183 183
188 188 188
181 181 181
165 165 165
143 143 143
155 155 155
158 158 158
153 153 153
163 163 163
175 175 175
177 177 177
168 168 168
161 161 161
178 178 178
187 187 187
184 184 184
179 179 179
196 196 196
210 210 210
208 208 208
190 190 190
174 174 174
174 174 174
195 195 195
224 224 224
246 246 246
224 224 224
195 195 195
166 166 166
180 180 180
197 197 197
201 201 201
190 190 190
169 169 169
156 156 156
162 162 162
159 159 159
147 147 147
173 173 173
200 200 200
223 223 223
227 227 227
157 157 157
164 164 164
178 178 178
195 195 195
200 200 200
191 191 191
172 172 172
184 184 184
205 205 205
213 213 213
203 203 203
181 181 181
155 155 155
139 139 139
142 142 142
154 154 154
175 175 175
189 189 189
192 192 192
181 181 181
162 162 162
163 163 163
171 171 171
168 168 168
171 171 171
176 176 176
186 186 186
185 185 185
182 182 182
196 196 196
196 196 196
190 190 190
216 216 216
230 230 230
216 216 216
191 191 191
167 167 167
168 168 168
181 181 181
184 184 184
181 181 181
178 178 178
164 164 164
144 144 144
132 132 132
138 138 138
164 164 164
188 188 188
205 205 205
208 208 208
134 134 134
156 156 156
181 181 181
199 199 199
206 206 206
196 196 196
175 175 175
191 191 191
216 216 216
227 227 227
213 213 213
188 188 188
160 160 160
132 132 132
131 131 131
156 156 156
177 177 177
192 192 192
195 195 195
184 184 184
173 173 173
185 185 185
186 186 186
175 175 175
156 156 156
154 154 154
159 159 159
168 168 168
192 192 192
208 208 208
209 209 209
193 193 193
193 193 193
201 201 201
193 193 193
175 175 175
166 166 166
160 160 160
171 171 171
191 191 191
201 201 201
196 196 196
179 179 179
156 156 156
151 151 151
155 155 155
150 150 150
168 168 168
180 180 180
181 181 181
126 126 126
151 151 151
173 173 173
190 190 190
195 195 195
187 187 187
169 169 169
185 185 185
207 207 207
216 216 216
205 205 205
182 182 182
164 164 164
147 147 147
126 126 126
149 149 149
169 169 169
182 182 182
184 184 184
175 175 175
190 190 190
207 207 207
208 208 208
193 193 193
170 170 170
144 144 144
148 148 148
166 166 166
188 188 188
204 204 204
204 204 204
190 190 190
167 167 167
171 171 171
166 166 166
155 155 155
155 155 155
151 151 151
175 175 175
197 197 197
209 209 209
203 203 203
184 184 184
160 160 160
174 174 174
179 179 179
173 173 173
161 161 161
152 152 152
153 153 153
115 115 115
138 138 138
157 157 157
170 170 170
174 174 174
168 168 168
153 153 153
169 169 169
185 185 185
191 191 191
187 187 187
188 188 188
177 177 177
158 158 158
134 134 134
135 135 135
152 152 152
163 163 163
165 165 165
174 174 174
196 196 196
215 215 215
217 217 217
199 199 199
175 175 175
170 170 170
177 177 177
173 173 173
174 174 174
186 186 186
186 186 186
175 175 175
156 156 156
167 167 167
181 181 181
184 184 184
176 176 176
159 159 159
169 169 169
189 189 189
199 199 199
194 194 194
178 178 178
173 173 173
191 191 191
198 198 198
190 190 190
179 179 179
166 166 166
147 147 147
105 105 105
128 128 128
148 148 148
162 162 162
168 168 168
165 165 165
152 152 152
147 147 147
159 159 159
177 177 177
190 190 190
191 191 191
180 180 180
160 160 160
136 136 136
116 116 116
136 136 136
160 160 160
179 179 179
191 191 191
190 190 190
204 204 204
206 206 206
191 191 191
174 174 174
194 194 194
204 204 204
198 198 198
180 180 180
162 162 162
162 162 162
163 163 163
174 174 174
188 188 188
207 207 207
213 213 213
200 200 200
177 177 177
155 155 155
171 171 171
178 178 178
175 175 175
169 169 169
179 179 179
197 197 197
204 204 204
196 196 196
188 188 188
174 174 174
154 154 154
111 111 111
132 132 132
153 153 153
168 168 168
174 174 174
170 170 170
157 157 157
156 156 156
151 151 151
169 169 169
181 181 181
182 182 182
171 171 171
153 153 153
133 133 133
119 119 119
139 139 139
164 164 164
185 185 185
198 198 198
197 197 197
182 182 182
183 183 183
173 173 173
186 186 186
212 212 212
227 227 227
218 218 218
194 194 194
166 166 166
160 160 160
182 182 182
196 196 196
200 200 200
228 228 228
239 239 239
216 216 216
188 188 188
172 172 172
164 164 164
161 161 161
183 183 183
197 197 197
198 198 198
189 189 189
195 195 195
188 188 188
185 185 185
172 172 172
152 152 152
124 124 124
143 143 143
156 156 156
163 163 163
170 170 170
166 166 166
180 180 180
185 185 185
178 178 178
162 162 162
163 163 163
163 163 163
164 164 164
165 165 165
156 156 156
140 140 140
135 135 135
159 159 159
178 178 178
190 190 190
189 189 189
176 176 176
157 157 157
159 159 159
186 186 186
212 212 212
229 229 229
219 219 219
194 194 194
167 167 167
168 168 168
192 192 192
210 210 210
211 211 211
224 224 224
233 233 233
213 213 213
193 193 193
196 196 196
186 186 186
174 174 174
201 201 201
222 222 222
223 223 223
203 203 203
177 177 177
173 173 173
171 171 171
160 160 160
142 142 142
132 132 132
152 152 152
166 166 166
172 172 172
167 167 167
184 184 184
205 205 205
214 214 214
203 203 203
181 181 181
155 155 155
174 174 174
186 186 186
186 186 186
174 174 174
157 157 157
152 152 152
146 146 146
163 163 163
172 172 172
171 171 171
161 161 161
147 147 147
156 156 156
175 175 175
196 196 196
206 206 206
200 200 200
182 182 182
157 157 157
166 166 166
189 189 189
206 206 206
207 207 207
201 201 201
205 205 205
194 194 194
208 208 208
213 213 213
199 199 199
177 177 177
206 206 206
231 231 231
233 233 233
209 209 209
180 180 180
152 152 152
151 151 151
141 141 141
126 126 126
134 134 134
154 154 154
168 168 168
174 174 174
169 169 169
196 196 196
223 223 223
239 239 239
220 220 220
192 192 192
163 163 163
185 185 185
199 199 199
199 199 199
185 185 185
187 187 187
179 179 179
162 162 162
146 146 146
148 148 148
148 148 148
148 148 148
168 168 168
181 181 181
184 184 184
175 175 175
179 179 179
175 175 175
161 161 161
150 150 150
155 155 155
175 175 175
188 188 188
189 189 189
178 178 178
176 176 176
189 189 189
207 207 207
212 212 212
198 198 198
175 175 175
194 194 194
212 212 212
213 213 213
197 197 197
173 173 173
146 146 146
127 127 127
119 119 119
110 110 110
128 128 128
147 147 147
160 160 160
165 165 165
165 165 165
193 193 193
219 219 219
232 232 232
216 216 216
190 190 190
162 162 162
184 184 184
198 198 198
198 198 198
208 208 208
216 216 216
204 204 204
186 186 186
165 165 165
141 141 141
134 134 134
160 160 160
184 184 184
201 201 201
205 205 205
193 193 193
172 172 172
153 153 153
162 162 162
163 163 163
154 154 154
154 154 154
164 164 164
164 164 164
156 156 156
177 177 177
195 195 195
201 201 201
194 194 194
184 184 184
174 174 174
173 173 173
186 186 186
186 186 186
175 175 175
156 156 156
138 138 138
136 136 136
128 128 128
113 113 113
126 126 126
145 145 145
158 158 158
163 163 163
158 158 158
179 179 179
197 197 197
204 204 204
195 195 195
176 176 176
162 162 162
172 172 172
183 183 183
199 199 199
228 228 228
245 245 245
220 220 220
203 203 203
178 178 178
150 150 150
138 138 138
165 165 165
190 190 190
210 210 210
215 215 215
200 200 200
177 177 177
157 157 157
166 166 166
166 166 166
157 157 157
141 141 141
137 137 137
140 140 140
151 151 151
174 174 174
191 191 191
197 197 197
190 190 190
199 199 199
194 194 194
176 176 176
157 157 157
158 158 158
150 150 150
157 157 157
164 164 164
162 162 162
152 152 152
135 135 135
140 140 140
161 161 161
177 177 177
183 183 183
177 177 177
171 171 171
184 184 184
185 185 185
175 175 175
158 158 158
171 171 171
176 176 176
169 169 169
196 196 196
222 222 222
234 234 234
225 225 225
206 206 206
180 180 180
152 152 152
147 147 147
164 164 164
183 183 183
201 201 201
205 205 205
193 193 193
172 172 172
151 151 151
160 160 160
160 160 160
152 152 152
137 137 137
129 129 129
135 135 135
141 141 141
161 161 161
176 176 176
180 180 180
199 199 199
210 210 210
203 203 203
183 183 183
159 159 159
137 137 137
160 160 160
179 179 179
188 188 188
186 186 186
172 172 172
152 152 152
147 147 147
170 170 170
187 187 187
195 195 195
188 188 188
180 180 180
195 195 195
197 197 197
185 185 185
165 165 165
171 171 171
175 175 175
169 169 169
180 180 180
198 198 198
204 204 204
207 207 207
193 193 193
171 171 171
145 145 145
164 164 164
185 185 185
197 197 197
197 197 197
183 183 183
174 174 174
157 157 157
159 159 159
169 169 169
170 170 170
161 161 161
145 145 145
124 124 124
125 125 125
125 125 125
142 142 142
154 154 154
173 173 173
193 193 193
203 203 203
197 197 197
179 179 179
155 155 155
146 146 146
172 172 172
194 194 194
206 206 206
203 203 203
186 186 186
162 162 162
146 146 146
169 169 169
186 186 186
193 193 193
187 187 187
178 178 178
192 192 192
194 194 194
183 183 183
163 163 163
161 161 161
165 165 165
159 159 159
158 158 158
171 171 171
179 179 179
181 181 181
171 171 171
154 154 154
146 146 146
172 172 172
196 196 196
213 213 213
212 212 212
194 194 194
170 170 170
152 152 152
159 159 159
170 170 170
171 171 171
162 162 162
145 145 145
124 124 124
109 109 109
108 108 108
119 119 119
138 138 138
160 160 160
176 176 176
183 183 183
179 179 179
169 169 169
158 158 158
148 148 148
174 174 174
196 196 196
210 210 210
206 206 206
188 188 188
164 164 164
171 171 171
175 175 175
173 173 173
179 179 179
174 174 174
166 166 166
178 178 178
179 179 179
170 170 170
153 153 153
143 143 143
147 147 147
150 150 150
162 162 162
166 166 166
161 161 161
164 164 164
174 174 174
175 175 175
165 165 165
171 171 171
195 195 195
210 210 210
209 209 209
192 192 192
178 178 178
159 159 159
154 154 154
160 160 160
161 161 161
153 153 153
138 138 138
118 118 118
104 104 104
112 112 112
128 128 128
140 140 140
156 156 156
165 165 165
182 182 182
194 194 194
192 192 192
178 178 178
157 157 157
165 165 165
185 185 185
196 196 196
193 193 193
178 178 178
180 180 180
195 195 195
200 200 200
190 190 190
171 171 171
154 154 154
147 147 147
156 156 156
158 158 158
157 157 157
155 155 155
145 145 145
147 147 147
169 169 169
185 185 185
191 191 191
184 184 184
186 186 186
201 201 201
202 202 202
188 188 188
166 166 166
180 180 180
192 192 192
205 205 205
208 208 208
195 195 195
172 172 172
151 151 151
144 144 144
144 144 144
137 137 137
124 124 124
126 126 126
125 125 125
131 131 131
150 150 150
162 162 162
169 169 169
180 180 180
195 195 195
209 209 209
207 207 207
190 190 190
170 170 170
173 173 173
166 166 166
173 173 173
179 179 179
186 186 186
197 197 197
210 210 210
217 217 217
204 204 204
181 181 181
154 154 154
136 136 136
158 158 158
175 175 175
184 184 184
182 182 182
168 168 168
157 157 157
182 182 182
202 202 202
209 209 209
200 200 200
201 201 201
222 222 222
223 223 223
203 203 203
190 190 190
192 192 192
193 193 193
212 212 212
216 216 216
200 200 200
176 176 176
149 149 149
131 131 131
124 124 124
138 138 138
146 146 146
146 146 146
142 142 142
145 145 145
166 166 166
182 182 182
188 188 188
186 186 186
194 194 194
209 209 209
206 206 206
189 189 189
178 178 178
182 182 182
174 174 174
180 180 180
193 193 193
193 193 193
201 201 201
209 209 209
216 216 216
203 203 203
180 180 180
154 154 154
148 148 148
174 174 174
196 196 196
209 209 209
205 205 205
187 187 187
172 172 172
186 186 186
204 204 204
212 212 212
202 202 202
202 202 202
224 224 224
225 225 225
204 204 204
217 217 217
220 220 220
203 203 203
201 201 201
203 203 203
191 191 191
169 169 169
144 144 144
123 123 123
144 144 144
161 161 161
171 171 171
171 171 171
162 162 162
152 152 152
175 175 175
193 193 193
200 200 200
192 192 192
181 181 181
192 192 192
190 190 190
177 177 177
175 175 175
178 178 178
171 171 171
181 181 181
194 194 194
194 194 194
191 191 191
192 192 192
197 197 197
188 188 188
169 169 169
145 145 145
154 154 154
182 182 182
207 207 207
225 225 225
219 219 219
196 196 196
201 201 201
192 192 192
207 207 207
206 206 206
191 191 191
188 188 188
204 204 204
204 204 204
206 206 206
235 235 235
242 242 242
214 214 214
184 184 184
181 181 181
171 171 171
154 154 154
132 132 132
135 135 135
160 160 160
180 180 180
193 193 193
193 193 193
180 180 180
160 160 160
174 174 174
191 191 191
198 198 198
190 190 190
172 172 172
168 168 168
167 167 167
173 173 173
178 178 178
193 193 193
195 195 195
185 185 185
182 182 182
182 182 182
176 176 176
