P3
50 50
255
106 106 106
134 134 134
160 160 160
184 184 184
203 203 203
208 208 208
196 196 196
215 215 215
222 222 222
207 207 207
182 182 182
155 155 155
161 161 161
180 180 180
190 190 190
188 188 188
174 174 174
153 153 153
129 129 129
122 122 122
138 138 138
149 149 149
153 153 153
158 158 158
185 185 185
211 211 211
226 226 226
216 216 216
192 192 192
165 165 165
143 143 143
151 151 151
151 151 151
158 158 158
158 158 158
173 173 173
182 182 182
192 192 192
190 190 190
177 177 177
156 156 156
150 150 150
159 159 159
159 159 159
155 155 155
177 177 177
193 193 193
196 196 196
186 186 186
167 167 167
108 108 108
136 136 136
164 164 164
189 189 189
210 210 210
216 216 216
202 202 202
211 211 211
217 217 217
204 204 204
180 180 180
154 154 154
162 162 162
181 181 181
191 191 191
189 189 189
175 175 175
154 154 154
130 130 130
142 142 142
163 163 163
177 177 177
182 182 182
176 176 176
191 191 191
220 220 220
245 245 245
228 228 228
199 199 199
170 170 170
142 142 142
156 156 156
175 175 175
186 186 186
186 186 186
192 192 192
203 203 203
210 210 210
209 209 209
191 191 191
167 167 167
176 176 176
188 188 188
188 188 188
176 176 176
195 195 195
218 218 218
225 225 225
208 208 208
183 183 183
105 105 105
132 132 132
158 158 158
181 181 181
199 199 199
204 204 204
193 193 193
191 191 191
196 196 196
186 186 186
167 167 167
144 144 144
153 153 153
170 170 170
179 179 179
177 177 177
165 165 165
146 146 146
131 131 131
158 158 158
184 184 184
204 204 204
211 211 211
201 201 201
184 184 184
208 208 208
222 222 222
213 213 213
191 191 191
164 164 164
145 145 145
172 172 172
196 196 196
213 213 213
213 213 213
200 200 200
214 214 214
214 214 214
212 212 212
193 193 193
173 173 173
198 198 198
216 216 216
216 216 216
198 198 198
202 202 202
232 232 232
246 246 246
218 218 218
188 188 188
95 95 95
121 121 121
144 144 144
164 164 164
178 178 178
181 181 181
173 173 173
166 166 166
169 169 169
162 162 162
148 148 148
128 128 128
138 138 138
156 156 156
170 170 170
174 174 174
167 167 167
152 152 152
156 156 156
167 167 167
196 196 196
224 224 224
239 239 239
219 219 219
191 191 191
185 185 185
193 193 193
188 188 188
172 172 172
150 150 150
150 150 150
179 179 179
207 207 207
232 232 232
231 231 231
207 207 207
205 205 205
201 201 201
197 197 197
182 182 182
180 180 180
210 210 210
238 238 238
239 239 239
210 210 210
194 194 194
216 216 216
222 222 222
206 206 206
181 181 181
84 84 84
105 105 105
125 125 125
142 142 142
152 152 152
155 155 155
158 158 158
152 152 152
153 153 153
161 161 161
160 160 160
150 150 150
155 155 155
179 179 179
197 197 197
203 203 203
193 193 193
174 174 174
183 183 183
186 186 186
195 195 195
222 222 222
236 236 236
218 218 218
190 190 190
162 162 162
164 164 164
160 160 160
148 148 148
131 131 131
157 157 157
179 179 179
202 202 202
222 222 222
222 222 222
201 201 201
184 184 184
181 181 181
174 174 174
163 163 163
177 177 177
204 204 204
227 227 227
227 227 227
205 205 205
177 177 177
190 190 190
193 193 193
184 184 184
165 165 165
105 105 105
104 104 104
103 103 103
117 117 117
132 132 132
142 142 142
144 144 144
158 158 158
177 177 177
188 188 188
187 187 187
174 174 174
167 167 167
195 195 195
220 220 220
232 232 232
215 215 215
189 189 189
207 207 207
211 211 211
197 197 197
201 201 201
208 208 208
198 198 198
177 177 177
162 162 162
174 174 174
176 176 176
168 168 168
151 151 151
169 169 169
196 196 196
218 218 218
224 224 224
207 207 207
183 183 183
168 168 168
165 165 165
152 152 152
139 139 139
164 164 164
185 185 185
199 199 199
200 200 200
186 186 186
164 164 164
162 162 162
164 164 164
161 161 161
162 162 162
124 124 124
123 123 123
115 115 115
102 102 102
115 115 115
123 123 123
147 147 147
173 173 173
197 197 197
212 212 212
210 210 210
192 192 192
169 169 169
198 198 198
227 227 227
246 246 246
221 221 221
198 198 198
221 221 221
227 227 227
208 208 208
182 182 182
179 179 179
185 185 185
181 181 181
184 184 184
201 201 201
204 204 204
192 192 192
170 170 170
172 172 172
200 200 200
226 226 226
234 234 234
212 212 212
189 189 189
198 198 198
192 192 192
175 175 175
152 152 152
144 144 144
161 161 161
171 171 171
171 171 171
161 161 161
174 174 174
177 177 177
170 170 170
154 154 154
154 154 154
148 148 148
146 146 146
137 137 137
121 121 121
106 106 106
122 122 122
151 151 151
179 179 179
205 205 205
225 225 225
222 222 222
200 200 200
173 173 173
188 188 188
209 209 209
217 217 217
205 205 205
192 192 192
212 212 212
217 217 217
202 202 202
178 178 178
185 185 185
194 194 194
189 189 189
199 199 199
223 223 223
228 228 228
209 209 209
182 182 182
165 165 165
190 190 190
209 209 209
214 214 214
200 200 200
212 212 212
227 227 227
217 217 217
192 192 192
165 165 165
153 153 153
175 175 175
191 191 191
196 196 196
186 186 186
192 192 192
196 196 196
187 187 187
168 168 168
144 144 144
177 177 177
174 174 174
162 162 162
143 143 143
127 127 127
138 138 138
147 147 147
174 174 174
198 198 198
213 213 213
211 211 211
193 193 193
168 168 168
168 168 168
183 183 183
188 188 188
180 180 180
176 176 176
190 190 190
193 193 193
183 183 183
164 164 164
181 181 181
189 189 189
184 184 184
200 200 200
225 225 225
231 231 231
211 211 211
183 183 183
155 155 155
170 170 170
184 184 184
186 186 186
193 193 193
222 222 222
251 251 251
228 228 228
199 199 199
169 169 169
166 166 166
193 193 193
216 216 216
224 224 224
209 209 209
199 199 199
204 204 204
193 193 193
174 174 174
168 168 168
205 205 205
202 202 202
184 184 184
161 161 161
144 144 144
157 157 157
161 161 161
159 159 159
178 178 178
189 189 189
188 188 188
175 175 175
154 154 154
144 144 144
162 162 162
177 177 177
182 182 182
175 175 175
164 164 164
166 166 166
158 158 158
151 151 151
166 166 166
173 173 173
169 169 169
187 187 187
205 205 205
208 208 208
195 195 195
173 173 173
147 147 147
146 146 146
156 156 156
158 158 158
185 185 185
209 209 209
223 223 223
213 213 213
190 190 190
172 172 172
187 187 187
200 200 200
229 229 229
245 245 245
219 219 219
192 192 192
196 196 196
204 204 204
201 201 201
193 193 193
231 231 231
224 224 224
199 199 199
172 172 172
155 155 155
169 169 169
175 175 175
169 169 169
155 155 155
162 162 162
161 161 161
151 151 151
145 145 145
141 141 141
162 162 162
177 177 177
181 181 181
175 175 175
159 159 159
145 145 145
160 160 160
168 168 168
166 166 166
155 155 155
148 148 148
166 166 166
178 178 178
180 180 180
172 172 172
155 155 155
133 133 133
126 126 126
142 142 142
153 153 153
167 167 167
185 185 185
193 193 193
188 188 188
172 172 172
190 190 190
212 212 212
220 220 220
215 215 215
223 223 223
208 208 208
183 183 183
208 208 208
229 229 229
224 224 224
211 211 211
234 234 234
226 226 226
201 201 201
172 172 172
159 159 159
173 173 173
178 178 178
173 173 173
158 158 158
147 147 147
147 147 147
139 139 139
134 134 134
147 147 147
156 156 156
166 166 166
170 170 170
165 165 165
151 151 151
166 166 166
185 185 185
196 196 196
194 194 194
178 178 178
157 157 157
164 164 164
174 174 174
175 175 175
165 165 165
147 147 147
125 125 125
146 146 146
167 167 167
181 181 181
185 185 185
177 177 177
183 183 183
188 188 188
181 181 181
198 198 198
225 225 225
240 240 240
219 219 219
194 194 194
185 185 185
183 183 183
211 211 211
233 233 233
227 227 227
212 212 212
210 210 210
206 206 206
187 187 187
163 163 163
153 153 153
166 166 166
171 171 171
166 166 166
152 152 152
153 153 153
153 153 153
145 145 145
146 146 146
163 163 163
178 178 178
191 191 191
192 192 192
181 181 181
163 163 163
180 180 180
206 206 206
224 224 224
219 219 219
197 197 197
170 170 170
172 172 172
183 183 183
184 184 184
173 173 173
154 154 154
135 135 135
162 162 162
187 187 187
207 207 207
214 214 214
201 201 201
200 200 200
208 208 208
198 198 198
191 191 191
214 214 214
223 223 223
209 209 209
185 185 185
159 159 159
173 173 173
196 196 196
210 210 210
207 207 207
196 196 196
181 181 181
179 179 179
166 166 166
146 146 146
140 140 140
151 151 151
156 156 156
151 151 151
145 145 145
154 154 154
155 155 155
148 148 148
153 153 153
172 172 172
193 193 193
211 211 211
213 213 213
197 197 197
187 187 187
199 199 199
214 214 214
239 239 239
230 230 230
203 203 203
174 174 174
176 176 176
189 189 189
189 189 189
177 177 177
158 158 158
141 141 141
170 170 170
198 198 198
225 225 225
238 238 238
217 217 217
207 207 207
213 213 213
203 203 203
181 181 181
190 190 190
196 196 196
187 187 187
169 169 169
145 145 145
155 155 155
172 172 172
182 182 182
180 180 180
173 173 173
152 152 152
151 151 151
141 141 141
129 129 129
135 135 135
152 152 152
168 168 168
175 175 175
172 172 172
179 179 179
181 181 181
171 171 171
154 154 154
171 171 171
197 197 197
216 216 216
218 218 218
200 200 200
205 205 205
224 224 224
221 221 221
219 219 219
214 214 214
194 194 194
168 168 168
170 170 170
181 181 181
182 182 182
171 171 171
152 152 152
139 139 139
168 168 168
195 195 195
220 220 220
230 230 230
230 230 230
221 221 221
200 200 200
192 192 192
173 173 173
163 163 163
167 167 167
161 161 161
147 147 147
127 127 127
132 132 132
146 146 146
153 153 153
156 156 156
160 160 160
123 123 123
122 122 122
118 118 118
130 130 130
146 146 146
170 170 170
191 191 191
201 201 201
197 197 197
199 199 199
202 202 202
189 189 189
168 168 168
163 163 163
186 186 186
201 201 201
203 203 203
189 189 189
209 209 209
231 231 231
227 227 227
203 203 203
188 188 188
174 174 174
154 154 154
168 168 168
173 173 173
168 168 168
156 156 156
140 140 140
130 130 130
156 156 156
180 180 180
197 197 197
205 205 205
219 219 219
212 212 212
191 191 191
171 171 171
156 156 156
136 136 136
138 138 138
133 133 133
123 123 123
116 116 116
111 111 111
118 118 118
134 134 134
146 146 146
151 151 151
144 144 144
144 144 144
137 137 137
130 130 130
154 154 154
181 181 181
206 206 206
222 222 222
215 215 215
208 208 208
211 211 211
197 197 197
174 174 174
177 177 177
171 171 171
178 178 178
179 179 179
172 172 172
196 196 196
211 211 211
209 209 209
191 191 191
167 167 167
151 151 151
175 175 175
193 193 193
200 200 200
193 193 193
174 174 174
151 151 151
125 125 125
139 139 139
158 158 158
178 178 178
193 193 193
196 196 196
190 190 190
174 174 174
152 152 152
135 135 135
125 125 125
140 140 140
147 147 147
147 147 147
141 141 141
134 134 134
126 126 126
142 142 142
158 158 158
167 167 167
165 165 165
165 165 165
156 156 156
155 155 155
167 167 167
182 182 182
206 206 206
222 222 222
215 215 215
200 200 200
202 202 202
190 190 190
183 183 183
189 189 189
182 182 182
165 165 165
152 152 152
155 155 155
174 174 174
184 184 184
183 183 183
177 177 177
162 162 162
161 161 161
188 188 188
211 211 211
223 223 223
211 211 211
187 187 187
160 160 160
132 132 132
144 144 144
166 166 166
181 181 181
197 197 197
200 200 200
189 189 189
168 168 168
144 144 144
135 135 135
143 143 143
159 159 159
169 169 169
169 169 169
163 163 163
160 160 160
153 153 153
162 162 162
182 182 182
194 194 194
180 180 180
180 180 180
169 169 169
177 177 177
193 193 193
196 196 196
191 191 191
202 202 202
197 197 197
180 180 180
182 182 182
172 172 172
183 183 183
188 188 188
181 181 181
164 164 164
154 154 154
165 165 165
177 177 177
198 198 198
207 207 207
200 200 200
181 181 181
190 190 190
189 189 189
213 213 213
226 226 226
213 213 213
189 189 189
161 161 161
133 133 133
154 154 154
178 178 178
196 196 196
203 203 203
195 195 195
190 190 190
177 177 177
156 156 156
158 158 158
157 157 157
173 173 173
184 184 184
184 184 184
184 184 184
187 187 187
178 178 178
175 175 175
200 200 200
217 217 217
185 185 185
185 185 185
174 174 174
193 193 193
213 213 213
219 219 219
204 204 204
179 179 179
172 172 172
160 160 160
158 158 158
157 157 157
171 171 171
175 175 175
169 169 169
155 155 155
168 168 168
180 180 180
186 186 186
210 210 210
224 224 224
213 213 213
200 200 200
218 218 218
216 216 216
198 198 198
206 206 206
197 197 197
178 178 178
153 153 153
137 137 137
155 155 155
180 180 180
199 199 199
206 206 206
206 206 206
204 204 204
188 188 188
167 167 167
177 177 177
176 176 176
177 177 177
189 189 189
189 189 189
208 208 208
212 212 212
198 198 198
202 202 202
205 205 205
225 225 225
178 178 178
178 178 178
169 169 169
196 196 196
219 219 219
225 225 225
208 208 208
182 182 182
154 154 154
153 153 153
159 159 159
157 157 157
163 163 163
172 172 172
171 171 171
160 160 160
172 172 172
185 185 185
187 187 187
206 206 206
217 217 217
208 208 208
212 212 212
241 241 241
237 237 237
208 208 208
179 179 179
174 174 174
161 161 161
156 156 156
144 144 144
149 149 149
171 171 171
187 187 187
193 193 193
205 205 205
204 204 204
188 188 188
176 176 176
187 187 187
186 186 186
173 173 173
181 181 181
197 197 197
220 220 220
226 226 226
213 213 213
229 229 229
218 218 218
209 209 209
162 162 162
162 162 162
162 162 162
186 186 186
203 203 203
208 208 208
195 195 195
173 173 173
161 161 161
145 145 145
151 151 151
159 159 159
179 179 179
190 190 190
188 188 188
175 175 175
166 166 166
178 178 178
180 180 180
187 187 187
195 195 195
189 189 189
206 206 206
226 226 226
224 224 224
202 202 202
175 175 175
156 156 156
160 160 160
156 156 156
143 143 143
153 153 153
168 168 168
173 173 173
178 178 178
189 189 189
188 188 188
175 175 175
174 174 174
185 185 185
184 184 184
172 172 172
166 166 166
191 191 191
210 210 210
215 215 215
219 219 219
239 239 239
224 224 224
197 197 197
151 151 151
163 163 163
166 166 166
166 166 166
179 179 179
186 186 186
198 198 198
195 195 195
180 180 180
158 158 158
139 139 139
164 164 164
184 184 184
197 197 197
195 195 195
181 181 181
159 159 159
169 169 169
172 172 172
165 165 165
168 168 168
165 165 165
186 186 186
199 199 199
197 197 197
183 183 183
161 161 161
146 146 146
150 150 150
146 146 146
137 137 137
158 158 158
173 173 173
179 179 179
173 173 173
173 173 173
171 171 171
159 159 159
163 163 163
172 172 172
171 171 171
161 161 161
153 153 153
174 174 174
188 188 188
191 191 191
203 203 203
215 215 215
207 207 207
186 186 186
171 171 171
186 186 186
190 190 190
182 182 182
175 175 175
199 199 199
214 214 214
210 210 210
192 192 192
167 167 167
140 140 140
159 159 159
178 178 178
189 189 189
188 188 188
175 175 175
159 159 159
171 171 171
174 174 174
167 167 167
152 152 152
156 156 156
161 161 161
170 170 170
169 169 169
159 159 159
141 141 141
130 130 130
134 134 134
130 130 130
134 134 134
154 154 154
168 168 168
173 173 173
168 168 168
155 155 155
150 150 150
141 141 141
145 145 145
152 152 152
152 152 152
143 143 143
134 134 134
151 151 151
161 161 161
163 163 163
179 179 179
187 187 187
182 182 182
167 167 167
184 184 184
202 202 202
208 208 208
197 197 197
176 176 176
197 197 197
212 212 212
208 208 208
190 190 190
166 166 166
139 139 139
146 146 146
163 163 163
172 172 172
171 171 171
169 169 169
180 180 180
181 181 181
170 170 170
159 159 159
172 172 172
185 185 185
186 186 186
176 176 176
157 157 157
134 134 134
118 118 118
126 126 126
140 140 140
147 147 147
146 146 146
155 155 155
164 164 164
163 163 163
154 154 154
142 142 142
142 142 142
160 160 160
170 170 170
171 171 171
162 162 162
146 146 146
125 125 125
128 128 128
134 134 134
141 141 141
152 152 152
157 157 157
154 154 154
159 159 159
185 185 185
204 204 204
211 211 211
199 199 199
177 177 177
182 182 182
193 193 193
191 191 191
178 178 178
168 168 168
151 151 151
129 129 129
141 141 141
149 149 149
160 160 160
181 181 181
195 195 195
195 195 195
182 182 182
169 169 169
193 193 193
212 212 212
214 214 214
198 198 198
174 174 174
148 148 148
120 120 120
136 136 136
151 151 151
159 159 159
158 158 158
157 157 157
166 166 166
166 166 166
156 156 156
144 144 144
162 162 162
184 184 184
199 199 199
200 200 200
187 187 187
166 166 166
141 141 141
145 145 145
150 150 150
166 166 166
179 179 179
181 181 181
172 172 172
160 160 160
175 175 175
191 191 191
196 196 196
187 187 187
172 172 172
161 161 161
174 174 174
187 187 187
189 189 189
178 178 178
158 158 158
136 136 136
144 144 144
155 155 155
162 162 162
183 183 183
197 197 197
197 197 197
184 184 184
182 182 182
205 205 205
232 232 232
237 237 237
212 212 212
183 183 183
154 154 154
125 125 125
139 139 139
154 154 154
162 162 162
161 161 161
153 153 153
164 164 164
165 165 165
158 158 158
146 146 146
175 175 175
202 202 202
225 225 225
228 228 228
207 207 207
180 180 180
151 151 151
155 155 155
163 163 163
188 188 188
206 206 206
209 209 209
196 196 196
174 174 174
167 167 167
191 191 191
208 208 208
210 210 210
195 195 195
172 172 172
173 173 173
186 186 186
187 187 187
176 176 176
157 157 157
152 152 152
161 161 161
174 174 174
178 178 178
173 173 173
185 185 185
185 185 185
193 193 193
197 197 197
201 201 201
224 224 224
228 228 228
207 207 207
180 180 180
152 152 152
123 123 123
134 134 134
149 149 149
156 156 156
155 155 155
171 171 171
185 185 185
187 187 187
177 177 177
159 159 159
178 178 178
207 207 207
235 235 235
240 240 240
212 212 212
183 183 183
154 154 154
158 158 158
173 173 173
201 201 201
227 227 227
235 235 235
213 213 213
185 185 185
175 175 175
203 203 203
228 228 228
231 231 231
209 209 209
181 181 181
162 162 162
173 173 173
174 174 174
165 165 165
148 148 148
161 161 161
172 172 172
186 186 186
191 191 191
184 184 184
166 166 166
179 179 179
195 195 195
198 198 198
188 188 188
199 199 199
201 201 201
188 188 188
175 175 175
161 161 161
142 142 142
127 127 127
136 136 136
143 143 143
159 159 159
182 182 182
198 198 198
201 201 201
189 189 189
168 168 168
170 170 170
195 195 195
215 215 215
217 217 217
200 200 200
175 175 175
149 149 149
152 152 152
172 172 172
201 201 201
226 226 226
233 233 233
212 212 212
184 184 184
174 174 174
201 201 201
223 223 223
226 226 226
206 206 206
179 179 179
151 151 151
153 153 153
154 154 154
147 147 147
144 144 144
162 162 162
173 173 173
187 187 187
192 192 192
184 184 184
166 166 166
169 169 169
183 183 183
186 186 186
177 177 177
176 176 176
197 197 197
208 208 208
202 202 202
183 183 183
159 159 159
146 146 146
156 156 156
158 158 158
159 159 159
182 182 182
197 197 197
200 200 200
188 188 188
168 168 168
162 162 162
174 174 174
187 187 187
188 188 188
177 177 177
158 158 158
151 151 151
141 141 141
162 162 162
186 186 186
203 203 203
207 207 207
194 194 194
178 178 178
186 186 186
185 185 185
200 200 200
201 201 201
188 188 188
167 167 167
154 154 154
166 166 166
170 170 170
163 163 163
149 149 149
154 154 154
164 164 164
175 175 175
180 180 180
173 173 173
157 157 157
152 152 152
167 167 167
177 177 177
176 176 176
188 188 188
216 216 216
236 236 236
224 224 224
198 198 198
169 169 169
160 160 160
171 171 171
173 173 173
165 165 165
170 170 170
183 183 183
185 185 185
176 176 176
177 177 177
182 182 182
175 175 175
160 160 160
159 159 159
175 175 175
183 183 183
180 180 180
166 166 166
146 146 146
164 164 164
176 176 176
179 179 179
188 188 188
186 186 186
213 213 213
213 213 213
196 196 196
173 173 173
164 164 164
148 148 148
166 166 166
180 180 180
185 185 185
177 177 177
160 160 160
170 170 170
187 187 187
194 194 194
187 187 187
170 170 170
151 151 151
161 161 161
181 181 181
193 193 193
192 192 192
189 189 189
218 218 218
240 240 240
227 227 227
199 199 199
170 170 170
166 166 166
178 178 178
181 181 181
172 172 172
174 174 174
180 180 180
174 174 174
171 171 171
187 187 187
193 193 193
186 186 186
168 168 168
178 178 178
200 200 200
213 213 213
207 207 207
187 187 187
162 162 162
138 138 138
158 158 158
175 175 175
185 185 185
196 196 196
235 235 235
235 235 235
208 208 208
179 179 179
156 156 156
150 150 150
169 169 169
184 184 184
189 189 189
181 181 181
163 163 163
187 187 187
210 210 210
221 221 221
210 210 210
187 187 187
160 160 160
163 163 163
184 184 184
197 197 197
197 197 197
183 183 183
200 200 200
212 212 212
206 206 206
186 186 186
161 161 161
162 162 162
174 174 174
176 176 176
181 181 181
201 201 201
209 209 209
199 199 199
179 179 179
186 186 186
192 192 192
185 185 185
171 171 171
189 189 189
217 217 217
241 241 241
228 228 228
200 200 200
171 171 171
142 142 142
147 147 147
162 162 162
181 181 181
209 209 209
226 226 226
226 226 226
204 204 204
177 177 177
150 150 150
145 145 145
162 162 162
176 176 176
180 180 180
173 173 173
174 174 174
193 193 193
220 220 220
237 237 237
220 220 220
193 193 193
165 165 165
157 157 157
176 176 176
188 188 188
187 187 187
175 175 175
175 175 175
183 183 183
179 179 179
165 165 165
145 145 145
150 150 150
161 161 161
165 165 165
194 194 194
221 221 221
236 236 236
219 219 219
192 192 192
173 173 173
178 178 178
181 181 181
172 172 172
188 188 188
215 215 215
236 236 236
225 225 225
199 199 199
170 170 170
144 144 144
146 146 146
157 157 157
182 182 182
204 204 204
200 200 200
200 200 200
186 186 186
164 164 164
152 152 152
150 150 150
148 148 148
159 159 159
182 182 182
198 198 198
202 202 202
190 190 190
209 209 209
220 220 220
209 209 209
186 186 186
160 160 160
143 143 143
159 159 159
168 168 168
168 168 168
158 158 158
148 148 148
153 153 153
151 151 151
140 140 140
147 147 147
158 158 158
162 162 162
166 166 166
194 194 194
221 221 221
237 237 237
219 219 219
192 192 192
163 163 163
168 168 168
171 171 171
163 163 163
175 175 175
196 196 196
207 207 207
214 214 214
205 205 205
184 184 184
158 158 158
162 162 162
160 160 160
173 173 173
191 191 191
172 172 172
172 172 172
162 162 162
172 172 172
180 180 180
177 177 177
164 164 164
170 170 170
197 197 197
220 220 220
226 226 226
208 208 208
200 200 200
199 199 199
186 186 186
169 169 169
171 171 171
164 164 164
150 150 150
158 158 158
157 157 157
148 148 148
138 138 138
131 131 131
122 122 122
142 142 142
162 162 162
176 176 176
180 180 180
173 173 173
181 181 181
202 202 202
210 210 210
200 200 200
180 180 180
154 154 154
151 151 151
153 153 153
147 147 147
162 162 162
191 191 191
217 217 217
233 233 233
219 219 219
193 193 193
165 165 165
169 169 169
185 185 185
192 192 192
186 186 186
143 143 143
148 148 148
173 173 173
194 194 194
206 206 206
201 201 201
183 183 183
172 172 172
200 200 200
225 225 225
231 231 231
211 211 211
227 227 227
225 225 225
202 202 202
195 195 195
199 199 199
190 190 190
170 170 170
162 162 162
161 161 161
152 152 152
135 135 135
123 123 123
131 131 131
148 148 148
169 169 169
184 184 184
189 189 189
181 181 181
164 164 164
176 176 176
181 181 181
175 175 175
168 168 168
165 165 165
153 153 153
137 137 137
131 131 131
160 160 160
187 187 187
210 210 210
223 223 223
212 212 212
189 189 189
162 162 162
186 186 186
209 209 209
221 221 221
210 210 210
132 132 132
155 155 155
183 183 183
208 208 208
225 225 225
218 218 218
195 195 195
168 168 168
188 188 188
206 206 206
210 210 210
210 210 210
237 237 237
234 234 234
207 207 207
217 217 217
225 225 225
209 209 209
184 184 184
157 157 157
157 157 157
159 159 159
153 153 153
147 147 147
157 157 157
159 159 159
166 166 166
181 181 181
186 186 186
178 178 178
161 161 161
148 148 148
162 162 162
179 179 179
187 187 187
183 183 183
169 169 169
148 148 148
138 138 138
148 148 148
171 171 171
189 189 189
197 197 197
191 191 191
173 173 173
165 165 165
194 194 194
223 223 223
244 244 244
224 224 224
141 141 141
162 162 162
181 181 181
205 205 205
221 221 221
214 214 214
192 192 192
166 166 166
167 167 167
180 180 180
182 182 182
198 198 198
215 215 215
213 213 213
197 197 197
223 223 223
233 233 233
214 214 214
187 187 187
164 164 164
178 178 178
181 181 181
173 173 173
168 168 168
181 181 181
183 183 183
174 174 174
168 168 168
171 171 171
165 165 165
150 150 150
145 145 145
168 168 168
187 187 187
197 197 197
192 192 192
176 176 176
153 153 153
145 145 145
139 139 139
150 150 150
164 164 164
169 169 169
164 164 164
151 151 151
161 161 161
188 188 188
213 213 213
226 226 226
214 214 214
142 142 142
164 164 164
180 180 180
188 188 188
198 198 198
194 194 194
178 178 178
155 155 155
142 142 142
152 152 152
156 156 156
175 175 175
187 187 187
186 186 186
187 187 187
206 206 206
212 212 212
200 200 200
178 178 178
176 176 176
192 192 192
196 196 196
186 186 186
183 183 183
199 199 199
202 202 202
190 190 190
169 169 169
171 171 171
171 171 171
162 162 162
156 156 156
175 175 175
187 187 187
192 192 192
188 188 188
172 172 172
153 153 153
148 148 148
139 139 139
142 142 142
162 162 162
175 175 175
179 179 179
174 174 174
176 176 176
172 172 172
190 190 190
198 198 198
191 191 191
136 136 136
156 156 156
171 171 171
177 177 177
172 172 172
169 169 169
157 157 157
138 138 138
131 131 131
132 132 132
144 144 144
155 155 155
159 159 159
157 157 157
167 167 167
181 181 181
185 185 185
177 177 177
160 160 160
177 177 177
193 193 193
197 197 197
187 187 187
187 187 187
205 205 205
208 208 208
195 195 195
175 175 175
187 187 187
187 187 187
176 176 176
170 170 170
193 193 193
209 209 209
209 209 209
192 192 192
168 168 168
160 160 160
154 154 154
142 142 142
157 157 157
181 181 181
199 199 199
204 204 204
199 199 199
202 202 202
190 190 190
169 169 169
168 168 168
164 164 164
123 123 123
141 141 141
156 156 156
164 164 164
163 163 163
153 153 153
139 139 139
150 150 150
160 160 160
161 161 161
168 168 168
183 183 183
188 188 188
181 181 181
164 164 164
173 173 173
173 173 173
163 163 163
147 147 147
168 168 168
182 182 182
185 185 185
177 177 177
179 179 179
195 195 195
197 197 197
186 186 186
179 179 179
192 192 192
193 193 193
180 180 180
175 175 175
200 200 200
219 219 219
218 218 218
199 199 199
173 173 173
157 157 157
152 152 152
157 157 157
164 164 164
191 191 191
213 213 213
222 222 222
218 218 218
223 223 223
206 206 206
180 180 180
152 152 152
144 144 144
122 122 122
140 140 140
152 152 152
160 160 160
159 159 159
149 149 149
155 155 155
175 175 175
189 189 189
190 190 190
188 188 188
209 209 209
217 217 217
205 205 205
186 186 186
199 199 199
199 199 199
185 185 185
163 163 163
151 151 151
162 162 162
164 164 164
172 172 172
174 174 174
174 174 174
176 176 176
183 183 183
192 192 192
188 188 188
184 184 184
173 173 173
169 169 169
192 192 192
207 207 207
206 206 206
191 191 191
167 167 167
151 151 151
171 171 171
184 184 184
186 186 186
189 189 189
210 210 210
218 218 218
219 219 219
224 224 224
206 206 206
180 180 180
181 181 181
170 170 170
128 128 128
147 147 147
160 160 160
165 165 165
161 161 161
151 151 151
170 170 170
196 196 196
216 216 216
219 219 219
202 202 202
227 227 227
244 244 244
221 221 221
201 201 201
220 220 220
219 219 219
200 200 200
174 174 174
146 146 146
161 161 161
184 184 184
200 200 200
203 203 203
190 190 190
181 181 181
205 205 205
219 219 219
212 212 212
191 191 191
165 165 165
154 154 154
173 173 173
184 184 184
184 184 184
172 172 172
153 153 153
166 166 166
191 191 191
209 209 209
213 213 213
198 198 198
191 191 191
196 196 196
200 200 200
203 203 203
192 192 192
208 208 208
208 208 208
192 192 192
127 127 127
146 146 146
159 159 159
164 164 164
160 160 160
149 149 149
177 177 177
206 206 206
235 235 235
242 242 242
214 214 214
220 220 220
231 231 231
215 215 215
202 202 202
222 222 222
221 221 221
201 201 201
174 174 174
146 146 146
173 173 173
201 201 201
225 225 225
230 230 230
209 209 209
188 188 188
215 215 215
236 236 236
225 225 225
198 198 198
170 170 170
141 141 141
149 149 149
158 158 158
157 157 157
149 149 149
144 144 144
173 173 173
201 201 201
225 225 225
230 230 230
209 209 209
182 182 182
170 170 170
174 174 174
178 178 178
206 206 206
229 229 229
230 230 230
206 206 206
120 120 120
138 138 138
150 150 150
154 154 154
150 150 150
145 145 145
173 173 173
200 200 200
223 223 223
227 227 227
207 207 207
196 196 196
202 202 202
193 193 193
188 188 188
203 203 203
202 202 202
187 187 187
165 165 165
146 146 146
175 175 175
204 204 204
231 231 231
238 238 238
213 213 213
192 192 192
206 206 206
221 221 221
213 213 213
192 192 192
165 165 165
137 137 137
144 144 144
146 146 146
141 141 141
135 135 135
142 142 142
169 169 169
195 195 195
216 216 216
220 220 220
203 203 203
197 197 197
189 189 189
171 171 171
177 177 177
204 204 204
226 226 226
227 227 227
205 205 205
131 131 131
134 134 134
134 134 134
137 137 137
136 136 136
137 137 137
160 160 160
182 182 182
197 197 197
199 199 199
187 187 187
169 169 169
173 173 173
167 167 167
179 179 179
186 186 186
181 181 181
166 166 166
148 148 148
139 139 139
166 166 166
191 191 191
210 210 210
213 213 213
199 199 199
187 187 187
197 197 197
194 194 194
189 189 189
174 174 174
152 152 152
160 160 160
172 172 172
176 176 176
168 168 168
153 153 153
157 157 157
157 157 157
178 178 178
193 193 193
195 195 195
215 215 215
226 226 226
212 212 212
187 187 187
165 165 165
188 188 188
202 202 202
203 203 203
188 188 188
138 138 138
141 141 141
136 136 136
152 152 152
162 162 162
164 164 164
156 156 156
158 158 158
170 170 170
181 181 181
182 182 182
171 171 171
176 176 176
182 182 182
204 204 204
216 216 216
207 207 207
186 186 186
160 160 160
133 133 133
150 150 150
170 170 170
183 183 183
185 185 185
175 175 175
170 170 170
179 179 179
176 176 176
163 163 163
151 151 151
159 159 159
182 182 182
200 200 200
205 205 205
193 193 193
173 173 173
169 169 169
164 164 164
155 155 155
168 168 168
197 197 197
226 226 226
247 247 247
222 222 222
193 193 193
164 164 164
173 173 173
191 191 191
197 197 197
189 189 189
138 138 138
140 140 140
152 152 152
172 172 172
185 185 185
187 187 187
177 177 177
176 176 176
192 192 192
209 209 209
209 209 209
193 193 193
179 179 179
193 193 193
221 221 221
244 244 244
226 226 226
197 197 197
168 168 168
139 139 139
134 134 134
158 158 158
179 179 179
192 192 192
193 193 193
181 181 181
168 168 168
164 164 164
152 152 152
141 141 141
170 170 170
198 198 198
224 224 224
233 233 233
213 213 213
186 186 186
172 172 172
166 166 166
155 155 155
162 162 162
189 189 189
212 212 212
222 222 222
209 209 209
185 185 185
162 162 162
189 189 189
213 213 213
223 223 223
211 211 211
130 130 130
136 136 136
162 162 162
185 185 185
201 201 201
204 204 204
191 191 191
200 200 200
206 206 206
230 230 230
232 232 232
208 208 208
180 180 180
190 190 190
217 217 217
234 234 234
221 221 221
194 194 194
166 166 166
137 137 137
140 140 140
166 166 166
190 190 190
206 206 206
208 208 208
193 193 193
197 197 197
192 192 192
175 175 175
152 152 152
172 172 172
201 201 201
229 229 229
241 241 241
217 217 217
188 188 188
164 164 164
167 167 167
166 166 166
156 156 156
171 171 171
187 187 187
193 193 193
185 185 185
168 168 168
166 166 166
194 194 194
221 221 221
235 235 235
218 218 218
