P3
50 50
255
98 98 98
104 104 104
114 114 114
136 136 136
155 155 155
167 167 167
170 170 170
164 164 164
149 149 149
158 158 158
171 171 171
174 174 174
167 167 167
170 170 170
190 190 190
199 199 199
194 194 194
178 178 178
155 155 155
129 129 129
142 142 142
150 150 150
150 150 150
142 142 142
136 136 136
149 149 149
154 154 154
151 151 151
150 150 150
179 179 179
207 207 207
233 233 233
233 233 233
208 208 208
179 179 179
155 155 155
173 173 173
183 183 183
182 182 182
170 170 170
151 151 151
128 128 128
144 144 144
163 163 163
175 175 175
177 177 177
169 169 169
152 152 152
139 139 139
127 127 127
104 104 104
111 111 111
129 129 129
155 155 155
178 178 178
195 195 195
200 200 200
190 190 190
170 170 170
160 160 160
173 173 173
177 177 177
169 169 169
180 180 180
203 203 203
215 215 215
209 209 209
188 188 188
163 163 163
149 149 149
167 167 167
177 177 177
178 178 178
167 167 167
149 149 149
152 152 152
158 158 158
155 155 155
148 148 148
177 177 177
204 204 204
226 226 226
226 226 226
204 204 204
177 177 177
165 165 165
186 186 186
199 199 199
198 198 198
183 183 183
161 161 161
136 136 136
148 148 148
167 167 167
180 180 180
182 182 182
173 173 173
157 157 157
150 150 150
146 146 146
105 105 105
111 111 111
139 139 139
167 167 167
195 195 195
219 219 219
229 229 229
212 212 212
186 186 186
158 158 158
165 165 165
168 168 168
162 162 162
178 178 178
201 201 201
213 213 213
206 206 206
186 186 186
161 161 161
165 165 165
188 188 188
202 202 202
203 203 203
188 188 188
166 166 166
152 152 152
153 153 153
150 150 150
139 139 139
164 164 164
186 186 186
201 201 201
201 201 201
187 187 187
165 165 165
167 167 167
188 188 188
202 202 202
200 200 200
185 185 185
162 162 162
149 149 149
158 158 158
162 162 162
174 174 174
176 176 176
167 167 167
165 165 165
175 175 175
175 175 175
100 100 100
117 117 117
142 142 142
171 171 171
200 200 200
230 230 230
248 248 248
220 220 220
190 190 190
161 161 161
149 149 149
152 152 152
146 146 146
166 166 166
185 185 185
194 194 194
189 189 189
173 173 173
151 151 151
174 174 174
200 200 200
220 220 220
220 220 220
200 200 200
175 175 175
166 166 166
165 165 165
155 155 155
138 138 138
145 145 145
163 163 163
173 173 173
173 173 173
163 163 163
148 148 148
159 159 159
178 178 178
189 189 189
188 188 188
175 175 175
155 155 155
155 155 155
164 164 164
164 164 164
158 158 158
160 160 160
166 166 166
188 188 188
204 204 204
204 204 204
102 102 102
118 118 118
143 143 143
165 165 165
191 191 191
213 213 213
220 220 220
206 206 206
182 182 182
180 180 180
169 169 169
150 150 150
128 128 128
147 147 147
162 162 162
168 168 168
165 165 165
153 153 153
145 145 145
173 173 173
198 198 198
216 216 216
216 216 216
198 198 198
173 173 173
171 171 171
170 170 170
159 159 159
142 142 142
127 127 127
138 138 138
144 144 144
144 144 144
146 146 146
146 146 146
143 143 143
159 159 159
168 168 168
167 167 167
157 157 157
140 140 140
152 152 152
161 161 161
161 161 161
152 152 152
149 149 149
178 178 178
206 206 206
230 230 230
231 231 231
129 129 129
129 129 129
137 137 137
157 157 157
171 171 171
187 187 187
191 191 191
194 194 194
209 209 209
209 209 209
192 192 192
168 168 168
142 142 142
146 146 146
158 158 158
161 161 161
156 156 156
142 142 142
137 137 137
161 161 161
182 182 182
196 196 196
196 196 196
183 183 183
183 183 183
179 179 179
165 165 165
155 155 155
138 138 138
152 152 152
164 164 164
168 168 168
163 163 163
149 149 149
139 139 139
150 150 150
168 168 168
177 177 177
176 176 176
165 165 165
147 147 147
142 142 142
150 150 150
150 150 150
142 142 142
150 150 150
179 179 179
208 208 208
236 236 236
237 237 237
155 155 155
155 155 155
147 147 147
142 142 142
154 154 154
159 159 159
181 181 181
209 209 209
235 235 235
233 233 233
207 207 207
178 178 178
161 161 161
151 151 151
160 160 160
164 164 164
158 158 158
146 146 146
138 138 138
149 149 149
160 160 160
170 170 170
177 177 177
200 200 200
212 212 212
206 206 206
186 186 186
161 161 161
150 150 150
172 172 172
189 189 189
194 194 194
187 187 187
169 169 169
146 146 146
169 169 169
191 191 191
205 205 205
203 203 203
187 187 187
164 164 164
139 139 139
133 133 133
135 135 135
130 130 130
143 143 143
170 170 170
194 194 194
212 212 212
218 218 218
179 179 179
179 179 179
168 168 168
150 150 150
133 133 133
151 151 151
180 180 180
209 209 209
234 234 234
232 232 232
206 206 206
192 192 192
189 189 189
175 175 175
160 160 160
174 174 174
179 179 179
173 173 173
158 158 158
143 143 143
149 149 149
160 160 160
188 188 188
217 217 217
239 239 239
226 226 226
199 199 199
173 173 173
161 161 161
186 186 186
207 207 207
215 215 215
204 204 204
182 182 182
156 156 156
180 180 180
207 207 207
228 228 228
225 225 225
202 202 202
175 175 175
168 168 168
159 159 159
155 155 155
149 149 149
136 136 136
153 153 153
173 173 173
200 200 200
223 223 223
197 197 197
197 197 197
183 183 183
162 162 162
137 137 137
143 143 143
169 169 169
192 192 192
207 207 207
206 206 206
203 203 203
219 219 219
214 214 214
194 194 194
181 181 181
200 200 200
207 207 207
198 198 198
178 178 178
153 153 153
135 135 135
159 159 159
187 187 187
214 214 214
234 234 234
224 224 224
204 204 204
201 201 201
184 184 184
188 188 188
211 211 211
220 220 220
207 207 207
184 184 184
157 157 157
180 180 180
207 207 207
229 229 229
226 226 226
202 202 202
195 195 195
196 196 196
184 184 184
169 169 169
162 162 162
148 148 148
149 149 149
165 165 165
188 188 188
205 205 205
203 203 203
203 203 203
188 188 188
166 166 166
140 140 140
128 128 128
150 150 150
168 168 168
178 178 178
185 185 185
213 213 213
237 237 237
229 229 229
202 202 202
193 193 193
219 219 219
232 232 232
216 216 216
190 190 190
161 161 161
133 133 133
149 149 149
174 174 174
195 195 195
206 206 206
211 211 211
233 233 233
226 226 226
201 201 201
179 179 179
197 197 197
204 204 204
194 194 194
175 175 175
158 158 158
169 169 169
192 192 192
206 206 206
204 204 204
199 199 199
220 220 220
223 223 223
204 204 204
178 178 178
167 167 167
151 151 151
152 152 152
152 152 152
168 168 168
188 188 188
193 193 193
193 193 193
181 181 181
160 160 160
136 136 136
113 113 113
132 132 132
155 155 155
174 174 174
186 186 186
205 205 205
221 221 221
216 216 216
195 195 195
193 193 193
219 219 219
232 232 232
216 216 216
190 190 190
161 161 161
133 133 133
133 133 133
154 154 154
170 170 170
186 186 186
215 215 215
241 241 241
232 232 232
203 203 203
174 174 174
174 174 174
179 179 179
172 172 172
158 158 158
166 166 166
164 164 164
169 169 169
178 178 178
177 177 177
205 205 205
232 232 232
236 236 236
211 211 211
182 182 182
162 162 162
147 147 147
147 147 147
149 149 149
160 160 160
181 181 181
179 179 179
176 176 176
164 164 164
146 146 146
142 142 142
141 141 141
145 145 145
172 172 172
196 196 196
214 214 214
213 213 213
205 205 205
194 194 194
176 176 176
180 180 180
200 200 200
207 207 207
198 198 198
177 177 177
152 152 152
133 133 133
139 139 139
137 137 137
150 150 150
176 176 176
200 200 200
215 215 215
210 210 210
191 191 191
166 166 166
148 148 148
152 152 152
147 147 147
157 157 157
164 164 164
164 164 164
178 178 178
184 184 184
177 177 177
196 196 196
215 215 215
217 217 217
200 200 200
175 175 175
148 148 148
135 135 135
143 143 143
162 162 162
178 178 178
185 185 185
169 169 169
167 167 167
155 155 155
162 162 162
170 170 170
169 169 169
158 158 158
180 180 180
209 209 209
235 235 235
234 234 234
208 208 208
189 189 189
170 170 170
166 166 166
178 178 178
179 179 179
173 173 173
157 157 157
137 137 137
143 143 143
150 150 150
148 148 148
144 144 144
172 172 172
197 197 197
215 215 215
216 216 216
198 198 198
173 173 173
146 146 146
136 136 136
154 154 154
166 166 166
170 170 170
177 177 177
195 195 195
202 202 202
193 193 193
181 181 181
189 189 189
190 190 190
178 178 178
159 159 159
136 136 136
129 129 129
156 156 156
182 182 182
204 204 204
214 214 214
151 151 151
149 149 149
165 165 165
185 185 185
196 196 196
194 194 194
180 180 180
177 177 177
204 204 204
225 225 225
225 225 225
203 203 203
176 176 176
158 158 158
179 179 179
193 193 193
194 194 194
182 182 182
162 162 162
151 151 151
157 157 157
153 153 153
152 152 152
148 148 148
176 176 176
203 203 203
226 226 226
226 226 226
205 205 205
178 178 178
149 149 149
142 142 142
161 161 161
175 175 175
178 178 178
180 180 180
199 199 199
206 206 206
197 197 197
177 177 177
183 183 183
178 178 178
163 163 163
143 143 143
119 119 119
135 135 135
164 164 164
193 193 193
222 222 222
243 243 243
129 129 129
150 150 150
177 177 177
201 201 201
218 218 218
214 214 214
195 195 195
169 169 169
186 186 186
199 199 199
199 199 199
185 185 185
163 163 163
160 160 160
182 182 182
196 196 196
198 198 198
185 185 185
164 164 164
163 163 163
169 169 169
165 165 165
164 164 164
164 164 164
170 170 170
194 194 194
211 211 211
212 212 212
195 195 195
171 171 171
145 145 145
140 140 140
160 160 160
173 173 173
176 176 176
172 172 172
189 189 189
195 195 195
187 187 187
169 169 169
167 167 167
163 163 163
150 150 150
132 132 132
110 110 110
134 134 134
163 163 163
191 191 191
218 218 218
236 236 236
137 137 137
151 151 151
179 179 179
204 204 204
222 222 222
218 218 218
197 197 197
180 180 180
181 181 181
196 196 196
199 199 199
187 187 187
174 174 174
179 179 179
173 173 173
186 186 186
187 187 187
176 176 176
157 157 157
165 165 165
172 172 172
168 168 168
173 173 173
173 173 173
163 163 163
175 175 175
187 187 187
187 187 187
175 175 175
156 156 156
133 133 133
132 132 132
149 149 149
161 161 161
164 164 164
158 158 158
169 169 169
173 173 173
168 168 168
153 153 153
146 146 146
142 142 142
132 132 132
132 132 132
133 133 133
127 127 127
153 153 153
177 177 177
197 197 197
206 206 206
165 165 165
165 165 165
170 170 170
191 191 191
205 205 205
202 202 202
186 186 186
193 193 193
189 189 189
205 205 205
207 207 207
194 194 194
199 199 199
206 206 206
196 196 196
177 177 177
167 167 167
158 158 158
145 145 145
159 159 159
164 164 164
161 161 161
171 171 171
171 171 171
161 161 161
150 150 150
159 159 159
159 159 159
151 151 151
136 136 136
131 131 131
130 130 130
149 149 149
161 161 161
166 166 166
160 160 160
147 147 147
148 148 148
144 144 144
132 132 132
132 132 132
134 134 134
150 150 150
160 160 160
161 161 161
154 154 154
158 158 158
174 174 174
183 183 183
179 179 179
193 193 193
193 193 193
180 180 180
170 170 170
179 179 179
178 178 178
183 183 183
193 193 193
189 189 189
197 197 197
199 199 199
191 191 191
216 216 216
227 227 227
213 213 213
188 188 188
160 160 160
150 150 150
142 142 142
144 144 144
149 149 149
151 151 151
160 160 160
160 160 160
151 151 151
136 136 136
138 138 138
142 142 142
156 156 156
162 162 162
159 159 159
147 147 147
169 169 169
185 185 185
190 190 190
183 183 183
169 169 169
158 158 158
144 144 144
152 152 152
151 151 151
154 154 154
174 174 174
188 188 188
190 190 190
179 179 179
175 175 175
197 197 197
208 208 208
203 203 203
218 218 218
218 218 218
199 199 199
174 174 174
172 172 172
175 175 175
172 172 172
180 180 180
177 177 177
178 178 178
180 180 180
191 191 191
215 215 215
226 226 226
212 212 212
187 187 187
165 165 165
165 165 165
156 156 156
139 139 139
131 131 131
134 134 134
142 142 142
148 148 148
147 147 147
143 143 143
141 141 141
163 163 163
181 181 181
189 189 189
184 184 184
169 169 169
181 181 181
201 201 201
209 209 209
199 199 199
192 192 192
178 178 178
170 170 170
180 180 180
179 179 179
168 168 168
193 193 193
213 213 213
216 216 216
200 200 200
184 184 184
209 209 209
226 226 226
218 218 218
229 229 229
229 229 229
206 206 206
179 179 179
186 186 186
189 189 189
180 180 180
162 162 162
157 157 157
160 160 160
181 181 181
195 195 195
196 196 196
203 203 203
194 194 194
175 175 175
171 171 171
171 171 171
161 161 161
144 144 144
136 136 136
139 139 139
154 154 154
162 162 162
162 162 162
164 164 164
158 158 158
178 178 178
200 200 200
212 212 212
205 205 205
185 185 185
183 183 183
204 204 204
212 212 212
208 208 208
206 206 206
190 190 190
192 192 192
207 207 207
205 205 205
189 189 189
202 202 202
227 227 227
232 232 232
210 210 210
182 182 182
205 205 205
219 219 219
213 213 213
214 214 214
214 214 214
197 197 197
174 174 174
189 189 189
193 193 193
183 183 183
164 164 164
146 146 146
171 171 171
196 196 196
215 215 215
216 216 216
199 199 199
175 175 175
158 158 158
168 168 168
168 168 168
158 158 158
141 141 141
134 134 134
144 144 144
160 160 160
169 169 169
176 176 176
180 180 180
172 172 172
183 183 183
208 208 208
222 222 222
214 214 214
191 191 191
187 187 187
194 194 194
198 198 198
207 207 207
205 205 205
189 189 189
206 206 206
226 226 226
224 224 224
202 202 202
195 195 195
216 216 216
219 219 219
202 202 202
177 177 177
186 186 186
196 196 196
196 196 196
188 188 188
188 188 188
176 176 176
167 167 167
180 180 180
183 183 183
186 186 186
184 184 184
170 170 170
172 172 172
198 198 198
218 218 218
220 220 220
201 201 201
176 176 176
149 149 149
155 155 155
164 164 164
168 168 168
163 163 163
149 149 149
141 141 141
157 157 157
167 167 167
182 182 182
185 185 185
177 177 177
177 177 177
198 198 198
210 210 210
203 203 203
187 187 187
210 210 210
222 222 222
212 212 212
191 191 191
190 190 190
177 177 177
203 203 203
223 223 223
221 221 221
200 200 200
177 177 177
191 191 191
193 193 193
182 182 182
172 172 172
178 178 178
174 174 174
176 176 176
160 160 160
160 160 160
174 174 174
181 181 181
176 176 176
199 199 199
213 213 213
209 209 209
190 190 190
165 165 165
186 186 186
201 201 201
202 202 202
189 189 189
167 167 167
150 150 150
173 173 173
190 190 190
196 196 196
188 188 188
170 170 170
147 147 147
145 145 145
162 162 162
176 176 176
179 179 179
172 172 172
161 161 161
178 178 178
186 186 186
181 181 181
194 194 194
222 222 222
242 242 242
223 223 223
195 195 195
166 166 166
165 165 165
187 187 187
200 200 200
199 199 199
184 184 184
162 162 162
164 164 164
167 167 167
160 160 160
164 164 164
170 170 170
170 170 170
180 180 180
153 153 153
179 179 179
200 200 200
210 210 210
203 203 203
212 212 212
234 234 234
226 226 226
201 201 201
173 173 173
165 165 165
177 177 177
177 177 177
168 168 168
150 150 150
161 161 161
188 188 188
210 210 210
220 220 220
208 208 208
185 185 185
158 158 158
131 131 131
149 149 149
160 160 160
163 163 163
160 160 160
177 177 177
185 185 185
181 181 181
166 166 166
187 187 187
211 211 211
223 223 223
212 212 212
188 188 188
161 161 161
147 147 147
163 163 163
173 173 173
172 172 172
161 161 161
147 147 147
158 158 158
161 161 161
155 155 155
148 148 148
153 153 153
170 170 170
179 179 179
162 162 162
191 191 191
219 219 219
239 239 239
224 224 224
207 207 207
224 224 224
219 219 219
197 197 197
170 170 170
152 152 152
149 149 149
150 150 150
143 143 143
136 136 136
164 164 164
192 192 192
217 217 217
229 229 229
214 214 214
189 189 189
161 161 161
151 151 151
144 144 144
139 139 139
145 145 145
168 168 168
187 187 187
196 196 196
191 191 191
175 175 175
170 170 170
187 187 187
194 194 194
188 188 188
171 171 171
148 148 148
128 128 128
137 137 137
144 144 144
144 144 144
140 140 140
154 154 154
159 159 159
156 156 156
145 145 145
130 130 130
144 144 144
160 160 160
168 168 168
162 162 162
191 191 191
219 219 219
238 238 238
223 223 223
196 196 196
199 199 199
204 204 204
205 205 205
191 191 191
169 169 169
143 143 143
133 133 133
144 144 144
147 147 147
158 158 158
183 183 183
204 204 204
212 212 212
202 202 202
180 180 180
166 166 166
167 167 167
159 159 159
143 143 143
143 143 143
166 166 166
185 185 185
193 193 193
188 188 188
173 173 173
151 151 151
160 160 160
165 165 165
161 161 161
148 148 148
130 130 130
145 145 145
154 154 154
161 161 161
165 165 165
163 163 163
180 180 180
188 188 188
183 183 183
168 168 168
147 147 147
148 148 148
142 142 142
149 149 149
169 169 169
178 178 178
199 199 199
210 210 210
202 202 202
183 183 183
200 200 200
222 222 222
225 225 225
205 205 205
179 179 179
151 151 151
157 157 157
171 171 171
175 175 175
169 169 169
165 165 165
180 180 180
192 192 192
196 196 196
186 186 186
174 174 174
175 175 175
166 166 166
151 151 151
134 134 134
155 155 155
171 171 171
178 178 178
174 174 174
161 161 161
159 159 159
171 171 171
173 173 173
164 164 164
148 148 148
139 139 139
156 156 156
172 172 172
189 189 189
195 195 195
187 187 187
202 202 202
214 214 214
207 207 207
187 187 187
164 164 164
166 166 166
158 158 158
153 153 153
194 194 194
207 207 207
202 202 202
185 185 185
176 176 176
172 172 172
199 199 199
219 219 219
222 222 222
203 203 203
177 177 177
154 154 154
178 178 178
195 195 195
202 202 202
193 193 193
173 173 173
190 190 190
210 210 210
215 215 215
201 201 201
184 184 184
193 193 193
190 190 190
175 175 175
153 153 153
158 158 158
170 170 170
172 172 172
164 164 164
157 157 157
179 179 179
194 194 194
197 197 197
186 186 186
166 166 166
141 141 141
163 163 163
190 190 190
213 213 213
224 224 224
211 211 211
214 214 214
232 232 232
221 221 221
196 196 196
173 173 173
175 175 175
167 167 167
173 173 173
213 213 213
235 235 235
226 226 226
200 200 200
172 172 172
161 161 161
183 183 183
198 198 198
200 200 200
187 187 187
166 166 166
164 164 164
190 190 190
213 213 213
223 223 223
209 209 209
185 185 185
192 192 192
212 212 212
218 218 218
203 203 203
206 206 206
223 223 223
216 216 216
194 194 194
167 167 167
161 161 161
169 169 169
171 171 171
164 164 164
166 166 166
191 191 191
210 210 210
214 214 214
199 199 199
176 176 176
150 150 150
168 168 168
197 197 197
227 227 227
252 252 252
223 223 223
207 207 207
221 221 221
213 213 213
191 191 191
173 173 173
176 176 176
185 185 185
186 186 186
216 216 216
240 240 240
229 229 229
202 202 202
173 173 173
164 164 164
161 161 161
172 172 172
173 173 173
164 164 164
147 147 147
164 164 164
191 191 191
214 214 214
224 224 224
210 210 210
185 185 185
180 180 180
197 197 197
201 201 201
190 190 190
218 218 218
247 247 247
232 232 232
203 203 203
173 173 173
165 165 165
164 164 164
161 161 161
156 156 156
166 166 166
191 191 191
209 209 209
213 213 213
198 198 198
175 175 175
178 178 178
172 172 172
190 190 190
214 214 214
226 226 226
212 212 212
187 187 187
195 195 195
190 190 190
174 174 174
175 175 175
197 197 197
211 211 211
207 207 207
199 199 199
213 213 213
208 208 208
193 193 193
199 199 199
190 190 190
171 171 171
148 148 148
146 146 146
149 149 149
145 145 145
155 155 155
179 179 179
197 197 197
203 203 203
194 194 194
184 184 184
200 200 200
203 203 203
191 191 191
183 183 183
209 209 209
226 226 226
219 219 219
196 196 196
169 169 169
160 160 160
159 159 159
173 173 173
184 184 184
185 185 185
178 178 178
193 193 193
195 195 195
184 184 184
197 197 197
204 204 204
196 196 196
176 176 176
190 190 190
196 196 196
188 188 188
170 170 170
167 167 167
164 164 164
154 154 154
183 183 183
209 209 209
229 229 229
223 223 223
175 175 175
183 183 183
193 193 193
217 217 217
227 227 227
212 212 212
187 187 187
159 159 159
159 159 159
163 163 163
158 158 158
145 145 145
159 159 159
173 173 173
177 177 177
173 173 173
201 201 201
225 225 225
232 232 232
210 210 210
183 183 183
187 187 187
197 197 197
193 193 193
177 177 177
155 155 155
147 147 147
170 170 170
194 194 194
211 211 211
212 212 212
195 195 195
179 179 179
185 185 185
190 190 190
213 213 213
224 224 224
211 211 211
186 186 186
162 162 162
167 167 167
161 161 161
153 153 153
143 143 143
136 136 136
152 152 152
179 179 179
204 204 204
220 220 220
216 216 216
175 175 175
175 175 175
198 198 198
226 226 226
243 243 243
220 220 220
191 191 191
162 162 162
164 164 164
168 168 168
172 172 172
173 173 173
163 163 163
146 146 146
149 149 149
175 175 175
204 204 204
233 233 233
242 242 242
215 215 215
186 186 186
191 191 191
192 192 192
180 180 180
160 160 160
146 146 146
149 149 149
178 178 178
206 206 206
231 231 231
232 232 232
208 208 208
180 180 180
170 170 170
188 188 188
211 211 211
221 221 221
209 209 209
185 185 185
158 158 158
158 158 158
164 164 164
162 162 162
150 150 150
164 164 164
168 168 168
165 165 165
185 185 185
196 196 196
193 193 193
173 173 173
172 172 172
188 188 188
210 210 210
219 219 219
206 206 206
183 183 183
156 156 156
163 163 163
185 185 185
200 200 200
201 201 201
188 188 188
166 166 166
145 145 145
167 167 167
192 192 192
212 212 212
216 216 216
200 200 200
196 196 196
215 215 215
216 216 216
199 199 199
174 174 174
147 147 147
147 147 147
175 175 175
202 202 202
223 223 223
224 224 224
204 204 204
177 177 177
152 152 152
175 175 175
193 193 193
200 200 200
191 191 191
173 173 173
149 149 149
157 157 157
164 164 164
161 161 161
173 173 173
191 191 191
197 197 197
190 190 190
185 185 185
171 171 171
167 167 167
160 160 160
160 160 160
169 169 169
185 185 185
190 190 190
182 182 182
165 165 165
147 147 147
176 176 176
203 203 203
227 227 227
229 229 229
207 207 207
180 180 180
151 151 151
151 151 151
171 171 171
184 184 184
187 187 187
195 195 195
203 203 203
226 226 226
228 228 228
206 206 206
179 179 179
151 151 151
145 145 145
163 163 163
184 184 184
199 199 199
199 199 199
186 186 186
164 164 164
150 150 150
155 155 155
168 168 168
173 173 173
167 167 167
153 153 153
140 140 140
157 157 157
172 172 172
178 178 178
190 190 190
214 214 214
226 226 226
216 216 216
212 212 212
193 193 193
167 167 167
142 142 142
141 141 141
146 146 146
157 157 157
162 162 162
159 159 159
148 148 148
149 149 149
178 178 178
208 208 208
236 236 236
240 240 240
212 212 212
183 183 183
153 153 153
130 130 130
150 150 150
178 178 178
204 204 204
223 223 223
221 221 221
212 212 212
213 213 213
197 197 197
173 173 173
156 156 156
162 162 162
159 159 159
161 161 161
171 171 171
171 171 171
162 162 162
147 147 147
160 160 160
173 173 173
176 176 176
168 168 168
153 153 153
151 151 151
144 144 144
164 164 164
180 180 180
186 186 186
196 196 196
225 225 225
245 245 245
241 241 241
233 233 233
205 205 205
175 175 175
133 133 133
153 153 153
167 167 167
173 173 173
181 181 181
178 178 178
165 165 165
145 145 145
170 170 170
195 195 195
214 214 214
215 215 215
199 199 199
174 174 174
147 147 147
133 133 133
153 153 153
183 183 183
212 212 212
241 241 241
237 237 237
208 208 208
188 188 188
177 177 177
158 158 158
166 166 166
172 172 172
169 169 169
156 156 156
142 142 142
142 142 142
138 138 138
148 148 148
169 169 169
183 183 183
186 186 186
178 178 178
177 177 177
179 179 179
171 171 171
161 161 161
176 176 176
182 182 182
188 188 188
211 211 211
221 221 221
231 231 231
225 225 225
201 201 201
173 173 173
150 150 150
174 174 174
193 193 193
201 201 201
194 194 194
188 188 188
173 173 173
156 156 156
154 154 154
174 174 174
186 186 186
187 187 187
181 181 181
181 181 181
170 170 170
152 152 152
149 149 149
177 177 177
202 202 202
221 221 221
219 219 219
199 199 199
173 173 173
152 152 152
158 158 158
166 166 166
173 173 173
169 169 169
156 156 156
137 137 137
129 129 129
144 144 144
153 153 153
167 167 167
181 181 181
185 185 185
185 185 185
203 203 203
207 207 207
194 194 194
173 173 173
164 164 164
174 174 174
175 175 175
186 186 186
193 193 193
203 203 203
200 200 200
184 184 184
171 171 171
160 160 160
187 187 187
212 212 212
226 226 226
214 214 214
190 190 190
172 172 172
174 174 174
168 168 168
154 154 154
169 169 169
192 192 192
209 209 209
209 209 209
193 193 193
170 170 170
146 146 146
161 161 161
181 181 181
193 193 193
192 192 192
179 179 179
158 158 158
169 169 169
182 182 182
184 184 184
175 175 175
160 160 160
164 164 164
164 164 164
155 155 155
143 143 143
151 151 151
157 157 157
169 169 169
172 172 172
198 198 198
223 223 223
229 229 229
210 210 210
183 183 183
167 167 167
178 178 178
178 178 178
168 168 168
165 165 165
173 173 173
172 172 172
172 172 172
167 167 167
162 162 162
190 190 190
216 216 216
231 231 231
218 218 218
193 193 193
179 179 179
184 184 184
177 177 177
161 161 161
179 179 179
207 207 207
233 233 233
234 234 234
209 209 209
180 180 180
168 168 168
160 160 160
155 155 155
164 164 164
163 163 163
154 154 154
174 174 174
189 189 189
200 200 200
204 204 204
191 191 191
178 178 178
190 190 190
191 191 191
178 178 178
158 158 158
164 164 164
174 174 174
173 173 173
187 187 187
209 209 209
221 221 221
227 227 227
209 209 209
183 183 183
160 160 160
170 170 170
171 171 171
161 161 161
145 145 145
144 144 144
153 153 153
158 158 158
154 154 154
154 154 154
179 179 179
200 200 200
210 210 210
202 202 202
182 182 182
177 177 177
182 182 182
175 175 175
160 160 160
178 178 178
206 206 206
231 231 231
232 232 232
207 207 207
192 192 192
194 194 194
182 182 182
163 163 163
139 139 139
139 139 139
167 167 167
193 193 193
213 213 213
219 219 219
210 210 210
196 196 196
196 196 196
213 213 213
214 214 214
196 196 196
172 172 172
179 179 179
191 191 191
191 191 191
197 197 197
226 226 226
245 245 245
221 221 221
192 192 192
171 171 171
166 166 166
181 181 181
185 185 185
177 177 177
161 161 161
145 145 145
143 143 143
138 138 138
135 135 135
141 141 141
162 162 162
178 178 178
184 184 184
178 178 178
170 170 170
183 183 183
185 185 185
175 175 175
157 157 157
167 167 167
190 190 190
206 206 206
206 206 206
193 193 193
211 211 211
214 214 214
198 198 198
175 175 175
148 148 148
143 143 143
171 171 171
200 200 200
225 225 225
233 233 233
212 212 212
187 187 187
202 202 202
222 222 222
223 223 223
202 202 202
176 176 176
184 184 184
198 198 198
197 197 197
193 193 193
219 219 219
231 231 231
215 215 215
189 189 189
161 161 161
175 175 175
191 191 191
196 196 196
187 187 187
169 169 169
173 173 173
171 171 171
160 160 160
141 141 141
156 156 156
182 182 182
203 203 203
213 213 213
205 205 205
192 192 192
211 211 211
214 214 214
198 198 198
175 175 175
149 149 149
167 167 167
177 177 177
177 177 177
195 195 195
215 215 215
218 218 218
201 201 201
177 177 177
149 149 149
139 139 139
166 166 166
192 192 192
213 213 213
218 218 218
203 203 203
179 179 179
192 192 192
209 209 209
209 209 209
193 193 193
170 170 170
178 178 178
190 190 190
189 189 189
177 177 177
195 195 195
202 202 202
193 193 193
174 174 174
162 162 162
173 173 173
189 189 189
194 194 194
185 185 185
190 190 190
202 202 202
199 199 199
182 182 182
160 160 160
164 164 164
193 193 193
222 222 222
243 243 243
224 224 224
205 205 205
233 233 233
240 240 240
213 213 213
184 184 184
155 155 155
168 168 168
172 172 172
166 166 166
184 184 184
200 200 200
202 202 202
189 189 189
168 168 168
143 143 143
133 133 133
152 152 152
174 174 174
188 188 188
191 191 191
182 182 182
182 182 182
179 179 179
185 185 185
185 185 185
173 173 173
155 155 155
162 162 162
171 171 171
171 171 171
161 161 161
168 168 168
172 172 172
166 166 166
177 177 177
179 179 179
170 170 170
175 175 175
179 179 179
182 182 182
208 208 208
227 227 227
222 222 222
198 198 198
171 171 171
163 163 163
192 192 192
219 219 219
237 237 237
221 221 221
202 202 202
227 227 227
232 232 232
210 210 210
182 182 182
155 155 155
165 165 165
169 169 169
163 163 163
165 165 165
176 176 176
178 178 178
168 168 168
151 151 151
130 130 130
142 142 142
160 160 160
171 171 171
173 173 173
171 171 171
192 192 192
204 204 204
200 200 200
183 183 183
166 166 166
149 149 149
134 134 134
140 140 140
148 148 148
148 148 148
140 140 140
140 140 140
152 152 152
172 172 172
185 185 185
187 187 187
178 178 178
166 166 166
157 157 157
184 184 184
212 212 212
234 234 234
227 227 227
201 201 201
173 173 173
175 175 175
178 178 178
198 198 198
207 207 207
199 199 199
186 186 186
202 202 202
204 204 204
191 191 191
169 169 169
152 152 152
154 154 154
157 157 157
152 152 152
141 141 141
150 150 150
151 151 151
144 144 144
142 142 142
135 135 135
143 143 143
161 161 161
173 173 173
175 175 175
177 177 177
201 201 201
215 215 215
210 210 210
190 190 190
165 165 165
142 142 142
128 128 128
134 134 134
134 134 134
126 126 126
140 140 140
151 151 151
155 155 155
170 170 170
193 193 193
207 207 207
205 205 205
188 188 188
165 165 165
175 175 175
198 198 198
212 212 212
208 208 208
189 189 189
201 201 201
200 200 200
205 205 205
195 195 195
178 178 178
173 173 173
162 162 162
174 174 174
175 175 175
166 166 166
154 154 154
144 144 144
141 141 141
157 157 157
167 167 167
166 166 166
157 157 157
150 150 150
159 159 159
160 160 160
151 151 151
147 147 147
154 154 154
165 165 165
166 166 166
172 172 172
194 194 194
206 206 206
202 202 202
185 185 185
161 161 161
139 139 139
154 154 154
162 162 162
161 161 161
151 151 151
164 164 164
179 179 179
185 185 185
181 181 181
208 208 208
230 230 230
226 226 226
202 202 202
174 174 174
157 157 157
175 175 175
184 184 184
183 183 183
210 210 210
229 229 229
217 217 217
226 226 226
210 210 210
185 185 185
157 157 157
136 136 136
157 157 157
175 175 175
183 183 183
181 181 181
167 167 167
161 161 161
182 182 182
195 195 195
195 195 195
181 181 181
160 160 160
170 170 170
170 170 170
161 161 161
170 170 170
172 172 172
163 163 163
156 156 156
159 159 159
176 176 176
185 185 185
182 182 182
169 169 169
149 149 149
158 158 158
176 176 176
187 187 187
186 186 186
173 173 173
184 184 184
205 205 205
214 214 214
204 204 204
207 207 207
228 228 228
225 225 225
201 201 201
174 174 174
146 146 146
148 148 148
157 157 157
187 187 187
216 216 216
242 242 242
216 216 216
225 225 225
209 209 209
184 184 184
157 157 157
148 148 148
173 173 173
195 195 195
208 208 208
204 204 204
186 186 186
176 176 176
202 202 202
221 221 221
221 221 221
201 201 201
174 174 174
170 170 170
171 171 171
175 175 175
189 189 189
191 191 191
180 180 180
160 160 160
152 152 152
153 153 153
160 160 160
157 157 157
147 147 147
153 153 153
172 172 172
193 193 193
207 207 207
205 205 205
189 189 189
196 196 196
224 224 224
242 242 242
221 221 221
193 193 193
205 205 205
203 203 203
187 187 187
164 164 164
140 140 140
142 142 142
161 161 161
178 178 178
202 202 202
217 217 217
197 197 197
202 202 202
192 192 192
172 172 172
148 148 148
153 153 153
181 181 181
206 206 206
223 223 223
217 217 217
195 195 195
180 180 180
209 209 209
235 235 235
234 234 234
208 208 208
179 179 179
161 161 161
161 161 161
182 182 182
197 197 197
199 199 199
187 187 187
166 166 166
141 141 141
138 138 138
142 142 142
140 140 140
144 144 144
170 170 170
194 194 194
211 211 211
214 214 214
212 212 212
193 193 193
194 194 194
220 220 220
235 235 235
218 218 218
191 191 191
177 177 177
176 176 176
164 164 164
150 150 150
161 161 161
163 163 163
164 164 164
179 179 179
185 185 185
188 188 188
