P3
50 50
255
124 124 124
132 132 132
132 132 132
133 133 133
151 151 151
163 163 163
166 166 166
159 159 159
156 156 156
179 179 179
197 197 197
202 202 202
192 192 192
179 179 179
201 201 201
213 213 213
207 207 207
187 187 187
162 162 162
134 134 134
131 131 131
138 138 138
138 138 138
135 135 135
129 129 129
124 124 124
125 125 125
123 123 123
150 150 150
178 178 178
206 206 206
231 231 231
231 231 231
207 207 207
179 179 179
150 150 150
152 152 152
160 160 160
159 159 159
150 150 150
134 134 134
148 148 148
160 160 160
184 184 184
200 200 200
203 203 203
191 191 191
170 170 170
145 145 145
126 126 126
132 132 132
140 140 140
140 140 140
151 151 151
173 173 173
189 189 189
193 193 193
184 184 184
166 166 166
182 182 182
200 200 200
206 206 206
195 195 195
189 189 189
218 218 218
240 240 240
227 227 227
199 199 199
170 170 170
141 141 141
153 153 153
162 162 162
162 162 162
153 153 153
143 143 143
150 150 150
150 150 150
141 141 141
148 148 148
176 176 176
203 203 203
225 225 225
225 225 225
203 203 203
177 177 177
148 148 148
162 162 162
171 171 171
170 170 170
160 160 160
142 142 142
149 149 149
165 165 165
189 189 189
208 208 208
211 211 211
198 198 198
175 175 175
149 149 149
145 145 145
132 132 132
140 140 140
146 146 146
167 167 167
189 189 189
210 210 210
217 217 217
204 204 204
180 180 180
173 173 173
189 189 189
193 193 193
184 184 184
188 188 188
215 215 215
234 234 234
223 223 223
197 197 197
169 169 169
152 152 152
170 170 170
181 181 181
182 182 182
171 171 171
165 165 165
174 174 174
173 173 173
162 162 162
144 144 144
164 164 164
186 186 186
200 200 200
200 200 200
186 186 186
164 164 164
147 147 147
164 164 164
173 173 173
172 172 172
161 161 161
143 143 143
142 142 142
159 159 159
182 182 182
198 198 198
201 201 201
190 190 190
169 169 169
171 171 171
171 171 171
126 126 126
134 134 134
156 156 156
181 181 181
201 201 201
217 217 217
226 226 226
210 210 210
185 185 185
157 157 157
168 168 168
172 172 172
165 165 165
174 174 174
195 195 195
206 206 206
200 200 200
182 182 182
158 158 158
159 159 159
180 180 180
193 193 193
193 193 193
180 180 180
181 181 181
192 192 192
191 191 191
178 178 178
157 157 157
145 145 145
162 162 162
172 172 172
172 172 172
162 162 162
145 145 145
140 140 140
156 156 156
164 164 164
164 164 164
154 154 154
137 137 137
128 128 128
146 146 146
165 165 165
178 178 178
180 180 180
171 171 171
183 183 183
197 197 197
198 198 198
114 114 114
131 131 131
158 158 158
184 184 184
205 205 205
214 214 214
211 211 211
199 199 199
177 177 177
176 176 176
165 165 165
147 147 147
141 141 141
154 154 154
169 169 169
177 177 177
173 173 173
160 160 160
146 146 146
162 162 162
178 178 178
191 191 191
191 191 191
178 178 178
187 187 187
200 200 200
198 198 198
184 184 184
161 161 161
136 136 136
142 142 142
146 146 146
144 144 144
136 136 136
122 122 122
128 128 128
142 142 142
149 149 149
149 149 149
140 140 140
125 125 125
126 126 126
133 133 133
143 143 143
153 153 153
155 155 155
173 173 173
199 199 199
218 218 218
219 219 219
138 138 138
138 138 138
152 152 152
175 175 175
193 193 193
200 200 200
192 192 192
188 188 188
202 202 202
201 201 201
186 186 186
164 164 164
138 138 138
130 130 130
142 142 142
147 147 147
145 145 145
135 135 135
156 156 156
174 174 174
183 183 183
180 180 180
177 177 177
173 173 173
181 181 181
193 193 193
191 191 191
178 178 178
157 157 157
157 157 157
171 171 171
175 175 175
169 169 169
154 154 154
134 134 134
151 151 151
169 169 169
178 178 178
177 177 177
166 166 166
147 147 147
137 137 137
143 143 143
142 142 142
134 134 134
147 147 147
175 175 175
201 201 201
222 222 222
223 223 223
166 166 166
166 166 166
157 157 157
158 158 158
172 172 172
177 177 177
176 176 176
202 202 202
221 221 221
220 220 220
200 200 200
174 174 174
162 162 162
151 151 151
134 134 134
138 138 138
142 142 142
137 137 137
158 158 158
176 176 176
185 185 185
183 183 183
175 175 175
196 196 196
208 208 208
202 202 202
184 184 184
162 162 162
155 155 155
179 179 179
198 198 198
204 204 204
195 195 195
175 175 175
151 151 151
170 170 170
192 192 192
207 207 207
205 205 205
189 189 189
165 165 165
149 149 149
156 156 156
155 155 155
146 146 146
140 140 140
166 166 166
189 189 189
204 204 204
226 226 226
194 194 194
194 194 194
181 181 181
160 160 160
147 147 147
151 151 151
176 176 176
201 201 201
220 220 220
219 219 219
199 199 199
192 192 192
189 189 189
175 175 175
154 154 154
163 163 163
168 168 168
162 162 162
151 151 151
167 167 167
176 176 176
174 174 174
186 186 186
212 212 212
230 230 230
221 221 221
196 196 196
168 168 168
166 166 166
194 194 194
220 220 220
234 234 234
216 216 216
190 190 190
161 161 161
181 181 181
209 209 209
232 232 232
229 229 229
204 204 204
176 176 176
167 167 167
162 162 162
160 160 160
151 151 151
154 154 154
163 163 163
176 176 176
205 205 205
233 233 233
219 219 219
219 219 219
200 200 200
174 174 174
147 147 147
140 140 140
165 165 165
186 186 186
200 200 200
199 199 199
204 204 204
220 220 220
215 215 215
194 194 194
169 169 169
185 185 185
191 191 191
183 183 183
166 166 166
151 151 151
158 158 158
157 157 157
185 185 185
210 210 210
227 227 227
218 218 218
197 197 197
194 194 194
179 179 179
197 197 197
226 226 226
244 244 244
221 221 221
192 192 192
164 164 164
181 181 181
209 209 209
233 233 233
229 229 229
204 204 204
194 194 194
196 196 196
184 184 184
163 163 163
149 149 149
166 166 166
177 177 177
177 177 177
192 192 192
211 211 211
229 229 229
230 230 230
206 206 206
178 178 178
150 150 150
125 125 125
147 147 147
164 164 164
174 174 174
185 185 185
214 214 214
238 238 238
229 229 229
202 202 202
180 180 180
199 199 199
206 206 206
197 197 197
177 177 177
152 152 152
136 136 136
148 148 148
172 172 172
192 192 192
203 203 203
203 203 203
219 219 219
215 215 215
194 194 194
186 186 186
207 207 207
216 216 216
204 204 204
182 182 182
184 184 184
182 182 182
193 193 193
208 208 208
206 206 206
198 198 198
219 219 219
222 222 222
203 203 203
177 177 177
151 151 151
170 170 170
181 181 181
181 181 181
178 178 178
206 206 206
213 213 213
213 213 213
196 196 196
172 172 172
145 145 145
117 117 117
131 131 131
154 154 154
173 173 173
189 189 189
209 209 209
222 222 222
217 217 217
195 195 195
180 180 180
199 199 199
206 206 206
197 197 197
177 177 177
152 152 152
135 135 135
132 132 132
152 152 152
168 168 168
181 181 181
206 206 206
224 224 224
219 219 219
196 196 196
170 170 170
181 181 181
186 186 186
179 179 179
184 184 184
195 195 195
192 192 192
177 177 177
180 180 180
179 179 179
205 205 205
230 230 230
234 234 234
210 210 210
182 182 182
153 153 153
164 164 164
174 174 174
174 174 174
171 171 171
196 196 196
187 187 187
187 187 187
176 176 176
156 156 156
146 146 146
145 145 145
144 144 144
171 171 171
195 195 195
212 212 212
224 224 224
234 234 234
214 214 214
187 187 187
169 169 169
185 185 185
190 190 190
183 183 183
166 166 166
145 145 145
131 131 131
129 129 129
129 129 129
146 146 146
172 172 172
193 193 193
206 206 206
202 202 202
185 185 185
162 162 162
153 153 153
157 157 157
163 163 163
182 182 182
192 192 192
190 190 190
175 175 175
161 161 161
177 177 177
197 197 197
214 214 214
216 216 216
199 199 199
175 175 175
148 148 148
149 149 149
158 158 158
159 159 159
174 174 174
180 180 180
159 159 159
159 159 159
151 151 151
166 166 166
175 175 175
174 174 174
162 162 162
179 179 179
207 207 207
231 231 231
230 230 230
222 222 222
207 207 207
182 182 182
155 155 155
163 163 163
167 167 167
162 162 162
148 148 148
152 152 152
157 157 157
154 154 154
143 143 143
143 143 143
159 159 159
179 179 179
192 192 192
193 193 193
180 180 180
160 160 160
136 136 136
131 131 131
152 152 152
169 169 169
178 178 178
175 175 175
169 169 169
174 174 174
183 183 183
206 206 206
218 218 218
209 209 209
187 187 187
161 161 161
135 135 135
129 129 129
153 153 153
178 178 178
198 198 198
207 207 207
131 131 131
144 144 144
170 170 170
191 191 191
204 204 204
202 202 202
185 185 185
176 176 176
202 202 202
223 223 223
222 222 222
202 202 202
187 187 187
168 168 168
156 156 156
166 166 166
167 167 167
158 158 158
157 157 157
173 173 173
180 180 180
176 176 176
168 168 168
168 168 168
163 163 163
184 184 184
198 198 198
199 199 199
185 185 185
164 164 164
139 139 139
120 120 120
136 136 136
149 149 149
156 156 156
158 158 158
172 172 172
177 177 177
178 178 178
199 199 199
209 209 209
201 201 201
182 182 182
157 157 157
130 130 130
132 132 132
161 161 161
188 188 188
213 213 213
227 227 227
125 125 125
154 154 154
182 182 182
210 210 210
232 232 232
227 227 227
202 202 202
174 174 174
184 184 184
198 198 198
198 198 198
184 184 184
162 162 162
147 147 147
158 158 158
168 168 168
169 169 169
160 160 160
170 170 170
188 188 188
197 197 197
191 191 191
189 189 189
189 189 189
177 177 177
177 177 177
190 190 190
190 190 190
178 178 178
158 158 158
135 135 135
119 119 119
135 135 135
145 145 145
148 148 148
152 152 152
165 165 165
169 169 169
164 164 164
180 180 180
187 187 187
181 181 181
166 166 166
145 145 145
121 121 121
131 131 131
160 160 160
187 187 187
211 211 211
223 223 223
128 128 128
155 155 155
185 185 185
213 213 213
240 240 240
233 233 233
205 205 205
176 176 176
160 160 160
171 171 171
173 173 173
164 164 164
161 161 161
165 165 165
160 160 160
161 161 161
161 161 161
153 153 153
172 172 172
192 192 192
201 201 201
195 195 195
201 201 201
201 201 201
187 187 187
165 165 165
171 171 171
172 172 172
162 162 162
145 145 145
124 124 124
112 112 112
127 127 127
136 136 136
138 138 138
138 138 138
150 150 150
153 153 153
154 154 154
165 165 165
167 167 167
159 159 159
145 145 145
127 127 127
124 124 124
124 124 124
150 150 150
173 173 173
192 192 192
200 200 200
154 154 154
154 154 154
175 175 175
199 199 199
214 214 214
211 211 211
192 192 192
167 167 167
165 165 165
177 177 177
178 178 178
169 169 169
181 181 181
186 186 186
179 179 179
163 163 163
148 148 148
148 148 148
165 165 165
182 182 182
190 190 190
185 185 185
199 199 199
199 199 199
185 185 185
163 163 163
148 148 148
148 148 148
140 140 140
138 138 138
136 136 136
126 126 126
134 134 134
145 145 145
149 149 149
144 144 144
133 133 133
132 132 132
148 148 148
158 158 158
160 160 160
153 153 153
141 141 141
150 150 150
151 151 151
144 144 144
161 161 161
179 179 179
188 188 188
184 184 184
178 178 178
178 178 178
168 168 168
175 175 175
185 185 185
183 183 183
170 170 170
164 164 164
161 161 161
172 172 172
173 173 173
175 175 175
193 193 193
200 200 200
191 191 191
173 173 173
172 172 172
172 172 172
162 162 162
164 164 164
170 170 170
172 172 172
183 183 183
183 183 183
172 172 172
153 153 153
130 130 130
147 147 147
161 161 161
168 168 168
164 164 164
152 152 152
151 151 151
164 164 164
168 168 168
163 163 163
151 151 151
142 142 142
135 135 135
144 144 144
145 145 145
144 144 144
162 162 162
174 174 174
175 175 175
166 166 166
180 180 180
203 203 203
217 217 217
211 211 211
196 196 196
196 196 196
183 183 183
180 180 180
180 180 180
169 169 169
150 150 150
155 155 155
152 152 152
157 157 157
164 164 164
175 175 175
192 192 192
199 199 199
191 191 191
179 179 179
191 191 191
191 191 191
178 178 178
158 158 158
146 146 146
152 152 152
160 160 160
160 160 160
156 156 156
158 158 158
152 152 152
169 169 169
188 188 188
197 197 197
192 192 192
175 175 175
161 161 161
176 176 176
181 181 181
175 175 175
169 169 169
158 158 158
158 158 158
166 166 166
166 166 166
160 160 160
178 178 178
193 193 193
195 195 195
183 183 183
189 189 189
218 218 218
244 244 244
230 230 230
202 202 202
203 203 203
188 188 188
177 177 177
177 177 177
166 166 166
154 154 154
140 140 140
139 139 139
165 165 165
188 188 188
203 203 203
205 205 205
191 191 191
178 178 178
186 186 186
200 200 200
200 200 200
186 186 186
164 164 164
139 139 139
128 128 128
146 146 146
166 166 166
180 180 180
184 184 184
176 176 176
185 185 185
211 211 211
226 226 226
217 217 217
193 193 193
166 166 166
178 178 178
183 183 183
180 180 180
179 179 179
167 167 167
176 176 176
187 187 187
186 186 186
179 179 179
185 185 185
201 201 201
204 204 204
191 191 191
186 186 186
212 212 212
231 231 231
222 222 222
193 193 193
194 194 194
181 181 181
164 164 164
164 164 164
163 163 163
156 156 156
147 147 147
148 148 148
176 176 176
204 204 204
229 229 229
232 232 232
209 209 209
181 181 181
181 181 181
194 194 194
194 194 194
181 181 181
160 160 160
136 136 136
132 132 132
158 158 158
182 182 182
200 200 200
205 205 205
195 195 195
191 191 191
221 221 221
249 249 249
229 229 229
200 200 200
176 176 176
182 182 182
177 177 177
179 179 179
178 178 178
167 167 167
187 187 187
200 200 200
199 199 199
190 190 190
180 180 180
195 195 195
197 197 197
185 185 185
171 171 171
192 192 192
203 203 203
198 198 198
174 174 174
174 174 174
164 164 164
154 154 154
154 154 154
165 165 165
173 173 173
171 171 171
160 160 160
178 178 178
207 207 207
234 234 234
238 238 238
211 211 211
182 182 182
167 167 167
177 177 177
177 177 177
171 171 171
166 166 166
152 152 152
135 135 135
163 163 163
188 188 188
208 208 208
215 215 215
202 202 202
184 184 184
208 208 208
223 223 223
214 214 214
192 192 192
195 195 195
203 203 203
196 196 196
177 177 177
167 167 167
164 164 164
185 185 185
198 198 198
197 197 197
189 189 189
178 178 178
186 186 186
190 190 190
181 181 181
164 164 164
166 166 166
182 182 182
193 193 193
150 150 150
156 156 156
171 171 171
177 177 177
173 173 173
184 184 184
195 195 195
192 192 192
177 177 177
169 169 169
193 193 193
211 211 211
212 212 212
196 196 196
173 173 173
153 153 153
176 176 176
194 194 194
201 201 201
192 192 192
173 173 173
150 150 150
158 158 158
181 181 181
199 199 199
205 205 205
194 194 194
173 173 173
185 185 185
194 194 194
189 189 189
182 182 182
203 203 203
213 213 213
204 204 204
183 183 183
157 157 157
154 154 154
172 172 172
182 182 182
182 182 182
175 175 175
176 176 176
192 192 192
196 196 196
187 187 187
168 168 168
171 171 171
194 194 194
208 208 208
150 150 150
175 175 175
195 195 195
204 204 204
198 198 198
193 193 193
206 206 206
203 203 203
185 185 185
162 162 162
171 171 171
183 183 183
184 184 184
173 173 173
155 155 155
165 165 165
192 192 192
218 218 218
230 230 230
215 215 215
189 189 189
161 161 161
145 145 145
165 165 165
179 179 179
183 183 183
175 175 175
196 196 196
206 206 206
201 201 201
182 182 182
176 176 176
195 195 195
203 203 203
196 196 196
177 177 177
153 153 153
137 137 137
152 152 152
160 160 160
160 160 160
155 155 155
169 169 169
184 184 184
188 188 188
179 179 179
162 162 162
171 171 171
193 193 193
207 207 207
159 159 159
187 187 187
212 212 212
226 226 226
216 216 216
192 192 192
201 201 201
198 198 198
182 182 182
159 159 159
145 145 145
154 154 154
155 155 155
149 149 149
153 153 153
168 168 168
197 197 197
226 226 226
247 247 247
222 222 222
193 193 193
166 166 166
149 149 149
143 143 143
154 154 154
157 157 157
184 184 184
209 209 209
224 224 224
216 216 216
193 193 193
166 166 166
176 176 176
182 182 182
177 177 177
162 162 162
141 141 141
117 117 117
128 128 128
135 135 135
134 134 134
142 142 142
156 156 156
167 167 167
170 170 170
163 163 163
148 148 148
161 161 161
180 180 180
191 191 191
159 159 159
187 187 187
211 211 211
226 226 226
215 215 215
192 192 192
183 183 183
185 185 185
186 186 186
175 175 175
157 157 157
134 134 134
148 148 148
162 162 162
166 166 166
162 162 162
187 187 187
210 210 210
219 219 219
207 207 207
184 184 184
163 163 163
146 146 146
134 134 134
127 127 127
155 155 155
182 182 182
206 206 206
219 219 219
212 212 212
190 190 190
164 164 164
152 152 152
157 157 157
153 153 153
141 141 141
124 124 124
126 126 126
144 144 144
156 156 156
160 160 160
165 165 165
183 183 183
191 191 191
186 186 186
171 171 171
149 149 149
143 143 143
159 159 159
167 167 167
165 165 165
175 175 175
194 194 194
204 204 204
197 197 197
179 179 179
182 182 182
197 197 197
198 198 198
186 186 186
165 165 165
140 140 140
152 152 152
166 166 166
171 171 171
166 166 166
168 168 168
184 184 184
190 190 190
183 183 183
167 167 167
152 152 152
159 159 159
157 157 157
146 146 146
150 150 150
171 171 171
188 188 188
197 197 197
192 192 192
176 176 176
153 153 153
154 154 154
156 156 156
149 149 149
135 135 135
120 120 120
145 145 145
166 166 166
182 182 182
187 187 187
183 183 183
206 206 206
220 220 220
212 212 212
190 190 190
164 164 164
139 139 139
134 134 134
150 150 150
189 189 189
200 200 200
196 196 196
180 180 180
172 172 172
159 159 159
181 181 181
195 195 195
196 196 196
184 184 184
164 164 164
143 143 143
163 163 163
177 177 177
182 182 182
175 175 175
159 159 159
171 171 171
185 185 185
188 188 188
179 179 179
177 177 177
186 186 186
183 183 183
169 169 169
163 163 163
181 181 181
197 197 197
201 201 201
189 189 189
169 169 169
161 161 161
173 173 173
175 175 175
166 166 166
150 150 150
130 130 130
158 158 158
183 183 183
203 203 203
211 211 211
201 201 201
220 220 220
245 245 245
228 228 228
199 199 199
170 170 170
148 148 148
158 158 158
169 169 169
206 206 206
222 222 222
216 216 216
194 194 194
168 168 168
150 150 150
169 169 169
180 180 180
182 182 182
172 172 172
154 154 154
151 151 151
173 173 173
190 190 190
196 196 196
187 187 187
169 169 169
172 172 172
186 186 186
190 190 190
180 180 180
197 197 197
210 210 210
205 205 205
186 186 186
178 178 178
188 188 188
196 196 196
200 200 200
189 189 189
168 168 168
170 170 170
184 184 184
186 186 186
176 176 176
160 160 160
140 140 140
162 162 162
189 189 189
213 213 213
223 223 223
210 210 210
212 212 212
228 228 228
218 218 218
194 194 194
166 166 166
167 167 167
180 180 180
181 181 181
208 208 208
225 225 225
218 218 218
196 196 196
169 169 169
163 163 163
149 149 149
159 159 159
160 160 160
152 152 152
144 144 144
151 151 151
174 174 174
190 190 190
196 196 196
188 188 188
169 169 169
167 167 167
176 176 176
179 179 179
181 181 181
206 206 206
222 222 222
216 216 216
194 194 194
183 183 183
194 194 194
192 192 192
185 185 185
176 176 176
158 158 158
177 177 177
196 196 196
204 204 204
197 197 197
177 177 177
163 163 163
160 160 160
183 183 183
204 204 204
212 212 212
202 202 202
190 190 190
199 199 199
194 194 194
177 177 177
162 162 162
180 180 180
195 195 195
197 197 197
193 193 193
205 205 205
201 201 201
191 191 191
197 197 197
188 188 188
170 170 170
154 154 154
167 167 167
172 172 172
166 166 166
152 152 152
164 164 164
178 178 178
183 183 183
176 176 176
178 178 178
193 193 193
195 195 195
185 185 185
176 176 176
199 199 199
212 212 212
207 207 207
188 188 188
177 177 177
187 187 187
185 185 185
173 173 173
185 185 185
185 185 185
185 185 185
208 208 208
218 218 218
208 208 208
186 186 186
184 184 184
177 177 177
170 170 170
183 183 183
188 188 188
181 181 181
165 165 165
170 170 170
166 166 166
154 154 154
168 168 168
189 189 189
201 201 201
199 199 199
171 171 171
179 179 179
191 191 191
214 214 214
223 223 223
209 209 209
185 185 185
168 168 168
184 184 184
190 190 190
183 183 183
166 166 166
147 147 147
159 159 159
162 162 162
168 168 168
193 193 193
213 213 213
217 217 217
202 202 202
177 177 177
180 180 180
189 189 189
186 186 186
171 171 171
161 161 161
169 169 169
170 170 170
195 195 195
212 212 212
213 213 213
196 196 196
202 202 202
211 211 211
202 202 202
189 189 189
196 196 196
188 188 188
170 170 170
161 161 161
161 161 161
157 157 157
146 146 146
141 141 141
138 138 138
141 141 141
166 166 166
185 185 185
196 196 196
193 193 193
146 146 146
167 167 167
195 195 195
222 222 222
235 235 235
216 216 216
189 189 189
174 174 174
192 192 192
198 198 198
190 190 190
171 171 171
158 158 158
142 142 142
142 142 142
170 170 170
196 196 196
218 218 218
223 223 223
205 205 205
181 181 181
195 195 195
196 196 196
183 183 183
163 163 163
140 140 140
149 149 149
178 178 178
207 207 207
232 232 232
234 234 234
208 208 208
184 184 184
190 190 190
184 184 184
188 188 188
194 194 194
187 187 187
169 169 169
167 167 167
174 174 174
171 171 171
159 159 159
149 149 149
162 162 162
166 166 166
161 161 161
171 171 171
179 179 179
177 177 177
144 144 144
161 161 161
187 187 187
207 207 207
215 215 215
204 204 204
181 181 181
169 169 169
186 186 186
191 191 191
192 192 192
193 193 193
181 181 181
161 161 161
137 137 137
162 162 162
186 186 186
203 203 203
206 206 206
193 193 193
200 200 200
222 222 222
224 224 224
204 204 204
178 178 178
150 150 150
147 147 147
176 176 176
203 203 203
224 224 224
225 225 225
204 204 204
177 177 177
164 164 164
161 161 161
175 175 175
180 180 180
174 174 174
158 158 158
172 172 172
179 179 179
176 176 176
163 163 163
171 171 171
188 188 188
194 194 194
187 187 187
177 177 177
165 165 165
155 155 155
135 135 135
147 147 147
168 168 168
183 183 183
188 188 188
181 181 181
164 164 164
156 156 156
169 169 169
194 194 194
212 212 212
214 214 214
197 197 197
173 173 173
146 146 146
147 147 147
166 166 166
178 178 178
181 181 181
190 190 190
208 208 208
237 237 237
240 240 240
212 212 212
183 183 183
158 158 158
164 164 164
163 163 163
185 185 185
199 199 199
200 200 200
186 186 186
164 164 164
160 160 160
172 172 172
175 175 175
167 167 167
154 154 154
151 151 151
166 166 166
173 173 173
170 170 170
161 161 161
187 187 187
210 210 210
220 220 220
209 209 209
201 201 201
184 184 184
161 161 161
120 120 120
127 127 127
144 144 144
156 156 156
160 160 160
154 154 154
141 141 141
144 144 144
172 172 172
198 198 198
218 218 218
219 219 219
201 201 201
176 176 176
148 148 148
126 126 126
146 146 146
173 173 173
198 198 198
214 214 214
213 213 213
218 218 218
220 220 220
202 202 202
176 176 176
178 178 178
186 186 186
182 182 182
167 167 167
171 171 171
171 171 171
162 162 162
156 156 156
179 179 179
195 195 195
199 199 199
189 189 189
169 169 169
152 152 152
152 152 152
158 158 158
155 155 155
165 165 165
193 193 193
219 219 219
234 234 234
219 219 219
215 215 215
195 195 195
169 169 169
125 125 125
143 143 143
156 156 156
161 161 161
157 157 157
153 153 153
145 145 145
148 148 148
164 164 164
187 187 187
203 203 203
204 204 204
190 190 190
168 168 168
142 142 142
128 128 128
150 150 150
178 178 178
205 205 205
226 226 226
224 224 224
201 201 201
192 192 192
180 180 180
172 172 172
191 191 191
201 201 201
195 195 195
178 178 178
155 155 155
144 144 144
162 162 162
173 173 173
189 189 189
209 209 209
215 215 215
201 201 201
179 179 179
181 181 181
173 173 173
156 156 156
171 171 171
183 183 183
185 185 185
207 207 207
217 217 217
214 214 214
210 210 210
191 191 191
167 167 167
140 140 140
162 162 162
177 177 177
184 184 184
179 179 179
164 164 164
170 170 170
175 175 175
169 169 169
168 168 168
179 179 179
180 180 180
178 178 178
178 178 178
168 168 168
150 150 150
146 146 146
172 172 172
196 196 196
212 212 212
211 211 211
193 193 193
169 169 169
155 155 155
172 172 172
192 192 192
201 201 201
196 196 196
178 178 178
155 155 155
151 151 151
170 170 170
182 182 182
187 187 187
207 207 207
212 212 212
199 199 199
206 206 206
210 210 210
197 197 197
174 174 174
186 186 186
201 201 201
202 202 202
188 188 188
190 190 190
193 193 193
191 191 191
176 176 176
155 155 155
149 149 149
173 173 173
192 192 192
200 200 200
193 193 193
176 176 176
192 192 192
198 198 198
190 190 190
171 171 171
166 166 166
189 189 189
204 204 204
204 204 204
190 190 190
167 167 167
148 148 148
158 158 158
177 177 177
188 188 188
187 187 187
174 174 174
154 154 154
164 164 164
166 166 166
180 180 180
188 188 188
183 183 183
168 168 168
151 151 151
149 149 149
168 168 168
180 180 180
180 180 180
189 189 189
193 193 193
201 201 201
228 228 228
236 236 236
214 214 214
185 185 185
190 190 190
206 206 206
207 207 207
192 192 192
169 169 169
167 167 167
165 165 165
155 155 155
140 140 140
151 151 151
175 175 175
194 194 194
203 203 203
196 196 196
184 184 184
205 205 205
213 213 213
202 202 202
181 181 181
176 176 176
203 203 203
224 224 224
225 225 225
204 204 204
181 181 181
175 175 175
166 166 166
152 152 152
160 160 160
160 160 160
154 154 154
176 176 176
191 191 191
195 195 195
185 185 185
168 168 168
163 163 163
173 173 173
173 173 173
163 163 163
157 157 157
167 167 167
168 168 168
165 165 165
184 184 184
204 204 204
226 226 226
234 234 234
212 212 212
185 185 185
181 181 181
195 195 195
195 195 195
183 183 183
162 162 162
139 139 139
138 138 138
133 133 133
129 129 129
144 144 144
166 166 166
183 183 183
190 190 190
185 185 185
182 182 182
202 202 202
209 209 209
200 200 200
179 179 179
175 175 175
202 202 202
223 223 223
223 223 223
203 203 203
206 206 206
204 204 204
191 191 191
169 169 169
144 144 144
140 140 140
168 168 168
195 195 195
217 217 217
223 223 223
206 206 206
181 181 181
177 177 177
190 190 190
190 190 190
178 178 178
158 158 158
155 155 155
164 164 164
165 165 165
193 193 193
218 218 218
230 230 230
215 215 215
195 195 195
173 173 173
163 163 163
174 174 174
174 174 174
164 164 164
147 147 147
145 145 145
143 143 143
134 134 134
119 119 119
137 137 137
157 157 157
172 172 172
178 178 178
173 173 173
169 169 169
185 185 185
191 191 191
184 184 184
166 166 166
164 164 164
186 186 186
201 201 201
201 201 201
215 215 215
227 227 227
231 231 231
209 209 209
182 182 182
153 153 153
144 144 144
173 173 173
202 202 202
231 231 231
242 242 242
216 216 216
187 187 187
182 182 182
195 195 195
195 195 195
182 182 182
161 161 161
159 159 159
169 169 169
168 168 168
189 189 189
212 212 212
222 222 222
209 209 209
185 185 185
170 170 170
156 156 156
163 163 163
167 167 167
161 161 161
166 166 166
174 174 174
172 172 172
160 160 160
142 142 142
152 152 152
176 176 176
195 195 195
204 204 204
197 197 197
187 187 187
204 204 204
206 206 206
193 193 193
171 171 171
146 146 146
164 164 164
174 174 174
189 189 189
211 211 211
233 233 233
240 240 240
213 213 213
184 184 184
155 155 155
140 140 140
168 168 168
194 194 194
216 216 216
222 222 222
206 206 206
181 181 181
175 175 175
187 187 187
187 187 187
175 175 175
156 156 156
154 154 154
163 163 163
163 163 163
174 174 174
191 191 191
197 197 197
189 189 189
180 180 180
176 176 176
162 162 162
162 162 162
165 165 165
170 170 170
191 191 191
202 202 202
199 199 199
183 183 183
160 160 160
160 160 160
187 187 187
211 211 211
223 223 223
212 212 212
199 199 199
221 221 221
224 224 224
206 206 206
180 180 180
152 152 152
146 146 146
152 152 152
175 175 175
193 193 193
211 211 211
214 214 214
198 198 198
175 175 175
148 148 148
148 148 148
165 165 165
175 175 175
190 190 190
194 194 194
184 184 184
165 165 165
161 161 161
168 168 168
169 169 169
159 159 159
143 143 143
142 142 142
149 149 149
149 149 149
152 152 152
165 165 165
169 169 169
169 169 169
176 176 176
172 172 172
158 158 158
152 152 152
155 155 155
183 183 183
209 209 209
229 229 229
223 223 223
199 199 199
171 171 171
159 159 159
185 185 185
209 209 209
220 220 220
210 210 210
196 196 196
217 217 217
220 220 220
203 203 203
178 178 178
150 150 150
138 138 138
141 141 141
154 154 154
171 171 171
184 184 184
185 185 185
175 175 175
157 157 157
134 134 134
155 155 155
174 174 174
185 185 185
184 184 184
172 172 172
171 171 171
179 179 179
176 176 176
164 164 164
145 145 145
138 138 138
124 124 124
124 124 124
130 130 130
130 130 130
128 128 128
138 138 138
143 143 143
156 156 156
171 171 171
180 180 180
179 179 179
167 167 167
156 156 156
185 185 185
213 213 213
236 236 236
228 228 228
202 202 202
173 173 173
178 178 178
182 182 182
191 191 191
199 199 199
192 192 192
181 181 181
196 196 196
198 198 198
186 186 186
165 165 165
141 141 141
129 129 129
135 135 135
146 146 146
149 149 149
155 155 155
156 156 156
161 161 161
162 162 162
153 153 153
154 154 154
173 173 173
183 183 183
183 183 183
171 171 171
177 177 177
186 186 186
183 183 183
169 169 169
149 149 149
128 128 128
116 116 116
122 122 122
121 121 121
121 121 121
137 137 137
149 149 149
153 153 153
171 171 171
194 194 194
208 208 208
206 206 206
189 189 189
166 166 166
175 175 175
198 198 198
212 212 212
209 209 209
190 190 190
196 196 196
205 205 205
212 212 212
200 200 200
178 178 178
168 168 168
159 159 159
169 169 169
171 171 171
162 162 162
159 159 159
148 148 148
141 141 141
157 157 157
166 166 166
169 169 169
163 163 163
171 171 171
183 183 183
184 184 184
173 173 173
159 159 159
162 162 162
171 171 171
181 181 181
183 183 183
173 173 173
181 181 181
178 178 178
165 165 165
146 146 146
126 126 126
139 139 139
146 146 146
145 145 145
141 141 141
161 161 161
176 176 176
181 181 181
182 182 182
210 210 210
233 233 233
229 229 229
204 204 204
175 175 175
157 157 157
175 175 175
184 184 184
182 182 182
205 205 205
221 221 221
226 226 226
240 240 240
218 218 218
189 189 189
160 160 160
139 139 139
162 162 162
181 181 181
190 190 190
187 187 187
173 173 173
161 161 161
182 182 182
194 194 194
194 194 194
181 181 181
183 183 183
197 197 197
198 198 198
185 185 185
186 186 186
187 187 187
177 177 177
185 185 185
187 187 187
177 177 177
165 165 165
163 163 163
152 152 152
135 135 135
146 146 146
158 158 158
167 167 167
166 166 166
156 156 156
180 180 180
200 200 200
208 208 208
199 199 199
209 209 209
231 231 231
228 228 228
203 203 203
175 175 175
152 152 152
149 149 149
155 155 155
183 183 183
210 210 210
229 229 229
224 224 224
237 237 237
216 216 216
188 188 188
160 160 160
152 152 152
179 179 179
204 204 204
219 219 219
214 214 214
193 193 193
175 175 175
201 201 201
220 220 220
220 220 220
200 200 200
184 184 184
198 198 198
199 199 199
192 192 192
210 210 210
212 212 212
197 197 197
177 177 177
179 179 179
170 170 170
153 153 153
142 142 142
133 133 133
153 153 153
172 172 172
183 183 183
183 183 183
180 180 180
168 168 168
191 191 191
216 216 216
228 228 228
214 214 214
192 192 192
206 206 206
204 204 204
188 188 188
164 164 164
156 156 156
158 158 158
156 156 156
175 175 175
198 198 198
211 211 211
202 202 202
208 208 208
197 197 197
176 176 176
150 150 150
158 158 158
187 187 187
217 217 217
245 245 245
232 232 232
203 203 203
185 185 185
208 208 208
233 233 233
232 232 232
207 207 207
180 180 180
185 185 185
186 186 186
201 201 201
224 224 224
227 227 227
207 207 207
180 180 180
162 162 162
155 155 155
140 140 140
120 120 120
143 143 143
170 170 170
194 194 194
210 210 210
210 210 210
194 194 194
172 172 172
190 190 190
213 213 213
224 224 224
211 211 211
187 187 187
178 178 178
177 177 177
165 165 165
168 168 168
181 181 181
183 183 183
174 174 174
158 158 158
176 176 176
185 185 185
