P3
50 50
255
81 81 81
104 104 104
125 125 125
141 141 141
151 151 151
162 162 162
165 165 165
161 161 161
164 164 164
158 158 158
144 144 144
146 146 146
140 140 140
154 154 154
169 169 169
176 176 176
173 173 173
160 160 160
140 140 140
131 131 131
146 146 146
154 154 154
155 155 155
146 146 146
159 159 159
175 175 175
182 182 182
178 178 178
163 163 163
169 169 169
192 192 192
208 208 208
208 208 208
192 192 192
169 169 169
166 166 166
187 187 187
200 200 200
199 199 199
184 184 184
162 162 162
136 136 136
142 142 142
142 142 142
148 148 148
154 154 154
166 166 166
168 168 168
161 161 161
146 146 146
83 83 83
106 106 106
127 127 127
150 150 150
172 172 172
187 187 187
191 191 191
183 183 183
165 165 165
156 156 156
145 145 145
147 147 147
142 142 142
162 162 162
179 179 179
187 187 187
183 183 183
168 168 168
147 147 147
153 153 153
172 172 172
183 183 183
184 184 184
172 172 172
163 163 163
180 180 180
187 187 187
183 183 183
168 168 168
167 167 167
190 190 190
205 205 205
205 205 205
190 190 190
167 167 167
178 178 178
204 204 204
223 223 223
221 221 221
200 200 200
173 173 173
156 156 156
165 165 165
165 165 165
156 156 156
168 168 168
181 181 181
184 184 184
176 176 176
158 158 158
80 80 80
107 107 107
135 135 135
162 162 162
187 187 187
208 208 208
214 214 214
202 202 202
179 179 179
153 153 153
139 139 139
141 141 141
138 138 138
160 160 160
177 177 177
185 185 185
181 181 181
167 167 167
146 146 146
171 171 171
195 195 195
212 212 212
212 212 212
195 195 195
171 171 171
173 173 173
180 180 180
176 176 176
162 162 162
156 156 156
175 175 175
187 187 187
187 187 187
175 175 175
170 170 170
180 180 180
207 207 207
228 228 228
225 225 225
202 202 202
175 175 175
172 172 172
184 184 184
184 184 184
172 172 172
172 172 172
187 187 187
190 190 190
181 181 181
169 169 169
80 80 80
109 109 109
137 137 137
165 165 165
192 192 192
215 215 215
223 223 223
208 208 208
183 183 183
156 156 156
139 139 139
128 128 128
130 130 130
150 150 150
165 165 165
172 172 172
169 169 169
156 156 156
151 151 151
180 180 180
209 209 209
236 236 236
236 236 236
209 209 209
180 180 180
158 158 158
164 164 164
160 160 160
149 149 149
138 138 138
154 154 154
163 163 163
167 167 167
177 177 177
177 177 177
171 171 171
193 193 193
208 208 208
206 206 206
190 190 190
166 166 166
180 180 180
193 193 193
193 193 193
180 180 180
167 167 167
180 180 180
183 183 183
194 194 194
195 195 195
90 90 90
105 105 105
133 133 133
159 159 159
184 184 184
202 202 202
208 208 208
197 197 197
176 176 176
174 174 174
163 163 163
149 149 149
138 138 138
157 157 157
171 171 171
175 175 175
168 168 168
153 153 153
150 150 150
178 178 178
206 206 206
230 230 230
231 231 231
207 207 207
179 179 179
150 150 150
142 142 142
139 139 139
129 129 129
117 117 117
131 131 131
148 148 148
164 164 164
174 174 174
174 174 174
164 164 164
171 171 171
181 181 181
180 180 180
168 168 168
157 157 157
177 177 177
189 189 189
189 189 189
177 177 177
157 157 157
171 171 171
196 196 196
214 214 214
215 215 215
115 115 115
115 115 115
122 122 122
145 145 145
166 166 166
180 180 180
184 184 184
186 186 186
199 199 199
199 199 199
185 185 185
172 172 172
152 152 152
169 169 169
185 185 185
189 189 189
182 182 182
165 165 165
161 161 161
166 166 166
189 189 189
204 204 204
204 204 204
189 189 189
174 174 174
171 171 171
158 158 158
146 146 146
140 140 140
139 139 139
150 150 150
159 159 159
171 171 171
174 174 174
166 166 166
152 152 152
157 157 157
166 166 166
165 165 165
155 155 155
146 146 146
163 163 163
173 173 173
173 173 173
163 163 163
146 146 146
173 173 173
198 198 198
217 217 217
218 218 218
138 138 138
138 138 138
131 131 131
126 126 126
143 143 143
154 154 154
174 174 174
199 199 199
217 217 217
216 216 216
207 207 207
190 190 190
166 166 166
172 172 172
188 188 188
193 193 193
185 185 185
167 167 167
167 167 167
169 169 169
165 165 165
175 175 175
175 175 175
188 188 188
198 198 198
193 193 193
177 177 177
165 165 165
157 157 157
156 156 156
170 170 170
174 174 174
174 174 174
177 177 177
169 169 169
167 167 167
177 177 177
188 188 188
187 187 187
174 174 174
154 154 154
144 144 144
152 152 152
153 153 153
147 147 147
139 139 139
164 164 164
186 186 186
201 201 201
201 201 201
157 157 157
157 157 157
149 149 149
133 133 133
119 119 119
147 147 147
174 174 174
199 199 199
217 217 217
221 221 221
218 218 218
197 197 197
177 177 177
164 164 164
178 178 178
183 183 183
180 180 180
174 174 174
163 163 163
165 165 165
158 158 158
153 153 153
179 179 179
201 201 201
214 214 214
208 208 208
188 188 188
176 176 176
167 167 167
168 168 168
183 183 183
188 188 188
181 181 181
169 169 169
165 165 165
182 182 182
190 190 190
203 203 203
202 202 202
186 186 186
163 163 163
160 160 160
173 173 173
177 177 177
170 170 170
154 154 154
148 148 148
166 166 166
182 182 182
198 198 198
170 170 170
170 170 170
161 161 161
144 144 144
122 122 122
139 139 139
163 163 163
184 184 184
197 197 197
210 210 210
208 208 208
200 200 200
196 196 196
181 181 181
182 182 182
201 201 201
209 209 209
199 199 199
178 178 178
153 153 153
146 146 146
152 152 152
178 178 178
200 200 200
212 212 212
206 206 206
195 195 195
193 193 193
178 178 178
170 170 170
186 186 186
191 191 191
183 183 183
166 166 166
169 169 169
187 187 187
196 196 196
203 203 203
202 202 202
186 186 186
182 182 182
183 183 183
191 191 191
196 196 196
186 186 186
168 168 168
145 145 145
153 153 153
173 173 173
186 186 186
189 189 189
187 187 187
173 173 173
152 152 152
127 127 127
124 124 124
146 146 146
163 163 163
177 177 177
187 187 187
196 196 196
209 209 209
205 205 205
187 187 187
194 194 194
221 221 221
235 235 235
218 218 218
191 191 191
162 162 162
133 133 133
143 143 143
166 166 166
185 185 185
194 194 194
201 201 201
216 216 216
212 212 212
192 192 192
167 167 167
176 176 176
181 181 181
174 174 174
159 159 159
164 164 164
180 180 180
188 188 188
189 189 189
188 188 188
186 186 186
201 201 201
203 203 203
198 198 198
203 203 203
193 193 193
172 172 172
158 158 158
166 166 166
164 164 164
180 180 180
206 206 206
202 202 202
185 185 185
161 161 161
135 135 135
114 114 114
126 126 126
148 148 148
165 165 165
175 175 175
189 189 189
201 201 201
198 198 198
181 181 181
194 194 194
221 221 221
235 235 235
217 217 217
191 191 191
162 162 162
137 137 137
143 143 143
148 148 148
162 162 162
179 179 179
204 204 204
221 221 221
216 216 216
195 195 195
169 169 169
158 158 158
162 162 162
157 157 157
144 144 144
150 150 150
164 164 164
170 170 170
171 171 171
167 167 167
191 191 191
208 208 208
210 210 210
195 195 195
195 195 195
186 186 186
167 167 167
168 168 168
177 177 177
175 175 175
193 193 193
207 207 207
203 203 203
186 186 186
162 162 162
136 136 136
130 130 130
138 138 138
163 163 163
184 184 184
198 198 198
197 197 197
184 184 184
178 178 178
166 166 166
181 181 181
201 201 201
208 208 208
199 199 199
178 178 178
153 153 153
156 156 156
163 163 163
161 161 161
151 151 151
170 170 170
192 192 192
204 204 204
201 201 201
184 184 184
162 162 162
138 138 138
139 139 139
156 156 156
169 169 169
172 172 172
175 175 175
193 193 193
199 199 199
191 191 191
183 183 183
198 198 198
199 199 199
186 186 186
176 176 176
169 169 169
153 153 153
169 169 169
178 178 178
177 177 177
195 195 195
193 193 193
190 190 190
175 175 175
154 154 154
156 156 156
155 155 155
145 145 145
170 170 170
194 194 194
210 210 210
210 210 210
193 193 193
169 169 169
160 160 160
181 181 181
195 195 195
196 196 196
184 184 184
163 163 163
152 152 152
169 169 169
178 178 178
176 176 176
163 163 163
175 175 175
202 202 202
223 223 223
224 224 224
203 203 203
177 177 177
149 149 149
152 152 152
174 174 174
190 190 190
194 194 194
190 190 190
214 214 214
225 225 225
212 212 212
187 187 187
177 177 177
178 178 178
170 170 170
155 155 155
146 146 146
145 145 145
161 161 161
175 175 175
194 194 194
202 202 202
170 170 170
168 168 168
156 156 156
168 168 168
177 177 177
176 176 176
164 164 164
167 167 167
190 190 190
205 205 205
205 205 205
190 190 190
167 167 167
172 172 172
197 197 197
217 217 217
219 219 219
201 201 201
176 176 176
161 161 161
173 173 173
182 182 182
180 180 180
167 167 167
180 180 180
209 209 209
238 238 238
239 239 239
211 211 211
181 181 181
152 152 152
159 159 159
183 183 183
202 202 202
207 207 207
196 196 196
221 221 221
235 235 235
218 218 218
191 191 191
162 162 162
162 162 162
156 156 156
143 143 143
124 124 124
131 131 131
158 158 158
185 185 185
208 208 208
219 219 219
144 144 144
142 142 142
162 162 162
181 181 181
192 192 192
190 190 190
176 176 176
174 174 174
176 176 176
190 190 190
192 192 192
181 181 181
162 162 162
174 174 174
201 201 201
223 223 223
225 225 225
205 205 205
178 178 178
173 173 173
172 172 172
176 176 176
174 174 174
162 162 162
173 173 173
199 199 199
219 219 219
219 219 219
200 200 200
175 175 175
147 147 147
157 157 157
181 181 181
199 199 199
204 204 204
194 194 194
206 206 206
214 214 214
203 203 203
182 182 182
156 156 156
141 141 141
137 137 137
125 125 125
109 109 109
130 130 130
157 157 157
183 183 183
206 206 206
216 216 216
138 138 138
139 139 139
163 163 163
183 183 183
194 194 194
192 192 192
190 190 190
200 200 200
196 196 196
215 215 215
219 219 219
202 202 202
177 177 177
182 182 182
189 189 189
206 206 206
207 207 207
193 193 193
170 170 170
176 176 176
174 174 174
163 163 163
158 158 158
148 148 148
158 158 158
178 178 178
191 191 191
191 191 191
179 179 179
159 159 159
135 135 135
147 147 147
168 168 168
182 182 182
187 187 187
179 179 179
181 181 181
187 187 187
180 180 180
163 163 163
142 142 142
123 123 123
125 125 125
133 133 133
134 134 134
128 128 128
148 148 148
171 171 171
189 189 189
196 196 196
167 167 167
167 167 167
158 158 158
173 173 173
183 183 183
181 181 181
205 205 205
220 220 220
214 214 214
229 229 229
235 235 235
212 212 212
204 204 204
212 212 212
201 201 201
181 181 181
182 182 182
172 172 172
159 159 159
168 168 168
166 166 166
156 156 156
142 142 142
142 142 142
141 141 141
153 153 153
162 162 162
162 162 162
154 154 154
138 138 138
121 121 121
137 137 137
157 157 157
170 170 170
175 175 175
169 169 169
154 154 154
158 158 158
153 153 153
140 140 140
125 125 125
135 135 135
152 152 152
162 162 162
163 163 163
155 155 155
146 146 146
160 160 160
167 167 167
170 170 170
196 196 196
196 196 196
183 183 183
162 162 162
165 165 165
181 181 181
205 205 205
220 220 220
214 214 214
216 216 216
220 220 220
203 203 203
224 224 224
240 240 240
220 220 220
192 192 192
163 163 163
146 146 146
144 144 144
151 151 151
150 150 150
141 141 141
139 139 139
146 146 146
149 149 149
162 162 162
167 167 167
162 162 162
149 149 149
148 148 148
145 145 145
154 154 154
178 178 178
197 197 197
204 204 204
195 195 195
179 179 179
168 168 168
149 149 149
154 154 154
154 154 154
155 155 155
176 176 176
190 190 190
192 192 192
181 181 181
162 162 162
178 178 178
187 187 187
183 183 183
222 222 222
223 223 223
202 202 202
176 176 176
191 191 191
194 194 194
190 190 190
201 201 201
196 196 196
191 191 191
193 193 193
195 195 195
222 222 222
237 237 237
219 219 219
191 191 191
163 163 163
138 138 138
141 141 141
153 153 153
158 158 158
155 155 155
160 160 160
169 169 169
169 169 169
163 163 163
168 168 168
163 163 163
164 164 164
170 170 170
167 167 167
165 165 165
193 193 193
218 218 218
231 231 231
216 216 216
207 207 207
190 190 190
173 173 173
183 183 183
182 182 182
170 170 170
196 196 196
217 217 217
220 220 220
203 203 203
178 178 178
187 187 187
197 197 197
202 202 202
237 237 237
237 237 237
210 210 210
191 191 191
211 211 211
215 215 215
201 201 201
178 178 178
172 172 172
163 163 163
165 165 165
181 181 181
201 201 201
208 208 208
199 199 199
178 178 178
153 153 153
142 142 142
147 147 147
160 160 160
165 165 165
161 161 161
177 177 177
188 188 188
187 187 187
175 175 175
160 160 160
162 162 162
179 179 179
187 187 187
182 182 182
168 168 168
195 195 195
223 223 223
239 239 239
232 232 232
229 229 229
204 204 204
196 196 196
212 212 212
210 210 210
193 193 193
205 205 205
233 233 233
240 240 240
213 213 213
184 184 184
185 185 185
194 194 194
209 209 209
218 218 218
218 218 218
199 199 199
194 194 194
215 215 215
221 221 221
205 205 205
180 180 180
153 153 153
156 156 156
176 176 176
189 189 189
190 190 190
179 179 179
173 173 173
158 158 158
139 139 139
139 139 139
144 144 144
158 158 158
163 163 163
164 164 164
185 185 185
198 198 198
196 196 196
182 182 182
161 161 161
166 166 166
184 184 184
193 193 193
188 188 188
172 172 172
186 186 186
205 205 205
214 214 214
230 230 230
227 227 227
204 204 204
211 211 211
237 237 237
233 233 233
206 206 206
198 198 198
220 220 220
224 224 224
205 205 205
194 194 194
203 203 203
197 197 197
199 199 199
190 190 190
191 191 191
178 178 178
184 184 184
201 201 201
205 205 205
193 193 193
185 185 185
171 171 171
157 157 157
178 178 178
191 191 191
192 192 192
180 180 180
160 160 160
137 137 137
140 140 140
152 152 152
156 156 156
151 151 151
152 152 152
161 161 161
181 181 181
193 193 193
192 192 192
178 178 178
157 157 157
161 161 161
178 178 178
185 185 185
181 181 181
186 186 186
209 209 209
220 220 220
210 210 210
205 205 205
204 204 204
188 188 188
208 208 208
231 231 231
229 229 229
204 204 204
179 179 179
194 194 194
196 196 196
184 184 184
197 197 197
207 207 207
201 201 201
182 182 182
162 162 162
162 162 162
167 167 167
173 173 173
178 178 178
201 201 201
216 216 216
211 211 211
192 192 192
166 166 166
169 169 169
180 180 180
181 181 181
171 171 171
153 153 153
139 139 139
160 160 160
174 174 174
179 179 179
172 172 172
157 157 157
149 149 149
166 166 166
176 176 176
175 175 175
164 164 164
146 146 146
147 147 147
162 162 162
168 168 168
165 165 165
192 192 192
220 220 220
237 237 237
221 221 221
194 194 194
176 176 176
168 168 168
190 190 190
204 204 204
203 203 203
187 187 187
165 165 165
166 166 166
167 167 167
168 168 168
187 187 187
195 195 195
190 190 190
173 173 173
148 148 148
171 171 171
190 190 190
199 199 199
193 193 193
214 214 214
239 239 239
230 230 230
203 203 203
174 174 174
151 151 151
161 161 161
162 162 162
153 153 153
138 138 138
150 150 150
172 172 172
189 189 189
196 196 196
188 188 188
170 170 170
147 147 147
146 146 146
153 153 153
153 153 153
144 144 144
140 140 140
153 153 153
159 159 159
156 156 156
159 159 159
186 186 186
209 209 209
221 221 221
210 210 210
187 187 187
161 161 161
149 149 149
166 166 166
176 176 176
175 175 175
164 164 164
146 146 146
137 137 137
138 138 138
152 152 152
167 167 167
173 173 173
169 169 169
156 156 156
156 156 156
182 182 182
205 205 205
217 217 217
208 208 208
208 208 208
227 227 227
221 221 221
198 198 198
173 173 173
155 155 155
137 137 137
138 138 138
131 131 131
127 127 127
152 152 152
176 176 176
194 194 194
200 200 200
192 192 192
173 173 173
170 170 170
171 171 171
163 163 163
146 146 146
127 127 127
146 146 146
160 160 160
167 167 167
163 163 163
151 151 151
169 169 169
186 186 186
193 193 193
187 187 187
170 170 170
148 148 148
145 145 145
154 154 154
155 155 155
148 148 148
138 138 138
144 144 144
149 149 149
146 146 146
136 136 136
143 143 143
148 148 148
145 145 145
142 142 142
156 156 156
182 182 182
205 205 205
217 217 217
208 208 208
189 189 189
200 200 200
210 210 210
212 212 212
196 196 196
173 173 173
146 146 146
136 136 136
147 147 147
150 150 150
147 147 147
169 169 169
185 185 185
190 190 190
183 183 183
177 177 177
191 191 191
192 192 192
181 181 181
161 161 161
138 138 138
145 145 145
159 159 159
165 165 165
162 162 162
150 150 150
147 147 147
160 160 160
165 165 165
160 160 160
147 147 147
147 147 147
165 165 165
177 177 177
178 178 178
168 168 168
156 156 156
167 167 167
173 173 173
170 170 170
157 157 157
165 165 165
167 167 167
160 160 160
145 145 145
163 163 163
171 171 171
190 190 190
198 198 198
192 192 192
177 177 177
206 206 206
233 233 233
237 237 237
211 211 211
183 183 183
153 153 153
161 161 161
175 175 175
180 180 180
173 173 173
160 160 160
184 184 184
202 202 202
206 206 206
194 194 194
202 202 202
204 204 204
191 191 191
169 169 169
143 143 143
136 136 136
149 149 149
154 154 154
151 151 151
147 147 147
166 166 166
179 179 179
181 181 181
172 172 172
155 155 155
158 158 158
179 179 179
193 193 193
194 194 194
189 189 189
182 182 182
185 185 185
193 193 193
188 188 188
173 173 173
187 187 187
190 190 190
180 180 180
161 161 161
186 186 186
196 196 196
193 193 193
177 177 177
169 169 169
176 176 176
204 204 204
229 229 229
232 232 232
209 209 209
181 181 181
158 158 158
183 183 183
202 202 202
209 209 209
199 199 199
178 178 178
199 199 199
225 225 225
234 234 234
213 213 213
198 198 198
200 200 200
187 187 187
170 170 170
149 149 149
132 132 132
141 141 141
143 143 143
138 138 138
164 164 164
189 189 189
206 206 206
210 210 210
196 196 196
173 173 173
161 161 161
183 183 183
197 197 197
205 205 205
214 214 214
203 203 203
193 193 193
203 203 203
197 197 197
184 184 184
200 200 200
204 204 204
192 192 192
171 171 171
202 202 202
216 216 216
211 211 211
191 191 191
167 167 167
164 164 164
188 188 188
204 204 204
205 205 205
191 191 191
169 169 169
168 168 168
196 196 196
224 224 224
238 238 238
218 218 218
191 191 191
201 201 201
229 229 229
240 240 240
216 216 216
199 199 199
212 212 212
207 207 207
188 188 188
163 163 163
136 136 136
141 141 141
142 142 142
145 145 145
174 174 174
203 203 203
229 229 229
236 236 236
213 213 213
184 184 184
155 155 155
174 174 174
191 191 191
215 215 215
227 227 227
213 213 213
188 188 188
197 197 197
192 192 192
183 183 183
200 200 200
203 203 203
191 191 191
186 186 186
204 204 204
219 219 219
213 213 213
192 192 192
166 166 166
156 156 156
164 164 164
175 175 175
176 176 176
167 167 167
150 150 150
168 168 168
197 197 197
225 225 225
240 240 240
219 219 219
191 191 191
188 188 188
208 208 208
213 213 213
200 200 200
209 209 209
226 226 226
219 219 219
196 196 196
169 169 169
145 145 145
135 135 135
139 139 139
147 147 147
174 174 174
202 202 202
228 228 228
234 234 234
212 212 212
184 184 184
184 184 184
177 177 177
185 185 185
206 206 206
215 215 215
204 204 204
182 182 182
179 179 179
175 175 175
171 171 171
185 185 185
202 202 202
217 217 217
213 213 213
190 190 190
201 201 201
198 198 198
182 182 182
187 187 187
180 180 180
163 163 163
147 147 147
147 147 147
140 140 140
132 132 132
159 159 159
184 184 184
204 204 204
211 211 211
200 200 200
179 179 179
193 193 193
195 195 195
184 184 184
178 178 178
201 201 201
215 215 215
209 209 209
192 192 192
176 176 176
153 153 153
145 145 145
162 162 162
173 173 173
173 173 173
187 187 187
204 204 204
208 208 208
194 194 194
205 205 205
213 213 213
203 203 203
181 181 181
184 184 184
190 190 190
183 183 183
166 166 166
156 156 156
153 153 153
157 157 157
186 186 186
215 215 215
242 242 242
232 232 232
192 192 192
192 192 192
182 182 182
201 201 201
208 208 208
197 197 197
177 177 177
152 152 152
132 132 132
135 135 135
140 140 140
142 142 142
163 163 163
177 177 177
182 182 182
175 175 175
193 193 193
213 213 213
217 217 217
201 201 201
177 177 177
181 181 181
191 191 191
198 198 198
193 193 193
177 177 177
154 154 154
160 160 160
181 181 181
194 194 194
194 194 194
182 182 182
177 177 177
179 179 179
196 196 196
224 224 224
242 242 242
221 221 221
193 193 193
164 164 164
174 174 174
182 182 182
178 178 178
164 164 164
144 144 144
154 154 154
183 183 183
209 209 209
229 229 229
223 223 223
204 204 204
203 203 203
188 188 188
207 207 207
214 214 214
203 203 203
181 181 181
155 155 155
140 140 140
157 157 157
168 168 168
168 168 168
168 168 168
173 173 173
168 168 168
170 170 170
196 196 196
218 218 218
222 222 222
205 205 205
180 180 180
175 175 175
177 177 177
185 185 185
181 181 181
167 167 167
146 146 146
167 167 167
190 190 190
206 206 206
207 207 207
191 191 191
172 172 172
167 167 167
195 195 195
222 222 222
237 237 237
219 219 219
191 191 191
166 166 166
184 184 184
193 193 193
189 189 189
174 174 174
156 156 156
160 160 160
168 168 168
189 189 189
201 201 201
197 197 197
200 200 200
199 199 199
185 185 185
196 196 196
202 202 202
193 193 193
173 173 173
149 149 149
159 159 159
180 180 180
194 194 194
195 195 195
183 183 183
178 178 178
173 173 173
162 162 162
185 185 185
202 202 202
205 205 205
193 193 193
179 179 179
193 193 193
194 194 194
181 181 181
161 161 161
150 150 150
139 139 139
165 165 165
187 187 187
202 202 202
202 202 202
188 188 188
184 184 184
177 177 177
181 181 181
200 200 200
207 207 207
198 198 198
178 178 178
165 165 165
183 183 183
192 192 192
188 188 188
175 175 175
181 181 181
186 186 186
182 182 182
180 180 180
171 171 171
186 186 186
183 183 183
183 183 183
171 171 171
175 175 175
180 180 180
173 173 173
157 157 157
144 144 144
171 171 171
197 197 197
216 216 216
217 217 217
200 200 200
175 175 175
168 168 168
154 154 154
166 166 166
178 178 178
180 180 180
187 187 187
186 186 186
199 199 199
200 200 200
187 187 187
166 166 166
140 140 140
130 130 130
153 153 153
173 173 173
184 184 184
185 185 185
179 179 179
184 184 184
178 178 178
162 162 162
173 173 173
178 178 178
172 172 172
157 157 157
155 155 155
175 175 175
194 194 194
203 203 203
196 196 196
200 200 200
208 208 208
208 208 208
205 205 205
188 188 188
172 172 172
159 159 159
159 159 159
154 154 154
170 170 170
178 178 178
175 175 175
162 162 162
146 146 146
174 174 174
200 200 200
222 222 222
224 224 224
204 204 204
178 178 178
157 157 157
141 141 141
145 145 145
171 171 171
194 194 194
209 209 209
208 208 208
191 191 191
192 192 192
180 180 180
160 160 160
136 136 136
136 136 136
136 136 136
152 152 152
161 161 161
161 161 161
168 168 168
173 173 173
167 167 167
153 153 153
150 150 150
149 149 149
144 144 144
141 141 141
157 157 157
183 183 183
205 205 205
216 216 216
207 207 207
207 207 207
216 216 216
226 226 226
221 221 221
199 199 199
171 171 171
135 135 135
155 155 155
172 172 172
192 192 192
203 203 203
199 199 199
182 182 182
158 158 158
166 166 166
190 190 190
206 206 206
207 207 207
192 192 192
180 180 180
169 169 169
158 158 158
161 161 161
176 176 176
201 201 201
219 219 219
217 217 217
198 198 198
173 173 173
164 164 164
147 147 147
140 140 140
143 143 143
141 141 141
131 131 131
134 134 134
139 139 139
150 150 150
154 154 154
149 149 149
155 155 155
157 157 157
154 154 154
165 165 165
167 167 167
159 159 159
179 179 179
200 200 200
209 209 209
201 201 201
197 197 197
205 205 205
220 220 220
216 216 216
196 196 196
189 189 189
152 152 152
176 176 176
196 196 196
205 205 205
221 221 221
214 214 214
192 192 192
166 166 166
154 154 154
169 169 169
181 181 181
182 182 182
184 184 184
183 183 183
171 171 171
170 170 170
173 173 173
170 170 170
193 193 193
208 208 208
206 206 206
190 190 190
166 166 166
156 156 156
167 167 167
169 169 169
161 161 161
146 146 146
139 139 139
139 139 139
132 132 132
128 128 128
131 131 131
143 143 143
154 154 154
156 156 156
172 172 172
186 186 186
189 189 189
179 179 179
165 165 165
182 182 182
189 189 189
183 183 183
177 177 177
185 185 185
197 197 197
197 197 197
205 205 205
198 198 198
162 162 162
190 190 190
217 217 217
233 233 233
219 219 219
211 211 211
190 190 190
165 165 165
143 143 143
148 148 148
162 162 162
183 183 183
197 197 197
197 197 197
184 184 184
172 172 172
175 175 175
168 168 168
174 174 174
185 185 185
184 184 184
172 172 172
157 157 157
179 179 179
195 195 195
198 198 198
186 186 186
166 166 166
168 168 168
168 168 168
159 159 159
142 142 142
154 154 154
163 163 163
163 163 163
161 161 161
182 182 182
199 199 199
203 203 203
191 191 191
170 170 170
158 158 158
163 163 163
159 159 159
152 152 152
161 161 161
173 173 173
191 191 191
199 199 199
192 192 192
164 164 164
193 193 193
221 221 221
242 242 242
224 224 224
196 196 196
176 176 176
155 155 155
150 150 150
144 144 144
171 171 171
195 195 195
213 213 213
214 214 214
196 196 196
172 172 172
167 167 167
161 161 161
150 150 150
158 158 158
158 158 158
148 148 148
170 170 170
197 197 197
219 219 219
224 224 224
206 206 206
183 183 183
197 197 197
197 197 197
184 184 184
163 163 163
178 178 178
190 190 190
190 190 190
179 179 179
197 197 197
204 204 204
202 202 202
190 190 190
170 170 170
162 162 162
176 176 176
180 180 180
173 173 173
157 157 157
159 159 159
174 174 174
180 180 180
175 175 175
156 156 156
182 182 182
204 204 204
214 214 214
206 206 206
185 185 185
159 159 159
153 153 153
148 148 148
143 143 143
170 170 170
195 195 195
212 212 212
212 212 212
195 195 195
172 172 172
174 174 174
165 165 165
148 148 148
130 130 130
137 137 137
156 156 156
178 178 178
203 203 203
229 229 229
237 237 237
213 213 213
203 203 203
224 224 224
225 225 225
204 204 204
177 177 177
197 197 197
214 214 214
214 214 214
196 196 196
209 209 209
218 218 218
206 206 206
183 183 183
159 159 159
182 182 182
200 200 200
206 206 206
196 196 196
175 175 175
151 151 151
151 151 151
156 156 156
152 152 152
141 141 141
163 163 163
179 179 179
185 185 185
180 180 180
165 165 165
176 176 176
178 178 178
169 169 169
152 152 152
160 160 160
181 181 181
194 194 194
194 194 194
182 182 182
186 186 186
188 188 188
177 177 177
158 158 158
135 135 135
134 134 134
160 160 160
184 184 184
201 201 201
213 213 213
217 217 217
201 201 201
210 210 210
239 239 239
240 240 240
211 211 211
181 181 181
204 204 204
225 225 225
224 224 224
203 203 203
204 204 204
212 212 212
201 201 201
180 180 180
165 165 165
192 192 192
216 216 216
225 225 225
210 210 210
185 185 185
163 163 163
161 161 161
151 151 151
134 134 134
152 152 152
176 176 176
195 195 195
204 204 204
196 196 196
184 184 184
200 200 200
202 202 202
190 190 190
168 168 168
169 169 169
185 185 185
190 190 190
182 182 182
175 175 175
188 188 188
190 190 190
179 179 179
160 160 160
137 137 137
133 133 133
155 155 155
177 177 177
193 193 193
196 196 196
189 189 189
179 179 179
199 199 199
218 218 218
219 219 219
200 200 200
174 174 174
195 195 195
212 212 212
211 211 211
194 194 194
186 186 186
191 191 191
184 184 184
178 178 178
180 180 180
190 190 190
212 212 212
220 220 220
206 206 206
183 183 183
187 187 187
184 184 184
171 171 171
150 150 150
160 160 160
187 187 187
210 210 210
223 223 223
212 212 212
195 195 195
216 216 216
219 219 219
202 202 202
183 183 183
177 177 177
195 195 195
201 201 201
192 192 192
173 173 173
178 178 178
180 180 180
170 170 170
153 153 153
131 131 131
149 149 149
169 169 169
182 182 182
184 184 184
177 177 177
182 182 182
192 192 192
203 203 203
198 198 198
191 191 191
179 179 179
159 159 159
176 176 176
187 187 187
187 187 187
175 175 175
161 161 161
165 165 165
184 184 184
201 201 201
203 203 203
191 191 191
193 193 193
198 198 198
189 189 189
192 192 192
204 204 204
201 201 201
184 184 184
161 161 161
159 159 159
185 185 185
208 208 208
220 220 220
210 210 210
193 193 193
212 212 212
215 215 215
199 199 199
192 192 192
181 181 181
192 192 192
197 197 197
189 189 189
170 170 170
167 167 167
167 167 167
157 157 157
140 140 140
134 134 134
160 160 160
182 182 182
198 198 198
200 200 200
188 188 188
205 205 205
221 221 221
215 215 215
207 207 207
187 187 187
162 162 162
137 137 137
151 151 151
160 160 160
160 160 160
151 151 151
140 140 140
168 168 168
193 193 193
213 213 213
216 216 216
200 200 200
176 176 176
171 171 171
172 172 172
194 194 194
207 207 207
204 204 204
186 186 186
167 167 167
161 161 161
173 173 173
191 191 191
199 199 199
192 192 192
178 178 178
193 193 193
195 195 195
185 185 185
187 187 187
177 177 177
176 176 176
181 181 181
174 174 174
158 158 158
158 158 158
158 158 158
149 149 149
133 133 133
136 136 136
161 161 161
184 184 184
201 201 201
204 204 204
191 191 191
216 216 216
242 242 242
231 231 231
203 203 203
181 181 181
158 158 158
134 134 134
140 140 140
140 140 140
131 131 131
135 135 135
146 146 146
164 164 164
189 189 189
206 206 206
209 209 209
195 195 195
175 175 175
162 162 162
164 164 164
183 183 183
194 194 194
191 191 191
180 180 180
190 190 190
182 182 182
186 186 186
178 178 178
172 172 172
168 168 168
157 157 157
167 167 167
169 169 169
170 170 170
171 171 171
163 163 163
154 154 154
158 158 158
158 158 158
157 157 157
162 162 162
158 158 158
146 146 146
133 133 133
130 130 130
154 154 154
175 175 175
189 189 189
191 191 191
182 182 182
207 207 207
224 224 224
218 218 218
196 196 196
169 169 169
145 145 145
161 161 161
170 170 170
168 168 168
158 158 158
158 158 158
172 172 172
177 177 177
173 173 173
191 191 191
205 205 205
203 203 203
187 187 187
177 177 177
161 161 161
164 164 164
172 172 172
175 175 175
197 197 197
211 211 211
194 194 194
199 199 199
189 189 189
170 170 170
146 146 146
132 132 132
144 144 144
159 159 159
167 167 167
170 170 170
170 170 170
161 161 161
171 171 171
182 182 182
182 182 182
181 181 181
177 177 177
162 162 162
142 142 142
140 140 140
149 149 149
157 157 157
168 168 168
170 170 170
166 166 166
186 186 186
196 196 196
193 193 193
178 178 178
156 156 156
165 165 165
186 186 186
198 198 198
197 197 197
182 182 182
176 176 176
194 194 194
201 201 201
193 193 193
190 190 190
204 204 204
202 202 202
188 188 188
181 181 181
165 165 165
145 145 145
166 166 166
181 181 181
202 202 202
217 217 217
193 193 193
198 198 198
188 188 188
169 169 169
146 146 146
139 139 139
158 158 158
176 176 176
185 185 185
192 192 192
193 193 193
180 180 180
188 188 188
202 202 202
202 202 202
192 192 192
186 186 186
170 170 170
148 148 148
153 153 153
163 163 163
164 164 164
156 156 156
145 145 145
145 145 145
160 160 160
167 167 167
165 165 165
154 154 154
151 151 151
179 179 179
206 206 206
226 226 226
223 223 223
200 200 200
186 186 186
208 208 208
218 218 218
207 207 207
184 184 184
188 188 188
187 187 187
181 181 181
175 175 175
159 159 159
156 156 156
180 180 180
200 200 200
207 207 207
203 203 203
179 179 179
183 183 183
176 176 176
159 159 159
146 146 146
147 147 147
165 165 165
184 184 184
194 194 194
206 206 206
207 207 207
191 191 191
193 193 193
209 209 209
209 209 209
192 192 192
184 184 184
168 168 168
147 147 147
158 158 158
169 169 169
170 170 170
161 161 161
150 150 150
150 150 150
160 160 160
166 166 166
163 163 163
151 151 151
161 161 161
184 184 184
212 212 212
239 239 239
234 234 234
206 206 206
185 185 185
206 206 206
215 215 215
204 204 204
182 182 182
166 166 166
164 164 164
164 164 164
159 159 159
146 146 146
159 159 159
184 184 184
205 205 205
214 214 214
204 204 204
