P3
50 50
255
110 110 110
138 138 138
166 166 166
192 192 192
214 214 214
221 221 221
206 206 206
217 217 217
224 224 224
209 209 209
184 184 184
156 156 156
184 184 184
212 212 212
235 235 235
229 229 229
202 202 202
174 174 174
145 145 145
116 116 116
121 121 121
130 130 130
133 133 133
146 146 146
169 169 169
188 188 188
197 197 197
191 191 191
175 175 175
152 152 152
127 127 127
128 128 128
143 143 143
151 151 151
163 163 163
182 182 182
191 191 191
188 188 188
173 173 173
152 152 152
131 131 131
135 135 135
143 143 143
143 143 143
141 141 141
160 160 160
173 173 173
176 176 176
168 168 168
152 152 152
112 112 112
141 141 141
170 170 170
198 198 198
223 223 223
233 233 233
213 213 213
212 212 212
219 219 219
205 205 205
181 181 181
156 156 156
185 185 185
213 213 213
238 238 238
231 231 231
204 204 204
175 175 175
147 147 147
124 124 124
141 141 141
153 153 153
156 156 156
151 151 151
174 174 174
194 194 194
204 204 204
198 198 198
180 180 180
156 156 156
130 130 130
148 148 148
166 166 166
176 176 176
179 179 179
203 203 203
218 218 218
212 212 212
191 191 191
166 166 166
140 140 140
157 157 157
166 166 166
166 166 166
157 157 157
175 175 175
190 190 190
193 193 193
184 184 184
165 165 165
108 108 108
136 136 136
164 164 164
189 189 189
209 209 209
215 215 215
202 202 202
192 192 192
197 197 197
187 187 187
168 168 168
148 148 148
174 174 174
197 197 197
211 211 211
208 208 208
201 201 201
184 184 184
161 161 161
138 138 138
157 157 157
171 171 171
175 175 175
169 169 169
168 168 168
186 186 186
195 195 195
190 190 190
173 173 173
151 151 151
138 138 138
163 163 163
184 184 184
198 198 198
198 198 198
214 214 214
235 235 235
225 225 225
199 199 199
171 171 171
154 154 154
173 173 173
185 185 185
185 185 185
173 173 173
180 180 180
196 196 196
200 200 200
189 189 189
169 169 169
99 99 99
125 125 125
149 149 149
170 170 170
185 185 185
188 188 188
180 180 180
167 167 167
170 170 170
163 163 163
148 148 148
133 133 133
155 155 155
178 178 178
202 202 202
217 217 217
212 212 212
192 192 192
167 167 167
156 156 156
166 166 166
181 181 181
186 186 186
179 179 179
163 163 163
169 169 169
175 175 175
171 171 171
159 159 159
154 154 154
143 143 143
170 170 170
193 193 193
210 210 210
209 209 209
205 205 205
220 220 220
214 214 214
193 193 193
166 166 166
160 160 160
181 181 181
194 194 194
194 194 194
181 181 181
174 174 174
189 189 189
192 192 192
182 182 182
164 164 164
113 113 113
112 112 112
129 129 129
146 146 146
157 157 157
160 160 160
154 154 154
140 140 140
142 142 142
137 137 137
129 129 129
122 122 122
148 148 148
174 174 174
196 196 196
209 209 209
205 205 205
187 187 187
181 181 181
183 183 183
174 174 174
180 180 180
185 185 185
178 178 178
162 162 162
147 147 147
152 152 152
165 165 165
169 169 169
164 164 164
150 150 150
171 171 171
189 189 189
204 204 204
204 204 204
189 189 189
194 194 194
190 190 190
175 175 175
153 153 153
158 158 158
178 178 178
190 190 190
190 190 190
178 178 178
161 161 161
171 171 171
173 173 173
166 166 166
150 150 150
141 141 141
139 139 139
130 130 130
120 120 120
129 129 129
131 131 131
126 126 126
128 128 128
142 142 142
149 149 149
148 148 148
140 140 140
150 150 150
172 172 172
188 188 188
194 194 194
185 185 185
186 186 186
203 203 203
207 207 207
194 194 194
173 173 173
182 182 182
191 191 191
186 186 186
171 171 171
166 166 166
168 168 168
170 170 170
165 165 165
161 161 161
185 185 185
203 203 203
207 207 207
194 194 194
173 173 173
165 165 165
163 163 163
152 152 152
134 134 134
147 147 147
164 164 164
174 174 174
182 182 182
179 179 179
166 166 166
166 166 166
159 159 159
145 145 145
135 135 135
166 166 166
164 164 164
153 153 153
136 136 136
115 115 115
108 108 108
119 119 119
139 139 139
155 155 155
163 163 163
162 162 162
152 152 152
152 152 152
175 175 175
192 192 192
197 197 197
189 189 189
194 194 194
216 216 216
221 221 221
204 204 204
183 183 183
206 206 206
220 220 220
212 212 212
190 190 190
189 189 189
192 192 192
182 182 182
163 163 163
164 164 164
189 189 189
208 208 208
212 212 212
199 199 199
176 176 176
173 173 173
168 168 168
155 155 155
146 146 146
149 149 149
152 152 152
169 169 169
177 177 177
175 175 175
191 191 191
195 195 195
186 186 186
167 167 167
158 158 158
188 188 188
186 186 186
172 172 172
152 152 152
128 128 128
136 136 136
140 140 140
143 143 143
159 159 159
168 168 168
167 167 167
156 156 156
146 146 146
167 167 167
182 182 182
187 187 187
179 179 179
189 189 189
208 208 208
212 212 212
198 198 198
191 191 191
220 220 220
248 248 248
229 229 229
200 200 200
205 205 205
209 209 209
196 196 196
173 173 173
158 158 158
180 180 180
196 196 196
200 200 200
189 189 189
182 182 182
189 189 189
184 184 184
169 169 169
158 158 158
162 162 162
156 156 156
163 163 163
167 167 167
193 193 193
216 216 216
224 224 224
208 208 208
183 183 183
178 178 178
202 202 202
199 199 199
183 183 183
160 160 160
151 151 151
164 164 164
169 169 169
164 164 164
155 155 155
163 163 163
162 162 162
152 152 152
136 136 136
151 151 151
163 163 163
167 167 167
161 161 161
173 173 173
187 187 187
190 190 190
180 180 180
186 186 186
213 213 213
229 229 229
219 219 219
195 195 195
207 207 207
211 211 211
197 197 197
174 174 174
148 148 148
162 162 162
175 175 175
177 177 177
169 169 169
187 187 187
195 195 195
190 190 190
173 173 173
163 163 163
166 166 166
164 164 164
178 178 178
182 182 182
201 201 201
229 229 229
244 244 244
218 218 218
189 189 189
190 190 190
202 202 202
199 199 199
183 183 183
160 160 160
173 173 173
191 191 191
198 198 198
190 190 190
172 172 172
150 150 150
149 149 149
140 140 140
125 125 125
130 130 130
140 140 140
143 143 143
147 147 147
151 151 151
162 162 162
164 164 164
156 156 156
171 171 171
191 191 191
200 200 200
195 195 195
178 178 178
192 192 192
195 195 195
184 184 184
165 165 165
141 141 141
140 140 140
149 149 149
151 151 151
163 163 163
180 180 180
187 187 187
182 182 182
167 167 167
161 161 161
175 175 175
179 179 179
184 184 184
188 188 188
193 193 193
215 215 215
223 223 223
207 207 207
187 187 187
190 190 190
187 187 187
185 185 185
171 171 171
170 170 170
189 189 189
213 213 213
224 224 224
212 212 212
188 188 188
161 161 161
132 132 132
123 123 123
131 131 131
146 146 146
155 155 155
155 155 155
161 161 161
159 159 159
149 149 149
136 136 136
150 150 150
157 157 157
164 164 164
171 171 171
172 172 172
197 197 197
215 215 215
216 216 216
198 198 198
173 173 173
146 146 146
129 129 129
128 128 128
131 131 131
149 149 149
163 163 163
169 169 169
165 165 165
154 154 154
177 177 177
194 194 194
199 199 199
190 190 190
181 181 181
174 174 174
190 190 190
194 194 194
207 207 207
204 204 204
187 187 187
180 180 180
178 178 178
175 175 175
184 184 184
193 193 193
221 221 221
237 237 237
220 220 220
193 193 193
164 164 164
135 135 135
129 129 129
153 153 153
172 172 172
183 183 183
184 184 184
173 173 173
166 166 166
155 155 155
155 155 155
172 172 172
181 181 181
179 179 179
166 166 166
178 178 178
206 206 206
230 230 230
230 230 230
207 207 207
179 179 179
150 150 150
125 125 125
142 142 142
153 153 153
155 155 155
156 156 156
153 153 153
143 143 143
159 159 159
183 183 183
202 202 202
209 209 209
198 198 198
177 177 177
159 159 159
172 172 172
195 195 195
209 209 209
206 206 206
188 188 188
170 170 170
168 168 168
178 178 178
187 187 187
185 185 185
207 207 207
216 216 216
206 206 206
184 184 184
158 158 158
130 130 130
143 143 143
170 170 170
194 194 194
211 211 211
212 212 212
195 195 195
171 171 171
156 156 156
168 168 168
189 189 189
200 200 200
197 197 197
181 181 181
172 172 172
198 198 198
216 216 216
217 217 217
199 199 199
174 174 174
146 146 146
138 138 138
157 157 157
169 169 169
175 175 175
182 182 182
179 179 179
165 165 165
155 155 155
178 178 178
196 196 196
201 201 201
192 192 192
172 172 172
148 148 148
163 163 163
183 183 183
194 194 194
192 192 192
177 177 177
152 152 152
153 153 153
170 170 170
178 178 178
176 176 176
183 183 183
189 189 189
182 182 182
166 166 166
144 144 144
120 120 120
150 150 150
179 179 179
207 207 207
234 234 234
235 235 235
209 209 209
180 180 180
178 178 178
189 189 189
194 194 194
207 207 207
204 204 204
186 186 186
163 163 163
178 178 178
191 191 191
191 191 191
179 179 179
159 159 159
159 159 159
158 158 158
164 164 164
178 178 178
195 195 195
206 206 206
201 201 201
183 183 183
159 159 159
163 163 163
177 177 177
181 181 181
174 174 174
158 158 158
137 137 137
147 147 147
163 163 163
171 171 171
170 170 170
158 158 158
130 130 130
139 139 139
153 153 153
160 160 160
158 158 158
156 156 156
160 160 160
155 155 155
143 143 143
135 135 135
137 137 137
148 148 148
177 177 177
204 204 204
227 227 227
228 228 228
206 206 206
179 179 179
193 193 193
208 208 208
206 206 206
197 197 197
194 194 194
179 179 179
157 157 157
154 154 154
163 163 163
163 163 163
155 155 155
165 165 165
174 174 174
174 174 174
163 163 163
181 181 181
205 205 205
219 219 219
212 212 212
191 191 191
165 165 165
142 142 142
153 153 153
157 157 157
151 151 151
138 138 138
120 120 120
126 126 126
139 139 139
145 145 145
144 144 144
135 135 135
105 105 105
123 123 123
142 142 142
156 156 156
163 163 163
160 160 160
150 150 150
156 156 156
154 154 154
147 147 147
148 148 148
142 142 142
165 165 165
187 187 187
202 202 202
203 203 203
188 188 188
173 173 173
196 196 196
212 212 212
210 210 210
192 192 192
175 175 175
163 163 163
153 153 153
166 166 166
171 171 171
166 166 166
152 152 152
170 170 170
181 181 181
180 180 180
169 169 169
182 182 182
199 199 199
211 211 211
205 205 205
186 186 186
161 161 161
141 141 141
145 145 145
142 142 142
139 139 139
139 139 139
132 132 132
118 118 118
113 113 113
118 118 118
131 131 131
137 137 137
105 105 105
128 128 128
148 148 148
163 163 163
169 169 169
166 166 166
159 159 159
166 166 166
163 163 163
152 152 152
153 153 153
146 146 146
146 146 146
163 163 163
174 174 174
174 174 174
164 164 164
165 165 165
186 186 186
198 198 198
196 196 196
182 182 182
160 160 160
157 157 157
172 172 172
190 190 190
197 197 197
190 190 190
172 172 172
166 166 166
176 176 176
175 175 175
171 171 171
199 199 199
223 223 223
229 229 229
210 210 210
183 183 183
155 155 155
161 161 161
167 167 167
162 162 162
168 168 168
168 168 168
159 159 159
142 142 142
125 125 125
141 141 141
157 157 157
165 165 165
115 115 115
126 126 126
145 145 145
160 160 160
166 166 166
163 163 163
159 159 159
166 166 166
163 163 163
163 163 163
170 170 170
167 167 167
155 155 155
137 137 137
145 145 145
145 145 145
155 155 155
166 166 166
167 167 167
176 176 176
182 182 182
177 177 177
163 163 163
169 169 169
185 185 185
207 207 207
218 218 218
207 207 207
185 185 185
159 159 159
161 161 161
161 161 161
174 174 174
204 204 204
232 232 232
243 243 243
216 216 216
186 186 186
161 161 161
176 176 176
182 182 182
184 184 184
197 197 197
197 197 197
183 183 183
162 162 162
152 152 152
161 161 161
180 180 180
191 191 191
124 124 124
124 124 124
135 135 135
148 148 148
154 154 154
154 154 154
150 150 150
156 156 156
167 167 167
186 186 186
195 195 195
192 192 192
176 176 176
154 154 154
136 136 136
158 158 158
180 180 180
194 194 194
196 196 196
198 198 198
208 208 208
200 200 200
181 181 181
172 172 172
186 186 186
209 209 209
220 220 220
209 209 209
186 186 186
171 171 171
157 157 157
141 141 141
167 167 167
193 193 193
213 213 213
217 217 217
207 207 207
191 191 191
167 167 167
181 181 181
188 188 188
203 203 203
224 224 224
224 224 224
203 203 203
186 186 186
176 176 176
173 173 173
197 197 197
213 213 213
127 127 127
127 127 127
134 134 134
152 152 152
163 163 163
165 165 165
158 158 158
152 152 152
178 178 178
201 201 201
215 215 215
209 209 209
189 189 189
166 166 166
165 165 165
172 172 172
198 198 198
220 220 220
224 224 224
211 211 211
225 225 225
214 214 214
190 190 190
182 182 182
181 181 181
195 195 195
202 202 202
194 194 194
201 201 201
194 194 194
175 175 175
151 151 151
151 151 151
177 177 177
201 201 201
217 217 217
213 213 213
193 193 193
167 167 167
175 175 175
182 182 182
210 210 210
239 239 239
239 239 239
210 210 210
209 209 209
196 196 196
177 177 177
202 202 202
220 220 220
123 123 123
123 123 123
136 136 136
154 154 154
165 165 165
168 168 168
160 160 160
153 153 153
179 179 179
203 203 203
216 216 216
211 211 211
190 190 190
195 195 195
193 193 193
179 179 179
205 205 205
234 234 234
241 241 241
214 214 214
218 218 218
209 209 209
187 187 187
191 191 191
190 190 190
177 177 177
186 186 186
208 208 208
219 219 219
208 208 208
186 186 186
159 159 159
157 157 157
186 186 186
215 215 215
242 242 242
233 233 233
204 204 204
175 175 175
160 160 160
174 174 174
199 199 199
218 218 218
218 218 218
217 217 217
222 222 222
205 205 205
180 180 180
192 192 192
206 206 206
134 134 134
144 144 144
146 146 146
148 148 148
158 158 158
171 171 171
180 180 180
178 178 178
169 169 169
189 189 189
199 199 199
195 195 195
204 204 204
223 223 223
220 220 220
199 199 199
196 196 196
217 217 217
220 220 220
203 203 203
195 195 195
189 189 189
175 175 175
186 186 186
185 185 185
173 173 173
184 184 184
206 206 206
216 216 216
206 206 206
184 184 184
158 158 158
154 154 154
183 183 183
210 210 210
230 230 230
224 224 224
200 200 200
172 172 172
143 143 143
158 158 158
178 178 178
190 190 190
190 190 190
208 208 208
212 212 212
198 198 198
183 183 183
178 178 178
182 182 182
159 159 159
172 172 172
175 175 175
168 168 168
171 171 171
194 194 194
207 207 207
204 204 204
187 187 187
167 167 167
175 175 175
184 184 184
213 213 213
242 242 242
237 237 237
207 207 207
193 193 193
217 217 217
225 225 225
209 209 209
184 184 184
164 164 164
162 162 162
171 171 171
170 170 170
160 160 160
172 172 172
189 189 189
196 196 196
189 189 189
172 172 172
159 159 159
168 168 168
169 169 169
190 190 190
202 202 202
199 199 199
183 183 183
160 160 160
134 134 134
137 137 137
153 153 153
162 162 162
172 172 172
186 186 186
189 189 189
179 179 179
174 174 174
170 170 170
157 157 157
181 181 181
198 198 198
204 204 204
193 193 193
181 181 181
208 208 208
228 228 228
224 224 224
200 200 200
173 173 173
163 163 163
178 178 178
203 203 203
222 222 222
220 220 220
199 199 199
196 196 196
221 221 221
231 231 231
213 213 213
186 186 186
158 158 158
142 142 142
149 149 149
149 149 149
140 140 140
152 152 152
166 166 166
171 171 171
166 166 166
162 162 162
182 182 182
194 194 194
194 194 194
180 180 180
173 173 173
171 171 171
159 159 159
141 141 141
125 125 125
120 120 120
126 126 126
133 133 133
150 150 150
160 160 160
162 162 162
155 155 155
157 157 157
153 153 153
157 157 157
195 195 195
220 220 220
229 229 229
212 212 212
186 186 186
206 206 206
225 225 225
221 221 221
198 198 198
172 172 172
157 157 157
162 162 162
182 182 182
194 194 194
193 193 193
189 189 189
204 204 204
205 205 205
211 211 211
199 199 199
177 177 177
157 157 157
158 158 158
150 150 150
136 136 136
117 117 117
136 136 136
159 159 159
178 178 178
189 189 189
188 188 188
199 199 199
216 216 216
215 215 215
197 197 197
181 181 181
175 175 175
159 159 159
149 149 149
150 150 150
143 143 143
129 129 129
147 147 147
161 161 161
167 167 167
163 163 163
151 151 151
135 135 135
139 139 139
168 168 168
197 197 197
223 223 223
234 234 234
215 215 215
188 188 188
190 190 190
202 202 202
199 199 199
184 184 184
161 161 161
144 144 144
143 143 143
157 157 157
165 165 165
178 178 178
206 206 206
230 230 230
231 231 231
207 207 207
179 179 179
163 163 163
174 174 174
175 175 175
166 166 166
149 149 149
128 128 128
146 146 146
173 173 173
196 196 196
211 211 211
209 209 209
203 203 203
222 222 222
221 221 221
201 201 201
199 199 199
191 191 191
172 172 172
170 170 170
171 171 171
162 162 162
146 146 146
167 167 167
185 185 185
193 193 193
188 188 188
172 172 172
154 154 154
147 147 147
169 169 169
185 185 185
204 204 204
211 211 211
199 199 199
177 177 177
166 166 166
175 175 175
173 173 173
161 161 161
153 153 153
147 147 147
163 163 163
174 174 174
175 175 175
179 179 179
208 208 208
235 235 235
236 236 236
210 210 210
181 181 181
170 170 170
183 183 183
184 184 184
174 174 174
156 156 156
133 133 133
149 149 149
177 177 177
202 202 202
219 219 219
217 217 217
197 197 197
206 206 206
205 205 205
198 198 198
205 205 205
196 196 196
176 176 176
185 185 185
186 186 186
175 175 175
156 156 156
181 181 181
203 203 203
215 215 215
208 208 208
187 187 187
172 172 172
164 164 164
160 160 160
165 165 165
180 180 180
195 195 195
196 196 196
184 184 184
164 164 164
146 146 146
160 160 160
174 174 174
177 177 177
170 170 170
186 186 186
201 201 201
202 202 202
188 188 188
194 194 194
211 211 211
211 211 211
195 195 195
171 171 171
168 168 168
180 180 180
181 181 181
171 171 171
153 153 153
131 131 131
144 144 144
170 170 170
192 192 192
206 206 206
204 204 204
188 188 188
181 181 181
181 181 181
189 189 189
195 195 195
187 187 187
175 175 175
188 188 188
190 190 190
178 178 178
159 159 159
184 184 184
208 208 208
222 222 222
213 213 213
191 191 191
183 183 183
174 174 174
157 157 157
167 167 167
191 191 191
208 208 208
210 210 210
195 195 195
172 172 172
153 153 153
176 176 176
192 192 192
197 197 197
187 187 187
201 201 201
223 223 223
225 225 225
205 205 205
178 178 178
183 183 183
183 183 183
172 172 172
153 153 153
156 156 156
166 166 166
168 168 168
159 159 159
153 153 153
142 142 142
132 132 132
155 155 155
173 173 173
183 183 183
181 181 181
169 169 169
154 154 154
156 156 156
170 170 170
174 174 174
168 168 168
168 168 168
180 180 180
181 181 181
171 171 171
153 153 153
176 176 176
196 196 196
206 206 206
200 200 200
181 181 181
182 182 182
173 173 173
156 156 156
165 165 165
189 189 189
205 205 205
207 207 207
193 193 193
170 170 170
158 158 158
182 182 182
200 200 200
205 205 205
195 195 195
203 203 203
226 226 226
228 228 228
206 206 206
179 179 179
154 154 154
154 154 154
161 161 161
171 171 171
170 170 170
160 160 160
169 169 169
176 176 176
173 173 173
159 159 159
152 152 152
173 173 173
187 187 187
189 189 189
179 179 179
161 161 161
141 141 141
143 143 143
146 146 146
149 149 149
146 146 146
152 152 152
162 162 162
163 163 163
155 155 155
139 139 139
159 159 159
175 175 175
182 182 182
177 177 177
169 169 169
171 171 171
163 163 163
147 147 147
157 157 157
175 175 175
188 188 188
189 189 189
178 178 178
159 159 159
178 178 178
195 195 195
200 200 200
198 198 198
188 188 188
189 189 189
205 205 205
206 206 206
192 192 192
169 169 169
143 143 143
165 165 165
186 186 186
200 200 200
199 199 199
185 185 185
181 181 181
189 189 189
185 185 185
170 170 170
167 167 167
193 193 193
213 213 213
217 217 217
202 202 202
177 177 177
151 151 151
136 136 136
143 143 143
162 162 162
174 174 174
177 177 177
169 169 169
153 153 153
156 156 156
163 163 163
160 160 160
149 149 149
154 154 154
151 151 151
150 150 150
152 152 152
155 155 155
169 169 169
174 174 174
174 174 174
164 164 164
165 165 165
157 157 157
167 167 167
194 194 194
219 219 219
229 229 229
213 213 213
187 187 187
178 178 178
179 179 179
183 183 183
177 177 177
162 162 162
150 150 150
178 178 178
205 205 205
227 227 227
226 226 226
203 203 203
182 182 182
190 190 190
186 186 186
171 171 171
174 174 174
202 202 202
229 229 229
237 237 237
213 213 213
185 185 185
166 166 166
161 161 161
160 160 160
184 184 184
201 201 201
205 205 205
193 193 193
172 172 172
175 175 175
183 183 183
179 179 179
166 166 166
145 145 145
138 138 138
135 135 135
152 152 152
176 176 176
195 195 195
183 183 183
183 183 183
172 172 172
153 153 153
141 141 141
170 170 170
199 199 199
228 228 228
245 245 245
220 220 220
191 191 191
177 177 177
196 196 196
204 204 204
196 196 196
177 177 177
153 153 153
182 182 182
211 211 211
239 239 239
237 237 237
209 209 209
179 179 179
179 179 179
175 175 175
161 161 161
170 170 170
197 197 197
219 219 219
224 224 224
206 206 206
182 182 182
188 188 188
182 182 182
171 171 171
199 199 199
224 224 224
231 231 231
212 212 212
185 185 185
186 186 186
195 195 195
191 191 191
175 175 175
153 153 153
129 129 129
134 134 134
163 163 163
190 190 190
215 215 215
180 180 180
180 180 180
169 169 169
151 151 151
135 135 135
163 163 163
189 189 189
211 211 211
219 219 219
206 206 206
182 182 182
182 182 182
203 203 203
213 213 213
203 203 203
182 182 182
157 157 157
174 174 174
199 199 199
216 216 216
216 216 216
197 197 197
172 172 172
159 159 159
156 156 156
145 145 145
157 157 157
179 179 179
194 194 194
197 197 197
186 186 186
196 196 196
203 203 203
195 195 195
176 176 176
200 200 200
226 226 226
235 235 235
213 213 213
186 186 186
184 184 184
194 194 194
189 189 189
174 174 174
152 152 152
127 127 127
135 135 135
164 164 164
192 192 192
219 219 219
167 167 167
167 167 167
157 157 157
141 141 141
124 124 124
148 148 148
170 170 170
185 185 185
190 190 190
188 188 188
191 191 191
181 181 181
195 195 195
203 203 203
195 195 195
176 176 176
152 152 152
157 157 157
177 177 177
188 188 188
188 188 188
175 175 175
156 156 156
135 135 135
133 133 133
147 147 147
168 168 168
183 183 183
188 188 188
180 180 180
178 178 178
196 196 196
204 204 204
195 195 195
176 176 176
187 187 187
206 206 206
210 210 210
197 197 197
175 175 175
172 172 172
180 180 180
176 176 176
163 163 163
150 150 150
132 132 132
129 129 129
156 156 156
181 181 181
202 202 202
147 147 147
147 147 147
139 139 139
138 138 138
144 144 144
142 142 142
146 146 146
163 163 163
187 187 187
205 205 205
209 209 209
196 196 196
182 182 182
182 182 182
176 176 176
162 162 162
165 165 165
158 158 158
151 151 151
159 159 159
159 159 159
150 150 150
134 134 134
126 126 126
135 135 135
162 162 162
188 188 188
210 210 210
217 217 217
205 205 205
181 181 181
183 183 183
189 189 189
182 182 182
166 166 166
170 170 170
184 184 184
188 188 188
179 179 179
168 168 168
163 163 163
169 169 169
175 175 175
170 170 170
156 156 156
137 137 137
145 145 145
157 157 157
162 162 162
177 177 177
124 124 124
123 123 123
139 139 139
153 153 153
160 160 160
157 157 157
146 146 146
165 165 165
189 189 189
208 208 208
212 212 212
198 198 198
199 199 199
198 198 198
184 184 184
186 186 186
190 190 190
181 181 181
163 163 163
141 141 141
146 146 146
148 148 148
142 142 142
130 130 130
140 140 140
170 170 170
199 199 199
227 227 227
244 244 244
220 220 220
191 191 191
162 162 162
167 167 167
182 182 182
190 190 190
186 186 186
192 192 192
195 195 195
185 185 185
170 170 170
164 164 164
166 166 166
172 172 172
167 167 167
153 153 153
137 137 137
158 158 158
173 173 173
179 179 179
173 173 173
103 103 103
126 126 126
146 146 146
161 161 161
168 168 168
165 165 165
153 153 153
157 157 157
179 179 179
194 194 194
198 198 198
190 190 190
204 204 204
203 203 203
187 187 187
204 204 204
209 209 209
198 198 198
176 176 176
161 161 161
174 174 174
177 177 177
170 170 170
154 154 154
138 138 138
167 167 167
195 195 195
220 220 220
231 231 231
214 214 214
187 187 187
159 159 159
182 182 182
206 206 206
220 220 220
212 212 212
191 191 191
189 189 189
180 180 180
162 162 162
157 157 157
154 154 154
159 159 159
155 155 155
143 143 143
142 142 142
163 163 163
179 179 179
186 186 186
180 180 180
117 117 117
137 137 137
152 152 152
159 159 159
166 166 166
163 163 163
152 152 152
150 150 150
160 160 160
172 172 172
174 174 174
180 180 180
192 192 192
192 192 192
188 188 188
208 208 208
214 214 214
201 201 201
179 179 179
184 184 184
202 202 202
207 207 207
195 195 195
174 174 174
148 148 148
155 155 155
179 179 179
196 196 196
202 202 202
193 193 193
173 173 173
174 174 174
190 190 190
219 219 219
247 247 247
230 230 230
201 201 201
172 172 172
165 165 165
149 149 149
142 142 142
136 136 136
140 140 140
136 136 136
144 144 144
145 145 145
160 160 160
175 175 175
181 181 181
175 175 175
134 134 134
157 157 157
176 176 176
186 186 186
185 185 185
172 172 172
152 152 152
150 150 150
151 151 151
146 146 146
148 148 148
162 162 162
172 172 172
171 171 171
179 179 179
195 195 195
200 200 200
190 190 190
171 171 171
199 199 199
225 225 225
235 235 235
214 214 214
187 187 187
158 158 158
147 147 147
156 156 156
169 169 169
173 173 173
166 166 166
174 174 174
188 188 188
190 190 190
212 212 212
230 230 230
220 220 220
196 196 196
168 168 168
144 144 144
131 131 131
123 123 123
129 129 129
141 141 141
159 159 159
171 171 171
173 173 173
165 165 165
161 161 161
166 166 166
161 161 161
146 146 146
172 172 172
195 195 195
210 210 210
207 207 207
190 190 190
166 166 166
141 141 141
142 142 142
136 136 136
138 138 138
158 158 158
172 172 172
178 178 178
172 172 172
174 174 174
177 177 177
170 170 170
172 172 172
201 201 201
229 229 229
241 241 241
217 217 217
188 188 188
159 159 159
150 150 150
144 144 144
141 141 141
145 145 145
154 154 154
175 175 175
190 190 190
196 196 196
223 223 223
236 236 236
217 217 217
189 189 189
161 161 161
148 148 148
147 147 147
138 138 138
142 142 142
158 158 158
180 180 180
195 195 195
198 198 198
187 187 187
167 167 167
145 145 145
141 141 141
150 150 150
178 178 178
203 203 203
222 222 222
219 219 219
198 198 198
171 171 171
143 143 143
145 145 145
146 146 146
146 146 146
158 158 158
168 168 168
174 174 174
168 168 168
171 171 171
171 171 171
161 161 161
163 163 163
188 188 188
207 207 207
213 213 213
200 200 200
177 177 177
151 151 151
145 145 145
139 139 139
155 155 155
165 165 165
167 167 167
167 167 167
180 180 180
193 193 193
217 217 217
228 228 228
212 212 212
187 187 187
159 159 159
157 157 157
156 156 156
146 146 146
149 149 149
167 167 167
193 193 193
213 213 213
217 217 217
201 201 201
177 177 177
150 150 150
137 137 137
147 147 147
173 173 173
196 196 196
211 211 211
209 209 209
191 191 191
167 167 167
157 157 157
168 168 168
169 169 169
161 161 161
175 175 175
180 180 180
173 173 173
184 184 184
197 197 197
196 196 196
182 182 182
161 161 161
167 167 167
180 180 180
184 184 184
175 175 175
158 158 158
143 143 143
145 145 145
152 152 152
167 167 167
179 179 179
180 180 180
171 171 171
161 161 161
178 178 178
196 196 196
201 201 201
192 192 192
173 173 173
150 150 150
158 158 158
157 157 157
151 151 151
148 148 148
168 168 168
193 193 193
213 213 213
217 217 217
202 202 202
177 177 177
171 171 171
161 161 161
135 135 135
159 159 159
177 177 177
188 188 188
186 186 186
173 173 173
155 155 155
173 173 173
187 187 187
188 188 188
178 178 178
184 184 184
189 189 189
181 181 181
198 198 198
216 216 216
215 215 215
197 197 197
172 172 172
166 166 166
163 163 163
157 157 157
168 168 168
169 169 169
161 161 161
171 171 171
180 180 180
178 178 178
182 182 182
184 184 184
174 174 174
156 156 156
158 158 158
169 169 169
173 173 173
167 167 167
152 152 152
143 143 143
154 154 154
164 164 164
166 166 166
158 158 158
158 158 158
181 181 181
196 196 196
199 199 199
187 187 187
193 193 193
194 194 194
181 181 181
119 119 119
138 138 138
153 153 153
161 161 161
160 160 160
157 157 157
159 159 159
181 181 181
195 195 195
197 197 197
185 185 185
181 181 181
186 186 186
178 178 178
199 199 199
217 217 217
217 217 217
198 198 198
174 174 174
183 183 183
180 180 180
168 168 168
180 180 180
182 182 182
173 173 173
192 192 192
206 206 206
203 203 203
186 186 186
175 175 175
166 166 166
149 149 149
155 155 155
158 158 158
152 152 152
139 139 139
142 142 142
147 147 147
160 160 160
171 171 171
173 173 173
164 164 164
154 154 154
160 160 160
172 172 172
174 174 174
192 192 192
208 208 208
208 208 208
192 192 192
98 98 98
115 115 115
127 127 127
137 137 137
142 142 142
140 140 140
156 156 156
177 177 177
190 190 190
192 192 192
181 181 181
167 167 167
171 171 171
171 171 171
186 186 186
200 200 200
199 199 199
185 185 185
181 181 181
190 190 190
187 187 187
172 172 172
183 183 183
185 185 185
180 180 180
206 206 206
224 224 224
219 219 219
197 197 197
171 171 171
151 151 151
136 136 136
144 144 144
147 147 147
152 152 152
165 165 165
170 170 170
165 165 165
170 170 170
168 168 168
169 169 169
173 173 173
178 178 178
172 172 172
157 157 157
167 167 167
190 190 190
206 206 206
206 206 206
191 191 191
80 80 80
102 102 102
121 121 121
136 136 136
145 145 145
146 146 146
145 145 145
163 163 163
174 174 174
176 176 176
167 167 167
180 180 180
196 196 196
199 199 199
188 188 188
175 175 175
174 174 174
164 164 164
176 176 176
185 185 185
181 181 181
168 168 168
173 173 173
175 175 175
178 178 178
203 203 203
220 220 220
216 216 216
195 195 195
169 169 169
141 141 141
139 139 139
150 150 150
152 152 152
173 173 173
191 191 191
198 198 198
191 191 191
180 180 180
177 177 177
173 173 173
190 190 190
196 196 196
188 188 188
170 170 170
157 157 157
177 177 177
189 189 189
189 189 189
177 177 177
97 97 97
121 121 121
144 144 144
162 162 162
173 173 173
175 175 175
166 166 166
158 158 158
168 168 168
169 169 169
170 170 170
197 197 197
220 220 220
226 226 226
208 208 208
186 186 186
181 181 181
166 166 166
162 162 162
169 169 169
166 166 166
154 154 154
169 169 169
181 181 181
181 181 181
186 186 186
198 198 198
195 195 195
180 180 180
158 158 158
139 139 139
157 157 157
169 169 169
172 172 172
187 187 187
211 211 211
222 222 222
211 211 211
187 187 187
176 176 176
178 178 178
196 196 196
203 203 203
194 194 194
175 175 175
150 150 150
156 156 156
165 165 165
166 166 166
157 157 157
109 109 109
136 136 136
162 162 162
185 185 185
201 201 201
203 203 203
190 190 190
177 177 177
181 181 181
173 173 173
173 173 173
201 201 201
229 229 229
238 238 238
214 214 214
198 198 198
192 192 192
174 174 174
151 151 151
147 147 147
145 145 145
167 167 167
191 191 191
208 208 208
209 209 209
194 194 194
171 171 171
169 169 169
158 158 158
140 140 140
148 148 148
168 168 168
182 182 182
186 186 186
191 191 191
216 216 216
230 230 230
216 216 216
191 191 191
164 164 164
171 171 171
188 188 188
194 194 194
186 186 186
168 168 168
146 146 146
155 155 155
168 168 168
173 173 173
167 167 167
116 116 116
145 145 145
173 173 173
201 201 201
225 225 225
229 229 229
208 208 208
201 201 201
207 207 207
195 195 195
179 179 179
191 191 191
211 211 211
216 216 216
207 207 207
204 204 204
189 189 189
172 172 172
150 150 150
125 125 125
148 148 148
177 177 177
205 205 205
229 229 229
232 232 232
208 208 208
180 180 180
174 174 174
160 160 160
141 141 141
149 149 149
170 170 170
184 184 184
188 188 188
181 181 181
202 202 202
210 210 210
201 201 201
181 181 181
156 156 156
156 156 156
170 170 170
174 174 174
168 168 168
154 154 154
140 140 140
158 158 158
172 172 172
177 177 177
171 171 171
