P3
50 50
255
96 96 96
121 121 121
145 145 145
165 165 165
178 178 178
182 182 182
174 174 174
189 189 189
193 193 193
184 184 184
166 166 166
143 143 143
140 140 140
154 154 154
162 162 162
160 160 160
150 150 150
137 137 137
121 121 121
128 128 128
142 142 142
150 150 150
151 151 151
151 151 151
176 176 176
197 197 197
208 208 208
201 201 201
182 182 182
158 158 158
169 169 169
180 180 180
180 180 180
169 169 169
151 151 151
168 168 168
190 190 190
204 204 204
202 202 202
186 186 186
164 164 164
146 146 146
154 154 154
155 155 155
149 149 149
170 170 170
184 184 184
187 187 187
178 178 178
160 160 160
98 98 98
124 124 124
148 148 148
169 169 169
183 183 183
186 186 186
178 178 178
187 187 187
191 191 191
182 182 182
164 164 164
141 141 141
140 140 140
155 155 155
162 162 162
161 161 161
155 155 155
144 144 144
127 127 127
149 149 149
167 167 167
178 178 178
180 180 180
173 173 173
181 181 181
204 204 204
217 217 217
209 209 209
188 188 188
162 162 162
167 167 167
178 178 178
178 178 178
174 174 174
174 174 174
181 181 181
208 208 208
230 230 230
227 227 227
203 203 203
175 175 175
170 170 170
181 181 181
182 182 182
171 171 171
186 186 186
205 205 205
210 210 210
197 197 197
175 175 175
95 95 95
120 120 120
143 143 143
163 163 163
176 176 176
184 184 184
189 189 189
180 180 180
176 176 176
169 169 169
153 153 153
132 132 132
133 133 133
147 147 147
154 154 154
157 157 157
154 154 154
143 143 143
140 140 140
166 166 166
188 188 188
203 203 203
207 207 207
197 197 197
177 177 177
195 195 195
205 205 205
199 199 199
181 181 181
157 157 157
156 156 156
165 165 165
182 182 182
195 195 195
195 195 195
182 182 182
211 211 211
237 237 237
233 233 233
206 206 206
177 177 177
190 190 190
206 206 206
206 206 206
191 191 191
192 192 192
213 213 213
219 219 219
204 204 204
180 180 180
86 86 86
110 110 110
131 131 131
151 151 151
173 173 173
189 189 189
193 193 193
185 185 185
166 166 166
149 149 149
136 136 136
127 127 127
133 133 133
151 151 151
164 164 164
168 168 168
162 162 162
148 148 148
147 147 147
174 174 174
200 200 200
220 220 220
230 230 230
214 214 214
188 188 188
176 176 176
183 183 183
179 179 179
164 164 164
144 144 144
142 142 142
168 168 168
191 191 191
206 206 206
206 206 206
190 190 190
197 197 197
212 212 212
210 210 210
193 193 193
175 175 175
201 201 201
220 220 220
221 221 221
201 201 201
185 185 185
203 203 203
208 208 208
195 195 195
175 175 175
74 74 74
96 96 96
122 122 122
146 146 146
167 167 167
181 181 181
185 185 185
177 177 177
160 160 160
165 165 165
164 164 164
154 154 154
150 150 150
173 173 173
189 189 189
194 194 194
186 186 186
168 168 168
168 168 168
173 173 173
198 198 198
217 217 217
227 227 227
213 213 213
187 187 187
160 160 160
157 157 157
153 153 153
142 142 142
125 125 125
147 147 147
167 167 167
187 187 187
201 201 201
200 200 200
186 186 186
174 174 174
184 184 184
183 183 183
171 171 171
171 171 171
196 196 196
213 213 213
214 214 214
196 196 196
172 172 172
181 181 181
185 185 185
188 188 188
189 189 189
96 96 96
96 96 96
112 112 112
134 134 134
152 152 152
164 164 164
167 167 167
168 168 168
182 182 182
194 194 194
192 192 192
178 178 178
161 161 161
187 187 187
208 208 208
216 216 216
204 204 204
181 181 181
186 186 186
189 189 189
183 183 183
197 197 197
204 204 204
195 195 195
175 175 175
154 154 154
163 163 163
165 165 165
157 157 157
142 142 142
158 158 158
181 181 181
197 197 197
201 201 201
190 190 190
171 171 171
164 164 164
160 160 160
154 154 154
145 145 145
159 159 159
179 179 179
192 192 192
192 192 192
179 179 179
159 159 159
157 157 157
177 177 177
190 190 190
190 190 190
119 119 119
117 117 117
110 110 110
116 116 116
131 131 131
141 141 141
159 159 159
179 179 179
204 204 204
222 222 222
219 219 219
198 198 198
172 172 172
190 190 190
213 213 213
222 222 222
208 208 208
184 184 184
195 195 195
198 198 198
187 187 187
172 172 172
176 176 176
170 170 170
175 175 175
172 172 172
185 185 185
188 188 188
178 178 178
160 160 160
161 161 161
185 185 185
202 202 202
206 206 206
194 194 194
183 183 183
191 191 191
186 186 186
170 170 170
154 154 154
140 140 140
156 156 156
165 165 165
166 166 166
158 158 158
153 153 153
156 156 156
168 168 168
179 179 179
180 180 180
148 148 148
146 146 146
137 137 137
121 121 121
109 109 109
135 135 135
158 158 158
184 184 184
213 213 213
243 243 243
236 236 236
207 207 207
178 178 178
181 181 181
199 199 199
206 206 206
196 196 196
175 175 175
190 190 190
193 193 193
182 182 182
163 163 163
160 160 160
178 178 178
186 186 186
184 184 184
200 200 200
204 204 204
191 191 191
170 170 170
156 156 156
176 176 176
191 191 191
195 195 195
184 184 184
203 203 203
215 215 215
207 207 207
186 186 186
163 163 163
151 151 151
172 172 172
188 188 188
192 192 192
183 183 183
167 167 167
170 170 170
163 163 163
160 160 160
170 170 170
177 177 177
174 174 174
162 162 162
143 143 143
120 120 120
127 127 127
151 151 151
178 178 178
204 204 204
223 223 223
221 221 221
199 199 199
172 172 172
162 162 162
176 176 176
188 188 188
194 194 194
186 186 186
174 174 174
176 176 176
168 168 168
151 151 151
160 160 160
176 176 176
185 185 185
185 185 185
202 202 202
205 205 205
193 193 193
171 171 171
158 158 158
162 162 162
171 171 171
173 173 173
186 186 186
211 211 211
225 225 225
215 215 215
191 191 191
164 164 164
164 164 164
190 190 190
211 211 211
218 218 218
204 204 204
181 181 181
175 175 175
167 167 167
163 163 163
168 168 168
205 205 205
201 201 201
184 184 184
161 161 161
135 135 135
132 132 132
139 139 139
163 163 163
183 183 183
195 195 195
194 194 194
180 180 180
177 177 177
165 165 165
182 182 182
202 202 202
210 210 210
200 200 200
179 179 179
154 154 154
147 147 147
133 133 133
150 150 150
165 165 165
172 172 172
180 180 180
190 190 190
191 191 191
181 181 181
162 162 162
151 151 151
154 154 154
150 150 150
153 153 153
179 179 179
201 201 201
211 211 211
204 204 204
184 184 184
164 164 164
176 176 176
197 197 197
222 222 222
232 232 232
214 214 214
187 187 187
178 178 178
188 188 188
186 186 186
193 193 193
230 230 230
223 223 223
199 199 199
171 171 171
143 143 143
142 142 142
146 146 146
142 142 142
158 158 158
166 166 166
166 166 166
174 174 174
172 172 172
160 160 160
182 182 182
202 202 202
210 210 210
200 200 200
179 179 179
154 154 154
152 152 152
159 159 159
157 157 157
147 147 147
163 163 163
182 182 182
193 193 193
190 190 190
175 175 175
154 154 154
137 137 137
140 140 140
142 142 142
153 153 153
163 163 163
179 179 179
187 187 187
182 182 182
167 167 167
178 178 178
196 196 196
201 201 201
210 210 210
217 217 217
204 204 204
180 180 180
192 192 192
205 205 205
202 202 202
210 210 210
233 233 233
226 226 226
200 200 200
172 172 172
143 143 143
145 145 145
149 149 149
146 146 146
164 164 164
174 174 174
173 173 173
163 163 163
158 158 158
149 149 149
171 171 171
188 188 188
193 193 193
186 186 186
168 168 168
157 157 157
175 175 175
184 184 184
182 182 182
169 169 169
156 156 156
175 175 175
187 187 187
187 187 187
175 175 175
156 156 156
133 133 133
146 146 146
166 166 166
180 180 180
184 184 184
177 177 177
194 194 194
201 201 201
193 193 193
185 185 185
204 204 204
211 211 211
200 200 200
191 191 191
182 182 182
171 171 171
193 193 193
207 207 207
204 204 204
212 212 212
209 209 209
205 205 205
187 187 187
163 163 163
136 136 136
140 140 140
144 144 144
152 152 152
171 171 171
182 182 182
182 182 182
171 171 171
152 152 152
163 163 163
185 185 185
201 201 201
202 202 202
189 189 189
167 167 167
170 170 170
192 192 192
204 204 204
201 201 201
184 184 184
168 168 168
192 192 192
208 208 208
209 209 209
193 193 193
170 170 170
143 143 143
161 161 161
186 186 186
206 206 206
212 212 212
200 200 200
217 217 217
229 229 229
214 214 214
189 189 189
197 197 197
203 203 203
193 193 193
174 174 174
156 156 156
163 163 163
182 182 182
193 193 193
191 191 191
196 196 196
181 181 181
179 179 179
166 166 166
146 146 146
153 153 153
152 152 152
145 145 145
151 151 151
168 168 168
179 179 179
179 179 179
168 168 168
150 150 150
175 175 175
203 203 203
227 227 227
230 230 230
207 207 207
180 180 180
184 184 184
197 197 197
211 211 211
208 208 208
189 189 189
172 172 172
198 198 198
217 217 217
217 217 217
199 199 199
174 174 174
147 147 147
169 169 169
197 197 197
224 224 224
235 235 235
215 215 215
224 224 224
241 241 241
221 221 221
192 192 192
178 178 178
183 183 183
176 176 176
159 159 159
138 138 138
146 146 146
162 162 162
170 170 170
184 184 184
191 191 191
152 152 152
150 150 150
141 141 141
156 156 156
164 164 164
162 162 162
172 172 172
180 180 180
177 177 177
191 191 191
193 193 193
182 182 182
162 162 162
178 178 178
207 207 207
235 235 235
239 239 239
212 212 212
188 188 188
201 201 201
199 199 199
201 201 201
198 198 198
182 182 182
166 166 166
189 189 189
205 205 205
205 205 205
191 191 191
168 168 168
142 142 142
167 167 167
195 195 195
219 219 219
228 228 228
211 211 211
208 208 208
217 217 217
206 206 206
183 183 183
157 157 157
158 158 158
152 152 152
139 139 139
121 121 121
125 125 125
144 144 144
166 166 166
182 182 182
189 189 189
132 132 132
132 132 132
142 142 142
157 157 157
165 165 165
175 175 175
197 197 197
210 210 210
205 205 205
216 216 216
220 220 220
203 203 203
178 178 178
174 174 174
195 195 195
213 213 213
215 215 215
198 198 198
191 191 191
204 204 204
203 203 203
186 186 186
177 177 177
165 165 165
152 152 152
171 171 171
182 182 182
183 183 183
172 172 172
153 153 153
130 130 130
156 156 156
179 179 179
197 197 197
202 202 202
195 195 195
191 191 191
188 188 188
181 181 181
165 165 165
143 143 143
131 131 131
126 126 126
127 127 127
128 128 128
122 122 122
135 135 135
155 155 155
170 170 170
175 175 175
159 159 159
160 160 160
151 151 151
150 150 150
158 158 158
187 187 187
215 215 215
238 238 238
227 227 227
231 231 231
238 238 238
213 213 213
193 193 193
199 199 199
191 191 191
185 185 185
186 186 186
175 175 175
181 181 181
192 192 192
191 191 191
177 177 177
156 156 156
142 142 142
161 161 161
176 176 176
181 181 181
176 176 176
160 160 160
140 140 140
116 116 116
138 138 138
157 157 157
170 170 170
174 174 174
178 178 178
174 174 174
161 161 161
154 154 154
141 141 141
123 123 123
129 129 129
145 145 145
154 154 154
156 156 156
148 148 148
134 134 134
140 140 140
150 150 150
155 155 155
185 185 185
185 185 185
174 174 174
159 159 159
171 171 171
187 187 187
216 216 216
238 238 238
227 227 227
217 217 217
221 221 221
204 204 204
208 208 208
217 217 217
206 206 206
183 183 183
157 157 157
149 149 149
162 162 162
171 171 171
170 170 170
162 162 162
149 149 149
157 157 157
171 171 171
189 189 189
196 196 196
189 189 189
171 171 171
148 148 148
127 127 127
153 153 153
177 177 177
195 195 195
202 202 202
194 194 194
179 179 179
167 167 167
149 149 149
148 148 148
148 148 148
148 148 148
168 168 168
180 180 180
182 182 182
172 172 172
154 154 154
155 155 155
167 167 167
176 176 176
205 205 205
206 206 206
190 190 190
182 182 182
199 199 199
203 203 203
198 198 198
210 210 210
205 205 205
192 192 192
194 194 194
186 186 186
207 207 207
216 216 216
205 205 205
182 182 182
156 156 156
141 141 141
162 162 162
178 178 178
185 185 185
180 180 180
174 174 174
185 185 185
184 184 184
190 190 190
197 197 197
190 190 190
172 172 172
149 149 149
144 144 144
164 164 164
192 192 192
216 216 216
228 228 228
214 214 214
206 206 206
189 189 189
166 166 166
175 175 175
174 174 174
163 163 163
185 185 185
201 201 201
204 204 204
191 191 191
169 169 169
172 172 172
181 181 181
192 192 192
213 213 213
213 213 213
196 196 196
199 199 199
224 224 224
231 231 231
211 211 211
184 184 184
178 178 178
164 164 164
165 165 165
173 173 173
191 191 191
197 197 197
189 189 189
171 171 171
147 147 147
153 153 153
169 169 169
187 187 187
195 195 195
189 189 189
195 195 195
210 210 210
209 209 209
191 191 191
185 185 185
179 179 179
163 163 163
159 159 159
156 156 156
166 166 166
194 194 194
220 220 220
234 234 234
230 230 230
228 228 228
204 204 204
186 186 186
199 199 199
198 198 198
183 183 183
193 193 193
211 211 211
214 214 214
199 199 199
192 192 192
201 201 201
195 195 195
197 197 197
202 202 202
202 202 202
188 188 188
203 203 203
231 231 231
243 243 243
216 216 216
187 187 187
158 158 158
139 139 139
152 152 152
161 161 161
167 167 167
171 171 171
166 166 166
152 152 152
147 147 147
156 156 156
166 166 166
184 184 184
191 191 191
185 185 185
205 205 205
225 225 225
223 223 223
201 201 201
174 174 174
160 160 160
157 157 157
163 163 163
160 160 160
159 159 159
183 183 183
204 204 204
212 212 212
229 229 229
226 226 226
203 203 203
198 198 198
215 215 215
213 213 213
195 195 195
187 187 187
203 203 203
206 206 206
197 197 197
212 212 212
227 227 227
217 217 217
192 192 192
180 180 180
180 180 180
170 170 170
191 191 191
211 211 211
216 216 216
202 202 202
178 178 178
162 162 162
144 144 144
153 153 153
163 163 163
163 163 163
163 163 163
162 162 162
152 152 152
142 142 142
151 151 151
155 155 155
170 170 170
176 176 176
175 175 175
199 199 199
216 216 216
215 215 215
196 196 196
171 171 171
143 143 143
152 152 152
158 158 158
155 155 155
173 173 173
192 192 192
199 199 199
192 192 192
205 205 205
203 203 203
188 188 188
196 196 196
212 212 212
211 211 211
193 193 193
170 170 170
183 183 183
188 188 188
191 191 191
217 217 217
236 236 236
222 222 222
196 196 196
154 154 154
155 155 155
152 152 152
170 170 170
184 184 184
188 188 188
199 199 199
196 196 196
180 180 180
158 158 158
146 146 146
155 155 155
159 159 159
168 168 168
167 167 167
156 156 156
140 140 140
152 152 152
156 156 156
151 151 151
154 154 154
161 161 161
181 181 181
193 193 193
192 192 192
179 179 179
158 158 158
133 133 133
140 140 140
145 145 145
154 154 154
179 179 179
199 199 199
208 208 208
200 200 200
180 180 180
176 176 176
165 165 165
181 181 181
193 193 193
192 192 192
179 179 179
158 158 158
159 159 159
171 171 171
180 180 180
202 202 202
213 213 213
206 206 206
185 185 185
153 153 153
165 165 165
170 170 170
177 177 177
175 175 175
198 198 198
212 212 212
208 208 208
189 189 189
165 165 165
138 138 138
140 140 140
154 154 154
163 163 163
162 162 162
152 152 152
151 151 151
164 164 164
168 168 168
162 162 162
149 149 149
155 155 155
157 157 157
166 166 166
165 165 165
155 155 155
139 139 139
127 127 127
132 132 132
129 129 129
150 150 150
173 173 173
192 192 192
200 200 200
193 193 193
175 175 175
151 151 151
143 143 143
159 159 159
168 168 168
167 167 167
157 157 157
140 140 140
139 139 139
149 149 149
162 162 162
178 178 178
186 186 186
181 181 181
166 166 166
163 163 163
177 177 177
181 181 181
189 189 189
184 184 184
194 194 194
207 207 207
203 203 203
186 186 186
166 166 166
149 149 149
128 128 128
142 142 142
149 149 149
149 149 149
148 148 148
157 157 157
167 167 167
171 171 171
165 165 165
171 171 171
183 183 183
184 184 184
174 174 174
156 156 156
133 133 133
121 121 121
133 133 133
137 137 137
135 135 135
138 138 138
159 159 159
174 174 174
180 180 180
174 174 174
160 160 160
140 140 140
157 157 157
167 167 167
168 168 168
159 159 159
143 143 143
127 127 127
132 132 132
129 129 129
140 140 140
152 152 152
157 157 157
153 153 153
143 143 143
164 164 164
178 178 178
182 182 182
189 189 189
183 183 183
178 178 178
187 187 187
198 198 198
200 200 200
187 187 187
166 166 166
141 141 141
132 132 132
143 143 143
146 146 146
157 157 157
167 167 167
167 167 167
170 170 170
173 173 173
191 191 191
209 209 209
211 211 211
196 196 196
173 173 173
146 146 146
120 120 120
131 131 131
136 136 136
134 134 134
129 129 129
139 139 139
150 150 150
155 155 155
151 151 151
139 139 139
158 158 158
180 180 180
194 194 194
195 195 195
183 183 183
163 163 163
147 147 147
152 152 152
149 149 149
165 165 165
177 177 177
179 179 179
171 171 171
154 154 154
156 156 156
169 169 169
172 172 172
176 176 176
172 172 172
170 170 170
195 195 195
214 214 214
216 216 216
200 200 200
175 175 175
148 148 148
156 156 156
169 169 169
173 173 173
167 167 167
168 168 168
180 180 180
196 196 196
200 200 200
203 203 203
227 227 227
231 231 231
209 209 209
181 181 181
153 153 153
124 124 124
123 123 123
128 128 128
133 133 133
145 145 145
164 164 164
176 176 176
178 178 178
169 169 169
153 153 153
171 171 171
197 197 197
216 216 216
218 218 218
201 201 201
176 176 176
161 161 161
167 167 167
164 164 164
186 186 186
203 203 203
207 207 207
194 194 194
172 172 172
168 168 168
177 177 177
191 191 191
192 192 192
181 181 181
169 169 169
194 194 194
212 212 212
214 214 214
198 198 198
174 174 174
153 153 153
176 176 176
193 193 193
199 199 199
190 190 190
172 172 172
194 194 194
216 216 216
223 223 223
207 207 207
220 220 220
223 223 223
204 204 204
178 178 178
151 151 151
122 122 122
112 112 112
122 122 122
136 136 136
162 162 162
185 185 185
202 202 202
205 205 205
193 193 193
171 171 171
174 174 174
201 201 201
224 224 224
226 226 226
206 206 206
183 183 183
167 167 167
174 174 174
172 172 172
199 199 199
224 224 224
230 230 230
210 210 210
183 183 183
180 180 180
189 189 189
203 203 203
205 205 205
191 191 191
169 169 169
179 179 179
193 193 193
195 195 195
183 183 183
163 163 163
162 162 162
188 188 188
210 210 210
219 219 219
207 207 207
183 183 183
196 196 196
219 219 219
226 226 226
209 209 209
197 197 197
199 199 199
186 186 186
171 171 171
158 158 158
139 139 139
116 116 116
115 115 115
143 143 143
172 172 172
199 199 199
222 222 222
227 227 227
208 208 208
182 182 182
167 167 167
191 191 191
208 208 208
210 210 210
198 198 198
190 190 190
171 171 171
170 170 170
171 171 171
199 199 199
222 222 222
228 228 228
209 209 209
183 183 183
181 181 181
191 191 191
201 201 201
202 202 202
189 189 189
168 168 168
158 158 158
168 168 168
169 169 169
161 161 161
144 144 144
163 163 163
189 189 189
211 211 211
220 220 220
207 207 207
184 184 184
184 184 184
202 202 202
206 206 206
194 194 194
187 187 187
197 197 197
202 202 202
196 196 196
179 179 179
156 156 156
130 130 130
132 132 132
143 143 143
171 171 171
198 198 198
221 221 221
226 226 226
207 207 207
181 181 181
177 177 177
171 171 171
183 183 183
185 185 185
191 191 191
184 184 184
167 167 167
157 157 157
161 161 161
184 184 184
201 201 201
205 205 205
203 203 203
200 200 200
184 184 184
184 184 184
185 185 185
186 186 186
175 175 175
161 161 161
147 147 147
143 143 143
145 145 145
140 140 140
129 129 129
154 154 154
177 177 177
195 195 195
201 201 201
192 192 192
173 173 173
174 174 174
177 177 177
180 180 180
172 172 172
184 184 184
209 209 209
224 224 224
215 215 215
193 193 193
166 166 166
138 138 138
145 145 145
153 153 153
161 161 161
184 184 184
200 200 200
203 203 203
191 191 191
196 196 196
203 203 203
194 194 194
175 175 175
168 168 168
173 173 173
177 177 177
174 174 174
161 161 161
144 144 144
162 162 162
178 178 178
202 202 202
217 217 217
213 213 213
210 210 210
210 210 210
194 194 194
176 176 176
181 181 181
174 174 174
158 158 158
153 153 153
156 156 156
151 151 151
139 139 139
160 160 160
174 174 174
180 180 180
175 175 175
169 169 169
174 174 174
189 189 189
191 191 191
181 181 181
165 165 165
185 185 185
210 210 210
226 226 226
217 217 217
194 194 194
166 166 166
143 143 143
160 160 160
170 170 170
170 170 170
166 166 166
174 174 174
176 176 176
189 189 189
212 212 212
222 222 222
209 209 209
185 185 185
172 172 172
192 192 192
203 203 203
198 198 198
181 181 181
157 157 157
148 148 148
174 174 174
197 197 197
211 211 211
207 207 207
230 230 230
229 229 229
206 206 206
180 180 180
185 185 185
178 178 178
161 161 161
156 156 156
159 159 159
154 154 154
154 154 154
174 174 174
192 192 192
200 200 200
192 192 192
174 174 174
177 177 177
191 191 191
194 194 194
183 183 183
168 168 168
174 174 174
195 195 195
205 205 205
200 200 200
182 182 182
158 158 158
149 149 149
167 167 167
178 178 178
178 178 178
188 188 188
195 195 195
187 187 187
187 187 187
210 210 210
219 219 219
207 207 207
184 184 184
182 182 182
207 207 207
221 221 221
214 214 214
192 192 192
166 166 166
145 145 145
161 161 161
180 180 180
190 190 190
206 206 206
222 222 222
222 222 222
201 201 201
175 175 175
177 177 177
171 171 171
155 155 155
150 150 150
153 153 153
165 165 165
176 176 176
179 179 179
199 199 199
208 208 208
199 199 199
179 179 179
168 168 168
181 181 181
184 184 184
174 174 174
161 161 161
166 166 166
171 171 171
178 178 178
175 175 175
161 161 161
142 142 142
147 147 147
165 165 165
175 175 175
183 183 183
203 203 203
212 212 212
202 202 202
181 181 181
192 192 192
198 198 198
190 190 190
172 172 172
181 181 181
205 205 205
219 219 219
212 212 212
191 191 191
168 168 168
166 166 166
167 167 167
166 166 166
176 176 176
202 202 202
198 198 198
198 198 198
184 184 184
163 163 163
161 161 161
155 155 155
143 143 143
149 149 149
169 169 169
183 183 183
192 192 192
193 193 193
192 192 192
199 199 199
192 192 192
174 174 174
152 152 152
163 163 163
164 164 164
169 169 169
168 168 168
170 170 170
171 171 171
162 162 162
148 148 148
137 137 137
127 127 127
137 137 137
153 153 153
163 163 163
183 183 183
204 204 204
212 212 212
203 203 203
181 181 181
168 168 168
172 172 172
166 166 166
152 152 152
169 169 169
189 189 189
207 207 207
219 219 219
209 209 209
187 187 187
182 182 182
187 187 187
185 185 185
172 172 172
185 185 185
170 170 170
170 170 170
160 160 160
177 177 177
185 185 185
182 182 182
168 168 168
159 159 159
182 182 182
198 198 198
202 202 202
196 196 196
188 188 188
187 187 187
175 175 175
159 159 159
160 160 160
155 155 155
174 174 174
185 185 185
184 184 184
172 172 172
166 166 166
157 157 157
141 141 141
123 123 123
139 139 139
150 150 150
153 153 153
149 149 149
172 172 172
189 189 189
196 196 196
188 188 188
170 170 170
147 147 147
144 144 144
140 140 140
135 135 135
164 164 164
194 194 194
222 222 222
244 244 244
224 224 224
196 196 196
187 187 187
198 198 198
195 195 195
190 190 190
184 184 184
142 142 142
152 152 152
178 178 178
201 201 201
214 214 214
209 209 209
189 189 189
164 164 164
184 184 184
201 201 201
204 204 204
192 192 192
207 207 207
206 206 206
190 190 190
180 180 180
183 183 183
175 175 175
179 179 179
191 191 191
190 190 190
177 177 177
156 156 156
144 144 144
138 138 138
140 140 140
145 145 145
156 156 156
160 160 160
154 154 154
153 153 153
167 167 167
171 171 171
166 166 166
152 152 152
144 144 144
136 136 136
146 146 146
147 147 147
161 161 161
189 189 189
214 214 214
229 229 229
216 216 216
191 191 191
184 184 184
195 195 195
206 206 206
217 217 217
207 207 207
145 145 145
168 168 168
188 188 188
217 217 217
242 242 242
229 229 229
201 201 201
172 172 172
174 174 174
189 189 189
191 191 191
196 196 196
212 212 212
211 211 211
193 193 193
196 196 196
201 201 201
190 190 190
173 173 173
184 184 184
183 183 183
171 171 171
152 152 152
156 156 156
167 167 167
169 169 169
161 161 161
154 154 154
157 157 157
152 152 152
139 139 139
141 141 141
145 145 145
155 155 155
161 161 161
158 158 158
152 152 152
162 162 162
165 165 165
157 157 157
173 173 173
192 192 192
200 200 200
193 193 193
175 175 175
170 170 170
192 192 192
218 218 218
235 235 235
220 220 220
155 155 155
181 181 181
202 202 202
214 214 214
234 234 234
224 224 224
199 199 199
170 170 170
156 156 156
168 168 168
170 170 170
186 186 186
199 199 199
198 198 198
184 184 184
199 199 199
205 205 205
194 194 194
173 173 173
167 167 167
166 166 166
157 157 157
157 157 157
179 179 179
194 194 194
197 197 197
186 186 186
166 166 166
163 163 163
163 163 163
154 154 154
141 141 141
158 158 158
167 167 167
167 167 167
164 164 164
160 160 160
172 172 172
174 174 174
166 166 166
152 152 152
166 166 166
171 171 171
166 166 166
153 153 153
159 159 159
186 186 186
210 210 210
221 221 221
211 211 211
156 156 156
183 183 183
205 205 205
216 216 216
207 207 207
201 201 201
183 183 183
159 159 159
134 134 134
143 143 143
155 155 155
174 174 174
186 186 186
186 186 186
175 175 175
188 188 188
193 193 193
184 184 184
165 165 165
153 153 153
164 164 164
167 167 167
170 170 170
197 197 197
219 219 219
224 224 224
206 206 206
180 180 180
189 189 189
189 189 189
177 177 177
162 162 162
183 183 183
196 196 196
195 195 195
182 182 182
175 175 175
180 180 180
174 174 174
166 166 166
150 150 150
167 167 167
181 181 181
186 186 186
178 178 178
162 162 162
170 170 170
188 188 188
195 195 195
188 188 188
149 149 149
173 173 173
192 192 192
200 200 200
193 193 193
176 176 176
160 160 160
141 141 141
132 132 132
131 131 131
154 154 154
173 173 173
185 185 185
185 185 185
174 174 174
168 168 168
172 172 172
165 165 165
150 150 150
154 154 154
165 165 165
168 168 168
174 174 174
202 202 202
229 229 229
236 236 236
213 213 213
194 194 194
211 211 211
212 212 212
195 195 195
177 177 177
203 203 203
223 223 223
222 222 222
201 201 201
184 184 184
189 189 189
182 182 182
165 165 165
162 162 162
187 187 187
208 208 208
215 215 215
203 203 203
183 183 183
174 174 174
162 162 162
167 167 167
162 162 162
135 135 135
155 155 155
170 170 170
176 176 176
171 171 171
157 157 157
160 160 160
161 161 161
155 155 155
156 156 156
165 165 165
180 180 180
184 184 184
177 177 177
163 163 163
159 159 159
159 159 159
152 152 152
137 137 137
146 146 146
157 157 157
160 160 160
167 167 167
192 192 192
212 212 212
216 216 216
201 201 201
200 200 200
220 220 220
220 220 220
201 201 201
182 182 182
211 211 211
240 240 240
238 238 238
209 209 209
180 180 180
185 185 185
178 178 178
162 162 162
170 170 170
199 199 199
227 227 227
244 244 244
219 219 219
197 197 197
185 185 185
166 166 166
144 144 144
136 136 136
140 140 140
161 161 161
176 176 176
183 183 183
177 177 177
167 167 167
179 179 179
180 180 180
181 181 181
183 183 183
184 184 184
204 204 204
211 211 211
200 200 200
179 179 179
181 181 181
180 180 180
169 169 169
150 150 150
132 132 132
142 142 142
159 159 159
171 171 171
173 173 173
186 186 186
189 189 189
184 184 184
193 193 193
207 207 207
207 207 207
192 192 192
175 175 175
201 201 201
220 220 220
219 219 219
200 200 200
174 174 174
171 171 171
174 174 174
187 187 187
190 190 190
196 196 196
223 223 223
234 234 234
215 215 215
197 197 197
186 186 186
169 169 169
169 169 169
160 160 160
147 147 147
170 170 170
187 187 187
194 194 194
188 188 188
175 175 175
189 189 189
191 191 191
204 204 204
206 206 206
194 194 194
219 219 219
230 230 230
214 214 214
188 188 188
194 194 194
194 194 194
181 181 181
160 160 160
135 135 135
160 160 160
182 182 182
198 198 198
200 200 200
188 188 188
182 182 182
207 207 207
221 221 221
214 214 214
192 192 192
173 173 173
160 160 160
180 180 180
192 192 192
192 192 192
179 179 179
158 158 158
169 169 169
194 194 194
214 214 214
218 218 218
202 202 202
199 199 199
205 205 205
195 195 195
184 184 184
179 179 179
191 191 191
191 191 191
179 179 179
146 146 146
168 168 168
186 186 186
193 193 193
187 187 187
173 173 173
187 187 187
196 196 196
217 217 217
220 220 220
203 203 203
213 213 213
222 222 222
209 209 209
185 185 185
195 195 195
195 195 195
181 181 181
160 160 160
143 143 143
171 171 171
198 198 198
220 220 220
225 225 225
206 206 206
202 202 202
218 218 218
241 241 241
228 228 228
200 200 200
171 171 171
142 142 142
155 155 155
163 163 163
163 163 163
154 154 154
146 146 146
176 176 176
205 205 205
233 233 233
241 241 241
214 214 214
185 185 185
176 176 176
169 169 169
170 170 170
190 190 190
205 205 205
205 205 205
190 190 190
142 142 142
158 158 158
173 173 173
179 179 179
174 174 174
162 162 162
173 173 173
191 191 191
210 210 210
212 212 212
197 197 197
192 192 192
198 198 198
189 189 189
172 172 172
183 183 183
183 183 183
171 171 171
152 152 152
144 144 144
173 173 173
201 201 201
225 225 225
231 231 231
210 210 210
212 212 212
233 233 233
225 225 225
215 215 215
193 193 193
166 166 166
138 138 138
142 142 142
144 144 144
139 139 139
127 127 127
144 144 144
172 172 172
199 199 199
222 222 222
227 227 227
207 207 207
187 187 187
180 180 180
164 164 164
166 166 166
188 188 188
203 203 203
204 204 204
189 189 189
158 158 158
161 161 161
155 155 155
158 158 158
154 154 154
143 143 143
154 154 154
175 175 175
188 188 188
190 190 190
179 179 179
166 166 166
170 170 170
164 164 164
173 173 173
179 179 179
174 174 174
160 160 160
140 140 140
138 138 138
165 165 165
189 189 189
207 207 207
210 210 210
196 196 196
204 204 204
220 220 220
214 214 214
193 193 193
175 175 175
153 153 153
159 159 159
170 170 170
173 173 173
165 165 165
150 150 150
155 155 155
160 160 160
181 181 181
197 197 197
199 199 199
201 201 201
209 209 209
199 199 199
179 179 179
156 156 156
175 175 175
187 187 187
187 187 187
185 185 185
167 167 167
170 170 170
163 163 163
149 149 149
144 144 144
146 146 146
139 139 139
152 152 152
170 170 170
181 181 181
181 181 181
171 171 171
153 153 153
175 175 175
195 195 195
204 204 204
197 197 197
179 179 179
155 155 155
128 128 128
149 149 149
168 168 168
181 181 181
183 183 183
173 173 173
184 184 184
194 194 194
190 190 190
176 176 176
154 154 154
163 163 163
184 184 184
196 196 196
200 200 200
190 190 190
170 170 170
173 173 173
178 178 178
172 172 172
168 168 168
187 187 187
209 209 209
218 218 218
206 206 206
183 183 183
157 157 157
175 175 175
192 192 192
199 199 199
191 191 191
166 166 166
169 169 169
163 163 163
153 153 153
163 163 163
164 164 164
156 156 156
168 168 168
192 192 192
208 208 208
209 209 209
193 193 193
170 170 170
185 185 185
208 208 208
221 221 221
211 211 211
189 189 189
162 162 162
134 134 134
135 135 135
143 143 143
159 159 159
169 169 169
170 170 170
161 161 161
166 166 166
163 163 163
152 152 152
150 150 150
177 177 177
203 203 203
220 220 220
224 224 224
208 208 208
183 183 183
183 183 183
189 189 189
182 182 182
166 166 166
180 180 180
199 199 199
206 206 206
197 197 197
177 177 177
164 164 164
191 191 191
216 216 216
227 227 227
213 213 213
156 156 156
159 159 159
153 153 153
163 163 163
174 174 174
176 176 176
167 167 167
179 179 179
206 206 206
230 230 230
231 231 231
207 207 207
179 179 179
182 182 182
205 205 205
216 216 216
208 208 208
186 186 186
160 160 160
133 133 133
140 140 140
149 149 149
167 167 167
179 179 179
179 179 179
179 179 179
186 186 186
182 182 182
167 167 167
153 153 153
181 181 181
209 209 209
231 231 231
229 229 229
211 211 211
185 185 185
182 182 182
187 187 187
181 181 181
164 164 164
163 163 163
178 178 178
183 183 183
177 177 177
161 161 161
167 167 167
196 196 196
224 224 224
243 243 243
221 221 221
