P3
50 50
255
170 170 170
181 181 181
182 182 182
172 172 172
154 154 154
143 143 143
139 139 139
139 139 139
168 168 168
195 195 195
220 220 220
230 230 230
213 213 213
187 187 187
181 181 181
189 189 189
185 185 185
184 184 184
184 184 184
173 173 173
154 154 154
163 163 163
175 175 175
178 178 178
169 169 169
153 153 153
135 135 135
127 127 127
127 127 127
149 149 149
167 167 167
178 178 178
178 178 178
167 167 167
149 149 149
127 127 127
138 138 138
152 152 152
160 160 160
159 159 159
167 167 167
192 192 192
212 212 212
215 215 215
216 216 216
221 221 221
204 204 204
179 179 179
152 152 152
155 155 155
182 182 182
196 196 196
197 197 197
184 184 184
167 167 167
172 172 172
166 166 166
152 152 152
170 170 170
199 199 199
226 226 226
240 240 240
218 218 218
189 189 189
192 192 192
202 202 202
197 197 197
202 202 202
202 202 202
187 187 187
165 165 165
181 181 181
196 196 196
200 200 200
188 188 188
168 168 168
164 164 164
154 154 154
137 137 137
147 147 147
165 165 165
175 175 175
175 175 175
165 165 165
148 148 148
131 131 131
153 153 153
171 171 171
180 180 180
179 179 179
168 168 168
194 194 194
214 214 214
218 218 218
228 228 228
235 235 235
213 213 213
185 185 185
178 178 178
183 183 183
183 183 183
197 197 197
198 198 198
186 186 186
193 193 193
200 200 200
192 192 192
173 173 173
162 162 162
188 188 188
208 208 208
215 215 215
202 202 202
180 180 180
190 190 190
200 200 200
195 195 195
207 207 207
207 207 207
191 191 191
168 168 168
189 189 189
208 208 208
212 212 212
198 198 198
194 194 194
193 193 193
179 179 179
158 158 158
138 138 138
154 154 154
163 163 163
163 163 163
154 154 154
138 138 138
138 138 138
162 162 162
182 182 182
193 193 193
191 191 191
177 177 177
182 182 182
198 198 198
201 201 201
213 213 213
218 218 218
202 202 202
182 182 182
202 202 202
209 209 209
173 173 173
185 185 185
186 186 186
190 190 190
214 214 214
226 226 226
212 212 212
188 188 188
161 161 161
167 167 167
182 182 182
186 186 186
178 178 178
161 161 161
176 176 176
184 184 184
182 182 182
195 195 195
195 195 195
182 182 182
174 174 174
185 185 185
202 202 202
206 206 206
203 203 203
222 222 222
220 220 220
199 199 199
172 172 172
144 144 144
137 137 137
144 144 144
144 144 144
146 146 146
142 142 142
138 138 138
162 162 162
182 182 182
193 193 193
191 191 191
177 177 177
162 162 162
174 174 174
176 176 176
188 188 188
191 191 191
181 181 181
192 192 192
215 215 215
226 226 226
154 154 154
164 164 164
165 165 165
193 193 193
220 220 220
234 234 234
218 218 218
191 191 191
177 177 177
158 158 158
154 154 154
157 157 157
151 151 151
146 146 146
156 156 156
162 162 162
164 164 164
174 174 174
174 174 174
191 191 191
203 203 203
200 200 200
183 183 183
186 186 186
213 213 213
241 241 241
236 236 236
207 207 207
178 178 178
149 149 149
130 130 130
133 133 133
145 145 145
149 149 149
145 145 145
134 134 134
153 153 153
170 170 170
180 180 180
178 178 178
166 166 166
150 150 150
157 157 157
156 156 156
160 160 160
162 162 162
162 162 162
188 188 188
210 210 210
218 218 218
150 150 150
146 146 146
158 158 158
183 183 183
204 204 204
213 213 213
205 205 205
207 207 207
193 193 193
171 171 171
148 148 148
133 133 133
142 142 142
148 148 148
146 146 146
138 138 138
141 141 141
155 155 155
183 183 183
210 210 210
230 230 230
224 224 224
200 200 200
178 178 178
204 204 204
222 222 222
220 220 220
199 199 199
173 173 173
145 145 145
154 154 154
158 158 158
153 153 153
144 144 144
140 140 140
130 130 130
144 144 144
152 152 152
159 159 159
158 158 158
156 156 156
174 174 174
184 184 184
183 183 183
170 170 170
151 151 151
151 151 151
173 173 173
190 190 190
195 195 195
164 164 164
160 160 160
151 151 151
165 165 165
180 180 180
192 192 192
211 211 211
213 213 213
197 197 197
174 174 174
156 156 156
140 140 140
151 151 151
158 158 158
156 156 156
145 145 145
131 131 131
156 156 156
185 185 185
214 214 214
239 239 239
230 230 230
203 203 203
174 174 174
183 183 183
194 194 194
193 193 193
179 179 179
158 158 158
161 161 161
176 176 176
180 180 180
174 174 174
158 158 158
142 142 142
145 145 145
161 161 161
170 170 170
169 169 169
159 159 159
171 171 171
193 193 193
207 207 207
205 205 205
188 188 188
165 165 165
168 168 168
168 168 168
171 171 171
184 184 184
185 185 185
185 185 185
174 174 174
155 155 155
161 161 161
183 183 183
198 198 198
200 200 200
187 187 187
166 166 166
156 156 156
160 160 160
158 158 158
159 159 159
157 157 157
147 147 147
157 157 157
166 166 166
176 176 176
200 200 200
214 214 214
210 210 210
191 191 191
167 167 167
174 174 174
170 170 170
165 165 165
155 155 155
151 151 151
173 173 173
190 190 190
196 196 196
188 188 188
177 177 177
166 166 166
155 155 155
171 171 171
182 182 182
181 181 181
169 169 169
177 177 177
202 202 202
219 219 219
216 216 216
196 196 196
183 183 183
196 196 196
197 197 197
183 183 183
186 186 186
205 205 205
205 205 205
190 190 190
167 167 167
146 146 146
165 165 165
176 176 176
178 178 178
168 168 168
156 156 156
167 167 167
175 175 175
173 173 173
161 161 161
150 150 150
160 160 160
179 179 179
191 191 191
191 191 191
178 178 178
186 186 186
183 183 183
170 170 170
166 166 166
173 173 173
169 169 169
157 157 157
153 153 153
152 152 152
175 175 175
193 193 193
199 199 199
201 201 201
200 200 200
186 186 186
183 183 183
175 175 175
182 182 182
181 181 181
169 169 169
172 172 172
195 195 195
210 210 210
208 208 208
190 190 190
202 202 202
223 223 223
223 223 223
202 202 202
190 190 190
213 213 213
213 213 213
196 196 196
171 171 171
144 144 144
142 142 142
151 151 151
151 151 151
144 144 144
163 163 163
176 176 176
181 181 181
179 179 179
166 166 166
147 147 147
172 172 172
196 196 196
212 212 212
211 211 211
193 193 193
169 169 169
155 155 155
145 145 145
156 156 156
162 162 162
159 159 159
165 165 165
163 163 163
152 152 152
167 167 167
182 182 182
198 198 198
216 216 216
215 215 215
215 215 215
211 211 211
191 191 191
180 180 180
173 173 173
162 162 162
173 173 173
177 177 177
188 188 188
186 186 186
179 179 179
208 208 208
234 234 234
235 235 235
208 208 208
195 195 195
201 201 201
201 201 201
187 187 187
165 165 165
140 140 140
123 123 123
123 123 123
131 131 131
157 157 157
180 180 180
197 197 197
202 202 202
192 192 192
172 172 172
147 147 147
175 175 175
200 200 200
217 217 217
216 216 216
197 197 197
172 172 172
144 144 144
146 146 146
153 153 153
153 153 153
159 159 159
167 167 167
165 165 165
154 154 154
151 151 151
171 171 171
195 195 195
211 211 211
215 215 215
242 242 242
232 232 232
204 204 204
175 175 175
166 166 166
183 183 183
190 190 190
184 184 184
182 182 182
183 183 183
172 172 172
197 197 197
215 215 215
216 216 216
198 198 198
187 187 187
179 179 179
179 179 179
169 169 169
150 150 150
135 135 135
138 138 138
135 135 135
143 143 143
163 163 163
188 188 188
208 208 208
214 214 214
201 201 201
179 179 179
152 152 152
167 167 167
189 189 189
203 203 203
202 202 202
187 187 187
164 164 164
140 140 140
143 143 143
151 151 151
150 150 150
152 152 152
159 159 159
157 157 157
147 147 147
135 135 135
159 159 159
179 179 179
192 192 192
211 211 211
232 232 232
226 226 226
201 201 201
173 173 173
182 182 182
205 205 205
216 216 216
207 207 207
186 186 186
183 183 183
172 172 172
176 176 176
188 188 188
188 188 188
176 176 176
169 169 169
154 154 154
154 154 154
145 145 145
148 148 148
156 156 156
154 154 154
145 145 145
148 148 148
166 166 166
183 183 183
202 202 202
207 207 207
196 196 196
175 175 175
149 149 149
151 151 151
169 169 169
179 179 179
178 178 178
167 167 167
173 173 173
169 169 169
156 156 156
154 154 154
146 146 146
138 138 138
144 144 144
142 142 142
133 133 133
120 120 120
141 141 141
157 157 157
170 170 170
192 192 192
204 204 204
201 201 201
184 184 184
161 161 161
189 189 189
216 216 216
232 232 232
219 219 219
194 194 194
171 171 171
162 162 162
151 151 151
160 160 160
160 160 160
156 156 156
161 161 161
126 126 126
129 129 129
151 151 151
168 168 168
177 177 177
175 175 175
164 164 164
146 146 146
164 164 164
174 174 174
183 183 183
186 186 186
178 178 178
161 161 161
139 139 139
130 130 130
145 145 145
152 152 152
173 173 173
193 193 193
202 202 202
196 196 196
183 183 183
183 183 183
172 172 172
153 153 153
141 141 141
141 141 141
134 134 134
134 134 134
130 130 130
132 132 132
150 150 150
167 167 167
175 175 175
173 173 173
161 161 161
157 157 157
184 184 184
207 207 207
219 219 219
210 210 210
187 187 187
161 161 161
145 145 145
130 130 130
132 132 132
151 151 151
165 165 165
170 170 170
112 112 112
138 138 138
161 161 161
181 181 181
191 191 191
189 189 189
176 176 176
155 155 155
152 152 152
161 161 161
161 161 161
161 161 161
155 155 155
143 143 143
132 132 132
117 117 117
131 131 131
160 160 160
188 188 188
214 214 214
231 231 231
219 219 219
211 211 211
211 211 211
195 195 195
170 170 170
144 144 144
137 137 137
141 141 141
145 145 145
141 141 141
130 130 130
126 126 126
139 139 139
146 146 146
144 144 144
140 140 140
167 167 167
193 193 193
213 213 213
218 218 218
202 202 202
178 178 178
151 151 151
124 124 124
122 122 122
148 148 148
171 171 171
189 189 189
196 196 196
114 114 114
139 139 139
163 163 163
183 183 183
194 194 194
192 192 192
177 177 177
156 156 156
142 142 142
142 142 142
142 142 142
134 134 134
135 135 135
132 132 132
122 122 122
125 125 125
133 133 133
162 162 162
192 192 192
221 221 221
245 245 245
227 227 227
235 235 235
235 235 235
208 208 208
180 180 180
151 151 151
134 134 134
145 145 145
149 149 149
145 145 145
133 133 133
116 116 116
111 111 111
116 116 116
115 115 115
142 142 142
170 170 170
197 197 197
219 219 219
225 225 225
207 207 207
181 181 181
153 153 153
125 125 125
130 130 130
158 158 158
184 184 184
207 207 207
218 218 218
132 132 132
155 155 155
174 174 174
186 186 186
186 186 186
181 181 181
169 169 169
151 151 151
150 150 150
141 141 141
126 126 126
122 122 122
131 131 131
135 135 135
137 137 137
152 152 152
161 161 161
161 161 161
182 182 182
205 205 205
218 218 218
210 210 210
229 229 229
229 229 229
206 206 206
178 178 178
149 149 149
131 131 131
141 141 141
145 145 145
141 141 141
130 130 130
113 113 113
100 100 100
103 103 103
110 110 110
136 136 136
163 163 163
187 187 187
204 204 204
208 208 208
195 195 195
173 173 173
147 147 147
120 120 120
131 131 131
159 159 159
186 186 186
210 210 210
221 221 221
145 145 145
172 172 172
196 196 196
213 213 213
213 213 213
195 195 195
171 171 171
151 151 151
150 150 150
141 141 141
126 126 126
132 132 132
141 141 141
151 151 151
158 158 158
178 178 178
190 190 190
190 190 190
177 177 177
181 181 181
189 189 189
188 188 188
203 203 203
203 203 203
188 188 188
166 166 166
140 140 140
133 133 133
146 146 146
151 151 151
148 148 148
138 138 138
121 121 121
113 113 113
116 116 116
116 116 116
138 138 138
158 158 158
171 171 171
180 180 180
182 182 182
173 173 173
156 156 156
134 134 134
130 130 130
136 136 136
158 158 158
176 176 176
195 195 195
204 204 204
151 151 151
180 180 180
208 208 208
233 233 233
233 233 233
207 207 207
179 179 179
150 150 150
142 142 142
134 134 134
147 147 147
156 156 156
159 159 159
171 171 171
174 174 174
199 199 199
218 218 218
218 218 218
199 199 199
173 173 173
159 159 159
164 164 164
175 175 175
175 175 175
165 165 165
165 165 165
158 158 158
152 152 152
168 168 168
174 174 174
171 171 171
158 158 158
138 138 138
121 121 121
123 123 123
120 120 120
138 138 138
158 158 158
171 171 171
175 175 175
182 182 182
183 183 183
174 174 174
156 156 156
141 141 141
141 141 141
165 165 165
183 183 183
192 192 192
188 188 188
148 148 148
177 177 177
203 203 203
224 224 224
224 224 224
203 203 203
176 176 176
148 148 148
131 131 131
148 148 148
166 166 166
178 178 178
178 178 178
184 184 184
187 187 187
210 210 210
238 238 238
238 238 238
210 210 210
180 180 180
151 151 151
143 143 143
151 151 151
173 173 173
189 189 189
193 193 193
184 184 184
166 166 166
183 183 183
192 192 192
187 187 187
171 171 171
150 150 150
134 134 134
130 130 130
122 122 122
131 131 131
149 149 149
166 166 166
191 191 191
209 209 209
212 212 212
197 197 197
174 174 174
168 168 168
162 162 162
162 162 162
180 180 180
189 189 189
185 185 185
140 140 140
164 164 164
185 185 185
199 199 199
199 199 199
185 185 185
163 163 163
138 138 138
148 148 148
157 157 157
178 178 178
192 192 192
193 193 193
186 186 186
189 189 189
203 203 203
224 224 224
224 224 224
203 203 203
176 176 176
148 148 148
157 157 157
165 165 165
191 191 191
212 212 212
219 219 219
205 205 205
181 181 181
189 189 189
198 198 198
193 193 193
176 176 176
159 159 159
163 163 163
158 158 158
144 144 144
125 125 125
146 146 146
176 176 176
205 205 205
232 232 232
239 239 239
213 213 213
193 193 193
198 198 198
188 188 188
169 169 169
167 167 167
174 174 174
180 180 180
140 140 140
163 163 163
183 183 183
194 194 194
191 191 191
177 177 177
155 155 155
146 146 146
158 158 158
162 162 162
180 180 180
194 194 194
195 195 195
182 182 182
179 179 179
184 184 184
197 197 197
197 197 197
183 183 183
162 162 162
159 159 159
163 163 163
169 169 169
198 198 198
224 224 224
234 234 234
215 215 215
187 187 187
182 182 182
190 190 190
186 186 186
170 170 170
186 186 186
191 191 191
183 183 183
166 166 166
143 143 143
146 146 146
174 174 174
203 203 203
228 228 228
233 233 233
211 211 211
218 218 218
227 227 227
210 210 210
185 185 185
171 171 171
194 194 194
208 208 208
150 150 150
177 177 177
202 202 202
218 218 218
214 214 214
194 194 194
168 168 168
148 148 148
161 161 161
165 165 165
170 170 170
182 182 182
183 183 183
173 173 173
160 160 160
159 159 159
168 168 168
168 168 168
174 174 174
186 186 186
187 187 187
176 176 176
164 164 164
190 190 190
211 211 211
218 218 218
204 204 204
181 181 181
180 180 180
176 176 176
168 168 168
187 187 187
208 208 208
217 217 217
205 205 205
182 182 182
156 156 156
141 141 141
163 163 163
187 187 187
203 203 203
206 206 206
201 201 201
231 231 231
248 248 248
219 219 219
190 190 190
182 182 182
209 209 209
231 231 231
153 153 153
181 181 181
208 208 208
227 227 227
222 222 222
199 199 199
172 172 172
146 146 146
154 154 154
158 158 158
153 153 153
163 163 163
163 163 163
159 159 159
164 164 164
159 159 159
165 165 165
181 181 181
194 194 194
212 212 212
213 213 213
197 197 197
173 173 173
172 172 172
187 187 187
192 192 192
183 183 183
195 195 195
205 205 205
199 199 199
181 181 181
193 193 193
219 219 219
230 230 230
214 214 214
188 188 188
170 170 170
157 157 157
145 145 145
164 164 164
175 175 175
177 177 177
192 192 192
215 215 215
222 222 222
207 207 207
183 183 183
181 181 181
208 208 208
229 229 229
148 148 148
174 174 174
197 197 197
211 211 211
208 208 208
190 190 190
165 165 165
144 144 144
140 140 140
143 143 143
139 139 139
146 146 146
168 168 168
185 185 185
192 192 192
185 185 185
174 174 174
185 185 185
205 205 205
229 229 229
231 231 231
208 208 208
180 180 180
152 152 152
160 160 160
163 163 163
183 183 183
208 208 208
222 222 222
214 214 214
191 191 191
187 187 187
208 208 208
216 216 216
204 204 204
185 185 185
180 180 180
166 166 166
145 145 145
138 138 138
146 146 146
152 152 152
173 173 173
189 189 189
193 193 193
184 184 184
165 165 165
170 170 170
192 192 192
205 205 205
135 135 135
158 158 158
176 176 176
186 186 186
184 184 184
170 170 170
150 150 150
134 134 134
134 134 134
128 128 128
131 131 131
158 158 158
184 184 184
207 207 207
217 217 217
207 207 207
195 195 195
191 191 191
199 199 199
220 220 220
221 221 221
202 202 202
177 177 177
149 149 149
132 132 132
155 155 155
181 181 181
204 204 204
217 217 217
210 210 210
189 189 189
170 170 170
185 185 185
191 191 191
183 183 183
185 185 185
180 180 180
165 165 165
144 144 144
125 125 125
128 128 128
143 143 143
157 157 157
163 163 163
164 164 164
157 157 157
143 143 143
151 151 151
168 168 168
177 177 177
134 134 134
142 142 142
155 155 155
160 160 160
157 157 157
146 146 146
132 132 132
140 140 140
140 140 140
134 134 134
134 134 134
163 163 163
190 190 190
216 216 216
230 230 230
216 216 216
206 206 206
202 202 202
184 184 184
195 195 195
196 196 196
184 184 184
163 163 163
138 138 138
143 143 143
163 163 163
188 188 188
207 207 207
211 211 211
198 198 198
175 175 175
152 152 152
159 159 159
163 163 163
166 166 166
173 173 173
168 168 168
155 155 155
152 152 152
154 154 154
148 148 148
157 157 157
173 173 173
180 180 180
176 176 176
162 162 162
142 142 142
136 136 136
144 144 144
148 148 148
151 151 151
157 157 157
155 155 155
145 145 145
146 146 146
141 141 141
131 131 131
139 139 139
140 140 140
133 133 133
130 130 130
158 158 158
183 183 183
205 205 205
215 215 215
206 206 206
201 201 201
197 197 197
180 180 180
167 167 167
168 168 168
159 159 159
146 146 146
153 153 153
164 164 164
184 184 184
202 202 202
228 228 228
238 238 238
214 214 214
186 186 186
157 157 157
153 153 153
158 158 158
154 154 154
153 153 153
150 150 150
166 166 166
179 179 179
182 182 182
174 174 174
163 163 163
180 180 180
188 188 188
183 183 183
168 168 168
147 147 147
162 162 162
173 173 173
175 175 175
160 160 160
167 167 167
165 165 165
171 171 171
175 175 175
168 168 168
152 152 152
132 132 132
132 132 132
135 135 135
131 131 131
145 145 145
167 167 167
183 183 183
190 190 190
183 183 183
183 183 183
179 179 179
166 166 166
146 146 146
139 139 139
152 152 152
159 159 159
174 174 174
186 186 186
206 206 206
224 224 224
226 226 226
235 235 235
213 213 213
185 185 185
164 164 164
180 180 180
186 186 186
180 180 180
164 164 164
162 162 162
187 187 187
205 205 205
210 210 210
197 197 197
175 175 175
176 176 176
183 183 183
179 179 179
165 165 165
162 162 162
185 185 185
201 201 201
204 204 204
161 161 161
168 168 168
180 180 180
197 197 197
202 202 202
192 192 192
172 172 172
148 148 148
160 160 160
165 165 165
159 159 159
146 146 146
144 144 144
157 157 157
162 162 162
157 157 157
159 159 159
156 156 156
146 146 146
129 129 129
143 143 143
157 157 157
166 166 166
189 189 189
204 204 204
214 214 214
244 244 244
236 236 236
207 207 207
195 195 195
173 173 173
182 182 182
203 203 203
213 213 213
203 203 203
182 182 182
171 171 171
198 198 198
223 223 223
231 231 231
211 211 211
184 184 184
164 164 164
168 168 168
165 165 165
152 152 152
174 174 174
202 202 202
227 227 227
231 231 231
153 153 153
167 167 167
194 194 194
217 217 217
225 225 225
209 209 209
184 184 184
171 171 171
188 188 188
194 194 194
186 186 186
169 169 169
146 146 146
129 129 129
133 133 133
130 130 130
142 142 142
151 151 151
153 153 153
146 146 146
139 139 139
153 153 153
168 168 168
192 192 192
208 208 208
208 208 208
222 222 222
218 218 218
197 197 197
171 171 171
174 174 174
191 191 191
216 216 216
231 231 231
217 217 217
191 191 191
169 169 169
196 196 196
219 219 219
225 225 225
208 208 208
182 182 182
155 155 155
149 149 149
144 144 144
147 147 147
176 176 176
205 205 205
233 233 233
239 239 239
139 139 139
167 167 167
195 195 195
219 219 219
227 227 227
211 211 211
185 185 185
190 190 190
213 213 213
223 223 223
210 210 210
186 186 186
159 159 159
131 131 131
118 118 118
134 134 134
151 151 151
162 162 162
163 163 163
156 156 156
141 141 141
145 145 145
161 161 161
182 182 182
195 195 195
195 195 195
193 193 193
191 191 191
177 177 177
171 171 171
179 179 179
187 187 187
210 210 210
221 221 221
210 210 210
187 187 187
160 160 160
181 181 181
197 197 197
201 201 201
195 195 195
191 191 191
175 175 175
153 153 153
128 128 128
140 140 140
167 167 167
192 192 192
211 211 211
214 214 214
132 132 132
159 159 159
183 183 183
201 201 201
206 206 206
195 195 195
174 174 174
197 197 197
227 227 227
251 251 251
223 223 223
194 194 194
164 164 164
135 135 135
114 114 114
136 136 136
153 153 153
164 164 164
166 166 166
158 158 158
156 156 156
166 166 166
167 167 167
163 163 163
173 173 173
173 173 173
164 164 164
163 163 163
169 169 169
180 180 180
180 180 180
178 178 178
189 189 189
196 196 196
189 189 189
172 172 172
149 149 149
159 159 159
182 182 182
207 207 207
222 222 222
215 215 215
193 193 193
166 166 166
148 148 148
146 146 146
151 151 151
171 171 171
183 183 183
185 185 185
119 119 119
143 143 143
162 162 162
176 176 176
179 179 179
172 172 172
164 164 164
191 191 191
215 215 215
226 226 226
213 213 213
188 188 188
160 160 160
141 141 141
120 120 120
130 130 130
147 147 147
157 157 157
158 158 158
151 151 151
170 170 170
182 182 182
183 183 183
172 172 172
154 154 154
148 148 148
150 150 150
148 148 148
166 166 166
177 177 177
177 177 177
167 167 167
164 164 164
169 169 169
164 164 164
153 153 153
147 147 147
159 159 159
188 188 188
216 216 216
237 237 237
226 226 226
199 199 199
170 170 170
175 175 175
172 172 172
159 159 159
150 150 150
156 156 156
156 156 156
109 109 109
133 133 133
153 153 153
169 169 169
175 175 175
171 171 171
158 158 158
174 174 174
191 191 191
197 197 197
189 189 189
182 182 182
172 172 172
154 154 154
131 131 131
118 118 118
133 133 133
142 142 142
144 144 144
155 155 155
175 175 175
187 187 187
188 188 188
177 177 177
158 158 158
172 172 172
179 179 179
175 175 175
162 162 162
164 164 164
165 165 165
156 156 156
155 155 155
165 165 165
178 178 178
181 181 181
173 173 173
167 167 167
181 181 181
205 205 205
219 219 219
212 212 212
191 191 191
190 190 190
200 200 200
195 195 195
178 178 178
158 158 158
164 164 164
162 162 162
119 119 119
145 145 145
168 168 168
186 186 186
195 195 195
190 190 190
173 173 173
151 151 151
163 163 163
176 176 176
189 189 189
190 190 190
178 178 178
159 159 159
135 135 135
111 111 111
124 124 124
140 140 140
156 156 156
164 164 164
169 169 169
181 181 181
181 181 181
171 171 171
177 177 177
198 198 198
208 208 208
202 202 202
183 183 183
159 159 159
152 152 152
172 172 172
184 184 184
185 185 185
204 204 204
208 208 208
196 196 196
175 175 175
172 172 172
182 182 182
191 191 191
187 187 187
180 180 180
203 203 203
216 216 216
209 209 209
189 189 189
163 163 163
164 164 164
161 161 161
123 123 123
149 149 149
174 174 174
194 194 194
204 204 204
198 198 198
180 180 180
156 156 156
152 152 152
171 171 171
183 183 183
184 184 184
174 174 174
155 155 155
132 132 132
107 107 107
123 123 123
144 144 144
160 160 160
169 169 169
168 168 168
164 164 164
176 176 176
182 182 182
189 189 189
217 217 217
236 236 236
224 224 224
197 197 197
169 169 169
169 169 169
193 193 193
211 211 211
213 213 213
221 221 221
230 230 230
211 211 211
185 185 185
161 161 161
158 158 158
163 163 163
183 183 183
198 198 198
201 201 201
213 213 213
207 207 207
187 187 187
162 162 162
154 154 154
151 151 151
120 120 120
146 146 146
169 169 169
188 188 188
197 197 197
191 191 191
178 178 178
183 183 183
177 177 177
161 161 161
168 168 168
168 168 168
159 159 159
145 145 145
137 137 137
124 124 124
120 120 120
139 139 139
155 155 155
163 163 163
163 163 163
164 164 164
180 180 180
186 186 186
190 190 190
217 217 217
238 238 238
225 225 225
198 198 198
169 169 169
177 177 177
206 206 206
232 232 232
236 236 236
218 218 218
225 225 225
209 209 209
183 183 183
174 174 174
166 166 166
175 175 175
201 201 201
223 223 223
225 225 225
204 204 204
190 190 190
174 174 174
152 152 152
138 138 138
135 135 135
111 111 111
135 135 135
156 156 156
171 171 171
178 178 178
183 183 183
203 203 203
211 211 211
201 201 201
180 180 180
154 154 154
152 152 152
161 161 161
162 162 162
153 153 153
153 153 153
147 147 147
135 135 135
142 142 142
150 150 150
149 149 149
158 158 158
173 173 173
178 178 178
178 178 178
199 199 199
210 210 210
204 204 204
184 184 184
160 160 160
175 175 175
202 202 202
226 226 226
228 228 228
207 207 207
202 202 202
191 191 191
182 182 182
184 184 184
175 175 175
178 178 178
206 206 206
233 233 233
235 235 235
209 209 209
181 181 181
154 154 154
135 135 135
123 123 123
114 114 114
112 112 112
129 129 129
140 140 140
149 149 149
166 166 166
194 194 194
220 220 220
234 234 234
217 217 217
190 190 190
162 162 162
161 161 161
171 171 171
171 171 171
176 176 176
180 180 180
173 173 173
157 157 157
136 136 136
131 131 131
130 130 130
144 144 144
157 157 157
162 162 162
164 164 164
174 174 174
181 181 181
177 177 177
163 163 163
143 143 143
163 163 163
185 185 185
201 201 201
202 202 202
188 188 188
174 174 174
168 168 168
181 181 181
184 184 184
175 175 175
170 170 170
195 195 195
213 213 213
214 214 214
197 197 197
173 173 173
146 146 146
122 122 122
117 117 117
106 106 106
107 107 107
123 123 123
134 134 134
142 142 142
168 168 168
192 192 192
216 216 216
228 228 228
213 213 213
188 188 188
163 163 163
167 167 167
170 170 170
181 181 181
199 199 199
205 205 205
195 195 195
175 175 175
153 153 153
131 131 131
122 122 122
145 145 145
164 164 164
177 177 177
180 180 180
171 171 171
155 155 155
149 149 149
138 138 138
137 137 137
144 144 144
162 162 162
173 173 173
173 173 173
164 164 164
155 155 155
168 168 168
172 172 172
183 183 183
191 191 191
186 186 186
174 174 174
186 186 186
187 187 187
176 176 176
157 157 157
133 133 133
123 123 123
115 115 115
104 104 104
110 110 110
127 127 127
137 137 137
141 141 141
162 162 162
184 184 184
198 198 198
202 202 202
193 193 193
174 174 174
184 184 184
190 190 190
182 182 182
191 191 191
214 214 214
223 223 223
209 209 209
184 184 184
164 164 164
139 139 139
131 131 131
149 149 149
169 169 169
182 182 182
185 185 185
176 176 176
159 159 159
152 152 152
162 162 162
162 162 162
154 154 154
139 139 139
144 144 144
144 144 144
137 137 137
152 152 152
165 165 165
182 182 182
206 206 206
218 218 218
210 210 210
189 189 189
162 162 162
158 158 158
150 150 150
141 141 141
147 147 147
146 146 146
136 136 136
121 121 121
122 122 122
140 140 140
152 152 152
157 157 157
153 153 153
166 166 166
177 177 177
177 177 177
168 168 168
179 179 179
198 198 198
204 204 204
195 195 195
189 189 189
210 210 210
218 218 218
205 205 205
186 186 186
165 165 165
141 141 141
154 154 154
172 172 172
183 183 183
182 182 182
179 179 179
171 171 171
154 154 154
171 171 171
183 183 183
184 184 184
174 174 174
155 155 155
132 132 132
115 115 115
125 125 125
142 142 142
161 161 161
190 190 190
218 218 218
239 239 239
224 224 224
197 197 197
168 168 168
139 139 139
144 144 144
159 159 159
166 166 166
165 165 165
154 154 154
136 136 136
128 128 128
147 147 147
160 160 160
166 166 166
161 161 161
156 156 156
167 167 167
168 168 168
160 160 160
179 179 179
197 197 197
204 204 204
195 195 195
175 175 175
191 191 191
196 196 196
187 187 187
176 176 176
158 158 158
145 145 145
171 171 171
195 195 195
211 211 211
210 210 210
193 193 193
169 169 169
161 161 161
183 183 183
197 197 197
198 198 198
186 186 186
165 165 165
140 140 140
113 113 113
110 110 110
129 129 129
158 158 158
185 185 185
210 210 210
224 224 224
215 215 215
191 191 191
164 164 164
136 136 136
153 153 153
170 170 170
179 179 179
177 177 177
164 164 164
145 145 145
132 132 132
146 146 146
159 159 159
165 165 165
160 160 160
155 155 155
165 165 165
166 166 166
158 158 158
168 168 168
183 183 183
188 188 188
181 181 181
164 164 164
166 166 166
169 169 169
166 166 166
158 158 158
149 149 149
152 152 152
181 181 181
210 210 210
235 235 235
233 233 233
207 207 207
178 178 178
161 161 161
183 183 183
198 198 198
199 199 199
186 186 186
165 165 165
140 140 140
113 113 113
115 115 115
120 120 120
146 146 146
169 169 169
188 188 188
197 197 197
191 191 191
174 174 174
152 152 152
147 147 147
155 155 155
172 172 172
181 181 181
179 179 179
166 166 166
147 147 147
155 155 155
158 158 158
153 153 153
154 154 154
151 151 151
145 145 145
154 154 154
156 156 156
148 148 148
149 149 149
162 162 162
166 166 166
160 160 160
171 171 171
175 175 175
174 174 174
171 171 171
177 177 177
178 178 178
168 168 168
180 180 180
207 207 207
230 230 230
229 229 229
204 204 204
187 187 187
166 166 166
172 172 172
184 184 184
185 185 185
175 175 175
156 156 156
133 133 133
110 110 110
116 116 116
131 131 131
154 154 154
173 173 173
185 185 185
185 185 185
173 173 173
170 170 170
160 160 160
172 172 172
176 176 176
169 169 169
172 172 172
172 172 172
172 172 172
163 163 163
174 174 174
178 178 178
171 171 171
155 155 155
147 147 147
145 145 145
153 153 153
153 153 153
145 145 145
143 143 143
137 137 137
155 155 155
179 179 179
197 197 197
204 204 204
200 200 200
195 195 195
205 205 205
206 206 206
191 191 191
169 169 169
190 190 190
204 204 204
222 222 222
226 226 226
207 207 207
181 181 181
154 154 154
163 163 163
164 164 164
156 156 156
140 140 140
125 125 125
112 112 112
116 116 116
141 141 141
167 167 167
190 190 190
206 206 206
206 206 206
190 190 190
180 180 180
177 177 177
193 193 193
198 198 198
188 188 188
184 184 184
198 198 198
198 198 198
185 185 185
185 185 185
189 189 189
181 181 181
163 163 163
141 141 141
149 149 149
158 158 158
161 161 161
168 168 168
166 166 166
155 155 155
165 165 165
193 193 193
219 219 219
232 232 232
219 219 219
212 212 212
231 231 231
232 232 232
208 208 208
182 182 182
183 183 183
205 205 205
233 233 233
241 241 241
214 214 214
185 185 185
156 156 156
145 145 145
141 141 141
142 142 142
142 142 142
134 134 134
124 124 124
128 128 128
146 146 146
172 172 172
196 196 196
214 214 214
214 214 214
196 196 196
179 179 179
186 186 186
205 205 205
211 211 211
199 199 199
199 199 199
218 218 218
219 219 219
200 200 200
184 184 184
188 188 188
180 180 180
163 163 163
140 140 140
146 146 146
160 160 160
178 178 178
187 187 187
184 184 184
170 170 170
174 174 174
196 196 196
223 223 223
239 239 239
220 220 220
212 212 212
233 233 233
235 235 235
209 209 209
204 204 204
206 206 206
195 195 195
215 215 215
218 218 218
202 202 202
177 177 177
150 150 150
153 153 153
149 149 149
144 144 144
152 152 152
152 152 152
144 144 144
134 134 134
153 153 153
167 167 167
188 188 188
203 203 203
203 203 203
188 188 188
168 168 168
182 182 182
200 200 200
206 206 206
195 195 195
200 200 200
220 220 220
220 220 220
201 201 201
172 172 172
176 176 176
169 169 169
153 153 153
137 137 137
142 142 142
166 166 166
185 185 185
196 196 196
193 193 193
197 197 197
203 203 203
193 193 193
205 205 205
213 213 213
203 203 203
195 195 195
209 209 209
209 209 209
196 196 196
216 216 216
219 219 219
201 201 201
188 188 188
190 190 190
180 180 180
161 161 161
147 147 147
152 152 152
149 149 149
159 159 159
169 169 169
169 169 169
159 159 159
143 143 143
152 152 152
165 165 165
170 170 170
181 181 181
181 181 181
170 170 170
178 178 178
193 193 193
196 196 196
192 192 192
194 194 194
187 187 187
202 202 202
202 202 202
187 187 187
