P3
50 50
255
111 111 111
138 138 138
164 164 164
187 187 187
204 204 204
205 205 205
191 191 191
192 192 192
196 196 196
186 186 186
168 168 168
152 152 152
179 179 179
204 204 204
221 221 221
217 217 217
196 196 196
170 170 170
142 142 142
113 113 113
104 104 104
112 112 112
115 115 115
129 129 129
149 149 149
163 163 163
170 170 170
166 166 166
153 153 153
135 135 135
113 113 113
116 116 116
129 129 129
135 135 135
153 153 153
169 169 169
177 177 177
181 181 181
179 179 179
166 166 166
147 147 147
124 124 124
125 125 125
125 125 125
125 125 125
141 141 141
151 151 151
153 153 153
147 147 147
134 134 134
115 115 115
144 144 144
172 172 172
198 198 198
218 218 218
221 221 221
203 203 203
189 189 189
193 193 193
184 184 184
166 166 166
152 152 152
180 180 180
205 205 205
223 223 223
219 219 219
197 197 197
174 174 174
153 153 153
128 128 128
122 122 122
131 131 131
134 134 134
132 132 132
153 153 153
168 168 168
174 174 174
170 170 170
157 157 157
138 138 138
121 121 121
133 133 133
149 149 149
157 157 157
167 167 167
187 187 187
197 197 197
198 198 198
196 196 196
180 180 180
158 158 158
137 137 137
144 144 144
145 145 145
137 137 137
153 153 153
164 164 164
166 166 166
159 159 159
145 145 145
114 114 114
142 142 142
169 169 169
194 194 194
213 213 213
215 215 215
199 199 199
175 175 175
178 178 178
171 171 171
155 155 155
144 144 144
170 170 170
191 191 191
203 203 203
219 219 219
214 214 214
194 194 194
168 168 168
140 140 140
135 135 135
146 146 146
149 149 149
144 144 144
148 148 148
162 162 162
168 168 168
165 165 165
161 161 161
156 156 156
143 143 143
146 146 146
164 164 164
173 173 173
173 173 173
194 194 194
206 206 206
203 203 203
200 200 200
184 184 184
161 161 161
150 150 150
159 159 159
159 159 159
152 152 152
156 156 156
168 168 168
171 171 171
164 164 164
148 148 148
106 106 106
133 133 133
157 157 157
178 178 178
192 192 192
193 193 193
182 182 182
162 162 162
156 156 156
150 150 150
137 137 137
130 130 130
157 157 157
187 187 187
216 216 216
243 243 243
232 232 232
204 204 204
174 174 174
145 145 145
142 142 142
153 153 153
157 157 157
152 152 152
139 139 139
149 149 149
163 163 163
177 177 177
183 183 183
176 176 176
161 161 161
152 152 152
170 170 170
181 181 181
181 181 181
188 188 188
198 198 198
194 194 194
190 190 190
176 176 176
155 155 155
156 156 156
171 171 171
179 179 179
177 177 177
170 170 170
166 166 166
165 165 165
158 158 158
144 144 144
121 121 121
120 120 120
139 139 139
156 156 156
166 166 166
167 167 167
159 159 159
143 143 143
131 131 131
126 126 126
115 115 115
125 125 125
154 154 154
182 182 182
208 208 208
227 227 227
221 221 221
198 198 198
170 170 170
166 166 166
158 158 158
153 153 153
156 156 156
157 157 157
154 154 154
151 151 151
174 174 174
191 191 191
198 198 198
190 190 190
172 172 172
153 153 153
167 167 167
178 178 178
177 177 177
171 171 171
179 179 179
176 176 176
170 170 170
159 159 159
144 144 144
169 169 169
189 189 189
201 201 201
197 197 197
183 183 183
179 179 179
164 164 164
145 145 145
132 132 132
150 150 150
148 148 148
139 139 139
131 131 131
139 139 139
139 139 139
133 133 133
120 120 120
118 118 118
124 124 124
123 123 123
117 117 117
143 143 143
167 167 167
187 187 187
199 199 199
195 195 195
180 180 180
181 181 181
184 184 184
174 174 174
161 161 161
177 177 177
185 185 185
181 181 181
166 166 166
175 175 175
193 193 193
199 199 199
191 191 191
173 173 173
165 165 165
177 177 177
180 180 180
172 172 172
155 155 155
155 155 155
153 153 153
146 146 146
146 146 146
149 149 149
175 175 175
197 197 197
211 211 211
206 206 206
188 188 188
181 181 181
166 166 166
145 145 145
143 143 143
178 178 178
176 176 176
164 164 164
145 145 145
127 127 127
129 129 129
125 125 125
118 118 118
128 128 128
135 135 135
134 134 134
126 126 126
133 133 133
152 152 152
164 164 164
170 170 170
167 167 167
175 175 175
189 189 189
192 192 192
182 182 182
177 177 177
199 199 199
210 210 210
204 204 204
184 184 184
167 167 167
181 181 181
187 187 187
180 180 180
164 164 164
168 168 168
181 181 181
184 184 184
175 175 175
157 157 157
149 149 149
146 146 146
155 155 155
168 168 168
172 172 172
170 170 170
191 191 191
203 203 203
199 199 199
183 183 183
184 184 184
176 176 176
159 159 159
170 170 170
206 206 206
203 203 203
186 186 186
162 162 162
136 136 136
137 137 137
141 141 141
137 137 137
139 139 139
138 138 138
138 138 138
130 130 130
128 128 128
146 146 146
157 157 157
161 161 161
172 172 172
176 176 176
184 184 184
187 187 187
177 177 177
185 185 185
210 210 210
226 226 226
217 217 217
193 193 193
179 179 179
181 181 181
172 172 172
161 161 161
157 157 157
165 165 165
173 173 173
175 175 175
167 167 167
156 156 156
162 162 162
158 158 158
169 169 169
184 184 184
189 189 189
181 181 181
174 174 174
183 183 183
183 183 183
201 201 201
206 206 206
195 195 195
174 174 174
193 193 193
229 229 229
223 223 223
199 199 199
172 172 172
152 152 152
165 165 165
170 170 170
165 165 165
151 151 151
147 147 147
136 136 136
126 126 126
117 117 117
132 132 132
143 143 143
162 162 162
176 176 176
181 181 181
174 174 174
171 171 171
163 163 163
181 181 181
204 204 204
217 217 217
210 210 210
189 189 189
180 180 180
182 182 182
173 173 173
156 156 156
163 163 163
172 172 172
170 170 170
159 159 159
152 152 152
160 160 160
166 166 166
162 162 162
174 174 174
191 191 191
196 196 196
187 187 187
168 168 168
164 164 164
189 189 189
210 210 210
216 216 216
203 203 203
182 182 182
209 209 209
228 228 228
222 222 222
199 199 199
171 171 171
174 174 174
192 192 192
199 199 199
191 191 191
173 173 173
150 150 150
140 140 140
123 123 123
107 107 107
125 125 125
145 145 145
161 161 161
170 170 170
174 174 174
168 168 168
153 153 153
144 144 144
167 167 167
185 185 185
194 194 194
189 189 189
179 179 179
192 192 192
193 193 193
180 180 180
160 160 160
160 160 160
168 168 168
166 166 166
155 155 155
142 142 142
155 155 155
160 160 160
157 157 157
169 169 169
184 184 184
188 188 188
181 181 181
165 165 165
159 159 159
183 183 183
201 201 201
206 206 206
195 195 195
182 182 182
208 208 208
205 205 205
201 201 201
185 185 185
191 191 191
190 190 190
214 214 214
227 227 227
214 214 214
189 189 189
161 161 161
135 135 135
119 119 119
130 130 130
145 145 145
160 160 160
178 178 178
187 187 187
185 185 185
171 171 171
151 151 151
134 134 134
146 146 146
160 160 160
166 166 166
174 174 174
200 200 200
219 219 219
220 220 220
201 201 201
175 175 175
148 148 148
155 155 155
153 153 153
144 144 144
130 130 130
142 142 142
147 147 147
146 146 146
170 170 170
190 190 190
200 200 200
196 196 196
179 179 179
157 157 157
166 166 166
180 180 180
184 184 184
179 179 179
177 177 177
192 192 192
177 177 177
175 175 175
198 198 198
211 211 211
207 207 207
223 223 223
241 241 241
222 222 222
194 194 194
165 165 165
136 136 136
128 128 128
151 151 151
170 170 170
181 181 181
186 186 186
197 197 197
194 194 194
179 179 179
157 157 157
153 153 153
160 160 160
158 158 158
150 150 150
180 180 180
209 209 209
236 236 236
237 237 237
210 210 210
181 181 181
152 152 152
136 136 136
135 135 135
130 130 130
137 137 137
142 142 142
140 140 140
149 149 149
174 174 174
196 196 196
207 207 207
202 202 202
184 184 184
160 160 160
144 144 144
155 155 155
171 171 171
180 180 180
178 178 178
168 168 168
151 151 151
178 178 178
201 201 201
216 216 216
211 211 211
208 208 208
218 218 218
208 208 208
185 185 185
159 159 159
131 131 131
142 142 142
168 168 168
192 192 192
208 208 208
209 209 209
193 193 193
189 189 189
175 175 175
154 154 154
165 165 165
174 174 174
172 172 172
160 160 160
174 174 174
200 200 200
220 220 220
221 221 221
201 201 201
175 175 175
153 153 153
153 153 153
144 144 144
144 144 144
158 158 158
164 164 164
161 161 161
150 150 150
168 168 168
187 187 187
197 197 197
193 193 193
177 177 177
155 155 155
133 133 133
146 146 146
162 162 162
170 170 170
169 169 169
158 158 158
145 145 145
170 170 170
190 190 190
202 202 202
198 198 198
184 184 184
190 190 190
183 183 183
167 167 167
145 145 145
120 120 120
148 148 148
177 177 177
204 204 204
228 228 228
229 229 229
206 206 206
179 179 179
162 162 162
168 168 168
169 169 169
178 178 178
176 176 176
164 164 164
161 161 161
182 182 182
195 195 195
195 195 195
181 181 181
169 169 169
179 179 179
178 178 178
167 167 167
157 157 157
174 174 174
182 182 182
178 178 178
165 165 165
153 153 153
169 169 169
177 177 177
174 174 174
161 161 161
142 142 142
123 123 123
132 132 132
146 146 146
153 153 153
151 151 151
142 142 142
132 132 132
153 153 153
170 170 170
178 178 178
176 176 176
166 166 166
161 161 161
156 156 156
144 144 144
125 125 125
118 118 118
147 147 147
175 175 175
202 202 202
223 223 223
224 224 224
203 203 203
177 177 177
171 171 171
181 181 181
179 179 179
172 172 172
170 170 170
158 158 158
147 147 147
164 164 164
174 174 174
174 174 174
165 165 165
186 186 186
199 199 199
199 199 199
184 184 184
163 163 163
181 181 181
190 190 190
186 186 186
171 171 171
150 150 150
146 146 146
152 152 152
150 150 150
139 139 139
124 124 124
108 108 108
113 113 113
125 125 125
131 131 131
129 129 129
122 122 122
115 115 115
140 140 140
163 163 163
180 180 180
189 189 189
185 185 185
170 170 170
149 149 149
127 127 127
119 119 119
120 120 120
138 138 138
163 163 163
185 185 185
199 199 199
200 200 200
186 186 186
165 165 165
173 173 173
183 183 183
182 182 182
170 170 170
155 155 155
157 157 157
156 156 156
152 152 152
156 156 156
152 152 152
171 171 171
194 194 194
209 209 209
208 208 208
191 191 191
174 174 174
188 188 188
191 191 191
181 181 181
167 167 167
147 147 147
155 155 155
160 160 160
156 156 156
144 144 144
136 136 136
129 129 129
116 116 116
101 101 101
108 108 108
120 120 120
126 126 126
119 119 119
145 145 145
169 169 169
189 189 189
199 199 199
194 194 194
177 177 177
155 155 155
134 134 134
143 143 143
148 148 148
146 146 146
145 145 145
162 162 162
172 172 172
172 172 172
163 163 163
159 159 159
165 165 165
174 174 174
173 173 173
162 162 162
170 170 170
180 180 180
179 179 179
171 171 171
177 177 177
171 171 171
166 166 166
188 188 188
202 202 202
201 201 201
186 186 186
189 189 189
208 208 208
212 212 212
198 198 198
175 175 175
163 163 163
179 179 179
186 186 186
181 181 181
165 165 165
165 165 165
156 156 156
139 139 139
119 119 119
130 130 130
144 144 144
151 151 151
117 117 117
143 143 143
166 166 166
185 185 185
194 194 194
190 190 190
174 174 174
152 152 152
154 154 154
170 170 170
178 178 178
175 175 175
162 162 162
143 143 143
144 144 144
144 144 144
153 153 153
164 164 164
166 166 166
161 161 161
166 166 166
163 163 163
184 184 184
197 197 197
196 196 196
184 184 184
190 190 190
184 184 184
167 167 167
172 172 172
182 182 182
181 181 181
170 170 170
193 193 193
213 213 213
218 218 218
214 214 214
196 196 196
178 178 178
199 199 199
208 208 208
200 200 200
192 192 192
192 192 192
179 179 179
159 159 159
139 139 139
147 147 147
163 163 163
172 172 172
109 109 109
133 133 133
154 154 154
170 170 170
178 178 178
174 174 174
161 161 161
149 149 149
174 174 174
195 195 195
207 207 207
202 202 202
184 184 184
160 160 160
134 134 134
156 156 156
177 177 177
191 191 191
193 193 193
182 182 182
186 186 186
180 180 180
187 187 187
201 201 201
200 200 200
185 185 185
192 192 192
185 185 185
184 184 184
178 178 178
163 163 163
157 157 157
160 160 160
184 184 184
209 209 209
234 234 234
232 232 232
207 207 207
184 184 184
206 206 206
218 218 218
209 209 209
216 216 216
216 216 216
197 197 197
172 172 172
161 161 161
158 158 158
177 177 177
188 188 188
97 97 97
118 118 118
136 136 136
149 149 149
155 155 155
152 152 152
142 142 142
158 158 158
187 187 187
214 214 214
235 235 235
225 225 225
199 199 199
171 171 171
159 159 159
169 169 169
195 195 195
215 215 215
218 218 218
202 202 202
196 196 196
190 190 190
179 179 179
190 190 190
189 189 189
177 177 177
183 183 183
204 204 204
213 213 213
204 204 204
183 183 183
157 157 157
149 149 149
177 177 177
203 203 203
223 223 223
222 222 222
201 201 201
177 177 177
198 198 198
207 207 207
204 204 204
226 226 226
225 225 225
204 204 204
186 186 186
176 176 176
161 161 161
180 180 180
192 192 192
101 101 101
109 109 109
114 114 114
128 128 128
137 137 137
138 138 138
142 142 142
159 159 159
188 188 188
216 216 216
239 239 239
228 228 228
200 200 200
187 187 187
186 186 186
174 174 174
202 202 202
226 226 226
231 231 231
209 209 209
192 192 192
186 186 186
170 170 170
170 170 170
170 170 170
165 165 165
194 194 194
223 223 223
242 242 242
223 223 223
194 194 194
165 165 165
153 153 153
181 181 181
208 208 208
226 226 226
221 221 221
198 198 198
171 171 171
178 178 178
184 184 184
194 194 194
211 211 211
211 211 211
194 194 194
193 193 193
183 183 183
164 164 164
173 173 173
183 183 183
126 126 126
136 136 136
138 138 138
133 133 133
144 144 144
159 159 159
167 167 167
165 165 165
177 177 177
199 199 199
212 212 212
207 207 207
195 195 195
210 210 210
208 208 208
191 191 191
193 193 193
212 212 212
215 215 215
199 199 199
176 176 176
172 172 172
158 158 158
158 158 158
158 158 158
164 164 164
193 193 193
220 220 220
236 236 236
220 220 220
193 193 193
164 164 164
151 151 151
178 178 178
203 203 203
219 219 219
215 215 215
194 194 194
168 168 168
153 153 153
158 158 158
174 174 174
186 186 186
186 186 186
185 185 185
187 187 187
178 178 178
160 160 160
156 156 156
165 165 165
150 150 150
161 161 161
164 164 164
158 158 158
160 160 160
178 178 178
188 188 188
186 186 186
173 173 173
180 180 180
187 187 187
186 186 186
202 202 202
221 221 221
218 218 218
198 198 198
197 197 197
222 222 222
232 232 232
213 213 213
186 186 186
158 158 158
140 140 140
147 147 147
146 146 146
154 154 154
179 179 179
199 199 199
207 207 207
199 199 199
179 179 179
163 163 163
172 172 172
172 172 172
185 185 185
196 196 196
193 193 193
178 178 178
156 156 156
131 131 131
134 134 134
150 150 150
158 158 158
158 158 158
169 169 169
171 171 171
163 163 163
148 148 148
144 144 144
142 142 142
169 169 169
184 184 184
188 188 188
180 180 180
168 168 168
189 189 189
202 202 202
199 199 199
183 183 183
180 180 180
192 192 192
191 191 191
194 194 194
209 209 209
208 208 208
191 191 191
200 200 200
228 228 228
241 241 241
218 218 218
189 189 189
160 160 160
140 140 140
145 145 145
142 142 142
137 137 137
158 158 158
172 172 172
178 178 178
172 172 172
168 168 168
187 187 187
201 201 201
201 201 201
186 186 186
169 169 169
167 167 167
156 156 156
138 138 138
116 116 116
113 113 113
123 123 123
130 130 130
138 138 138
147 147 147
149 149 149
142 142 142
133 133 133
131 131 131
148 148 148
181 181 181
199 199 199
205 205 205
194 194 194
174 174 174
188 188 188
200 200 200
198 198 198
182 182 182
173 173 173
184 184 184
183 183 183
176 176 176
186 186 186
185 185 185
181 181 181
194 194 194
209 209 209
215 215 215
202 202 202
179 179 179
153 153 153
135 135 135
139 139 139
136 136 136
126 126 126
140 140 140
165 165 165
186 186 186
198 198 198
197 197 197
206 206 206
229 229 229
227 227 227
204 204 204
197 197 197
189 189 189
170 170 170
147 147 147
130 130 130
124 124 124
131 131 131
152 152 152
166 166 166
173 173 173
169 169 169
156 156 156
137 137 137
131 131 131
158 158 158
183 183 183
201 201 201
207 207 207
196 196 196
175 175 175
175 175 175
185 185 185
183 183 183
186 186 186
178 178 178
166 166 166
165 165 165
155 155 155
160 160 160
171 171 171
195 195 195
213 213 213
214 214 214
197 197 197
178 178 178
161 161 161
148 148 148
149 149 149
142 142 142
128 128 128
136 136 136
151 151 151
179 179 179
206 206 206
226 226 226
223 223 223
211 211 211
239 239 239
237 237 237
213 213 213
223 223 223
210 210 210
186 186 186
159 159 159
147 147 147
140 140 140
149 149 149
173 173 173
193 193 193
202 202 202
196 196 196
178 178 178
155 155 155
132 132 132
159 159 159
173 173 173
189 189 189
193 193 193
184 184 184
166 166 166
155 155 155
164 164 164
178 178 178
182 182 182
174 174 174
157 157 157
165 165 165
176 176 176
177 177 177
172 172 172
197 197 197
216 216 216
216 216 216
198 198 198
174 174 174
146 146 146
154 154 154
155 155 155
147 147 147
133 133 133
141 141 141
154 154 154
184 184 184
213 213 213
242 242 242
236 236 236
207 207 207
215 215 215
214 214 214
220 220 220
234 234 234
217 217 217
190 190 190
162 162 162
158 158 158
150 150 150
160 160 160
188 188 188
214 214 214
231 231 231
220 220 220
195 195 195
167 167 167
140 140 140
151 151 151
155 155 155
167 167 167
171 171 171
172 172 172
163 163 163
147 147 147
152 152 152
172 172 172
187 187 187
191 191 191
183 183 183
188 188 188
204 204 204
205 205 205
191 191 191
185 185 185
200 200 200
200 200 200
186 186 186
165 165 165
150 150 150
152 152 152
153 153 153
145 145 145
134 134 134
138 138 138
149 149 149
176 176 176
201 201 201
219 219 219
217 217 217
197 197 197
187 187 187
186 186 186
207 207 207
215 215 215
204 204 204
182 182 182
160 160 160
161 161 161
153 153 153
162 162 162
192 192 192
221 221 221
247 247 247
228 228 228
199 199 199
170 170 170
147 147 147
136 136 136
150 150 150
169 169 169
181 181 181
182 182 182
172 172 172
154 154 154
164 164 164
190 190 190
211 211 211
218 218 218
205 205 205
204 204 204
229 229 229
231 231 231
208 208 208
180 180 180
175 175 175
176 176 176
175 175 175
170 170 170
157 157 157
142 142 142
143 143 143
142 142 142
149 149 149
147 147 147
138 138 138
160 160 160
179 179 179
191 191 191
189 189 189
176 176 176
158 158 158
167 167 167
183 183 183
188 188 188
181 181 181
164 164 164
153 153 153
154 154 154
147 147 147
156 156 156
182 182 182
206 206 206
218 218 218
210 210 210
189 189 189
162 162 162
147 147 147
133 133 133
148 148 148
167 167 167
179 179 179
180 180 180
170 170 170
166 166 166
169 169 169
197 197 197
223 223 223
234 234 234
215 215 215
206 206 206
232 232 232
234 234 234
210 210 210
181 181 181
152 152 152
167 167 167
173 173 173
169 169 169
164 164 164
155 155 155
146 146 146
151 151 151
156 156 156
155 155 155
152 152 152
173 173 173
187 187 187
189 189 189
179 179 179
161 161 161
138 138 138
144 144 144
156 156 156
159 159 159
154 154 154
147 147 147
142 142 142
147 147 147
149 149 149
143 143 143
164 164 164
181 181 181
189 189 189
184 184 184
169 169 169
147 147 147
139 139 139
133 133 133
139 139 139
156 156 156
167 167 167
168 168 168
165 165 165
174 174 174
175 175 175
191 191 191
212 212 212
219 219 219
206 206 206
201 201 201
209 209 209
210 210 210
194 194 194
171 171 171
145 145 145
159 159 159
179 179 179
191 191 191
190 190 190
177 177 177
157 157 157
160 160 160
157 157 157
154 154 154
167 167 167
193 193 193
213 213 213
217 217 217
201 201 201
177 177 177
150 150 150
123 123 123
142 142 142
161 161 161
174 174 174
176 176 176
168 168 168
152 152 152
153 153 153
147 147 147
141 141 141
154 154 154
164 164 164
169 169 169
165 165 165
151 151 151
146 146 146
159 159 159
148 148 148
148 148 148
147 147 147
148 148 148
163 163 163
172 172 172
190 190 190
213 213 213
221 221 221
207 207 207
194 194 194
207 207 207
203 203 203
185 185 185
171 171 171
153 153 153
145 145 145
171 171 171
195 195 195
212 212 212
211 211 211
194 194 194
169 169 169
161 161 161
158 158 158
147 147 147
174 174 174
202 202 202
229 229 229
237 237 237
213 213 213
185 185 185
156 156 156
142 142 142
160 160 160
183 183 183
200 200 200
205 205 205
193 193 193
172 172 172
151 151 151
157 157 157
155 155 155
149 149 149
162 162 162
167 167 167
162 162 162
149 149 149
165 165 165
180 180 180
154 154 154
154 154 154
146 146 146
138 138 138
152 152 152
167 167 167
195 195 195
220 220 220
231 231 231
214 214 214
187 187 187
197 197 197
193 193 193
178 178 178
172 172 172
158 158 158
147 147 147
175 175 175
200 200 200
218 218 218
217 217 217
198 198 198
173 173 173
153 153 153
150 150 150
143 143 143
170 170 170
197 197 197
219 219 219
224 224 224
206 206 206
180 180 180
164 164 164
159 159 159
170 170 170
198 198 198
222 222 222
230 230 230
211 211 211
184 184 184
159 159 159
166 166 166
163 163 163
154 154 154
151 151 151
155 155 155
151 151 151
153 153 153
177 177 177
195 195 195
152 152 152
152 152 152
144 144 144
129 129 129
135 135 135
161 161 161
186 186 186
206 206 206
213 213 213
201 201 201
179 179 179
176 176 176
177 177 177
183 183 183
178 178 178
162 162 162
142 142 142
167 167 167
190 190 190
204 204 204
204 204 204
188 188 188
165 165 165
153 153 153
155 155 155
149 149 149
166 166 166
182 182 182
194 194 194
197 197 197
186 186 186
170 170 170
175 175 175
169 169 169
171 171 171
199 199 199
225 225 225
233 233 233
212 212 212
185 185 185
159 159 159
165 165 165
166 166 166
157 157 157
143 143 143
144 144 144
138 138 138
154 154 154
178 178 178
198 198 198
142 142 142
142 142 142
135 135 135
121 121 121
122 122 122
146 146 146
167 167 167
182 182 182
186 186 186
179 179 179
169 169 169
162 162 162
172 172 172
177 177 177
172 172 172
157 157 157
137 137 137
152 152 152
170 170 170
181 181 181
180 180 180
169 169 169
150 150 150
158 158 158
160 160 160
154 154 154
166 166 166
180 180 180
184 184 184
177 177 177
161 161 161
170 170 170
175 175 175
169 169 169
162 162 162
186 186 186
205 205 205
209 209 209
197 197 197
181 181 181
175 175 175
159 159 159
159 159 159
151 151 151
158 158 158
159 159 159
152 152 152
147 147 147
169 169 169
186 186 186
129 129 129
128 128 128
121 121 121
115 115 115
120 120 120
126 126 126
144 144 144
155 155 155
166 166 166
179 179 179
182 182 182
173 173 173
160 160 160
162 162 162
157 157 157
146 146 146
148 148 148
149 149 149
152 152 152
154 154 154
153 153 153
155 155 155
153 153 153
154 154 154
157 157 157
160 160 160
185 185 185
204 204 204
211 211 211
200 200 200
178 178 178
161 161 161
165 165 165
160 160 160
163 163 163
187 187 187
206 206 206
211 211 211
198 198 198
196 196 196
189 189 189
171 171 171
148 148 148
155 155 155
165 165 165
167 167 167
159 159 159
143 143 143
152 152 152
166 166 166
116 116 116
116 116 116
116 116 116
127 127 127
132 132 132
130 130 130
142 142 142
152 152 152
168 168 168
181 181 181
184 184 184
175 175 175
172 172 172
172 172 172
161 161 161
166 166 166
169 169 169
162 162 162
157 157 157
151 151 151
150 150 150
156 156 156
154 154 154
144 144 144
145 145 145
167 167 167
194 194 194
219 219 219
230 230 230
213 213 213
187 187 187
159 159 159
159 159 159
175 175 175
183 183 183
195 195 195
218 218 218
224 224 224
208 208 208
199 199 199
191 191 191
173 173 173
149 149 149
153 153 153
163 163 163
164 164 164
157 157 157
147 147 147
151 151 151
147 147 147
110 110 110
117 117 117
129 129 129
135 135 135
138 138 138
140 140 140
158 158 158
169 169 169
171 171 171
172 172 172
174 174 174
166 166 166
175 175 175
174 174 174
165 165 165
179 179 179
182 182 182
174 174 174
158 158 158
156 156 156
168 168 168
171 171 171
164 164 164
148 148 148
136 136 136
164 164 164
191 191 191
213 213 213
222 222 222
208 208 208
184 184 184
167 167 167
175 175 175
197 197 197
208 208 208
202 202 202
209 209 209
214 214 214
200 200 200
187 187 187
181 181 181
164 164 164
143 143 143
143 143 143
152 152 152
153 153 153
146 146 146
152 152 152
156 156 156
152 152 152
121 121 121
141 141 141
156 156 156
164 164 164
163 163 163
153 153 153
166 166 166
179 179 179
181 181 181
172 172 172
156 156 156
158 158 158
171 171 171
176 176 176
171 171 171
181 181 181
185 185 185
177 177 177
160 160 160
177 177 177
193 193 193
197 197 197
187 187 187
167 167 167
144 144 144
153 153 153
176 176 176
192 192 192
198 198 198
189 189 189
178 178 178
193 193 193
196 196 196
208 208 208
223 223 223
215 215 215
192 192 192
190 190 190
181 181 181
167 167 167
162 162 162
148 148 148
129 129 129
127 127 127
135 135 135
136 136 136
137 137 137
148 148 148
153 153 153
149 149 149
138 138 138
162 162 162
182 182 182
194 194 194
192 192 192
178 178 178
165 165 165
178 178 178
180 180 180
171 171 171
154 154 154
172 172 172
190 190 190
197 197 197
190 190 190
173 173 173
176 176 176
169 169 169
165 165 165
190 190 190
211 211 211
217 217 217
203 203 203
179 179 179
153 153 153
135 135 135
154 154 154
166 166 166
170 170 170
167 167 167
193 193 193
212 212 212
217 217 217
207 207 207
215 215 215
208 208 208
188 188 188
163 163 163
156 156 156
152 152 152
143 143 143
127 127 127
129 129 129
146 146 146
155 155 155
157 157 157
150 150 150
137 137 137
141 141 141
138 138 138
150 150 150
178 178 178
204 204 204
222 222 222
219 219 219
198 198 198
171 171 171
166 166 166
168 168 168
160 160 160
154 154 154
179 179 179
199 199 199
207 207 207
199 199 199
179 179 179
159 159 159
153 153 153
166 166 166
192 192 192
213 213 213
219 219 219
205 205 205
181 181 181
154 154 154
126 126 126
135 135 135
152 152 152
162 162 162
169 169 169
195 195 195
216 216 216
221 221 221
224 224 224
238 238 238
218 218 218
190 190 190
164 164 164
173 173 173
172 172 172
160 160 160
143 143 143
144 144 144
163 163 163
175 175 175
177 177 177
168 168 168
152 152 152
130 130 130
122 122 122
155 155 155
184 184 184
214 214 214
243 243 243
236 236 236
207 207 207
177 177 177
154 154 154
149 149 149
142 142 142
151 151 151
175 175 175
193 193 193
201 201 201
193 193 193
175 175 175
156 156 156
147 147 147
157 157 157
181 181 181
197 197 197
202 202 202
191 191 191
171 171 171
146 146 146
129 129 129
153 153 153
173 173 173
186 186 186
188 188 188
184 184 184
201 201 201
204 204 204
219 219 219
229 229 229
213 213 213
187 187 187
175 175 175
186 186 186
184 184 184
171 171 171
151 151 151
152 152 152
173 173 173
187 187 187
189 189 189
179 179 179
161 161 161
138 138 138
126 126 126
151 151 151
179 179 179
205 205 205
224 224 224
221 221 221
199 199 199
178 178 178
166 166 166
155 155 155
148 148 148
141 141 141
161 161 161
176 176 176
182 182 182
176 176 176
176 176 176
176 176 176
165 165 165
151 151 151
161 161 161
174 174 174
177 177 177
169 169 169
153 153 153
134 134 134
149 149 149
164 164 164
188 188 188
205 205 205
207 207 207
193 193 193
176 176 176
179 179 179
196 196 196
202 202 202
193 193 193
173 173 173
176 176 176
187 187 187
185 185 185
172 172 172
152 152 152
153 153 153
173 173 173
187 187 187
190 190 190
180 180 180
161 161 161
153 153 153
145 145 145
139 139 139
164 164 164
184 184 184
196 196 196
199 199 199
194 194 194
177 177 177
170 170 170
161 161 161
162 162 162
154 154 154
156 156 156
160 160 160
158 158 158
177 177 177
189 189 189
189 189 189
176 176 176
175 175 175
184 184 184
181 181 181
167 167 167
147 147 147
144 144 144
157 157 157
175 175 175
185 185 185
191 191 191
210 210 210
212 212 212
197 197 197
174 174 174
186 186 186
190 190 190
181 181 181
167 167 167
152 152 152
167 167 167
176 176 176
175 175 175
163 163 163
145 145 145
145 145 145
163 163 163
176 176 176
178 178 178
169 169 169
170 170 170
170 170 170
161 161 161
122 122 122
143 143 143
159 159 159
176 176 176
183 183 183
180 180 180
166 166 166
164 164 164
174 174 174
175 175 175
166 166 166
154 154 154
157 157 157
158 158 158
178 178 178
190 190 190
190 190 190
177 177 177
195 195 195
207 207 207
202 202 202
184 184 184
161 161 161
154 154 154
175 175 175
199 199 199
214 214 214
210 210 210
197 197 197
199 199 199
187 187 187
168 168 168
182 182 182
186 186 186
178 178 178
160 160 160
149 149 149
164 164 164
171 171 171
168 168 168
156 156 156
137 137 137
136 136 136
146 146 146
156 156 156
158 158 158
169 169 169
180 180 180
180 180 180
169 169 169
101 101 101
122 122 122
141 141 141
155 155 155
161 161 161
158 158 158
157 157 157
179 179 179
193 193 193
195 195 195
183 183 183
163 163 163
168 168 168
170 170 170
168 168 168
179 179 179
178 178 178
180 180 180
204 204 204
219 219 219
213 213 213
192 192 192
166 166 166
156 156 156
185 185 185
214 214 214
240 240 240
232 232 232
204 204 204
177 177 177
168 168 168
156 156 156
168 168 168
171 171 171
164 164 164
168 168 168
174 174 174
185 185 185
194 194 194
190 190 190
174 174 174
152 152 152
156 156 156
151 151 151
138 138 138
150 150 150
168 168 168
179 179 179
179 179 179
168 168 168
93 93 93
115 115 115
134 134 134
148 148 148
155 155 155
154 154 154
162 162 162
185 185 185
201 201 201
203 203 203
190 190 190
179 179 179
195 195 195
198 198 198
188 188 188
168 168 168
159 159 159
175 175 175
197 197 197
210 210 210
205 205 205
186 186 186
162 162 162
154 154 154
183 183 183
211 211 211
233 233 233
227 227 227
202 202 202
174 174 174
145 145 145
137 137 137
147 147 147
152 152 152
176 176 176
195 195 195
203 203 203
197 197 197
209 209 209
203 203 203
185 185 185
165 165 165
169 169 169
163 163 163
149 149 149
141 141 141
157 157 157
167 167 167
167 167 167
158 158 158
91 91 91
115 115 115
136 136 136
153 153 153
164 164 164
165 165 165
158 158 158
180 180 180
194 194 194
196 196 196
184 184 184
196 196 196
219 219 219
225 225 225
207 207 207
182 182 182
157 157 157
161 161 161
179 179 179
188 188 188
184 184 184
170 170 170
159 159 159
170 170 170
170 170 170
192 192 192
205 205 205
202 202 202
185 185 185
162 162 162
136 136 136
135 135 135
145 145 145
163 163 163
191 191 191
217 217 217
232 232 232
217 217 217
207 207 207
202 202 202
183 183 183
169 169 169
173 173 173
167 167 167
153 153 153
133 133 133
140 140 140
148 148 148
148 148 148
141 141 141
103 103 103
129 129 129
153 153 153
174 174 174
187 187 187
189 189 189
179 179 179
165 165 165
176 176 176
178 178 178
172 172 172
201 201 201
227 227 227
236 236 236
213 213 213
186 186 186
164 164 164
152 152 152
155 155 155
161 161 161
159 159 159
158 158 158
178 178 178
192 192 192
193 193 193
181 181 181
176 176 176
174 174 174
162 162 162
144 144 144
127 127 127
144 144 144
155 155 155
166 166 166
195 195 195
224 224 224
245 245 245
223 223 223
195 195 195
186 186 186
171 171 171
163 163 163
167 167 167
162 162 162
148 148 148
129 129 129
131 131 131
141 141 141
145 145 145
140 140 140
110 110 110
137 137 137
164 164 164
187 187 187
204 204 204
207 207 207
193 193 193
181 181 181
185 185 185
177 177 177
165 165 165
190 190 190
210 210 210
215 215 215
201 201 201
198 198 198
182 182 182
159 159 159
134 134 134
134 134 134
140 140 140
166 166 166
189 189 189
206 206 206
207 207 207
192 192 192
169 169 169
153 153 153
142 142 142
125 125 125
129 129 129
145 145 145
156 156 156
159 159 159
185 185 185
207 207 207
217 217 217
207 207 207
185 185 185
163 163 163
152 152 152
149 149 149
153 153 153
148 148 148
136 136 136
136 136 136
141 141 141
144 144 144
147 147 147
143 143 143
