P3
50 50
255
111 111 111
140 140 140
168 168 168
195 195 195
219 219 219
227 227 227
210 210 210
229 229 229
244 244 244
218 218 218
189 189 189
160 160 160
177 177 177
201 201 201
217 217 217
213 213 213
194 194 194
168 168 168
141 141 141
117 117 117
133 133 133
143 143 143
146 146 146
156 156 156
183 183 183
206 206 206
220 220 220
211 211 211
189 189 189
163 163 163
135 135 135
135 135 135
150 150 150
159 159 159
165 165 165
183 183 183
193 193 193
189 189 189
174 174 174
159 159 159
142 142 142
146 146 146
155 155 155
155 155 155
152 152 152
174 174 174
188 188 188
192 192 192
182 182 182
164 164 164
113 113 113
142 142 142
172 172 172
201 201 201
229 229 229
243 243 243
218 218 218
223 223 223
233 233 233
214 214 214
187 187 187
158 158 158
178 178 178
202 202 202
219 219 219
215 215 215
194 194 194
169 169 169
141 141 141
136 136 136
156 156 156
169 169 169
173 173 173
167 167 167
188 188 188
215 215 215
233 233 233
221 221 221
196 196 196
167 167 167
139 139 139
156 156 156
176 176 176
187 187 187
187 187 187
206 206 206
221 221 221
215 215 215
193 193 193
170 170 170
152 152 152
171 171 171
182 182 182
182 182 182
171 171 171
191 191 191
211 211 211
217 217 217
202 202 202
179 179 179
109 109 109
138 138 138
165 165 165
192 192 192
213 213 213
220 220 220
205 205 205
199 199 199
204 204 204
193 193 193
173 173 173
148 148 148
168 168 168
189 189 189
201 201 201
198 198 198
182 182 182
165 165 165
146 146 146
152 152 152
175 175 175
192 192 192
198 198 198
189 189 189
181 181 181
204 204 204
216 216 216
209 209 209
188 188 188
162 162 162
145 145 145
172 172 172
197 197 197
215 215 215
214 214 214
216 216 216
242 242 242
230 230 230
201 201 201
172 172 172
168 168 168
191 191 191
207 207 207
207 207 207
191 191 191
197 197 197
221 221 221
229 229 229
211 211 211
184 184 184
100 100 100
126 126 126
151 151 151
172 172 172
187 187 187
191 191 191
182 182 182
172 172 172
175 175 175
168 168 168
152 152 152
131 131 131
150 150 150
167 167 167
178 178 178
188 188 188
185 185 185
171 171 171
160 160 160
162 162 162
185 185 185
206 206 206
215 215 215
203 203 203
181 181 181
182 182 182
190 190 190
185 185 185
170 170 170
148 148 148
151 151 151
180 180 180
209 209 209
235 235 235
234 234 234
208 208 208
224 224 224
217 217 217
195 195 195
168 168 168
175 175 175
201 201 201
222 222 222
222 222 222
202 202 202
189 189 189
209 209 209
214 214 214
201 201 201
178 178 178
101 101 101
110 110 110
131 131 131
148 148 148
159 159 159
162 162 162
155 155 155
143 143 143
146 146 146
148 148 148
148 148 148
139 139 139
152 152 152
174 174 174
191 191 191
196 196 196
188 188 188
174 174 174
188 188 188
191 191 191
185 185 185
205 205 205
213 213 213
202 202 202
181 181 181
156 156 156
162 162 162
158 158 158
147 147 147
136 136 136
158 158 158
180 180 180
203 203 203
224 224 224
223 223 223
202 202 202
196 196 196
192 192 192
176 176 176
154 154 154
172 172 172
197 197 197
214 214 214
215 215 215
197 197 197
172 172 172
186 186 186
189 189 189
180 180 180
162 162 162
125 125 125
124 124 124
116 116 116
122 122 122
130 130 130
133 133 133
128 128 128
146 146 146
163 163 163
172 172 172
170 170 170
160 160 160
163 163 163
189 189 189
211 211 211
219 219 219
207 207 207
194 194 194
215 215 215
220 220 220
204 204 204
189 189 189
195 195 195
187 187 187
179 179 179
165 165 165
175 175 175
177 177 177
169 169 169
152 152 152
170 170 170
197 197 197
221 221 221
227 227 227
209 209 209
184 184 184
167 167 167
164 164 164
153 153 153
135 135 135
159 159 159
180 180 180
192 192 192
192 192 192
180 180 180
161 161 161
164 164 164
161 161 161
154 154 154
140 140 140
147 147 147
145 145 145
136 136 136
121 121 121
102 102 102
110 110 110
136 136 136
159 159 159
178 178 178
189 189 189
188 188 188
175 175 175
165 165 165
192 192 192
216 216 216
226 226 226
211 211 211
204 204 204
233 233 233
245 245 245
216 216 216
187 187 187
197 197 197
208 208 208
202 202 202
185 185 185
202 202 202
206 206 206
193 193 193
172 172 172
173 173 173
202 202 202
230 230 230
239 239 239
215 215 215
186 186 186
190 190 190
185 185 185
170 170 170
148 148 148
140 140 140
157 157 157
166 166 166
166 166 166
173 173 173
188 188 188
192 192 192
183 183 183
165 165 165
142 142 142
164 164 164
162 162 162
152 152 152
135 135 135
119 119 119
129 129 129
140 140 140
164 164 164
185 185 185
197 197 197
195 195 195
181 181 181
159 159 159
183 183 183
202 202 202
208 208 208
198 198 198
198 198 198
221 221 221
228 228 228
209 209 209
184 184 184
208 208 208
223 223 223
214 214 214
200 200 200
225 225 225
232 232 232
211 211 211
184 184 184
166 166 166
191 191 191
211 211 211
216 216 216
202 202 202
203 203 203
214 214 214
206 206 206
186 186 186
160 160 160
147 147 147
167 167 167
181 181 181
185 185 185
191 191 191
212 212 212
218 218 218
204 204 204
181 181 181
157 157 157
174 174 174
172 172 172
160 160 160
142 142 142
142 142 142
154 154 154
159 159 159
160 160 160
179 179 179
190 190 190
189 189 189
175 175 175
155 155 155
164 164 164
178 178 178
183 183 183
176 176 176
180 180 180
196 196 196
199 199 199
188 188 188
180 180 180
202 202 202
214 214 214
208 208 208
202 202 202
228 228 228
235 235 235
213 213 213
185 185 185
156 156 156
171 171 171
185 185 185
188 188 188
186 186 186
210 210 210
225 225 225
215 215 215
191 191 191
164 164 164
160 160 160
183 183 183
202 202 202
207 207 207
198 198 198
223 223 223
233 233 233
214 214 214
187 187 187
166 166 166
190 190 190
187 187 187
173 173 173
152 152 152
162 162 162
177 177 177
183 183 183
177 177 177
164 164 164
173 173 173
171 171 171
161 161 161
143 143 143
140 140 140
152 152 152
155 155 155
153 153 153
156 156 156
168 168 168
170 170 170
162 162 162
166 166 166
183 183 183
192 192 192
187 187 187
188 188 188
206 206 206
210 210 210
196 196 196
174 174 174
148 148 148
147 147 147
157 157 157
159 159 159
179 179 179
200 200 200
211 211 211
204 204 204
184 184 184
171 171 171
187 187 187
192 192 192
210 210 210
217 217 217
204 204 204
211 211 211
218 218 218
204 204 204
201 201 201
185 185 185
207 207 207
203 203 203
186 186 186
162 162 162
176 176 176
194 194 194
202 202 202
194 194 194
175 175 175
151 151 151
149 149 149
140 140 140
125 125 125
140 140 140
148 148 148
149 149 149
152 152 152
148 148 148
139 139 139
144 144 144
159 159 159
167 167 167
165 165 165
165 165 165
162 162 162
182 182 182
195 195 195
195 195 195
182 182 182
161 161 161
137 137 137
120 120 120
135 135 135
145 145 145
162 162 162
179 179 179
186 186 186
182 182 182
167 167 167
189 189 189
211 211 211
219 219 219
206 206 206
206 206 206
195 195 195
187 187 187
209 209 209
230 230 230
225 225 225
201 201 201
208 208 208
205 205 205
187 187 187
163 163 163
180 180 180
200 200 200
208 208 208
199 199 199
179 179 179
154 154 154
127 127 127
124 124 124
146 146 146
163 163 163
174 174 174
174 174 174
164 164 164
147 147 147
141 141 141
165 165 165
184 184 184
195 195 195
193 193 193
178 178 178
165 165 165
188 188 188
203 203 203
203 203 203
189 189 189
166 166 166
141 141 141
139 139 139
158 158 158
171 171 171
174 174 174
167 167 167
163 163 163
167 167 167
168 168 168
197 197 197
224 224 224
238 238 238
218 218 218
190 190 190
176 176 176
183 183 183
211 211 211
234 234 234
228 228 228
202 202 202
194 194 194
191 191 191
176 176 176
158 158 158
172 172 172
190 190 190
197 197 197
190 190 190
172 172 172
149 149 149
124 124 124
137 137 137
161 161 161
183 183 183
197 197 197
197 197 197
184 184 184
164 164 164
164 164 164
180 180 180
205 205 205
222 222 222
217 217 217
196 196 196
169 169 169
182 182 182
195 195 195
196 196 196
183 183 183
162 162 162
137 137 137
153 153 153
176 176 176
192 192 192
197 197 197
191 191 191
187 187 187
181 181 181
174 174 174
191 191 191
214 214 214
222 222 222
208 208 208
184 184 184
157 157 157
173 173 173
196 196 196
210 210 210
207 207 207
189 189 189
171 171 171
168 168 168
157 157 157
152 152 152
157 157 157
171 171 171
176 176 176
170 170 170
156 156 156
138 138 138
140 140 140
143 143 143
170 170 170
194 194 194
211 211 211
212 212 212
195 195 195
176 176 176
189 189 189
201 201 201
212 212 212
235 235 235
228 228 228
202 202 202
173 173 173
166 166 166
177 177 177
177 177 177
167 167 167
149 149 149
135 135 135
160 160 160
185 185 185
205 205 205
211 211 211
220 220 220
213 213 213
191 191 191
177 177 177
174 174 174
190 190 190
195 195 195
186 186 186
168 168 168
145 145 145
155 155 155
173 173 173
182 182 182
180 180 180
168 168 168
144 144 144
143 143 143
134 134 134
138 138 138
136 136 136
147 147 147
154 154 154
160 160 160
158 158 158
159 159 159
161 161 161
153 153 153
168 168 168
191 191 191
208 208 208
208 208 208
193 193 193
180 180 180
207 207 207
228 228 228
225 225 225
217 217 217
213 213 213
193 193 193
167 167 167
146 146 146
155 155 155
155 155 155
147 147 147
140 140 140
147 147 147
159 159 159
183 183 183
201 201 201
219 219 219
246 246 246
230 230 230
201 201 201
172 172 172
155 155 155
163 163 163
166 166 166
160 160 160
146 146 146
127 127 127
132 132 132
146 146 146
153 153 153
152 152 152
142 142 142
117 117 117
116 116 116
119 119 119
130 130 130
135 135 135
156 156 156
173 173 173
181 181 181
178 178 178
174 174 174
176 176 176
167 167 167
157 157 157
177 177 177
190 190 190
190 190 190
180 180 180
183 183 183
211 211 211
237 237 237
232 232 232
205 205 205
187 187 187
173 173 173
158 158 158
172 172 172
178 178 178
172 172 172
158 158 158
144 144 144
152 152 152
151 151 151
170 170 170
185 185 185
211 211 211
228 228 228
219 219 219
195 195 195
168 168 168
141 141 141
135 135 135
137 137 137
134 134 134
134 134 134
127 127 127
114 114 114
119 119 119
124 124 124
135 135 135
142 142 142
124 124 124
124 124 124
123 123 123
135 135 135
142 142 142
166 166 166
185 185 185
194 194 194
190 190 190
180 180 180
182 182 182
172 172 172
155 155 155
156 156 156
165 165 165
166 166 166
162 162 162
174 174 174
198 198 198
214 214 214
211 211 211
193 193 193
168 168 168
154 154 154
179 179 179
199 199 199
207 207 207
199 199 199
179 179 179
154 154 154
148 148 148
148 148 148
168 168 168
194 194 194
215 215 215
220 220 220
204 204 204
179 179 179
155 155 155
138 138 138
143 143 143
153 153 153
162 162 162
162 162 162
153 153 153
137 137 137
129 129 129
146 146 146
162 162 162
171 171 171
141 141 141
141 141 141
134 134 134
143 143 143
154 154 154
166 166 166
185 185 185
194 194 194
191 191 191
175 175 175
176 176 176
168 168 168
156 156 156
160 160 160
155 155 155
142 142 142
149 149 149
159 159 159
175 175 175
186 186 186
189 189 189
183 183 183
167 167 167
164 164 164
193 193 193
220 220 220
236 236 236
220 220 220
193 193 193
164 164 164
137 137 137
143 143 143
171 171 171
198 198 198
222 222 222
228 228 228
209 209 209
183 183 183
154 154 154
150 150 150
156 156 156
176 176 176
188 188 188
188 188 188
176 176 176
164 164 164
157 157 157
166 166 166
187 187 187
200 200 200
152 152 152
153 153 153
144 144 144
163 163 163
175 175 175
178 178 178
173 173 173
181 181 181
178 178 178
167 167 167
174 174 174
171 171 171
159 159 159
159 159 159
154 154 154
151 151 151
171 171 171
184 184 184
186 186 186
206 206 206
218 218 218
209 209 209
187 187 187
182 182 182
195 195 195
223 223 223
243 243 243
223 223 223
194 194 194
165 165 165
143 143 143
137 137 137
164 164 164
188 188 188
207 207 207
211 211 211
197 197 197
174 174 174
149 149 149
154 154 154
169 169 169
193 193 193
209 209 209
209 209 209
193 193 193
193 193 193
183 183 183
180 180 180
207 207 207
228 228 228
156 156 156
156 156 156
154 154 154
175 175 175
190 190 190
193 193 193
183 183 183
164 164 164
161 161 161
178 178 178
187 187 187
184 184 184
169 169 169
162 162 162
161 161 161
164 164 164
187 187 187
204 204 204
207 207 207
222 222 222
247 247 247
226 226 226
197 197 197
205 205 205
204 204 204
204 204 204
213 213 213
204 204 204
183 183 183
174 174 174
159 159 159
139 139 139
159 159 159
173 173 173
192 192 192
204 204 204
201 201 201
184 184 184
161 161 161
151 151 151
173 173 173
199 199 199
217 217 217
217 217 217
217 217 217
222 222 222
205 205 205
188 188 188
213 213 213
241 241 241
151 151 151
151 151 151
156 156 156
178 178 178
193 193 193
197 197 197
186 186 186
167 167 167
162 162 162
179 179 179
188 188 188
185 185 185
178 178 178
189 189 189
188 188 188
175 175 175
193 193 193
212 212 212
216 216 216
216 216 216
232 232 232
219 219 219
201 201 201
219 219 219
217 217 217
197 197 197
184 184 184
184 184 184
190 190 190
184 184 184
167 167 167
145 145 145
151 151 151
179 179 179
203 203 203
220 220 220
215 215 215
194 194 194
168 168 168
158 158 158
167 167 167
190 190 190
205 205 205
205 205 205
233 233 233
246 246 246
217 217 217
207 207 207
201 201 201
217 217 217
138 138 138
144 144 144
149 149 149
169 169 169
183 183 183
186 186 186
183 183 183
181 181 181
168 168 168
169 169 169
177 177 177
174 174 174
197 197 197
213 213 213
211 211 211
193 193 193
186 186 186
202 202 202
204 204 204
194 194 194
203 203 203
196 196 196
196 196 196
211 211 211
210 210 210
192 192 192
168 168 168
182 182 182
189 189 189
182 182 182
166 166 166
144 144 144
149 149 149
176 176 176
199 199 199
214 214 214
210 210 210
191 191 191
166 166 166
157 157 157
156 156 156
171 171 171
182 182 182
197 197 197
220 220 220
226 226 226
208 208 208
212 212 212
204 204 204
189 189 189
159 159 159
172 172 172
176 176 176
169 169 169
174 174 174
197 197 197
211 211 211
208 208 208
190 190 190
166 166 166
158 158 158
179 179 179
205 205 205
225 225 225
222 222 222
200 200 200
178 178 178
195 195 195
200 200 200
190 190 190
173 173 173
169 169 169
178 178 178
190 190 190
189 189 189
176 176 176
156 156 156
170 170 170
175 175 175
170 170 170
156 156 156
146 146 146
154 154 154
163 163 163
182 182 182
192 192 192
190 190 190
175 175 175
154 154 154
147 147 147
147 147 147
147 147 147
156 156 156
178 178 178
194 194 194
197 197 197
189 189 189
198 198 198
193 193 193
175 175 175
181 181 181
199 199 199
205 205 205
194 194 194
184 184 184
212 212 212
237 237 237
230 230 230
204 204 204
175 175 175
146 146 146
173 173 173
197 197 197
212 212 212
211 211 211
193 193 193
181 181 181
198 198 198
203 203 203
193 193 193
172 172 172
149 149 149
155 155 155
164 164 164
163 163 163
153 153 153
139 139 139
151 151 151
155 155 155
151 151 151
149 149 149
166 166 166
176 176 176
176 176 176
165 165 165
166 166 166
164 164 164
154 154 154
136 136 136
137 137 137
131 131 131
123 123 123
137 137 137
154 154 154
166 166 166
168 168 168
169 169 169
176 176 176
171 171 171
158 158 158
196 196 196
221 221 221
231 231 231
213 213 213
187 187 187
210 210 210
233 233 233
227 227 227
202 202 202
174 174 174
145 145 145
158 158 158
177 177 177
188 188 188
187 187 187
184 184 184
198 198 198
199 199 199
191 191 191
182 182 182
164 164 164
175 175 175
176 176 176
167 167 167
150 150 150
128 128 128
125 125 125
146 146 146
162 162 162
171 171 171
170 170 170
179 179 179
191 191 191
191 191 191
178 178 178
159 159 159
154 154 154
154 154 154
164 164 164
165 165 165
156 156 156
141 141 141
135 135 135
147 147 147
152 152 152
149 149 149
145 145 145
149 149 149
146 146 146
168 168 168
198 198 198
225 225 225
237 237 237
216 216 216
188 188 188
193 193 193
206 206 206
203 203 203
186 186 186
163 163 163
137 137 137
138 138 138
153 153 153
161 161 161
174 174 174
200 200 200
220 220 220
220 220 220
201 201 201
175 175 175
182 182 182
197 197 197
199 199 199
187 187 187
166 166 166
141 141 141
134 134 134
157 157 157
176 176 176
186 186 186
185 185 185
182 182 182
195 195 195
194 194 194
181 181 181
172 172 172
166 166 166
176 176 176
189 189 189
191 191 191
179 179 179
160 160 160
153 153 153
168 168 168
174 174 174
170 170 170
169 169 169
171 171 171
163 163 163
169 169 169
186 186 186
206 206 206
212 212 212
200 200 200
178 178 178
168 168 168
177 177 177
175 175 175
163 163 163
152 152 152
137 137 137
153 153 153
162 162 162
163 163 163
175 175 175
202 202 202
223 223 223
224 224 224
203 203 203
177 177 177
192 192 192
210 210 210
212 212 212
197 197 197
173 173 173
147 147 147
137 137 137
160 160 160
180 180 180
191 191 191
190 190 190
176 176 176
185 185 185
184 184 184
172 172 172
176 176 176
170 170 170
192 192 192
210 210 210
211 211 211
196 196 196
172 172 172
164 164 164
181 181 181
189 189 189
184 184 184
192 192 192
195 195 195
184 184 184
165 165 165
167 167 167
192 192 192
210 210 210
212 212 212
196 196 196
173 173 173
149 149 149
158 158 158
159 159 159
156 156 156
153 153 153
172 172 172
184 184 184
185 185 185
174 174 174
189 189 189
204 204 204
205 205 205
190 190 190
168 168 168
189 189 189
206 206 206
208 208 208
193 193 193
171 171 171
145 145 145
132 132 132
155 155 155
173 173 173
183 183 183
182 182 182
169 169 169
166 166 166
165 165 165
165 165 165
169 169 169
171 171 171
196 196 196
216 216 216
218 218 218
200 200 200
176 176 176
167 167 167
185 185 185
193 193 193
189 189 189
207 207 207
211 211 211
197 197 197
175 175 175
176 176 176
205 205 205
231 231 231
235 235 235
210 210 210
182 182 182
153 153 153
155 155 155
167 167 167
170 170 170
164 164 164
185 185 185
199 199 199
201 201 201
187 187 187
168 168 168
179 179 179
179 179 179
168 168 168
170 170 170
174 174 174
187 187 187
189 189 189
178 178 178
168 168 168
156 156 156
137 137 137
141 141 141
157 157 157
165 165 165
164 164 164
159 159 159
170 170 170
172 172 172
164 164 164
153 153 153
164 164 164
186 186 186
202 202 202
204 204 204
190 190 190
168 168 168
160 160 160
176 176 176
183 183 183
188 188 188
206 206 206
210 210 210
197 197 197
174 174 174
175 175 175
202 202 202
226 226 226
229 229 229
207 207 207
180 180 180
152 152 152
161 161 161
172 172 172
176 176 176
169 169 169
186 186 186
201 201 201
202 202 202
188 188 188
167 167 167
151 151 151
151 151 151
159 159 159
167 167 167
167 167 167
169 169 169
188 188 188
197 197 197
192 192 192
176 176 176
153 153 153
163 163 163
175 175 175
177 177 177
169 169 169
159 159 159
170 170 170
172 172 172
164 164 164
148 148 148
149 149 149
167 167 167
179 179 179
180 180 180
170 170 170
152 152 152
147 147 147
159 159 159
165 165 165
176 176 176
190 190 190
193 193 193
183 183 183
164 164 164
175 175 175
186 186 186
201 201 201
203 203 203
190 190 190
168 168 168
170 170 170
185 185 185
190 190 190
182 182 182
164 164 164
175 175 175
188 188 188
188 188 188
177 177 177
158 158 158
137 137 137
161 161 161
181 181 181
194 194 194
193 193 193
180 180 180
204 204 204
217 217 217
210 210 210
189 189 189
163 163 163
180 180 180
196 196 196
199 199 199
187 187 187
167 167 167
160 160 160
161 161 161
154 154 154
153 153 153
164 164 164
167 167 167
160 160 160
154 154 154
170 170 170
178 178 178
174 174 174
161 161 161
142 142 142
156 156 156
167 167 167
169 169 169
161 161 161
170 170 170
198 198 198
198 198 198
184 184 184
174 174 174
165 165 165
160 160 160
185 185 185
204 204 204
211 211 211
200 200 200
178 178 178
171 171 171
188 188 188
195 195 195
188 188 188
171 171 171
148 148 148
174 174 174
199 199 199
217 217 217
216 216 216
197 197 197
205 205 205
218 218 218
211 211 211
190 190 190
164 164 164
188 188 188
206 206 206
210 210 210
196 196 196
174 174 174
178 178 178
172 172 172
157 157 157
173 173 173
187 187 187
191 191 191
181 181 181
173 173 173
193 193 193
204 204 204
199 199 199
181 181 181
158 158 158
132 132 132
141 141 141
153 153 153
178 178 178
197 197 197
211 211 211
211 211 211
194 194 194
170 170 170
143 143 143
163 163 163
189 189 189
210 210 210
218 218 218
205 205 205
182 182 182
188 188 188
212 212 212
223 223 223
212 212 212
188 188 188
161 161 161
177 177 177
204 204 204
225 225 225
224 224 224
202 202 202
191 191 191
200 200 200
195 195 195
178 178 178
160 160 160
183 183 183
200 200 200
203 203 203
191 191 191
198 198 198
206 206 206
197 197 197
177 177 177
185 185 185
203 203 203
208 208 208
195 195 195
183 183 183
208 208 208
223 223 223
215 215 215
193 193 193
166 166 166
138 138 138
135 135 135
164 164 164
192 192 192
218 218 218
207 207 207
206 206 206
191 191 191
168 168 168
141 141 141
156 156 156
180 180 180
198 198 198
204 204 204
194 194 194
175 175 175
194 194 194
223 223 223
242 242 242
223 223 223
194 194 194
165 165 165
170 170 170
193 193 193
209 209 209
208 208 208
192 192 192
168 168 168
175 175 175
172 172 172
159 159 159
149 149 149
168 168 168
181 181 181
184 184 184
192 192 192
217 217 217
230 230 230
215 215 215
190 190 190
186 186 186
205 205 205
209 209 209
197 197 197
182 182 182
206 206 206
220 220 220
213 213 213
192 192 192
165 165 165
138 138 138
136 136 136
165 165 165
194 194 194
222 222 222
188 188 188
188 188 188
176 176 176
156 156 156
141 141 141
143 143 143
163 163 163
177 177 177
184 184 184
200 200 200
204 204 204
192 192 192
210 210 210
222 222 222
211 211 211
187 187 187
160 160 160
154 154 154
173 173 173
183 183 183
183 183 183
171 171 171
152 152 152
148 148 148
145 145 145
142 142 142
162 162 162
175 175 175
179 179 179
172 172 172
192 192 192
217 217 217
231 231 231
216 216 216
190 190 190
176 176 176
191 191 191
194 194 194
184 184 184
170 170 170
189 189 189
199 199 199
195 195 195
187 187 187
171 171 171
148 148 148
139 139 139
157 157 157
183 183 183
204 204 204
163 163 163
163 163 163
154 154 154
158 158 158
165 165 165
162 162 162
151 151 151
172 172 172
199 199 199
224 224 224
231 231 231
211 211 211
198 198 198
197 197 197
187 187 187
170 170 170
173 173 173
166 166 166
151 151 151
156 156 156
156 156 156
147 147 147
132 132 132
120 120 120
130 130 130
156 156 156
180 180 180
197 197 197
203 203 203
193 193 193
180 180 180
199 199 199
207 207 207
198 198 198
178 178 178
157 157 157
169 169 169
171 171 171
164 164 164
152 152 152
176 176 176
196 196 196
204 204 204
197 197 197
178 178 178
154 154 154
160 160 160
175 175 175
181 181 181
179 179 179
136 136 136
137 137 137
159 159 159
177 177 177
185 185 185
182 182 182
168 168 168
173 173 173
202 202 202
229 229 229
238 238 238
214 214 214
222 222 222
221 221 221
200 200 200
197 197 197
202 202 202
192 192 192
172 172 172
147 147 147
143 143 143
145 145 145
139 139 139
127 127 127
135 135 135
163 163 163
189 189 189
210 210 210
218 218 218
205 205 205
182 182 182
174 174 174
179 179 179
177 177 177
185 185 185
181 181 181
167 167 167
166 166 166
159 159 159
149 149 149
173 173 173
191 191 191
199 199 199
192 192 192
174 174 174
152 152 152
176 176 176
195 195 195
204 204 204
196 196 196
118 118 118
144 144 144
167 167 167
187 187 187
197 197 197
193 193 193
177 177 177
165 165 165
189 189 189
208 208 208
213 213 213
207 207 207
230 230 230
228 228 228
204 204 204
221 221 221
230 230 230
212 212 212
186 186 186
158 158 158
170 170 170
173 173 173
166 166 166
150 150 150
140 140 140
160 160 160
185 185 185
205 205 205
212 212 212
201 201 201
179 179 179
153 153 153
177 177 177
198 198 198
210 210 210
204 204 204
185 185 185
162 162 162
155 155 155
141 141 141
160 160 160
175 175 175
181 181 181
176 176 176
161 161 161
157 157 157
183 183 183
205 205 205
215 215 215
206 206 206
121 121 121
142 142 142
166 166 166
185 185 185
194 194 194
190 190 190
175 175 175
153 153 153
168 168 168
182 182 182
184 184 184
195 195 195
211 211 211
210 210 210
200 200 200
228 228 228
241 241 241
217 217 217
189 189 189
179 179 179
196 196 196
200 200 200
189 189 189
170 170 170
160 160 160
162 162 162
171 171 171
187 187 187
192 192 192
183 183 183
166 166 166
157 157 157
184 184 184
210 210 210
226 226 226
217 217 217
194 194 194
167 167 167
143 143 143
131 131 131
140 140 140
153 153 153
158 158 158
154 154 154
149 149 149
153 153 153
178 178 178
198 198 198
207 207 207
199 199 199
124 124 124
144 144 144
160 160 160
172 172 172
180 180 180
176 176 176
163 163 163
144 144 144
143 143 143
153 153 153
155 155 155
174 174 174
185 185 185
184 184 184
189 189 189
209 209 209
216 216 216
203 203 203
179 179 179
193 193 193
215 215 215
222 222 222
206 206 206
182 182 182
173 173 173
175 175 175
167 167 167
162 162 162
166 166 166
160 160 160
150 150 150
160 160 160
180 180 180
204 204 204
217 217 217
210 210 210
189 189 189
164 164 164
136 136 136
115 115 115
130 130 130
148 148 148
160 160 160
165 165 165
178 178 178
180 180 180
171 171 171
180 180 180
186 186 186
180 180 180
134 134 134
157 157 157
176 176 176
186 186 186
184 184 184
172 172 172
152 152 152
128 128 128
128 128 128
129 129 129
138 138 138
149 149 149
156 156 156
156 156 156
169 169 169
183 183 183
187 187 187
179 179 179
168 168 168
195 195 195
218 218 218
225 225 225
208 208 208
183 183 183
177 177 177
179 179 179
171 171 171
154 154 154
160 160 160
160 160 160
151 151 151
162 162 162
182 182 182
201 201 201
208 208 208
198 198 198
177 177 177
152 152 152
127 127 127
120 120 120
144 144 144
164 164 164
178 178 178
188 188 188
205 205 205
209 209 209
195 195 195
173 173 173
160 160 160
156 156 156
138 138 138
162 162 162
182 182 182
193 193 193
191 191 191
178 178 178
157 157 157
147 147 147
156 156 156
158 158 158
161 161 161
175 175 175
179 179 179
173 173 173
167 167 167
178 178 178
177 177 177
166 166 166
159 159 159
183 183 183
201 201 201
205 205 205
194 194 194
173 173 173
170 170 170
172 172 172
164 164 164
154 154 154
163 163 163
164 164 164
155 155 155
159 159 159
180 180 180
198 198 198
204 204 204
194 194 194
174 174 174
150 150 150
137 137 137
146 146 146
151 151 151
173 173 173
188 188 188
202 202 202
229 229 229
236 236 236
213 213 213
185 185 185
156 156 156
145 145 145
135 135 135
158 158 158
176 176 176
187 187 187
185 185 185
172 172 172
152 152 152
171 171 171
183 183 183
185 185 185
179 179 179
197 197 197
203 203 203
194 194 194
191 191 191
206 206 206
206 206 206
190 190 190
167 167 167
163 163 163
176 176 176
179 179 179
171 171 171
166 166 166
158 158 158
156 156 156
171 171 171
178 178 178
175 175 175
162 162 162
150 150 150
154 154 154
172 172 172
183 183 183
186 186 186
179 179 179
162 162 162
141 141 141
159 159 159
170 170 170
172 172 172
171 171 171
186 186 186
203 203 203
230 230 230
237 237 237
213 213 213
185 185 185
181 181 181
170 170 170
125 125 125
145 145 145
162 162 162
170 170 170
169 169 169
158 158 158
166 166 166
190 190 190
208 208 208
210 210 210
196 196 196
210 210 210
218 218 218
206 206 206
208 208 208
233 233 233
231 231 231
206 206 206
178 178 178
149 149 149
154 154 154
174 174 174
188 188 188
191 191 191
180 180 180
169 169 169
189 189 189
198 198 198
194 194 194
177 177 177
155 155 155
141 141 141
157 157 157
166 166 166
166 166 166
157 157 157
143 143 143
155 155 155
176 176 176
190 190 190
192 192 192
181 181 181
173 173 173
188 188 188
206 206 206
210 210 210
196 196 196
209 209 209
209 209 209
193 193 193
109 109 109
127 127 127
141 141 141
148 148 148
147 147 147
144 144 144
173 173 173
200 200 200
222 222 222
225 225 225
206 206 206
205 205 205
212 212 212
201 201 201
209 209 209
235 235 235
234 234 234
208 208 208
179 179 179
156 156 156
164 164 164
189 189 189
206 206 206
209 209 209
195 195 195
175 175 175
196 196 196
207 207 207
202 202 202
183 183 183
159 159 159
133 133 133
137 137 137
144 144 144
144 144 144
136 136 136
135 135 135
161 161 161
183 183 183
199 199 199
202 202 202
189 189 189
168 168 168
166 166 166
179 179 179
181 181 181
206 206 206
231 231 231
232 232 232
207 207 207
99 99 99
114 114 114
124 124 124
128 128 128
124 124 124
142 142 142
169 169 169
194 194 194
214 214 214
216 216 216
200 200 200
187 187 187
192 192 192
184 184 184
194 194 194
210 210 210
209 209 209
193 193 193
169 169 169
161 161 161
166 166 166
191 191 191
210 210 210
213 213 213
198 198 198
185 185 185
196 196 196
199 199 199
195 195 195
178 178 178
155 155 155
130 130 130
138 138 138
140 140 140
141 141 141
154 154 154
158 158 158
157 157 157
179 179 179
194 194 194
197 197 197
188 188 188
194 194 194
186 186 186
168 168 168
177 177 177
205 205 205
228 228 228
228 228 228
206 206 206
104 104 104
106 106 106
121 121 121
136 136 136
144 144 144
145 145 145
156 156 156
177 177 177
191 191 191
193 193 193
182 182 182
169 169 169
183 183 183
186 186 186
177 177 177
181 181 181
181 181 181
170 170 170
151 151 151
157 157 157
159 159 159
181 181 181
196 196 196
199 199 199
187 187 187
183 183 183
194 194 194
191 191 191
177 177 177
163 163 163
143 143 143
153 153 153
165 165 165
168 168 168
161 161 161
175 175 175
181 181 181
175 175 175
165 165 165
177 177 177
188 188 188
210 210 210
219 219 219
207 207 207
184 184 184
166 166 166
188 188 188
203 203 203
203 203 203
189 189 189
109 109 109
121 121 121
143 143 143
161 161 161
173 173 173
174 174 174
165 165 165
154 154 154
164 164 164
170 170 170
171 171 171
184 184 184
201 201 201
205 205 205
198 198 198
207 207 207
200 200 200
181 181 181
156 156 156
145 145 145
143 143 143
162 162 162
173 173 173
181 181 181
182 182 182
171 171 171
179 179 179
177 177 177
165 165 165
146 146 146
152 152 152
174 174 174
189 189 189
193 193 193
184 184 184
190 190 190
197 197 197
190 190 190
172 172 172
165 165 165
193 193 193
219 219 219
232 232 232
216 216 216
190 190 190
161 161 161
165 165 165
177 177 177
182 182 182
176 176 176
109 109 109
136 136 136
161 161 161
184 184 184
200 200 200
202 202 202
190 190 190
183 183 183
186 186 186
193 193 193
193 193 193
188 188 188
206 206 206
211 211 211
212 212 212
226 226 226
215 215 215
191 191 191
164 164 164
136 136 136
141 141 141
167 167 167
191 191 191
208 208 208
209 209 209
194 194 194
171 171 171
162 162 162
150 150 150
136 136 136
163 163 163
188 188 188
207 207 207
213 213 213
200 200 200
193 193 193
201 201 201
193 193 193
175 175 175
160 160 160
186 186 186
207 207 207
216 216 216
205 205 205
182 182 182
156 156 156
176 176 176
194 194 194
200 200 200
192 192 192
115 115 115
144 144 144
173 173 173
200 200 200
223 223 223
227 227 227
207 207 207
209 209 209
216 216 216
207 207 207
207 207 207
192 192 192
195 195 195
199 199 199
209 209 209
221 221 221
212 212 212
189 189 189
162 162 162
134 134 134
148 148 148
177 177 177
205 205 205
230 230 230
232 232 232
208 208 208
194 194 194
189 189 189
173 173 173
150 150 150
164 164 164
190 190 190
210 210 210
216 216 216
203 203 203
183 183 183
190 190 190
183 183 183
167 167 167
146 146 146
168 168 168
184 184 184
189 189 189
182 182 182
165 165 165
155 155 155
179 179 179
199 199 199
206 206 206
197 197 197
