P3
50 50
255
123 123 123
130 130 130
130 130 130
123 123 123
117 117 117
121 121 121
125 125 125
150 150 150
171 171 171
188 188 188
198 198 198
195 195 195
179 179 179
157 157 157
159 159 159
188 188 188
214 214 214
232 232 232
221 221 221
196 196 196
168 168 168
160 160 160
188 188 188
212 212 212
226 226 226
215 215 215
191 191 191
164 164 164
188 188 188
215 215 215
233 233 233
221 221 221
196 196 196
167 167 167
169 169 169
166 166 166
154 154 154
135 135 135
152 152 152
164 164 164
166 166 166
159 159 159
145 145 145
125 125 125
102 102 102
127 127 127
156 156 156
184 184 184
210 210 210
229 229 229
139 139 139
146 146 146
146 146 146
138 138 138
135 135 135
140 140 140
136 136 136
164 164 164
189 189 189
210 210 210
217 217 217
203 203 203
180 180 180
163 163 163
161 161 161
191 191 191
220 220 220
246 246 246
228 228 228
199 199 199
170 170 170
164 164 164
193 193 193
221 221 221
242 242 242
224 224 224
196 196 196
167 167 167
191 191 191
219 219 219
242 242 242
227 227 227
198 198 198
169 169 169
170 170 170
167 167 167
155 155 155
146 146 146
166 166 166
179 179 179
182 182 182
174 174 174
157 157 157
136 136 136
111 111 111
126 126 126
155 155 155
182 182 182
208 208 208
226 226 226
147 147 147
156 156 156
155 155 155
146 146 146
149 149 149
153 153 153
150 150 150
169 169 169
197 197 197
223 223 223
233 233 233
214 214 214
187 187 187
169 169 169
155 155 155
181 181 181
204 204 204
217 217 217
210 210 210
189 189 189
163 163 163
158 158 158
184 184 184
207 207 207
219 219 219
210 210 210
187 187 187
161 161 161
180 180 180
203 203 203
215 215 215
208 208 208
187 187 187
162 162 162
162 162 162
158 158 158
147 147 147
150 150 150
171 171 171
185 185 185
189 189 189
180 180 180
163 163 163
145 145 145
122 122 122
121 121 121
145 145 145
170 170 170
191 191 191
202 202 202
149 149 149
157 157 157
156 156 156
148 148 148
155 155 155
160 160 160
156 156 156
164 164 164
191 191 191
212 212 212
219 219 219
205 205 205
181 181 181
164 164 164
144 144 144
163 163 163
180 180 180
188 188 188
183 183 183
169 169 169
147 147 147
144 144 144
167 167 167
184 184 184
195 195 195
197 197 197
185 185 185
165 165 165
162 162 162
178 178 178
186 186 186
182 182 182
167 167 167
146 146 146
145 145 145
143 143 143
133 133 133
145 145 145
166 166 166
188 188 188
200 200 200
199 199 199
183 183 183
161 161 161
136 136 136
136 136 136
133 133 133
151 151 151
167 167 167
174 174 174
142 142 142
149 149 149
149 149 149
159 159 159
171 171 171
174 174 174
167 167 167
151 151 151
173 173 173
189 189 189
193 193 193
184 184 184
166 166 166
151 151 151
133 133 133
140 140 140
153 153 153
158 158 158
155 155 155
144 144 144
138 138 138
151 151 151
160 160 160
183 183 183
198 198 198
200 200 200
188 188 188
182 182 182
173 173 173
155 155 155
157 157 157
154 154 154
142 142 142
125 125 125
124 124 124
122 122 122
121 121 121
149 149 149
176 176 176
201 201 201
218 218 218
215 215 215
196 196 196
170 170 170
143 143 143
145 145 145
142 142 142
132 132 132
140 140 140
146 146 146
128 128 128
135 135 135
152 152 152
174 174 174
189 189 189
193 193 193
184 184 184
165 165 165
150 150 150
162 162 162
165 165 165
159 159 159
144 144 144
133 133 133
118 118 118
124 124 124
131 131 131
131 131 131
127 127 127
140 140 140
161 161 161
177 177 177
184 184 184
178 178 178
187 187 187
189 189 189
190 190 190
192 192 192
181 181 181
170 170 170
169 169 169
158 158 158
141 141 141
133 133 133
143 143 143
146 146 146
140 140 140
148 148 148
175 175 175
200 200 200
216 216 216
214 214 214
195 195 195
169 169 169
142 142 142
146 146 146
143 143 143
133 133 133
118 118 118
117 117 117
117 117 117
143 143 143
166 166 166
185 185 185
198 198 198
202 202 202
192 192 192
171 171 171
153 153 153
166 166 166
176 176 176
174 174 174
163 163 163
149 149 149
137 137 137
134 134 134
142 142 142
142 142 142
136 136 136
155 155 155
180 180 180
201 201 201
210 210 210
202 202 202
182 182 182
173 173 173
187 187 187
189 189 189
180 180 180
191 191 191
190 190 190
176 176 176
155 155 155
155 155 155
167 167 167
170 170 170
164 164 164
149 149 149
164 164 164
185 185 185
197 197 197
195 195 195
181 181 181
159 159 159
145 145 145
152 152 152
157 157 157
152 152 152
140 140 140
123 123 123
122 122 122
149 149 149
175 175 175
196 196 196
208 208 208
203 203 203
189 189 189
186 186 186
173 173 173
186 186 186
199 199 199
197 197 197
182 182 182
165 165 165
152 152 152
144 144 144
153 153 153
154 154 154
147 147 147
161 161 161
189 189 189
215 215 215
230 230 230
217 217 217
192 192 192
164 164 164
172 172 172
174 174 174
190 190 190
203 203 203
201 201 201
185 185 185
162 162 162
172 172 172
187 187 187
191 191 191
183 183 183
165 165 165
146 146 146
163 163 163
171 171 171
170 170 170
160 160 160
142 142 142
159 159 159
174 174 174
180 180 180
174 174 174
160 160 160
139 139 139
121 121 121
148 148 148
173 173 173
194 194 194
205 205 205
200 200 200
204 204 204
201 201 201
185 185 185
198 198 198
214 214 214
211 211 211
193 193 193
173 173 173
159 159 159
148 148 148
157 157 157
158 158 158
150 150 150
159 159 159
186 186 186
210 210 210
223 223 223
212 212 212
189 189 189
162 162 162
151 151 151
166 166 166
187 187 187
200 200 200
198 198 198
183 183 183
161 161 161
180 180 180
198 198 198
203 203 203
193 193 193
173 173 173
148 148 148
137 137 137
144 144 144
143 143 143
140 140 140
149 149 149
172 172 172
190 190 190
197 197 197
190 190 190
172 172 172
149 149 149
114 114 114
139 139 139
161 161 161
179 179 179
188 188 188
193 193 193
205 205 205
202 202 202
203 203 203
195 195 195
210 210 210
208 208 208
190 190 190
171 171 171
157 157 157
143 143 143
152 152 152
153 153 153
145 145 145
149 149 149
172 172 172
191 191 191
199 199 199
192 192 192
174 174 174
156 156 156
154 154 154
155 155 155
173 173 173
183 183 183
182 182 182
170 170 170
155 155 155
177 177 177
194 194 194
199 199 199
190 190 190
170 170 170
146 146 146
146 146 146
161 161 161
169 169 169
167 167 167
155 155 155
175 175 175
194 194 194
202 202 202
194 194 194
176 176 176
152 152 152
108 108 108
124 124 124
143 143 143
157 157 157
164 164 164
181 181 181
194 194 194
218 218 218
228 228 228
212 212 212
191 191 191
189 189 189
176 176 176
159 159 159
147 147 147
132 132 132
140 140 140
140 140 140
134 134 134
138 138 138
159 159 159
175 175 175
182 182 182
177 177 177
170 170 170
178 178 178
174 174 174
161 161 161
153 153 153
160 160 160
159 159 159
149 149 149
144 144 144
165 165 165
179 179 179
182 182 182
175 175 175
158 158 158
146 146 146
164 164 164
184 184 184
194 194 194
191 191 191
176 176 176
168 168 168
185 185 185
192 192 192
194 194 194
188 188 188
170 170 170
130 130 130
137 137 137
137 137 137
132 132 132
158 158 158
186 186 186
210 210 210
224 224 224
234 234 234
216 216 216
188 188 188
165 165 165
161 161 161
167 167 167
163 163 163
150 150 150
134 134 134
133 133 133
129 129 129
139 139 139
142 142 142
155 155 155
162 162 162
172 172 172
183 183 183
192 192 192
188 188 188
172 172 172
151 151 151
134 134 134
133 133 133
127 127 127
128 128 128
145 145 145
156 156 156
159 159 159
153 153 153
166 166 166
174 174 174
176 176 176
199 199 199
213 213 213
209 209 209
190 190 190
165 165 165
187 187 187
211 211 211
222 222 222
211 211 211
188 188 188
147 147 147
156 156 156
157 157 157
149 149 149
163 163 163
192 192 192
221 221 221
244 244 244
226 226 226
200 200 200
178 178 178
170 170 170
188 188 188
196 196 196
190 190 190
174 174 174
151 151 151
131 131 131
133 133 133
143 143 143
146 146 146
149 149 149
167 167 167
178 178 178
185 185 185
194 194 194
190 190 190
174 174 174
152 152 152
127 127 127
106 106 106
121 121 121
134 134 134
140 140 140
140 140 140
145 145 145
170 170 170
190 190 190
202 202 202
199 199 199
201 201 201
216 216 216
212 212 212
192 192 192
167 167 167
194 194 194
222 222 222
241 241 241
222 222 222
194 194 194
160 160 160
170 170 170
170 170 170
161 161 161
158 158 158
185 185 185
209 209 209
223 223 223
213 213 213
190 190 190
163 163 163
186 186 186
211 211 211
225 225 225
215 215 215
191 191 191
164 164 164
136 136 136
130 130 130
140 140 140
143 143 143
145 145 145
163 163 163
173 173 173
175 175 175
183 183 183
179 179 179
165 165 165
154 154 154
142 142 142
123 123 123
137 137 137
152 152 152
160 160 160
159 159 159
154 154 154
182 182 182
208 208 208
227 227 227
221 221 221
197 197 197
200 200 200
197 197 197
181 181 181
160 160 160
187 187 187
210 210 210
222 222 222
210 210 210
187 187 187
163 163 163
174 174 174
174 174 174
165 165 165
148 148 148
171 171 171
194 194 194
208 208 208
206 206 206
189 189 189
165 165 165
193 193 193
222 222 222
251 251 251
228 228 228
198 198 198
169 169 169
140 140 140
143 143 143
145 145 145
139 139 139
140 140 140
150 150 150
159 159 159
160 160 160
164 164 164
179 179 179
184 184 184
177 177 177
161 161 161
139 139 139
148 148 148
165 165 165
174 174 174
173 173 173
162 162 162
184 184 184
211 211 211
231 231 231
224 224 224
199 199 199
176 176 176
174 174 174
162 162 162
147 147 147
170 170 170
187 187 187
194 194 194
187 187 187
170 170 170
158 158 158
168 168 168
168 168 168
164 164 164
171 171 171
179 179 179
205 205 205
224 224 224
221 221 221
199 199 199
172 172 172
186 186 186
210 210 210
224 224 224
214 214 214
191 191 191
164 164 164
156 156 156
167 167 167
168 168 168
161 161 161
145 145 145
144 144 144
140 140 140
154 154 154
178 178 178
196 196 196
202 202 202
193 193 193
174 174 174
150 150 150
151 151 151
169 169 169
179 179 179
178 178 178
166 166 166
174 174 174
196 196 196
209 209 209
205 205 205
187 187 187
163 163 163
147 147 147
150 150 150
155 155 155
152 152 152
166 166 166
179 179 179
182 182 182
173 173 173
144 144 144
153 153 153
166 166 166
185 185 185
195 195 195
191 191 191
200 200 200
216 216 216
214 214 214
194 194 194
169 169 169
169 169 169
187 187 187
195 195 195
189 189 189
173 173 173
151 151 151
171 171 171
185 185 185
187 187 187
177 177 177
159 159 159
139 139 139
134 134 134
157 157 157
181 181 181
200 200 200
207 207 207
198 198 198
177 177 177
152 152 152
147 147 147
163 163 163
172 172 172
171 171 171
160 160 160
162 162 162
173 173 173
182 182 182
179 179 179
166 166 166
147 147 147
151 151 151
166 166 166
172 172 172
168 168 168
187 187 187
206 206 206
211 211 211
198 198 198
126 126 126
150 150 150
176 176 176
199 199 199
211 211 211
218 218 218
213 213 213
194 194 194
192 192 192
178 178 178
157 157 157
146 146 146
160 160 160
165 165 165
162 162 162
149 149 149
157 157 157
179 179 179
194 194 194
196 196 196
185 185 185
165 165 165
141 141 141
130 130 130
151 151 151
173 173 173
190 190 190
196 196 196
188 188 188
170 170 170
146 146 146
134 134 134
149 149 149
157 157 157
170 170 170
186 186 186
191 191 191
184 184 184
166 166 166
151 151 151
144 144 144
137 137 137
158 158 158
174 174 174
181 181 181
176 176 176
200 200 200
227 227 227
237 237 237
215 215 215
123 123 123
150 150 150
176 176 176
198 198 198
216 216 216
244 244 244
232 232 232
204 204 204
174 174 174
155 155 155
138 138 138
122 122 122
132 132 132
136 136 136
133 133 133
130 130 130
154 154 154
175 175 175
189 189 189
191 191 191
181 181 181
162 162 162
153 153 153
150 150 150
139 139 139
157 157 157
170 170 170
175 175 175
168 168 168
154 154 154
153 153 153
146 146 146
143 143 143
162 162 162
188 188 188
211 211 211
220 220 220
208 208 208
184 184 184
161 161 161
165 165 165
160 160 160
156 156 156
171 171 171
178 178 178
173 173 173
200 200 200
225 225 225
235 235 235
214 214 214
116 116 116
142 142 142
165 165 165
184 184 184
210 210 210
230 230 230
223 223 223
199 199 199
171 171 171
143 143 143
128 128 128
127 127 127
135 135 135
150 150 150
158 158 158
157 157 157
148 148 148
161 161 161
173 173 173
175 175 175
167 167 167
170 170 170
176 176 176
171 171 171
158 158 158
162 162 162
162 162 162
152 152 152
151 151 151
160 160 160
160 160 160
153 153 153
150 150 150
168 168 168
197 197 197
225 225 225
243 243 243
221 221 221
192 192 192
179 179 179
184 184 184
177 177 177
161 161 161
159 159 159
165 165 165
162 162 162
185 185 185
203 203 203
207 207 207
195 195 195
112 112 112
138 138 138
162 162 162
183 183 183
197 197 197
201 201 201
198 198 198
182 182 182
159 159 159
138 138 138
139 139 139
134 134 134
157 157 157
176 176 176
187 187 187
186 186 186
173 173 173
154 154 154
151 151 151
153 153 153
167 167 167
185 185 185
192 192 192
187 187 187
179 179 179
190 190 190
190 190 190
177 177 177
157 157 157
158 158 158
158 158 158
153 153 153
150 150 150
164 164 164
191 191 191
215 215 215
226 226 226
212 212 212
187 187 187
187 187 187
193 193 193
186 186 186
173 173 173
169 169 169
164 164 164
174 174 174
173 173 173
175 175 175
178 178 178
170 170 170
121 121 121
149 149 149
177 177 177
204 204 204
223 223 223
228 228 228
210 210 210
184 184 184
155 155 155
146 146 146
147 147 147
147 147 147
174 174 174
199 199 199
215 215 215
214 214 214
195 195 195
170 170 170
148 148 148
150 150 150
170 170 170
189 189 189
197 197 197
191 191 191
199 199 199
217 217 217
216 216 216
198 198 198
172 172 172
148 148 148
148 148 148
144 144 144
141 141 141
152 152 152
175 175 175
192 192 192
198 198 198
190 190 190
171 171 171
184 184 184
190 190 190
192 192 192
202 202 202
197 197 197
180 180 180
176 176 176
175 175 175
164 164 164
165 165 165
171 171 171
126 126 126
153 153 153
183 183 183
212 212 212
241 241 241
239 239 239
215 215 215
187 187 187
158 158 158
147 147 147
148 148 148
153 153 153
183 183 183
212 212 212
239 239 239
235 235 235
207 207 207
178 178 178
149 149 149
148 148 148
164 164 164
180 180 180
187 187 187
183 183 183
209 209 209
235 235 235
233 233 233
207 207 207
178 178 178
149 149 149
131 131 131
146 146 146
161 161 161
167 167 167
164 164 164
165 165 165
169 169 169
163 163 163
156 156 156
170 170 170
186 186 186
213 213 213
231 231 231
221 221 221
196 196 196
172 172 172
166 166 166
173 173 173
191 191 191
200 200 200
148 148 148
165 165 165
176 176 176
202 202 202
221 221 221
220 220 220
201 201 201
178 178 178
151 151 151
139 139 139
140 140 140
151 151 151
180 180 180
207 207 207
228 228 228
226 226 226
202 202 202
175 175 175
146 146 146
137 137 137
149 149 149
163 163 163
180 180 180
187 187 187
202 202 202
221 221 221
220 220 220
200 200 200
174 174 174
146 146 146
138 138 138
161 161 161
178 178 178
186 186 186
183 183 183
168 168 168
148 148 148
155 155 155
164 164 164
164 164 164
190 190 190
219 219 219
245 245 245
229 229 229
212 212 212
190 190 190
163 163 163
188 188 188
213 213 213
227 227 227
166 166 166
188 188 188
201 201 201
199 199 199
193 193 193
192 192 192
179 179 179
160 160 160
141 141 141
136 136 136
134 134 134
141 141 141
166 166 166
188 188 188
201 201 201
200 200 200
184 184 184
162 162 162
149 149 149
136 136 136
136 136 136
157 157 157
172 172 172
179 179 179
182 182 182
194 194 194
194 194 194
180 180 180
169 169 169
157 157 157
144 144 144
168 168 168
187 187 187
196 196 196
192 192 192
176 176 176
158 158 158
179 179 179
192 192 192
192 192 192
180 180 180
204 204 204
218 218 218
237 237 237
224 224 224
197 197 197
168 168 168
192 192 192
219 219 219
238 238 238
177 177 177
202 202 202
221 221 221
219 219 219
198 198 198
178 178 178
168 168 168
150 150 150
146 146 146
142 142 142
140 140 140
146 146 146
169 169 169
188 188 188
197 197 197
192 192 192
176 176 176
169 169 169
168 168 168
158 158 158
140 140 140
143 143 143
156 156 156
161 161 161
158 158 158
166 166 166
172 172 172
176 176 176
173 173 173
161 161 161
157 157 157
165 165 165
183 183 183
193 193 193
188 188 188
173 173 173
172 172 172
198 198 198
217 217 217
217 217 217
199 199 199
183 183 183
207 207 207
221 221 221
212 212 212
190 190 190
164 164 164
182 182 182
205 205 205
216 216 216
177 177 177
202 202 202
221 221 221
219 219 219
206 206 206
206 206 206
191 191 191
168 168 168
161 161 161
167 167 167
163 163 163
157 157 157
184 184 184
209 209 209
223 223 223
215 215 215
192 192 192
198 198 198
197 197 197
182 182 182
160 160 160
135 135 135
134 134 134
139 139 139
147 147 147
166 166 166
178 178 178
180 180 180
171 171 171
164 164 164
179 179 179
185 185 185
179 179 179
177 177 177
173 173 173
161 161 161
177 177 177
205 205 205
229 229 229
230 230 230
207 207 207
188 188 188
185 185 185
193 193 193
188 188 188
174 174 174
161 161 161
164 164 164
181 181 181
188 188 188
166 166 166
188 188 188
201 201 201
206 206 206
231 231 231
231 231 231
207 207 207
179 179 179
179 179 179
187 187 187
182 182 182
168 168 168
188 188 188
215 215 215
233 233 233
222 222 222
206 206 206
226 226 226
223 223 223
201 201 201
174 174 174
145 145 145
128 128 128
142 142 142
148 148 148
163 163 163
174 174 174
176 176 176
167 167 167
177 177 177
196 196 196
204 204 204
195 195 195
176 176 176
152 152 152
144 144 144
171 171 171
196 196 196
214 214 214
215 215 215
217 217 217
215 215 215
196 196 196
175 175 175
183 183 183
179 179 179
173 173 173
166 166 166
165 165 165
164 164 164
149 149 149
166 166 166
179 179 179
207 207 207
232 232 232
232 232 232
207 207 207
179 179 179
189 189 189
198 198 198
193 193 193
176 176 176
179 179 179
202 202 202
214 214 214
207 207 207
213 213 213
242 242 242
237 237 237
207 207 207
178 178 178
164 164 164
149 149 149
157 157 157
165 165 165
163 163 163
161 161 161
162 162 162
155 155 155
180 180 180
200 200 200
208 208 208
200 200 200
179 179 179
156 156 156
144 144 144
156 156 156
176 176 176
189 189 189
212 212 212
240 240 240
235 235 235
207 207 207
178 178 178
180 180 180
197 197 197
202 202 202
191 191 191
171 171 171
158 158 158
126 126 126
142 142 142
168 168 168
191 191 191
207 207 207
208 208 208
192 192 192
169 169 169
187 187 187
195 195 195
190 190 190
174 174 174
162 162 162
179 179 179
187 187 187
182 182 182
202 202 202
219 219 219
217 217 217
197 197 197
196 196 196
186 186 186
167 167 167
165 165 165
174 174 174
172 172 172
160 160 160
162 162 162
173 173 173
176 176 176
189 189 189
196 196 196
189 189 189
190 190 190
184 184 184
168 168 168
146 146 146
152 152 152
179 179 179
206 206 206
226 226 226
223 223 223
201 201 201
174 174 174
195 195 195
219 219 219
228 228 228
211 211 211
185 185 185
157 157 157
133 133 133
133 133 133
150 150 150
168 168 168
179 179 179
179 179 179
169 169 169
157 157 157
173 173 173
180 180 180
176 176 176
162 162 162
142 142 142
153 153 153
158 158 158
173 173 173
185 185 185
191 191 191
190 190 190
208 208 208
214 214 214
201 201 201
178 178 178
164 164 164
172 172 172
170 170 170
159 159 159
173 173 173
187 187 187
190 190 190
180 180 180
184 184 184
207 207 207
219 219 219
210 210 210
187 187 187
161 161 161
144 144 144
165 165 165
186 186 186
199 199 199
197 197 197
183 183 183
178 178 178
199 199 199
225 225 225
236 236 236
215 215 215
187 187 187
159 159 159
158 158 158
157 157 157
148 148 148
162 162 162
167 167 167
163 163 163
153 153 153
144 144 144
152 152 152
158 158 158
155 155 155
143 143 143
126 126 126
140 140 140
165 165 165
187 187 187
202 202 202
201 201 201
189 189 189
209 209 209
214 214 214
201 201 201
178 178 178
154 154 154
161 161 161
160 160 160
154 154 154
175 175 175
190 190 190
192 192 192
182 182 182
193 193 193
223 223 223
248 248 248
226 226 226
197 197 197
168 168 168
162 162 162
167 167 167
170 170 170
173 173 173
169 169 169
178 178 178
188 188 188
187 187 187
207 207 207
213 213 213
200 200 200
178 178 178
152 152 152
178 178 178
178 178 178
168 168 168
186 186 186
193 193 193
188 188 188
171 171 171
149 149 149
140 140 140
133 133 133
130 130 130
124 124 124
134 134 134
142 142 142
167 167 167
190 190 190
205 205 205
205 205 205
189 189 189
193 193 193
197 197 197
187 187 187
168 168 168
149 149 149
151 151 151
145 145 145
147 147 147
167 167 167
179 179 179
182 182 182
173 173 173
189 189 189
215 215 215
231 231 231
218 218 218
193 193 193
168 168 168
185 185 185
192 192 192
186 186 186
170 170 170
161 161 161
176 176 176
186 186 186
184 184 184
181 181 181
185 185 185
177 177 177
160 160 160
168 168 168
192 192 192
191 191 191
182 182 182
205 205 205
216 216 216
207 207 207
185 185 185
160 160 160
153 153 153
145 145 145
130 130 130
142 142 142
155 155 155
159 159 159
160 160 160
180 180 180
193 193 193
192 192 192
179 179 179
169 169 169
172 172 172
165 165 165
152 152 152
163 163 163
166 166 166
159 159 159
144 144 144
150 150 150
161 161 161
163 163 163
155 155 155
174 174 174
193 193 193
202 202 202
195 195 195
177 177 177
181 181 181
202 202 202
212 212 212
204 204 204
183 183 183
164 164 164
165 165 165
172 172 172
171 171 171
160 160 160
156 156 156
153 153 153
160 160 160
180 180 180
193 193 193
192 192 192
188 188 188
210 210 210
222 222 222
212 212 212
189 189 189
162 162 162
158 158 158
150 150 150
135 135 135
155 155 155
169 169 169
175 175 175
170 170 170
162 162 162
171 171 171
171 171 171
161 161 161
150 150 150
154 154 154
161 161 161
159 159 159
169 169 169
171 171 171
164 164 164
150 150 150
140 140 140
139 139 139
139 139 139
148 148 148
165 165 165
175 175 175
174 174 174
168 168 168
157 157 157
183 183 183
205 205 205
216 216 216
207 207 207
185 185 185
160 160 160
158 158 158
152 152 152
155 155 155
157 157 157
149 149 149
156 156 156
161 161 161
181 181 181
181 181 181
182 182 182
195 195 195
206 206 206
207 207 207
199 199 199
180 180 180
156 156 156
155 155 155
147 147 147
139 139 139
160 160 160
175 175 175
181 181 181
176 176 176
161 161 161
154 154 154
167 167 167
170 170 170
164 164 164
165 165 165
172 172 172
170 170 170
164 164 164
167 167 167
163 163 163
161 161 161
151 151 151
134 134 134
123 123 123
144 144 144
160 160 160
169 169 169
169 169 169
158 158 158
150 150 150
174 174 174
192 192 192
201 201 201
194 194 194
179 179 179
158 158 158
144 144 144
152 152 152
162 162 162
164 164 164
156 156 156
151 151 151
153 153 153
171 171 171
185 185 185
202 202 202
204 204 204
199 199 199
194 194 194
177 177 177
162 162 162
143 143 143
143 143 143
136 136 136
136 136 136
156 156 156
171 171 171
176 176 176
171 171 171
158 158 158
162 162 162
172 172 172
175 175 175
169 169 169
166 166 166
174 174 174
171 171 171
159 159 159
159 159 159
166 166 166
164 164 164
154 154 154
141 141 141
145 145 145
140 140 140
148 148 148
155 155 155
155 155 155
149 149 149
137 137 137
156 156 156
171 171 171
181 181 181
181 181 181
169 169 169
151 151 151
134 134 134
150 150 150
160 160 160
162 162 162
154 154 154
150 150 150
150 150 150
162 162 162
191 191 191
209 209 209
212 212 212
198 198 198
176 176 176
163 163 163
143 143 143
142 142 142
151 151 151
151 151 151
144 144 144
144 144 144
157 157 157
162 162 162
169 169 169
184 184 184
189 189 189
182 182 182
170 170 170
164 164 164
158 158 158
165 165 165
163 163 163
152 152 152
153 153 153
160 160 160
158 158 158
156 156 156
169 169 169
174 174 174
168 168 168
153 153 153
139 139 139
143 143 143
139 139 139
128 128 128
138 138 138
153 153 153
162 162 162
161 161 161
152 152 152
136 136 136
125 125 125
140 140 140
150 150 150
151 151 151
167 167 167
175 175 175
173 173 173
175 175 175
183 183 183
199 199 199
202 202 202
190 190 190
169 169 169
144 144 144
138 138 138
150 150 150
159 159 159
159 159 159
151 151 151
136 136 136
137 137 137
160 160 160
186 186 186
206 206 206
214 214 214
203 203 203
181 181 181
155 155 155
142 142 142
148 148 148
146 146 146
137 137 137
139 139 139
145 145 145
154 154 154
178 178 178
196 196 196
203 203 203
194 194 194
175 175 175
150 150 150
127 127 127
123 123 123
113 113 113
118 118 118
131 131 131
138 138 138
138 138 138
130 130 130
117 117 117
131 131 131
148 148 148
159 159 159
166 166 166
185 185 185
196 196 196
193 193 193
178 178 178
194 194 194
190 190 190
180 180 180
171 171 171
154 154 154
132 132 132
137 137 137
149 149 149
158 158 158
159 159 159
151 151 151
136 136 136
141 141 141
165 165 165
193 193 193
217 217 217
228 228 228
213 213 213
187 187 187
159 159 159
131 131 131
127 127 127
125 125 125
137 137 137
142 142 142
139 139 139
165 165 165
193 193 193
218 218 218
230 230 230
215 215 215
189 189 189
161 161 161
139 139 139
138 138 138
130 130 130
133 133 133
134 134 134
128 128 128
119 119 119
112 112 112
120 120 120
143 143 143
163 163 163
176 176 176
179 179 179
194 194 194
207 207 207
203 203 203
186 186 186
223 223 223
216 216 216
194 194 194
167 167 167
139 139 139
122 122 122
129 129 129
141 141 141
149 149 149
150 150 150
142 142 142
135 135 135
145 145 145
161 161 161
186 186 186
207 207 207
215 215 215
204 204 204
181 181 181
155 155 155
128 128 128
117 117 117
129 129 129
140 140 140
145 145 145
142 142 142
167 167 167
196 196 196
223 223 223
239 239 239
220 220 220
192 192 192
163 163 163
152 152 152
151 151 151
152 152 152
162 162 162
163 163 163
155 155 155
140 140 140
125 125 125
125 125 125
149 149 149
169 169 169
183 183 183
186 186 186
189 189 189
201 201 201
198 198 198
207 207 207
247 247 247
232 232 232
202 202 202
173 173 173
143 143 143
138 138 138
144 144 144
143 143 143
134 134 134
134 134 134
128 128 128
132 132 132
142 142 142
148 148 148
170 170 170
185 185 185
190 190 190
183 183 183
166 166 166
143 143 143
141 141 141
139 139 139
130 130 130
137 137 137
141 141 141
138 138 138
159 159 159
185 185 185
206 206 206
214 214 214
204 204 204
182 182 182
156 156 156
158 158 158
157 157 157
177 177 177
191 191 191
192 192 192
181 181 181
161 161 161
137 137 137
122 122 122
146 146 146
165 165 165
179 179 179
182 182 182
176 176 176
183 183 183
189 189 189
218 218 218
226 226 226
218 218 218
195 195 195
168 168 168
140 140 140
149 149 149
156 156 156
154 154 154
144 144 144
128 128 128
108 108 108
122 122 122
131 131 131
148 148 148
164 164 164
172 172 172
171 171 171
160 160 160
144 144 144
152 152 152
159 159 159
157 157 157
157 157 157
148 148 148
132 132 132
131 131 131
144 144 144
165 165 165
181 181 181
186 186 186
179 179 179
163 163 163
147 147 147
155 155 155
171 171 171
197 197 197
218 218 218
221 221 221
203 203 203
177 177 177
150 150 150
129 129 129
156 156 156
181 181 181
201 201 201
210 210 210
201 201 201
181 181 181
183 183 183
209 209 209
197 197 197
193 193 193
177 177 177
155 155 155
148 148 148
152 152 152
159 159 159
157 157 157
147 147 147
130 130 130
117 117 117
126 126 126
133 133 133
155 155 155
172 172 172
182 182 182
180 180 180
168 168 168
148 148 148
162 162 162
172 172 172
182 182 182
182 182 182
170 170 170
151 151 151
155 155 155
170 170 170
176 176 176
172 172 172
158 158 158
152 152 152
139 139 139
139 139 139
148 148 148
178 178 178
207 207 207
236 236 236
243 243 243
213 213 213
184 184 184
155 155 155
135 135 135
165 165 165
193 193 193
220 220 220
237 237 237
220 220 220
193 193 193
167 167 167
187 187 187
167 167 167
165 165 165
153 153 153
157 157 157
165 165 165
163 163 163
153 153 153
152 152 152
142 142 142
126 126 126
132 132 132
143 143 143
147 147 147
154 154 154
171 171 171
180 180 180
179 179 179
166 166 166
148 148 148
167 167 167
189 189 189
203 203 203
202 202 202
187 187 187
164 164 164
174 174 174
194 194 194
203 203 203
197 197 197
178 178 178
155 155 155
160 160 160
156 156 156
145 145 145
173 173 173
200 200 200
222 222 222
225 225 225
205 205 205
179 179 179
151 151 151
144 144 144
164 164 164
192 192 192
219 219 219
235 235 235
219 219 219
192 192 192
169 169 169
160 160 160
138 138 138
136 136 136
148 148 148
165 165 165
173 173 173
172 172 172
160 160 160
142 142 142
130 130 130
124 124 124
142 142 142
154 154 154
158 158 158
154 154 154
160 160 160
168 168 168
166 166 166
156 156 156
146 146 146
172 172 172
196 196 196
211 211 211
210 210 210
193 193 193
169 169 169
186 186 186
211 211 211
225 225 225
215 215 215
191 191 191
177 177 177
184 184 184
179 179 179
164 164 164
159 159 159
181 181 181
195 195 195
197 197 197
185 185 185
164 164 164
156 156 156
168 168 168
171 171 171
179 179 179
199 199 199
207 207 207
199 199 199
185 185 185
167 167 167
144 144 144
109 109 109
126 126 126
147 147 147
163 163 163
172 172 172
170 170 170
159 159 159
141 141 141
127 127 127
127 127 127
144 144 144
156 156 156
161 161 161
157 157 157
148 148 148
165 165 165
175 175 175
174 174 174
164 164 164
166 166 166
188 188 188
202 202 202
201 201 201
186 186 186
163 163 163
187 187 187
211 211 211
226 226 226
215 215 215
191 191 191
193 193 193
201 201 201
195 195 195
177 177 177
168 168 168
190 190 190
203 203 203
201 201 201
185 185 185
162 162 162
173 173 173
189 189 189
192 192 192
183 183 183
173 173 173
179 179 179
178 178 178
171 171 171
156 156 156
147 147 147
96 96 96
119 119 119
138 138 138
153 153 153
160 160 160
159 159 159
149 149 149
132 132 132
128 128 128
141 141 141
147 147 147
150 150 150
155 155 155
152 152 152
161 161 161
177 177 177
188 188 188
187 187 187
175 175 175
155 155 155
170 170 170
181 181 181
180 180 180
169 169 169
172 172 172
183 183 183
195 195 195
204 204 204
198 198 198
179 179 179
196 196 196
206 206 206
199 199 199
180 180 180
168 168 168
190 190 190
203 203 203
201 201 201
185 185 185
162 162 162
182 182 182
200 200 200
205 205 205
194 194 194
194 194 194
197 197 197
187 187 187
168 168 168
168 168 168
158 158 158
101 101 101
123 123 123
142 142 142
155 155 155
160 160 160
156 156 156
145 145 145
127 127 127
148 148 148
163 163 163
171 171 171
169 169 169
157 157 157
159 159 159
170 170 170
177 177 177
189 189 189
188 188 188
176 176 176
173 173 173
191 191 191
199 199 199
192 192 192
174 174 174
187 187 187
202 202 202
202 202 202
188 188 188
173 173 173
169 169 169
187 187 187
194 194 194
189 189 189
172 172 172
159 159 159
178 178 178
189 189 189
187 187 187
174 174 174
157 157 157
180 180 180
197 197 197
201 201 201
195 195 195
219 219 219
226 226 226
209 209 209
183 183 183
172 172 172
180 180 180
104 104 104
125 125 125
144 144 144
158 158 158
163 163 163
159 159 159
147 147 147
139 139 139
162 162 162
180 180 180
190 190 190
187 187 187
172 172 172
158 158 158
168 168 168
173 173 173
193 193 193
203 203 203
197 197 197
188 188 188
213 213 213
226 226 226
214 214 214
190 190 190
198 198 198
207 207 207
207 207 207
192 192 192
174 174 174
194 194 194
204 204 204
198 198 198
180 180 180
156 156 156
159 159 159
158 158 158
166 166 166
165 165 165
155 155 155
147 147 147
167 167 167
181 181 181
184 184 184
202 202 202
230 230 230
243 243 243
217 217 217
188 188 188
195 195 195
208 208 208
