P3
50 50
255
143 143 143
151 151 151
151 151 151
142 142 142
135 135 135
140 140 140
136 136 136
140 140 140
159 159 159
172 172 172
176 176 176
183 183 183
179 179 179
165 165 165
154 154 154
181 181 181
204 204 204
217 217 217
209 209 209
188 188 188
163 163 163
159 159 159
186 186 186
210 210 210
223 223 223
213 213 213
189 189 189
162 162 162
179 179 179
201 201 201
212 212 212
206 206 206
185 185 185
188 188 188
198 198 198
193 193 193
176 176 176
153 153 153
168 168 168
182 182 182
185 185 185
177 177 177
160 160 160
138 138 138
128 128 128
128 128 128
158 158 158
186 186 186
215 215 215
238 238 238
161 161 161
171 171 171
170 170 170
160 160 160
157 157 157
162 162 162
158 158 158
153 153 153
175 175 175
191 191 191
195 195 195
206 206 206
200 200 200
182 182 182
158 158 158
184 184 184
208 208 208
223 223 223
214 214 214
192 192 192
165 165 165
163 163 163
191 191 191
218 218 218
236 236 236
221 221 221
195 195 195
166 166 166
181 181 181
204 204 204
217 217 217
209 209 209
188 188 188
190 190 190
199 199 199
194 194 194
177 177 177
160 160 160
184 184 184
203 203 203
208 208 208
196 196 196
174 174 174
149 149 149
130 130 130
128 128 128
157 157 157
185 185 185
213 213 213
233 233 233
173 173 173
184 184 184
183 183 183
172 172 172
174 174 174
180 180 180
175 175 175
161 161 161
181 181 181
199 199 199
204 204 204
217 217 217
210 210 210
189 189 189
163 163 163
175 175 175
196 196 196
206 206 206
200 200 200
182 182 182
158 158 158
157 157 157
183 183 183
205 205 205
217 217 217
208 208 208
186 186 186
160 160 160
172 172 172
192 192 192
201 201 201
196 196 196
178 178 178
179 179 179
187 187 187
183 183 183
168 168 168
165 165 165
191 191 191
212 212 212
218 218 218
203 203 203
180 180 180
153 153 153
125 125 125
120 120 120
147 147 147
172 172 172
194 194 194
206 206 206
174 174 174
186 186 186
185 185 185
173 173 173
182 182 182
189 189 189
184 184 184
168 168 168
176 176 176
192 192 192
197 197 197
208 208 208
202 202 202
183 183 183
159 159 159
158 158 158
174 174 174
181 181 181
177 177 177
163 163 163
143 143 143
143 143 143
165 165 165
182 182 182
189 189 189
184 184 184
179 179 179
180 180 180
171 171 171
170 170 170
177 177 177
173 173 173
160 160 160
160 160 160
166 166 166
163 163 163
151 151 151
160 160 160
184 184 184
202 202 202
207 207 207
195 195 195
174 174 174
149 149 149
125 125 125
116 116 116
131 131 131
153 153 153
169 169 169
177 177 177
166 166 166
176 176 176
175 175 175
164 164 164
179 179 179
185 185 185
180 180 180
165 165 165
161 161 161
174 174 174
178 178 178
186 186 186
182 182 182
167 167 167
147 147 147
157 157 157
167 167 167
168 168 168
159 159 159
143 143 143
141 141 141
153 153 153
158 158 158
159 159 159
170 170 170
186 186 186
202 202 202
205 205 205
192 192 192
170 170 170
150 150 150
147 147 147
137 137 137
136 136 136
141 141 141
138 138 138
129 129 129
147 147 147
168 168 168
181 181 181
190 190 190
189 189 189
176 176 176
155 155 155
136 136 136
140 140 140
136 136 136
129 129 129
142 142 142
148 148 148
149 149 149
157 157 157
158 158 158
175 175 175
183 183 183
180 180 180
166 166 166
153 153 153
141 141 141
151 151 151
154 154 154
160 160 160
157 157 157
146 146 146
132 132 132
148 148 148
157 157 157
158 158 158
150 150 150
142 142 142
164 164 164
181 181 181
187 187 187
182 182 182
170 170 170
196 196 196
217 217 217
220 220 220
203 203 203
178 178 178
151 151 151
140 140 140
125 125 125
142 142 142
153 153 153
156 156 156
150 150 150
137 137 137
159 159 159
179 179 179
190 190 190
188 188 188
175 175 175
155 155 155
157 157 157
161 161 161
157 157 157
144 144 144
126 126 126
134 134 134
128 128 128
151 151 151
177 177 177
199 199 199
211 211 211
206 206 206
187 187 187
175 175 175
163 163 163
150 150 150
158 158 158
166 166 166
172 172 172
167 167 167
154 154 154
155 155 155
165 165 165
166 166 166
158 158 158
157 157 157
183 183 183
206 206 206
216 216 216
207 207 207
186 186 186
193 193 193
211 211 211
215 215 215
199 199 199
175 175 175
165 165 165
155 155 155
146 146 146
166 166 166
180 180 180
184 184 184
176 176 176
160 160 160
150 150 150
167 167 167
177 177 177
175 175 175
164 164 164
157 157 157
171 171 171
177 177 177
171 171 171
164 164 164
151 151 151
132 132 132
129 129 129
158 158 158
187 187 187
214 214 214
235 235 235
225 225 225
205 205 205
202 202 202
185 185 185
166 166 166
176 176 176
187 187 187
194 194 194
188 188 188
171 171 171
169 169 169
181 181 181
182 182 182
172 172 172
164 164 164
193 193 193
222 222 222
244 244 244
225 225 225
196 196 196
177 177 177
191 191 191
193 193 193
182 182 182
175 175 175
173 173 173
162 162 162
161 161 161
186 186 186
205 205 205
211 211 211
199 199 199
178 178 178
152 152 152
149 149 149
156 156 156
155 155 155
146 146 146
162 162 162
177 177 177
190 190 190
197 197 197
190 190 190
172 172 172
149 149 149
128 128 128
157 157 157
185 185 185
211 211 211
229 229 229
220 220 220
229 229 229
224 224 224
200 200 200
175 175 175
185 185 185
198 198 198
207 207 207
199 199 199
180 180 180
173 173 173
186 186 186
187 187 187
176 176 176
162 162 162
190 190 190
217 217 217
232 232 232
219 219 219
193 193 193
165 165 165
166 166 166
167 167 167
164 164 164
172 172 172
171 171 171
160 160 160
168 168 168
196 196 196
221 221 221
231 231 231
213 213 213
187 187 187
158 158 158
131 131 131
141 141 141
147 147 147
145 145 145
160 160 160
187 187 187
210 210 210
222 222 222
210 210 210
187 187 187
160 160 160
120 120 120
147 147 147
172 172 172
192 192 192
203 203 203
210 210 210
231 231 231
225 225 225
204 204 204
194 194 194
183 183 183
195 195 195
203 203 203
196 196 196
178 178 178
167 167 167
179 179 179
180 180 180
170 170 170
152 152 152
175 175 175
195 195 195
203 203 203
196 196 196
177 177 177
171 171 171
167 167 167
155 155 155
153 153 153
161 161 161
159 159 159
150 150 150
166 166 166
193 193 193
216 216 216
224 224 224
209 209 209
184 184 184
156 156 156
151 151 151
168 168 168
176 176 176
174 174 174
163 163 163
191 191 191
217 217 217
231 231 231
217 217 217
191 191 191
163 163 163
121 121 121
131 131 131
152 152 152
167 167 167
174 174 174
195 195 195
208 208 208
220 220 220
231 231 231
214 214 214
188 188 188
179 179 179
186 186 186
181 181 181
165 165 165
153 153 153
163 163 163
164 164 164
155 155 155
152 152 152
155 155 155
168 168 168
174 174 174
169 169 169
188 188 188
197 197 197
192 192 192
176 176 176
154 154 154
142 142 142
141 141 141
133 133 133
154 154 154
177 177 177
194 194 194
199 199 199
189 189 189
170 170 170
146 146 146
171 171 171
193 193 193
205 205 205
202 202 202
185 185 185
182 182 182
203 203 203
213 213 213
203 203 203
182 182 182
161 161 161
146 146 146
154 154 154
155 155 155
147 147 147
154 154 154
176 176 176
197 197 197
225 225 225
238 238 238
218 218 218
190 190 190
164 164 164
166 166 166
161 161 161
157 157 157
146 146 146
141 141 141
142 142 142
154 154 154
166 166 166
169 169 169
163 163 163
154 154 154
181 181 181
205 205 205
219 219 219
212 212 212
190 190 190
164 164 164
137 137 137
119 119 119
114 114 114
137 137 137
155 155 155
168 168 168
171 171 171
164 164 164
156 156 156
163 163 163
184 184 184
212 212 212
233 233 233
226 226 226
201 201 201
172 172 172
181 181 181
195 195 195
203 203 203
195 195 195
176 176 176
167 167 167
178 178 178
179 179 179
168 168 168
155 155 155
181 181 181
204 204 204
215 215 215
213 213 213
201 201 201
179 179 179
164 164 164
181 181 181
188 188 188
183 183 183
168 168 168
146 146 146
139 139 139
159 159 159
172 172 172
175 175 175
168 168 168
156 156 156
183 183 183
208 208 208
223 223 223
215 215 215
192 192 192
166 166 166
138 138 138
109 109 109
105 105 105
125 125 125
141 141 141
151 151 151
153 153 153
159 159 159
177 177 177
186 186 186
186 186 186
214 214 214
239 239 239
230 230 230
203 203 203
174 174 174
181 181 181
202 202 202
211 211 211
202 202 202
182 182 182
182 182 182
196 196 196
197 197 197
184 184 184
163 163 163
175 175 175
195 195 195
205 205 205
198 198 198
180 180 180
160 160 160
179 179 179
201 201 201
212 212 212
204 204 204
184 184 184
159 159 159
136 136 136
155 155 155
167 167 167
171 171 171
164 164 164
159 159 159
174 174 174
194 194 194
205 205 205
199 199 199
182 182 182
158 158 158
132 132 132
110 110 110
119 119 119
141 141 141
160 160 160
172 172 172
175 175 175
170 170 170
190 190 190
202 202 202
199 199 199
199 199 199
213 213 213
209 209 209
190 190 190
165 165 165
176 176 176
194 194 194
202 202 202
194 194 194
176 176 176
187 187 187
202 202 202
203 203 203
189 189 189
167 167 167
176 176 176
201 201 201
218 218 218
215 215 215
195 195 195
169 169 169
185 185 185
209 209 209
223 223 223
213 213 213
190 190 190
163 163 163
145 145 145
155 155 155
157 157 157
157 157 157
167 167 167
171 171 171
165 165 165
172 172 172
179 179 179
176 176 176
162 162 162
156 156 156
143 143 143
125 125 125
127 127 127
152 152 152
173 173 173
187 187 187
190 190 190
181 181 181
192 192 192
204 204 204
208 208 208
195 195 195
184 184 184
182 182 182
168 168 168
149 149 149
160 160 160
175 175 175
181 181 181
176 176 176
165 165 165
180 180 180
193 193 193
194 194 194
182 182 182
181 181 181
184 184 184
214 214 214
242 242 242
235 235 235
206 206 206
177 177 177
179 179 179
200 200 200
211 211 211
203 203 203
183 183 183
158 158 158
169 169 169
182 182 182
184 184 184
175 175 175
170 170 170
174 174 174
167 167 167
152 152 152
157 157 157
170 170 170
175 175 175
169 169 169
154 154 154
134 134 134
129 129 129
154 154 154
176 176 176
191 191 191
194 194 194
184 184 184
186 186 186
204 204 204
208 208 208
195 195 195
173 173 173
153 153 153
168 168 168
174 174 174
170 170 170
180 180 180
187 187 187
182 182 182
166 166 166
163 163 163
174 174 174
175 175 175
197 197 197
209 209 209
204 204 204
208 208 208
228 228 228
224 224 224
201 201 201
174 174 174
163 163 163
180 180 180
187 187 187
182 182 182
167 167 167
164 164 164
188 188 188
206 206 206
209 209 209
196 196 196
173 173 173
166 166 166
160 160 160
146 146 146
159 159 159
173 173 173
178 178 178
172 172 172
156 156 156
138 138 138
131 131 131
148 148 148
168 168 168
182 182 182
185 185 185
176 176 176
174 174 174
189 189 189
191 191 191
181 181 181
163 163 163
170 170 170
188 188 188
197 197 197
191 191 191
178 178 178
193 193 193
197 197 197
187 187 187
141 141 141
158 158 158
187 187 187
214 214 214
236 236 236
225 225 225
203 203 203
200 200 200
198 198 198
183 183 183
161 161 161
142 142 142
155 155 155
160 160 160
156 156 156
145 145 145
171 171 171
197 197 197
220 220 220
225 225 225
207 207 207
181 181 181
156 156 156
149 149 149
135 135 135
153 153 153
166 166 166
170 170 170
165 165 165
160 160 160
161 161 161
154 154 154
151 151 151
153 153 153
164 164 164
175 175 175
180 180 180
174 174 174
168 168 168
171 171 171
164 164 164
153 153 153
178 178 178
199 199 199
210 210 210
203 203 203
189 189 189
209 209 209
214 214 214
200 200 200
129 129 129
158 158 158
186 186 186
214 214 214
234 234 234
224 224 224
216 216 216
195 195 195
170 170 170
159 159 159
141 141 141
123 123 123
134 134 134
138 138 138
135 135 135
140 140 140
167 167 167
192 192 192
212 212 212
216 216 216
201 201 201
177 177 177
178 178 178
169 169 169
152 152 152
140 140 140
151 151 151
154 154 154
168 168 168
179 179 179
179 179 179
172 172 172
168 168 168
156 156 156
178 178 178
196 196 196
202 202 202
194 194 194
174 174 174
159 159 159
153 153 153
151 151 151
176 176 176
196 196 196
205 205 205
199 199 199
188 188 188
208 208 208
213 213 213
199 199 199
122 122 122
149 149 149
174 174 174
196 196 196
208 208 208
215 215 215
210 210 210
191 191 191
166 166 166
138 138 138
118 118 118
128 128 128
139 139 139
148 148 148
156 156 156
155 155 155
155 155 155
176 176 176
190 190 190
193 193 193
182 182 182
189 189 189
194 194 194
188 188 188
172 172 172
153 153 153
153 153 153
156 156 156
176 176 176
188 188 188
189 189 189
182 182 182
178 178 178
164 164 164
185 185 185
206 206 206
214 214 214
203 203 203
181 181 181
163 163 163
158 158 158
152 152 152
163 163 163
180 180 180
187 187 187
185 185 185
184 184 184
191 191 191
195 195 195
185 185 185
109 109 109
134 134 134
157 157 157
179 179 179
195 195 195
199 199 199
190 190 190
175 175 175
154 154 154
145 145 145
134 134 134
132 132 132
155 155 155
173 173 173
184 184 184
183 183 183
171 171 171
156 156 156
169 169 169
173 173 173
183 183 183
206 206 206
217 217 217
209 209 209
187 187 187
178 178 178
178 178 178
167 167 167
174 174 174
186 186 186
186 186 186
182 182 182
178 178 178
164 164 164
180 180 180
199 199 199
206 206 206
197 197 197
177 177 177
181 181 181
175 175 175
162 162 162
169 169 169
166 166 166
188 188 188
201 201 201
201 201 201
186 186 186
170 170 170
163 163 163
117 117 117
145 145 145
171 171 171
196 196 196
218 218 218
225 225 225
208 208 208
182 182 182
161 161 161
158 158 158
146 146 146
145 145 145
171 171 171
195 195 195
210 210 210
208 208 208
191 191 191
167 167 167
176 176 176
180 180 180
187 187 187
212 212 212
226 226 226
215 215 215
191 191 191
199 199 199
198 198 198
184 184 184
162 162 162
172 172 172
172 172 172
170 170 170
166 166 166
166 166 166
169 169 169
181 181 181
186 186 186
179 179 179
183 183 183
190 190 190
184 184 184
187 187 187
196 196 196
192 192 192
190 190 190
204 204 204
203 203 203
187 187 187
165 165 165
161 161 161
129 129 129
148 148 148
176 176 176
201 201 201
225 225 225
234 234 234
213 213 213
185 185 185
166 166 166
163 163 163
150 150 150
151 151 151
179 179 179
206 206 206
228 228 228
225 225 225
202 202 202
175 175 175
172 172 172
176 176 176
179 179 179
200 200 200
210 210 210
202 202 202
193 193 193
209 209 209
208 208 208
192 192 192
168 168 168
151 151 151
152 152 152
151 151 151
163 163 163
177 177 177
182 182 182
174 174 174
160 160 160
163 163 163
179 179 179
186 186 186
182 182 182
206 206 206
220 220 220
213 213 213
191 191 191
191 191 191
190 190 190
177 177 177
179 179 179
185 185 185
152 152 152
170 170 170
180 180 180
193 193 193
208 208 208
213 213 213
200 200 200
177 177 177
162 162 162
158 158 158
147 147 147
149 149 149
177 177 177
202 202 202
220 220 220
218 218 218
198 198 198
172 172 172
159 159 159
162 162 162
162 162 162
178 178 178
185 185 185
180 180 180
187 187 187
201 201 201
201 201 201
186 186 186
177 177 177
165 165 165
145 145 145
144 144 144
165 165 165
179 179 179
183 183 183
176 176 176
160 160 160
156 156 156
166 166 166
171 171 171
185 185 185
211 211 211
228 228 228
219 219 219
195 195 195
176 176 176
169 169 169
176 176 176
195 195 195
204 204 204
171 171 171
194 194 194
208 208 208
207 207 207
190 190 190
186 186 186
177 177 177
159 159 159
149 149 149
146 146 146
136 136 136
139 139 139
164 164 164
184 184 184
197 197 197
195 195 195
181 181 181
160 160 160
140 140 140
142 142 142
139 139 139
152 152 152
157 157 157
153 153 153
171 171 171
182 182 182
188 188 188
199 199 199
195 195 195
179 179 179
157 157 157
146 146 146
161 161 161
170 170 170
173 173 173
167 167 167
160 160 160
181 181 181
194 194 194
195 195 195
182 182 182
198 198 198
210 210 210
208 208 208
201 201 201
182 182 182
158 158 158
179 179 179
200 200 200
209 209 209
182 182 182
210 210 210
235 235 235
232 232 232
205 205 205
177 177 177
160 160 160
143 143 143
148 148 148
154 154 154
151 151 151
140 140 140
158 158 158
174 174 174
182 182 182
178 178 178
164 164 164
164 164 164
163 163 163
154 154 154
150 150 150
149 149 149
139 139 139
138 138 138
149 149 149
172 172 172
193 193 193
205 205 205
201 201 201
184 184 184
160 160 160
144 144 144
158 158 158
165 165 165
162 162 162
150 150 150
174 174 174
201 201 201
221 221 221
222 222 222
202 202 202
176 176 176
190 190 190
199 199 199
194 194 194
177 177 177
154 154 154
171 171 171
189 189 189
197 197 197
182 182 182
210 210 210
235 235 235
232 232 232
206 206 206
193 193 193
180 180 180
160 160 160
174 174 174
182 182 182
177 177 177
163 163 163
171 171 171
190 190 190
199 199 199
194 194 194
180 180 180
191 191 191
190 190 190
177 177 177
156 156 156
154 154 154
144 144 144
128 128 128
142 142 142
166 166 166
185 185 185
195 195 195
192 192 192
176 176 176
159 159 159
163 163 163
158 158 158
153 153 153
151 151 151
150 150 150
179 179 179
208 208 208
236 236 236
238 238 238
210 210 210
185 185 185
173 173 173
180 180 180
175 175 175
162 162 162
159 159 159
179 179 179
190 190 190
189 189 189
171 171 171
194 194 194
209 209 209
207 207 207
210 210 210
210 210 210
194 194 194
176 176 176
197 197 197
208 208 208
202 202 202
183 183 183
174 174 174
194 194 194
204 204 204
199 199 199
198 198 198
214 214 214
212 212 212
194 194 194
169 169 169
152 152 152
142 142 142
126 126 126
134 134 134
151 151 151
167 167 167
175 175 175
172 172 172
160 160 160
171 171 171
176 176 176
171 171 171
156 156 156
136 136 136
145 145 145
173 173 173
199 199 199
218 218 218
219 219 219
212 212 212
210 210 210
192 192 192
168 168 168
154 154 154
160 160 160
163 163 163
182 182 182
194 194 194
193 193 193
152 152 152
170 170 170
180 180 180
194 194 194
210 210 210
210 210 210
194 194 194
186 186 186
211 211 211
227 227 227
217 217 217
193 193 193
167 167 167
185 185 185
194 194 194
189 189 189
204 204 204
223 223 223
221 221 221
199 199 199
173 173 173
149 149 149
135 135 135
132 132 132
145 145 145
158 158 158
162 162 162
158 158 158
167 167 167
169 169 169
174 174 174
179 179 179
173 173 173
159 159 159
152 152 152
140 140 140
158 158 158
178 178 178
191 191 191
207 207 207
229 229 229
226 226 226
202 202 202
175 175 175
169 169 169
183 183 183
187 187 187
178 178 178
185 185 185
184 184 184
129 129 129
144 144 144
160 160 160
181 181 181
194 194 194
194 194 194
181 181 181
183 183 183
207 207 207
221 221 221
213 213 213
191 191 191
164 164 164
166 166 166
173 173 173
171 171 171
194 194 194
209 209 209
207 207 207
190 190 190
174 174 174
167 167 167
151 151 151
138 138 138
150 150 150
163 163 163
167 167 167
177 177 177
192 192 192
195 195 195
184 184 184
173 173 173
176 176 176
183 183 183
178 178 178
163 163 163
142 142 142
153 153 153
176 176 176
202 202 202
219 219 219
217 217 217
197 197 197
177 177 177
182 182 182
200 200 200
205 205 205
194 194 194
173 173 173
165 165 165
116 116 116
122 122 122
143 143 143
160 160 160
170 170 170
170 170 170
161 161 161
170 170 170
189 189 189
198 198 198
193 193 193
176 176 176
153 153 153
143 143 143
164 164 164
186 186 186
200 200 200
199 199 199
185 185 185
182 182 182
186 186 186
177 177 177
160 160 160
138 138 138
146 146 146
158 158 158
167 167 167
192 192 192
212 212 212
216 216 216
201 201 201
178 178 178
198 198 198
208 208 208
200 200 200
181 181 181
156 156 156
141 141 141
163 163 163
183 183 183
195 195 195
194 194 194
188 188 188
201 201 201
198 198 198
203 203 203
208 208 208
197 197 197
175 175 175
150 150 150
137 137 137
137 137 137
153 153 153
167 167 167
173 173 173
168 168 168
155 155 155
150 150 150
165 165 165
171 171 171
167 167 167
155 155 155
136 136 136
149 149 149
177 177 177
203 203 203
224 224 224
223 223 223
202 202 202
183 183 183
186 186 186
178 178 178
160 160 160
138 138 138
135 135 135
146 146 146
169 169 169
195 195 195
216 216 216
221 221 221
204 204 204
186 186 186
210 210 210
223 223 223
213 213 213
190 190 190
163 163 163
169 169 169
175 175 175
170 170 170
167 167 167
176 176 176
200 200 200
216 216 216
213 213 213
193 193 193
195 195 195
186 186 186
167 167 167
143 143 143
154 154 154
153 153 153
174 174 174
194 194 194
202 202 202
195 195 195
177 177 177
162 162 162
163 163 163
154 154 154
140 140 140
144 144 144
144 144 144
150 150 150
179 179 179
207 207 207
231 231 231
230 230 230
206 206 206
178 178 178
175 175 175
167 167 167
151 151 151
131 131 131
127 127 127
135 135 135
161 161 161
184 184 184
201 201 201
204 204 204
192 192 192
183 183 183
205 205 205
216 216 216
207 207 207
186 186 186
176 176 176
195 195 195
204 204 204
197 197 197
178 178 178
174 174 174
198 198 198
213 213 213
209 209 209
191 191 191
173 173 173
166 166 166
164 164 164
154 154 154
164 164 164
164 164 164
190 190 190
216 216 216
232 232 232
219 219 219
193 193 193
179 179 179
179 179 179
169 169 169
151 151 151
160 160 160
160 160 160
151 151 151
170 170 170
194 194 194
210 210 210
210 210 210
193 193 193
169 169 169
155 155 155
149 149 149
140 140 140
136 136 136
146 146 146
153 153 153
151 151 151
164 164 164
177 177 177
179 179 179
170 170 170
183 183 183
195 195 195
194 194 194
188 188 188
171 171 171
190 190 190
217 217 217
233 233 233
219 219 219
193 193 193
165 165 165
182 182 182
193 193 193
191 191 191
177 177 177
171 171 171
180 180 180
179 179 179
167 167 167
165 165 165
181 181 181
204 204 204
223 223 223
247 247 247
226 226 226
197 197 197
186 186 186
187 187 187
176 176 176
159 159 159
169 169 169
169 169 169
159 159 159
154 154 154
172 172 172
183 183 183
183 183 183
172 172 172
153 153 153
148 148 148
147 147 147
139 139 139
150 150 150
166 166 166
175 175 175
173 173 173
161 161 161
150 150 150
151 151 151
168 168 168
190 190 190
203 203 203
202 202 202
187 187 187
164 164 164
193 193 193
221 221 221
242 242 242
224 224 224
196 196 196
167 167 167
160 160 160
168 168 168
166 166 166
157 157 157
175 175 175
185 185 185
184 184 184
171 171 171
159 159 159
188 188 188
215 215 215
235 235 235
224 224 224
209 209 209
187 187 187
182 182 182
182 182 182
172 172 172
159 159 159
168 168 168
168 168 168
160 160 160
153 153 153
147 147 147
155 155 155
155 155 155
146 146 146
137 137 137
139 139 139
144 144 144
142 142 142
162 162 162
181 181 181
191 191 191
188 188 188
174 174 174
153 153 153
138 138 138
163 163 163
183 183 183
196 196 196
195 195 195
181 181 181
162 162 162
182 182 182
204 204 204
215 215 215
206 206 206
185 185 185
159 159 159
134 134 134
140 140 140
139 139 139
152 152 152
169 169 169
178 178 178
176 176 176
165 165 165
165 165 165
183 183 183
207 207 207
221 221 221
213 213 213
191 191 191
168 168 168
167 167 167
167 167 167
158 158 158
150 150 150
158 158 158
160 160 160
161 161 161
153 153 153
162 162 162
165 165 165
160 160 160
146 146 146
141 141 141
139 139 139
145 145 145
143 143 143
165 165 165
184 184 184
195 195 195
193 193 193
178 178 178
156 156 156
138 138 138
150 150 150
167 167 167
177 177 177
182 182 182
175 175 175
160 160 160
163 163 163
179 179 179
186 186 186
181 181 181
165 165 165
144 144 144
120 120 120
124 124 124
132 132 132
139 139 139
154 154 154
162 162 162
168 168 168
182 182 182
169 169 169
181 181 181
186 186 186
195 195 195
190 190 190
174 174 174
152 152 152
165 165 165
176 176 176
177 177 177
167 167 167
149 149 149
152 152 152
153 153 153
173 173 173
189 189 189
195 195 195
187 187 187
169 169 169
145 145 145
132 132 132
138 138 138
136 136 136
158 158 158
176 176 176
186 186 186
184 184 184
170 170 170
161 161 161
165 165 165
159 159 159
151 151 151
164 164 164
168 168 168
163 163 163
149 149 149
148 148 148
152 152 152
157 157 157
153 153 153
141 141 141
124 124 124
125 125 125
126 126 126
123 123 123
134 134 134
148 148 148
158 158 158
182 182 182
200 200 200
163 163 163
175 175 175
177 177 177
168 168 168
163 163 163
151 151 151
155 155 155
175 175 175
187 187 187
188 188 188
177 177 177
158 158 158
154 154 154
164 164 164
191 191 191
214 214 214
224 224 224
210 210 210
186 186 186
158 158 158
130 130 130
125 125 125
138 138 138
150 150 150
160 160 160
167 167 167
166 166 166
168 168 168
184 184 184
189 189 189
182 182 182
165 165 165
144 144 144
148 148 148
144 144 144
132 132 132
132 132 132
135 135 135
132 132 132
124 124 124
118 118 118
133 133 133
143 143 143
144 144 144
138 138 138
147 147 147
163 163 163
170 170 170
185 185 185
205 205 205
188 188 188
185 185 185
170 170 170
153 153 153
139 139 139
131 131 131
154 154 154
174 174 174
187 187 187
187 187 187
176 176 176
157 157 157
168 168 168
171 171 171
198 198 198
228 228 228
250 250 250
222 222 222
193 193 193
163 163 163
134 134 134
129 129 129
149 149 149
164 164 164
170 170 170
166 166 166
167 167 167
181 181 181
201 201 201
208 208 208
198 198 198
178 178 178
154 154 154
162 162 162
161 161 161
152 152 152
135 135 135
131 131 131
125 125 125
113 113 113
128 128 128
144 144 144
154 154 154
156 156 156
150 150 150
153 153 153
169 169 169
178 178 178
177 177 177
194 194 194
213 213 213
208 208 208
188 188 188
163 163 163
136 136 136
124 124 124
146 146 146
164 164 164
174 174 174
175 175 175
165 165 165
161 161 161
174 174 174
177 177 177
191 191 191
215 215 215
225 225 225
211 211 211
186 186 186
159 159 159
134 134 134
133 133 133
153 153 153
168 168 168
175 175 175
171 171 171
172 172 172
184 184 184
204 204 204
212 212 212
202 202 202
180 180 180
170 170 170
179 179 179
178 178 178
166 166 166
158 158 158
159 159 159
151 151 151
137 137 137
131 131 131
148 148 148
159 159 159
161 161 161
155 155 155
157 157 157
166 166 166
174 174 174
177 177 177
200 200 200
227 227 227
220 220 220
196 196 196
169 169 169
140 140 140
113 113 113
130 130 130
146 146 146
155 155 155
155 155 155
147 147 147
157 157 157
169 169 169
172 172 172
174 174 174
190 190 190
196 196 196
188 188 188
170 170 170
153 153 153
160 160 160
158 158 158
149 149 149
163 163 163
169 169 169
166 166 166
167 167 167
174 174 174
192 192 192
198 198 198
190 190 190
171 171 171
176 176 176
187 187 187
185 185 185
173 173 173
185 185 185
186 186 186
176 176 176
157 157 157
134 134 134
144 144 144
154 154 154
160 160 160
175 175 175
180 180 180
174 174 174
161 161 161
184 184 184
210 210 210
216 216 216
210 210 210
190 190 190
164 164 164
137 137 137
122 122 122
127 127 127
126 126 126
131 131 131
131 131 131
128 128 128
144 144 144
155 155 155
158 158 158
152 152 152
163 163 163
167 167 167
161 161 161
156 156 156
173 173 173
182 182 182
179 179 179
166 166 166
150 150 150
155 155 155
153 153 153
154 154 154
157 157 157
171 171 171
175 175 175
169 169 169
154 154 154
172 172 172
182 182 182
181 181 181
191 191 191
209 209 209
211 211 211
196 196 196
173 173 173
146 146 146
132 132 132
155 155 155
180 180 180
200 200 200
208 208 208
200 200 200
179 179 179
179 179 179
202 202 202
191 191 191
188 188 188
173 173 173
151 151 151
127 127 127
124 124 124
130 130 130
128 128 128
123 123 123
132 132 132
135 135 135
146 146 146
150 150 150
146 146 146
146 146 146
153 153 153
152 152 152
143 143 143
167 167 167
187 187 187
198 198 198
195 195 195
179 179 179
157 157 157
137 137 137
158 158 158
174 174 174
180 180 180
175 175 175
161 161 161
144 144 144
143 143 143
159 159 159
167 167 167
173 173 173
200 200 200
222 222 222
225 225 225
205 205 205
179 179 179
151 151 151
135 135 135
163 163 163
192 192 192
218 218 218
232 232 232
217 217 217
191 191 191
164 164 164
182 182 182
164 164 164
161 161 161
150 150 150
133 133 133
138 138 138
137 137 137
128 128 128
124 124 124
129 129 129
139 139 139
153 153 153
166 166 166
171 171 171
166 166 166
153 153 153
152 152 152
150 150 150
144 144 144
169 169 169
189 189 189
200 200 200
197 197 197
181 181 181
166 166 166
153 153 153
178 178 178
199 199 199
209 209 209
202 202 202
182 182 182
158 158 158
142 142 142
139 139 139
146 146 146
169 169 169
193 193 193
212 212 212
214 214 214
198 198 198
174 174 174
148 148 148
134 134 134
163 163 163
191 191 191
216 216 216
230 230 230
216 216 216
191 191 191
163 163 163
157 157 157
135 135 135
133 133 133
125 125 125
138 138 138
144 144 144
143 143 143
134 134 134
135 135 135
137 137 137
143 143 143
164 164 164
180 180 180
186 186 186
180 180 180
165 165 165
161 161 161
170 170 170
170 170 170
161 161 161
179 179 179
189 189 189
186 186 186
182 182 182
170 170 170
162 162 162
191 191 191
219 219 219
238 238 238
223 223 223
196 196 196
167 167 167
161 161 161
157 157 157
149 149 149
170 170 170
192 192 192
205 205 205
203 203 203
187 187 187
164 164 164
139 139 139
149 149 149
154 154 154
178 178 178
197 197 197
205 205 205
197 197 197
178 178 178
154 154 154
146 146 146
106 106 106
116 116 116
134 134 134
146 146 146
151 151 151
147 147 147
137 137 137
141 141 141
144 144 144
145 145 145
167 167 167
184 184 184
190 190 190
184 184 184
168 168 168
183 183 183
196 196 196
195 195 195
181 181 181
160 160 160
168 168 168
177 177 177
176 176 176
165 165 165
162 162 162
191 191 191
219 219 219
239 239 239
224 224 224
196 196 196
168 168 168
174 174 174
170 170 170
156 156 156
181 181 181
208 208 208
228 228 228
225 225 225
201 201 201
174 174 174
153 153 153
165 165 165
167 167 167
161 161 161
172 172 172
177 177 177
172 172 172
177 177 177
177 177 177
167 167 167
109 109 109
132 132 132
152 152 152
166 166 166
172 172 172
168 168 168
155 155 155
140 140 140
142 142 142
140 140 140
161 161 161
176 176 176
182 182 182
176 176 176
173 173 173
198 198 198
215 215 215
213 213 213
195 195 195
170 170 170
156 156 156
161 161 161
161 161 161
151 151 151
154 154 154
179 179 179
200 200 200
211 211 211
203 203 203
183 183 183
171 171 171
177 177 177
172 172 172
159 159 159
181 181 181
208 208 208
229 229 229
225 225 225
201 201 201
174 174 174
160 160 160
173 173 173
176 176 176
176 176 176
191 191 191
195 195 195
185 185 185
194 194 194
194 194 194
182 182 182
117 117 117
142 142 142
164 164 164
181 181 181
188 188 188
183 183 183
168 168 168
146 146 146
134 134 134
143 143 143
149 149 149
159 159 159
164 164 164
159 159 159
174 174 174
199 199 199
216 216 216
215 215 215
196 196 196
171 171 171
178 178 178
185 185 185
179 179 179
164 164 164
168 168 168
175 175 175
175 175 175
181 181 181
177 177 177
162 162 162
167 167 167
169 169 169
165 165 165
155 155 155
170 170 170
192 192 192
206 206 206
203 203 203
187 187 187
164 164 164
158 158 158
171 171 171
174 174 174
193 193 193
214 214 214
220 220 220
205 205 205
200 200 200
200 200 200
186 186 186
121 121 121
144 144 144
167 167 167
185 185 185
192 192 192
187 187 187
171 171 171
149 149 149
142 142 142
156 156 156
163 163 163
161 161 161
154 154 154
143 143 143
165 165 165
186 186 186
199 199 199
199 199 199
190 190 190
176 176 176
195 195 195
203 203 203
196 196 196
189 189 189
196 196 196
190 190 190
179 179 179
168 168 168
166 166 166
184 184 184
193 193 193
188 188 188
172 172 172
175 175 175
183 183 183
179 179 179
178 178 178
177 177 177
165 165 165
157 157 157
159 159 159
159 159 159
171 171 171
199 199 199
224 224 224
233 233 233
213 213 213
190 190 190
199 199 199
212 212 212
