P3
50 50
255
158 158 158
167 167 167
167 167 167
157 157 157
149 149 149
153 153 153
150 150 150
138 138 138
143 143 143
166 166 166
184 184 184
193 193 193
188 188 188
173 173 173
151 151 151
165 165 165
182 182 182
190 190 190
186 186 186
170 170 170
149 149 149
149 149 149
173 173 173
192 192 192
201 201 201
194 194 194
176 176 176
153 153 153
161 161 161
178 178 178
185 185 185
181 181 181
184 184 184
209 209 209
224 224 224
215 215 215
192 192 192
166 166 166
176 176 176
191 191 191
195 195 195
185 185 185
170 170 170
166 166 166
153 153 153
134 134 134
151 151 151
177 177 177
200 200 200
214 214 214
180 180 180
192 192 192
191 191 191
178 178 178
174 174 174
180 180 180
175 175 175
161 161 161
156 156 156
183 183 183
207 207 207
222 222 222
214 214 214
191 191 191
165 165 165
167 167 167
185 185 185
194 194 194
189 189 189
173 173 173
151 151 151
153 153 153
177 177 177
198 198 198
207 207 207
199 199 199
180 180 180
156 156 156
163 163 163
180 180 180
188 188 188
183 183 183
185 185 185
211 211 211
227 227 227
218 218 218
194 194 194
167 167 167
194 194 194
217 217 217
224 224 224
208 208 208
183 183 183
169 169 169
155 155 155
136 136 136
150 150 150
176 176 176
199 199 199
212 212 212
194 194 194
210 210 210
210 210 210
193 193 193
195 195 195
204 204 204
197 197 197
178 178 178
161 161 161
190 190 190
219 219 219
245 245 245
228 228 228
200 200 200
171 171 171
171 171 171
183 183 183
184 184 184
180 180 180
165 165 165
145 145 145
147 147 147
171 171 171
189 189 189
197 197 197
190 190 190
173 173 173
162 162 162
156 156 156
171 171 171
178 178 178
174 174 174
175 175 175
196 196 196
207 207 207
201 201 201
182 182 182
172 172 172
202 202 202
231 231 231
245 245 245
218 218 218
189 189 189
162 162 162
150 150 150
131 131 131
141 141 141
165 165 165
184 184 184
194 194 194
197 197 197
213 213 213
213 213 213
195 195 195
207 207 207
218 218 218
209 209 209
187 187 187
161 161 161
185 185 185
210 210 210
225 225 225
217 217 217
193 193 193
166 166 166
182 182 182
196 196 196
197 197 197
184 184 184
163 163 163
139 139 139
135 135 135
155 155 155
170 170 170
176 176 176
172 172 172
186 186 186
187 187 187
177 177 177
159 159 159
160 160 160
156 156 156
157 157 157
173 173 173
180 180 180
176 176 176
162 162 162
167 167 167
194 194 194
216 216 216
223 223 223
207 207 207
182 182 182
155 155 155
137 137 137
129 129 129
132 132 132
146 146 146
161 161 161
172 172 172
185 185 185
198 198 198
198 198 198
184 184 184
202 202 202
212 212 212
204 204 204
183 183 183
158 158 158
169 169 169
188 188 188
197 197 197
192 192 192
175 175 175
160 160 160
181 181 181
195 195 195
196 196 196
184 184 184
163 163 163
138 138 138
147 147 147
152 152 152
148 148 148
168 168 168
194 194 194
213 213 213
216 216 216
200 200 200
176 176 176
149 149 149
134 134 134
134 134 134
146 146 146
152 152 152
149 149 149
138 138 138
153 153 153
175 175 175
191 191 191
195 195 195
185 185 185
166 166 166
143 143 143
152 152 152
156 156 156
152 152 152
140 140 140
139 139 139
164 164 164
165 165 165
175 175 175
174 174 174
176 176 176
184 184 184
191 191 191
185 185 185
169 169 169
147 147 147
147 147 147
161 161 161
168 168 168
164 164 164
152 152 152
151 151 151
170 170 170
181 181 181
182 182 182
172 172 172
153 153 153
158 158 158
173 173 173
179 179 179
174 174 174
176 176 176
205 205 205
234 234 234
242 242 242
214 214 214
185 185 185
155 155 155
126 126 126
127 127 127
144 144 144
155 155 155
158 158 158
152 152 152
145 145 145
167 167 167
182 182 182
187 187 187
180 180 180
164 164 164
161 161 161
176 176 176
181 181 181
176 176 176
161 161 161
140 140 140
148 148 148
140 140 140
151 151 151
177 177 177
200 200 200
212 212 212
207 207 207
187 187 187
175 175 175
163 163 163
145 145 145
162 162 162
178 178 178
184 184 184
179 179 179
164 164 164
172 172 172
184 184 184
186 186 186
175 175 175
156 156 156
175 175 175
194 194 194
203 203 203
196 196 196
177 177 177
201 201 201
225 225 225
230 230 230
209 209 209
182 182 182
153 153 153
130 130 130
147 147 147
168 168 168
183 183 183
187 187 187
179 179 179
162 162 162
166 166 166
182 182 182
187 187 187
180 180 180
163 163 163
176 176 176
195 195 195
202 202 202
195 195 195
176 176 176
153 153 153
133 133 133
129 129 129
159 159 159
187 187 187
215 215 215
236 236 236
226 226 226
206 206 206
203 203 203
186 186 186
162 162 162
181 181 181
202 202 202
212 212 212
204 204 204
183 183 183
189 189 189
205 205 205
207 207 207
193 193 193
170 170 170
184 184 184
207 207 207
218 218 218
208 208 208
186 186 186
184 184 184
200 200 200
202 202 202
189 189 189
168 168 168
144 144 144
136 136 136
163 163 163
188 188 188
209 209 209
216 216 216
203 203 203
180 180 180
157 157 157
170 170 170
175 175 175
169 169 169
157 157 157
182 182 182
203 203 203
212 212 212
203 203 203
193 193 193
175 175 175
151 151 151
128 128 128
157 157 157
185 185 185
212 212 212
230 230 230
221 221 221
232 232 232
226 226 226
201 201 201
173 173 173
191 191 191
218 218 218
235 235 235
220 220 220
194 194 194
195 195 195
214 214 214
216 216 216
199 199 199
175 175 175
181 181 181
203 203 203
213 213 213
204 204 204
184 184 184
160 160 160
171 171 171
173 173 173
164 164 164
148 148 148
143 143 143
141 141 141
170 170 170
199 199 199
228 228 228
242 242 242
218 218 218
190 190 190
161 161 161
151 151 151
155 155 155
150 150 150
152 152 152
176 176 176
195 195 195
216 216 216
230 230 230
216 216 216
191 191 191
163 163 163
121 121 121
147 147 147
172 172 172
193 193 193
203 203 203
212 212 212
234 234 234
228 228 228
202 202 202
182 182 182
188 188 188
214 214 214
228 228 228
216 216 216
191 191 191
187 187 187
203 203 203
204 204 204
191 191 191
169 169 169
168 168 168
185 185 185
192 192 192
186 186 186
170 170 170
176 176 176
173 173 173
160 160 160
140 140 140
135 135 135
134 134 134
139 139 139
168 168 168
196 196 196
221 221 221
231 231 231
213 213 213
187 187 187
158 158 158
149 149 149
165 165 165
173 173 173
171 171 171
166 166 166
195 195 195
224 224 224
246 246 246
224 224 224
195 195 195
166 166 166
129 129 129
137 137 137
152 152 152
167 167 167
175 175 175
196 196 196
209 209 209
206 206 206
208 208 208
198 198 198
177 177 177
193 193 193
202 202 202
195 195 195
176 176 176
169 169 169
181 181 181
182 182 182
172 172 172
172 172 172
176 176 176
169 169 169
167 167 167
174 174 174
195 195 195
205 205 205
200 200 200
182 182 182
158 158 158
132 132 132
119 119 119
130 130 130
156 156 156
180 180 180
197 197 197
203 203 203
192 192 192
172 172 172
148 148 148
168 168 168
189 189 189
200 200 200
197 197 197
181 181 181
185 185 185
208 208 208
219 219 219
208 208 208
186 186 186
159 159 159
156 156 156
165 165 165
166 166 166
157 157 157
155 155 155
172 172 172
185 185 185
205 205 205
212 212 212
200 200 200
178 178 178
192 192 192
195 195 195
185 185 185
166 166 166
146 146 146
155 155 155
156 156 156
175 175 175
191 191 191
196 196 196
187 187 187
168 168 168
188 188 188
215 215 215
234 234 234
224 224 224
197 197 197
169 169 169
140 140 140
111 111 111
116 116 116
138 138 138
157 157 157
170 170 170
174 174 174
167 167 167
152 152 152
153 153 153
181 181 181
206 206 206
223 223 223
218 218 218
196 196 196
180 180 180
204 204 204
219 219 219
214 214 214
193 193 193
167 167 167
179 179 179
193 193 193
194 194 194
181 181 181
161 161 161
162 162 162
179 179 179
192 192 192
197 197 197
188 188 188
169 169 169
179 179 179
182 182 182
174 174 174
166 166 166
153 153 153
137 137 137
157 157 157
181 181 181
199 199 199
205 205 205
194 194 194
174 174 174
190 190 190
218 218 218
243 243 243
228 228 228
200 200 200
171 171 171
142 142 142
112 112 112
114 114 114
136 136 136
153 153 153
164 164 164
167 167 167
159 159 159
165 165 165
177 177 177
182 182 182
209 209 209
227 227 227
221 221 221
198 198 198
177 177 177
200 200 200
214 214 214
209 209 209
190 190 190
165 165 165
198 198 198
217 217 217
219 219 219
200 200 200
175 175 175
157 157 157
173 173 173
182 182 182
180 180 180
168 168 168
152 152 152
163 163 163
180 180 180
187 187 187
182 182 182
167 167 167
145 145 145
153 153 153
176 176 176
193 193 193
198 198 198
188 188 188
182 182 182
179 179 179
202 202 202
215 215 215
208 208 208
188 188 188
162 162 162
135 135 135
112 112 112
129 129 129
154 154 154
175 175 175
190 190 190
193 193 193
183 183 183
187 187 187
204 204 204
208 208 208
195 195 195
207 207 207
204 204 204
186 186 186
165 165 165
184 184 184
194 194 194
190 190 190
175 175 175
172 172 172
205 205 205
229 229 229
230 230 230
207 207 207
180 180 180
170 170 170
193 193 193
206 206 206
204 204 204
187 187 187
164 164 164
168 168 168
185 185 185
193 193 193
188 188 188
172 172 172
149 149 149
149 149 149
162 162 162
175 175 175
179 179 179
193 193 193
199 199 199
190 190 190
177 177 177
185 185 185
181 181 181
167 167 167
146 146 146
127 127 127
118 118 118
138 138 138
166 166 166
191 191 191
211 211 211
216 216 216
201 201 201
200 200 200
226 226 226
233 233 233
212 212 212
184 184 184
178 178 178
166 166 166
157 157 157
174 174 174
192 192 192
201 201 201
194 194 194
177 177 177
195 195 195
213 213 213
214 214 214
197 197 197
179 179 179
178 178 178
203 203 203
221 221 221
218 218 218
197 197 197
171 171 171
163 163 163
179 179 179
186 186 186
181 181 181
166 166 166
153 153 153
174 174 174
188 188 188
190 190 190
180 180 180
197 197 197
203 203 203
193 193 193
174 174 174
156 156 156
153 153 153
146 146 146
144 144 144
142 142 142
131 131 131
140 140 140
168 168 168
195 195 195
217 217 217
223 223 223
206 206 206
200 200 200
225 225 225
232 232 232
211 211 211
184 184 184
162 162 162
179 179 179
186 186 186
183 183 183
205 205 205
216 216 216
207 207 207
185 185 185
175 175 175
188 188 188
188 188 188
195 195 195
207 207 207
202 202 202
198 198 198
214 214 214
211 211 211
193 193 193
168 168 168
149 149 149
163 163 163
169 169 169
165 165 165
152 152 152
168 168 168
194 194 194
215 215 215
219 219 219
203 203 203
187 187 187
192 192 192
184 184 184
166 166 166
143 143 143
145 145 145
149 149 149
153 153 153
150 150 150
151 151 151
145 145 145
162 162 162
185 185 185
203 203 203
207 207 207
195 195 195
186 186 186
203 203 203
207 207 207
194 194 194
173 173 173
181 181 181
203 203 203
214 214 214
207 207 207
202 202 202
212 212 212
204 204 204
183 183 183
151 151 151
160 160 160
185 185 185
212 212 212
231 231 231
222 222 222
197 197 197
192 192 192
190 190 190
177 177 177
156 156 156
135 135 135
147 147 147
151 151 151
148 148 148
146 146 146
175 175 175
205 205 205
234 234 234
244 244 244
215 215 215
186 186 186
171 171 171
165 165 165
150 150 150
130 130 130
140 140 140
149 149 149
166 166 166
177 177 177
178 178 178
172 172 172
168 168 168
167 167 167
180 180 180
182 182 182
174 174 174
177 177 177
194 194 194
199 199 199
189 189 189
170 170 170
190 190 190
218 218 218
238 238 238
223 223 223
196 196 196
192 192 192
186 186 186
177 177 177
128 128 128
157 157 157
185 185 185
211 211 211
230 230 230
221 221 221
197 197 197
175 175 175
164 164 164
154 154 154
137 137 137
147 147 147
161 161 161
166 166 166
162 162 162
149 149 149
172 172 172
199 199 199
223 223 223
228 228 228
209 209 209
195 195 195
197 197 197
186 186 186
165 165 165
141 141 141
138 138 138
164 164 164
186 186 186
201 201 201
202 202 202
195 195 195
190 190 190
174 174 174
159 159 159
173 173 173
177 177 177
171 171 171
178 178 178
182 182 182
174 174 174
159 159 159
187 187 187
213 213 213
228 228 228
217 217 217
193 193 193
182 182 182
185 185 185
176 176 176
121 121 121
148 148 148
173 173 173
194 194 194
205 205 205
201 201 201
186 186 186
172 172 172
152 152 152
144 144 144
134 134 134
152 152 152
167 167 167
172 172 172
168 168 168
154 154 154
159 159 159
181 181 181
197 197 197
200 200 200
194 194 194
214 214 214
218 218 218
202 202 202
177 177 177
153 153 153
144 144 144
172 172 172
197 197 197
216 216 216
217 217 217
211 211 211
204 204 204
185 185 185
165 165 165
180 180 180
185 185 185
178 178 178
174 174 174
180 180 180
175 175 175
161 161 161
173 173 173
192 192 192
201 201 201
201 201 201
200 200 200
185 185 185
173 173 173
165 165 165
109 109 109
133 133 133
154 154 154
170 170 170
181 181 181
184 184 184
175 175 175
164 164 164
170 170 170
166 166 166
154 154 154
149 149 149
163 163 163
168 168 168
169 169 169
169 169 169
158 158 158
176 176 176
193 193 193
198 198 198
196 196 196
217 217 217
230 230 230
218 218 218
193 193 193
165 165 165
158 158 158
170 170 170
194 194 194
211 211 211
212 212 212
210 210 210
203 203 203
184 184 184
167 167 167
175 175 175
180 180 180
176 176 176
195 195 195
204 204 204
197 197 197
178 178 178
156 156 156
178 178 178
205 205 205
225 225 225
223 223 223
202 202 202
175 175 175
147 147 147
114 114 114
133 133 133
158 158 158
181 181 181
198 198 198
202 202 202
190 190 190
180 180 180
188 188 188
183 183 183
168 168 168
147 147 147
159 159 159
178 178 178
190 190 190
188 188 188
176 176 176
184 184 184
203 203 203
209 209 209
198 198 198
222 222 222
249 249 249
227 227 227
198 198 198
174 174 174
173 173 173
163 163 163
179 179 179
192 192 192
192 192 192
192 192 192
188 188 188
186 186 186
191 191 191
183 183 183
165 165 165
184 184 184
207 207 207
219 219 219
209 209 209
187 187 187
179 179 179
180 180 180
207 207 207
230 230 230
228 228 228
204 204 204
176 176 176
148 148 148
125 125 125
140 140 140
161 161 161
184 184 184
202 202 202
206 206 206
194 194 194
187 187 187
196 196 196
190 190 190
174 174 174
151 151 151
166 166 166
187 187 187
200 200 200
199 199 199
184 184 184
180 180 180
198 198 198
203 203 203
193 193 193
207 207 207
220 220 220
210 210 210
188 188 188
180 180 180
180 180 180
169 169 169
165 165 165
166 166 166
167 167 167
168 168 168
183 183 183
203 203 203
209 209 209
199 199 199
177 177 177
181 181 181
202 202 202
213 213 213
204 204 204
185 185 185
195 195 195
190 190 190
193 193 193
209 209 209
208 208 208
191 191 191
167 167 167
164 164 164
147 147 147
164 164 164
173 173 173
176 176 176
191 191 191
194 194 194
184 184 184
181 181 181
189 189 189
184 184 184
169 169 169
148 148 148
163 163 163
184 184 184
196 196 196
195 195 195
181 181 181
166 166 166
180 180 180
184 184 184
176 176 176
183 183 183
190 190 190
185 185 185
169 169 169
175 175 175
185 185 185
195 195 195
192 192 192
177 177 177
155 155 155
160 160 160
185 185 185
205 205 205
212 212 212
201 201 201
179 179 179
167 167 167
184 184 184
191 191 191
185 185 185
189 189 189
199 199 199
194 194 194
178 178 178
182 182 182
181 181 181
169 169 169
171 171 171
177 177 177
165 165 165
186 186 186
199 199 199
198 198 198
183 183 183
173 173 173
165 165 165
166 166 166
172 172 172
168 168 168
155 155 155
147 147 147
154 154 154
170 170 170
180 180 180
179 179 179
167 167 167
149 149 149
156 156 156
159 159 159
160 160 160
158 158 158
161 161 161
157 157 157
153 153 153
181 181 181
205 205 205
221 221 221
215 215 215
194 194 194
167 167 167
152 152 152
175 175 175
192 192 192
197 197 197
188 188 188
169 169 169
172 172 172
184 184 184
184 184 184
173 173 173
180 180 180
188 188 188
185 185 185
174 174 174
161 161 161
153 153 153
159 159 159
174 174 174
180 180 180
175 175 175
200 200 200
218 218 218
216 216 216
196 196 196
171 171 171
144 144 144
144 144 144
151 151 151
157 157 157
154 154 154
156 156 156
165 165 165
164 164 164
159 159 159
156 156 156
147 147 147
151 151 151
153 153 153
169 169 169
177 177 177
175 175 175
163 163 163
144 144 144
157 157 157
185 185 185
213 213 213
233 233 233
225 225 225
200 200 200
171 171 171
143 143 143
157 157 157
170 170 170
174 174 174
167 167 167
166 166 166
189 189 189
204 204 204
205 205 205
190 190 190
168 168 168
169 169 169
173 173 173
169 169 169
156 156 156
161 161 161
181 181 181
193 193 193
192 192 192
176 176 176
200 200 200
218 218 218
216 216 216
196 196 196
171 171 171
161 161 161
162 162 162
179 179 179
186 186 186
182 182 182
167 167 167
166 166 166
165 165 165
172 172 172
168 168 168
164 164 164
174 174 174
173 173 173
176 176 176
185 185 185
183 183 183
169 169 169
149 149 149
151 151 151
178 178 178
201 201 201
216 216 216
210 210 210
191 191 191
165 165 165
139 139 139
138 138 138
144 144 144
147 147 147
143 143 143
170 170 170
195 195 195
213 213 213
213 213 213
197 197 197
172 172 172
160 160 160
158 158 158
155 155 155
147 147 147
174 174 174
198 198 198
215 215 215
213 213 213
165 165 165
186 186 186
199 199 199
198 198 198
183 183 183
183 183 183
171 171 171
181 181 181
203 203 203
216 216 216
208 208 208
187 187 187
162 162 162
168 168 168
175 175 175
171 171 171
179 179 179
190 190 190
189 189 189
176 176 176
182 182 182
179 179 179
166 166 166
146 146 146
153 153 153
167 167 167
179 179 179
189 189 189
186 186 186
171 171 171
156 156 156
164 164 164
163 163 163
153 153 153
136 136 136
139 139 139
165 165 165
187 187 187
202 202 202
203 203 203
192 192 192
190 190 190
177 177 177
156 156 156
135 135 135
149 149 149
177 177 177
203 203 203
222 222 222
220 220 220
148 148 148
165 165 165
174 174 174
173 173 173
183 183 183
183 183 183
172 172 172
191 191 191
220 220 220
244 244 244
227 227 227
199 199 199
170 170 170
162 162 162
168 168 168
164 164 164
183 183 183
195 195 195
194 194 194
180 180 180
167 167 167
165 165 165
154 154 154
145 145 145
167 167 167
183 183 183
190 190 190
183 183 183
173 173 173
175 175 175
176 176 176
187 187 187
185 185 185
172 172 172
152 152 152
129 129 129
151 151 151
170 170 170
181 181 181
188 188 188
202 202 202
200 200 200
185 185 185
162 162 162
154 154 154
162 162 162
169 169 169
192 192 192
207 207 207
205 205 205
126 126 126
139 139 139
146 146 146
162 162 162
172 172 172
172 172 172
162 162 162
188 188 188
215 215 215
233 233 233
222 222 222
196 196 196
168 168 168
147 147 147
152 152 152
163 163 163
176 176 176
187 187 187
186 186 186
173 173 173
153 153 153
145 145 145
135 135 135
149 149 149
172 172 172
190 190 190
197 197 197
190 190 190
201 201 201
204 204 204
192 192 192
202 202 202
200 200 200
184 184 184
162 162 162
149 149 149
131 131 131
147 147 147
164 164 164
184 184 184
196 196 196
195 195 195
181 181 181
185 185 185
183 183 183
174 174 174
177 177 177
172 172 172
182 182 182
181 181 181
116 116 116
127 127 127
133 133 133
145 145 145
153 153 153
153 153 153
149 149 149
174 174 174
194 194 194
204 204 204
199 199 199
180 180 180
157 157 157
140 140 140
165 165 165
187 187 187
201 201 201
201 201 201
186 186 186
164 164 164
157 157 157
151 151 151
137 137 137
145 145 145
167 167 167
184 184 184
190 190 190
201 201 201
226 226 226
232 232 232
211 211 211
202 202 202
200 200 200
185 185 185
180 180 180
165 165 165
144 144 144
140 140 140
152 152 152
169 169 169
179 179 179
178 178 178
198 198 198
214 214 214
210 210 210
192 192 192
179 179 179
172 172 172
155 155 155
154 154 154
120 120 120
132 132 132
149 149 149
163 163 163
168 168 168
164 164 164
151 151 151
154 154 154
168 168 168
175 175 175
171 171 171
158 158 158
139 139 139
149 149 149
178 178 178
205 205 205
227 227 227
226 226 226
204 204 204
176 176 176
157 157 157
151 151 151
142 142 142
134 134 134
154 154 154
167 167 167
175 175 175
204 204 204
232 232 232
241 241 241
215 215 215
188 188 188
187 187 187
194 194 194
188 188 188
172 172 172
153 153 153
167 167 167
172 172 172
168 168 168
156 156 156
184 184 184
213 213 213
239 239 239
232 232 232
204 204 204
176 176 176
164 164 164
159 159 159
149 149 149
127 127 127
147 147 147
170 170 170
188 188 188
195 195 195
189 189 189
172 172 172
180 180 180
181 181 181
170 170 170
155 155 155
164 164 164
164 164 164
155 155 155
180 180 180
209 209 209
234 234 234
233 233 233
207 207 207
179 179 179
169 169 169
168 168 168
158 158 158
141 141 141
134 134 134
145 145 145
166 166 166
191 191 191
211 211 211
215 215 215
200 200 200
179 179 179
191 191 191
190 190 190
185 185 185
169 169 169
173 173 173
192 192 192
200 200 200
194 194 194
176 176 176
182 182 182
210 210 210
231 231 231
226 226 226
202 202 202
176 176 176
186 186 186
184 184 184
171 171 171
143 143 143
166 166 166
184 184 184
207 207 207
219 219 219
209 209 209
187 187 187
203 203 203
203 203 203
189 189 189
173 173 173
185 185 185
185 185 185
173 173 173
171 171 171
195 195 195
212 212 212
212 212 212
194 194 194
170 170 170
178 178 178
177 177 177
166 166 166
147 147 147
159 159 159
166 166 166
164 164 164
170 170 170
183 183 183
186 186 186
176 176 176
199 199 199
217 217 217
215 215 215
196 196 196
171 171 171
187 187 187
212 212 212
225 225 225
214 214 214
190 190 190
169 169 169
191 191 191
204 204 204
201 201 201
185 185 185
193 193 193
206 206 206
204 204 204
187 187 187
156 156 156
183 183 183
207 207 207
221 221 221
226 226 226
215 215 215
196 196 196
214 214 214
215 215 215
198 198 198
184 184 184
197 197 197
197 197 197
184 184 184
167 167 167
173 173 173
184 184 184
184 184 184
172 172 172
167 167 167
176 176 176
175 175 175
164 164 164
163 163 163
182 182 182
193 193 193
190 190 190
176 176 176
155 155 155
156 156 156
180 180 180
208 208 208
231 231 231
228 228 228
204 204 204
176 176 176
190 190 190
216 216 216
231 231 231
218 218 218
193 193 193
165 165 165
166 166 166
175 175 175
173 173 173
175 175 175
198 198 198
214 214 214
211 211 211
192 192 192
161 161 161
190 190 190
219 219 219
243 243 243
228 228 228
201 201 201
191 191 191
207 207 207
208 208 208
193 193 193
183 183 183
196 196 196
196 196 196
188 188 188
178 178 178
160 160 160
156 156 156
155 155 155
147 147 147
156 156 156
165 165 165
164 164 164
154 154 154
177 177 177
201 201 201
216 216 216
212 212 212
192 192 192
167 167 167
148 148 148
175 175 175
200 200 200
217 217 217
215 215 215
203 203 203
182 182 182
186 186 186
201 201 201
210 210 210
202 202 202
182 182 182
157 157 157
139 139 139
146 146 146
145 145 145
168 168 168
190 190 190
203 203 203
200 200 200
185 185 185
157 157 157
184 184 184
209 209 209
225 225 225
216 216 216
193 193 193
174 174 174
186 186 186
187 187 187
176 176 176
171 171 171
182 182 182
188 188 188
190 190 190
179 179 179
160 160 160
160 160 160
154 154 154
141 141 141
139 139 139
146 146 146
145 145 145
153 153 153
180 180 180
206 206 206
224 224 224
219 219 219
197 197 197
170 170 170
142 142 142
160 160 160
181 181 181
201 201 201
209 209 209
199 199 199
179 179 179
184 184 184
191 191 191
185 185 185
178 178 178
163 163 163
142 142 142
120 120 120
121 121 121
131 131 131
153 153 153
171 171 171
180 180 180
179 179 179
195 195 195
145 145 145
169 169 169
187 187 187
197 197 197
192 192 192
175 175 175
161 161 161
183 183 183
197 197 197
198 198 198
185 185 185
165 165 165
177 177 177
179 179 179
170 170 170
182 182 182
187 187 187
179 179 179
163 163 163
141 141 141
123 123 123
123 123 123
147 147 147
173 173 173
195 195 195
208 208 208
205 205 205
187 187 187
163 163 163
148 148 148
146 146 146
168 168 168
184 184 184
189 189 189
183 183 183
166 166 166
171 171 171
177 177 177
172 172 172
158 158 158
139 139 139
135 135 135
144 144 144
146 146 146
140 140 140
133 133 133
147 147 147
167 167 167
194 194 194
218 218 218
149 149 149
148 148 148
161 161 161
168 168 168
164 164 164
152 152 152
171 171 171
196 196 196
214 214 214
216 216 216
198 198 198
174 174 174
174 174 174
178 178 178
183 183 183
203 203 203
210 210 210
200 200 200
178 178 178
153 153 153
126 126 126
135 135 135
155 155 155
171 171 171
178 178 178
184 184 184
181 181 181
168 168 168
163 163 163
167 167 167
162 162 162
148 148 148
160 160 160
164 164 164
159 159 159
146 146 146
151 151 151
156 156 156
152 152 152
140 140 140
137 137 137
154 154 154
166 166 166
168 168 168
160 160 160
145 145 145
141 141 141
170 170 170
199 199 199
226 226 226
172 172 172
169 169 169
157 157 157
139 139 139
136 136 136
143 143 143
170 170 170
195 195 195
213 213 213
214 214 214
198 198 198
177 177 177
193 193 193
198 198 198
190 190 190
213 213 213
222 222 222
209 209 209
185 185 185
158 158 158
130 130 130
146 146 146
169 169 169
188 188 188
197 197 197
192 192 192
193 193 193
182 182 182
176 176 176
180 180 180
174 174 174
159 159 159
171 171 171
181 181 181
179 179 179
168 168 168
149 149 149
131 131 131
128 128 128
124 124 124
148 148 148
168 168 168
181 181 181
184 184 184
175 175 175
158 158 158
146 146 146
163 163 163
188 188 188
209 209 209
190 190 190
187 187 187
172 172 172
151 151 151
126 126 126
135 135 135
160 160 160
181 181 181
195 195 195
196 196 196
183 183 183
183 183 183
201 201 201
206 206 206
195 195 195
204 204 204
211 211 211
200 200 200
179 179 179
153 153 153
144 144 144
150 150 150
174 174 174
194 194 194
204 204 204
199 199 199
201 201 201
188 188 188
178 178 178
183 183 183
176 176 176
168 168 168
190 190 190
203 203 203
202 202 202
186 186 186
163 163 163
147 147 147
140 140 140
127 127 127
152 152 152
173 173 173
187 187 187
190 190 190
180 180 180
167 167 167
170 170 170
164 164 164
169 169 169
184 184 184
198 198 198
194 194 194
178 178 178
156 156 156
130 130 130
121 121 121
143 143 143
160 160 160
170 170 170
171 171 171
162 162 162
178 178 178
194 194 194
199 199 199
189 189 189
183 183 183
188 188 188
180 180 180
164 164 164
164 164 164
172 172 172
170 170 170
169 169 169
187 187 187
196 196 196
192 192 192
194 194 194
182 182 182
169 169 169
174 174 174
168 168 168
175 175 175
199 199 199
216 216 216
213 213 213
194 194 194
169 169 169
170 170 170
162 162 162
145 145 145
147 147 147
167 167 167
180 180 180
183 183 183
174 174 174
186 186 186
191 191 191
183 183 183
168 168 168
188 188 188
192 192 192
188 188 188
173 173 173
152 152 152
127 127 127
115 115 115
121 121 121
135 135 135
143 143 143
144 144 144
145 145 145
163 163 163
176 176 176
179 179 179
171 171 171
157 157 157
161 161 161
161 161 161
168 168 168
188 188 188
199 199 199
196 196 196
180 180 180
170 170 170
176 176 176
174 174 174
175 175 175
166 166 166
153 153 153
156 156 156
152 152 152
171 171 171
194 194 194
208 208 208
206 206 206
189 189 189
187 187 187
188 188 188
178 178 178
159 159 159
135 135 135
153 153 153
164 164 164
168 168 168
184 184 184
196 196 196
202 202 202
192 192 192
173 173 173
183 183 183
174 174 174
171 171 171
159 159 159
140 140 140
121 121 121
124 124 124
121 121 121
129 129 129
147 147 147
158 158 158
161 161 161
160 160 160
165 165 165
160 160 160
149 149 149
136 136 136
152 152 152
166 166 166
181 181 181
206 206 206
223 223 223
217 217 217
195 195 195
169 169 169
152 152 152
152 152 152
167 167 167
173 173 173
169 169 169
155 155 155
136 136 136
158 158 158
177 177 177
187 187 187
186 186 186
181 181 181
195 195 195
197 197 197
185 185 185
164 164 164
140 140 140
133 133 133
153 153 153
178 178 178
197 197 197
205 205 205
198 198 198
189 189 189
170 170 170
167 167 167
151 151 151
149 149 149
139 139 139
123 123 123
123 123 123
127 127 127
136 136 136
146 146 146
155 155 155
167 167 167
171 171 171
185 185 185
191 191 191
185 185 185
168 168 168
146 146 146
148 148 148
162 162 162
183 183 183
209 209 209
228 228 228
222 222 222
198 198 198
171 171 171
148 148 148
171 171 171
190 190 190
198 198 198
192 192 192
175 175 175
152 152 152
138 138 138
156 156 156
169 169 169
173 173 173
176 176 176
189 189 189
191 191 191
180 180 180
160 160 160
137 137 137
127 127 127
153 153 153
177 177 177
196 196 196
204 204 204
196 196 196
177 177 177
158 158 158
145 145 145
126 126 126
124 124 124
122 122 122
133 133 133
137 137 137
134 134 134
150 150 150
161 161 161
164 164 164
167 167 167
182 182 182
203 203 203
213 213 213
204 204 204
182 182 182
167 167 167
177 177 177
177 177 177
173 173 173
196 196 196
208 208 208
204 204 204
187 187 187
162 162 162
156 156 156
183 183 183
205 205 205
217 217 217
209 209 209
187 187 187
161 161 161
143 143 143
163 163 163
177 177 177
181 181 181
193 193 193
207 207 207
205 205 205
188 188 188
165 165 165
138 138 138
125 125 125
144 144 144
166 166 166
182 182 182
189 189 189
182 182 182
166 166 166
166 166 166
157 157 157
104 104 104
127 127 127
146 146 146
159 159 159
165 165 165
161 161 161
157 157 157
170 170 170
173 173 173
166 166 166
186 186 186
209 209 209
220 220 220
209 209 209
186 186 186
191 191 191
206 206 206
205 205 205
189 189 189
173 173 173
182 182 182
179 179 179
166 166 166
147 147 147
156 156 156
183 183 183
206 206 206
218 218 218
209 209 209
187 187 187
161 161 161
145 145 145
161 161 161
175 175 175
182 182 182
210 210 210
233 233 233
228 228 228
203 203 203
175 175 175
146 146 146
138 138 138
140 140 140
148 148 148
161 161 161
166 166 166
180 180 180
193 193 193
193 193 193
181 181 181
118 118 118
144 144 144
166 166 166
184 184 184
192 192 192
186 186 186
170 170 170
168 168 168
171 171 171
164 164 164
178 178 178
197 197 197
205 205 205
197 197 197
180 180 180
208 208 208
233 233 233
230 230 230
205 205 205
177 177 177
156 156 156
160 160 160
154 154 154
141 141 141
148 148 148
172 172 172
191 191 191
199 199 199
193 193 193
176 176 176
153 153 153
147 147 147
150 150 150
162 162 162
182 182 182
210 210 210
233 233 233
229 229 229
203 203 203
175 175 175
146 146 146
144 144 144
147 147 147
163 163 163
176 176 176
179 179 179
198 198 198
217 217 217
217 217 217
199 199 199
127 127 127
155 155 155
181 181 181
203 203 203
214 214 214
206 206 206
185 185 185
160 160 160
160 160 160
154 154 154
160 160 160
175 175 175
181 181 181
176 176 176
181 181 181
210 210 210
236 236 236
234 234 234
207 207 207
178 178 178
170 170 170
174 174 174
168 168 168
153 153 153
158 158 158
154 154 154
168 168 168
174 174 174
170 170 170
156 156 156
151 151 151
148 148 148
152 152 152
167 167 167
174 174 174
194 194 194
208 208 208
206 206 206
189 189 189
165 165 165
139 139 139
143 143 143
156 156 156
178 178 178
194 194 194
198 198 198
204 204 204
227 227 227
227 227 227
205 205 205
133 133 133
158 158 158
185 185 185
208 208 208
222 222 222
212 212 212
190 190 190
163 163 163
142 142 142
144 144 144
158 158 158
164 164 164
161 161 161
150 150 150
171 171 171
195 195 195
211 211 211
209 209 209
192 192 192
168 168 168
175 175 175
179 179 179
172 172 172
175 175 175
182 182 182
177 177 177
162 162 162
147 147 147
151 151 151
165 165 165
172 172 172
168 168 168
171 171 171
191 191 191
201 201 201
196 196 196
179 179 179
178 178 178
166 166 166
163 163 163
166 166 166
159 159 159
159 159 159
183 183 183
200 200 200
204 204 204
194 194 194
211 211 211
211 211 211
198 198 198
