P3
50 50
255
165 165 165
175 175 175
175 175 175
164 164 164
155 155 155
160 160 160
156 156 156
144 144 144
141 141 141
164 164 164
182 182 182
190 190 190
185 185 185
170 170 170
149 149 149
143 143 143
156 156 156
162 162 162
159 159 159
147 147 147
130 130 130
133 133 133
153 153 153
168 168 168
173 173 173
169 169 169
166 166 166
158 158 158
143 143 143
151 151 151
157 157 157
160 160 160
188 188 188
216 216 216
235 235 235
224 224 224
197 197 197
169 169 169
173 173 173
188 188 188
191 191 191
189 189 189
197 197 197
191 191 191
174 174 174
151 151 151
137 137 137
159 159 159
177 177 177
186 186 186
189 189 189
204 204 204
203 203 203
188 188 188
182 182 182
189 189 189
184 184 184
168 168 168
154 154 154
180 180 180
203 203 203
216 216 216
209 209 209
188 188 188
163 163 163
165 165 165
176 176 176
177 177 177
167 167 167
150 150 150
132 132 132
136 136 136
156 156 156
171 171 171
177 177 177
184 184 184
186 186 186
177 177 177
159 159 159
153 153 153
159 159 159
161 161 161
190 190 190
218 218 218
241 241 241
227 227 227
199 199 199
170 170 170
190 190 190
211 211 211
217 217 217
203 203 203
203 203 203
196 196 196
178 178 178
154 154 154
136 136 136
158 158 158
176 176 176
185 185 185
207 207 207
230 230 230
229 229 229
205 205 205
206 206 206
218 218 218
209 209 209
187 187 187
161 161 161
187 187 187
214 214 214
232 232 232
222 222 222
196 196 196
168 168 168
187 187 187
202 202 202
203 203 203
189 189 189
167 167 167
142 142 142
131 131 131
151 151 151
165 165 165
180 180 180
195 195 195
198 198 198
187 187 187
167 167 167
146 146 146
152 152 152
153 153 153
179 179 179
201 201 201
213 213 213
206 206 206
186 186 186
170 170 170
197 197 197
222 222 222
231 231 231
212 212 212
192 192 192
187 187 187
170 170 170
148 148 148
150 150 150
149 149 149
164 164 164
179 179 179
210 210 210
236 236 236
234 234 234
207 207 207
222 222 222
245 245 245
226 226 226
197 197 197
168 168 168
182 182 182
206 206 206
219 219 219
212 212 212
190 190 190
174 174 174
200 200 200
221 221 221
223 223 223
204 204 204
177 177 177
150 150 150
121 121 121
138 138 138
156 156 156
178 178 178
193 193 193
196 196 196
185 185 185
173 173 173
155 155 155
137 137 137
138 138 138
159 159 159
176 176 176
184 184 184
180 180 180
166 166 166
165 165 165
190 190 190
211 211 211
217 217 217
203 203 203
179 179 179
168 168 168
154 154 154
156 156 156
161 161 161
156 156 156
152 152 152
181 181 181
195 195 195
212 212 212
211 211 211
194 194 194
215 215 215
230 230 230
218 218 218
193 193 193
165 165 165
166 166 166
185 185 185
193 193 193
189 189 189
173 173 173
173 173 173
199 199 199
220 220 220
222 222 222
203 203 203
177 177 177
149 149 149
134 134 134
138 138 138
147 147 147
166 166 166
188 188 188
205 205 205
208 208 208
194 194 194
171 171 171
146 146 146
118 118 118
136 136 136
149 149 149
154 154 154
152 152 152
141 141 141
151 151 151
174 174 174
192 192 192
198 198 198
190 190 190
171 171 171
148 148 148
160 160 160
165 165 165
163 163 163
158 158 158
146 146 146
171 171 171
173 173 173
183 183 183
183 183 183
174 174 174
193 193 193
201 201 201
195 195 195
177 177 177
153 153 153
145 145 145
159 159 159
165 165 165
162 162 162
152 152 152
163 163 163
185 185 185
200 200 200
201 201 201
187 187 187
166 166 166
143 143 143
156 156 156
161 161 161
157 157 157
172 172 172
198 198 198
220 220 220
224 224 224
206 206 206
180 180 180
152 152 152
123 123 123
122 122 122
138 138 138
148 148 148
151 151 151
146 146 146
160 160 160
186 186 186
207 207 207
215 215 215
204 204 204
182 182 182
170 170 170
187 187 187
194 194 194
187 187 187
170 170 170
147 147 147
154 154 154
146 146 146
154 154 154
167 167 167
186 186 186
196 196 196
192 192 192
176 176 176
166 166 166
155 155 155
141 141 141
163 163 163
179 179 179
186 186 186
180 180 180
165 165 165
180 180 180
195 195 195
196 196 196
184 184 184
163 163 163
158 158 158
173 173 173
179 179 179
174 174 174
169 169 169
195 195 195
215 215 215
218 218 218
201 201 201
177 177 177
150 150 150
122 122 122
141 141 141
161 161 161
174 174 174
178 178 178
170 170 170
160 160 160
185 185 185
206 206 206
215 215 215
204 204 204
182 182 182
187 187 187
210 210 210
222 222 222
210 210 210
187 187 187
160 160 160
132 132 132
123 123 123
150 150 150
176 176 176
198 198 198
210 210 210
204 204 204
192 192 192
189 189 189
175 175 175
156 156 156
182 182 182
204 204 204
214 214 214
205 205 205
184 184 184
200 200 200
221 221 221
224 224 224
204 204 204
178 178 178
166 166 166
182 182 182
189 189 189
183 183 183
167 167 167
179 179 179
193 193 193
195 195 195
184 184 184
164 164 164
140 140 140
130 130 130
156 156 156
179 179 179
196 196 196
201 201 201
191 191 191
172 172 172
174 174 174
191 191 191
197 197 197
189 189 189
170 170 170
194 194 194
222 222 222
241 241 241
222 222 222
194 194 194
167 167 167
145 145 145
122 122 122
149 149 149
174 174 174
195 195 195
207 207 207
202 202 202
208 208 208
205 205 205
188 188 188
164 164 164
192 192 192
220 220 220
239 239 239
223 223 223
195 195 195
207 207 207
235 235 235
240 240 240
212 212 212
183 183 183
163 163 163
179 179 179
186 186 186
181 181 181
165 165 165
156 156 156
167 167 167
168 168 168
160 160 160
145 145 145
124 124 124
135 135 135
163 163 163
188 188 188
209 209 209
216 216 216
203 203 203
180 180 180
154 154 154
167 167 167
172 172 172
166 166 166
161 161 161
188 188 188
211 211 211
223 223 223
211 211 211
202 202 202
182 182 182
156 156 156
115 115 115
140 140 140
163 163 163
180 180 180
189 189 189
196 196 196
210 210 210
206 206 206
188 188 188
164 164 164
190 190 190
216 216 216
231 231 231
218 218 218
192 192 192
198 198 198
218 218 218
220 220 220
202 202 202
177 177 177
162 162 162
166 166 166
172 172 172
167 167 167
164 164 164
171 171 171
168 168 168
155 155 155
137 137 137
121 121 121
107 107 107
134 134 134
161 161 161
185 185 185
205 205 205
211 211 211
199 199 199
177 177 177
152 152 152
141 141 141
153 153 153
160 160 160
158 158 158
171 171 171
188 188 188
207 207 207
218 218 218
208 208 208
185 185 185
159 159 159
130 130 130
138 138 138
144 144 144
158 158 158
165 165 165
183 183 183
194 194 194
192 192 192
181 181 181
174 174 174
194 194 194
216 216 216
222 222 222
206 206 206
181 181 181
177 177 177
191 191 191
192 192 192
180 180 180
186 186 186
190 190 190
182 182 182
164 164 164
169 169 169
188 188 188
197 197 197
193 193 193
176 176 176
154 154 154
128 128 128
109 109 109
125 125 125
150 150 150
171 171 171
187 187 187
191 191 191
182 182 182
165 165 165
142 142 142
156 156 156
173 173 173
183 183 183
180 180 180
167 167 167
178 178 178
201 201 201
215 215 215
210 210 210
190 190 190
165 165 165
157 157 157
167 167 167
167 167 167
158 158 158
147 147 147
163 163 163
171 171 171
178 178 178
183 183 183
175 175 175
194 194 194
216 216 216
223 223 223
206 206 206
181 181 181
170 170 170
177 177 177
174 174 174
189 189 189
210 210 210
217 217 217
204 204 204
181 181 181
181 181 181
205 205 205
219 219 219
212 212 212
190 190 190
164 164 164
143 143 143
122 122 122
111 111 111
133 133 133
151 151 151
162 162 162
166 166 166
159 159 159
145 145 145
149 149 149
167 167 167
187 187 187
198 198 198
195 195 195
179 179 179
187 187 187
216 216 216
242 242 242
231 231 231
202 202 202
173 173 173
182 182 182
195 195 195
196 196 196
183 183 183
163 163 163
139 139 139
156 156 156
169 169 169
173 173 173
167 167 167
181 181 181
198 198 198
202 202 202
191 191 191
170 170 170
155 155 155
161 161 161
168 168 168
197 197 197
223 223 223
234 234 234
215 215 215
188 188 188
183 183 183
208 208 208
223 223 223
215 215 215
193 193 193
171 171 171
152 152 152
130 130 130
117 117 117
140 140 140
158 158 158
170 170 170
172 172 172
164 164 164
165 165 165
177 177 177
180 180 180
188 188 188
200 200 200
197 197 197
181 181 181
185 185 185
212 212 212
232 232 232
224 224 224
199 199 199
171 171 171
201 201 201
222 222 222
223 223 223
203 203 203
177 177 177
149 149 149
157 157 157
165 165 165
164 164 164
154 154 154
161 161 161
173 173 173
176 176 176
168 168 168
156 156 156
144 144 144
140 140 140
164 164 164
191 191 191
212 212 212
220 220 220
206 206 206
198 198 198
189 189 189
194 194 194
205 205 205
200 200 200
183 183 183
172 172 172
154 154 154
131 131 131
133 133 133
158 158 158
181 181 181
198 198 198
201 201 201
190 190 190
186 186 186
204 204 204
208 208 208
195 195 195
188 188 188
185 185 185
171 171 171
171 171 171
192 192 192
204 204 204
200 200 200
183 183 183
174 174 174
208 208 208
236 236 236
238 238 238
211 211 211
182 182 182
156 156 156
174 174 174
184 184 184
182 182 182
170 170 170
150 150 150
146 146 146
158 158 158
164 164 164
160 160 160
148 148 148
130 130 130
151 151 151
173 173 173
189 189 189
194 194 194
214 214 214
223 223 223
209 209 209
185 185 185
179 179 179
176 176 176
174 174 174
164 164 164
148 148 148
137 137 137
142 142 142
171 171 171
199 199 199
223 223 223
230 230 230
210 210 210
200 200 200
225 225 225
232 232 232
211 211 211
184 184 184
165 165 165
154 154 154
157 157 157
182 182 182
204 204 204
215 215 215
206 206 206
185 185 185
198 198 198
217 217 217
218 218 218
200 200 200
175 175 175
165 165 165
182 182 182
193 193 193
191 191 191
177 177 177
156 156 156
141 141 141
154 154 154
159 159 159
155 155 155
144 144 144
148 148 148
168 168 168
181 181 181
183 183 183
195 195 195
220 220 220
232 232 232
214 214 214
188 188 188
160 160 160
155 155 155
164 164 164
170 170 170
166 166 166
154 154 154
144 144 144
174 174 174
203 203 203
232 232 232
244 244 244
217 217 217
200 200 200
224 224 224
231 231 231
211 211 211
184 184 184
162 162 162
179 179 179
186 186 186
193 193 193
221 221 221
242 242 242
224 224 224
196 196 196
177 177 177
190 190 190
191 191 191
181 181 181
190 190 190
186 186 186
178 178 178
189 189 189
187 187 187
174 174 174
153 153 153
132 132 132
144 144 144
149 149 149
145 145 145
137 137 137
163 163 163
187 187 187
204 204 204
207 207 207
194 194 194
205 205 205
212 212 212
201 201 201
179 179 179
153 153 153
159 159 159
175 175 175
182 182 182
178 178 178
164 164 164
152 152 152
167 167 167
192 192 192
213 213 213
218 218 218
203 203 203
196 196 196
221 221 221
231 231 231
213 213 213
187 187 187
181 181 181
203 203 203
214 214 214
206 206 206
217 217 217
233 233 233
219 219 219
193 193 193
152 152 152
161 161 161
173 173 173
193 193 193
205 205 205
200 200 200
182 182 182
173 173 173
172 172 172
161 161 161
143 143 143
153 153 153
167 167 167
173 173 173
168 168 168
155 155 155
169 169 169
196 196 196
217 217 217
222 222 222
205 205 205
181 181 181
185 185 185
178 178 178
161 161 161
139 139 139
160 160 160
176 176 176
183 183 183
185 185 185
186 186 186
182 182 182
178 178 178
172 172 172
186 186 186
189 189 189
179 179 179
192 192 192
215 215 215
223 223 223
208 208 208
183 183 183
190 190 190
218 218 218
237 237 237
223 223 223
196 196 196
204 204 204
197 197 197
178 178 178
125 125 125
147 147 147
172 172 172
193 193 193
204 204 204
199 199 199
182 182 182
158 158 158
151 151 151
142 142 142
145 145 145
168 168 168
185 185 185
192 192 192
186 186 186
170 170 170
166 166 166
191 191 191
210 210 210
214 214 214
199 199 199
203 203 203
205 205 205
192 192 192
171 171 171
145 145 145
152 152 152
170 170 170
195 195 195
213 213 213
214 214 214
210 210 210
204 204 204
184 184 184
160 160 160
160 160 160
154 154 154
177 177 177
193 193 193
198 198 198
189 189 189
169 169 169
187 187 187
213 213 213
228 228 228
217 217 217
193 193 193
175 175 175
170 170 170
156 156 156
114 114 114
139 139 139
162 162 162
180 180 180
189 189 189
185 185 185
171 171 171
154 154 154
160 160 160
157 157 157
150 150 150
174 174 174
193 193 193
202 202 202
195 195 195
177 177 177
154 154 154
175 175 175
189 189 189
191 191 191
202 202 202
228 228 228
233 233 233
211 211 211
183 183 183
154 154 154
150 150 150
179 179 179
208 208 208
236 236 236
238 238 238
236 236 236
224 224 224
197 197 197
169 169 169
152 152 152
155 155 155
165 165 165
182 182 182
189 189 189
183 183 183
167 167 167
173 173 173
192 192 192
201 201 201
203 203 203
202 202 202
187 187 187
164 164 164
141 141 141
116 116 116
133 133 133
145 145 145
159 159 159
166 166 166
163 163 163
163 163 163
180 180 180
187 187 187
183 183 183
168 168 168
170 170 170
188 188 188
196 196 196
190 190 190
173 173 173
163 163 163
189 189 189
210 210 210
217 217 217
204 204 204
232 232 232
240 240 240
214 214 214
186 186 186
160 160 160
148 148 148
177 177 177
204 204 204
228 228 228
229 229 229
234 234 234
222 222 222
196 196 196
176 176 176
169 169 169
158 158 158
184 184 184
207 207 207
218 218 218
209 209 209
186 186 186
160 160 160
179 179 179
207 207 207
229 229 229
227 227 227
204 204 204
176 176 176
147 147 147
131 131 131
151 151 151
165 165 165
171 171 171
172 172 172
174 174 174
179 179 179
201 201 201
212 212 212
205 205 205
185 185 185
160 160 160
172 172 172
178 178 178
173 173 173
163 163 163
169 169 169
198 198 198
225 225 225
238 238 238
217 217 217
210 210 210
223 223 223
213 213 213
190 190 190
163 163 163
146 146 146
164 164 164
187 187 187
202 202 202
202 202 202
207 207 207
201 201 201
199 199 199
205 205 205
195 195 195
175 175 175
194 194 194
222 222 222
246 246 246
225 225 225
196 196 196
178 178 178
181 181 181
209 209 209
234 234 234
232 232 232
206 206 206
178 178 178
149 149 149
141 141 141
163 163 163
179 179 179
186 186 186
181 181 181
177 177 177
185 185 185
210 210 210
225 225 225
215 215 215
192 192 192
165 165 165
150 150 150
163 163 163
172 172 172
171 171 171
166 166 166
193 193 193
216 216 216
225 225 225
209 209 209
198 198 198
208 208 208
201 201 201
181 181 181
157 157 157
161 161 161
169 169 169
166 166 166
173 173 173
174 174 174
178 178 178
195 195 195
221 221 221
232 232 232
215 215 215
188 188 188
190 190 190
216 216 216
231 231 231
218 218 218
192 192 192
188 188 188
181 181 181
195 195 195
211 211 211
210 210 210
193 193 193
169 169 169
142 142 142
143 143 143
166 166 166
183 183 183
190 190 190
185 185 185
169 169 169
180 180 180
202 202 202
214 214 214
206 206 206
186 186 186
161 161 161
158 158 158
165 165 165
169 169 169
168 168 168
158 158 158
176 176 176
193 193 193
198 198 198
189 189 189
177 177 177
183 183 183
178 178 178
164 164 164
167 167 167
187 187 187
198 198 198
194 194 194
178 178 178
156 156 156
169 169 169
197 197 197
224 224 224
238 238 238
218 218 218
190 190 190
174 174 174
193 193 193
202 202 202
195 195 195
181 181 181
186 186 186
179 179 179
173 173 173
183 183 183
182 182 182
171 171 171
152 152 152
148 148 148
151 151 151
169 169 169
178 178 178
182 182 182
177 177 177
162 162 162
165 165 165
182 182 182
190 190 190
185 185 185
170 170 170
169 169 169
179 179 179
178 178 178
178 178 178
168 168 168
160 160 160
154 154 154
166 166 166
171 171 171
179 179 179
177 177 177
164 164 164
152 152 152
155 155 155
182 182 182
208 208 208
226 226 226
219 219 219
196 196 196
169 169 169
160 160 160
185 185 185
205 205 205
212 212 212
201 201 201
179 179 179
155 155 155
167 167 167
172 172 172
168 168 168
168 168 168
172 172 172
166 166 166
152 152 152
154 154 154
154 154 154
162 162 162
171 171 171
171 171 171
160 160 160
179 179 179
191 191 191
190 190 190
176 176 176
156 156 156
143 143 143
157 157 157
163 163 163
159 159 159
161 161 161
181 181 181
193 193 193
191 191 191
180 180 180
170 170 170
170 170 170
159 159 159
170 170 170
190 190 190
202 202 202
198 198 198
182 182 182
159 159 159
158 158 158
187 187 187
216 216 216
241 241 241
230 230 230
202 202 202
173 173 173
144 144 144
165 165 165
179 179 179
184 184 184
176 176 176
160 160 160
168 168 168
179 179 179
180 180 180
169 169 169
151 151 151
152 152 152
147 147 147
142 142 142
141 141 141
166 166 166
187 187 187
200 200 200
199 199 199
160 160 160
179 179 179
191 191 191
190 190 190
177 177 177
156 156 156
138 138 138
156 156 156
172 172 172
179 179 179
175 175 175
182 182 182
194 194 194
193 193 193
179 179 179
170 170 170
170 170 170
159 159 159
177 177 177
200 200 200
214 214 214
210 210 210
190 190 190
165 165 165
156 156 156
180 180 180
204 204 204
219 219 219
214 214 214
193 193 193
167 167 167
148 148 148
147 147 147
151 151 151
155 155 155
149 149 149
153 153 153
173 173 173
185 185 185
185 185 185
174 174 174
155 155 155
141 141 141
134 134 134
131 131 131
151 151 151
179 179 179
207 207 207
228 228 228
226 226 226
151 151 151
169 169 169
179 179 179
178 178 178
166 166 166
154 154 154
149 149 149
174 174 174
194 194 194
204 204 204
198 198 198
180 180 180
183 183 183
181 181 181
169 169 169
161 161 161
160 160 160
163 163 163
173 173 173
195 195 195
208 208 208
204 204 204
186 186 186
162 162 162
167 167 167
183 183 183
189 189 189
191 191 191
188 188 188
173 173 173
167 167 167
177 177 177
175 175 175
164 164 164
145 145 145
126 126 126
149 149 149
167 167 167
178 178 178
178 178 178
168 168 168
165 165 165
155 155 155
138 138 138
124 124 124
153 153 153
183 183 183
212 212 212
241 241 241
236 236 236
136 136 136
151 151 151
158 158 158
161 161 161
155 155 155
154 154 154
156 156 156
183 183 183
207 207 207
220 220 220
212 212 212
190 190 190
164 164 164
162 162 162
152 152 152
144 144 144
158 158 158
166 166 166
165 165 165
178 178 178
188 188 188
185 185 185
171 171 171
158 158 158
183 183 183
204 204 204
213 213 213
204 204 204
182 182 182
170 170 170
191 191 191
204 204 204
202 202 202
186 186 186
163 163 163
137 137 137
137 137 137
153 153 153
162 162 162
164 164 164
173 173 173
172 172 172
161 161 161
153 153 153
152 152 152
148 148 148
175 175 175
199 199 199
217 217 217
215 215 215
128 128 128
140 140 140
146 146 146
145 145 145
146 146 146
146 146 146
154 154 154
181 181 181
203 203 203
216 216 216
208 208 208
187 187 187
162 162 162
140 140 140
139 139 139
155 155 155
164 164 164
163 163 163
159 159 159
155 155 155
162 162 162
160 160 160
150 150 150
162 162 162
190 190 190
214 214 214
226 226 226
213 213 213
194 194 194
197 197 197
207 207 207
227 227 227
223 223 223
200 200 200
173 173 173
145 145 145
119 119 119
133 133 133
144 144 144
160 160 160
169 169 169
168 168 168
172 172 172
181 181 181
180 180 180
167 167 167
158 158 158
177 177 177
188 188 188
187 187 187
139 139 139
154 154 154
160 160 160
158 158 158
148 148 148
131 131 131
144 144 144
168 168 168
186 186 186
195 195 195
190 190 190
173 173 173
151 151 151
133 133 133
157 157 157
176 176 176
188 188 188
188 188 188
175 175 175
156 156 156
145 145 145
145 145 145
136 136 136
158 158 158
183 183 183
205 205 205
214 214 214
204 204 204
215 215 215
219 219 219
207 207 207
228 228 228
224 224 224
201 201 201
173 173 173
145 145 145
125 125 125
131 131 131
135 135 135
149 149 149
157 157 157
172 172 172
194 194 194
208 208 208
205 205 205
188 188 188
164 164 164
151 151 151
159 159 159
158 158 158
145 145 145
159 159 159
167 167 167
164 164 164
155 155 155
151 151 151
152 152 152
161 161 161
162 162 162
169 169 169
165 165 165
153 153 153
149 149 149
142 142 142
168 168 168
191 191 191
206 206 206
205 205 205
190 190 190
167 167 167
171 171 171
170 170 170
160 160 160
145 145 145
167 167 167
183 183 183
190 190 190
197 197 197
219 219 219
224 224 224
206 206 206
206 206 206
203 203 203
187 187 187
164 164 164
148 148 148
143 143 143
155 155 155
160 160 160
156 156 156
153 153 153
181 181 181
207 207 207
227 227 227
223 223 223
200 200 200
172 172 172
168 168 168
167 167 167
156 156 156
142 142 142
156 156 156
163 163 163
171 171 171
177 177 177
173 173 173
177 177 177
190 190 190
190 190 190
178 178 178
167 167 167
177 177 177
177 177 177
167 167 167
170 170 170
194 194 194
210 210 210
209 209 209
193 193 193
181 181 181
193 193 193
192 192 192
178 178 178
158 158 158
145 145 145
158 158 158
162 162 162
186 186 186
203 203 203
206 206 206
193 193 193
181 181 181
193 193 193
192 192 192
179 179 179
158 158 158
161 161 161
177 177 177
183 183 183
178 178 178
163 163 163
179 179 179
204 204 204
222 222 222
218 218 218
197 197 197
185 185 185
197 197 197
195 195 195
180 180 180
136 136 136
158 158 158
174 174 174
186 186 186
193 193 193
187 187 187
198 198 198
217 217 217
218 218 218
200 200 200
189 189 189
204 204 204
204 204 204
189 189 189
166 166 166
183 183 183
196 196 196
196 196 196
182 182 182
192 192 192
206 206 206
205 205 205
189 189 189
165 165 165
163 163 163
171 171 171
169 169 169
166 166 166
178 178 178
180 180 180
177 177 177
202 202 202
221 221 221
219 219 219
199 199 199
173 173 173
173 173 173
192 192 192
200 200 200
193 193 193
175 175 175
167 167 167
187 187 187
199 199 199
197 197 197
181 181 181
206 206 206
225 225 225
221 221 221
199 199 199
148 148 148
173 173 173
193 193 193
203 203 203
198 198 198
191 191 191
208 208 208
236 236 236
239 239 239
211 211 211
202 202 202
223 223 223
223 223 223
203 203 203
185 185 185
165 165 165
174 174 174
174 174 174
168 168 168
190 190 190
204 204 204
202 202 202
187 187 187
168 168 168
188 188 188
200 200 200
197 197 197
181 181 181
159 159 159
153 153 153
182 182 182
211 211 211
239 239 239
235 235 235
207 207 207
183 183 183
196 196 196
205 205 205
203 203 203
196 196 196
177 177 177
153 153 153
163 163 163
172 172 172
170 170 170
184 184 184
213 213 213
240 240 240
233 233 233
205 205 205
153 153 153
179 179 179
202 202 202
214 214 214
207 207 207
187 187 187
202 202 202
223 223 223
225 225 225
204 204 204
201 201 201
221 221 221
222 222 222
215 215 215
200 200 200
176 176 176
149 149 149
148 148 148
157 157 157
176 176 176
187 187 187
186 186 186
173 173 173
182 182 182
209 209 209
229 229 229
223 223 223
199 199 199
172 172 172
149 149 149
177 177 177
202 202 202
223 223 223
241 241 241
221 221 221
193 193 193
210 210 210
222 222 222
212 212 212
188 188 188
169 169 169
147 147 147
137 137 137
143 143 143
150 150 150
177 177 177
202 202 202
219 219 219
216 216 216
196 196 196
149 149 149
174 174 174
195 195 195
206 206 206
200 200 200
182 182 182
182 182 182
196 196 196
197 197 197
184 184 184
186 186 186
200 200 200
214 214 214
218 218 218
201 201 201
177 177 177
150 150 150
141 141 141
140 140 140
155 155 155
163 163 163
163 163 163
157 157 157
186 186 186
215 215 215
244 244 244
234 234 234
205 205 205
175 175 175
146 146 146
164 164 164
192 192 192
217 217 217
230 230 230
215 215 215
190 190 190
207 207 207
218 218 218
208 208 208
186 186 186
160 160 160
133 133 133
139 139 139
138 138 138
137 137 137
161 161 161
180 180 180
191 191 191
189 189 189
194 194 194
138 138 138
160 160 160
177 177 177
185 185 185
181 181 181
166 166 166
168 168 168
192 192 192
208 208 208
210 210 210
194 194 194
182 182 182
198 198 198
201 201 201
188 188 188
167 167 167
169 169 169
163 163 163
149 149 149
131 131 131
137 137 137
137 137 137
151 151 151
178 178 178
203 203 203
219 219 219
214 214 214
194 194 194
168 168 168
140 140 140
153 153 153
177 177 177
195 195 195
202 202 202
194 194 194
175 175 175
189 189 189
197 197 197
190 190 190
173 173 173
150 150 150
149 149 149
158 158 158
160 160 160
154 154 154
139 139 139
154 154 154
166 166 166
194 194 194
217 217 217
131 131 131
140 140 140
153 153 153
159 159 159
156 156 156
149 149 149
178 178 178
206 206 206
233 233 233
235 235 235
210 210 210
181 181 181
188 188 188
192 192 192
183 183 183
181 181 181
186 186 186
178 178 178
162 162 162
140 140 140
118 118 118
144 144 144
167 167 167
184 184 184
193 193 193
190 190 190
190 190 190
179 179 179
160 160 160
142 142 142
142 142 142
155 155 155
168 168 168
173 173 173
168 168 168
153 153 153
165 165 165
170 170 170
166 166 166
152 152 152
150 150 150
170 170 170
184 184 184
187 187 187
177 177 177
160 160 160
140 140 140
169 169 169
198 198 198
224 224 224
150 150 150
148 148 148
138 138 138
132 132 132
130 130 130
148 148 148
177 177 177
205 205 205
231 231 231
233 233 233
209 209 209
191 191 191
212 212 212
219 219 219
204 204 204
187 187 187
193 193 193
185 185 185
167 167 167
144 144 144
129 129 129
156 156 156
183 183 183
206 206 206
219 219 219
213 213 213
215 215 215
199 199 199
175 175 175
152 152 152
147 147 147
160 160 160
179 179 179
190 190 190
189 189 189
176 176 176
155 155 155
142 142 142
139 139 139
139 139 139
163 163 163
187 187 187
205 205 205
209 209 209
196 196 196
174 174 174
156 156 156
162 162 162
188 188 188
208 208 208
164 164 164
161 161 161
150 150 150
133 133 133
113 113 113
140 140 140
166 166 166
190 190 190
206 206 206
207 207 207
192 192 192
199 199 199
225 225 225
235 235 235
215 215 215
187 187 187
186 186 186
179 179 179
162 162 162
153 153 153
146 146 146
160 160 160
188 188 188
215 215 215
233 233 233
225 225 225
229 229 229
208 208 208
181 181 181
154 154 154
149 149 149
176 176 176
201 201 201
219 219 219
216 216 216
196 196 196
170 170 170
143 143 143
130 130 130
139 139 139
167 167 167
193 193 193
214 214 214
219 219 219
203 203 203
180 180 180
184 184 184
177 177 177
168 168 168
183 183 183
169 169 169
166 166 166
155 155 155
137 137 137
121 121 121
125 125 125
148 148 148
166 166 166
178 178 178
178 178 178
168 168 168
192 192 192
213 213 213
220 220 220
205 205 205
181 181 181
169 169 169
169 169 169
175 175 175
170 170 170
175 175 175
173 173 173
182 182 182
205 205 205
218 218 218
214 214 214
216 216 216
200 200 200
175 175 175
148 148 148
154 154 154
184 184 184
213 213 213
240 240 240
235 235 235
206 206 206
177 177 177
148 148 148
141 141 141
135 135 135
162 162 162
186 186 186
204 204 204
208 208 208
195 195 195
204 204 204
211 211 211
200 200 200
178 178 178
162 162 162
165 165 165
162 162 162
151 151 151
133 133 133
138 138 138
142 142 142
138 138 138
140 140 140
149 149 149
161 161 161
165 165 165
174 174 174
189 189 189
193 193 193
184 184 184
166 166 166
169 169 169
186 186 186
193 193 193
192 192 192
204 204 204
200 200 200
184 184 184
183 183 183
191 191 191
189 189 189
191 191 191
180 180 180
160 160 160
137 137 137
151 151 151
179 179 179
206 206 206
225 225 225
222 222 222
200 200 200
173 173 173
162 162 162
154 154 154
139 139 139
148 148 148
169 169 169
182 182 182
185 185 185
195 195 195
220 220 220
231 231 231
214 214 214
187 187 187
167 167 167
152 152 152
149 149 149
139 139 139
136 136 136
148 148 148
153 153 153
149 149 149
146 146 146
167 167 167
182 182 182
186 186 186
178 178 178
172 172 172
167 167 167
158 158 158
151 151 151
174 174 174
193 193 193
201 201 201
211 211 211
232 232 232
225 225 225
200 200 200
175 175 175
163 163 163
162 162 162
163 163 163
157 157 157
153 153 153
142 142 142
140 140 140
165 165 165
185 185 185
198 198 198
196 196 196
181 181 181
166 166 166
168 168 168
159 159 159
143 143 143
129 129 129
146 146 146
156 156 156
164 164 164
191 191 191
214 214 214
223 223 223
209 209 209
184 184 184
162 162 162
133 133 133
131 131 131
122 122 122
139 139 139
151 151 151
156 156 156
153 153 153
165 165 165
177 177 177
194 194 194
200 200 200
193 193 193
201 201 201
194 194 194
175 175 175
151 151 151
169 169 169
187 187 187
194 194 194
215 215 215
240 240 240
230 230 230
203 203 203
174 174 174
149 149 149
156 156 156
171 171 171
177 177 177
172 172 172
159 159 159
139 139 139
153 153 153
176 176 176
192 192 192
197 197 197
188 188 188
170 170 170
168 168 168
158 158 158
140 140 140
120 120 120
121 121 121
136 136 136
156 156 156
176 176 176
193 193 193
198 198 198
189 189 189
170 170 170
149 149 149
110 110 110
109 109 109
126 126 126
137 137 137
146 146 146
151 151 151
171 171 171
185 185 185
189 189 189
194 194 194
199 199 199
216 216 216
230 230 230
217 217 217
191 191 191
164 164 164
173 173 173
173 173 173
177 177 177
200 200 200
214 214 214
210 210 210
190 190 190
165 165 165
143 143 143
165 165 165
182 182 182
189 189 189
184 184 184
168 168 168
147 147 147
160 160 160
185 185 185
204 204 204
210 210 210
199 199 199
193 193 193
192 192 192
178 178 178
157 157 157
132 132 132
107 107 107
129 129 129
147 147 147
160 160 160
167 167 167
170 170 170
169 169 169
169 169 169
159 159 159
108 108 108
131 131 131
151 151 151
165 165 165
171 171 171
167 167 167
180 180 180
197 197 197
202 202 202
191 191 191
195 195 195
224 224 224
247 247 247
224 224 224
195 195 195
187 187 187
200 200 200
199 199 199
184 184 184
176 176 176
185 185 185
183 183 183
169 169 169
149 149 149
143 143 143
165 165 165
182 182 182
190 190 190
184 184 184
169 169 169
147 147 147
158 158 158
182 182 182
200 200 200
206 206 206
195 195 195
210 210 210
208 208 208
190 190 190
166 166 166
139 139 139
112 112 112
115 115 115
132 132 132
143 143 143
162 162 162
184 184 184
197 197 197
197 197 197
184 184 184
122 122 122
148 148 148
172 172 172
192 192 192
200 200 200
194 194 194
178 178 178
195 195 195
199 199 199
189 189 189
186 186 186
208 208 208
219 219 219
208 208 208
186 186 186
202 202 202
221 221 221
220 220 220
199 199 199
173 173 173
176 176 176
181 181 181
174 174 174
158 158 158
137 137 137
156 156 156
171 171 171
178 178 178
173 173 173
159 159 159
139 139 139
147 147 147
168 168 168
183 183 183
187 187 187
195 195 195
210 210 210
208 208 208
190 190 190
166 166 166
139 139 139
127 127 127
131 131 131
145 145 145
155 155 155
176 176 176
203 203 203
224 224 224
225 225 225
204 204 204
131 131 131
160 160 160
188 188 188
214 214 214
230 230 230
218 218 218
193 193 193
180 180 180
184 184 184
176 176 176
167 167 167
183 183 183
190 190 190
183 183 183
177 177 177
203 203 203
223 223 223
222 222 222
201 201 201
177 177 177
195 195 195
201 201 201
192 192 192
172 172 172
148 148 148
140 140 140
153 153 153
158 158 158
154 154 154
143 143 143
130 130 130
134 134 134
155 155 155
170 170 170
177 177 177
182 182 182
194 194 194
192 192 192
178 178 178
157 157 157
139 139 139
152 152 152
157 157 157
156 156 156
168 168 168
180 180 180
209 209 209
238 238 238
238 238 238
210 210 210
139 139 139
163 163 163
192 192 192
222 222 222
248 248 248
227 227 227
198 198 198
169 169 169
161 161 161
155 155 155
156 156 156
162 162 162
160 160 160
156 156 156
170 170 170
190 190 190
204 204 204
203 203 203
188 188 188
183 183 183
202 202 202
209 209 209
198 198 198
177 177 177
160 160 160
156 156 156
144 144 144
135 135 135
131 131 131
142 142 142
147 147 147
150 150 150
175 175 175
196 196 196
207 207 207
201 201 201
182 182 182
169 169 169
158 158 158
161 161 161
163 163 163
174 174 174
180 180 180
175 175 175
172 172 172
175 175 175
198 198 198
217 217 217
218 218 218
199 199 199
