P3
50 50
255
163 163 163
173 173 173
172 172 172
162 162 162
152 152 152
157 157 157
153 153 153
142 142 142
133 133 133
153 153 153
168 168 168
175 175 175
171 171 171
158 158 158
139 139 139
143 143 143
151 151 151
152 152 152
144 144 144
130 130 130
111 111 111
113 113 113
129 129 129
146 146 146
165 165 165
178 178 178
180 180 180
171 171 171
154 154 154
156 156 156
152 152 152
154 154 154
180 180 180
203 203 203
215 215 215
208 208 208
188 188 188
162 162 162
160 160 160
173 173 173
185 185 185
209 209 209
222 222 222
212 212 212
189 189 189
162 162 162
134 134 134
137 137 137
151 151 151
157 157 157
186 186 186
200 200 200
199 199 199
185 185 185
179 179 179
185 185 185
180 180 180
165 165 165
153 153 153
167 167 167
186 186 186
194 194 194
190 190 190
174 174 174
152 152 152
169 169 169
180 180 180
181 181 181
171 171 171
153 153 153
130 130 130
115 115 115
136 136 136
162 162 162
186 186 186
203 203 203
206 206 206
194 194 194
172 172 172
162 162 162
158 158 158
155 155 155
181 181 181
205 205 205
218 218 218
211 211 211
189 189 189
163 163 163
175 175 175
191 191 191
194 194 194
216 216 216
232 232 232
219 219 219
193 193 193
165 165 165
153 153 153
149 149 149
150 150 150
165 165 165
203 203 203
223 223 223
222 222 222
201 201 201
202 202 202
212 212 212
204 204 204
183 183 183
167 167 167
173 173 173
193 193 193
203 203 203
198 198 198
180 180 180
168 168 168
191 191 191
208 208 208
210 210 210
194 194 194
171 171 171
145 145 145
117 117 117
142 142 142
170 170 170
197 197 197
220 220 220
226 226 226
208 208 208
182 182 182
158 158 158
155 155 155
147 147 147
171 171 171
191 191 191
201 201 201
196 196 196
178 178 178
157 157 157
181 181 181
198 198 198
202 202 202
203 203 203
213 213 213
205 205 205
184 184 184
169 169 169
174 174 174
169 169 169
155 155 155
177 177 177
205 205 205
227 227 227
226 226 226
203 203 203
215 215 215
230 230 230
218 218 218
193 193 193
173 173 173
168 168 168
187 187 187
196 196 196
191 191 191
175 175 175
178 178 178
206 206 206
233 233 233
236 236 236
210 210 210
182 182 182
153 153 153
123 123 123
141 141 141
169 169 169
195 195 195
217 217 217
222 222 222
205 205 205
180 180 180
152 152 152
144 144 144
134 134 134
154 154 154
169 169 169
176 176 176
172 172 172
159 159 159
153 153 153
175 175 175
190 190 190
194 194 194
185 185 185
187 187 187
181 181 181
166 166 166
182 182 182
189 189 189
183 183 183
167 167 167
178 178 178
192 192 192
207 207 207
206 206 206
190 190 190
209 209 209
222 222 222
212 212 212
189 189 189
169 169 169
155 155 155
171 171 171
178 178 178
174 174 174
161 161 161
177 177 177
205 205 205
231 231 231
234 234 234
209 209 209
181 181 181
152 152 152
136 136 136
141 141 141
158 158 158
180 180 180
196 196 196
199 199 199
188 188 188
176 176 176
158 158 158
135 135 135
120 120 120
131 131 131
143 143 143
149 149 149
146 146 146
136 136 136
158 158 158
183 183 183
203 203 203
210 210 210
200 200 200
179 179 179
157 157 157
168 168 168
185 185 185
192 192 192
186 186 186
169 169 169
169 169 169
170 170 170
181 181 181
180 180 180
171 171 171
189 189 189
197 197 197
191 191 191
174 174 174
155 155 155
139 139 139
148 148 148
154 154 154
151 151 151
145 145 145
166 166 166
189 189 189
206 206 206
207 207 207
192 192 192
170 170 170
144 144 144
146 146 146
151 151 151
148 148 148
159 159 159
180 180 180
194 194 194
196 196 196
185 185 185
165 165 165
140 140 140
114 114 114
118 118 118
125 125 125
135 135 135
137 137 137
138 138 138
167 167 167
196 196 196
223 223 223
239 239 239
219 219 219
191 191 191
169 169 169
186 186 186
193 193 193
186 186 186
176 176 176
161 161 161
152 152 152
157 157 157
160 160 160
155 155 155
165 165 165
172 172 172
169 169 169
165 165 165
152 152 152
139 139 139
134 134 134
155 155 155
169 169 169
175 175 175
170 170 170
157 157 157
178 178 178
191 191 191
192 192 192
181 181 181
161 161 161
137 137 137
148 148 148
153 153 153
150 150 150
156 156 156
177 177 177
191 191 191
193 193 193
182 182 182
162 162 162
139 139 139
113 113 113
128 128 128
146 146 146
157 157 157
160 160 160
154 154 154
167 167 167
195 195 195
222 222 222
237 237 237
219 219 219
191 191 191
186 186 186
209 209 209
220 220 220
209 209 209
186 186 186
160 160 160
145 145 145
143 143 143
146 146 146
157 157 157
173 173 173
181 181 181
178 178 178
169 169 169
167 167 167
156 156 156
148 148 148
172 172 172
190 190 190
198 198 198
191 191 191
174 174 174
196 196 196
215 215 215
217 217 217
200 200 200
175 175 175
148 148 148
155 155 155
160 160 160
156 156 156
145 145 145
164 164 164
176 176 176
177 177 177
168 168 168
151 151 151
130 130 130
118 118 118
141 141 141
161 161 161
174 174 174
178 178 178
170 170 170
157 157 157
182 182 182
202 202 202
209 209 209
199 199 199
178 178 178
193 193 193
221 221 221
238 238 238
221 221 221
193 193 193
165 165 165
135 135 135
123 123 123
134 134 134
155 155 155
171 171 171
179 179 179
176 176 176
181 181 181
178 178 178
166 166 166
155 155 155
181 181 181
202 202 202
212 212 212
204 204 204
183 183 183
203 203 203
226 226 226
229 229 229
208 208 208
180 180 180
152 152 152
153 153 153
158 158 158
154 154 154
142 142 142
144 144 144
154 154 154
155 155 155
148 148 148
134 134 134
115 115 115
123 123 123
147 147 147
168 168 168
183 183 183
187 187 187
179 179 179
162 162 162
161 161 161
175 175 175
180 180 180
173 173 173
160 160 160
187 187 187
210 210 210
221 221 221
210 210 210
187 187 187
163 163 163
142 142 142
103 103 103
126 126 126
146 146 146
160 160 160
167 167 167
172 172 172
181 181 181
179 179 179
167 167 167
162 162 162
186 186 186
205 205 205
209 209 209
200 200 200
181 181 181
194 194 194
212 212 212
214 214 214
198 198 198
174 174 174
164 164 164
158 158 158
147 147 147
144 144 144
151 151 151
157 157 157
154 154 154
143 143 143
132 132 132
119 119 119
109 109 109
122 122 122
145 145 145
166 166 166
180 180 180
184 184 184
176 176 176
159 159 159
138 138 138
147 147 147
150 150 150
146 146 146
148 148 148
170 170 170
187 187 187
194 194 194
189 189 189
182 182 182
166 166 166
146 146 146
125 125 125
132 132 132
132 132 132
142 142 142
148 148 148
163 163 163
171 171 171
169 169 169
158 158 158
172 172 172
201 201 201
228 228 228
238 238 238
215 215 215
187 187 187
200 200 200
213 213 213
207 207 207
187 187 187
188 188 188
193 193 193
184 184 184
166 166 166
155 155 155
171 171 171
178 178 178
174 174 174
166 166 166
157 157 157
141 141 141
120 120 120
114 114 114
136 136 136
155 155 155
167 167 167
170 170 170
164 164 164
149 149 149
129 129 129
138 138 138
152 152 152
159 159 159
157 157 157
148 148 148
174 174 174
196 196 196
208 208 208
204 204 204
186 186 186
162 162 162
150 150 150
159 159 159
160 160 160
151 151 151
136 136 136
146 146 146
156 156 156
162 162 162
158 158 158
172 172 172
201 201 201
228 228 228
238 238 238
215 215 215
187 187 187
192 192 192
202 202 202
197 197 197
191 191 191
213 213 213
221 221 221
207 207 207
183 183 183
165 165 165
184 184 184
193 193 193
190 190 190
191 191 191
179 179 179
159 159 159
135 135 135
109 109 109
121 121 121
137 137 137
147 147 147
150 150 150
144 144 144
132 132 132
141 141 141
146 146 146
162 162 162
170 170 170
168 168 168
156 156 156
183 183 183
209 209 209
227 227 227
220 220 220
197 197 197
169 169 169
172 172 172
184 184 184
185 185 185
174 174 174
155 155 155
140 140 140
153 153 153
158 158 158
155 155 155
162 162 162
187 187 187
205 205 205
210 210 210
197 197 197
175 175 175
173 173 173
181 181 181
177 177 177
199 199 199
228 228 228
244 244 244
219 219 219
190 190 190
167 167 167
186 186 186
195 195 195
208 208 208
209 209 209
193 193 193
170 170 170
143 143 143
116 116 116
136 136 136
154 154 154
165 165 165
167 167 167
160 160 160
155 155 155
166 166 166
169 169 169
163 163 163
171 171 171
169 169 169
158 158 158
180 180 180
205 205 205
221 221 221
215 215 215
194 194 194
167 167 167
189 189 189
205 205 205
206 206 206
191 191 191
168 168 168
143 143 143
142 142 142
147 147 147
144 144 144
145 145 145
165 165 165
178 178 178
181 181 181
173 173 173
156 156 156
149 149 149
155 155 155
166 166 166
193 193 193
216 216 216
225 225 225
210 210 210
202 202 202
192 192 192
176 176 176
194 194 194
211 211 211
211 211 211
195 195 195
171 171 171
144 144 144
129 129 129
154 154 154
176 176 176
191 191 191
194 194 194
184 184 184
174 174 174
189 189 189
192 192 192
182 182 182
163 163 163
161 161 161
150 150 150
167 167 167
187 187 187
198 198 198
194 194 194
178 178 178
166 166 166
194 194 194
212 212 212
213 213 213
197 197 197
173 173 173
146 146 146
150 150 150
157 157 157
156 156 156
147 147 147
139 139 139
149 149 149
151 151 151
145 145 145
132 132 132
123 123 123
128 128 128
153 153 153
175 175 175
192 192 192
197 197 197
219 219 219
230 230 230
214 214 214
187 187 187
182 182 182
196 196 196
197 197 197
184 184 184
164 164 164
152 152 152
139 139 139
166 166 166
192 192 192
212 212 212
217 217 217
202 202 202
186 186 186
203 203 203
207 207 207
194 194 194
172 172 172
165 165 165
150 150 150
154 154 154
180 180 180
200 200 200
210 210 210
202 202 202
182 182 182
186 186 186
201 201 201
202 202 202
188 188 188
166 166 166
146 146 146
156 156 156
164 164 164
162 162 162
152 152 152
136 136 136
120 120 120
127 127 127
131 131 131
128 128 128
119 119 119
136 136 136
154 154 154
164 164 164
169 169 169
198 198 198
227 227 227
243 243 243
220 220 220
191 191 191
163 163 163
173 173 173
184 184 184
192 192 192
187 187 187
172 172 172
150 150 150
169 169 169
196 196 196
218 218 218
224 224 224
207 207 207
189 189 189
210 210 210
217 217 217
204 204 204
181 181 181
167 167 167
168 168 168
174 174 174
190 190 190
216 216 216
231 231 231
218 218 218
193 193 193
168 168 168
180 180 180
180 180 180
170 170 170
166 166 166
163 163 163
153 153 153
161 161 161
160 160 160
150 150 150
134 134 134
142 142 142
155 155 155
160 160 160
156 156 156
144 144 144
149 149 149
169 169 169
182 182 182
184 184 184
188 188 188
209 209 209
217 217 217
205 205 205
182 182 182
155 155 155
178 178 178
199 199 199
210 210 210
203 203 203
184 184 184
159 159 159
162 162 162
186 186 186
204 204 204
208 208 208
195 195 195
200 200 200
228 228 228
243 243 243
219 219 219
190 190 190
170 170 170
188 188 188
197 197 197
191 191 191
212 212 212
225 225 225
214 214 214
190 190 190
145 145 145
154 154 154
155 155 155
168 168 168
176 176 176
173 173 173
160 160 160
150 150 150
148 148 148
142 142 142
142 142 142
164 164 164
181 181 181
188 188 188
182 182 182
167 167 167
155 155 155
176 176 176
191 191 191
193 193 193
183 183 183
184 184 184
188 188 188
180 180 180
163 163 163
153 153 153
179 179 179
201 201 201
212 212 212
205 205 205
185 185 185
180 180 180
176 176 176
167 167 167
180 180 180
183 183 183
174 174 174
196 196 196
220 220 220
230 230 230
213 213 213
186 186 186
178 178 178
199 199 199
209 209 209
202 202 202
192 192 192
200 200 200
194 194 194
176 176 176
120 120 120
131 131 131
152 152 152
168 168 168
176 176 176
173 173 173
160 160 160
141 141 141
153 153 153
161 161 161
159 159 159
182 182 182
204 204 204
214 214 214
206 206 206
185 185 185
159 159 159
172 172 172
186 186 186
189 189 189
180 180 180
195 195 195
197 197 197
186 186 186
166 166 166
146 146 146
169 169 169
187 187 187
196 196 196
206 206 206
207 207 207
208 208 208
202 202 202
183 183 183
159 159 159
155 155 155
156 156 156
179 179 179
197 197 197
202 202 202
192 192 192
172 172 172
175 175 175
195 195 195
205 205 205
199 199 199
180 180 180
172 172 172
168 168 168
154 154 154
106 106 106
124 124 124
144 144 144
158 158 158
165 165 165
162 162 162
151 151 151
159 159 159
165 165 165
173 173 173
171 171 171
190 190 190
216 216 216
231 231 231
218 218 218
193 193 193
165 165 165
170 170 170
185 185 185
189 189 189
195 195 195
215 215 215
219 219 219
202 202 202
177 177 177
150 150 150
151 151 151
175 175 175
202 202 202
224 224 224
225 225 225
232 232 232
221 221 221
196 196 196
168 168 168
141 141 141
141 141 141
162 162 162
178 178 178
185 185 185
180 180 180
164 164 164
163 163 163
180 180 180
187 187 187
190 190 190
189 189 189
176 176 176
156 156 156
132 132 132
127 127 127
146 146 146
159 159 159
164 164 164
160 160 160
148 148 148
168 168 168
186 186 186
194 194 194
189 189 189
173 173 173
185 185 185
208 208 208
220 220 220
210 210 210
188 188 188
163 163 163
189 189 189
210 210 210
217 217 217
204 204 204
218 218 218
222 222 222
204 204 204
179 179 179
151 151 151
145 145 145
173 173 173
199 199 199
218 218 218
219 219 219
230 230 230
220 220 220
195 195 195
175 175 175
168 168 168
155 155 155
180 180 180
201 201 201
211 211 211
203 203 203
183 183 183
177 177 177
171 171 171
193 193 193
208 208 208
207 207 207
190 190 190
167 167 167
141 141 141
144 144 144
166 166 166
183 183 183
190 190 190
185 185 185
169 169 169
185 185 185
209 209 209
223 223 223
214 214 214
191 191 191
169 169 169
187 187 187
195 195 195
188 188 188
172 172 172
170 170 170
198 198 198
226 226 226
239 239 239
217 217 217
201 201 201
204 204 204
191 191 191
172 172 172
149 149 149
136 136 136
161 161 161
182 182 182
196 196 196
197 197 197
205 205 205
199 199 199
197 197 197
203 203 203
193 193 193
173 173 173
189 189 189
215 215 215
230 230 230
217 217 217
195 195 195
202 202 202
193 193 193
195 195 195
211 211 211
210 210 210
192 192 192
168 168 168
144 144 144
155 155 155
180 180 180
202 202 202
212 212 212
204 204 204
184 184 184
192 192 192
221 221 221
251 251 251
229 229 229
199 199 199
170 170 170
161 161 161
167 167 167
164 164 164
156 156 156
166 166 166
193 193 193
217 217 217
226 226 226
210 210 210
185 185 185
185 185 185
180 180 180
165 165 165
144 144 144
154 154 154
161 161 161
159 159 159
169 169 169
170 170 170
177 177 177
194 194 194
218 218 218
228 228 228
212 212 212
187 187 187
186 186 186
209 209 209
221 221 221
211 211 211
208 208 208
217 217 217
206 206 206
184 184 184
196 196 196
195 195 195
181 181 181
160 160 160
142 142 142
157 157 157
184 184 184
207 207 207
219 219 219
210 210 210
188 188 188
186 186 186
211 211 211
226 226 226
216 216 216
192 192 192
165 165 165
175 175 175
187 187 187
188 188 188
177 177 177
162 162 162
178 178 178
193 193 193
198 198 198
189 189 189
170 170 170
166 166 166
162 162 162
150 150 150
159 159 159
177 177 177
186 186 186
183 183 183
169 169 169
149 149 149
167 167 167
196 196 196
221 221 221
233 233 233
215 215 215
188 188 188
171 171 171
189 189 189
197 197 197
191 191 191
205 205 205
213 213 213
202 202 202
181 181 181
173 173 173
173 173 173
162 162 162
144 144 144
138 138 138
152 152 152
176 176 176
196 196 196
206 206 206
199 199 199
180 180 180
170 170 170
188 188 188
197 197 197
191 191 191
175 175 175
185 185 185
198 198 198
204 204 204
205 205 205
191 191 191
184 184 184
172 172 172
177 177 177
180 180 180
189 189 189
186 186 186
172 172 172
151 151 151
148 148 148
173 173 173
194 194 194
207 207 207
202 202 202
185 185 185
161 161 161
159 159 159
184 184 184
204 204 204
210 210 210
199 199 199
178 178 178
152 152 152
164 164 164
169 169 169
171 171 171
187 187 187
193 193 193
186 186 186
168 168 168
147 147 147
147 147 147
158 158 158
166 166 166
166 166 166
144 144 144
164 164 164
178 178 178
182 182 182
177 177 177
162 162 162
147 147 147
161 161 161
167 167 167
164 164 164
176 176 176
201 201 201
219 219 219
217 217 217
208 208 208
198 198 198
197 197 197
183 183 183
178 178 178
203 203 203
218 218 218
213 213 213
192 192 192
167 167 167
161 161 161
177 177 177
200 200 200
214 214 214
209 209 209
190 190 190
165 165 165
144 144 144
164 164 164
178 178 178
182 182 182
175 175 175
159 159 159
143 143 143
152 152 152
152 152 152
151 151 151
163 163 163
168 168 168
162 162 162
148 148 148
137 137 137
161 161 161
181 181 181
193 193 193
192 192 192
153 153 153
176 176 176
192 192 192
197 197 197
188 188 188
169 169 169
145 145 145
143 143 143
156 156 156
162 162 162
177 177 177
203 203 203
222 222 222
219 219 219
198 198 198
199 199 199
198 198 198
183 183 183
187 187 187
215 215 215
241 241 241
231 231 231
203 203 203
174 174 174
182 182 182
179 179 179
191 191 191
203 203 203
199 199 199
182 182 182
159 159 159
150 150 150
148 148 148
151 151 151
154 154 154
148 148 148
136 136 136
147 147 147
156 156 156
156 156 156
148 148 148
137 137 137
140 140 140
137 137 137
129 129 129
147 147 147
174 174 174
198 198 198
215 215 215
213 213 213
154 154 154
177 177 177
194 194 194
199 199 199
189 189 189
170 170 170
146 146 146
158 158 158
174 174 174
181 181 181
182 182 182
190 190 190
203 203 203
202 202 202
186 186 186
185 185 185
184 184 184
172 172 172
183 183 183
209 209 209
227 227 227
221 221 221
197 197 197
184 184 184
194 194 194
191 191 191
195 195 195
188 188 188
178 178 178
165 165 165
169 169 169
179 179 179
177 177 177
165 165 165
147 147 147
124 124 124
128 128 128
143 143 143
151 151 151
151 151 151
143 143 143
138 138 138
130 130 130
126 126 126
121 121 121
149 149 149
177 177 177
203 203 203
222 222 222
220 220 220
147 147 147
168 168 168
182 182 182
187 187 187
179 179 179
161 161 161
143 143 143
165 165 165
183 183 183
191 191 191
194 194 194
195 195 195
182 182 182
177 177 177
165 165 165
163 163 163
163 163 163
153 153 153
168 168 168
188 188 188
199 199 199
196 196 196
180 180 180
183 183 183
193 193 193
213 213 213
225 225 225
212 212 212
188 188 188
176 176 176
193 193 193
207 207 207
205 205 205
188 188 188
164 164 164
138 138 138
118 118 118
131 131 131
139 139 139
139 139 139
144 144 144
143 143 143
136 136 136
143 143 143
142 142 142
144 144 144
169 169 169
192 192 192
206 206 206
205 205 205
146 146 146
161 161 161
168 168 168
166 166 166
160 160 160
145 145 145
141 141 141
164 164 164
181 181 181
189 189 189
193 193 193
193 193 193
181 181 181
160 160 160
141 141 141
139 139 139
147 147 147
147 147 147
147 147 147
163 163 163
170 170 170
168 168 168
157 157 157
171 171 171
196 196 196
226 226 226
253 253 253
225 225 225
202 202 202
194 194 194
210 210 210
233 233 233
228 228 228
203 203 203
175 175 175
146 146 146
117 117 117
114 114 114
121 121 121
134 134 134
141 141 141
144 144 144
159 159 159
167 167 167
166 166 166
155 155 155
153 153 153
172 172 172
182 182 182
181 181 181
160 160 160
178 178 178
187 187 187
184 184 184
170 170 170
150 150 150
132 132 132
153 153 153
168 168 168
175 175 175
179 179 179
180 180 180
169 169 169
151 151 151
141 141 141
157 157 157
166 166 166
166 166 166
157 157 157
146 146 146
154 154 154
153 153 153
144 144 144
162 162 162
189 189 189
213 213 213
225 225 225
213 213 213
210 210 210
201 201 201
211 211 211
234 234 234
229 229 229
204 204 204
175 175 175
146 146 146
117 117 117
116 116 116
119 119 119
125 125 125
136 136 136
159 159 159
178 178 178
188 188 188
186 186 186
173 173 173
152 152 152
154 154 154
155 155 155
154 154 154
166 166 166
186 186 186
196 196 196
193 193 193
177 177 177
155 155 155
149 149 149
159 159 159
159 159 159
154 154 154
158 158 158
158 158 158
152 152 152
144 144 144
151 151 151
169 169 169
179 179 179
179 179 179
168 168 168
172 172 172
182 182 182
181 181 181
170 170 170
151 151 151
172 172 172
189 189 189
196 196 196
193 193 193
200 200 200
196 196 196
195 195 195
209 209 209
206 206 206
189 189 189
165 165 165
139 139 139
127 127 127
137 137 137
142 142 142
138 138 138
142 142 142
167 167 167
188 188 188
200 200 200
197 197 197
182 182 182
160 160 160
166 166 166
165 165 165
155 155 155
163 163 163
181 181 181
191 191 191
188 188 188
173 173 173
154 154 154
174 174 174
186 186 186
187 187 187
176 176 176
170 170 170
181 181 181
181 181 181
170 170 170
152 152 152
171 171 171
182 182 182
181 181 181
181 181 181
195 195 195
210 210 210
208 208 208
191 191 191
167 167 167
149 149 149
162 162 162
167 167 167
174 174 174
183 183 183
185 185 185
176 176 176
180 180 180
183 183 183
182 182 182
170 170 170
151 151 151
152 152 152
156 156 156
160 160 160
156 156 156
144 144 144
165 165 165
186 186 186
197 197 197
195 195 195
180 180 180
183 183 183
194 194 194
192 192 192
178 178 178
151 151 151
167 167 167
175 175 175
172 172 172
165 165 165
170 170 170
194 194 194
211 211 211
212 212 212
196 196 196
193 193 193
210 210 210
210 210 210
193 193 193
170 170 170
163 163 163
173 173 173
175 175 175
190 190 190
209 209 209
232 232 232
229 229 229
204 204 204
176 176 176
158 158 158
166 166 166
164 164 164
153 153 153
163 163 163
165 165 165
168 168 168
190 190 190
204 204 204
203 203 203
187 187 187
164 164 164
179 179 179
186 186 186
180 180 180
167 167 167
154 154 154
155 155 155
172 172 172
182 182 182
180 180 180
177 177 177
203 203 203
220 220 220
217 217 217
196 196 196
134 134 134
155 155 155
171 171 171
178 178 178
174 174 174
176 176 176
204 204 204
227 227 227
228 228 228
206 206 206
208 208 208
234 234 234
234 234 234
208 208 208
193 193 193
171 171 171
155 155 155
172 172 172
187 187 187
206 206 206
227 227 227
224 224 224
202 202 202
175 175 175
182 182 182
192 192 192
190 190 190
175 175 175
154 154 154
146 146 146
173 173 173
197 197 197
214 214 214
213 213 213
203 203 203
183 183 183
205 205 205
215 215 215
206 206 206
185 185 185
159 159 159
147 147 147
152 152 152
159 159 159
158 158 158
182 182 182
210 210 210
232 232 232
227 227 227
202 202 202
138 138 138
160 160 160
177 177 177
185 185 185
181 181 181
172 172 172
198 198 198
217 217 217
218 218 218
200 200 200
207 207 207
232 232 232
232 232 232
234 234 234
211 211 211
183 183 183
156 156 156
160 160 160
172 172 172
188 188 188
202 202 202
201 201 201
185 185 185
176 176 176
200 200 200
215 215 215
211 211 211
192 192 192
166 166 166
142 142 142
168 168 168
193 193 193
220 220 220
234 234 234
218 218 218
194 194 194
222 222 222
244 244 244
225 225 225
196 196 196
167 167 167
146 146 146
137 137 137
134 134 134
148 148 148
175 175 175
199 199 199
215 215 215
212 212 212
193 193 193
135 135 135
156 156 156
172 172 172
180 180 180
176 176 176
162 162 162
179 179 179
193 193 193
193 193 193
181 181 181
190 190 190
206 206 206
231 231 231
238 238 238
213 213 213
184 184 184
159 159 159
157 157 157
151 151 151
165 165 165
174 174 174
173 173 173
162 162 162
180 180 180
205 205 205
223 223 223
218 218 218
196 196 196
170 170 170
142 142 142
163 163 163
190 190 190
214 214 214
226 226 226
212 212 212
191 191 191
218 218 218
235 235 235
220 220 220
194 194 194
165 165 165
150 150 150
158 158 158
157 157 157
148 148 148
159 159 159
178 178 178
188 188 188
187 187 187
181 181 181
125 125 125
144 144 144
158 158 158
165 165 165
161 161 161
150 150 150
164 164 164
187 187 187
202 202 202
204 204 204
190 190 190
190 190 190
209 209 209
212 212 212
197 197 197
174 174 174
153 153 153
151 151 151
141 141 141
138 138 138
145 145 145
145 145 145
147 147 147
172 172 172
194 194 194
208 208 208
204 204 204
187 187 187
163 163 163
138 138 138
160 160 160
176 176 176
193 193 193
200 200 200
192 192 192
177 177 177
197 197 197
205 205 205
198 198 198
179 179 179
155 155 155
170 170 170
180 180 180
179 179 179
168 168 168
149 149 149
153 153 153
170 170 170
181 181 181
198 198 198
110 110 110
127 127 127
139 139 139
144 144 144
141 141 141
146 146 146
174 174 174
201 201 201
222 222 222
224 224 224
204 204 204
177 177 177
189 189 189
193 193 193
184 184 184
166 166 166
158 158 158
157 157 157
157 157 157
148 148 148
133 133 133
145 145 145
169 169 169
187 187 187
196 196 196
192 192 192
193 193 193
182 182 182
162 162 162
141 141 141
164 164 164
182 182 182
191 191 191
187 187 187
172 172 172
156 156 156
170 170 170
176 176 176
171 171 171
161 161 161
163 163 163
184 184 184
196 196 196
196 196 196
186 186 186
166 166 166
145 145 145
161 161 161
184 184 184
202 202 202
125 125 125
123 123 123
115 115 115
119 119 119
117 117 117
146 146 146
174 174 174
200 200 200
221 221 221
222 222 222
203 203 203
193 193 193
215 215 215
222 222 222
207 207 207
182 182 182
167 167 167
178 178 178
177 177 177
166 166 166
148 148 148
158 158 158
185 185 185
210 210 210
224 224 224
219 219 219
222 222 222
203 203 203
178 178 178
150 150 150
160 160 160
177 177 177
185 185 185
187 187 187
186 186 186
173 173 173
153 153 153
147 147 147
159 159 159
168 168 168
169 169 169
196 196 196
219 219 219
225 225 225
207 207 207
182 182 182
158 158 158
153 153 153
175 175 175
192 192 192
136 136 136
134 134 134
125 125 125
111 111 111
117 117 117
138 138 138
163 163 163
185 185 185
200 200 200
201 201 201
188 188 188
200 200 200
229 229 229
242 242 242
217 217 217
189 189 189
179 179 179
190 190 190
190 190 190
177 177 177
157 157 157
167 167 167
191 191 191
220 220 220
245 245 245
235 235 235
241 241 241
213 213 213
184 184 184
154 154 154
147 147 147
174 174 174
197 197 197
213 213 213
211 211 211
193 193 193
168 168 168
141 141 141
157 157 157
166 166 166
174 174 174
203 203 203
232 232 232
245 245 245
217 217 217
187 187 187
188 188 188
180 180 180
178 178 178
171 171 171
140 140 140
138 138 138
129 129 129
130 130 130
141 141 141
145 145 145
145 145 145
163 163 163
174 174 174
175 175 175
167 167 167
193 193 193
216 216 216
223 223 223
208 208 208
183 183 183
179 179 179
191 191 191
191 191 191
185 185 185
174 174 174
190 190 190
194 194 194
209 209 209
223 223 223
220 220 220
223 223 223
204 204 204
178 178 178
150 150 150
152 152 152
181 181 181
208 208 208
230 230 230
226 226 226
202 202 202
174 174 174
153 153 153
146 146 146
155 155 155
168 168 168
195 195 195
217 217 217
222 222 222
206 206 206
209 209 209
217 217 217
204 204 204
197 197 197
184 184 184
136 136 136
134 134 134
128 128 128
147 147 147
161 161 161
166 166 166
162 162 162
149 149 149
161 161 161
174 174 174
178 178 178
175 175 175
191 191 191
195 195 195
186 186 186
167 167 167
184 184 184
206 206 206
216 216 216
207 207 207
193 193 193
205 205 205
211 211 211
199 199 199
194 194 194
193 193 193
195 195 195
183 183 183
163 163 163
139 139 139
149 149 149
177 177 177
202 202 202
219 219 219
216 216 216
196 196 196
171 171 171
159 159 159
148 148 148
137 137 137
154 154 154
176 176 176
190 190 190
194 194 194
199 199 199
227 227 227
244 244 244
220 220 220
205 205 205
191 191 191
126 126 126
124 124 124
138 138 138
159 159 159
175 175 175
181 181 181
176 176 176
161 161 161
181 181 181
199 199 199
205 205 205
195 195 195
175 175 175
166 166 166
159 159 159
162 162 162
190 190 190
216 216 216
231 231 231
217 217 217
213 213 213
208 208 208
211 211 211
199 199 199
177 177 177
165 165 165
166 166 166
158 158 158
142 142 142
123 123 123
138 138 138
163 163 163
182 182 182
194 194 194
193 193 193
179 179 179
161 161 161
156 156 156
146 146 146
129 129 129
134 134 134
151 151 151
162 162 162
167 167 167
195 195 195
220 220 220
231 231 231
214 214 214
197 197 197
184 184 184
111 111 111
117 117 117
141 141 141
163 163 163
179 179 179
186 186 186
180 180 180
178 178 178
193 193 193
217 217 217
227 227 227
211 211 211
196 196 196
189 189 189
172 172 172
158 158 158
184 184 184
206 206 206
217 217 217
207 207 207
216 216 216
212 212 212
194 194 194
185 185 185
166 166 166
143 143 143
147 147 147
151 151 151
148 148 148
137 137 137
135 135 135
162 162 162
187 187 187
208 208 208
214 214 214
202 202 202
179 179 179
153 153 153
142 142 142
127 127 127
111 111 111
125 125 125
133 133 133
155 155 155
179 179 179
197 197 197
202 202 202
193 193 193
178 178 178
168 168 168
91 91 91
113 113 113
137 137 137
157 157 157
172 172 172
178 178 178
185 185 185
203 203 203
209 209 209
216 216 216
226 226 226
210 210 210
220 220 220
210 210 210
187 187 187
160 160 160
167 167 167
184 184 184
191 191 191
189 189 189
201 201 201
197 197 197
181 181 181
163 163 163
148 148 148
142 142 142
155 155 155
160 160 160
157 157 157
145 145 145
140 140 140
169 169 169
198 198 198
225 225 225
238 238 238
217 217 217
189 189 189
170 170 170
159 159 159
141 141 141
119 119 119
95 95 95
115 115 115
137 137 137
156 156 156
169 169 169
173 173 173
167 167 167
162 162 162
153 153 153
105 105 105
128 128 128
147 147 147
161 161 161
167 167 167
168 168 168
196 196 196
221 221 221
230 230 230
212 212 212
203 203 203
216 216 216
229 229 229
216 216 216
191 191 191
171 171 171
181 181 181
181 181 181
169 169 169
168 168 168
177 177 177
174 174 174
162 162 162
146 146 146
135 135 135
142 142 142
155 155 155
161 161 161
157 157 157
145 145 145
139 139 139
167 167 167
195 195 195
219 219 219
228 228 228
212 212 212
186 186 186
181 181 181
169 169 169
149 149 149
126 126 126
107 107 107
111 111 111
115 115 115
132 132 132
156 156 156
175 175 175
187 187 187
187 187 187
176 176 176
120 120 120
145 145 145
168 168 168
186 186 186
194 194 194
189 189 189
194 194 194
217 217 217
225 225 225
209 209 209
184 184 184
202 202 202
212 212 212
203 203 203
182 182 182
185 185 185
196 196 196
195 195 195
181 181 181
173 173 173
189 189 189
194 194 194
186 186 186
168 168 168
145 145 145
135 135 135
147 147 147
152 152 152
149 149 149
138 138 138
130 130 130
156 156 156
179 179 179
196 196 196
201 201 201
191 191 191
182 182 182
181 181 181
169 169 169
149 149 149
126 126 126
136 136 136
140 140 140
137 137 137
142 142 142
168 168 168
192 192 192
208 208 208
208 208 208
192 192 192
129 129 129
156 156 156
183 183 183
206 206 206
218 218 218
210 210 210
188 188 188
196 196 196
201 201 201
191 191 191
171 171 171
179 179 179
185 185 185
179 179 179
190 190 190
204 204 204
203 203 203
196 196 196
182 182 182
190 190 190
213 213 213
222 222 222
208 208 208
184 184 184
157 157 157
129 129 129
132 132 132
136 136 136
133 133 133
130 130 130
126 126 126
138 138 138
156 156 156
169 169 169
173 173 173
167 167 167
171 171 171
170 170 170
159 159 159
141 141 141
149 149 149
163 163 163
168 168 168
164 164 164
151 151 151
172 172 172
197 197 197
215 215 215
216 216 216
198 198 198
137 137 137
159 159 159
187 187 187
212 212 212
227 227 227
217 217 217
192 192 192
170 170 170
173 173 173
166 166 166
151 151 151
153 153 153
157 157 157
171 171 171
194 194 194
209 209 209
207 207 207
191 191 191
172 172 172
197 197 197
224 224 224
238 238 238
218 218 218
190 190 190
161 161 161
150 150 150
152 152 152
146 146 146
137 137 137
142 142 142
139 139 139
144 144 144
168 168 168
187 187 187
196 196 196
191 191 191
175 175 175
152 152 152
142 142 142
150 150 150
170 170 170
188 188 188
196 196 196
190 190 190
173 173 173
166 166 166
188 188 188
203 203 203
203 203 203
208 208 208
